<?xml version="1.0" encoding="UTF-8" standalone="no"?>
<svg
   xmlns:dc="http://purl.org/dc/elements/1.1/"
   xmlns:cc="http://creativecommons.org/ns#"
   xmlns:rdf="http://www.w3.org/1999/02/22-rdf-syntax-ns#"
   xmlns:svg="http://www.w3.org/2000/svg"
   xmlns="http://www.w3.org/2000/svg"
   xmlns:sodipodi="http://sodipodi.sourceforge.net/DTD/sodipodi-0.dtd"
   xmlns:inkscape="http://www.inkscape.org/namespaces/inkscape"
   width="200"
   height="200"
   viewBox="0 0 52.91 52.91"
   version="1.1"
   id="clock_10"
   data-pie-num="10"
   inkscape:version="0.92.3 (2405546, 2018-03-11)"
   sodipodi:docname="clock_10.svg">
  <metadata
     id="metadata25">
    <rdf:RDF>
      <cc:Work
         rdf:about="">
        <dc:format>image/svg+xml</dc:format>
        <dc:type
           rdf:resource="http://purl.org/dc/dcmitype/StillImage" />
      </cc:Work>
    </rdf:RDF>
  </metadata>
  <defs
     id="defs9110">
    <clipPath
       clipPathUnits="userSpaceOnUse"
       id="clipPath18-3">
      <path
         d="M 0,336 H 336 V 0 H 0 Z"
         id="path16-5"
         inkscape:connector-curvature="0" />
    </clipPath>
    <clipPath
       clipPathUnits="userSpaceOnUse"
       id="clipPath26-6">
      <path
         d="M 56.63,638 H 1725 V -679.64 H 56.63 Z"
         id="path24-2"
         inkscape:connector-curvature="0" />
    </clipPath>
    <filter
       inkscape:collect="always"
       style="color-interpolation-filters:sRGB"
       id="filter2235"
       x="-0.03"
       width="1.07"
       y="-0.03"
       height="1.07">
      <feGaussianBlur
         inkscape:collect="always"
         stdDeviation="0.73"
         id="feGaussianBlur2237" />
    </filter>
  </defs>
  <script
     type="text/javascript"
     src="js/clock.js"
     id="script_clock" />
  <script
     type="text/javascript"
     data-namespace="clock10"
     id="script10"><![CDATA[

clock10 = {

  menu: {
    'Tick': {
      eventName: 'clock_tick',
      applicable: (elem) => {
        return elem.querySelector('#pie10').style['opacity'] !== '1'
      },
      uiLabel: (elem) => { return 'Tick clock forward' },
      handler: function(evt) {
        clock.tick_handler(this)
      },
    },
    'Untick': {
      eventName: 'clock_untick',
      applicable: (elem) => {
        return elem.querySelector('#pie1').style['opacity'] === '1'
      },
      uiLabel: (elem) => { return 'Tick clock backward' },
      handler: function(evt) {
        clock.untick_handler(this)
      },
    },
  },

  initialize: function(elem, prototype) {
    return clock.initialize(elem, prototype)
  },

}
]]></script>
  <g
     inkscape:label="Layer 1"
     inkscape:groupmode="layer"
     id="layer1">
    <circle
       r="23.48"
       style="opacity:1;fill:#f2ecf2;fill-opacity:0.25;stroke:none;stroke-opacity:1"
       id="bg"
       cx="25.53"
       cy="26.70"
       inkscape:label="#path833" />
    <path
       style="fill:#231f20;fill-opacity:1;fill-rule:nonzero;stroke:none;stroke-width:0.34"
       d="m 25.48,2.34 c 0.01,0 0.2,0.06 0.57,0.21 C 25.24,2.65 22.61,2.23 23.83,2.53 22.48,2.45 21.2,3.07 19.96,3.3 20.65,2.63 17.07,4.35 17.3,3.98 18.88,3.37 16.07,4.24 16.62,4.22 15.34,5.02 15.53,4.56 15.1,4.8 13.32,5.5 11.83,6.81 10.26,7.92 8.99,8.95 8.5,9.72 7.1,11.2 L 7.33,10.91 7.56,10.64 C 6.5,11.8 8.17,9.35 7.22,10.78 5.88,12.37 5.75,13.21 4.85,14.4 c -0.48,0.9 -1.01,2.03 -1.24,2.76 -0.43,1.08 0.38,-1.42 -0.29,0.17 -0.07,0.5 -0.72,1.76 -0.26,0.55 -0.47,0.69 -1.12,2.19 -0.2,0.68 -0.43,1.63 -1.18,3.25 -1.07,4.27 -0.04,1.37 -0.4,2.03 -0.13,3 -0.09,1.77 -0.12,3.88 0.45,4.92 0.4,1.34 0.27,-0.28 0.59,1.25 -0.17,0.69 -0.67,-1.62 -0.59,0.07 -0.12,1.47 1.99,3.51 1.46,4.28 -0.34,-1.3 -1.18,-2.41 -0.28,-0.61 -0.01,0.51 1.79,3.26 0.7,1.66 1.16,1.69 1.04,2.23 2.69,4.2 0.62,0.78 0.77,0.98 2.1,1.67 -0.32,0.74 -1.13,-0.24 -0.21,0.69 0.23,-0.18 0.56,0.28 1.09,1 0.4,-0.05 1.37,1.21 2.05,1.63 0.02,-0.02 2.18,0.65 1.99,1.25 1.07,-0.11 4.54,1.15 1.95,0.66 -0.68,-0.09 -2.12,-0.62 -0.75,0.15 -1.88,-0.48 3.62,1.41 1.17,0.45 -2.15,-0.75 2,0.09 1.2,0.44 1.38,0.35 -0.13,0.17 1.63,0.5 1.26,0.54 0.91,0.56 1.2,-0.34 1.61,0.13 1.19,0.9 1.53,0.88 1.12,0.51 2.4,-0.12 4.12,0.12 1.81,-0.05 3.03,0.11 3.38,-0.03 2.33,-0.58 -2.32,0.44 0.04,-0.37 1.44,0 3.49,-1.38 4.5,-1 -0.4,0.21 -2.26,0.53 -0.95,0.29 -2.13,0.73 1.78,-0.4 2.5,-0.78 1.66,-0.68 -0.41,-0.09 1.37,-1.04 0.52,-0.41 1.7,-0.74 0.45,-0.14 0.3,-0.12 2.07,-1.07 0.81,-0.56 1.12,-0.84 1.83,-1.57 0.42,-0.51 -0.43,0.52 -2.39,0.99 -2.04,1.27 -1.61,1 -1.39,0.42 -3.01,1.03 -1.47,0.58 -2.98,0.97 -4.76,1.2 -2.39,0.21 -4.75,-0.1 -7.13,-0.48 -1.25,0.17 -4.42,-0.92 -4.18,-1.06 C 15.07,47.77 13.73,46.96 12.71,46.19 11.79,45.8 10.04,44.5 9.15,43.55 8.41,42.58 7,41.48 6.09,39.7 5.11,38.16 4.07,36.1 3.85,34.93 3.3,32.74 3.17,33.15 2.57,30.89 2.65,31.03 2.21,27.33 2.15,26.96 2.2,25.4 2.47,22.94 2.58,22.32 c 0.74,-1.6 0.86,-2.09 1.53,-4.24 0.48,-1.44 1.73,-3.95 3.07,-5.6 0.89,-1.23 2,-2.06 2.93,-3.18 1.25,-1.16 3.65,-2.71 5,-3.31 1.39,-0.76 4.6,-1.58 3.98,-2.02 1.08,-0.01 3.68,-0.52 5.77,-0.56 1.74,0.1 4.23,-0.01 4.05,0.23 1.11,-0.06 0.99,0.15 0.86,0.17 0.81,-0.19 2.71,0.78 2.76,0.45 1.3,0.29 3.9,1.51 5.61,2.45 0.66,0.11 2.28,2.04 3.07,2.23 0.96,0.96 2.33,2.68 3.19,3.46 1.01,1.45 1.9,2.66 2.72,4.5 0.92,1.93 1.63,4.02 1.75,6.18 0.43,-0.4 0.21,3.61 0.6,2.76 0.74,-1.67 0.07,-3.41 -0.18,-4.81 -0.08,-1.03 -1.52,-4.97 -1.46,-4.31 0.39,1.01 -1.03,-2.15 -1.25,-2.67 -0.45,-0.3 -1.09,-1.67 -0.79,-1.3 -0.21,-0.37 -1.1,-1.48 -0.36,-0.46 C 44.24,10.77 42.58,8.91 41.24,8.15 39.56,6.92 38.82,6.05 37.06,5.44 35.72,5.05 36.22,4.54 34.36,4.12 32.9,3.54 33.77,3.89 34.42,4.29 32.44,3.76 31.23,2.72 29.7,2.97 32.35,3.25 27.29,2.96 29.03,2.88 26.44,2.48 32.02,3.09 29.17,2.71 27.97,2.66 26.85,2.49 26.62,2.44 c -0.76,0 -1.17,-0.12 -1.14,-0.1 z m 3.55,0.53 c 0.1,0.05 0.41,-0.04 0,0 z m 2.35,1.1 c 0.09,0 0.32,0.05 0.1,0.06 C 31.32,3.98 31.32,3.97 31.38,3.97 Z M 12.25,6.36 c -0.09,0 -0.41,0.15 -0.25,0.25 0,0 -0.01,0.01 -0.02,0.05 0.02,0 0.03,-0.03 0.03,-0.04 0.27,-0.18 0.3,-0.25 0.25,-0.26 z M 8.61,9.15 c -1.02,0.96 -0.29,0.47 0,0 z m 37.52,4.02 c 0.01,0.02 0.01,0.02 0,0 z M 5.22,13.75 c -0.01,0 -0.06,0 -0.15,0.04 -0.24,0.22 0.22,-0.02 0.15,-0.04 z M 4.97,14.16 C 4.99,14.11 4.98,14.14 4.86,14.4 4.88,14.35 4.94,14.22 4.97,14.16 Z m -1.03,1.93 c 0,0 -0.01,0.01 -0.02,0.02 0,0.17 0.05,-0.05 0.02,-0.02 z m -0.88,2.07 c 0.04,0 0.01,0.21 -0.2,0.64 0.05,-0.43 0.16,-0.64 0.2,-0.64 z m -0.71,1.55 c 0,0.01 -0.07,0.14 -0.18,0.36 C 2.3,19.8 2.36,19.7 2.35,19.71 Z m 46.79,3.9 c 0,0 0,0.03 0.01,0.1 0,-0.07 -0.01,-0.1 -0.01,-0.1 z m 0.06,1.89 c -0.2,1.05 0.13,0.22 0,0 z m 0.19,0.93 c -0.38,0.07 0.32,0.92 0,0 z m -0.19,0.4 C 49.16,26.82 49.12,27.16 49.24,27 49.23,26.88 49.22,26.83 49.2,26.83 Z m -0.04,3.77 c -0.06,0.12 -0.01,0.75 0,0 z M 1.94,30.86 c 0,-0.1 0,-0.04 0.02,0.5 0,-0.12 -0.02,-0.39 -0.02,-0.5 z m 0.45,0.7 c -0.1,0.23 0.45,0.69 0,0 z m 46.47,0.4 c -0.01,0 -0.08,0.25 -0.21,0.97 -0.07,0.32 -0.15,0.65 -0.27,0.97 0.34,-0.63 0.53,-1.94 0.48,-1.95 z M 2.4,32.38 c 0.01,0.01 0.06,0.18 0.1,0.56 C 2.39,32.59 2.37,32.36 2.4,32.38 Z m 46.26,1.12 c -0.02,-0.01 -0.1,0.16 -0.18,0.61 0.16,-0.36 0.2,-0.59 0.18,-0.61 z m -1.02,1.53 c 0,0 -0.1,0.16 -0.07,0.15 -0.02,0.05 -0.05,0.14 -0.09,0.28 0.1,0.17 0.19,-0.36 0.14,-0.35 0.01,-0.04 0.02,-0.07 0.02,-0.07 z m -0.07,0.49 c -0.02,0 -0.1,0.16 -0.26,0.6 0.05,0.31 0.32,-0.63 0.26,-0.6 z m -0.42,0.68 c -0.04,-0.03 -0.52,0.89 -0.14,0.44 0.12,-0.31 0.15,-0.42 0.14,-0.44 z m 0.01,0.17 c -0.17,0.47 -0.15,0.61 0,0 z m 0.06,0.25 c 0,0 -0.05,0.15 -0.2,0.6 l -0.01,0.02 c 0,0.09 0.22,-0.62 0.21,-0.62 z m -0.3,0.39 c 0,0 0,0.01 -0.02,0.05 0.01,-0.03 0.02,-0.05 0.02,-0.05 z m -0.71,1.12 -0.06,0.04 c 0.01,0 0.02,0 0.05,0 0.03,-0.02 0.02,-0.02 0.01,-0.02 z m 0.65,0.07 c -0.02,0 -0.07,0.03 -0.06,0.06 0.09,-0.05 0.09,-0.07 0.06,-0.06 z m -0.56,0.15 c -0.45,0.93 0.07,0.4 0,0 z M 5.88,38.67 c 0,0 -0.01,0.02 -0.03,0.09 l 0.02,-0.04 c 0,-0.01 0,-0.05 0,-0.05 z m -0.03,0.09 c 0,0.04 0.01,0.03 0.02,0.01 z m 40.02,-0.08 c -0.04,0 -0.15,0.13 -0.32,0.47 0.27,0.03 0.42,-0.49 0.32,-0.47 z m -0.1,0.38 c -0.18,0.32 -0.38,0.84 0,0 z m 0.63,0.01 c -0.07,-0.01 -1.45,1.45 -0.48,0.64 0.09,-0.1 0.16,-0.2 0.23,-0.28 0,0.03 0,0.05 0.05,-0.05 0,0 0,0 0,0 0.16,-0.21 0.23,-0.3 0.21,-0.31 z m -0.79,0.51 c -0.03,0 -0.2,0.19 -0.29,0.46 0.25,-0.32 0.31,-0.46 0.29,-0.46 z m -0.32,0.5 c -0.01,0 -0.06,0.07 -0.09,0.19 0.09,-0.13 0.11,-0.19 0.09,-0.19 z m -0.23,0.13 c -0.78,0.5 -0.02,0.21 0,0 z m -0.1,0.15 c -0.24,0.15 -0.45,0.79 0,0 z m -0.33,0.03 c -0.02,0.02 -0.4,0.85 -0.13,0.31 0.1,-0.24 0.14,-0.32 0.13,-0.31 z m -0.43,0.97 c 0,0 -0.02,0.01 -0.07,0.04 -0.49,0.72 0.13,-0.02 0.07,-0.04 z m 0.15,0.21 c -0.84,0.89 -0.21,0.68 0,0 z m -0.31,0.05 c 0,-0.01 -0.43,0.49 -0.35,0.45 0.26,-0.32 0.35,-0.44 0.35,-0.45 z m -0.38,0.05 C 43.35,41.65 42.75,43 43.71,41.69 43.7,41.68 43.68,41.67 43.66,41.67 Z m -0.07,0.42 c -0.01,0 -0.04,0.02 -0.1,0.06 -1.42,1.63 0.25,-0.08 0.1,-0.06 z M 7.37,42.75 c 1.06,1.2 0.92,0.07 0,0 z m 35.41,0 -0.06,0.09 c 0.04,-0.06 0.06,-0.09 0.06,-0.09 z m 0.13,0.28 c 0,-0.01 -0.07,0.03 -0.23,0.19 0.07,-0.38 -0.03,-0.09 -0.86,0.72 0.24,-0.21 0.48,-0.45 0.71,-0.69 -0.63,1.05 0.42,-0.16 0.38,-0.22 z m -34.9,0.32 c 0,0 0,0 0,0.01 0.05,0.05 0,-0.01 0,-0.01 z m 34.25,0.02 c 0,0 -0.02,0.01 -0.08,0.06 0.05,-0.04 0.08,-0.06 0.08,-0.06 z m -0.52,0.6 c -0.05,-0.04 -1.64,1.39 -0.44,0.41 l 0.41,-0.35 -0.04,0.06 c 0.06,-0.07 0.08,-0.11 0.08,-0.11 z m 0.53,0.17 c -0.03,0 -0.53,0.43 -0.16,0.2 0.13,-0.14 0.17,-0.19 0.16,-0.2 z m -1.53,0.55 c -0.08,0 -0.44,0.7 0,0.13 0.02,-0.09 0.02,-0.13 0,-0.13 z m 0.48,0.01 c -0.12,0 -0.36,0.14 -0.69,0.51 1.96,-1.35 -1.65,1.59 -0.07,0.6 l 0.06,-0.02 c 0.76,-0.43 0.99,-1.1 0.7,-1.09 z m -0.35,0.04 c 0,0 -0.01,0.01 -0.02,0.04 0.05,0.02 0.05,-0.05 0.02,-0.04 z m -1.05,0.67 c -0.08,-0.02 -0.27,0.42 0.03,0.1 0,-0.06 -0.01,-0.09 -0.03,-0.1 z m -0.11,0.61 c -0.03,-0.01 -0.32,0.1 -0.32,0.2 0.27,-0.13 0.34,-0.19 0.32,-0.2 z m -26.62,0.21 c -0.1,-0.01 0.03,0.26 0.47,0.45 -0.24,-0.31 -0.41,-0.43 -0.47,-0.45 z m 26.09,0.05 c -0.09,0 -0.28,0.1 -0.5,0.35 0.57,-0.14 0.66,-0.37 0.5,-0.35 z m -1.09,0.32 -0.43,0.28 0.42,-0.2 -0.05,-0.01 z m 0.89,0.08 c -0.22,0.02 -0.32,0.38 0.1,0.01 -0.03,-0.01 -0.06,-0.01 -0.1,-0.01 z m -26.53,0.48 0.02,0.1 c 0.8,0.54 1.11,0.37 -0.02,-0.1 z m 25.97,0 c -0.52,0.25 -0.67,0.37 0,0 z M 13,47.39 c 0.07,0.03 0.07,0.03 0,0 z m 24.15,0.21 c -0.02,0.02 -0.02,0.02 0,0 z m -0.89,0.04 c 0,0 -0.01,0 -0.04,0.02 0.02,-0.01 0.04,-0.02 0.04,-0.02 z m 1.01,0.02 c 0,0 -0.03,0.01 -0.1,0.06 0.06,-0.04 0.1,-0.06 0.1,-0.06 z m -0.99,0 c -0.09,0.03 -0.09,0.03 0,0 z m 0.88,0.05 c -0.02,5e-5 -0.2,0.08 -0.66,0.34 0.31,-0.1 0.7,-0.34 0.66,-0.34 z m -1.2,0.05 c 0,0 0,0 -0.02,0.01 0.01,0 0.02,-0.01 0.02,-0.01 z m -0.55,0.23 c -0.02,-0.04 -0.97,0.62 -0.15,0.16 0.12,-0.1 0.16,-0.15 0.15,-0.16 z m -1.87,0.85 c -0.13,0.09 -0.53,0.06 0,0 z m -4.3,1.03 c -1.31,-0.01 -0.85,0.16 0,0 z m -0.82,0.02 c -0.06,0 -0.34,0.01 -0.91,0.09 0.57,0 1.02,-0.08 0.91,-0.09 z m 3.86,0 c -0.32,0.01 -0.04,0.25 0.17,0.01 -0.07,0 -0.13,-0.01 -0.17,-0.01 z m -6.12,0.03 c 0,0 0.01,0.02 0.06,0.07 0.1,0.05 -0.05,-0.09 -0.06,-0.07 z m -5.26,0.03 c -0.02,0 -0.07,0.04 -0.12,0.15 0.21,0.12 0.21,-0.17 0.12,-0.15 z m 9.57,0.11 c -0.6,0.07 -1.03,0.35 0,0 z m 0.26,0.29 c -0.03,0 -0.07,0 -0.12,0.01 -1.2,0.37 0.62,-0.03 0.12,-0.01 z m -9.12,0.34 c 0,0 0.02,0 0.08,0.02 -0.05,-0.01 -0.08,-0.02 -0.08,-0.02 z"
       id="jagged_face"
       inkscape:connector-curvature="0"
       sodipodi:nodetypes="ccccccccccccccccccccccccccccccccccccccccccccccccccccccccccccccccccccccccccccccccccccccccccccccccccccccccccccccccccccccccccccccccccccccccccccccccccccccccccccccccccccccccccccccccccccccccccccccccccccccccccccccccccccccccccccccccccccccccccccccccccccccccccccccccccccccccccccccccccccccccccccccccczccccccczccccccccccccccccccccccccccccscs"
       inkscape:label="#path5494-3" />
    <path
       style="color:#000000;font-style:normal;font-variant:normal;font-weight:normal;font-stretch:normal;font-size:medium;line-height:normal;font-family:sans-serif;font-variant-ligatures:normal;font-variant-position:normal;font-variant-caps:normal;font-variant-numeric:normal;font-variant-alternates:normal;font-feature-settings:normal;text-indent:0;text-align:start;text-decoration:none;text-decoration-line:none;text-decoration-style:solid;text-decoration-color:#000000;letter-spacing:normal;word-spacing:normal;text-transform:none;writing-mode:lr-tb;direction:ltr;text-orientation:mixed;dominant-baseline:auto;baseline-shift:baseline;text-anchor:start;white-space:normal;shape-padding:0;clip-rule:nonzero;display:inline;overflow:visible;visibility:visible;opacity:1;isolation:auto;mix-blend-mode:normal;color-interpolation:sRGB;color-interpolation-filters:linearRGB;solid-color:#000000;solid-opacity:1;vector-effect:none;fill:#0a0000;fill-opacity:0.27;fill-rule:nonzero;stroke:none;stroke-width:1.58;stroke-linecap:butt;stroke-linejoin:miter;stroke-miterlimit:4;stroke-dasharray:none;stroke-dashoffset:0;stroke-opacity:1;filter:url(#filter2235);color-rendering:auto;image-rendering:auto;shape-rendering:auto;text-rendering:auto;enable-background:accumulate"
       d="M 25.65,2.03 C 24.09,2.21 22.38,2.17 20.8,2.81 19.17,3.08 17.42,3.45 15.97,4.34 13.95,4.84 12.26,6.1 10.71,7.39 9.4,8.29 8.3,9.46 7.55,10.11 6.65,11.35 5.72,12.7 4.98,13.93 4.5,14.85 4.13,15.87 3.56,16.66 c -0.4,0.9 -1.13,2.22 -1.18,2.81 -0.31,1.85 -0.92,4.04 -0.7,6.2 -0.15,1.61 0.01,3.57 0.29,4.92 0.09,1.27 0.33,2.58 0.94,3.8 0.21,0.99 0.84,2.52 1.15,2.95 0.66,1.39 2.43,3.65 2.63,4.43 0.51,0.77 1.53,1.6 2.22,2.41 0.93,0.67 1.71,1.36 2.87,2.34 0.7,0.09 0.47,0.88 1.32,1.03 0.61,0.32 1.28,0.59 2.14,1.25 0.85,0.58 2.45,0.54 2.8,0.97 1.21,1.11 2.98,-0.25 3.58,0.88 1.58,0.09 3.74,-0.02 5.56,0.02 1.38,-0.22 3.45,0.49 4.09,-0.84 1.22,0.43 2.88,-0.69 4.22,-1.06 0.88,-0.57 1.45,-0.93 2.41,-1.34 0.44,-0.41 1.8,-0.78 1.89,-1.39 1.4,-0.13 1.76,-1.49 2.79,-2.06 0.01,-1.4 2.14,-1.72 1.9,-2.89 0.26,-0.46 1,-0.93 0.42,-1.12 0.14,-0.16 0.54,0.54 1.19,-0.33 0.29,-0.71 1.67,-1.89 0.49,-2.21 -0.24,0.03 1.28,-0.24 0.9,-1.23 0.43,-0.7 0.32,-1.6 0.81,-2.31 0.92,0.29 1.29,-3.69 -0.14,-2.31 -0.01,0.02 -0.02,0.04 -0.04,0.07 a 22.47,22.47 0 0 1 -0.26,1.05 c 0,0.64 0.23,1.18 0,1.35 -0.18,0.01 -0.33,0.07 -0.47,0.15 A 22.47,22.47 0 0 1 26.2,49.26 22.47,22.47 0 0 1 3.78,26.85 22.47,22.47 0 0 1 26.26,4.37 22.47,22.47 0 0 1 45.87,15.92 c 1.08,0.65 1.4,3.21 2.02,4.43 0.23,0.53 0.3,1.27 0.35,1.97 a 22.47,22.47 0 0 1 0.27,1.7 c 0.02,0.05 0.06,0.1 0.09,0.13 0.04,0.24 0.03,0.51 0.01,0.79 a 22.47,22.47 0 0 1 0.09,1.87 22.47,22.47 0 0 1 -0.01,0.22 c 0.06,0.1 0.15,0.2 0.27,0.29 1.27,-0.56 0.98,-2.56 1.2,-3.84 -0.39,-2.46 -0.88,-4.79 -2,-7.12 C 47.42,15.14 46.85,13.5 46.1,12.65 45.59,13.7 45.16,12.86 46.08,12.48 44.72,10.82 43.15,8.89 41.44,7.84 39.95,6.65 38.43,5.43 36.57,4.86 35.2,3.61 33.71,3.76 32.12,3.05 30.05,2.28 27.8,2.35 25.63,2.04 Z"
       id="path2160"
       inkscape:connector-curvature="0" />
    <path
       inkscape:connector-curvature="0"
       id="path34-6"
       style="fill:none;stroke:#231f20;stroke-width:0.34;stroke-linecap:butt;stroke-linejoin:miter;stroke-miterlimit:10;stroke-dasharray:none;stroke-opacity:1"
       d="m 45.94,38.36 c 2,-3.46 3.15,-7.49 3.15,-11.79 0,-4.29 -1.14,-8.32 -3.15,-11.79 C 41.87,7.74 34.25,3 25.52,3 16.79,3 9.17,7.73 5.1,14.78 c -2,3.46 -3.15,7.49 -3.15,11.79 0,4.29 1.14,8.32 3.15,11.79 4.07,7.04 11.69,11.78 20.42,11.78 8.73,0 16.35,-4.73 20.42,-11.78 z" />
    <path
       inkscape:connector-curvature="0"
       id="hand"
       style="fill:none;stroke:#231f20;stroke-width:0.34;stroke-linecap:butt;stroke-linejoin:miter;stroke-miterlimit:10;stroke-dasharray:none;stroke-opacity:1"
       d="M 25.51,26.56 V 2.98"
       inkscape:transform-center-x="-0.05"
       inkscape:transform-center-y="-11.64" />
    <path
       style="fill:#231f20;fill-opacity:1;fill-rule:nonzero;stroke:none;stroke-width:0.34"
       d="m 25.58,4.16 c -0.03,0 0.20,0.19 0.02,0.01 -0.01,0 -0.01,-0.01 -0.02,-0.01 z m 0,0.18 c -0.03,0 -0.05,0.09 0.02,0.35 0.16,-0.13 0.03,-0.36 -0.02,-0.35 z m 0.17,0.28 c -0.01,0 -0.02,0.02 0,0.09 0.08,-0.04 0.02,-0.10 0,-0.09 z m -0.25,0.50 c -0.01,-0.00 -0.01,-0.00 -0.01,0.00 0,0.02 0.15,0.14 0.17,0.12 -0.06,-0.07 -0.12,-0.11 -0.15,-0.12 z m 0.00,0.33 c 0.13,0.16 0.30,0.03 0,0 z m 0.33,0.09 c -0.00,-0.00 -0.01,-0.0 -0.01,0.00 -0.09,0.02 -0.38,0.30 0,0.08 0.03,-0.06 0.03,-0.08 0.01,-0.09 z M 25.63,6.02 c 0,0.3 0.21,0 0,0 z m -0.11,0.56 c -0.13,0 0.10,0.33 0.45,0.28 C 25.73,6.66 25.58,6.59 25.52,6.59 Z m 0.14,0.39 c -0.02,0 -0.06,0.03 0,0.05 0.02,-0.03 0.01,-0.05 0,-0.05 z m -0.05,0.07 c -0.02,0 -0.02,0.01 -0.00,0.05 -0.13,-0.08 -0.23,0.0 -0.25,0.14 0,-0.02 -0.0,-0.05 -0.05,-0.02 -0.02,0.13 0.04,0.07 0.05,0.02 -0.02,0.14 0.02,0.36 0.23,0.49 -0.37,0.03 -0.18,0.55 -0.16,1.01 l -0.00,-0.01 c -0.04,0.04 -0.06,0.08 -0.07,0.10 -0.00,0.0 -0.00,-0.00 -0.00,-0.0 -0.03,0 -0.06,0.06 0,0.14 0.03,-0.06 0.03,-0.09 0.03,-0.12 0.02,-0.00 0.05,-0.03 0.05,-0.05 0,0.15 -0.01,0.31 -0.09,0.42 -0.2,0.90 0.36,1.30 0.05,2.12 0.03,0.05 0.27,0.67 0.25,0.87 -0.04,0.17 -0.01,1.37 -0.22,1.80 0.02,0.18 0.26,0.57 0.28,1.25 0.16,0.53 -0.25,0.80 -0.37,1.00 0.31,0.61 0.25,1.18 0.19,1.89 0.33,0.33 -0.57,1.80 0.35,1.77 -0.58,0.25 -0.23,1.58 -0.39,1.61 -0.06,0.1 -0.03,0.19 0,0.33 0.02,-0.04 0.04,0.05 0,0.02 0.06,0.19 0.14,0.44 0.04,0.85 0.3,0.6 -0.29,0.92 0.05,1.66 -0.07,0.31 -0.13,0.86 -0.12,1.39 -0.13,-0.18 -0.26,-0.31 -0.29,-0.34 -0.40,-0.67 -0.20,-0.84 -1.10,-1.50 -0.33,-0.36 -0.63,-0.98 -0.68,-0.87 -0.02,-0.53 -0.63,-0.60 -0.50,-0.72 0.01,0.0 0.02,-0.00 0.01,-0.00 0.01,-0.01 0.03,-0.02 0.07,-0.03 0.08,0.16 -0.08,-0.66 -0.35,-0.45 0.34,-0.54 -0.60,-0.41 -0.36,-0.65 -0.34,-0.40 -0.26,-0.37 -0.40,-0.71 0.02,-0.08 -0.12,-0.27 -0.29,-0.47 l -0.0,-0.0 c -0.21,-0.26 -0.47,-0.53 -0.40,-0.58 -0.13,0.18 -0.42,-0.39 -0.18,-0.11 0.43,-0.28 -0.58,-0.30 -0.61,-0.74 -0.50,-0.00 0.25,-0.71 -0.29,-0.45 0.19,0.04 -0.06,0.14 -0.02,0.00 -0.01,-0.39 -0.37,-0.59 -0.67,-0.78 -0.05,-0.43 -0.60,-0.51 -0.81,-0.53 0.00,-0.00 0.01,-0.01 0.01,-0.01 0.90,-0.25 -1.07,-0.87 0.04,-0.62 -0.56,-0.41 -0.29,-0.24 -0.89,-0.93 -0.14,-0.15 -0.66,0.11 -0.15,-0.44 -0.17,0.00 -0.50,-0.35 -0.57,-0.74 -2.04,0.34 0.89,-0.40 -0.21,-0.37 -0.35,0.55 0.05,-1.21 -0.93,-0.07 0.93,-0.95 -0.50,-0.44 -0.43,-1.40 -0.04,0.02 -0.15,0.02 -0.27,0.02 0.00,-0.04 -0.01,-0.11 -0.08,-0.04 l 0.02,0.04 c -0.26,-0.01 -0.53,-0.13 -0.30,-0.50 0.50,0.30 -0.65,-0.53 -0.60,-0.58 -0.01,-0.01 -0.04,-0.01 -0.06,-0.01 0.05,-0.09 -0.04,-0.09 -0.06,-0.06 l -0.05,-0.05 c -0.01,0.01 -0.01,0.03 0.02,0.05 -0.15,0.01 -0.18,0.13 -0.11,0.25 -0.01,-0.01 -0.02,-0.04 -0.05,0.01 0.06,0.12 0.07,0.04 0.05,-0.00 0.07,0.13 0.23,0.27 0.48,0.25 -0.28,0.24 0.17,0.56 0.46,0.92 l -0.01,-0.00 c -0.00,0.06 -0.00,0.10 0,0.12 -0.00,0.00 -0.00,0.00 -0.00,0.00 -0.02,0.01 -0.01,0.08 0.08,0.11 -0.00,-0.07 -0.02,-0.10 -0.04,-0.11 0.01,-0.02 0.02,-0.05 0.01,-0.08 0.09,0.12 0.16,0.26 0.16,0.39 0.36,0.84 1.06,0.83 1.29,1.67 0.05,0.02 0.61,0.39 0.71,0.56 0.07,0.16 0.80,1.12 0.88,1.59 0.12,0.13 0.55,0.30 0.96,0.84 0.44,0.33 0.26,0.80 0.28,1.04 0.60,0.31 0.89,0.80 1.26,1.41 0.46,0.08 0.59,1.79 1.33,1.22 -0.33,0.54 0.74,1.42 0.63,1.53 0.01,0.11 0.09,0.17 0.19,0.27 -0.00,-0.04 0.06,0.01 0.01,0.01 0.16,0.11 0.37,0.28 0.53,0.67 0.59,0.30 0.30,0.91 1.02,1.30 0.12,0.29 0.40,0.78 0.71,1.19 -0.21,-0.06 -0.39,-0.10 -0.43,-0.10 -0.72,-0.30 -0.66,-0.56 -1.78,-0.56 -0.48,-0.09 -1.09,-0.42 -1.06,-0.30 -0.33,-0.41 -0.87,-0.11 -0.83,-0.28 0.01,-0.00 0.01,-0.01 0.00,-0.01 0.00,-0.02 0.01,-0.04 0.03,-0.07 0.16,0.08 -0.46,-0.48 -0.55,-0.16 -0.04,-0.64 -0.73,0.02 -0.68,-0.31 -0.51,-0.12 -0.43,-0.15 -0.75,-0.33 -0.02,-0.08 -0.26,-0.15 -0.52,-0.21 h -0.00 C 17.92,23.90 17.55,23.83 17.58,23.75 c -0.00,0.23 -0.57,-0.07 -0.21,0.01 0.18,-0.48 -0.65,0.09 -0.93,-0.23 -0.41,0.28 -0.21,-0.72 -0.50,-0.19 0.18,-0.08 0.03,0.14 -0.01,0.01 -0.24,-0.31 -0.65,-0.26 -1.00,-0.23 -0.29,-0.31 -0.79,-0.05 -0.97,0.05 0.00,-0.00 -0.00,-0.02 -0.00,-0.02 0.57,-0.73 -1.38,-0.07 -0.33,-0.53 -0.70,-0.00 -0.37,-0.02 -1.27,-0.22 -0.20,-0.03 -0.47,0.48 -0.38,-0.27 -0.13,0.10 -0.61,0.01 -0.90,-0.26 -1.44,1.48 0.48,-0.85 -0.39,-0.18 0.03,0.65 -0.66,-1.01 -0.79,0.48 C 10.04,20.83 9.17,22.09 8.67,21.28 c -0.02,0.04 -0.10,0.11 -0.20,0.18 -0.01,-0.03 -0.07,-0.08 -0.09,0.00 l 0.04,0.01 c -0.22,0.13 -0.50,0.20 -0.54,-0.22 0.59,-0.04 -0.84,-0.05 -0.83,-0.11 -0.02,0.00 -0.04,0.01 -0.06,0.03 -0.01,-0.11 -0.08,-0.04 -0.09,-0.00 l -0.07,-0.01 c -0.00,0.01 0.01,0.03 0.05,0.02 -0.11,0.09 -0.07,0.21 0.05,0.28 -0.01,-0.00 -0.04,-0.01 -0.03,0.04 0.12,0.06 0.08,-0.01 0.04,-0.03 0.13,0.06 0.35,0.08 0.54,-0.07 -0.08,0.36 0.47,0.35 0.91,0.47 l -0.01,0.00 c 0.03,0.05 0.05,0.08 0.07,0.10 -0.0,0.00 -0.00,0.00 -0.00,0.00 -0.00,0.02 0.03,0.07 0.13,0.04 -0.04,-0.05 -0.08,-0.06 -0.10,-0.06 -0.00,-0.02 -0.01,-0.05 -0.03,-0.07 0.15,0.04 0.28,0.11 0.36,0.22 0.79,0.46 1.35,0.04 2.03,0.59 0.05,-0.01 0.73,-0.04 0.91,0.03 0.15,0.09 1.30,0.43 1.65,0.76 0.17,0.03 0.62,-0.08 1.27,0.11 0.55,0.01 0.69,0.49 0.84,0.67 0.67,-0.10 1.19,0.12 1.85,0.40 0.42,-0.20 1.53,1.09 1.79,0.20 0.05,0.63 1.44,0.71 1.41,0.87 0.07,0.08 0.18,0.09 0.32,0.10 -0.03,-0.03 0.06,-0.02 0.01,0.00 0.19,0.00 0.47,0.00 0.83,0.22 0.66,-0.09 0.78,0.55 1.59,0.45 0.27,0.16 0.78,0.39 1.28,0.54 -0.21,0.06 -0.38,0.14 -0.41,0.17 -0.76,0.17 -0.87,-0.06 -1.77,0.58 -0.44,0.20 -1.13,0.29 -1.04,0.38 -0.51,-0.14 -0.77,0.41 -0.84,0.25 0.00,-0.01 0.00,-0.02 -0.00,-0.01 -0.00,-0.02 -0.01,-0.03 -0.01,-0.07 0.18,-0.02 -0.66,-0.12 -0.54,0.19 -0.41,-0.49 -0.57,0.45 -0.74,0.14 -0.49,0.20 -0.44,0.13 -0.80,0.16 -0.06,-0.05 -0.30,0.03 -0.54,0.13 l -0.00,0.0 c -0.31,0.12 -0.65,0.28 -0.67,0.20 0.13,0.18 -0.50,0.28 -0.16,0.13 -0.13,-0.50 -0.47,0.45 -0.89,0.35 -0.16,0.47 -0.59,-0.46 -0.52,0.13 0.10,-0.17 0.11,0.10 10e-4,0.02 -0.38,-0.10 -0.68,0.16 -0.95,0.40 -0.42,-0.08 -0.67,0.41 -0.75,0.61 -0.00,-0.00 -0.01,-0.01 -0.01,-0.01 0.03,-0.93 -1.16,0.75 -0.58,-0.24 -0.57,0.40 -0.32,0.19 -1.16,0.56 -0.19,0.09 -0.09,0.67 -0.47,0.00 -0.05,0.16 -0.48,0.36 -0.88,0.31 -0.30,2.05 -0.10,-0.97 -0.42,0.08 0.41,0.50 -1.13,-0.42 -0.36,0.86 -0.61,-1.18 -0.58,0.34 -1.46,-0.01 0.00,0.05 -0.02,0.15 -0.05,0.27 -0.03,-0.01 -0.11,-0.02 -0.07,0.06 l 0.04,-0.01 c -0.09,0.24 -0.29,0.46 -0.57,0.13 0.45,-0.38 -0.71,0.45 -0.74,0.39 -0.01,0.01 -0.02,0.04 -0.03,0.06 -0.07,-0.07 -0.10,0.01 -0.07,0.04 l -0.07,0.03 c 0.00,0.01 0.02,0.02 0.05,-0.00 -0.03,0.14 0.07,0.21 0.21,0.19 -0.01,0.00 -0.04,0.01 -0.00,0.05 0.13,-0.02 0.06,-0.06 0.01,-0.05 0.14,-0.02 0.33,-0.13 0.39,-0.37 0.14,0.34 0.59,0.00 1.02,-0.15 l -0.00,0.01 c 0.06,0.02 0.09,0.03 0.11,0.03 0.0,0.00 0.0,0.00 0.00,0.00 0.00,0.02 0.07,0.03 0.13,-0.04 -0.06,-0.01 -0.10,-0.00 -0.12,0.00 -0.01,-0.01 -0.04,-0.03 -0.07,-0.03 0.15,-0.04 0.30,-0.07 0.43,-0.03 0.91,-0.08 1.12,-0.75 1.99,-0.71 0.03,-0.04 0.56,-0.46 0.76,-0.50 0.18,-0.01 1.31,-0.41 1.78,-0.34 0.16,-0.07 0.45,-0.43 1.09,-0.66 0.45,-0.31 0.85,-0.00 1.07,0.04 0.48,-0.48 1.04,-0.60 1.73,-0.76 0.22,-0.41 1.88,-0.01 1.57,-0.88 0.42,0.48 1.58,-0.27 1.66,-0.12 0.11,0.02 0.19,-0.03 0.32,-0.10 -0.04,-0.00 0.03,-0.05 0.01,-0.00 0.16,-0.11 0.38,-0.27 0.80,-0.30 0.47,-0.47 0.96,-0.00 1.56,-0.56 0.32,-0.02 0.86,-0.14 1.36,-0.31 -0.13,0.18 -0.22,0.34 -0.23,0.38 -0.51,0.58 -0.74,0.46 -1.09,1.51 -0.23,0.43 -0.74,0.90 -0.62,0.92 -0.49,0.18 -0.37,0.79 -0.53,0.70 -0.00,-0.01 -0.00,-0.02 -0.01,-0.00 -0.01,-0.01 -0.03,-0.02 -0.05,-0.05 0.13,-0.12 -0.60,0.28 -0.32,0.48 -0.62,-0.15 -0.20,0.70 -0.51,0.55 -0.27,0.45 -0.27,0.36 -0.55,0.61 -0.08,-0.0 -0.22,0.20 -0.36,0.42 l -0.0,0.00 c -0.18,0.28 -0.36,0.61 -0.42,0.56 0.21,0.07 -0.24,0.52 -0.05,0.20 -0.40,-0.32 -0.11,0.64 -0.51,0.81 0.14,0.48 -0.75,-0.02 -0.34,0.42 -0.02,-0.20 0.15,0.01 0.01,0.01 -0.37,0.13 -0.45,0.53 -0.53,0.88 -0.39,0.18 -0.29,0.73 -0.25,0.94 -0.00,-0.00 -0.02,-0.00 -0.02,-0.00 -0.52,-0.77 -0.49,1.29 -0.61,0.14 -0.22,0.66 -0.14,0.35 -0.60,1.14 -0.09,0.18 0.31,0.60 -0.37,0.28 0.05,0.16 -0.17,0.58 -0.52,0.77 0.96,1.83 -0.65,-0.72 -0.29,0.31 0.63,0.16 -1.17,0.32 0.21,0.91 -1.19,-0.59 -0.26,0.62 -1.19,0.84 0.03,0.03 0.07,0.13 0.11,0.25 -0.04,0.00 -0.10,0.04 -0.02,0.09 l 0.02,-0.04 c 0.06,0.25 0.03,0.54 -0.38,0.44 0.13,-0.58 -0.31,0.78 -0.36,0.76 -0.00,0.02 0.00,0.04 0.01,0.06 -0.11,-0.01 -0.07,0.06 -0.03,0.08 l -0.03,0.07 c 0.01,0.01 0.03,0.00 0.04,-0.04 0.05,0.14 0.18,0.13 0.28,0.03 -0.01,0.01 -0.02,0.04 0.02,0.04 0.09,-0.10 0.01,-0.08 -0.02,-0.05 0.10,-0.10 0.18,-0.30 0.09,-0.53 0.31,0.19 0.48,-0.34 0.73,-0.72 l 0.00,0.01 c 0.06,-0.01 0.10,-0.02 0.11,-0.03 0.00,0.00 0.00,0.00 0.00,0.00 0.02,0.01 0.08,-0.01 0.08,-0.11 -0.06,0.03 -0.08,0.05 -0.09,0.08 -0.02,-0.00 -0.05,-0.00 -0.08,0.01 0.09,-0.12 0.19,-0.23 0.32,-0.28 0.69,-0.61 0.46,-1.26 1.19,-1.75 0.00,-0.05 0.18,-0.70 0.31,-0.85 0.13,-0.12 0.81,-1.11 1.24,-1.33 0.08,-0.15 0.11,-0.61 0.50,-1.18 0.18,-0.52 0.68,-0.50 0.90,-0.59 0.10,-0.67 0.49,-1.10 0.95,-1.64 -0.06,-0.46 1.51,-1.12 0.74,-1.64 0.62,0.14 1.12,-1.15 1.26,-1.08 0.10,-0.04 0.14,-0.14 0.19,-0.27 -0.03,0.02 -0.00,-0.06 0.01,-0.01 0.06,-0.18 0.15,-0.44 0.47,-0.71 0.10,-0.66 0.77,-0.57 0.92,-1.37 0.24,-0.20 0.61,-0.62 0.91,-1.05 -4e-5,0.22 0.02,0.41 0.03,0.44 -0.07,0.77 -0.33,0.80 0.00,1.86 0.06,0.48 -0.06,1.16 0.04,1.10 -0.29,0.44 0.15,0.86 -0.01,0.88 -0.01,-0.00 -0.02,-0.01 -0.01,-0.00 -0.02,0.0 -0.04,0.0 -0.08,-0.00 0.03,-0.18 -0.32,0.58 0.01,0.57 -0.60,0.23 0.25,0.69 -0.08,0.75 0.04,0.52 -0.00,0.46 -0.08,0.82 -0.07,0.05 -0.05,0.30 -0.03,0.56 v 0.0 c 0.02,0.33 0.06,0.71 -0.01,0.71 0.21,-0.07 0.11,0.56 0.08,0.19 -0.52,-0.03 0.28,0.59 0.05,0.96 0.40,0.30 -0.62,0.42 -0.03,0.54 -0.13,-0.15 0.13,-0.07 0.02,0.00 -0.21,0.33 -0.05,0.69 0.08,1.02 -0.21,0.37 0.18,0.77 0.34,0.91 -0.01,-1e-5 -0.01,0.00 -0.01,0.00 -0.88,-0.31 0.35,1.34 -0.41,0.48 0.21,0.66 0.08,0.36 0.17,1.27 0.03,0.21 0.61,0.30 -0.13,0.45 0.14,0.09 0.19,0.57 0.02,0.93 1.86,0.92 -0.96,-0.19 -0.05,0.43 0.61,-0.23 -0.76,0.94 0.70,0.60 -1.31,0.22 0.14,0.65 -0.47,1.38 0.04,0.01 0.14,0.07 0.24,0.14 -0.02,0.03 -0.06,0.09 0.03,0.08 v -0.04 c 0.19,0.17 0.34,0.42 -0.05,0.59 -0.22,-0.55 0.21,0.81 0.15,0.82 0.01,0.02 0.03,0.04 0.05,0.05 -0.1,0.05 -0.02,0.09 0.01,0.08 l 0.01,0.07 c 0.02,-0.0 0.02,-0.01 0.00,-0.05 0.12,0.08 0.23,-0.0 0.25,-0.14 0.0,0.02 0.0,0.04 0.05,0.01 0.02,-0.13 -0.04,-0.07 -0.05,-0.02 0.01,-0.15 -0.03,-0.35 -0.24,-0.48 0.36,-0.03 0.19,-0.55 0.16,-1.01 l 0.01,0.00 c 0.04,-0.04 0.06,-0.08 0.07,-0.10 0.00,-0.0 0.00,0.00 0.00,0.0 0.02,0.0 0.05,-0.06 0,-0.14 -0.03,0.06 -0.03,0.09 -0.03,0.12 -0.02,0.00 -0.05,0.03 -0.05,0.05 -3e-6,-0.15 0.02,-0.31 0.10,-0.42 0.20,-0.89 -0.36,-1.30 -0.05,-2.12 -0.03,-0.04 -0.27,-0.67 -0.25,-0.87 0.04,-0.17 0.01,-1.37 0.22,-1.80 -0.02,-0.18 -0.27,-0.56 -0.29,-1.24 -0.16,-0.52 0.26,-0.81 0.38,-1.01 -0.30,-0.60 -0.25,-1.18 -0.19,-1.89 -0.33,-0.34 0.56,-1.79 -0.36,-1.76 0.59,-0.24 0.23,-1.58 0.39,-1.61 0.05,-0.10 0.02,-0.19 0,-0.33 -0.02,0.03 -0.04,-0.05 0,-0.02 -0.05,-0.19 -0.13,-0.45 -0.03,-0.86 -0.30,-0.6 0.29,-0.91 -0.05,-1.65 0.07,-0.31 0.13,-0.86 0.12,-1.39 0.13,0.18 0.26,0.31 0.29,0.34 0.40,0.67 0.20,0.84 1.10,1.50 0.33,0.36 0.63,0.98 0.68,0.87 0.02,0.53 0.63,0.60 0.50,0.72 -0.01,-0.0 -0.02,0.00 -0.01,0.00 -0.01,0.01 -0.03,0.02 -0.07,0.03 -0.08,-0.16 0.08,0.66 0.35,0.45 -0.34,0.54 0.60,0.41 0.36,0.65 0.34,0.40 0.26,0.37 0.40,0.71 -0.02,0.08 0.12,0.27 0.29,0.47 l 0.0,0.00 c 0.21,0.26 0.47,0.53 0.40,0.58 0.13,-0.18 0.42,0.39 0.18,0.11 -0.43,0.28 0.58,0.30 0.61,0.74 0.50,0.00 -0.25,0.71 0.29,0.45 -0.20,-0.04 0.06,-0.14 0.02,-0.00 0,0 0.0,0 0.0,0 0.01,0.39 0.37,0.59 0.67,0.78 0.05,0.43 0.60,0.51 0.81,0.53 -0.00,0.00 -0.01,0.01 -0.01,0.01 -0.90,0.25 1.07,0.87 -0.04,0.62 0.56,0.41 0.29,0.24 0.89,0.92 0.14,0.15 0.66,-0.11 0.15,0.44 0.17,-0.00 0.50,0.35 0.57,0.74 2.04,-0.34 -0.89,0.40 0.21,0.37 0.35,-0.55 -0.05,1.21 0.93,0.07 -0.93,0.95 0.50,0.44 0.43,1.40 0.04,-0.02 0.15,-0.02 0.27,-0.02 -0.00,0.04 0.01,0.11 0.08,0.04 l -0.02,-0.04 c 0.26,0.01 0.53,0.13 0.30,0.50 -0.50,-0.30 0.65,0.53 0.60,0.58 0.01,0.01 0.04,0.01 0.06,0.01 -0.05,0.09 0.04,0.09 0.06,0.06 l 0.05,0.05 c 0.01,-0.01 0.01,-0.03 -0.02,-0.05 0.15,-0.01 0.18,-0.13 0.11,-0.26 0.01,0.01 0.02,0.04 0.05,-0.01 -0.06,-0.12 -0.07,-0.04 -0.05,0.00 -0.07,-0.13 -0.23,-0.27 -0.48,-0.25 0.28,-0.24 -0.17,-0.56 -0.46,-0.92 l 0.01,0.00 c 0.00,-0.06 0.00,-0.10 0,-0.12 0.00,-0.00 0.00,-0.00 0.00,-0.00 0.02,-0.01 0.01,-0.08 -0.08,-0.11 0.00,0.07 0.02,0.10 0.04,0.11 -0.01,0.02 -0.02,0.05 -0.01,0.08 -0.09,-0.12 -0.16,-0.26 -0.16,-0.39 -0.36,-0.84 -1.06,-0.83 -1.29,-1.67 -0.05,-0.02 -0.61,-0.39 -0.71,-0.56 -0.07,-0.16 -0.80,-1.12 -0.88,-1.59 -0.12,-0.13 -0.55,-0.30 -0.96,-0.84 -0.44,-0.33 -0.26,-0.80 -0.28,-1.04 -0.60,-0.31 -0.89,-0.80 -1.26,-1.41 -0.46,-0.08 -0.59,-1.79 -1.33,-1.21 0.33,-0.54 -0.74,-1.42 -0.63,-1.54 -0.01,-0.11 -0.09,-0.17 -0.19,-0.27 0.00,0.04 -0.06,-0.01 -0.01,-0.01 -0.16,-0.11 -0.37,-0.28 -0.53,-0.67 -0.59,-0.30 -0.30,-0.91 -1.02,-1.30 -0.12,-0.29 -0.40,-0.78 -0.71,-1.19 0.21,0.06 0.39,0.10 0.43,0.10 0.72,0.30 0.66,0.56 1.78,0.56 0.48,0.09 1.09,0.42 1.06,0.30 0.33,0.41 0.87,0.11 0.83,0.28 -0.01,0.00 -0.01,0.01 -0.00,0.01 -0.00,0.02 -0.01,0.04 -0.03,0.07 -0.16,-0.08 0.46,0.48 0.55,0.16 0.04,0.64 0.73,-0.02 0.68,0.31 0.51,0.12 0.43,0.15 0.75,0.33 0.02,0.08 0.26,0.14 0.52,0.21 l 0.00,0.0 c 0.32,0.08 0.69,0.15 0.67,0.22 0.00,-0.23 0.57,0.07 0.21,-0.01 -0.18,0.48 0.65,-0.09 0.93,0.23 0.41,-0.28 0.21,0.72 0.50,0.19 -0.18,0.08 -0.03,-0.15 0.01,-0.01 0.0,-0.0 0.0,-0.0 10e-4,-0.00 0.24,0.31 0.65,0.26 1.00,0.23 0.29,0.31 0.79,0.05 0.97,-0.05 -0.00,0.00 0.00,0.02 0.00,0.02 -0.57,0.73 1.38,0.07 0.32,0.53 0.70,0.00 0.37,0.02 1.27,0.22 0.20,0.03 0.47,-0.48 0.38,0.27 0.13,-0.10 0.61,-0.01 0.90,0.26 1.44,-1.48 -0.48,0.85 0.39,0.18 -0.03,-0.65 0.66,1.01 0.79,-0.48 -0.19,1.32 0.67,0.06 1.17,0.87 0.02,-0.04 0.10,-0.11 0.20,-0.18 0.01,0.03 0.07,0.08 0.09,-0.01 l -0.04,-0.01 c 0.22,-0.13 0.50,-0.20 0.54,0.22 -0.59,0.04 0.84,0.05 0.83,0.11 0.02,-0.00 0.04,-0.01 0.06,-0.03 0.01,0.11 0.08,0.04 0.09,0.00 l 0.07,0.01 c 0.00,-0.01 -0.01,-0.03 -0.05,-0.02 0.11,-0.09 0.07,-0.21 -0.05,-0.28 0.01,0.00 0.04,0.01 0.03,-0.04 -0.12,-0.06 -0.08,0.01 -0.04,0.03 -0.13,-0.06 -0.35,-0.08 -0.54,0.07 0.08,-0.36 -0.47,-0.35 -0.91,-0.47 l 0.01,-0.00 c -0.03,-0.05 -0.05,-0.08 -0.07,-0.10 0.0,-0.00 0.00,-0.00 0.00,-0.00 0.00,-0.02 -0.03,-0.07 -0.13,-0.04 0.04,0.05 0.08,0.06 0.10,0.06 0.00,0.02 0.01,0.05 0.03,0.07 -0.15,-0.04 -0.28,-0.11 -0.36,-0.22 -0.79,-0.46 -1.35,-0.05 -2.03,-0.59 -0.05,0.01 -0.73,0.04 -0.91,-0.03 -0.15,-0.09 -1.30,-0.43 -1.65,-0.76 -0.17,-0.03 -0.62,0.08 -1.27,-0.11 -0.55,-0.01 -0.69,-0.49 -0.84,-0.67 -0.67,0.10 -1.19,-0.12 -1.85,-0.40 -0.42,0.20 -1.53,-1.09 -1.79,-0.20 -0.05,-0.63 -1.44,-0.71 -1.41,-0.87 -0.07,-0.08 -0.18,-0.09 -0.32,-0.10 0.03,0.03 -0.05,0.02 -0.01,-0.00 -0.19,-0.00 -0.47,-0.00 -0.83,-0.22 -0.66,0.09 -0.78,-0.55 -1.59,-0.45 -0.27,-0.16 -0.78,-0.39 -1.28,-0.54 0.21,-0.06 0.38,-0.14 0.41,-0.17 0.76,-0.17 0.87,0.06 1.77,-0.58 0.44,-0.20 1.13,-0.29 1.04,-0.38 0.51,0.14 0.77,-0.41 0.84,-0.25 -0.00,0.01 -0.00,0.02 0.00,0.01 0.00,0.02 0.01,0.04 0.01,0.07 -0.18,0.02 0.65,0.12 0.54,-0.19 0.41,0.49 0.57,-0.45 0.74,-0.14 0.49,-0.20 0.44,-0.13 0.80,-0.16 0.06,0.05 0.30,-0.03 0.54,-0.13 h 10e-4 c 0.31,-0.12 0.65,-0.28 0.67,-0.21 -0.13,-0.18 0.50,-0.28 0.16,-0.13 0.13,0.50 0.47,-0.45 0.89,-0.35 0.16,-0.47 0.59,0.46 0.52,-0.13 -0.10,0.17 -0.11,-0.10 -10e-4,-0.02 -0.0,-0.0 0.0,-0.0 0,-0.00 0.38,0.10 0.68,-0.16 0.95,-0.40 0.42,0.08 0.67,-0.41 0.75,-0.61 0.00,0.00 0.01,0.01 0.01,0.01 -0.03,0.93 1.16,-0.75 0.58,0.24 0.57,-0.40 0.32,-0.20 1.16,-0.56 0.19,-0.09 0.09,-0.67 0.47,-0.00 0.05,-0.16 0.49,-0.36 0.88,-0.31 0.30,-2.05 0.10,0.97 0.42,-0.08 -0.41,-0.50 1.13,0.42 0.36,-0.86 0.61,1.18 0.58,-0.34 1.46,0.01 -0.00,-0.05 0.02,-0.15 0.05,-0.27 0.03,0.01 0.11,0.02 0.07,-0.06 l -0.04,0.01 c 0.09,-0.24 0.29,-0.46 0.57,-0.13 -0.45,0.38 0.71,-0.45 0.74,-0.39 0.01,-0.01 0.02,-0.04 0.03,-0.06 0.07,0.07 0.10,-0.01 0.07,-0.04 l 0.07,-0.03 c -0.00,-0.01 -0.02,-0.02 -0.05,0.00 0.03,-0.14 -0.07,-0.21 -0.21,-0.19 0.01,-0.00 0.04,-0.01 0.00,-0.05 -0.13,0.02 -0.06,0.06 -0.01,0.05 -0.14,0.02 -0.33,0.13 -0.39,0.37 -0.14,-0.34 -0.59,-0.00 -1.02,0.15 l 0.00,-0.01 c -0.06,-0.02 -0.09,-0.03 -0.11,-0.03 -0.0,-0.00 -0.0,-0.00 -0.00,-0.00 -0.00,-0.02 -0.07,-0.03 -0.13,0.04 0.07,0.01 0.10,0.00 0.12,-0.00 0.01,0.01 0.04,0.03 0.07,0.03 -0.15,0.04 -0.30,0.07 -0.43,0.03 -0.91,0.08 -1.12,0.75 -1.99,0.71 -0.03,0.04 -0.56,0.46 -0.76,0.50 -0.18,0.01 -1.31,0.41 -1.78,0.35 -0.16,0.07 -0.45,0.43 -1.09,0.66 -0.45,0.31 -0.85,0.00 -1.07,-0.04 -0.48,0.48 -1.04,0.60 -1.73,0.76 -0.22,0.41 -1.88,0.01 -1.57,0.88 -0.42,-0.48 -1.58,0.27 -1.66,0.12 -0.11,-0.02 -0.19,0.03 -0.32,0.10 0.04,0.00 -0.03,0.05 -0.01,0.00 -0.16,0.11 -0.38,0.27 -0.80,0.30 -0.47,0.47 -0.96,0.00 -1.56,0.56 -0.32,0.02 -0.86,0.14 -1.36,0.31 0.13,-0.18 0.22,-0.34 0.23,-0.38 0.51,-0.58 0.74,-0.46 1.09,-1.51 0.23,-0.43 0.74,-0.90 0.62,-0.92 0.49,-0.18 0.37,-0.79 0.53,-0.70 0.00,0.01 0.00,0.02 0.01,0.00 0.01,0.01 0.03,0.02 0.05,0.05 -0.13,0.12 0.60,-0.28 0.32,-0.48 0.62,0.15 0.20,-0.70 0.51,-0.55 0.27,-0.45 0.27,-0.36 0.55,-0.61 0.08,0.0 0.22,-0.20 0.36,-0.42 l 0.0,-0.0 c 0.18,-0.28 0.36,-0.61 0.42,-0.56 -0.21,-0.07 0.24,-0.52 0.05,-0.20 0.40,0.32 0.11,-0.64 0.51,-0.81 -0.14,-0.48 0.75,0.02 0.34,-0.42 0.02,0.20 -0.15,-0.01 -0.01,-0.01 -0.0,-0.0 -0.0,-0.0 -10e-4,-10e-4 0.37,-0.13 0.45,-0.53 0.53,-0.88 0.39,-0.18 0.29,-0.73 0.25,-0.94 0.00,0.00 0.02,0.00 0.02,0.00 0.52,0.77 0.49,-1.29 0.61,-0.14 0.22,-0.66 0.14,-0.35 0.60,-1.14 0.09,-0.18 -0.31,-0.60 0.37,-0.28 -0.05,-0.16 0.17,-0.58 0.52,-0.77 -0.96,-1.83 0.65,0.72 0.29,-0.31 -0.63,-0.16 1.17,-0.32 -0.21,-0.91 1.19,0.59 0.26,-0.62 1.19,-0.84 -0.03,-0.03 -0.07,-0.13 -0.11,-0.25 0.04,-0.00 0.10,-0.04 0.02,-0.09 l -0.02,0.04 c -0.06,-0.25 -0.03,-0.54 0.38,-0.44 -0.13,0.58 0.31,-0.78 0.36,-0.75 0.00,-0.02 -0.0,-0.04 -0.01,-0.06 0.11,0.01 0.07,-0.06 0.03,-0.08 l 0.03,-0.06 c -0.01,-0.01 -0.03,-0.00 -0.04,0.04 -0.05,-0.14 -0.18,-0.13 -0.28,-0.03 0.01,-0.01 0.02,-0.04 -0.02,-0.04 -0.09,0.10 -0.01,0.08 0.02,0.05 -0.10,0.10 -0.18,0.30 -0.09,0.53 -0.31,-0.19 -0.48,0.34 -0.73,0.72 l -0.00,-0.01 c -0.06,0.01 -0.10,0.02 -0.11,0.03 -0.00,-0.0 -0.00,-0.00 -0.00,-0.00 -0.02,-0.01 -0.08,0.01 -0.08,0.11 0.06,-0.03 0.08,-0.05 0.09,-0.08 0.02,0.00 0.05,0.00 0.08,-0.01 -0.09,0.12 -0.19,0.23 -0.32,0.28 -0.69,0.61 -0.46,1.26 -1.19,1.75 -0.00,0.05 -0.18,0.70 -0.31,0.85 -0.13,0.12 -0.81,1.11 -1.24,1.33 -0.08,0.15 -0.11,0.61 -0.50,1.18 -0.18,0.52 -0.68,0.50 -0.90,0.59 -0.10,0.67 -0.49,1.10 -0.95,1.64 0.06,0.46 -1.51,1.12 -0.74,1.64 -0.62,-0.14 -1.12,1.15 -1.26,1.08 -0.10,0.04 -0.14,0.14 -0.19,0.27 0.03,-0.02 0.00,0.06 -0.01,0.01 -0.06,0.18 -0.15,0.44 -0.47,0.71 -0.10,0.66 -0.77,0.57 -0.92,1.37 -0.24,0.20 -0.61,0.62 -0.91,1.05 0.0,-0.22 -0.02,-0.41 -0.03,-0.44 0.07,-0.78 0.33,-0.80 -0.00,-1.86 -0.06,-0.49 0.06,-1.16 -0.04,-1.10 0.29,-0.44 -0.16,-0.86 0.01,-0.88 0.01,0.00 0.01,0.01 0.01,0.00 0.02,-0.0 0.04,-0.0 0.08,0.00 -0.03,0.18 0.31,-0.59 -0.02,-0.58 0.6,-0.24 -0.24,-0.68 0.09,-0.74 -0.04,-0.53 0.00,-0.46 0.08,-0.82 0.07,-0.05 0.05,-0.30 0.03,-0.56 v -10e-4 c -0.02,-0.34 -0.06,-0.70 0.01,-0.70 -0.22,0.07 -0.11,-0.56 -0.08,-0.19 0.51,0.03 -0.28,-0.59 -0.05,-0.96 -0.40,-0.30 0.62,-0.42 0.03,-0.54 0.13,0.15 -0.13,0.07 -0.02,-0.00 0.01,0.00 0.01,0.00 0.02,0.00 -0.00,-0.00 -0.00,-0.00 -0.01,-0.01 -0.00,0.00 -0.00,0.00 -0.00,0.00 0.21,-0.32 0.05,-0.69 -0.08,-1.02 0.20,-0.37 -0.19,-0.76 -0.35,-0.90 0.01,0 0.02,-0.00 0.02,-0.00 0.88,0.32 -0.35,-1.34 0.41,-0.48 -0.21,-0.67 -0.09,-0.37 -0.18,-1.28 -0.03,-0.20 -0.60,-0.30 0.14,-0.45 -0.14,-0.10 -0.19,-0.57 -0.02,-0.93 -1.86,-0.92 0.96,0.20 0.05,-0.42 -0.60,0.23 0.76,-0.95 -0.70,-0.61 1.31,-0.22 -0.15,-0.65 0.46,-1.38 -0.05,-0.01 -0.13,-0.07 -0.23,-0.14 0.03,-0.03 0.05,-0.09 -0.04,-0.08 v 0.05 c -0.2,-0.16 -0.34,-0.42 0.05,-0.59 0.23,0.55 -0.20,-0.81 -0.14,-0.82 -0.01,-0.02 -0.03,-0.04 -0.05,-0.05 0.1,-0.05 0.01,-0.09 -0.02,-0.08 z m 0.45,1.81 c 0.03,0.01 0.05,0.01 0.01,-0.01 0,0 -0.01,0.00 -0.01,0.01 z m 0.39,9.95 c 0.15,0.18 0.08,-0.07 0,0 z m 10.25,-6.37 c 0.01,0.02 0.03,0.03 0.01,-0.01 0,0 -0.01,0.00 -0.01,0.01 z m -4.20,6.25 c 0.00,0.00 0.00,0.01 0.01,0.01 -0.0,-0.00 0.0,-0.01 -0.00,-0.01 -0.00,-0.0 -0.00,0.00 -0.01,0.00 z m -1.32,2.02 c 0.01,0.23 0.10,-0.00 0,0 z m 12.04,0.86 c -0.0,0.03 0.00,0.05 0.02,0.00 0,0 -0.01,-0.00 -0.02,-0.00 z m -7.07,2.58 c 0.00,0.00 -5e-5,0.01 10e-4,0.02 0.00,-0.00 0.00,-0.00 0.00,-0.01 -0.00,-0.00 -0.00,-0.00 -0.01,-0.00 z m -2.26,0.86 c -0.12,0.19 0.09,0.05 0,0 z m 9.23,7.78 c -0.01,0.02 -0.02,0.04 0.01,0.01 0,0 -0.00,-0.01 -0.01,-0.01 z m -7.24,-2.06 c -0.00,0.00 -0.00,0.01 -0.01,0.01 0.00,-0.00 0.00,-0.00 0.01,-0.00 -0.00,-0.00 -0.00,-0.00 -0.00,-0.01 z m -2.33,-0.63 c -0.21,0.08 0.04,0.09 0,0 z m 2.89,11.72 c -0.03,0.00 -0.04,0.02 0.00,0.02 0,0 0.00,-0.01 -0.00,-0.02 z m -4.64,-5.93 c -0.00,0.00 -0.01,0.00 -0.02,0.00 0.00,0.00 0.00,0.00 0.01,0.00 0.00,-0.00 0.00,-0.00 0.00,-0.01 z M 30.27,34.03 c -0.22,-0.05 -0.02,0.10 0,0 z m -4.54,11.19 c -0.02,-0.01 -0.04,-0.00 -0.00,0.02 0,0 0.00,-0.01 0.00,-0.02 z M 25.43,37.69 c 0.00,0.00 0.00,0.00 0.01,0.01 0.00,-0.00 0.00,-0.00 0.00,-0.00 -0.01,-0.00 -0.01,-0.00 -0.02,-0.00 z m -0.09,-2.41 c -0.14,-0.18 -0.08,0.07 0,0 z M 15.08,41.65 c -0.01,-0.02 -0.03,-0.03 -0.02,0.01 0,0 0.01,-0.00 0.02,-0.01 z m 4.20,-6.25 c -0.00,-0.00 -0.00,-0.01 -0.01,-0.01 0.0,0.00 -0.0,0.01 0.00,0.01 0.00,0.0 0.00,-0.00 0.01,-0.00 z m 1.32,-2.02 c -0.01,-0.23 -0.10,0.00 0,0 z M 8.56,32.51 c 0.0,-0.03 -0.00,-0.05 -0.02,-0.00 0,0 0.01,0.00 0.02,0.00 z m 7.07,-2.60 c -0.00,0.00 -0.00,0.00 -0.01,0.01 0.00,0.00 0.00,0.00 0.01,0.00 -0.00,-0.01 0.0,-0.01 -0.00,-0.02 z m 2.26,-0.83 c 0.12,-0.19 -0.09,-0.05 0,0 z M 8.67,21.28 c 0.01,-0.02 0.02,-0.04 -0.01,-0.01 0,0 0.00,0.01 0.01,0.01 z m 7.24,2.06 c 0.00,-0.00 0.00,-0.01 0.01,-0.01 -0.00,0.00 -0.01,0.00 -0.01,0.00 0.00,0.00 0.00,0.00 0.00,0.01 z m 2.33,0.63 c 0.21,-0.08 -0.04,-0.09 0,0 z M 15.35,12.25 c 0.03,-0.00 0.04,-0.02 -0.00,-0.02 0,0 -0.00,0.01 0.00,0.02 z m 4.64,5.93 c 0.00,-0.00 0.01,-0.00 0.02,-0.00 -0.00,-0.00 -0.01,-0.00 -0.01,-0.00 -0.00,0.00 -0.00,0.00 -0.00,0.01 z m 1.52,1.88 c 0.22,0.05 0.02,-0.10 0,0 z M 25.83,7.12 c -0.12,0 0.08,0.13 0.06,0.00 -0.03,0 -0.04,-0.00 -0.06,-0.00 z m 0.09,0.13 c -0.05,0.03 -0.02,0.20 0,0 z m -0.11,0.18 v 0.01 z m -0.00,0.01 c -0.02,0 -0.02,0.02 0.02,0.11 0.09,-0.04 0.00,-0.11 -0.02,-0.11 z m -0.48,0.15 V 7.63 Z m -0.01,0.10 c -0.02,0.01 0.10,0.15 0.08,0.02 -0.05,-0.03 -0.07,-0.03 -0.08,-0.02 z m 0.09,0.33 c 0.03,0.01 -0.08,0.09 0,0 z m 0.67,0.20 c -0.27,0.05 0.2,0.09 0,0 z m 13.01,0.09 c -0.02,-0.01 0.05,0.27 0.01,0.02 -0.00,-0.00 -0.01,-0.01 -0.01,-0.02 z m -0.10,0.14 c -0.02,-0.01 -0.09,0.05 -0.18,0.30 0.20,-0.01 0.24,-0.28 0.18,-0.30 z m -12.81,0.02 c -0.00,-0.00 -0.01,-0.00 -0.02,0.00 -0.01,0 -0.01,0.00 -0.03,0.01 0.07,0.13 0.10,-0.00 0.06,-0.02 z M 12.21,8.71 c -0.00,0.00 -0.02,0.00 -0.02,0.00 -0.02,0.01 0.28,0.03 0.02,-0.00 z m 26.75,0.11 c -0.00,-0.00 -0.03,0.01 -0.05,0.08 0.08,0.01 0.08,-0.07 0.05,-0.08 z m -26.65,0.03 c -0.01,0.0 -0.01,0.00 -0.02,0.00 -0.02,0.01 0.01,0.11 0.23,0.27 0.04,-0.17 -0.13,-0.28 -0.21,-0.28 z m 0.30,0.12 c -0.00,-0.0 -0.01,0.00 -0.01,0.00 -0.00,0.00 0.00,0.03 0.05,0.08 0.03,-0.05 -0.01,-0.08 -0.03,-0.08 z m 25.83,0.09 c -0.01,0.01 0.03,0.20 0.06,0.20 -0.00,-0.12 -0.05,-0.22 -0.06,-0.20 z m -0.17,0.27 c 0.01,0.20 0.22,0.20 0,0 z M 12.74,9.54 c -0.03,0.00 -0.06,0.01 -0.05,0.01 0.01,0.01 0.21,0.02 0.21,-0.00 -0.06,-0.01 -0.11,-0.02 -0.15,-0.01 z m 25.62,0.07 c -0.13,0.00 -0.27,0.04 0.05,0.08 0.07,-0.04 0.08,-0.06 0.05,-0.07 -0.02,-0.00 -0.06,-0.01 -0.10,-0.01 z m -25.14,0.08 c -0.00,0.00 -0.00,0.00 -0.01,0.01 -0.06,0.06 -0.13,0.48 0.05,0.07 -0.01,-0.06 -0.02,-0.08 -0.03,-0.08 z m -0.19,0.06 c -0.02,0.00 -0.07,0.01 -0.13,0.05 0.14,0.03 0.22,-0.06 0.13,-0.05 z m 25.01,0.12 c -0.17,0.24 0.17,0.12 0,0 z m -24.66,0.28 c -0.01,0.00 -0.03,0.01 -0.05,0.02 0.15,0.21 0.17,-0.04 0.05,-0.02 z m 24.20,0.09 c -0.07,0.02 -0.03,0.35 0.23,0.50 -0.07,-0.31 -0.15,-0.45 -0.19,-0.49 -0.01,-0.01 -0.02,-0.01 -0.03,-0.00 z m -23.69,0.40 c -0.18,-0.00 -0.28,0.02 -0.31,0.04 -0.11,0.08 0.27,0.20 0.52,-0.03 -0.07,-0.00 -0.14,-0.01 -0.20,-0.01 z m 23.57,0.00 c -0.01,0.00 -0.01,0.01 0.00,0.04 0.03,-0.01 0.03,-0.03 0.02,-0.04 -0.00,-0.00 -0.02,-0.00 -0.03,-0.00 z m 0.06,0.19 c -0.04,-0.00 0.02,0.16 0.07,0.06 -0.02,-0.01 -0.03,-0.03 -0.05,-0.04 -0.01,-0.00 -0.02,-0.01 -0.02,-0.01 z m -23.33,0.06 c -0.02,0.01 -0.04,0.02 -0.06,0.03 -0.09,0.07 0.15,0.06 0.06,-0.03 z m -0.27,0.02 c -0.01,0.01 -0.03,0.05 0.02,0.04 -0.00,-0.03 -0.02,-0.04 -0.02,-0.04 z m 22.94,0.02 -0.00,0.00 z m -22.57,0.03 c -0.02,0.05 0.10,0.18 0,0 z m 23.27,0.03 c -0.05,-0.00 -0.13,0.15 0,0 z m -0.77,0.00 c -0.02,-0.00 -0.01,0.18 0.04,0.07 -0.02,-0.05 -0.03,-0.07 -0.04,-0.07 z m 0.56,0.07 -0.00,0.00 z m -0.02,0.0 c -0.01,0.00 -0.03,0.03 -0.04,0.11 0.09,0.02 0.07,-0.09 0.05,-0.10 -0.00,-0.00 -0.00,-0.00 -0.01,-0.00 z m -23.02,0.10 0.00,0.00 z m 0.02,0.00 c -0.01,-0.0 -0.02,0.00 -0.03,0.00 -0.01,0.01 -0.00,0.04 0.08,0.08 0.03,-0.06 -0.01,-0.08 -0.05,-0.09 z m 12.06,0.09 c -0.01,-0.00 -0.02,-0.00 -0.03,10e-4 -0.06,0.01 -0.11,0.11 0.08,0.10 0,-0.06 -0.02,-0.09 -0.05,-0.10 z m 10.27,0.03 c 0.01,0.02 -0.11,0.02 0,0 z m -11.28,0.02 c -0.34,0.08 0.05,0.21 0,0 z m -11.37,0.26 0.00,0.00 z m 0.13,0.06 c -0.05,0.00 -0.08,0.00 -0.08,0.02 -0.01,0.01 0.17,0.07 0.08,-0.02 z m 0.91,0.00 c -0.00,-0.00 -0.02,-0.0 -0.05,0.00 -0.16,0.17 0.12,0.00 0.05,-0.00 z m 0.18,0.16 c -0.00,0.00 -0.01,0.00 -0.01,0.01 -0.00,0.00 -0.01,0.01 -0.02,0.03 0.13,0.07 0.08,-0.06 0.03,-0.05 z m 21.80,0.02 c -0.09,-0.02 0.16,0.19 0.06,0.02 -0.03,-0.01 -0.05,-0.02 -0.06,-0.02 z m -22.70,0.04 c 0.03,-0.00 -0.01,0.11 0,0 z m 22.62,0.23 c -0.02,0.17 0.12,0.02 0.04,0.00 -0.00,-0.00 -0.02,-0.00 -0.04,-0.00 z m -10.77,0.16 c -0.09,0 -0.11,0.09 0.19,0.11 -0.05,-0.09 -0.13,-0.12 -0.19,-0.11 z m -9.08,1.67 c -0.02,-0.00 -0.04,0.00 -0.05,0.02 -0.04,0.04 -0.02,0.15 0.13,0.02 -0.02,-0.03 -0.05,-0.05 -0.07,-0.05 z m 17.48,0.00 c -0.16,-0.02 0.02,0.20 0.09,0.03 -0.04,-0.01 -0.07,-0.02 -0.09,-0.03 z m 0.88,0.55 c -0.04,0.00 -0.06,0.05 0.05,0.14 0.05,-0.07 0.02,-0.11 -0.01,-0.13 -0.01,-0.00 -0.03,-0.00 -0.04,-0.00 z m -19.18,0.08 c -0.22,0.26 0.16,0.14 0,0 z m 1.37,0.26 c -0.06,-0.00 -0.12,0.01 -0.15,0.04 -0.07,0.05 -0.03,0.13 0.22,-0.02 -0.02,-0.01 -0.04,-0.01 -0.06,-0.02 z m 17.05,0.36 c -0.03,0.00 -0.03,0.07 0.14,0.22 0.01,-0.10 -0.04,-0.17 -0.09,-0.20 -0.01,-0.01 -0.03,-0.01 -0.04,-0.01 z m -8.10,0.85 c -0.05,0 -0.07,0.18 0.02,0 z m -0.08,1.02 c -0.00,-0.00 -0.01,-0.00 -0.02,0.00 -0.07,0.01 -0.20,0.12 0.02,0.02 0.00,-0.01 0.00,-0.01 10e-4,-0.02 z m -6.41,0.62 -0.01,0.01 c -0.04,0.02 0.04,0.19 0.01,-0.01 z m 6.57,0.16 c -0.03,0.01 -0.09,0.12 0,0.11 0.02,-0.08 0.01,-0.10 0,-0.11 z m 6.18,0.66 c -0.04,-0.02 -0.17,0.09 0.01,0.01 z m -12.24,0.05 c -0.00,-0.0 -0.01,0.00 -0.01,0.01 -0.05,0.04 -0.09,0.22 0.02,0.00 -0.00,-0.01 -0.00,-0.01 -0.01,-0.01 z m 0.59,0.54 c -0.01,0.02 0.00,0.15 0.07,0.09 -0.03,-0.07 -0.05,-0.09 -0.07,-0.09 z m 10.84,0.14 c -0.02,0.00 -0.00,0.01 0.11,0.04 0.01,-0.01 0.01,-0.02 -0.00,-0.02 -0.03,-0.01 -0.09,-0.02 -0.11,-0.01 z m 15.52,0.25 c -0.00,-0.02 -0.11,0.25 -0.0,0.03 -0.00,-0.00 0.00,-0.02 0.0,-0.03 z m -0.19,0.04 c -0.04,-0.00 -0.14,0.03 -0.30,0.15 0.17,0.11 0.36,-0.08 0.33,-0.13 -0.00,-0.00 -0.01,-0.01 -0.02,-0.01 z m -0.75,0.17 c -0.01,0.00 -0.09,0.19 -0.06,0.20 0.07,-0.10 0.08,-0.21 0.06,-0.20 z m 0.54,0.09 c -0.01,0.00 -0.03,0.01 -0.06,0.03 0.06,0.06 0.11,-0.01 0.09,-0.03 -0.00,-0.00 -0.01,-0.00 -0.02,-0.00 z m -0.84,0.02 c -0.11,0.17 0.06,0.29 0,0 z m -14.46,0.17 c -0.03,-0.00 -0.14,0.05 -0.07,0.09 0.06,-0.05 0.07,-0.08 0.07,-0.09 z m 14.25,0.02 c -0.01,0.00 0.00,0.04 0.13,0.16 0.08,0.01 0.10,-0.00 0.08,-0.02 -0.02,-0.04 -0.18,-0.14 -0.21,-0.13 z m -41.95,0.00 c -0.00,0.0 -0.03,0.01 -0.09,0.04 -0.00,0.00 -0.01,0.01 -0.01,0.02 -0.00,0.02 0.13,-0.06 0.11,-0.06 z m 0.42,0.01 c -0.02,0.0 -0.04,0.01 -0.04,0.02 -0.00,0.00 0.02,0.02 0.09,0.03 -0.00,-0.04 -0.03,-0.05 -0.05,-0.05 z m -0.21,0.05 c -0.07,-0.00 -0.14,0.02 -0.15,0.05 -0.00,0.02 0.07,0.07 0.35,0.08 C 4.51,20.33 4.43,20.29 4.35,20.29 Z m 41.46,0.01 c -0.28,0.09 0.06,0.20 0,0 z m -0.60,0.04 c -0.07,-0.02 -0.23,0.26 -0.10,0.54 0.12,-0.29 0.14,-0.45 0.12,-0.51 -0.00,-0.01 -0.01,-0.02 -0.02,-0.02 z m -39.75,0.11 c -0.01,-0.00 -0.01,0.00 -0.01,0.02 -0.00,0.09 0.17,0.46 0.08,0.02 -0.03,-0.03 -0.05,-0.04 -0.06,-0.04 z m 38.75,0.03 -0.01,0.00 z m -0.09,0.02 c -0.01,-0.01 -0.12,0.14 -0.00,0.08 0.01,-0.05 0.01,-0.07 0.00,-0.08 z M 5.10,20.54 c -0.11,0.04 -0.19,0.12 -0.17,0.12 0.01,0.00 0.18,-0.10 0.17,-0.12 z m 39.77,0.06 c -0.01,-0.00 -0.02,0.00 -0.02,0.03 0.03,0.00 0.05,-0.00 0.04,-0.01 -0.00,-0.00 -0.01,-0.02 -0.02,-0.02 z m -39.52,0.00 c -0.02,10e-4 -0.05,0.03 -0.10,0.14 0.12,-0.04 0.13,-0.14 0.10,-0.14 z m 38.42,0.07 c 0.00,-0.0 0.01,0.00 0.04,0.01 -0.0,0.02 -0.06,-0.01 -0.04,-0.01 z m -37.89,0.04 c -0.02,0.00 -0.05,0.02 -0.06,0.07 0.21,0.06 0.14,-0.08 0.06,-0.07 z m 0.84,0.01 c -0.27,0.16 -0.38,0.28 -0.40,0.34 -0.04,0.13 0.34,0.00 0.40,-0.34 z M 44.80,20.80 c -0.02,0.01 -0.04,0.14 0.04,0.09 -0.00,-0.02 -0.00,-0.05 -0.01,-0.06 -0.00,-0.02 -0.02,-0.03 -0.03,-0.02 z m -0.30,0.09 c -0.01,-0.00 -0.04,0.00 -0.09,0.06 0.06,0.07 0.11,-0.02 0.10,-0.05 -0.00,-0.00 -0.00,-0.00 -0.00,-0.00 z m -37.54,0.00 c -0.00,0.02 -0.02,0.04 -0.03,0.06 -0.03,0.11 0.16,-0.04 0.03,-0.06 z m 0.12,0.00 c 0.01,0.05 0.19,0.08 0,0 z m 37.44,0.00 -0.01,0.00 z m 0.16,0.04 c -0.05,0.00 -0.10,0.04 0.04,0.00 -0.01,-0.00 -0.02,-0.01 -0.04,-0.00 z m -36.57,0.08 c -0.00,0.00 -0.02,0.01 -0.04,0.03 -0.03,0.23 0.10,-0.06 0.04,-0.03 z m -0.82,0.01 c -0.02,0.00 -0.05,0.02 -0.05,0.03 -0.00,0.01 0.01,0.03 0.11,0.01 -0.00,-0.04 -0.03,-0.06 -0.06,-0.05 z m 1.09,0.00 c -0.01,0.00 -0.02,0.01 -0.02,0.03 -0.00,0.00 0.00,0.02 0.00,0.04 0.13,-0.01 0.06,-0.08 0.01,-0.07 z m -1.61,0.01 c -0.00,-0.00 -0.01,0.00 -0.01,0.00 -0.00,0.01 0.00,0.06 0.04,0.01 -0.01,-0.01 -0.02,-0.02 -0.03,-0.02 z m 0.45,0.00 0.00,0.00 z M 43.77,21.35 c -0.02,0.01 0.04,0.23 0.05,0.07 -0.03,-0.06 -0.05,-0.07 -0.05,-0.07 z m -0.20,0.18 c -0.12,0.12 0.08,0.09 0.03,0.03 -0.00,-0.00 -0.01,-0.01 -0.03,-0.03 z m -36.19,0.03 c -0.04,0.03 -0.05,0.05 -0.05,0.06 0.00,0.02 0.18,-0.04 0.05,-0.06 z m -0.14,0.02 0.00,0.00 z m 33.28,0.01 c -0.06,-0.01 -0.03,0.19 0.10,0.11 -0.04,-0.07 -0.07,-0.10 -0.10,-0.11 z m -32.85,0.03 c 0.01,-0.02 0.06,0.10 0,0 z m 3.50,0.04 c -0.04,0.00 -0.06,0.03 -0.06,0.06 -0.00,0.06 0.07,0.13 0.12,-0.05 -0.02,-0.00 -0.03,-0.00 -0.05,-0.00 z m 14.34,0.32 0.00,0.00 h -0.00 z m -13.31,0.07 c -0.10,0.01 -0.15,0.09 -0.16,0.15 -0.02,0.08 0.05,0.13 0.16,-0.15 z m 28.72,0.51 c -0.02,0.01 -0.03,0.05 0.00,0.14 0.08,-0.02 0.08,-0.08 0.06,-0.11 -0.01,-0.02 -0.04,-0.04 -0.07,-0.03 z m -30.05,0.10 c -0.02,0.34 0.21,0.01 0,0 z m 29.04,0.02 c -0.02,0.00 -0.04,0.08 0.00,0.27 0.07,-0.07 0.07,-0.17 0.04,-0.22 -0.01,-0.03 -0.02,-0.05 -0.04,-0.04 z m -11.36,0.01 0.00,0.01 -0.00,-0.00 z m -12.75,0.25 -0.00,0.01 c -0.01,0.04 0.14,0.13 0.00,-0.01 z m 6.84,0.20 0.01,0.00 -0.00,0.00 z m -5.89,0.21 c -0.00,0.00 -0.00,0.00 -0.00,0.02 -0.01,0.06 0.04,0.23 0.02,-0.01 -0.00,-0.00 -0.01,-0.01 -0.02,-0.00 z m 0.80,0.09 c 0.0,0.03 0.09,0.12 0.11,0.03 -0.06,-0.04 -0.10,-0.04 -0.11,-0.03 z m 18.84,0.81 c -0.02,0.00 -0.01,0.02 0.08,0.04 l -0.00,-0.01 c -0.00,-0.02 -0.05,-0.02 -0.07,-0.02 z m -1.02,0.15 c -0.00,0.00 0.01,0.03 0.07,0.10 0.02,0.00 0.02,-0.00 0.01,-0.02 -0.01,-0.03 -0.08,-0.09 -0.08,-0.08 z m -0.68,0.47 c -0.03,0.00 -0.05,0.01 -0.03,0.05 0.08,-0.00 0.10,-0.02 0.11,-0.03 -0.00,-0.01 -0.04,-0.02 -0.07,-0.02 z m -4.10,0.16 -0.00,0.01 -0.00,-0.00 z m -9.55,0.73 -0.00,0.00 -0.00,-0.00 z m 9.78,2.37 0.00,0.00 -0.01,0.00 z m -9.55,0.73 0.00,0.00 -0.00,0.00 z m -4.07,0.11 c -0.08,0.00 -0.10,0.02 -0.11,0.03 0.01,0.02 0.15,0.04 0.11,-0.03 z m -0.79,0.42 c -0.02,-0.00 -0.02,0.00 -0.01,0.02 0.03,0.06 0.17,0.16 0.01,-0.02 z m -1.03,0.21 0.00,0.01 c 0.01,0.04 0.19,0.02 -0.00,-0.01 z m 18.84,0.78 c -0.01,0.00 -0.02,0.01 -0.02,0.03 0.06,0.04 0.10,0.04 0.11,0.03 -0.0,-0.02 -0.05,-0.08 -0.08,-0.07 z m 0.87,0.02 c -0.00,0.00 -0.00,0.03 -0.0,0.13 0.01,0.01 0.02,0.00 0.02,-0.01 0.00,-0.04 -0.01,-0.12 -0.02,-0.11 z m -5.88,0.34 0.00,0.00 -0.01,-0.00 z m 6.79,0.12 c -0.00,0.00 0.00,0.02 0.05,0.08 l 0.00,-0.01 c 0.00,-0.02 -0.05,-0.07 -0.06,-0.06 z m -24.06,0.08 c -0.07,0.07 -0.07,0.17 -0.04,0.22 0.02,0.08 0.11,0.07 0.04,-0.22 z m 29.00,0.14 c -0.04,0.01 -0.09,0.14 0.04,0.15 0.01,-0.13 -0.01,-0.16 -0.04,-0.15 z m -17.64,0.09 0.00,0.00 -0.00,0.00 z m -12.37,0.01 c -0.08,0.02 -0.08,0.08 -0.06,0.11 0.02,0.05 0.13,0.07 0.06,-0.11 z m 28.88,0.43 c -0.02,-0.00 -0.08,0.04 -0.15,0.22 0.10,-0.01 0.15,-0.09 0.16,-0.15 0.01,-0.03 0.00,-0.05 -0.01,-0.06 z M 26.28,32.07 h 0.00 v 0.01 z m 14.38,0.20 c -0.02,-0.00 -0.05,0.02 -0.08,0.12 0.08,0.02 0.12,-0.01 0.12,-0.05 0.00,-0.03 -0.01,-0.06 -0.03,-0.06 z m -29.42,0.08 c -0.01,0.0 -0.03,0.00 -0.05,0.02 0.15,0.26 0.18,-0.02 0.05,-0.02 z m 32.86,0.05 c 0.00,0.00 0.01,0.01 0.02,0.04 -0.01,0.01 -0.04,-0.04 -0.02,-0.04 z m 0.34,0.05 c -0.04,0.01 -0.12,0.05 -0.02,0.06 0.04,-0.03 0.05,-0.05 0.05,-0.06 -0.0,-0.00 -0.01,-0.00 -0.02,-0.00 z m -36.20,0.01 c -0.03,-0.0 -0.07,0.02 -0.04,0.05 0.00,0.00 0.01,0.01 0.03,0.03 0.06,-0.06 0.04,-0.08 0.01,-0.08 z m 36.31,0.02 0.00,0.00 z M 7.99,32.63 c -0.01,-0.00 -0.02,0.00 -0.02,0.05 0.09,0.18 0.06,-0.03 0.02,-0.05 z m 35.72,0.31 c -0.02,-0.0 -0.10,0.21 0.00,0.09 0.00,-0.06 0.00,-0.09 -0.00,-0.09 z m 1.72,0.02 c -0.09,-0.00 -0.32,0.13 -0.36,0.39 0.27,-0.16 0.38,-0.28 0.40,-0.34 0.01,-0.03 -0.00,-0.05 -0.03,-0.05 z m -2.00,0.01 c -0.17,0.02 0.01,0.12 0.00,0.04 0.00,-0.00 -0.00,-0.02 -0.00,-0.04 z m 1.59,0.01 c -0.00,0.00 -0.01,0.00 -0.02,0.02 0.02,0.02 0.04,0.02 0.04,0.01 0.00,-0.01 -0.00,-0.04 -0.02,-0.03 z m -0.47,0.00 c -0.01,-0.00 -0.05,-0.00 -0.10,0.00 0.01,0.09 0.11,0.04 0.12,0.01 0.00,-0.00 -0.00,-0.01 -0.01,-0.02 z m 0.01,0.03 0.01,0.00 z m 0.30,0.07 c -0.03,-0.00 -0.12,0.08 -0.02,0.10 0.00,-0.02 0.02,-0.04 0.03,-0.06 0.00,-0.02 0.00,-0.04 -0.00,-0.04 z m -37.51,0.01 c -0.04,-0.00 -0.06,0.06 -0.06,0.08 0.00,0.01 0.03,0.01 0.10,-0.05 -0.01,-0.01 -0.03,-0.02 -0.04,-0.02 z m -0.19,0.00 c -0.01,-0.0 -0.04,0.00 -0.09,0.01 0.03,0.02 0.13,-0.01 0.09,-0.01 z m 37.49,0.02 c -0.02,-0.00 -0.01,0.01 0.07,0.05 -0.00,-0.02 -0.05,-0.04 -0.07,-0.05 z m -37.35,0.04 -0.00,0.00 z m -0.29,0.00 c -0.00,-0.0 -0.02,0.00 -0.03,0.00 0.00,0.02 0.00,0.05 0.01,0.06 0.03,0.09 0.08,-0.07 0.02,-0.07 z m -0.30,0.02 c -0.12,0.29 -0.14,0.45 -0.12,0.51 0.04,0.13 0.28,-0.19 0.12,-0.51 z m 39.21,0.05 c -0.14,-0.00 0.02,0.20 0.08,0.01 -0.03,-0.01 -0.06,-0.01 -0.08,-0.01 z m 0.65,0.07 c -0.19,0.07 -0.12,0.27 0,0 z m -0.28,0.03 c -0.01,-0.00 -0.02,0.04 0.00,0.20 0.06,0.06 0.08,0.05 0.08,0.02 0.00,-0.05 -0.06,-0.22 -0.09,-0.23 z m -38.27,0.00 c 0.02,0.00 0.06,0.04 -0.01,0.00 0.0,-0.00 0.00,-0.00 0.01,-0.00 z m 38.88,0.04 c -0.01,-0.00 -0.18,0.10 -0.17,0.12 0.11,-0.04 0.19,-0.12 0.17,-0.12 z m -39.93,0.02 c -0.03,-0.00 -0.05,0.00 -0.04,0.01 0.00,0.01 0.04,0.04 0.04,-0.01 z m 0.78,0.02 c -0.00,0.00 -0.01,0.00 -0.03,0.01 -0.01,0.05 -0.01,0.07 -0.00,0.08 0.01,0.01 0.09,-0.10 0.03,-0.09 z m -0.12,0.11 -0.00,0.00 z m 39.64,0.07 c 0.07,0.19 0.34,0.14 0.35,0.08 0.00,-0.02 -0.07,-0.07 -0.35,-0.08 z m -41.21,0.00 c -0.03,0.00 -0.07,0.03 -0.04,0.11 0.17,-0.05 0.10,-0.12 0.04,-0.11 z m -0.54,0.03 c -0.01,0.00 -0.01,0.01 -0.00,0.02 0.04,0.07 0.41,0.27 0.08,-0.02 -0.04,-0.00 -0.07,-0.00 -0.08,-0.0 z m 41.69,0.09 c 0.01,0.08 0.09,0.05 0.09,0.03 0.00,-0.00 -0.02,-0.02 -0.09,-0.03 z m 0.58,0.00 c 0.00,-0.02 -0.24,0.14 -0.01,0.02 0.00,-0.00 0.01,-0.01 0.01,-0.02 z m -27.74,0.00 c -0.06,0.05 -0.07,0.08 -0.07,0.09 0.03,0.00 0.14,-0.05 0.07,-0.09 z m -14.52,0.09 c -0.02,-0.01 -0.04,0.02 -0.01,0.17 0.05,-0.08 0.03,-0.16 0.01,-0.17 z m -0.25,0.09 c -0.07,0.10 -0.08,0.21 -0.06,0.20 0.01,-0.00 0.09,-0.19 0.06,-0.20 z M 4.66,34.06 c -0.03,-0.00 -0.06,0.04 -0.05,0.05 0.00,0.00 0.03,0.00 0.09,-0.03 -0.01,-0.01 -0.03,-0.02 -0.04,-0.02 z m -0.05,0.14 c -0.12,0.01 -0.22,0.13 -0.20,0.17 0.00,0.02 0.11,0.01 0.33,-0.14 -0.04,-0.02 -0.08,-0.03 -0.12,-0.03 z m -0.32,0.11 c -0.00,0.00 -0.02,0.03 -0.05,0.08 0.00,0.00 -0.00,0.02 0,0.03 0.00,0.02 0.06,-0.13 0.05,-0.11 z m 15.35,0.32 c -0.01,0.01 -0.01,0.02 0.00,0.02 0.06,0.03 0.24,0.02 -0.00,-0.02 z m 10.91,0.07 c -0.00,0.00 -0.01,0.00 -0.02,0.01 0.03,0.07 0.05,0.09 0.07,0.09 0.01,-0.02 0.00,-0.12 -0.04,-0.11 z m 0.70,0.53 c -0.00,-10e-4 -0.03,0.02 -0.07,0.10 0.00,0.02 0.01,0.02 0.02,0.00 0.03,-0.03 0.06,-0.10 0.05,-0.11 z m -12.24,0.14 c -0.01,0.0 -0.04,0.00 -0.08,0.03 l 0.01,0.01 c 0.03,0.02 0.11,-0.04 0.07,-0.04 z m 6.11,0.59 c -0.02,0.08 -0.01,0.10 0,0.11 0.02,-0.01 0.09,-0.12 0,-0.11 z m 6.58,0.18 c -0.00,-0.0 -0.01,0.02 -0.00,0.10 l 0.01,-0.01 c 0.02,-0.01 0.00,-0.08 -0.01,-0.08 z m -6.31,0.66 c -0.01,0.00 -0.05,0.01 -0.11,0.04 -0.01,0.02 -0.0,0.03 0.01,0.02 0.05,-0.00 0.14,-0.07 0.09,-0.06 z m -0.15,1.01 c -0.00,-0.00 -0.02,0.01 -0.06,0.07 h 0.02 c 0.03,0 0.05,-0.07 0.04,-0.07 z m -8.29,0.71 c -0.01,0.10 0.04,0.17 0.09,0.20 0.07,0.05 0.14,-0.00 -0.09,-0.20 z m 17.36,0.46 c -0.03,-0.00 -0.10,0.01 -0.23,0.09 0.09,0.04 0.18,0.01 0.22,-0.02 0.03,-0.02 0.04,-0.06 0.01,-0.06 z m 1.26,0.22 c -0.04,-0.01 -0.15,0.06 -0.05,0.15 0.08,-0.09 0.08,-0.14 0.05,-0.15 z m -19.29,0.10 c -0.05,0.07 -0.02,0.11 0.01,0.13 0.05,0.02 0.15,-0.02 -0.01,-0.13 z m 18.47,0.59 c -0.02,-0.00 -0.06,0.01 -0.12,0.05 0.05,0.07 0.10,0.05 0.13,0.02 0.02,-0.02 0.02,-0.08 -0.00,-0.08 z m -17.54,0.00 c -0.02,-0.00 -0.05,0.01 -0.08,0.06 0.24,0.10 0.16,-0.06 0.08,-0.06 z m 8.21,1.66 c 0.05,0.09 0.13,0.12 0.19,0.11 0.09,0 0.11,-0.09 -0.19,-0.11 z m -10.59,0.19 c -0.03,0.00 -0.07,0.06 -0.02,0.07 0.00,0.00 0.02,0.00 0.04,0.00 0.01,-0.06 -0.00,-0.08 -0.02,-0.08 z m 22.65,0.27 c 0.00,0.00 0.00,0.01 -0.0,0.04 -0.02,0.00 -0.00,-0.06 0.0,-0.04 z m -22.78,0.00 c -0.01,-0.0 -0.01,0.01 0.01,0.06 0.18,0.08 0.03,-0.06 -0.01,-0.06 z m 21.86,0.04 c -0.08,-0.01 -0.01,0.12 0.02,0.05 0.00,-0.00 0.01,-0.01 0.02,-0.03 -0.01,-0.01 -0.03,-0.01 -0.04,-0.01 z m 0.29,0.15 c -0.02,-0.01 -0.21,0.11 -0.04,0.07 0.04,-0.04 0.05,-0.07 0.04,-0.07 z m 0.81,0.03 c -0.03,-0.00 -0.05,0.00 -0.01,0.05 0.05,-0.00 0.08,-0.00 0.08,-0.02 0.00,-0.00 -0.03,-0.02 -0.07,-0.03 z m 0.11,0.11 0.00,0.00 z m -11.30,0.15 c -0.04,0.00 -0.08,0.03 -0.06,0.11 0.21,-0.05 0.13,-0.11 0.06,-0.11 z m -1.13,0.07 c 0,0.09 0.04,0.10 0.08,0.09 0.05,-0.01 0.11,-0.10 -0.08,-0.09 z m -10.18,0.04 c 0.01,-6e-6 0.02,0.00 -0.03,0.01 -0.00,-0.01 0.02,-0.01 0.03,-0.01 z m 22.24,0.05 c -0.04,0.08 0.06,0.10 0.08,0.08 0.01,-0.01 0.00,-0.04 -0.08,-0.08 z m 0.07,0.09 0.00,0.00 z m -22.97,0.00 c -0.09,-0.02 -0.07,0.09 -0.05,0.10 0.01,0.01 0.04,-0.00 0.05,-0.10 z m 0.48,0.07 c -0.00,-0.00 -0.02,0.00 -0.03,0.03 0.02,0.05 0.03,0.07 0.04,0.07 0.01,0.00 0.01,-0.10 -0.01,-0.10 z m -0.54,0.02 -0.00,0.00 z m -0.13,0.02 c -0.00,-0.00 -0.02,0.00 -0.07,0.06 0.03,0.00 0.08,-0.05 0.07,-0.06 z m 23.15,0.01 c -0.00,0.00 0.00,0.02 0.04,0.09 0.01,-0.03 -0.03,-0.09 -0.04,-0.09 z m 0.16,0.09 c -0.03,0.00 -0.07,0.03 -0.03,0.07 0.02,-0.01 0.04,-0.02 0.06,-0.03 0.04,-0.03 0.00,-0.05 -0.02,-0.04 z m 0.24,0.00 c -0.00,-0.00 -0.01,-0.00 -0.03,0.00 0.00,0.03 0.02,0.04 0.02,0.04 0.01,-0.00 0.02,-0.03 0.00,-0.04 z m -22.93,0.01 -0.00,0.00 z m -0.71,0.02 c -0.01,-0.00 -0.03,0.00 -0.04,0.03 0.02,0.01 0.03,0.03 0.05,0.04 0.07,0.05 0.04,-0.06 -0.00,-0.08 z m 23.86,0.14 c -0.11,-0.01 -0.27,0.01 -0.40,0.14 0.31,0.02 0.48,-0.00 0.52,-0.03 0.05,-0.04 -0.01,-0.09 -0.12,-0.10 z m -24.12,0.05 c 0.07,0.31 0.15,0.45 0.19,0.49 0.11,0.08 0.11,-0.32 -0.19,-0.49 z m 0.35,0.04 c -0.03,0.01 -0.03,0.03 -0.02,0.04 0.01,0.01 0.06,0.01 0.02,-0.04 z M 38.38,43.83 c -0.06,-0.00 -0.03,0.18 0.09,0.08 -0.04,-0.06 -0.07,-0.08 -0.09,-0.08 z m -24.59,0.25 c -0.04,-0.01 -0.14,0.05 -0.03,0.14 0.06,-0.09 0.05,-0.13 0.03,-0.14 z m 24.86,0.06 c -0.01,-0.01 -0.04,0.02 -0.11,0.17 0.01,0.08 0.03,0.09 0.05,0.07 0.03,-0.04 0.08,-0.21 0.06,-0.24 z m 0.18,0.13 c -0.14,0.00 -0.15,0.14 0.06,0.00 -0.02,-0.00 -0.04,-0.00 -0.06,-0.00 z M 13.37,44.41 c -0.07,0.04 -0.08,0.06 -0.05,0.07 0.08,0.03 0.49,-0.02 0.05,-0.07 z m 25.62,0.12 c -0.05,-0.00 -0.10,0.00 -0.10,0.01 0.12,0.03 0.22,0.01 0.21,-0.0 -0.00,-0.00 -0.05,-0.01 -0.11,-0.01 z m -25.56,0.06 c -0.02,0.0 -0.02,0.05 0.08,0.15 -0.00,-0.10 -0.06,-0.15 -0.08,-0.15 z m -0.15,0.22 c 0.00,0.12 0.05,0.22 0.06,0.20 0.01,-0.01 -0.03,-0.20 -0.06,-0.20 z m 25.99,0.14 c -0.05,0.19 0.19,0.31 0.23,0.27 0.02,-0.01 -0.01,-0.11 -0.23,-0.27 z m -0.13,0.07 c -0.04,0.07 0.04,0.10 0.05,0.08 0.00,-0.00 -0.00,-0.03 -0.05,-0.08 z M 12.88,45.20 c -0.08,-0.01 -0.08,0.07 -0.05,0.08 0.00,0.00 0.03,-0.01 0.05,-0.08 z m 0.10,0.10 c -0.20,0.01 -0.24,0.28 -0.18,0.30 0.02,0.01 0.09,-0.05 0.18,-0.30 z m 26.51,0.06 c -0.04,-4e-4 -0.05,0.00 0.06,0.02 0.00,-0.00 0.02,-0.00 0.03,-0.00 0.01,-0.00 -0.05,-0.01 -0.10,-0.01 z m -13.87,0.13 c -0.04,-0.00 -0.04,0.10 0.01,0.08 0.01,0.0 0.01,-0.01 0.03,-0.02 -0.02,-0.04 -0.03,-0.05 -0.05,-0.05 z m -12.96,0.13 c -0.00,0.00 0.0,0.03 0.01,0.09 0.00,0.00 0.01,0.01 0.01,0.02 0.01,0.01 -0.02,-0.14 -0.02,-0.12 z m 13.07,0.16 c -0.05,-0.00 -0.12,0.00 -0.02,0.05 0.13,-0.02 0.08,-0.04 0.02,-0.05 z m 0.68,0.22 c -0.00,0.00 -0.00,0.01 -0.02,0.03 -0.02,-0.00 0.03,-0.05 0.02,-0.03 z m -0.01,0.28 c -0.00,0.00 -0.01,0.01 -0.00,0.05 0.04,0.03 0.07,0.03 0.08,0.02 0.01,-0.00 -0.04,-0.09 -0.07,-0.08 z m 0.06,0.17 v 0.00 z m -0.50,0.05 c -0.09,0.04 -0.00,0.11 0.02,0.11 0.02,-0.0 0.02,-0.02 -0.02,-0.11 z m 0.01,0.11 v 0.00 z m -0.09,0.09 c -0.00,-0.00 -0.01,0.02 -0.02,0.10 0.03,-0.01 0.03,-0.09 0.02,-0.10 z m 0.02,0.16 c -0.01,0.00 -0.02,0.02 -0.01,0.05 0.02,0.0 0.05,0.01 0.07,0.01 0.09,-2e-6 -0.00,-0.07 -0.05,-0.06 z m 0.22,0.14 c -0.01,0.03 -0.01,0.05 0,0.05 0.02,-0.0 0.06,-0.03 0,-0.05 z m -0.18,0.16 c -0.03,-0.00 -0.08,-0.00 -0.12,0.00 0.23,0.21 0.39,0.28 0.45,0.28 0.12,0 -0.04,-0.25 -0.32,-0.28 z m 0.15,0.72 c -0.04,0.01 -0.07,0.13 0.05,0.13 2e-6,-0.11 -0.03,-0.14 -0.05,-0.13 z m 0.03,0.42 c -0.02,0.00 -0.07,0.02 -0.17,0.08 -0.04,0.08 -0.02,0.09 0,0.08 0.06,-0.01 0.25,-0.18 0.17,-0.17 z m 0.00,0.19 c -0.05,0.00 -0.05,0.05 0.13,0.07 -0.04,-0.06 -0.10,-0.07 -0.13,-0.07 z m -0.01,0.28 c 0.07,0.10 0.17,0.14 0.17,0.12 -0.0,-0.02 -0.15,-0.14 -0.17,-0.12 z m -0.09,0.53 c -0.08,0.04 -0.01,0.11 0,0.10 0.01,0.0 0.01,-0.03 0,-0.10 z m 0.15,0.02 c -0.15,0.12 -0.03,0.37 0.02,0.36 0.02,0.0 0.05,-0.10 -0.02,-0.36 z m -0.06,0.45 c 0.00,0.00 0.02,0.02 0.06,0.07 0.01,1e-5 0.01,0.00 0.02,0.00 0.02,0.0 -0.10,-0.10 -0.09,-0.08 z"
       id="jagged_hand-6"
       inkscape:connector-curvature="0" />
    <path
       style="opacity:1;fill:#0a0000;fill-opacity:0.4;stroke:none;stroke-width:4.02;stroke-linejoin:miter;stroke-miterlimit:4;stroke-dasharray:none;stroke-dashoffset:0;stroke-opacity:1"
       d="M 26.12,3.63 V 26.24 L 39.40,7.96 A 23.38,23.38 0 0 0 26.12,3.63 Z"
       id="pie1"
       inkscape:label="#path855"
       inkscape:connector-curvature="0" />
    <path
       style="opacity:1;fill:#0a0000;fill-opacity:0.4;stroke:none;stroke-width:4.02;stroke-linejoin:miter;stroke-miterlimit:4;stroke-dasharray:none;stroke-dashoffset:0;stroke-opacity:1"
       d="M 39.80,8.26 26.52,26.53 48.01,19.55 A 23.38,23.38 0 0 0 39.80,8.26 Z"
       id="pie2"
       inkscape:label="#path851"
       inkscape:connector-curvature="0" />
    <path
       style="opacity:1;fill:#0a0000;fill-opacity:0.4;stroke:none;stroke-width:4.02;stroke-linejoin:miter;stroke-miterlimit:4;stroke-dasharray:none;stroke-dashoffset:0;stroke-opacity:1"
       d="m 48.16,20.03 -21.48,6.98 21.50,6.98 a 23.38,23.38 0 0 0 1.07,-6.98 23.38,23.38 0 0 0 -1.09,-6.98 z"
       id="pie3"
       inkscape:label="#path847"
       inkscape:connector-curvature="0" />
    <path
       style="opacity:1;fill:#0a0000;fill-opacity:0.4;stroke:none;stroke-width:4.02;stroke-linejoin:miter;stroke-miterlimit:4;stroke-dasharray:none;stroke-dashoffset:0;stroke-opacity:1"
       d="m 26.52,27.48 13.27,18.27 A 23.38,23.38 0 0 0 48.01,34.47 Z"
       id="pie4"
       inkscape:label="#path843"
       inkscape:connector-curvature="0" />
    <path
       style="opacity:1;fill:#0a0000;fill-opacity:0.4;stroke:none;stroke-width:4.02;stroke-linejoin:miter;stroke-miterlimit:4;stroke-dasharray:none;stroke-dashoffset:0;stroke-opacity:1"
       d="M 26.12,27.78 V 50.39 A 23.38,23.38 0 0 0 39.40,46.05 Z"
       id="pie5"
       inkscape:label="#path879"
       inkscape:connector-curvature="0" />
    <path
       style="opacity:1;fill:#0a0000;fill-opacity:0.4;stroke:none;stroke-width:4.02;stroke-linejoin:miter;stroke-miterlimit:4;stroke-dasharray:none;stroke-dashoffset:0;stroke-opacity:1"
       d="M 25.62,27.78 12.33,46.06 a 23.38,23.38 0 0 0 13.28,4.32 z"
       id="pie6"
       inkscape:label="#path841"
       inkscape:connector-curvature="0" />
    <path
       style="opacity:1;fill:#0a0000;fill-opacity:0.4;stroke:none;stroke-width:4.02;stroke-linejoin:miter;stroke-miterlimit:4;stroke-dasharray:none;stroke-dashoffset:0;stroke-opacity:1"
       d="m 25.21,27.48 -21.48,6.98 a 23.38,23.38 0 0 0 8.20,11.29 z"
       id="pie7"
       inkscape:label="#path845"
       inkscape:connector-curvature="0" />
    <path
       style="opacity:1;fill:#0a0000;fill-opacity:0.4;stroke:none;stroke-width:4.02;stroke-linejoin:miter;stroke-miterlimit:4;stroke-dasharray:none;stroke-dashoffset:0;stroke-opacity:1"
       d="m 3.55,20.02 a 23.38,23.38 0 0 0 -1.07,6.98 23.38,23.38 0 0 0 1.09,6.98 L 25.06,27.01 Z"
       id="pie8"
       inkscape:label="#path849"
       inkscape:connector-curvature="0" />
    <path
       style="opacity:1;fill:#0a0000;fill-opacity:0.4;stroke:none;stroke-width:4.02;stroke-linejoin:miter;stroke-miterlimit:4;stroke-dasharray:none;stroke-dashoffset:0;stroke-opacity:1"
       d="M 11.93,8.26 A 23.38,23.38 0 0 0 3.72,19.55 L 25.21,26.53 Z"
       id="pie9"
       inkscape:label="#path853"
       inkscape:connector-curvature="0" />
    <path
       style="opacity:1;fill:#0a0000;fill-opacity:0.4;stroke:none;stroke-width:4.02;stroke-linejoin:miter;stroke-miterlimit:4;stroke-dasharray:none;stroke-dashoffset:0;stroke-opacity:1"
       d="M 25.62,3.63 A 23.38,23.38 0 0 0 12.34,7.97 L 25.62,26.24 Z"
       id="pie10"
       inkscape:label="#path857"
       inkscape:connector-curvature="0" />
  </g>
</svg>
