<?xml version="1.0" encoding="UTF-8" standalone="no"?>
<svg
   xmlns:dc="http://purl.org/dc/elements/1.1/"
   xmlns:cc="http://creativecommons.org/ns#"
   xmlns:rdf="http://www.w3.org/1999/02/22-rdf-syntax-ns#"
   xmlns:svg="http://www.w3.org/2000/svg"
   xmlns="http://www.w3.org/2000/svg"
   xmlns:sodipodi="http://sodipodi.sourceforge.net/DTD/sodipodi-0.dtd"
   xmlns:inkscape="http://www.inkscape.org/namespaces/inkscape"
   width="200"
   height="200"
   viewBox="0 0 52.91 52.91"
   version="1.1"
   id="clock_12"
   data-pie-num="12"
   inkscape:version="0.92.3 (2405546, 2018-03-11)"
   sodipodi:docname="clock_12.svg">
  <defs
     id="defs9110">
    <clipPath
       clipPathUnits="userSpaceOnUse"
       id="clipPath18-3">
      <path
         d="M 0,336 H 336 V 0 H 0 Z"
         id="path16-5"
         inkscape:connector-curvature="0" />
    </clipPath>
    <clipPath
       clipPathUnits="userSpaceOnUse"
       id="clipPath26-6">
      <path
         d="M 56.63,638 H 1725 V -679.64 H 56.63 Z"
         id="path24-2"
         inkscape:connector-curvature="0" />
    </clipPath>
    <filter
       inkscape:collect="always"
       style="color-interpolation-filters:sRGB"
       id="filter2235"
       x="-0.03"
       width="1.07"
       y="-0.03"
       height="1.07">
      <feGaussianBlur
         inkscape:collect="always"
         stdDeviation="0.73"
         id="feGaussianBlur2237" />
    </filter>
  </defs>
  <script
     type="text/javascript"
     src="js/clock.js"
     id="script_clock" />
  <script
     type="text/javascript"
     data-namespace="clock12"
     id="script10"><![CDATA[

clock12 = {

  menu: {
    'Tick': {
      eventName: 'clock_tick',
      applicable: (elem) => {
        return elem.querySelector('#pie12').style['opacity'] !== '1'
      },
      uiLabel: (elem) => { return 'Tick clock forward' },
      handler: function(evt) {
        clock.tick_handler(this)
      },
    },
    'Untick': {
      eventName: 'clock_untick',
      applicable: (elem) => {
        return elem.querySelector('#pie1').style['opacity'] === '1'
      },
      uiLabel: (elem) => { return 'Tick clock backward' },
      handler: function(evt) {
        clock.untick_handler(this)
      },
    },
  },

  initialize: function(elem, prototype) {
    return clock.initialize(elem, prototype)
  },

}

]]></script>
  <g
     inkscape:label="Layer 1"
     inkscape:groupmode="layer"
     id="layer1">
    <circle
       r="23.48"
       style="opacity:1;fill:#f2ecf2;fill-opacity:0.25;stroke:none;stroke-opacity:1"
       id="bg"
       cx="25.53"
       cy="26.70"
       inkscape:label="#path833" />
    <path
       style="fill:#231f20;fill-opacity:1;fill-rule:nonzero;stroke:none;stroke-width:0.34"
       d="m 25.48,2.34 c 0.01,0 0.2,0.06 0.57,0.21 C 25.24,2.65 22.61,2.23 23.83,2.53 22.48,2.45 21.2,3.07 19.96,3.3 20.65,2.63 17.07,4.35 17.3,3.98 18.88,3.37 16.07,4.24 16.62,4.22 15.34,5.02 15.53,4.56 15.1,4.8 13.32,5.5 11.83,6.81 10.26,7.92 8.99,8.95 8.5,9.72 7.1,11.2 L 7.33,10.91 7.56,10.64 C 6.5,11.8 8.17,9.35 7.22,10.78 5.88,12.37 5.75,13.21 4.85,14.4 c -0.48,0.9 -1.01,2.03 -1.24,2.76 -0.43,1.08 0.38,-1.42 -0.29,0.17 -0.07,0.5 -0.72,1.76 -0.26,0.55 -0.47,0.69 -1.12,2.19 -0.2,0.68 -0.43,1.63 -1.18,3.25 -1.07,4.27 -0.04,1.37 -0.4,2.03 -0.13,3 -0.09,1.77 -0.12,3.88 0.45,4.92 0.4,1.34 0.27,-0.28 0.59,1.25 -0.17,0.69 -0.67,-1.62 -0.59,0.07 -0.12,1.47 1.99,3.51 1.46,4.28 -0.34,-1.3 -1.18,-2.41 -0.28,-0.61 -0.01,0.51 1.79,3.26 0.7,1.66 1.16,1.69 1.04,2.23 2.69,4.2 0.62,0.78 0.77,0.98 2.1,1.67 -0.32,0.74 -1.13,-0.24 -0.21,0.69 0.23,-0.18 0.56,0.28 1.09,1 0.4,-0.05 1.37,1.21 2.05,1.63 0.02,-0.02 2.18,0.65 1.99,1.25 1.07,-0.11 4.54,1.15 1.95,0.66 -0.68,-0.09 -2.12,-0.62 -0.75,0.15 -1.88,-0.48 3.62,1.41 1.17,0.45 -2.15,-0.75 2,0.09 1.2,0.44 1.38,0.35 -0.13,0.17 1.63,0.5 1.26,0.54 0.91,0.56 1.2,-0.34 1.61,0.13 1.19,0.9 1.53,0.88 1.12,0.51 2.4,-0.12 4.12,0.12 1.81,-0.05 3.03,0.11 3.38,-0.03 2.33,-0.58 -2.32,0.44 0.04,-0.37 1.44,0 3.49,-1.38 4.5,-1 -0.4,0.21 -2.26,0.53 -0.95,0.29 -2.13,0.73 1.78,-0.4 2.5,-0.78 1.66,-0.68 -0.41,-0.09 1.37,-1.04 0.52,-0.41 1.7,-0.74 0.45,-0.14 0.3,-0.12 2.07,-1.07 0.81,-0.56 1.12,-0.84 1.83,-1.57 0.42,-0.51 -0.43,0.52 -2.39,0.99 -2.04,1.27 -1.61,1 -1.39,0.42 -3.01,1.03 -1.47,0.58 -2.98,0.97 -4.76,1.2 -2.39,0.21 -4.75,-0.1 -7.13,-0.48 -1.25,0.17 -4.42,-0.92 -4.18,-1.06 C 15.07,47.77 13.73,46.96 12.71,46.19 11.79,45.8 10.04,44.5 9.15,43.55 8.41,42.58 7,41.48 6.09,39.7 5.11,38.16 4.07,36.1 3.85,34.93 3.3,32.74 3.17,33.15 2.57,30.89 2.65,31.03 2.21,27.33 2.15,26.96 2.2,25.4 2.47,22.94 2.58,22.32 c 0.74,-1.6 0.86,-2.09 1.53,-4.24 0.48,-1.44 1.73,-3.95 3.07,-5.6 0.89,-1.23 2,-2.06 2.93,-3.18 1.25,-1.16 3.65,-2.71 5,-3.31 1.39,-0.76 4.6,-1.58 3.98,-2.02 1.08,-0.01 3.68,-0.52 5.77,-0.56 1.74,0.1 4.23,-0.01 4.05,0.23 1.11,-0.06 0.99,0.15 0.86,0.17 0.81,-0.19 2.71,0.78 2.76,0.45 1.3,0.29 3.9,1.51 5.61,2.45 0.66,0.11 2.28,2.04 3.07,2.23 0.96,0.96 2.33,2.68 3.19,3.46 1.01,1.45 1.9,2.66 2.72,4.5 0.92,1.93 1.63,4.02 1.75,6.18 0.43,-0.4 0.21,3.61 0.6,2.76 0.74,-1.67 0.07,-3.41 -0.18,-4.81 -0.08,-1.03 -1.52,-4.97 -1.46,-4.31 0.39,1.01 -1.03,-2.15 -1.25,-2.67 -0.45,-0.3 -1.09,-1.67 -0.79,-1.3 -0.21,-0.37 -1.1,-1.48 -0.36,-0.46 C 44.24,10.77 42.58,8.91 41.24,8.15 39.56,6.92 38.82,6.05 37.06,5.44 35.72,5.05 36.22,4.54 34.36,4.12 32.9,3.54 33.77,3.89 34.42,4.29 32.44,3.76 31.23,2.72 29.7,2.97 32.35,3.25 27.29,2.96 29.03,2.88 26.44,2.48 32.02,3.09 29.17,2.71 27.97,2.66 26.85,2.49 26.62,2.44 c -0.76,0 -1.17,-0.12 -1.14,-0.1 z m 3.55,0.53 c 0.1,0.05 0.41,-0.04 0,0 z m 2.35,1.1 c 0.09,0 0.32,0.05 0.1,0.06 C 31.32,3.98 31.32,3.97 31.38,3.97 Z M 12.25,6.36 c -0.09,0 -0.41,0.15 -0.25,0.25 0,0 -0.01,0.01 -0.02,0.05 0.02,0 0.03,-0.03 0.03,-0.04 0.27,-0.18 0.3,-0.25 0.25,-0.26 z M 8.61,9.15 c -1.02,0.96 -0.29,0.47 0,0 z m 37.52,4.02 c 0.01,0.02 0.01,0.02 0,0 z M 5.22,13.75 c -0.01,0 -0.06,0 -0.15,0.04 -0.24,0.22 0.22,-0.02 0.15,-0.04 z M 4.97,14.16 C 4.99,14.11 4.98,14.14 4.86,14.4 4.88,14.35 4.94,14.22 4.97,14.16 Z m -1.03,1.93 c 0,0 -0.01,0.01 -0.02,0.02 0,0.17 0.05,-0.05 0.02,-0.02 z m -0.88,2.07 c 0.04,0 0.01,0.21 -0.2,0.64 0.05,-0.43 0.16,-0.64 0.2,-0.64 z m -0.71,1.55 c 0,0.01 -0.07,0.14 -0.18,0.36 C 2.3,19.8 2.36,19.7 2.35,19.71 Z m 46.79,3.9 c 0,0 0,0.03 0.01,0.1 0,-0.07 -0.01,-0.1 -0.01,-0.1 z m 0.06,1.89 c -0.2,1.05 0.13,0.22 0,0 z m 0.19,0.93 c -0.38,0.07 0.32,0.92 0,0 z m -0.19,0.4 C 49.16,26.82 49.12,27.16 49.24,27 49.23,26.88 49.22,26.83 49.2,26.83 Z m -0.04,3.77 c -0.06,0.12 -0.01,0.75 0,0 z M 1.94,30.86 c 0,-0.1 0,-0.04 0.02,0.5 0,-0.12 -0.02,-0.39 -0.02,-0.5 z m 0.45,0.7 c -0.1,0.23 0.45,0.69 0,0 z m 46.47,0.4 c -0.01,0 -0.08,0.25 -0.21,0.97 -0.07,0.32 -0.15,0.65 -0.27,0.97 0.34,-0.63 0.53,-1.94 0.48,-1.95 z M 2.4,32.38 c 0.01,0.01 0.06,0.18 0.1,0.56 C 2.39,32.59 2.37,32.36 2.4,32.38 Z m 46.26,1.12 c -0.02,-0.01 -0.1,0.16 -0.18,0.61 0.16,-0.36 0.2,-0.59 0.18,-0.61 z m -1.02,1.53 c 0,0 -0.1,0.16 -0.07,0.15 -0.02,0.05 -0.05,0.14 -0.09,0.28 0.1,0.17 0.19,-0.36 0.14,-0.35 0.01,-0.04 0.02,-0.07 0.02,-0.07 z m -0.07,0.49 c -0.02,0 -0.1,0.16 -0.26,0.6 0.05,0.31 0.32,-0.63 0.26,-0.6 z m -0.42,0.68 c -0.04,-0.03 -0.52,0.89 -0.14,0.44 0.12,-0.31 0.15,-0.42 0.14,-0.44 z m 0.01,0.17 c -0.17,0.47 -0.15,0.61 0,0 z m 0.06,0.25 c 0,0 -0.05,0.15 -0.2,0.6 l -0.01,0.02 c 0,0.09 0.22,-0.62 0.21,-0.62 z m -0.3,0.39 c 0,0 0,0.01 -0.02,0.05 0.01,-0.03 0.02,-0.05 0.02,-0.05 z m -0.71,1.12 -0.06,0.04 c 0.01,0 0.02,0 0.05,0 0.03,-0.02 0.02,-0.02 0.01,-0.02 z m 0.65,0.07 c -0.02,0 -0.07,0.03 -0.06,0.06 0.09,-0.05 0.09,-0.07 0.06,-0.06 z m -0.56,0.15 c -0.45,0.93 0.07,0.4 0,0 z M 5.88,38.67 c 0,0 -0.01,0.02 -0.03,0.09 l 0.02,-0.04 c 0,-0.01 0,-0.05 0,-0.05 z m -0.03,0.09 c 0,0.04 0.01,0.03 0.02,0.01 z m 40.02,-0.08 c -0.04,0 -0.15,0.13 -0.32,0.47 0.27,0.03 0.42,-0.49 0.32,-0.47 z m -0.1,0.38 c -0.18,0.32 -0.38,0.84 0,0 z m 0.63,0.01 c -0.07,-0.01 -1.45,1.45 -0.48,0.64 0.09,-0.1 0.16,-0.2 0.23,-0.28 0,0.03 0,0.05 0.05,-0.05 0,0 0,0 0,0 0.16,-0.21 0.23,-0.3 0.21,-0.31 z m -0.79,0.51 c -0.03,0 -0.2,0.19 -0.29,0.46 0.25,-0.32 0.31,-0.46 0.29,-0.46 z m -0.32,0.5 c -0.01,0 -0.06,0.07 -0.09,0.19 0.09,-0.13 0.11,-0.19 0.09,-0.19 z m -0.23,0.13 c -0.78,0.5 -0.02,0.21 0,0 z m -0.1,0.15 c -0.24,0.15 -0.45,0.79 0,0 z m -0.33,0.03 c -0.02,0.02 -0.4,0.85 -0.13,0.31 0.1,-0.24 0.14,-0.32 0.13,-0.31 z m -0.43,0.97 c 0,0 -0.02,0.01 -0.07,0.04 -0.49,0.72 0.13,-0.02 0.07,-0.04 z m 0.15,0.21 c -0.84,0.89 -0.21,0.68 0,0 z m -0.31,0.05 c 0,-0.01 -0.43,0.49 -0.35,0.45 0.26,-0.32 0.35,-0.44 0.35,-0.45 z m -0.38,0.05 C 43.35,41.65 42.75,43 43.71,41.69 43.7,41.68 43.68,41.67 43.66,41.67 Z m -0.07,0.42 c -0.01,0 -0.04,0.02 -0.1,0.06 -1.42,1.63 0.25,-0.08 0.1,-0.06 z M 7.37,42.75 c 1.06,1.2 0.92,0.07 0,0 z m 35.41,0 -0.06,0.09 c 0.04,-0.06 0.06,-0.09 0.06,-0.09 z m 0.13,0.28 c 0,-0.01 -0.07,0.03 -0.23,0.19 0.07,-0.38 -0.03,-0.09 -0.86,0.72 0.24,-0.21 0.48,-0.45 0.71,-0.69 -0.63,1.05 0.42,-0.16 0.38,-0.22 z m -34.9,0.32 c 0,0 0,0 0,0.01 0.05,0.05 0,-0.01 0,-0.01 z m 34.25,0.02 c 0,0 -0.02,0.01 -0.08,0.06 0.05,-0.04 0.08,-0.06 0.08,-0.06 z m -0.52,0.6 c -0.05,-0.04 -1.64,1.39 -0.44,0.41 l 0.41,-0.35 -0.04,0.06 c 0.06,-0.07 0.08,-0.11 0.08,-0.11 z m 0.53,0.17 c -0.03,0 -0.53,0.43 -0.16,0.2 0.13,-0.14 0.17,-0.19 0.16,-0.2 z m -1.53,0.55 c -0.08,0 -0.44,0.7 0,0.13 0.02,-0.09 0.02,-0.13 0,-0.13 z m 0.48,0.01 c -0.12,0 -0.36,0.14 -0.69,0.51 1.96,-1.35 -1.65,1.59 -0.07,0.6 l 0.06,-0.02 c 0.76,-0.43 0.99,-1.1 0.7,-1.09 z m -0.35,0.04 c 0,0 -0.01,0.01 -0.02,0.04 0.05,0.02 0.05,-0.05 0.02,-0.04 z m -1.05,0.67 c -0.08,-0.02 -0.27,0.42 0.03,0.1 0,-0.06 -0.01,-0.09 -0.03,-0.1 z m -0.11,0.61 c -0.03,-0.01 -0.32,0.1 -0.32,0.2 0.27,-0.13 0.34,-0.19 0.32,-0.2 z m -26.62,0.21 c -0.1,-0.01 0.03,0.26 0.47,0.45 -0.24,-0.31 -0.41,-0.43 -0.47,-0.45 z m 26.09,0.05 c -0.09,0 -0.28,0.1 -0.5,0.35 0.57,-0.14 0.66,-0.37 0.5,-0.35 z m -1.09,0.32 -0.43,0.28 0.42,-0.2 -0.05,-0.01 z m 0.89,0.08 c -0.22,0.02 -0.32,0.38 0.1,0.01 -0.03,-0.01 -0.06,-0.01 -0.1,-0.01 z m -26.53,0.48 0.02,0.1 c 0.8,0.54 1.11,0.37 -0.02,-0.1 z m 25.97,0 c -0.52,0.25 -0.67,0.37 0,0 z M 13,47.39 c 0.07,0.03 0.07,0.03 0,0 z m 24.15,0.21 c -0.02,0.02 -0.02,0.02 0,0 z m -0.89,0.04 c 0,0 -0.01,0 -0.04,0.02 0.02,-0.01 0.04,-0.02 0.04,-0.02 z m 1.01,0.02 c 0,0 -0.03,0.01 -0.1,0.06 0.06,-0.04 0.1,-0.06 0.1,-0.06 z m -0.99,0 c -0.09,0.03 -0.09,0.03 0,0 z m 0.88,0.05 c -0.02,5e-5 -0.2,0.08 -0.66,0.34 0.31,-0.1 0.7,-0.34 0.66,-0.34 z m -1.2,0.05 c 0,0 0,0 -0.02,0.01 0.01,0 0.02,-0.01 0.02,-0.01 z m -0.55,0.23 c -0.02,-0.04 -0.97,0.62 -0.15,0.16 0.12,-0.1 0.16,-0.15 0.15,-0.16 z m -1.87,0.85 c -0.13,0.09 -0.53,0.06 0,0 z m -4.3,1.03 c -1.31,-0.01 -0.85,0.16 0,0 z m -0.82,0.02 c -0.06,0 -0.34,0.01 -0.91,0.09 0.57,0 1.02,-0.08 0.91,-0.09 z m 3.86,0 c -0.32,0.01 -0.04,0.25 0.17,0.01 -0.07,0 -0.13,-0.01 -0.17,-0.01 z m -6.12,0.03 c 0,0 0.01,0.02 0.06,0.07 0.1,0.05 -0.05,-0.09 -0.06,-0.07 z m -5.26,0.03 c -0.02,0 -0.07,0.04 -0.12,0.15 0.21,0.12 0.21,-0.17 0.12,-0.15 z m 9.57,0.11 c -0.6,0.07 -1.03,0.35 0,0 z m 0.26,0.29 c -0.03,0 -0.07,0 -0.12,0.01 -1.2,0.37 0.62,-0.03 0.12,-0.01 z m -9.12,0.34 c 0,0 0.02,0 0.08,0.02 -0.05,-0.01 -0.08,-0.02 -0.08,-0.02 z"
       id="jagged_face"
       inkscape:connector-curvature="0"
       sodipodi:nodetypes="ccccccccccccccccccccccccccccccccccccccccccccccccccccccccccccccccccccccccccccccccccccccccccccccccccccccccccccccccccccccccccccccccccccccccccccccccccccccccccccccccccccccccccccccccccccccccccccccccccccccccccccccccccccccccccccccccccccccccccccccccccccccccccccccccccccccccccccccccccccccccccccccccczccccccczccccccccccccccccccccccccccccscs"
       inkscape:label="#path5494-3" />
    <path
       style="color:#000000;font-style:normal;font-variant:normal;font-weight:normal;font-stretch:normal;font-size:medium;line-height:normal;font-family:sans-serif;font-variant-ligatures:normal;font-variant-position:normal;font-variant-caps:normal;font-variant-numeric:normal;font-variant-alternates:normal;font-feature-settings:normal;text-indent:0;text-align:start;text-decoration:none;text-decoration-line:none;text-decoration-style:solid;text-decoration-color:#000000;letter-spacing:normal;word-spacing:normal;text-transform:none;writing-mode:lr-tb;direction:ltr;text-orientation:mixed;dominant-baseline:auto;baseline-shift:baseline;text-anchor:start;white-space:normal;shape-padding:0;clip-rule:nonzero;display:inline;overflow:visible;visibility:visible;opacity:1;isolation:auto;mix-blend-mode:normal;color-interpolation:sRGB;color-interpolation-filters:linearRGB;solid-color:#000000;solid-opacity:1;vector-effect:none;fill:#0a0000;fill-opacity:0.27;fill-rule:nonzero;stroke:none;stroke-width:1.58;stroke-linecap:butt;stroke-linejoin:miter;stroke-miterlimit:4;stroke-dasharray:none;stroke-dashoffset:0;stroke-opacity:1;filter:url(#filter2235);color-rendering:auto;image-rendering:auto;shape-rendering:auto;text-rendering:auto;enable-background:accumulate"
       d="M 25.65,2.03 C 24.09,2.21 22.38,2.17 20.8,2.81 19.17,3.08 17.42,3.45 15.97,4.34 13.95,4.84 12.26,6.1 10.71,7.39 9.4,8.29 8.3,9.46 7.55,10.11 6.65,11.35 5.72,12.7 4.98,13.93 4.5,14.85 4.13,15.87 3.56,16.66 c -0.4,0.9 -1.13,2.22 -1.18,2.81 -0.31,1.85 -0.92,4.04 -0.7,6.2 -0.15,1.61 0.01,3.57 0.29,4.92 0.09,1.27 0.33,2.58 0.94,3.8 0.21,0.99 0.84,2.52 1.15,2.95 0.66,1.39 2.43,3.65 2.63,4.43 0.51,0.77 1.53,1.6 2.22,2.41 0.93,0.67 1.71,1.36 2.87,2.34 0.7,0.09 0.47,0.88 1.32,1.03 0.61,0.32 1.28,0.59 2.14,1.25 0.85,0.58 2.45,0.54 2.8,0.97 1.21,1.11 2.98,-0.25 3.58,0.88 1.58,0.09 3.74,-0.02 5.56,0.02 1.38,-0.22 3.45,0.49 4.09,-0.84 1.22,0.43 2.88,-0.69 4.22,-1.06 0.88,-0.57 1.45,-0.93 2.41,-1.34 0.44,-0.41 1.8,-0.78 1.89,-1.39 1.4,-0.13 1.76,-1.49 2.79,-2.06 0.01,-1.4 2.14,-1.72 1.9,-2.89 0.26,-0.46 1,-0.93 0.42,-1.12 0.14,-0.16 0.54,0.54 1.19,-0.33 0.29,-0.71 1.67,-1.89 0.49,-2.21 -0.24,0.03 1.28,-0.24 0.9,-1.23 0.43,-0.7 0.32,-1.6 0.81,-2.31 0.92,0.29 1.29,-3.69 -0.14,-2.31 -0.01,0.02 -0.02,0.04 -0.04,0.07 a 22.47,22.47 0 0 1 -0.26,1.05 c 0,0.64 0.23,1.18 0,1.35 -0.18,0.01 -0.33,0.07 -0.47,0.15 A 22.47,22.47 0 0 1 26.2,49.26 22.47,22.47 0 0 1 3.78,26.85 22.47,22.47 0 0 1 26.26,4.37 22.47,22.47 0 0 1 45.87,15.92 c 1.08,0.65 1.4,3.21 2.02,4.43 0.23,0.53 0.3,1.27 0.35,1.97 a 22.47,22.47 0 0 1 0.27,1.7 c 0.02,0.05 0.06,0.1 0.09,0.13 0.04,0.24 0.03,0.51 0.01,0.79 a 22.47,22.47 0 0 1 0.09,1.87 22.47,22.47 0 0 1 -0.01,0.22 c 0.06,0.1 0.15,0.2 0.27,0.29 1.27,-0.56 0.98,-2.56 1.2,-3.84 -0.39,-2.46 -0.88,-4.79 -2,-7.12 C 47.42,15.14 46.85,13.5 46.1,12.65 45.59,13.7 45.16,12.86 46.08,12.48 44.72,10.82 43.15,8.89 41.44,7.84 39.95,6.65 38.43,5.43 36.57,4.86 35.2,3.61 33.71,3.76 32.12,3.05 30.05,2.28 27.8,2.35 25.63,2.04 Z"
       id="path2160"
       inkscape:connector-curvature="0" />
    <path
       inkscape:connector-curvature="0"
       id="path34-6"
       style="fill:none;stroke:#231f20;stroke-width:0.34;stroke-linecap:butt;stroke-linejoin:miter;stroke-miterlimit:10;stroke-dasharray:none;stroke-opacity:1"
       d="m 45.94,38.36 c 2,-3.46 3.15,-7.49 3.15,-11.79 0,-4.29 -1.14,-8.32 -3.15,-11.79 C 41.87,7.74 34.25,3 25.52,3 16.79,3 9.17,7.73 5.1,14.78 c -2,3.46 -3.15,7.49 -3.15,11.79 0,4.29 1.14,8.32 3.15,11.79 4.07,7.04 11.69,11.78 20.42,11.78 8.73,0 16.35,-4.73 20.42,-11.78 z" />
    <path
       inkscape:connector-curvature="0"
       id="hand"
       style="fill:none;stroke:#231f20;stroke-width:0.34;stroke-linecap:butt;stroke-linejoin:miter;stroke-miterlimit:10;stroke-dasharray:none;stroke-opacity:1"
       d="M 25.51,26.56 V 2.98"
       inkscape:transform-center-x="-0.05"
       inkscape:transform-center-y="-11.64" />
    <path
       inkscape:connector-curvature="0"
       style="opacity:1;fill:#0a0000;fill-opacity:0.4;stroke:none;stroke-width:1.06;stroke-linejoin:miter;stroke-miterlimit:4;stroke-dasharray:none;stroke-dashoffset:0;stroke-opacity:1"
       d="M 25.20,3.03 A 23.38,23.38 0 0 0 13.99,6.05 l 11.21,19.42 z"
       id="pie12"
       inkscape:label="#path861" />
    <path
       inkscape:connector-curvature="0"
       style="opacity:1;fill:#0a0000;fill-opacity:0.4;stroke:none;stroke-width:1.06;stroke-linejoin:miter;stroke-miterlimit:4;stroke-dasharray:none;stroke-dashoffset:0;stroke-opacity:1"
       d="M 25.70,3.03 V 25.48 L 36.93,6.04 A 23.38,23.38 0 0 0 25.70,3.03 Z"
       id="pie1"
       inkscape:label="#path859" />
    <path
       inkscape:connector-curvature="0"
       style="opacity:1;fill:#0a0000;fill-opacity:0.4;stroke:none;stroke-width:1.06;stroke-linejoin:miter;stroke-miterlimit:4;stroke-dasharray:none;stroke-dashoffset:0;stroke-opacity:1"
       d="M 37.35,6.30 26.14,25.72 45.56,14.51 A 23.38,23.38 0 0 0 37.35,6.30 Z"
       id="pie2"
       inkscape:label="#path857" />
    <path
       inkscape:connector-curvature="0"
       style="opacity:1;fill:#0a0000;fill-opacity:0.4;stroke:none;stroke-width:1.06;stroke-linejoin:miter;stroke-miterlimit:4;stroke-dasharray:none;stroke-dashoffset:0;stroke-opacity:1"
       d="M 13.56,6.30 A 23.38,23.38 0 0 0 5.35,14.51 L 24.77,25.72 Z"
       id="pie11"
       inkscape:label="#path855" />
    <path
       inkscape:connector-curvature="0"
       style="opacity:1;fill:#0a0000;fill-opacity:0.4;stroke:none;stroke-width:1.06;stroke-linejoin:miter;stroke-miterlimit:4;stroke-dasharray:none;stroke-dashoffset:0;stroke-opacity:1"
       d="M 5.09,14.93 A 23.38,23.38 0 0 0 2.08,26.16 H 24.52 Z"
       id="pie10"
       inkscape:label="#path853" />
    <path
       inkscape:connector-curvature="0"
       style="opacity:1;fill:#0a0000;fill-opacity:0.4;stroke:none;stroke-width:1.06;stroke-linejoin:miter;stroke-miterlimit:4;stroke-dasharray:none;stroke-dashoffset:0;stroke-opacity:1"
       d="M 45.81,14.94 26.38,26.16 H 48.83 A 23.38,23.38 0 0 0 45.81,14.94 Z"
       id="pie3"
       inkscape:label="#path851" />
    <path
       inkscape:connector-curvature="0"
       style="opacity:1;fill:#0a0000;fill-opacity:0.4;stroke:none;stroke-width:1.06;stroke-linejoin:miter;stroke-miterlimit:4;stroke-dasharray:none;stroke-dashoffset:0;stroke-opacity:1"
       d="M 2.08,26.66 A 23.38,23.38 0 0 0 5.10,37.87 L 24.52,26.66 Z"
       id="pie9"
       inkscape:label="#path849" />
    <path
       inkscape:connector-curvature="0"
       style="opacity:1;fill:#0a0000;fill-opacity:0.4;stroke:none;stroke-width:1.06;stroke-linejoin:miter;stroke-miterlimit:4;stroke-dasharray:none;stroke-dashoffset:0;stroke-opacity:1"
       d="m 26.39,26.66 19.43,11.21 a 23.38,23.38 0 0 0 3.00,-11.21 z"
       id="pie4"
       inkscape:label="#path847" />
    <path
       inkscape:connector-curvature="0"
       style="opacity:1;fill:#0a0000;fill-opacity:0.4;stroke:none;stroke-width:1.06;stroke-linejoin:miter;stroke-miterlimit:4;stroke-dasharray:none;stroke-dashoffset:0;stroke-opacity:1"
       d="M 24.77,27.09 5.35,38.30 a 23.38,23.38 0 0 0 8.20,8.20 z"
       id="pie8"
       inkscape:label="#path845" />
    <path
       inkscape:connector-curvature="0"
       style="opacity:1;fill:#0a0000;fill-opacity:0.4;stroke:none;stroke-width:1.06;stroke-linejoin:miter;stroke-miterlimit:4;stroke-dasharray:none;stroke-dashoffset:0;stroke-opacity:1"
       d="m 26.14,27.09 11.21,19.42 a 23.38,23.38 0 0 0 8.20,-8.20 z"
       id="pie5"
       inkscape:label="#path843" />
    <path
       inkscape:connector-curvature="0"
       style="opacity:1;fill:#0a0000;fill-opacity:0.4;stroke:none;stroke-width:1.06;stroke-linejoin:miter;stroke-miterlimit:4;stroke-dasharray:none;stroke-dashoffset:0;stroke-opacity:1"
       d="m 25.70,27.34 v 22.44 a 23.38,23.38 0 0 0 11.21,-3.02 z"
       id="pie6"
       inkscape:label="#path841" />
    <path
       inkscape:connector-curvature="0"
       style="opacity:1;fill:#0a0000;fill-opacity:0.4;stroke:none;stroke-width:1.06;stroke-linejoin:miter;stroke-miterlimit:4;stroke-dasharray:none;stroke-dashoffset:0;stroke-opacity:1"
       d="M 25.20,27.34 13.98,46.77 a 23.38,23.38 0 0 0 11.22,3.00 z"
       id="pie7"
       inkscape:label="#circle889" />
    <path
       style="fill:#231f20;fill-opacity:1;fill-rule:nonzero;stroke:none;stroke-width:0.34"
       d="m 25.12,3.51 c -0.03,0 0.21,0.18 0.03,0.00 -0.01,0 -0.02,-0.00 -0.03,-0.00 z m 0,0.17 c -0.03,0 -0.04,0.10 0.03,0.36 0.15,-0.13 0.02,-0.37 -0.03,-0.36 z m 0.18,0.28 c -0.01,0 -0.02,0.03 0,0.10 0.08,-0.04 0.02,-0.11 0,-0.10 z m -0.25,0.50 c -0.01,-0.00 -0.01,-0.00 -0.01,0.00 0,0.02 0.15,0.14 0.17,0.12 -0.06,-0.07 -0.12,-0.11 -0.15,-0.12 z m 0.00,0.33 c 0.13,0.15 0.3,0.03 0,0 z m 0.33,0.09 c -0.00,-0.00 -0.01,-0.00 -0.01,0.00 -0.09,0.02 -0.39,0.31 0,0.09 0.03,-0.06 0.03,-0.08 0.01,-0.09 z m -0.21,0.46 c 0,0.29 0.22,0 0,0 z m -0.11,0.56 c -0.13,0 0.10,0.33 0.45,0.28 -0.24,-0.21 -0.39,-0.28 -0.45,-0.28 z m 0.14,0.39 c -0.02,0 -0.06,0.03 0,0.05 0.02,-0.03 0.01,-0.05 0,-0.05 z m -0.04,0.06 c -0.02,0 -0.03,0.02 -0.01,0.06 -0.13,-0.08 -0.23,0.0 -0.25,0.14 0,-0.02 0.0,-0.05 -0.04,-0.02 -0.02,0.14 0.03,0.07 0.04,0.02 -0.02,0.14 0.03,0.35 0.24,0.48 -0.36,0.03 -0.18,0.55 -0.16,1.01 l -0.01,-0.00 c -0.04,0.04 -0.06,0.08 -0.07,0.10 -0.00,0.0 -0.00,-0.00 -0.00,-0.00 -0.03,0 -0.06,0.06 0,0.14 0.03,-0.06 0.03,-0.09 0.03,-0.12 0.02,-0.00 0.05,-0.03 0.05,-0.05 0,0.15 -0.02,0.31 -0.10,0.42 -0.2,0.90 0.36,1.30 0.05,2.12 0.03,0.05 0.27,0.67 0.25,0.87 -0.04,0.18 -0.01,1.37 -0.22,1.80 0.02,0.18 0.27,0.56 0.29,1.24 0.16,0.53 -0.26,0.81 -0.38,1.01 0.30,0.60 0.25,1.18 0.19,1.89 0.33,0.34 -0.56,1.79 0.36,1.76 -0.59,0.25 -0.23,1.59 -0.39,1.62 -0.06,0.1 -0.03,0.19 0,0.33 0.02,-0.04 0.04,0.04 0,0.01 0.06,0.19 0.13,0.45 0.03,0.86 0.3,0.6 -0.29,0.91 0.05,1.65 -0.06,0.26 -0.11,0.70 -0.11,1.15 -0.06,-0.08 -0.11,-0.15 -0.13,-0.17 -0.32,-0.71 -0.11,-0.86 -0.94,-1.61 -0.29,-0.39 -0.52,-1.04 -0.58,-0.94 0.03,-0.53 -0.57,-0.66 -0.42,-0.77 0.01,0.0 0.01,-0.0 0.01,-0.00 0.01,-0.01 0.03,-0.01 0.06,-0.02 0.06,0.17 -0.01,-0.67 -0.30,-0.49 0.39,-0.50 -0.56,-0.47 -0.29,-0.69 -0.29,-0.43 -0.22,-0.40 -0.33,-0.75 0.03,-0.07 -0.09,-0.28 -0.24,-0.50 l -0.0,-10e-4 c -0.18,-0.28 -0.41,-0.58 -0.34,-0.62 -0.15,0.17 -0.37,-0.43 -0.16,-0.13 0.46,-0.23 -0.54,-0.36 -0.53,-0.80 -0.50,-0.06 0.32,-0.67 -0.23,-0.48 0.18,0.06 -0.07,0.12 -0.02,0.00 0,0 -0.0,0 -0.0,0 0.02,-0.39 -0.30,-0.63 -0.59,-0.84 -0.00,-0.43 -0.54,-0.57 -0.75,-0.61 0.00,-0.00 0.01,-0.01 0.01,-0.01 0.92,-0.16 -0.98,-0.98 0.11,-0.62 -0.51,-0.47 -0.26,-0.27 -0.79,-1.01 -0.13,-0.16 -0.67,0.04 -0.10,-0.45 -0.17,-0.01 -0.46,-0.40 -0.49,-0.79 -2.07,0.13 0.93,-0.30 -0.17,-0.39 -0.40,0.51 0.18,-1.20 -0.91,-0.17 1.03,-0.85 -0.45,-0.49 -0.28,-1.43 -0.04,0.01 -0.15,0.00 -0.27,-10e-4 0.01,-0.04 0.00,-0.11 -0.07,-0.05 l 0.02,0.04 c -0.25,-0.04 -0.51,-0.18 -0.25,-0.53 0.47,0.36 -0.59,-0.60 -0.54,-0.64 -0.01,-0.01 -0.04,-0.01 -0.06,-0.01 0.06,-0.09 -0.03,-0.09 -0.06,-0.06 l -0.04,-0.06 c -0.01,0.01 -0.01,0.03 0.02,0.05 -0.15,-0.00 -0.19,0.11 -0.14,0.24 -0.01,-0.01 -0.02,-0.04 -0.05,0.00 0.05,0.13 0.07,0.04 0.05,0.00 0.05,0.13 0.20,0.29 0.45,0.30 -0.30,0.21 0.11,0.57 0.36,0.96 l -0.01,-0.00 c -0.01,0.06 -0.01,0.09 -0.01,0.12 -0.00,0.00 -0.00,10e-4 -0.00,0.00 -0.02,0.01 -0.02,0.08 0.07,0.12 -0.00,-0.06 -0.01,-0.10 -0.03,-0.11 0.01,-0.02 0.02,-0.05 0.02,-0.07 0.08,0.13 0.13,0.27 0.12,0.41 0.27,0.87 0.97,0.94 1.11,1.80 0.05,0.02 0.57,0.45 0.65,0.63 0.05,0.17 0.68,1.20 0.71,1.67 0.10,0.14 0.51,0.35 0.87,0.93 0.40,0.37 0.17,0.83 0.17,1.06 0.57,0.37 0.80,0.89 1.10,1.54 0.45,0.12 0.40,1.84 1.19,1.35 -0.38,0.51 0.59,1.49 0.47,1.59 -0.00,0.11 0.07,0.18 0.16,0.29 -0.00,-0.04 0.05,0.02 0.00,0.01 0.14,0.13 0.34,0.31 0.46,0.72 0.55,0.36 0.20,0.94 0.88,1.40 0.07,0.26 0.25,0.66 0.47,1.05 -0.09,-0.04 -0.17,-0.07 -0.19,-0.08 -0.64,-0.45 -0.53,-0.69 -1.62,-0.92 -0.45,-0.19 -0.97,-0.64 -0.98,-0.52 -0.24,-0.48 -0.83,-0.29 -0.75,-0.45 0.01,-0.00 0.01,-0.01 0.00,-0.01 0.01,-0.01 0.01,-0.03 0.04,-0.06 0.14,0.11 -0.35,-0.57 -0.51,-0.27 0.09,-0.63 -0.72,-0.12 -0.60,-0.45 -0.47,-0.23 -0.39,-0.23 -0.66,-0.48 -0.00,-0.08 -0.22,-0.20 -0.46,-0.31 l -10e-4,-0.0 c -0.30,-0.15 -0.64,-0.29 -0.60,-0.36 -0.04,0.22 -0.54,-0.19 -0.21,-0.03 0.28,-0.43 -0.65,-0.04 -0.86,-0.42 -0.46,0.19 -0.05,-0.74 -0.45,-0.30 0.19,-0.03 0.0,0.14 -0.01,0.01 -0.0,0.0 -0.0,0.0 -10e-4,10e-4 -0.17,-0.35 -0.58,-0.39 -0.93,-0.43 -0.22,-0.37 -0.76,-0.22 -0.96,-0.15 0.00,-0.00 10e-4,-0.02 10e-4,-0.02 0.71,-0.60 -1.34,-0.35 -0.21,-0.59 -0.68,-0.15 -0.36,-0.10 -1.19,-0.48 -0.19,-0.07 -0.56,0.37 -0.31,-0.34 -0.15,0.07 -0.60,-0.11 -0.82,-0.44 -1.72,1.15 0.65,-0.73 -0.34,-0.25 -0.09,0.64 -0.44,-1.13 -0.88,0.31 0.46,-1.25 -0.64,-0.20 -0.96,-1.10 -0.03,0.03 -0.13,0.08 -0.24,0.13 -0.01,-0.04 -0.05,-0.10 -0.09,-0.01 l 0.04,0.02 c -0.24,0.08 -0.53,0.09 -0.48,-0.33 0.59,0.07 -0.81,-0.22 -0.79,-0.28 -0.02,-0.00 -0.04,0.00 -0.06,0.01 0.00,-0.11 -0.07,-0.06 -0.08,-0.02 l -0.07,-0.03 c -0.01,0.01 0.00,0.03 0.04,0.03 -0.13,0.07 -0.11,0.19 -0.00,0.28 -0.01,-0.01 -0.04,-0.02 -0.04,0.03 0.11,0.08 0.08,0.00 0.05,-0.02 0.11,0.09 0.32,0.15 0.54,0.03 -0.15,0.33 0.39,0.44 0.79,0.65 l -0.01,0.00 c 0.01,0.06 0.03,0.09 0.04,0.11 -0.0,0.00 -0.00,0.00 -0.00,0.00 -0.01,0.02 0.02,0.08 0.12,0.07 -0.03,-0.06 -0.06,-0.08 -0.08,-0.08 0.00,-0.02 -0.00,-0.05 -0.02,-0.07 0.13,0.08 0.25,0.17 0.31,0.29 0.67,0.62 1.31,0.32 1.86,1.00 0.05,-0.0 0.72,0.10 0.88,0.22 0.13,0.12 1.19,0.69 1.45,1.09 0.16,0.07 0.62,0.05 1.22,0.37 0.53,0.12 0.57,0.63 0.68,0.83 0.68,0.03 1.14,0.37 1.73,0.78 0.45,-0.11 1.27,1.39 1.71,0.57 -0.07,0.63 1.26,0.99 1.20,1.14 0.05,0.10 0.15,0.12 0.29,0.16 -0.02,-0.03 0.06,-0.00 0.01,0.01 0.19,0.04 0.45,0.10 0.76,0.39 0.66,0.04 0.65,0.71 1.46,0.77 0.19,0.18 0.55,0.45 0.93,0.67 -0.10,0.00 -0.19,0.01 -0.21,0.02 -0.77,-0.07 -0.80,-0.33 -1.86,0.00 -0.49,0.05 -1.16,-0.06 -1.10,0.04 -0.44,-0.29 -0.86,0.16 -0.87,-0.02 0.00,-0.00 0.00,-0.01 0.00,-0.01 0.0,-0.02 -0.0,-0.03 0.00,-0.07 0.18,0.03 -0.58,-0.31 -0.57,0.02 -0.23,-0.60 -0.69,0.24 -0.75,-0.09 -0.52,0.04 -0.45,-0.00 -0.82,-0.08 -0.04,-0.07 -0.29,-0.05 -0.55,-0.03 h -10e-4 c -0.34,0.01 -0.71,0.06 -0.71,-0.01 0.07,0.21 -0.56,0.11 -0.19,0.08 0.03,-0.51 -0.58,0.28 -0.96,0.05 -0.30,0.40 -0.42,-0.61 -0.54,-0.03 0.14,-0.12 0.07,0.12 -0.00,0.02 -0.0,0.0 0.0,0.0 0,10e-4 -0.33,-0.21 -0.69,-0.05 -1.02,0.08 -0.37,-0.21 -0.76,0.19 -0.90,0.35 -0.0,-0.01 -0.01,-0.02 -0.01,-0.02 0.31,-0.88 -1.34,0.35 -0.48,-0.41 -0.67,0.20 -0.37,0.08 -1.28,0.17 -0.20,0.03 -0.30,0.61 -0.45,-0.14 -0.10,0.13 -0.57,0.19 -0.93,0.02 -0.91,1.85 0.20,-0.95 -0.42,-0.04 0.23,0.61 -0.95,-0.76 -0.61,0.70 -0.21,-1.31 -0.65,0.14 -1.38,-0.47 -0.01,0.04 -0.07,0.13 -0.13,0.24 -0.03,-0.02 -0.10,-0.06 -0.08,0.03 h 0.04 c -0.16,0.19 -0.41,0.34 -0.58,-0.05 0.54,-0.22 -0.82,0.21 -0.83,0.15 -0.02,0.00 -0.03,0.03 -0.04,0.05 -0.04,-0.10 -0.10,-0.01 -0.08,0.01 l -0.08,0.00 c -0.0,0.01 0.02,0.02 0.06,0.00 -0.07,0.13 -0.0,0.22 0.13,0.25 -0.02,3e-6 -0.05,-0.0 -0.01,0.05 0.14,0.02 0.07,-0.04 0.02,-0.04 0.14,0.01 0.35,-0.03 0.48,-0.24 0.03,0.37 0.56,0.19 1.02,0.16 l -0.00,0.01 c 0.04,0.04 0.07,0.06 0.09,0.07 0.0,0.00 -0.00,0.00 -0.0,0.00 0.0,0.03 0.06,0.06 0.14,0.0 -0.06,-0.03 -0.09,-0.03 -0.12,-0.03 -0.01,-0.02 -0.03,-0.04 -0.05,-0.05 0.16,3e-6 0.31,0.02 0.42,0.10 0.89,0.20 1.29,-0.36 2.11,-0.05 0.05,-0.02 0.68,-0.27 0.88,-0.25 0.17,0.03 1.38,0.01 1.80,0.22 0.18,-0.01 0.56,-0.26 1.24,-0.28 0.52,-0.16 0.80,0.25 1.00,0.37 0.60,-0.31 1.18,-0.25 1.89,-0.19 0.33,-0.33 1.80,0.57 1.77,-0.35 0.25,0.59 1.58,0.22 1.61,0.38 0.09,0.06 0.19,0.02 0.33,0 -0.04,-0.02 0.05,-0.04 0.02,0 0.18,-0.06 0.45,-0.13 0.86,-0.03 0.59,-0.29 0.91,0.29 1.65,-0.05 0.26,0.06 0.70,0.11 1.15,0.11 -0.08,0.06 -0.15,0.11 -0.17,0.13 -0.71,0.32 -0.86,0.11 -1.61,0.94 -0.39,0.29 -1.04,0.52 -0.94,0.58 -0.53,-0.03 -0.66,0.57 -0.77,0.42 0.0,-0.01 -0.0,-0.01 -0.00,-0.01 -0.01,-0.01 -0.02,-0.03 -0.03,-0.06 0.17,-0.06 -0.67,0.01 -0.49,0.30 -0.50,-0.39 -0.47,0.56 -0.69,0.29 -0.43,0.29 -0.40,0.22 -0.75,0.33 -0.07,-0.03 -0.28,0.09 -0.50,0.24 l -0.00,0.0 c -0.28,0.18 -0.57,0.41 -0.61,0.34 0.17,0.15 -0.43,0.38 -0.13,0.16 -0.23,-0.46 -0.36,0.54 -0.80,0.53 -0.06,0.50 -0.67,-0.32 -0.48,0.23 0.06,-0.18 0.13,0.07 0.00,0.02 0.0,0.0 0.0,0.0 0.0,0.00 -0.39,-0.02 -0.63,0.30 -0.84,0.59 -0.43,0.00 -0.57,0.54 -0.61,0.75 -0.00,-0.00 -0.01,-0.01 -0.01,-0.01 -0.16,-0.92 -0.98,0.98 -0.62,-0.11 -0.47,0.51 -0.27,0.26 -1.01,0.79 -0.16,0.13 0.04,0.67 -0.45,0.10 -0.01,0.17 -0.40,0.46 -0.79,0.49 0.13,2.07 -0.30,-0.93 -0.39,0.17 0.51,0.40 -1.20,-0.18 -0.17,0.92 -0.85,-1.03 -0.49,0.45 -1.43,0.28 0.01,0.04 0.00,0.15 -10e-4,0.27 -0.04,-0.01 -0.11,-0.00 -0.05,0.07 l 0.04,-0.02 c -0.04,0.25 -0.18,0.51 -0.53,0.25 0.36,-0.47 -0.60,0.59 -0.64,0.54 -0.01,0.01 -0.01,0.04 -0.01,0.06 -0.09,-0.06 -0.09,0.03 -0.06,0.06 l -0.06,0.04 c 0.01,0.01 0.03,0.01 0.05,-0.02 -0.00,0.15 0.11,0.19 0.24,0.14 -0.01,0.01 -0.04,0.02 0.00,0.05 0.13,-0.05 0.04,-0.07 10e-4,-0.05 0.13,-0.05 0.29,-0.20 0.30,-0.45 0.21,0.30 0.57,-0.11 0.96,-0.36 l -0.00,0.01 c 0.06,0.01 0.10,0.01 0.12,0.01 10e-4,0.00 0.0,0.00 0.00,0.00 0.01,0.02 0.08,0.02 0.12,-0.07 -0.07,0.00 -0.10,0.01 -0.11,0.03 -0.01,-0.01 -0.05,-0.02 -0.07,-0.02 0.13,-0.08 0.27,-0.13 0.41,-0.12 0.87,-0.27 0.94,-0.97 1.80,-1.11 0.02,-0.05 0.45,-0.57 0.63,-0.65 0.17,-0.05 1.20,-0.68 1.67,-0.71 0.14,-0.10 0.35,-0.51 0.93,-0.87 0.37,-0.40 0.83,-0.17 1.06,-0.17 0.37,-0.57 0.89,-0.80 1.54,-1.10 0.12,-0.45 1.84,-0.40 1.35,-1.19 0.51,0.38 1.49,-0.59 1.59,-0.47 0.11,0.00 0.18,-0.07 0.29,-0.16 -0.04,0.00 0.02,-0.05 0.01,-0.00 0.13,-0.14 0.31,-0.34 0.72,-0.46 0.36,-0.55 0.94,-0.20 1.40,-0.88 0.26,-0.07 0.66,-0.25 1.06,-0.47 -0.04,0.09 -0.07,0.17 -0.08,0.19 -0.45,0.64 -0.69,0.53 -0.92,1.62 -0.19,0.45 -0.64,0.97 -0.52,0.98 -0.48,0.24 -0.29,0.83 -0.45,0.75 -0.00,-0.00 -0.00,-0.01 -0.01,-0.00 -0.01,-0.01 -0.03,-0.01 -0.06,-0.04 0.11,-0.14 -0.57,0.35 -0.27,0.51 -0.63,-0.09 -0.12,0.72 -0.45,0.60 -0.23,0.47 -0.23,0.39 -0.48,0.66 -0.08,0.00 -0.20,0.22 -0.31,0.46 l -0.0,10e-4 c -0.15,0.30 -0.29,0.64 -0.36,0.60 0.22,0.04 -0.19,0.54 -0.03,0.21 -0.43,-0.28 -0.04,0.65 -0.42,0.86 0.19,0.46 -0.74,0.05 -0.30,0.45 -0.03,-0.18 0.14,-0.0 0.02,0.02 0,0 0.0,0.0 0.0,0.0 -0.35,0.17 -0.39,0.58 -0.43,0.93 -0.37,0.22 -0.22,0.76 -0.15,0.96 -0.00,-0.00 -0.02,-0.00 -0.02,-0.00 -0.60,-0.71 -0.35,1.34 -0.59,0.21 -0.15,0.68 -0.10,0.36 -0.48,1.19 -0.07,0.19 0.37,0.56 -0.34,0.31 0.07,0.15 -0.11,0.60 -0.44,0.82 1.15,1.72 -0.73,-0.65 -0.25,0.34 0.64,0.09 -1.13,0.44 0.31,0.88 -1.25,-0.46 -0.20,0.64 -1.10,0.96 0.03,0.03 0.08,0.13 0.13,0.24 -0.04,0.01 -0.10,0.05 -0.01,0.09 l 0.02,-0.04 c 0.08,0.24 0.09,0.53 -0.33,0.48 0.07,-0.59 -0.22,0.81 -0.28,0.79 -0.00,0.02 0.00,0.04 0.01,0.06 -0.11,-0.00 -0.06,0.07 -0.02,0.08 l -0.03,0.07 c 0.01,0.01 0.03,-0.00 0.03,-0.04 0.07,0.13 0.19,0.11 0.28,0.00 -0.01,0.01 -0.02,0.04 0.03,0.04 0.08,-0.11 0.00,-0.08 -0.02,-0.05 0.09,-0.11 0.15,-0.32 0.03,-0.54 0.33,0.15 0.44,-0.38 0.65,-0.79 l 0.00,0.01 c 0.06,-0.01 0.09,-0.03 0.11,-0.04 0.00,0.0 0.00,0.00 0.00,0.00 0.02,0.01 0.08,-0.02 0.07,-0.12 -0.06,0.03 -0.08,0.06 -0.08,0.08 -0.02,-0.00 -0.05,0.00 -0.07,0.02 0.08,-0.13 0.17,-0.25 0.29,-0.31 0.62,-0.67 0.32,-1.31 1.00,-1.86 -0.0,-0.05 0.10,-0.72 0.22,-0.88 0.12,-0.13 0.69,-1.19 1.09,-1.45 0.07,-0.16 0.05,-0.62 0.37,-1.22 0.12,-0.53 0.63,-0.57 0.83,-0.68 0.03,-0.68 0.37,-1.14 0.78,-1.73 -0.11,-0.45 1.39,-1.27 0.57,-1.71 0.63,0.07 0.99,-1.26 1.14,-1.20 0.10,-0.05 0.12,-0.15 0.16,-0.29 -0.03,0.02 -0.01,-0.06 0.00,-0.01 0.04,-0.19 0.10,-0.46 0.39,-0.76 0.04,-0.66 0.71,-0.65 0.77,-1.46 0.18,-0.19 0.45,-0.55 0.67,-0.93 0.00,0.10 0.01,0.19 0.02,0.21 -0.07,0.78 -0.32,0.80 0.01,1.86 0.06,0.49 -0.07,1.16 0.03,1.10 -0.29,0.44 0.16,0.86 -0.02,0.87 -0.00,-0.00 -0.01,-0.00 -0.01,-0.00 -0.02,-0.0 -0.03,0.0 -0.07,-0.00 0.03,-0.18 -0.31,0.58 0.02,0.57 -0.60,0.23 0.25,0.69 -0.08,0.75 0.04,0.52 -0.00,0.45 -0.08,0.82 -0.07,0.04 -0.06,0.30 -0.04,0.56 v 10e-4 c 0.02,0.34 0.07,0.70 -0.00,0.70 0.21,-0.07 0.11,0.57 0.08,0.19 -0.51,-0.03 0.28,0.58 0.05,0.96 0.40,0.30 -0.61,0.42 -0.03,0.54 -0.12,-0.14 0.12,-0.07 0.02,0.00 0.0,0.0 0.0,-0.0 0.00,0 -0.21,0.33 -0.05,0.69 0.08,1.02 -0.21,0.37 0.18,0.77 0.34,0.91 -0.01,0.0 -0.02,0.00 -0.02,0.00 -0.88,-0.31 0.36,1.34 -0.40,0.48 0.20,0.67 0.08,0.37 0.17,1.28 0.03,0.20 0.60,0.30 -0.14,0.45 0.13,0.10 0.19,0.57 0.02,0.93 1.85,0.91 -0.96,-0.20 -0.05,0.42 0.60,-0.23 -0.76,0.95 0.70,0.61 -1.31,0.21 0.15,0.65 -0.46,1.38 0.04,0.01 0.13,0.07 0.24,0.13 -0.02,0.02 -0.06,0.10 0.03,0.08 v -0.04 c 0.19,0.16 0.34,0.41 -0.05,0.58 -0.22,-0.54 0.21,0.82 0.15,0.83 0.00,0.02 0.02,0.03 0.04,0.04 -0.10,0.04 -0.01,0.10 0.02,0.08 l 0.00,0.08 c 0.02,3e-5 0.02,-0.02 0.00,-0.06 0.13,0.07 0.22,0.0 0.25,-0.13 0.0,0.01 -0.0,0.05 0.05,0.01 0.02,-0.14 -0.04,-0.07 -0.04,-0.02 0.02,-0.14 -0.03,-0.36 -0.24,-0.49 0.37,-0.02 0.19,-0.55 0.16,-1.01 l 0.01,0.00 c 0.04,-0.04 0.06,-0.07 0.07,-0.09 0.00,-0.0 0.00,0.00 0.00,0.0 0.03,0.0 0.06,-0.05 0,-0.14 -0.03,0.06 -0.03,0.09 -0.03,0.12 -0.02,0.01 -0.04,0.03 -0.05,0.05 -0.0,-0.15 0.02,-0.31 0.10,-0.42 0.20,-0.89 -0.36,-1.30 -0.05,-2.12 -0.03,-0.05 -0.27,-0.67 -0.25,-0.87 0.04,-0.17 0.01,-1.37 0.22,-1.80 -0.02,-0.18 -0.27,-0.56 -0.29,-1.24 -0.16,-0.52 0.26,-0.81 0.38,-1.01 -0.31,-0.60 -0.25,-1.18 -0.19,-1.89 -0.33,-0.33 0.56,-1.79 -0.36,-1.76 0.59,-0.25 0.23,-1.58 0.39,-1.61 0.06,-0.09 0.02,-0.20 0,-0.33 -0.02,0.04 -0.04,-0.05 0,-0.02 -0.06,-0.18 -0.14,-0.45 -0.04,-0.86 -0.29,-0.60 0.29,-0.91 -0.05,-1.65 0.06,-0.26 0.11,-0.70 0.11,-1.15 0.06,0.08 0.11,0.15 0.13,0.17 0.32,0.71 0.11,0.86 0.94,1.61 0.29,0.39 0.52,1.04 0.58,0.94 -0.03,0.53 0.57,0.66 0.42,0.77 -0.01,-0.0 -0.01,0.0 -0.01,0.00 -0.01,0.01 -0.03,0.02 -0.06,0.03 -0.06,-0.17 0.01,0.67 0.30,0.49 -0.39,0.50 0.56,0.47 0.29,0.69 0.29,0.43 0.22,0.40 0.33,0.75 -0.03,0.07 0.09,0.29 0.24,0.50 l 0.0,0.0 c 0.18,0.28 0.41,0.58 0.34,0.62 0.15,-0.17 0.37,0.43 0.16,0.13 -0.46,0.23 0.54,0.36 0.53,0.80 0.50,0.06 -0.32,0.67 0.23,0.48 -0.18,-0.06 0.07,-0.12 0.02,-0.00 0,0 0.0,0 0.0,0 -0.02,0.39 0.30,0.63 0.59,0.84 0.00,0.43 0.54,0.57 0.75,0.61 -0.00,0.00 -0.01,0.01 -0.01,0.01 -0.92,0.16 0.98,0.98 -0.11,0.62 0.51,0.47 0.26,0.27 0.79,1.01 0.13,0.16 0.67,-0.04 0.10,0.45 0.17,0.01 0.46,0.40 0.49,0.79 2.07,-0.13 -0.93,0.30 0.17,0.39 0.40,-0.51 -0.18,1.20 0.91,0.17 -1.03,0.85 0.46,0.49 0.28,1.43 0.04,-0.01 0.15,-0.00 0.27,10e-4 -0.01,0.04 -0.00,0.11 0.07,0.05 l -0.02,-0.04 c 0.25,0.04 0.51,0.18 0.25,0.53 -0.47,-0.36 0.59,0.60 0.54,0.64 0.01,0.01 0.04,0.01 0.06,0.01 -0.06,0.09 0.03,0.09 0.06,0.06 l 0.04,0.06 c 0.01,-0.01 0.01,-0.03 -0.02,-0.05 0.15,0.00 0.19,-0.11 0.14,-0.24 0.01,0.01 0.02,0.04 0.05,-0.00 -0.05,-0.13 -0.07,-0.04 -0.05,-0.00 -0.05,-0.13 -0.20,-0.29 -0.45,-0.30 0.30,-0.21 -0.11,-0.57 -0.36,-0.96 l 0.01,0.00 c 0.01,-0.06 0.01,-0.10 0.01,-0.12 0.00,-0.00 0.00,-0.0 0.00,-0.00 0.02,-0.01 0.02,-0.08 -0.06,-0.12 0.00,0.07 0.01,0.10 0.03,0.11 -0.01,0.02 -0.02,0.05 -0.02,0.07 -0.08,-0.13 -0.13,-0.27 -0.12,-0.41 -0.27,-0.87 -0.97,-0.94 -1.11,-1.80 -0.05,-0.02 -0.57,-0.45 -0.65,-0.63 -0.05,-0.17 -0.68,-1.19 -0.71,-1.67 -0.10,-0.14 -0.51,-0.35 -0.87,-0.93 -0.40,-0.37 -0.17,-0.83 -0.17,-1.06 -0.57,-0.37 -0.80,-0.89 -1.10,-1.54 -0.45,-0.12 -0.40,-1.84 -1.19,-1.35 0.38,-0.51 -0.59,-1.49 -0.47,-1.59 0.00,-0.11 -0.07,-0.18 -0.16,-0.29 0.00,0.04 -0.05,-0.02 -0.00,-0.01 -0.14,-0.13 -0.34,-0.31 -0.46,-0.72 -0.55,-0.36 -0.20,-0.94 -0.88,-1.40 -0.07,-0.26 -0.25,-0.66 -0.47,-1.05 0.09,0.04 0.17,0.07 0.19,0.08 0.64,0.45 0.53,0.69 1.62,0.92 0.45,0.19 0.97,0.64 0.98,0.52 0.24,0.48 0.83,0.29 0.75,0.45 -0.00,0.00 -0.01,0.00 -0.00,0.00 -0.01,0.01 -0.01,0.03 -0.04,0.06 -0.14,-0.11 0.35,0.57 0.51,0.27 -0.09,0.63 0.72,0.12 0.60,0.45 0.47,0.23 0.39,0.23 0.66,0.48 0.00,0.08 0.22,0.20 0.46,0.31 l 0.0,0.0 c 0.30,0.15 0.65,0.29 0.61,0.36 0.04,-0.22 0.54,0.18 0.21,0.03 -0.28,0.43 0.65,0.04 0.86,0.42 0.46,-0.19 0.05,0.74 0.45,0.30 -0.19,0.03 -0.0,-0.14 0.01,-0.01 0,0 0.0,-0.0 0.0,-0.0 0.17,0.35 0.58,0.39 0.93,0.43 0.22,0.37 0.76,0.22 0.96,0.15 -0.00,0.00 -10e-4,0.02 -10e-4,0.02 -0.71,0.60 1.34,0.35 0.21,0.59 0.68,0.15 0.36,0.10 1.19,0.48 0.19,0.07 0.56,-0.37 0.31,0.34 0.15,-0.07 0.60,0.11 0.82,0.44 1.72,-1.15 -0.65,0.73 0.34,0.25 0.09,-0.64 0.44,1.13 0.88,-0.31 -0.46,1.25 0.64,0.20 0.96,1.10 0.03,-0.03 0.13,-0.08 0.24,-0.13 0.01,0.04 0.05,0.10 0.09,0.01 l -0.04,-0.02 c 0.24,-0.08 0.53,-0.09 0.48,0.33 -0.59,-0.07 0.81,0.22 0.79,0.28 0.02,0.00 0.04,-0.00 0.06,-0.01 -0.00,0.11 0.07,0.06 0.08,0.02 l 0.07,0.03 c 0.01,-0.01 -0.00,-0.03 -0.04,-0.03 0.13,-0.07 0.11,-0.19 0.00,-0.28 0.01,0.01 0.04,0.02 0.04,-0.03 -0.11,-0.08 -0.08,-0.00 -0.05,0.02 -0.11,-0.09 -0.32,-0.15 -0.54,-0.03 0.15,-0.33 -0.38,-0.44 -0.79,-0.65 l 0.01,-0.00 c -0.01,-0.06 -0.03,-0.09 -0.04,-0.11 7e-4,-0.00 0.00,-0.00 0.00,-0.00 0.01,-0.02 -0.02,-0.08 -0.12,-0.06 0.03,0.05 0.06,0.08 0.08,0.08 -0.00,0.02 0.00,0.05 0.02,0.07 -0.13,-0.08 -0.25,-0.17 -0.31,-0.29 -0.67,-0.62 -1.31,-0.32 -1.86,-1.00 -0.05,0.0 -0.72,-0.10 -0.88,-0.22 -0.13,-0.12 -1.19,-0.69 -1.45,-1.09 -0.16,-0.07 -0.62,-0.05 -1.22,-0.37 -0.53,-0.12 -0.57,-0.63 -0.68,-0.83 -0.68,-0.03 -1.14,-0.37 -1.73,-0.78 -0.45,0.11 -1.27,-1.39 -1.71,-0.57 0.07,-0.63 -1.26,-0.99 -1.20,-1.14 -0.05,-0.10 -0.15,-0.12 -0.29,-0.16 0.02,0.03 -0.06,0.01 -0.01,-0.00 -0.19,-0.04 -0.45,-0.10 -0.76,-0.39 -0.66,-0.04 -0.65,-0.71 -1.46,-0.77 -0.19,-0.18 -0.55,-0.45 -0.93,-0.67 0.10,-0.00 0.19,-0.01 0.21,-0.02 0.77,0.07 0.80,0.32 1.86,-0.01 0.48,-0.05 1.17,0.07 1.11,-0.03 0.44,0.29 0.86,-0.16 0.87,0.02 -0.00,0.00 -0.00,0.01 -0.00,0.01 -0.0,0.02 0.0,0.03 -0.00,0.07 -0.18,-0.03 0.59,0.31 0.58,-0.02 0.24,0.60 0.68,-0.25 0.74,0.08 0.52,-0.04 0.45,0.00 0.82,0.08 0.05,0.07 0.30,0.06 0.56,0.04 h 0.00 c 0.34,-0.01 0.70,-0.07 0.70,0.00 -0.07,-0.22 0.57,-0.11 0.19,-0.08 -0.03,0.51 0.58,-0.28 0.96,-0.05 0.30,-0.40 0.42,0.61 0.54,0.03 -0.14,0.12 -0.07,-0.12 0.00,-0.02 0.33,0.22 0.69,0.04 1.02,-0.09 0.37,0.21 0.76,-0.18 0.90,-0.34 0.0,0.01 0.01,0.02 0.01,0.02 -0.31,0.88 1.34,-0.36 0.48,0.40 0.67,-0.20 0.36,-0.08 1.27,-0.17 0.20,-0.03 0.30,-0.60 0.45,0.14 0.10,-0.13 0.57,-0.19 0.93,-0.02 0.92,-1.85 -0.20,0.95 0.42,0.04 -0.23,-0.60 0.95,0.76 0.61,-0.70 0.22,1.31 0.65,-0.14 1.38,0.47 0.01,-0.04 0.07,-0.13 0.14,-0.24 0.03,0.02 0.10,0.06 0.08,-0.03 h -0.05 c 0.16,-0.20 0.42,-0.35 0.59,0.04 -0.54,0.23 0.81,-0.21 0.82,-0.14 0.02,-0.00 0.04,-0.02 0.05,-0.04 0.05,0.10 0.10,0.01 0.08,-0.02 l 0.08,-0.00 c 0.0,-0.01 -0.02,-0.03 -0.06,-0.01 0.07,-0.13 0.0,-0.22 -0.13,-0.24 0.02,-3e-6 0.04,-0.0 0.01,-0.05 -0.14,-0.01 -0.07,0.04 -0.03,0.05 -0.15,-0.01 -0.35,0.03 -0.48,0.24 -0.03,-0.37 -0.55,-0.18 -1.01,-0.16 l 0.00,-0.01 c -0.04,-0.04 -0.07,-0.06 -0.09,-0.07 -0.0,-0.00 0.00,-0.00 0.0,-0.00 -0.0,-0.03 -0.06,-0.06 -0.14,0 0.06,0.03 0.09,0.03 0.12,0.03 0.01,0.02 0.03,0.04 0.05,0.05 -0.15,0 -0.31,-0.01 -0.42,-0.09 -0.9,-0.20 -1.30,0.36 -2.12,0.05 -0.05,0.02 -0.67,0.27 -0.87,0.25 -0.18,-0.03 -1.37,-0.01 -1.80,-0.22 -0.18,0.01 -0.56,0.26 -1.24,0.28 -0.52,0.16 -0.81,-0.25 -1.01,-0.37 -0.60,0.31 -1.18,0.24 -1.89,0.18 -0.33,0.33 -1.79,-0.56 -1.76,0.36 -0.25,-0.59 -1.59,-0.23 -1.62,-0.39 -0.10,-0.05 -0.19,-0.02 -0.33,0 0.04,0.01 -0.05,0.04 -0.02,0 -0.18,0.06 -0.44,0.14 -0.85,0.04 -0.6,0.29 -0.92,-0.29 -1.66,0.05 -0.26,-0.06 -0.70,-0.11 -1.15,-0.11 0.08,-0.06 0.15,-0.11 0.17,-0.13 0.71,-0.32 0.86,-0.11 1.61,-0.94 0.39,-0.29 1.04,-0.52 0.94,-0.59 0.53,0.03 0.66,-0.57 0.77,-0.42 -0.0,0.01 0.0,0.01 0.00,0.01 0.01,0.01 0.02,0.03 0.03,0.07 -0.17,0.06 0.67,-0.01 0.49,-0.30 0.50,0.39 0.47,-0.56 0.69,-0.29 0.43,-0.29 0.40,-0.22 0.75,-0.33 0.07,0.03 0.28,-0.09 0.50,-0.24 l 10e-4,-0.0 c 0.28,-0.18 0.58,-0.41 0.62,-0.34 -0.17,-0.15 0.43,-0.37 0.13,-0.16 0.23,0.46 0.36,-0.54 0.80,-0.53 0.06,-0.50 0.67,0.32 0.48,-0.24 -0.06,0.18 -0.13,-0.07 -0.00,-0.02 0,0 0,-0.0 0,-0.0 0.39,0.02 0.63,-0.30 0.84,-0.59 0.43,-0.00 0.57,-0.54 0.61,-0.75 0.00,0.00 0.01,0.01 0.01,0.01 0.16,0.92 0.98,-0.98 0.62,0.11 0.47,-0.51 0.27,-0.26 1.01,-0.79 0.16,-0.13 -0.04,-0.67 0.45,-0.10 0.01,-0.17 0.40,-0.46 0.79,-0.49 -0.13,-2.07 0.30,0.93 0.39,-0.17 -0.51,-0.40 1.20,0.18 0.17,-0.91 0.85,1.03 0.49,-0.45 1.43,-0.28 -0.01,-0.04 -0.00,-0.15 0.00,-0.27 0.04,0.01 0.11,0.00 0.05,-0.07 l -0.04,0.02 c 0.04,-0.25 0.18,-0.51 0.53,-0.25 -0.36,0.47 0.60,-0.59 0.64,-0.54 0.01,-0.01 0.01,-0.04 0.01,-0.06 0.09,0.06 0.09,-0.03 0.06,-0.06 l 0.06,-0.04 c -0.01,-0.01 -0.03,-0.01 -0.05,0.02 0.00,-0.15 -0.11,-0.19 -0.24,-0.14 0.01,-0.01 0.04,-0.02 -0.00,-0.05 -0.13,0.05 -0.04,0.07 -10e-4,0.05 -0.13,0.05 -0.29,0.20 -0.30,0.45 -0.21,-0.30 -0.57,0.11 -0.96,0.36 l 0.00,-0.01 c -0.06,-0.01 -0.10,-0.01 -0.12,-0.01 -0.00,-0.00 -0.0,-0.00 -0.00,-0.00 -0.01,-0.02 -0.08,-0.02 -0.12,0.06 0.07,-0.00 0.10,-0.01 0.11,-0.03 0.01,0.01 0.05,0.02 0.07,0.02 -0.13,0.08 -0.27,0.13 -0.41,0.12 -0.87,0.27 -0.94,0.97 -1.80,1.11 -0.02,0.05 -0.45,0.57 -0.63,0.65 -0.17,0.05 -1.20,0.68 -1.67,0.71 -0.14,0.10 -0.35,0.51 -0.93,0.87 -0.37,0.40 -0.83,0.17 -1.06,0.17 -0.37,0.57 -0.89,0.80 -1.54,1.10 -0.12,0.45 -1.84,0.40 -1.35,1.19 -0.51,-0.38 -1.49,0.59 -1.59,0.47 -0.11,-0.00 -0.18,0.07 -0.29,0.16 0.04,-0.00 -0.02,0.05 -0.01,0.00 -0.13,0.14 -0.31,0.34 -0.72,0.46 -0.36,0.55 -0.94,0.20 -1.40,0.88 -0.26,0.07 -0.66,0.25 -1.05,0.47 0.04,-0.09 0.07,-0.17 0.08,-0.19 0.45,-0.64 0.69,-0.53 0.92,-1.62 0.19,-0.45 0.64,-0.97 0.52,-0.98 0.47,-0.23 0.29,-0.83 0.45,-0.75 0.00,0.01 0.01,0.01 0.01,0.00 0.01,0.01 0.03,0.01 0.06,0.04 -0.11,0.14 0.57,-0.35 0.27,-0.51 0.63,0.09 0.12,-0.72 0.45,-0.60 0.23,-0.47 0.23,-0.39 0.48,-0.66 0.08,-0.00 0.20,-0.22 0.31,-0.46 l 0.0,-0.00 c 0.15,-0.30 0.29,-0.64 0.36,-0.60 -0.22,-0.04 0.19,-0.54 0.03,-0.21 0.43,0.28 0.04,-0.65 0.42,-0.86 -0.19,-0.46 0.75,-0.05 0.30,-0.45 0.04,0.19 -0.15,0.00 -0.01,-0.01 0,0 -0.0,-0.0 -0.0,-0.0 0.35,-0.17 0.39,-0.58 0.43,-0.93 0.37,-0.22 0.22,-0.76 0.15,-0.96 0.00,0.00 0.02,10e-4 0.02,10e-4 0.60,0.71 0.35,-1.34 0.59,-0.21 0.15,-0.68 0.10,-0.36 0.48,-1.19 0.07,-0.19 -0.37,-0.56 0.34,-0.31 -0.07,-0.15 0.11,-0.60 0.44,-0.82 -1.15,-1.72 0.73,0.65 0.25,-0.34 -0.64,-0.09 1.13,-0.44 -0.31,-0.88 1.25,0.46 0.20,-0.64 1.10,-0.96 -0.03,-0.03 -0.08,-0.13 -0.13,-0.24 0.04,-0.01 0.10,-0.05 0.01,-0.09 l -0.02,0.04 c -0.08,-0.24 -0.09,-0.53 0.33,-0.48 -0.07,0.59 0.22,-0.81 0.28,-0.79 0.00,-0.02 -0.00,-0.04 -0.01,-0.06 0.11,0.00 0.06,-0.07 0.02,-0.08 l 0.03,-0.07 c -0.01,-0.01 -0.03,0.00 -0.03,0.04 -0.07,-0.13 -0.19,-0.11 -0.28,-0.00 0.01,-0.01 0.02,-0.04 -0.03,-0.04 -0.08,0.11 -0.00,0.08 0.02,0.05 -0.09,0.11 -0.15,0.32 -0.03,0.54 -0.33,-0.15 -0.44,0.38 -0.65,0.79 l -0.00,-0.01 c -0.06,0.01 -0.09,0.03 -0.11,0.05 -0.00,-0.0 -0.00,-0.00 -0.00,-0.00 -0.02,-0.01 -0.08,0.02 -0.06,0.12 0.06,-0.03 0.08,-0.06 0.08,-0.08 0.02,0.00 0.05,-0.00 0.07,-0.02 -0.08,0.13 -0.17,0.25 -0.29,0.31 -0.62,0.67 -0.32,1.31 -1.00,1.86 0.0,0.05 -0.10,0.72 -0.22,0.88 -0.12,0.13 -0.69,1.19 -1.09,1.45 -0.07,0.16 -0.05,0.62 -0.37,1.22 -0.12,0.53 -0.63,0.57 -0.83,0.68 -0.03,0.68 -0.37,1.14 -0.78,1.73 0.11,0.45 -1.39,1.27 -0.57,1.71 -0.63,-0.07 -0.99,1.26 -1.14,1.20 -0.10,0.05 -0.12,0.15 -0.16,0.29 0.03,-0.02 0.01,0.06 -0.00,0.01 -0.04,0.19 -0.10,0.45 -0.39,0.76 -0.04,0.66 -0.71,0.65 -0.77,1.46 -0.18,0.19 -0.45,0.55 -0.67,0.93 -0.00,-0.10 -0.02,-0.19 -0.02,-0.21 0.07,-0.78 0.33,-0.80 -0.00,-1.86 -0.06,-0.48 0.07,-1.17 -0.03,-1.11 0.29,-0.44 -0.16,-0.86 0.01,-0.87 0.01,0.00 0.01,0.01 0.01,0.00 0.02,-0.0 0.04,-0.0 0.07,0.00 -0.03,0.18 0.32,-0.59 -0.01,-0.58 0.60,-0.24 -0.25,-0.69 0.08,-0.75 -0.04,-0.53 0.00,-0.46 0.08,-0.82 0.07,-0.05 0.06,-0.29 0.04,-0.55 v -10e-4 c -0.02,-0.33 -0.07,-0.70 0.00,-0.70 -0.22,0.07 -0.11,-0.56 -0.08,-0.19 0.52,0.03 -0.28,-0.59 -0.05,-0.96 -0.40,-0.30 0.62,-0.42 0.03,-0.54 0.13,0.15 -0.13,0.07 -0.02,-0.00 0.22,-0.33 0.05,-0.69 -0.08,-1.02 0.21,-0.38 -0.18,-0.76 -0.34,-0.90 0.01,0 0.01,-0.01 0.01,-0.01 0.87,0.31 -0.35,-1.34 0.41,-0.48 -0.21,-0.67 -0.08,-0.36 -0.17,-1.27 -0.03,-0.20 -0.60,-0.30 0.14,-0.45 -0.14,-0.10 -0.20,-0.57 -0.03,-0.93 -1.85,-0.91 0.96,0.20 0.05,-0.42 -0.61,0.23 0.76,-0.95 -0.70,-0.61 1.32,-0.22 -0.14,-0.65 0.47,-1.38 -0.05,-0.01 -0.14,-0.07 -0.24,-0.14 0.03,-0.03 0.06,-0.09 -0.03,-0.08 v 0.05 c -0.2,-0.16 -0.34,-0.42 0.05,-0.59 0.22,0.55 -0.21,-0.82 -0.15,-0.83 -0.01,-0.02 -0.02,-0.03 -0.04,-0.04 0.1,-0.05 0.01,-0.10 -0.02,-0.09 z m 0.45,1.81 c 0.03,0.01 0.04,0.00 0.00,-0.02 0,0 -0.00,0.01 -0.00,0.02 z m 0.29,7.53 c -0.00,-0.00 -0.00,-0.00 -0.01,-0.01 -0.00,0.00 -0.00,0.00 -0.00,0.00 0.01,0.00 0.01,0.00 0.02,0.00 z m 0.09,2.41 c 0.15,0.17 0.08,-0.07 0,0 z m 8.67,-7.43 c 0.02,0.02 0.03,0.03 0.01,-0.01 0,0 -0.01,0.00 -0.01,0.01 z m -3.53,6.65 c 0.00,0.00 0.00,0.01 0.01,0.01 -0.00,-0.00 -0.00,-0.01 -0.00,-0.02 -0.00,0.0 -0.00,0.00 -0.01,0.00 z m -1.10,2.15 c 0.03,0.23 0.10,-0.02 0,0 z m 11.22,-2.09 c 0.00,0.03 0.01,0.04 0.02,-0.00 0,0 -0.01,-0.00 -0.02,0.00 z m -6.38,3.99 c 0.00,0.01 0.00,0.01 0.00,0.02 0.00,-0.00 0.00,-0.01 0.00,-0.02 -0.00,-0.00 -0.00,-0.00 -0.01,-0.00 z m -2.03,1.31 c -0.08,0.21 0.10,0.03 0,0 z m 10.77,3.79 c -0.01,0.02 -0.01,0.04 0.02,0.00 0,0 -0.01,-0.00 -0.02,-0.00 z m -7.52,0.27 c -0.00,0.01 -0.00,0.01 -0.00,0.02 0.00,-0.00 0.01,-0.00 0.01,-0.01 -0.00,-0.00 -0.00,-0.00 -0.01,-0.01 z m -2.42,0.11 c -0.18,0.14 0.07,0.08 0,0 z m 7.43,8.67 c -0.02,0.02 -0.03,0.03 0.01,0.01 0,0 -0.00,-0.01 -0.01,-0.01 z M 34.43,32.10 c -0.00,0.00 -0.01,0.01 -0.01,0.01 0.00,-0.00 0.01,-0.0 0.02,-0.00 -0.0,-0.00 -0.00,-0.00 -0.00,-0.01 z M 32.28,30.99 c -0.23,0.03 0.02,0.10 0,0 z m 2.09,11.22 c -0.03,0.00 -0.04,0.01 10e-4,0.02 0,0 0.00,-0.01 -10e-4,-0.02 z m -3.99,-6.38 c -0.01,0.00 -0.01,0.00 -0.02,0.00 0.00,0.00 0.01,0.00 0.02,0.00 0.00,-0.00 0.00,-0.00 0.00,-0.01 z M 29.06,33.79 c -0.21,-0.08 -0.03,0.10 0,0 z m -3.79,10.77 c -0.02,-0.01 -0.05,-0.01 -0.01,0.01 0,0 0.00,-0.01 0.01,-0.01 z m -0.27,-7.53 c -0.01,-0.00 -0.01,-0.00 -0.02,-0.00 0.00,0.00 0.00,0.01 0.01,0.01 0.00,-0.00 0.00,-0.00 0.01,-0.01 z m -0.11,-2.42 c -0.15,-0.18 -0.08,0.07 0,0 z m -8.67,7.43 c -0.02,-0.02 -0.03,-0.03 -0.01,0.01 0,0 0.01,-0.00 0.01,-0.01 z m 3.53,-6.65 c -0.01,-0.00 -0.01,-0.01 -0.02,-0.02 0.00,0.00 0.0,0.01 0.00,0.02 0.00,-0.0 0.01,-0.00 0.01,-0.00 z m 1.10,-2.15 c -0.03,-0.23 -0.10,0.02 0,0 z M 9.62,35.33 c -0.00,-0.03 -0.01,-0.04 -0.02,0.0 0,0 0.01,0.00 0.02,-0.0 z m 6.38,-4.00 c -0.00,-0.01 -0.00,-0.01 -0.00,-0.02 -0.00,0.00 -0.00,0.01 -0.00,0.02 0.00,0.00 0.00,0.00 0.01,0.00 z m 2.03,-1.31 c 0.08,-0.21 -0.10,-0.03 0,0 z M 7.27,26.23 c 0.01,-0.02 0.01,-0.04 -0.01,-0.01 0,0 0.01,0.00 0.01,0.01 z m 7.53,-0.27 c 0.00,-0.01 0.00,-0.01 0.00,-0.02 -0.00,0.00 -0.01,0.00 -0.01,0.01 0.00,0.00 0.00,0.00 0.01,0.01 z m 2.42,-0.11 c 0.18,-0.15 -0.07,-0.07 0,0 z M 9.79,17.16 c 0.02,-0.02 0.03,-0.03 -0.01,-0.01 0,0 0.00,0.01 0.01,0.01 z m 6.65,3.53 c 0.00,-0.00 0.01,-0.01 0.01,-0.01 -0.00,0.00 -0.01,0.0 -0.02,0.00 0.0,0.00 0.00,0.00 0.00,0.01 z m 2.15,1.10 c 0.23,-0.03 -0.02,-0.10 0,0 z M 16.50,10.58 c 0.03,-0.00 0.04,-0.01 -0.0,-0.02 0,0 -0.00,0.01 0.0,0.02 z m 3.99,6.38 c 0.01,-0.00 0.01,-0.00 0.02,-0.00 -0.00,-0.00 -0.01,-0.00 -0.02,-0.00 -0.00,0.00 -0.00,0.01 -0.00,0.01 z m 1.31,2.03 c 0.21,0.08 0.03,-0.10 0,0 z M 36.61,6.41 c -0.02,-0.01 0.08,0.26 0.02,0.02 -0.00,-0.00 -0.01,-0.01 -0.02,-0.02 z m -11.23,0.05 c -0.12,0 0.09,0.13 0.07,0.00 -0.03,0 -0.05,-0.00 -0.07,-0.00 z m 11.14,0.10 c -0.02,-0.01 -0.09,0.06 -0.15,0.32 0.20,-0.03 0.21,-0.30 0.15,-0.32 z M 25.47,6.60 c -0.05,0.03 -0.02,0.21 0,0 z m -11.72,0.13 c -0.00,0.00 -0.02,-0.0 -0.03,0.00 -0.02,0.01 0.27,0.05 0.03,-0.00 z m 11.60,0.05 v 0.00 z m -0.01,0.00 c -0.02,0 -0.02,0.03 0.02,0.12 0.09,-0.04 0.00,-0.12 -0.02,-0.12 z m -11.50,0.08 c -0.01,-0.0 -0.01,0.00 -0.02,0.00 -0.02,0.01 0.00,0.11 0.20,0.29 0.06,-0.16 -0.10,-0.29 -0.18,-0.30 z m 22.70,0.02 c -0.00,-0.00 -0.03,0.01 -0.05,0.08 0.08,0.00 0.07,-0.08 0.05,-0.08 z m -11.67,0.05 v 0.00 z m -10.73,0.07 c -0.00,-0.00 -0.01,-0.0 -0.01,0.00 -0.00,0.00 -0.00,0.03 0.05,0.08 0.03,-0.05 -0.00,-0.08 -0.03,-0.09 z m 10.72,0.02 c -0.02,0.01 0.10,0.16 0.08,0.03 -0.05,-0.03 -0.07,-0.04 -0.08,-0.03 z m 11.19,0.15 c -0.01,0.01 0.06,0.20 0.08,0.19 -0.01,-0.12 -0.07,-0.21 -0.08,-0.19 z m -11.10,0.17 c 0.03,0.01 -0.08,0.09 0,0 z M 35.90,7.51 c 0.03,0.20 0.24,0.17 0,0 z m -10.27,0.09 c -0.27,0.05 0.2,0.09 0,0 z m -11.43,0.00 c -0.04,-0.00 -0.06,0.00 -0.05,0.01 0.01,0.01 0.20,0.04 0.21,0.02 -0.05,-0.02 -0.11,-0.03 -0.15,-0.03 z M 36.02,7.75 c -0.12,0.01 -0.27,0.07 0.06,0.07 0.07,-0.04 0.07,-0.07 0.04,-0.07 -0.02,-0.00 -0.06,-0.00 -0.10,0 z M 14.65,7.81 c -0.00,0.0 -0.00,0.00 -0.01,0.01 -0.06,0.06 -0.18,0.46 0.04,0.07 -0.00,-0.06 -0.01,-0.09 -0.02,-0.08 z m -0.19,0.04 c -0.02,0.0 -0.07,0.01 -0.14,0.04 0.14,0.05 0.22,-0.04 0.14,-0.04 z M 25.71,7.87 c -0.00,-0.00 -0.01,-0.00 -0.02,0.00 -0.01,0 -0.02,0.01 -0.04,0.02 0.07,0.13 0.10,-0.00 0.06,-0.02 z m 10.00,0.18 c -0.15,0.25 0.19,0.10 0,0 z M 14.75,8.30 c -0.01,0.0 -0.03,0.00 -0.06,0.02 0.13,0.22 0.17,-0.02 0.06,-0.02 z m 20.55,0.18 c -0.06,0.03 0.0,0.35 0.28,0.47 C 35.49,8.65 35.39,8.52 35.34,8.49 c -0.01,-0.00 -0.02,-0.00 -0.03,-0.00 z M 15.05,8.84 c -0.08,-0.0 -0.14,0.01 -0.16,0.02 -0.12,0.06 0.25,0.23 0.52,0.01 -0.15,-0.03 -0.27,-0.04 -0.36,-0.04 z m 20.17,0.06 c -0.00,0.00 -0.01,0.01 0.00,0.04 0.03,-0.01 0.03,-0.03 0.02,-0.04 -0.00,-0.00 -0.02,-0.00 -0.03,0 z m 0.08,0.18 c -0.04,0.00 0.04,0.16 0.08,0.05 -0.02,-0.01 -0.03,-0.03 -0.05,-0.04 -0.01,-0.00 -0.02,-0.01 -0.02,-0.01 z m -20.11,0.05 c -0.01,0.00 -0.03,0.05 0.02,0.04 0.00,-0.03 -0.01,-0.04 -0.02,-0.04 z m 0.27,0.00 c -0.02,0.01 -0.04,0.01 -0.06,0.02 -0.10,0.05 0.14,0.07 0.06,-0.02 z m 0.08,0.08 c -0.02,0.05 0.08,0.19 0,0 z m 19.79,0.03 c -0.05,0.0 -0.12,0.17 0,0 z m -0.70,0.00 -0.00,0.00 z m -0.05,0.08 c -0.02,-0.00 0.00,0.18 0.05,0.06 -0.02,-0.05 -0.04,-0.06 -0.05,-0.06 z m 0.56,0.01 -0.00,0.00 z m -0.02,0.00 c -0.01,0.00 -0.02,0.03 -0.02,0.11 0.09,0.01 0.06,-0.09 0.04,-0.11 -0.00,-0.00 -0.00,-0.00 -0.01,-0.00 z m -19.58,0.08 0.00,0.00 z m 0.02,0.01 c -0.01,-0.00 -0.02,-0.00 -0.03,0.00 -0.01,0.01 -0.01,0.04 0.07,0.09 0.04,-0.05 -0.00,-0.09 -0.04,-0.09 z M 34.51,9.68 c 0.02,0.02 -0.11,0.03 0,0 z m -19.29,0.16 0.00,0.00 z m 0.12,0.07 c -0.05,-0.00 -0.08,0.0 -0.08,0.01 -0.01,0.01 0.16,0.08 0.08,-0.01 z m 0.85,0.09 c -0.20,0.17 0.21,-0.02 0,0 z m -0.69,0.15 c 0.03,-0.00 -0.02,0.11 0,0 z m 19.42,0.00 c -0.10,-0.01 0.18,0.17 0.06,0.01 -0.03,-0.01 -0.05,-0.01 -0.06,-0.01 z m -18.51,0.02 c -0.00,10e-4 -0.01,0.00 -0.02,0.01 -0.00,0.00 -0.01,0.01 -0.02,0.03 0.13,0.08 0.09,-0.05 0.04,-0.05 z m 18.46,0.26 c -0.01,0.17 0.12,0.01 0.04,0.00 -0.00,-0.00 -0.02,-0.00 -0.04,-0.00 z m -8.94,0.21 c -0.01,-0.00 -0.02,-0.0 -0.03,0.00 -0.06,0.01 -0.11,0.10 0.08,0.09 0,-0.06 -0.02,-0.09 -0.05,-0.10 z m -1.01,0.06 c -0.34,0.08 0.05,0.21 0,0 z m 0.80,0.96 c -0.09,0 -0.11,0.09 0.19,0.11 -0.05,-0.09 -0.13,-0.12 -0.19,-0.11 z m -7.67,0.82 c -0.02,-0.00 -0.04,0.00 -0.05,0.01 -0.04,0.03 -0.03,0.15 0.12,0.04 -0.02,-0.03 -0.04,-0.05 -0.06,-0.06 z m 14.67,0.02 c -0.17,-0.01 0.04,0.20 0.09,0.02 -0.04,-0.01 -0.07,-0.01 -0.09,-0.02 z m 0.93,0.45 c -0.04,0.01 -0.06,0.06 0.07,0.13 0.04,-0.07 0.01,-0.12 -0.02,-0.13 -0.01,-0.00 -0.03,-0.00 -0.04,-0.00 z m -16.48,0.08 c -0.25,0.23 0.14,0.15 0,0 z m 1.27,0.40 c -0.04,0.00 -0.07,0.01 -0.09,0.03 -0.07,0.04 -0.04,0.13 0.22,-0.00 -0.04,-0.02 -0.08,-0.03 -0.12,-0.03 z m 14.53,0.30 c -0.03,0.00 -0.02,0.07 0.16,0.20 0.00,-0.10 -0.06,-0.17 -0.11,-0.19 -0.01,-0.01 -0.03,-0.01 -0.05,-0.01 z m 12.13,0.86 c -0.01,-0.02 -0.05,0.27 0.00,0.03 -0.00,-0.00 -10e-4,-0.02 -0.00,-0.03 z m -0.18,0.08 c -0.04,0.00 -0.13,0.06 -0.27,0.21 0.19,0.07 0.33,-0.15 0.29,-0.20 -0.00,-0.00 -0.01,-0.00 -0.02,-0.00 z m -0.12,0.30 c -0.00,-0.00 -0.03,-0.00 -0.08,0.05 0.07,0.04 0.10,-0.03 0.08,-0.05 z m -0.57,0.02 c -0.01,0.01 -0.04,0.20 -0.02,0.21 0.04,-0.11 0.03,-0.22 0.02,-0.21 z M 5.58,15.19 c -0.00,-0.0 -0.03,0.00 -0.09,0.02 -0.00,0.00 -0.01,0.01 -0.02,0.02 -0.01,0.01 0.14,-0.03 0.12,-0.04 z m 38.36,0.07 c -0.07,0.19 0.12,0.27 0,0 z m -37.95,0.02 c -0.02,-0.00 -0.04,0.00 -0.04,0.01 -0.00,0.00 0.01,0.03 0.08,0.05 0.00,-0.04 -0.01,-0.06 -0.04,-0.06 z m -0.32,0.00 c -0.02,0.00 -0.05,0.01 -0.05,0.02 -0.01,0.02 0.06,0.09 0.32,0.15 C 5.91,15.32 5.76,15.28 5.67,15.29 Z m 38.14,0.21 c -0.05,-0.00 -0.06,0.01 0.12,0.13 0.08,-0.00 0.10,-0.02 0.07,-0.04 -0.03,-0.03 -0.14,-0.07 -0.20,-0.08 z m -17.66,0.02 c -0.05,0 -0.08,0.17 0.01,0 z m 17.37,0.12 c -0.25,0.14 0.11,0.19 0,0 z m -36.70,0.04 c -0.01,-0.00 -0.02,0.00 -0.02,0.01 -0.02,0.08 0.07,0.49 0.07,0.04 -0.02,-0.03 -0.04,-0.05 -0.05,-0.06 z m -0.36,0.00 c -0.12,0.01 -0.21,0.07 -0.19,0.08 0.01,0.01 0.20,-0.06 0.19,-0.08 z m 36.49,0.11 c -0.07,-0.00 -0.17,0.31 0.01,0.55 0.06,-0.31 0.04,-0.47 0.01,-0.53 -0.00,-0.01 -0.01,-0.02 -0.03,-0.02 z m -36.26,0.00 c -0.01,-0.00 -0.06,0.02 -0.13,0.11 0.12,-0.02 0.16,-0.11 0.13,-0.11 z m 0.49,0.23 c -0.02,-0.00 -0.05,0.01 -0.08,0.05 0.19,0.11 0.15,-0.05 0.08,-0.05 z m 35.48,0.08 c -0.01,0.0 -0.01,0.01 -0.01,0.04 0.03,0.00 0.04,-0.01 0.04,-0.02 -0.00,-0.00 -0.01,-0.01 -0.03,-0.01 z m -0.67,0.03 -0.00,0.00 z m -0.09,0.04 c -0.01,-0.01 -0.08,0.16 0.01,0.08 10e-4,-0.05 -0.0,-0.08 -0.01,-0.08 z m -33.89,0.02 c -0.30,0.10 -0.43,0.19 -0.46,0.25 -0.07,0.12 0.33,0.07 0.46,-0.25 z m 34.64,0.10 c -0.04,-0.02 -0.04,0.16 0.04,0.08 -0.01,-0.02 -0.01,-0.04 -0.02,-0.06 -0.00,-0.01 -0.01,-0.02 -0.02,-0.02 z m -34.45,0.08 c -0.01,0.02 -0.03,0.03 -0.04,0.05 -0.06,0.10 0.16,-0.00 0.04,-0.05 z m 33.41,0.01 c 0.00,-0.00 0.01,-0.0 0.04,0.00 0.00,0.02 -0.06,-0.00 -0.04,-0.00 z m -33.29,0.01 c 0.0,0.05 0.17,0.12 0,0 z m 34.04,0.03 c -0.01,-0.00 -0.04,0.01 -0.08,0.08 0.07,0.05 0.10,-0.05 0.09,-0.07 -0.00,-0.00 -0.00,-0.00 -0.01,-0.00 z m 0.02,0.01 -0.00,0.00 z m 0.22,0.00 c -0.05,-0.02 -0.19,0.08 0,0 z m -16.55,0.03 c -0.00,-0.00 -0.01,-0.00 -0.02,0.00 -0.07,0.01 -0.21,0.12 0.01,0.02 0.00,-0.01 0.00,-0.01 0.00,-0.02 z m -18.08,0.01 c -0.00,-0.00 -0.01,-0.00 -0.01,0.00 -0.01,0.01 -0.00,0.06 0.04,0.02 -0.00,-0.01 -0.01,-0.02 -0.02,-0.02 z m 12.66,0.05 -0.01,0.00 c -0.04,0.02 0.02,0.19 0.01,-0.00 z m -12.14,0.03 c -0.02,-0.00 -0.05,0.01 -0.06,0.02 -0.01,0.01 0.01,0.04 0.11,0.04 0.00,-0.04 -0.01,-0.06 -0.04,-0.06 z m -0.07,0.01 0.00,0.00 z m 0.88,0.14 c -0.00,0.00 -0.02,0.01 -0.04,0.02 -0.08,0.22 0.11,-0.04 0.04,-0.02 z m 0.25,0.07 c -0.01,-0.00 -0.02,0.00 -0.03,0.02 -0.00,0.00 -10e-4,0.02 -0.00,0.04 0.13,0.00 0.07,-0.06 0.03,-0.07 z m 32.18,0.21 c -0.01,0.02 0.08,0.22 0.07,0.05 -0.04,-0.05 -0.06,-0.06 -0.07,-0.05 z m -33.42,0.08 0.00,0.00 z m 0.41,0.14 c 0.02,-0.02 0.03,0.11 0,0 z m 32.84,0.00 c -0.09,0.14 0.10,0.07 0.03,0.02 -0.00,-0.00 -0.01,-0.01 -0.03,-0.02 z m -10.09,0.00 c -0.04,-0.02 -0.15,0.11 0.01,0.01 z m -5.27,0.01 c -0.03,0.01 -0.09,0.13 0,0.12 0.02,-0.08 0.01,-0.11 0,-0.12 z m -5.15,0.22 c -0.00,-0.00 -0.01,0.00 -0.01,0.01 -0.05,0.04 -0.12,0.20 0.02,0.00 -0.0,-0.01 -0.00,-0.01 -0.00,-0.01 z m 17.55,0.46 c -0.07,-0.00 0.00,0.19 0.12,0.08 -0.05,-0.06 -0.09,-0.08 -0.12,-0.08 z m -26.46,0.05 c -0.04,-0.00 -0.07,0.01 -0.07,0.04 -0.02,0.05 0.04,0.14 0.13,-0.02 -0.01,-0.01 -0.03,-0.01 -0.05,-0.02 z m 18.66,0.06 c -0.06,-0.00 -0.11,0.01 0.06,0.03 0.01,-0.01 0.01,-0.02 -0.00,-0.02 -0.01,-0.00 -0.03,-0.01 -0.06,-0.01 z m -9.22,0.01 c -0.02,0.02 -0.01,0.15 0.05,0.10 -0.02,-0.07 -0.04,-0.10 -0.05,-0.10 z m -8.51,0.51 c -0.10,-0.00 -0.17,0.06 -0.19,0.11 -0.04,0.07 0.02,0.14 0.19,-0.11 z m 26.17,0.22 c -0.04,-0.01 -0.08,0.02 -0.00,0.15 0.07,-0.04 0.07,-0.09 0.04,-0.12 -0.01,-0.01 -0.02,-0.01 -0.03,-0.02 z m -8.60,0.02 c -0.03,-0.00 -0.14,0.06 -0.05,0.10 0.05,-0.05 0.06,-0.09 0.05,-0.10 z m -19.00,0.07 c -0.10,0.33 0.20,0.06 0,0 z m 26.62,0.24 c -0.03,-0.01 -0.06,0.05 0.04,0.26 0.05,-0.08 0.03,-0.18 -0.00,-0.22 -0.01,-0.01 -0.02,-0.03 -0.03,-0.03 z m -21.86,1.07 -0.01,0.01 c -0.02,0.04 0.11,0.15 0.01,-0.01 z m 0.83,0.60 c -0.00,0.00 -0.00,0.00 -0.01,0.01 -0.02,0.06 -0.0,0.24 0.02,-0.00 -0.00,-0.00 -0.01,-0.01 -0.01,-0.01 z m 0.76,0.25 c -0.00,0.03 0.06,0.14 0.10,0.05 -0.05,-0.05 -0.09,-0.06 -0.10,-0.05 z m 7.06,0.16 0.00,0.01 h -0.00 z m 10.11,0.18 c -0.04,-0.0 -0.10,0.03 0.04,0.03 l -0.01,-0.01 c -0.00,-0.01 -0.02,-0.01 -0.03,-0.01 z m -7.54,0.29 0.00,0.01 -0.00,-0.00 z m 6.54,0.07 c -0.02,-0.00 -0.01,0.01 0.08,0.09 0.02,-0.00 0.02,-0.01 0.00,-0.02 -0.02,-0.02 -0.07,-0.05 -0.09,-0.06 z m -11.57,0.30 0.01,0.00 -0.00,0.00 z m 11.04,0.29 c -0.04,-0.00 -0.11,0.01 -0.06,0.06 0.07,-0.02 0.10,-0.04 0.10,-0.05 -0.00,-0.00 -0.01,-0.00 -0.03,-0.00 z m -4.02,1.01 -0.00,0.01 -0.00,-0.00 z m -8.69,0.66 -0.00,0.00 -0.00,-0.00 z m -4.47,1.39 c -0.01,0.00 -0.02,0.00 -0.03,0.01 0.01,0.03 0.12,0.09 0.11,0 -0.04,-0.01 -0.06,-0.01 -0.08,-0.01 z m -1.85,0.06 -0.0,0.01 c 0.0,0.04 0.18,0.08 0.0,-0.01 z m 26.42,0.06 c -0.03,0.02 -0.04,0.16 0.09,0.13 -0.03,-0.12 -0.06,-0.15 -0.09,-0.13 z m -25.40,0.04 c -0.00,0.00 -0.00,0.01 10e-4,0.02 0.01,0.06 0.12,0.21 0.02,-0.01 -0.00,-0.00 -0.01,-0.00 -0.02,-0.00 z m 29.18,0.02 c -0.01,-0.01 -0.16,0.10 -0.03,0.08 0.03,-0.04 0.04,-0.07 0.03,-0.08 z m 0.08,0.00 h 0.01 z m -35.03,0.02 c -0.09,-0.0 -0.10,0.04 -0.09,0.08 0.01,0.05 0.10,0.11 0.09,-0.08 z m 34.58,0.02 c 0.00,0.00 0.01,0.00 0.03,0.02 -0.00,0.02 -0.05,-0.03 -0.03,-0.02 z m -33.54,0.04 c -0.09,0.04 -0.12,0.13 -0.11,0.19 10e-6,0.08 0.09,0.11 0.11,-0.19 z m 34.97,0.06 c -0.09,0.02 -0.26,0.22 -0.22,0.48 0.21,-0.23 0.28,-0.39 0.28,-0.45 2e-5,-0.03 -0.02,-0.04 -0.05,-0.03 z m 1.51,0.00 c -0.02,3e-6 -0.14,0.15 -0.12,0.17 0.10,-0.08 0.14,-0.17 0.12,-0.17 z m -16.90,0.01 h 0.00 l -0.00,0.01 z m 16.57,0.0 c -0.16,0.13 -0.03,0.30 0,0 z m 1.03,0.04 c -0.05,0.00 -0.14,0.01 -0.27,0.05 0.13,0.16 0.37,0.03 0.36,-0.02 -0.0,-0.01 -0.02,-0.02 -0.08,-0.02 z m 0.26,0.02 c -0.0,-0.03 -0.18,0.21 -0.01,0.02 -0.0,-0.01 0.01,-0.01 0.01,-0.02 z m -41.36,0.02 c -0.02,-0.01 -0.07,-0.0 -0.05,0.03 0.0,0.01 0.01,0.02 0.01,0.04 0.08,-0.04 0.06,-0.07 0.03,-0.08 z m 38.51,0.02 c -0.01,-0.00 -0.02,1e-5 -0.03,0.02 0.03,0.01 0.05,0.01 0.05,0 9e-5,-0.01 -0.00,-0.02 -0.01,-0.02 z m 0.98,0 c -0.3,-0.0 7e-5,0.22 0,0 z m 0.29,0.00 c -0.01,-0.0 -0.00,0.04 0.07,0.19 0.08,0.03 0.10,0.03 0.09,0 -0.01,-0.05 -0.13,-0.19 -0.16,-0.19 z m -40.09,0.03 c -0.00,0.00 -0.01,0.02 -0.02,0.04 0.04,0.23 0.07,-0.09 0.02,-0.04 z m 41.17,0.07 c -0.01,-0.00 -0.04,0.0 -0.07,0.01 0.04,0.08 0.11,0.01 0.10,0 -0.0,-0.00 -0.00,-0.00 -0.02,-0.01 z m -2.83,0.03 c -0.01,0.00 -0.04,0.01 -0.09,0.03 0.04,0.09 0.11,0.01 0.11,-0.02 9e-5,-0.01 -0.00,-0.01 -0.02,-0.01 z m 0.33,0.00 c -0.03,0.00 -0.08,0.12 0.00,0.10 -0.0,-0.03 0.01,-0.04 0.01,-0.06 -10e-6,-0.03 -0.00,-0.03 -0.01,-0.03 z m -0.31,0.01 h 0.01 z m -39.77,0.01 c -0.21,0.23 -0.28,0.39 -0.28,0.45 -0.0,0.14 0.33,-0.10 0.28,-0.45 z m 0.38,0.03 c 0.02,0.05 0.21,0.02 0,0 z m -0.11,0.03 c 0.0,0.03 -0.01,0.04 -0.01,0.06 -8e-5,0.12 0.13,-0.08 0.01,-0.06 z m 39.62,0.00 c -0.02,0.00 -0.01,0.01 0.08,0.02 -0.01,-0.02 -0.06,-0.02 -0.08,-0.02 z m -39.22,0.03 c -0.03,-0.01 -0.08,0.03 -0.08,0.05 -0.0,0.01 0.03,0.03 0.11,-0.02 -0.01,-0.02 -0.02,-0.03 -0.03,-0.03 z m -1.96,0.00 c -0.01,0.00 -0.01,0.01 -0.01,0.02 0.01,0.08 0.30,0.38 0.08,-0.0 -0.03,-0.02 -0.06,-0.02 -0.07,-0.02 z m 1.86,0.04 h 0.01 z m 38.37,0.00 c -0.02,0.00 -0.03,0.23 0.03,0.08 -0.01,-0.06 -0.02,-0.08 -0.03,-0.08 z m -41.16,0.00 c -0.02,0.00 -0.03,0.02 -0.03,0.03 0.0,0.01 0.02,0.01 0.09,0 -0.02,-0.03 -0.04,-0.04 -0.06,-0.03 z m 1.44,0.07 c -0.03,-0.00 -0.07,0.01 -0.07,0.09 0.18,0.0 0.14,-0.08 0.07,-0.09 z m -1.57,0.03 c -0.10,0.00 -0.19,0.06 -0.18,0.10 0.0,0.03 0.09,0.04 0.35,-0.02 -0.04,-0.06 -0.11,-0.07 -0.17,-0.07 z m 41.03,0 c -0.16,0.07 0.05,0.11 0.02,0.03 -0.0,-0.01 -0.01,-0.01 -0.02,-0.03 z m -41.31,0.00 c -0.00,0.00 -0.02,0.02 -0.07,0.06 0.0,0.01 -0.01,0.01 -0.01,0.02 0.0,0.02 0.10,-0.10 0.08,-0.09 z m 1.27,0.00 c -0.01,0.00 -0.04,0.05 -0.05,0.16 0.10,-0.08 0.08,-0.17 0.05,-0.16 z m 36.18,10e-4 c -0.02,-0.0 -0.06,0.06 -0.08,0.25 0.09,-0.04 0.12,-0.14 0.11,-0.20 0,-0.03 -0.01,-0.05 -0.03,-0.05 z m -34.69,0.00 c -0.00,0.00 -0.01,0.00 -0.01,0.01 -0.0,0.01 0.02,0.05 0.04,0 -0.01,-0.00 -0.02,-0.01 -0.03,-0.01 z m -1.74,0.00 c -0.10,0.08 -0.14,0.17 -0.12,0.17 0.02,-2e-6 0.14,-0.15 0.12,-0.17 z m 16.77,0.14 0.00,0.01 h -0.00 z m 20.67,0.03 c -0.02,0.00 -0.04,0.04 -0.04,0.14 0.09,-0.0 0.10,-0.04 0.09,-0.08 -0.00,-0.02 -0.03,-0.05 -0.05,-0.05 z m -5.87,0.07 c -0.00,0.00 0.00,0.03 0.03,0.12 0.02,0.00 0.02,5e-5 0.02,-0.01 -0.00,-0.04 -0.05,-0.11 -0.05,-0.10 z m -28.77,0.00 c 0.02,0.01 0.05,0.06 -0.01,0.00 0.00,-0.00 0.00,-0.00 0.01,-0.00 z m -0.28,0.01 c -0.00,-0.00 -0.02,-0.0 -0.03,0.00 -0.03,0.05 -0.04,0.07 -0.02,0.08 0.00,0.01 0.12,-0.07 0.06,-0.08 z m 3.68,0.01 c -0.01,-0.00 -0.03,-0.00 -0.06,0.0 0.07,0.29 0.17,0.03 0.06,-0.0 z m -3.85,0.05 h 0.01 z m 30.24,0.07 c -0.02,-0.00 -0.02,0.01 0.06,0.06 v -0.02 c 0.0,-0.02 -0.04,-0.04 -0.06,-0.04 z m -1.82,0.07 c -0.02,-0.00 -0.05,-0.0 -0.05,0.04 0.08,0.02 0.10,0.01 0.11,0 -0.00,-0.01 -0.03,-0.03 -0.06,-0.04 z m -4.44,1.44 0.00,0.00 -0.01,0.00 z m -8.70,0.66 0.00,0.00 -0.00,0.00 z m -3.96,0.95 c -0.07,0.02 -0.10,0.04 -0.10,0.05 0.02,0.02 0.15,0.01 0.10,-0.05 z m 10.96,0.35 0.00,0.00 -0.01,-0.00 z m -11.65,0.22 c -0.02,0.0 -0.02,0.01 -0.00,0.02 0.04,0.05 0.20,0.12 0.00,-0.02 z m 6.62,0.15 0.01,0.00 -0.00,0.00 z m -7.59,0.27 0.00,0.01 c 0.02,0.04 0.19,-0.02 -0.00,-0.01 z m 10.16,0.21 v 0.00 l -0.01,-0.00 z m 6.99,0.08 c -0.01,0.0 -0.02,0.00 -0.03,0.02 0.05,0.05 0.09,0.06 0.10,0.05 0.00,-0.02 -0.03,-0.09 -0.07,-0.08 z m 0.84,0.20 c -0.00,0.00 -0.01,0.03 -0.02,0.12 0.01,0.01 0.02,0.01 0.02,-0.00 0.01,-0.04 0.01,-0.12 0.0,-0.12 z m 0.78,0.65 c -0.00,0.00 -0.00,0.02 0.03,0.09 l 0.00,-0.01 c 0.01,-0.02 -0.03,-0.08 -0.04,-0.07 z M 12.58,33.26 c -0.05,0.08 -0.03,0.18 0.00,0.22 0.04,0.07 0.13,0.05 -0.00,-0.22 z m 26.66,0.34 c -0.04,0.00 -0.11,0.12 0.01,0.16 0.03,-0.12 0.01,-0.16 -0.01,-0.16 z m -27.59,0.11 c -0.07,0.04 -0.07,0.09 -0.04,0.12 0.03,0.04 0.15,0.04 0.04,-0.12 z m 8.66,0.02 c -0.05,0.05 -0.06,0.09 -0.05,0.10 0.03,0.00 0.14,-0.06 0.05,-0.10 z m 17.69,0.16 c -0.03,0.00 -0.09,0.05 -0.17,0.18 0.10,0.00 0.17,-0.06 0.19,-0.11 0.02,-0.03 0.01,-0.07 -0.01,-0.06 z m -8.73,0.59 c -0.00,0.00 -0.01,0.00 -0.02,0.01 0.02,0.07 0.04,0.10 0.05,0.10 0.01,-0.02 0.01,-0.12 -0.03,-0.11 z m 9.50,0.07 c -0.02,0.00 -0.05,0.03 -0.08,0.10 0.07,0.04 0.12,0.01 0.13,-0.02 0.01,-0.03 -0.00,-0.08 -0.04,-0.07 z m -18.77,0.01 c -0.01,0.01 -0.01,0.02 0.00,0.02 0.06,0.02 0.24,0.00 -0.00,-0.02 z m -7.79,0.04 c -0.01,0.00 -0.03,0.01 -0.05,0.03 0.20,0.22 0.17,-0.05 0.05,-0.03 z m 17.70,0.47 c -0.00,-0.00 -0.03,0.02 -0.08,0.09 0.00,0.02 0.01,0.02 0.02,0.00 0.03,-0.02 0.07,-0.10 0.06,-0.10 z M 24.67,35.33 c -0.02,0.08 -0.01,0.10 0,0.11 0.03,-0.01 0.09,-0.12 0,-0.11 z m -15.37,0.05 c -0.02,0.00 -0.06,0.03 -0.03,0.06 0.00,0.00 0.01,0.01 0.03,0.02 0.04,-0.07 0.02,-0.09 -0.00,-0.08 z m 10.16,0.03 c -0.01,0.00 -0.03,0.01 -0.08,0.03 l 0.01,0.00 c 0.03,0.01 0.10,-0.05 0.06,-0.04 z m 22.67,0.01 c 0.00,0.00 0.01,0.01 0.01,0.04 -0.01,0.01 -0.03,-0.05 -0.01,-0.04 z m 0.32,0.12 c -0.04,0.00 -0.13,0.02 -0.03,0.06 0.05,-0.02 0.06,-0.04 0.06,-0.05 0.0,-0.00 -0.01,-0.00 -0.02,-0.00 z M 9.08,35.58 c -0.01,-0.00 -0.02,0.00 -0.01,0.06 0.13,0.15 0.05,-0.04 0.01,-0.06 z m 33.47,0.03 0.00,0.00 z m -1.19,0.22 c -0.17,-0.01 -0.01,0.12 -0.00,0.04 0.00,-0.00 0.0,-0.02 0.00,-0.04 z m 0.27,0.02 c -0.02,-0.00 -0.14,0.18 -0.01,0.09 0.02,-0.06 0.02,-0.08 0.01,-0.09 z m 0.70,0.20 c -0.01,0.09 0.09,0.06 0.11,0.04 0.01,-0.01 -0.01,-0.04 -0.11,-0.04 z m -12.08,0.00 c -0.00,-0.00 -0.01,0.02 -0.01,0.10 l 0.01,-0.00 c 0.02,-0.01 0.01,-0.08 -0.00,-0.09 z m 12.19,0.04 0.00,0.00 z m -17.52,0.05 c -0.01,0.00 -0.05,0.01 -0.11,0.04 -0.01,0.01 0.0,0.02 0.02,0.02 0.05,-0.00 0.14,-0.07 0.08,-0.06 z m 17.98,0.00 c -0.00,0.0 -0.01,0.00 -0.02,0.01 0.01,0.03 0.03,0.03 0.04,0.02 0.00,-0.01 0.00,-0.04 -0.01,-0.04 z m -34.35,0.00 c -0.04,0.00 -0.05,0.07 -0.04,0.09 0.01,0.01 0.04,0.01 0.09,-0.07 -0.01,-0.01 -0.03,-0.01 -0.05,-0.01 z m -0.19,0.04 c -0.01,0.00 -0.04,0.01 -0.08,0.03 0.03,0.02 0.12,-0.03 0.08,-0.03 z m 34.90,10e-4 c -0.11,0.01 -0.30,0.10 -0.38,0.31 0.30,-0.10 0.43,-0.19 0.46,-0.24 0.02,-0.04 -0.01,-0.06 -0.08,-0.06 z m -0.76,0.01 c -0.00,0.00 0.01,0.02 0.07,0.06 -0.0,-0.03 -0.06,-0.07 -0.07,-0.06 z m 0.23,0.00 c -0.03,-0.01 -0.13,0.06 -0.04,0.09 0.01,-0.02 0.03,-0.03 0.04,-0.05 0.01,-0.02 0.01,-0.03 0.00,-0.04 z m -34.22,0.01 -0.00,0.00 z m 0.72,0.04 c 0.02,0.00 0.07,0.02 -0.01,0.00 -0.00,-0.00 0.00,-0.01 0.01,-0.00 z m -1.01,0.01 c -0.00,0.00 -0.02,0.00 -0.03,0.01 0.01,0.02 0.01,0.04 0.02,0.06 0.05,0.09 0.07,-0.09 0.00,-0.08 z m -0.29,0.08 c -0.06,0.31 -0.04,0.47 -0.01,0.52 0.06,0.12 0.23,-0.25 0.01,-0.52 z m 1.09,0.04 c -0.00,-0.00 -0.02,-0.0 -0.04,0.02 -10e-4,0.05 0.0,0.08 0.01,0.08 0.01,0.00 0.05,-0.08 0.03,-0.10 z m -0.78,0.13 c -0.03,-0.00 -0.04,0.01 -0.04,0.02 0.01,0.01 0.05,0.03 0.04,-0.02 z m 0.67,0.00 -0.00,0.00 z m 34.75,0.03 c -0.06,0.02 0.04,0.17 0.12,0.03 -0.06,-0.03 -0.10,-0.04 -0.12,-0.03 z m 0.37,0.18 c -0.01,-0.01 -0.03,0.03 -0.03,0.20 0.04,0.07 0.07,0.07 0.07,0.04 0.01,-0.05 -0.01,-0.23 -0.04,-0.25 z m 0.29,0.02 c -0.20,0.03 -0.17,0.24 0,0 z m 0.29,0.14 c -0.01,-0.01 -0.20,0.06 -0.19,0.08 0.12,-0.01 0.21,-0.07 0.19,-0.08 z m -37.20,0.01 c -0.04,-0.00 -0.11,0.03 -0.05,0.12 0.12,-0.07 0.10,-0.12 0.05,-0.12 z m -0.47,0.13 c -0.08,0.00 -0.10,0.02 -0.07,0.04 0.06,0.06 0.46,0.18 0.07,-0.04 z m 17.83,0.03 c -0.00,-0.00 -0.02,0.01 -0.06,0.07 h 0.02 c 0.03,-4e-5 0.05,-0.07 0.04,-0.07 z m 20.16,0.13 c 0.03,0.20 0.30,0.21 0.32,0.15 0.01,-0.02 -0.06,-0.09 -0.32,-0.15 z m -38.02,0.03 c -0.02,-0.01 -0.04,0.03 0.01,0.17 0.03,-0.09 0.00,-0.16 -0.01,-0.17 z m 37.92,0.08 c -0.00,0.08 0.08,0.07 0.08,0.05 0.00,-0.00 -0.01,-0.03 -0.08,-0.05 z m -38.16,0.05 c -0.04,0.11 -0.03,0.22 -0.02,0.21 0.01,-0.01 0.04,-0.20 0.02,-0.21 z m 38.74,0.06 c 0.01,-0.02 -0.26,0.08 -0.02,0.02 0.00,-0.00 0.01,-0.01 0.02,-0.02 z M 6.12,37.67 c -0.03,0.00 -0.05,0.05 -0.03,0.06 0.00,0.00 0.03,0.00 0.08,-0.04 -0.01,-0.01 -0.03,-0.01 -0.04,-0.01 z m 0.03,0.14 c -0.15,-0.00 -0.26,0.17 -0.22,0.22 0.01,0.02 0.11,-0.00 0.29,-0.20 -0.02,-0.00 -0.04,-0.01 -0.06,-0.01 z m -0.35,0.18 c -0.00,0.00 -0.01,0.03 -0.03,0.09 0.00,0.00 0.0,0.02 0.00,0.03 0.01,0.01 0.03,-0.14 0.02,-0.12 z M 17.74,38.77 c -0.00,0.10 0.06,0.17 0.11,0.19 0.07,0.04 0.13,-0.02 -0.11,-0.19 z m 14.81,0.41 c -0.03,-0.01 -0.10,0.00 -0.24,0.07 0.08,0.05 0.18,0.03 0.22,-0.00 0.03,-0.02 0.05,-0.05 0.01,-0.06 z m 1.19,0.35 c -0.05,0.01 -0.11,0.07 -0.03,0.14 0.12,-0.11 0.09,-0.15 0.03,-0.14 z m -16.59,0.09 c -0.04,0.07 -0.01,0.11 0.02,0.13 0.05,0.02 0.15,-0.04 -0.02,-0.13 z m 0.98,0.49 c -0.02,0.00 -0.05,0.02 -0.07,0.07 0.25,0.07 0.15,-0.07 0.07,-0.07 z m 14.72,0.01 c -0.02,0.00 -0.05,0.01 -0.09,0.04 0.04,0.07 0.09,0.07 0.12,0.04 0.03,-0.02 0.04,-0.09 -0.02,-0.08 z m -7.90,0.82 c 0.04,0.09 0.13,0.12 0.19,0.11 0.09,5e-6 0.11,-0.09 -0.19,-0.11 z m 1.06,0.96 c -0.04,0.00 -0.08,0.03 -0.06,0.11 0.21,-0.05 0.13,-0.11 0.06,-0.11 z m -1.13,0.07 c -0.0,0.08 0.05,0.10 0.09,0.09 0.06,-0.00 0.10,-0.10 -0.09,-0.09 z m -8.91,0.23 c -0.03,0.00 -0.06,0.07 -0.01,0.08 0.00,0.00 0.02,0.00 0.04,0.00 0.00,-0.06 -0.01,-0.08 -0.03,-0.08 z m 18.46,0.26 c -0.04,0.01 0.00,0.11 0.04,0.06 0.00,-0.00 0.01,-0.01 0.02,-0.03 -0.03,-0.02 -0.06,-0.03 -0.07,-0.02 z M 15.86,42.52 c -0.01,0.00 -0.01,0.01 0.01,0.06 0.19,0.06 0.02,-0.06 -0.01,-0.06 z m 19.51,0.03 c 0.00,0.00 -0.0,0.01 -0.00,0.04 -0.02,0.00 0.00,-0.06 0.00,-0.04 z m -0.64,0.13 c -0.02,-0.01 -0.22,0.08 -0.05,0.07 0.05,-0.04 0.06,-0.06 0.05,-0.07 z m 0.81,0.11 c -0.03,-0.00 -0.05,0.00 -0.01,0.05 0.05,0.00 0.08,-0.0 0.08,-0.01 0.00,-0.00 -0.03,-0.03 -0.06,-0.03 z m 0.10,0.12 0.00,0.00 z m -19.25,0.15 c 0.01,-0.00 0.02,0.00 -0.03,0.02 -0.01,-0.01 0.01,-0.02 0.03,-0.02 z m 18.84,0.14 c -0.05,0.07 0.05,0.10 0.07,0.09 0.01,-0.01 0.01,-0.04 -0.07,-0.09 z m -19.48,0.07 c -0.09,-0.01 -0.06,0.09 -0.04,0.11 0.01,0.01 0.04,-0.01 0.04,-0.11 z m 19.54,0.02 0.00,0.00 z m -19.06,0.00 c -0.00,-0.0 -0.02,0.01 -0.03,0.04 0.02,0.05 0.04,0.07 0.05,0.06 0.01,9e-4 0.00,-0.10 -0.02,-0.10 z m -0.53,0.08 -0.00,0.00 z m -0.13,0.03 c -0.00,-0.00 -0.02,0.01 -0.06,0.07 0.03,-0.0 0.07,-0.06 0.06,-0.07 z m 19.69,0.00 c -0.00,0.0 -0.00,0.02 0.03,0.09 0.01,-0.03 -0.02,-0.09 -0.03,-0.09 z m -19.05,0.05 -0.00,0.00 z m 19.21,0.06 c -0.03,0.00 -0.08,0.02 -0.04,0.07 0.02,-0.01 0.04,-0.01 0.06,-0.02 0.05,-0.03 0.01,-0.04 -0.02,-0.04 z m 0.21,0.03 c -0.00,0.03 0.01,0.04 0.02,0.04 0.01,-0.01 0.03,-0.05 -0.02,-0.04 z m -20.12,0.00 c -0.01,-0.00 -0.03,0.00 -0.04,0.03 0.02,0.01 0.03,0.03 0.05,0.04 0.07,0.04 0.03,-0.07 -0.01,-0.08 z m 20.26,0.18 c -0.09,-0.0 -0.21,0.02 -0.32,0.10 0.31,0.06 0.47,0.04 0.53,0.01 0.07,-0.04 -0.04,-0.12 -0.20,-0.12 z m -20.50,0.03 c 0.10,0.30 0.19,0.43 0.24,0.46 0.12,0.07 0.07,-0.33 -0.24,-0.46 z m 0.35,0.00 c -0.03,0.01 -0.03,0.03 -0.02,0.04 0.01,0.00 0.06,0.00 0.02,-0.04 z m 20.45,0.53 c -0.06,-0.01 -0.05,0.17 0.08,0.09 -0.03,-0.06 -0.06,-0.09 -0.08,-0.09 z m -20.92,0.21 c -0.04,-0.00 -0.13,0.07 -0.01,0.14 0.05,-0.09 0.04,-0.13 0.01,-0.14 z m 21.15,0.13 c -0.00,-0.01 -0.04,0.01 -0.13,0.16 0.00,0.08 0.02,0.10 0.04,0.07 0.04,-0.03 0.10,-0.20 0.08,-0.23 z m -11.15,0.11 c -0.04,-0.00 -0.04,0.10 0.01,0.08 0.01,-0.0 0.02,-0.01 0.04,-0.02 -0.02,-0.04 -0.03,-0.05 -0.05,-0.05 z m 11.32,0.03 c -0.14,-0.01 -0.17,0.12 0.06,0.01 -0.02,-0.00 -0.04,-0.01 -0.06,-0.01 z m -21.70,0.08 c -0.07,0.04 -0.07,0.07 -0.04,0.07 0.08,0.02 0.49,-0.07 0.04,-0.07 z m 21.77,0.17 c -0.01,0.0 -0.03,0.00 -0.03,0.01 0.11,0.04 0.22,0.03 0.21,0.02 -0.00,-0.01 -0.12,-0.03 -0.17,-0.03 z m -11.29,0.0 c -0.05,-0.00 -0.12,0.00 -0.02,0.05 0.13,-0.02 0.08,-0.04 0.02,-0.05 z m -10.40,0.00 c -0.02,0.00 -0.01,0.05 0.10,0.14 -0.01,-0.10 -0.07,-0.14 -0.10,-0.14 z m 11.08,0.22 c -0.00,0.00 -0.00,0.01 -0.02,0.03 -0.02,-0.00 0.03,-0.05 0.02,-0.03 z m -11.22,0.02 c 0.01,0.12 0.07,0.21 0.08,0.19 0.01,-0.01 -0.06,-0.20 -0.08,-0.19 z M 36.86,45.61 c -0.07,0.19 0.15,0.33 0.20,0.29 0.02,-0.01 -0.00,-0.11 -0.20,-0.29 z m -10.91,0.04 c -0.00,0.00 -0.01,0.01 -0.00,0.05 0.05,0.03 0.07,0.04 0.08,0.02 0.01,-0.00 -0.04,-0.09 -0.07,-0.08 z m 10.77,0.01 c -0.04,0.07 0.03,0.10 0.05,0.08 0.00,-0.00 0.00,-0.03 -0.05,-0.08 z m -22.33,0.13 c -0.08,-0.00 -0.07,0.08 -0.04,0.08 0.00,0.00 0.03,-0.01 0.04,-0.08 z m 11.62,0.02 v 0.01 z m -0.50,0.05 c -0.09,0.04 -0.01,0.11 0.02,0.11 0.02,3e-5 0.03,-0.03 -0.02,-0.11 z m -11.00,0.02 c -0.20,0.03 -0.21,0.30 -0.15,0.32 0.02,0.01 0.09,-0.06 0.15,-0.32 z m 11.01,0.09 -0.0,0.01 z m 11.53,0.03 c -0.04,-0.00 -0.05,0.0 0.06,0.03 0.00,-0.00 0.02,-0.0 0.03,-0.00 0.01,-0.00 -0.05,-0.02 -0.09,-0.02 z m -11.63,0.06 c -0.00,-0.00 -0.01,0.02 -0.02,0.10 0.03,-0.01 0.03,-0.09 0.02,-0.10 z m -11.20,0.16 c -0.0,0.00 0.00,0.03 0.02,0.09 0.00,0.00 0.01,0.01 0.02,0.02 0.01,0.01 -0.03,-0.14 -0.04,-0.12 z m 11.22,0.00 c -0.01,0.00 -0.02,0.02 -0.01,0.05 0.03,0.0 0.05,0.01 0.07,0.01 0.09,5e-6 -0.00,-0.07 -0.05,-0.06 z m 0.22,0.14 c -0.01,0.03 -0.01,0.05 0,0.05 0.02,-0.0 0.05,-0.03 0,-0.05 z m -0.18,0.16 c -0.03,-0.00 -0.08,-0.00 -0.12,0.00 0.23,0.21 0.39,0.28 0.45,0.28 0.12,0.0 -0.04,-0.25 -0.32,-0.28 z m 0.15,0.72 c -0.04,0.01 -0.07,0.13 0.05,0.13 0.0,-0.11 -0.03,-0.14 -0.05,-0.13 z m 0.03,0.42 c -0.02,0.00 -0.07,0.02 -0.17,0.08 -0.04,0.07 -0.03,0.09 0,0.08 0.06,-0.01 0.25,-0.18 0.17,-0.17 z m 0.00,0.19 c -0.05,0.00 -0.05,0.05 0.13,0.07 -0.04,-0.06 -0.10,-0.07 -0.13,-0.07 z m -0.01,0.28 c 0.08,0.10 0.17,0.14 0.17,0.12 -0.0,-0.01 -0.15,-0.14 -0.17,-0.12 z m -0.09,0.53 c -0.07,0.04 -0.02,0.11 0,0.10 0.01,-0.0 0.01,-0.03 0,-0.10 z m 0.14,0.02 c -0.16,0.13 -0.03,0.36 0.02,0.35 0.03,0.0 0.04,-0.09 -0.02,-0.35 z m -0.06,0.45 c 0.00,0.00 0.02,0.02 0.06,0.07 0.01,-0.0 0.01,0.01 0.02,0.01 0.02,0.0 -0.10,-0.10 -0.09,-0.08 z"
       id="jagged_hands"
       inkscape:connector-curvature="0" />
  </g>
</svg>
