<?xml version="1.0" encoding="UTF-8" standalone="no"?>
<svg
   xmlns:dc="http://purl.org/dc/elements/1.1/"
   xmlns:cc="http://creativecommons.org/ns#"
   xmlns:rdf="http://www.w3.org/1999/02/22-rdf-syntax-ns#"
   xmlns:svg="http://www.w3.org/2000/svg"
   xmlns="http://www.w3.org/2000/svg"
   xmlns:sodipodi="http://sodipodi.sourceforge.net/DTD/sodipodi-0.dtd"
   xmlns:inkscape="http://www.inkscape.org/namespaces/inkscape"
   width="200"
   height="200"
   viewBox="0 0 52.91 52.91"
   version="1.1"
   id="svg9116"
   inkscape:version="0.92.3 (2405546, 2018-03-11)"
   sodipodi:docname="clock_8.svg">
  <metadata
     id="metadata25">
    <rdf:RDF>
      <cc:Work
         rdf:about="">
        <dc:format>image/svg+xml</dc:format>
        <dc:type
           rdf:resource="http://purl.org/dc/dcmitype/StillImage" />
      </cc:Work>
    </rdf:RDF>
  </metadata>
  <defs
     id="defs9110">
    <clipPath
       clipPathUnits="userSpaceOnUse"
       id="clipPath18-3">
      <path
         d="M 0,336 H 336 V 0 H 0 Z"
         id="path16-5"
         inkscape:connector-curvature="0" />
    </clipPath>
    <clipPath
       clipPathUnits="userSpaceOnUse"
       id="clipPath26-6">
      <path
         d="M 56.63,638 H 1725 V -679.64 H 56.63 Z"
         id="path24-2"
         inkscape:connector-curvature="0" />
    </clipPath>
    <filter
       inkscape:collect="always"
       style="color-interpolation-filters:sRGB"
       id="filter2235"
       x="-0.03"
       width="1.07"
       y="-0.03"
       height="1.07">
      <feGaussianBlur
         inkscape:collect="always"
         stdDeviation="0.73"
         id="feGaussianBlur2237" />
    </filter>
  </defs>
  <sodipodi:namedview
     id="base"
     pagecolor="#ffffff"
     bordercolor="#666666"
     borderopacity="1.0"
     inkscape:pageopacity="0.0"
     inkscape:pageshadow="2"
     inkscape:zoom="2.185002"
     inkscape:cx="134.96636"
     inkscape:cy="4.9834327"
     inkscape:document-units="mm"
     inkscape:current-layer="layer1"
     showgrid="false"
     inkscape:window-width="1920"
     inkscape:window-height="1025"
     inkscape:window-x="0"
     inkscape:window-y="27"
     inkscape:window-maximized="1"
     units="px"
     inkscape:snap-bbox="true"
     inkscape:snap-bbox-midpoints="true"
     inkscape:snap-center="true"
     inkscape:object-paths="true" />
  <script
     type="text/javascript"
     data-namespace="clock8"
     id="script10"><![CDATA[

clock8 = {

  menu: {
    'Tick': {
      eventName: 'clock8_tick',
      applicable: (elem) => {
        return elem.querySelector('#pie8').style['opacity'] !== '1'
      },
      uiLabel: (elem) => { return 'Tick clock forward' },
    },
    'Red': {
      eventName: 'colorRed',
      applicable: (elem) => {
        console.log(elem.querySelector('#bg').style['fill'])
        return elem.querySelector('#bg').style['fill'] !== 'rgb(255, 0, 0)'
      },
      uiLabel: (elem) => { return 'Change Color To Red' },
    },
  },

  initialize: function(elem) {
    elem.addEventListener( 'colorRed', (evt) => {
      elem.querySelector('#bg').style['fill'] = '#ff0000'
    } )
    elem.addEventListener( 'clock8_tick', (evt) => {
      if(elem.querySelector('#pie1').style['opacity'] !== '1') {
        elem.querySelector('#pie1').style['opacity'] = 1
      } else if(elem.querySelector('#pie2').style['opacity'] !== '1') {
        elem.querySelector('#pie2').style['opacity'] = 1
      } else if(elem.querySelector('#pie3').style['opacity'] !== '1') {
        elem.querySelector('#pie3').style['opacity'] = 1
      } else if(elem.querySelector('#pie4').style['opacity'] !== '1') {
        elem.querySelector('#pie4').style['opacity'] = 1
      } else if(elem.querySelector('#pie5').style['opacity'] !== '1') {
        elem.querySelector('#pie5').style['opacity'] = 1
      } else if(elem.querySelector('#pie6').style['opacity'] !== '1') {
        elem.querySelector('#pie6').style['opacity'] = 1
      } else if(elem.querySelector('#pie7').style['opacity'] !== '1') {
        elem.querySelector('#pie7').style['opacity'] = 1
      } else if(elem.querySelector('#pie8').style['opacity'] !== '1') {
        elem.querySelector('#pie8').style['opacity'] = 1
      }
    } )
    elem.querySelector('#pie1').style['opacity'] = 0
    elem.querySelector('#pie2').style['opacity'] = 0
    elem.querySelector('#pie3').style['opacity'] = 0
    elem.querySelector('#pie4').style['opacity'] = 0
    elem.querySelector('#pie5').style['opacity'] = 0
    elem.querySelector('#pie6').style['opacity'] = 0
    elem.querySelector('#pie7').style['opacity'] = 0
    elem.querySelector('#pie8').style['opacity'] = 0
  },

}

]]></script>
  <g
     inkscape:label="Layer 1"
     inkscape:groupmode="layer"
     id="layer1">
    <circle
       r="23.48"
       style="opacity:1;fill:#f2ecf2;fill-opacity:0.25;stroke:none;stroke-opacity:1"
       id="bg"
       cx="25.530001"
       cy="26.714006"
       inkscape:label="#path833" />
    <path
       style="fill:#231f20;fill-opacity:1;fill-rule:nonzero;stroke:none;stroke-width:0.35679746"
       d="m 25.487462,2.34245 c 0.01878,0.008 0.203885,0.0644 0.571413,0.2173 -0.810172,0.1073 -3.447254,-0.32729 -2.229314,-0.0215 -1.352074,-0.0885 -2.639764,0.54727 -3.879166,0.7753 0.694816,-0.67604 -2.897302,1.05966 -2.661226,0.68677 1.585468,-0.61702 -1.239402,0.26827 -0.681403,0.24681 -1.282324,0.80212 -1.097219,0.3407 -1.529132,0.5875 -1.786669,0.70019 -3.270196,2.0147 -4.842251,3.12802 C 8.991616,8.95524 8.508732,9.72517 7.100321,11.2087 l 0.236077,-0.29778 0.238759,-0.279 c -1.062344,1.16429 0.611653,-1.29037 -0.340701,0.14755 -1.349392,1.59352 -1.472796,2.4332 -2.379544,3.62431 -0.4882491,0.90675 -1.0194213,2.0308 -1.2420844,2.76049 -0.4399607,1.08917 0.3836244,-1.42451 -0.2924129,0.17705 -0.077798,0.50435 -0.721643,1.76789 -0.2602207,0.55264 -0.4748357,0.69481 -1.1213634,2.19712 -0.206567,0.6814 -0.4319127,1.63644 -1.1830652,3.25142 -1.0784404,4.27352 -0.045606,1.37085 -0.4024031,2.0308 -0.1341343,3.00998 -0.091211,1.77594 -0.120721,3.88453 0.4533742,4.92005 0.4077685,1.34134 0.2736341,-0.28169 0.5982393,1.25013 -0.1797401,0.69213 -0.67872,-1.62571 -0.5901913,0.0778 -0.1234036,1.47279 1.9959196,3.51968 1.4647475,4.28425 -0.3460668,-1.30379 -1.185748,-2.41442 -0.2870476,-0.6197 -0.010731,0.51507 1.7947176,3.26751 0.7055468,1.66326 1.1616038,1.69278 1.0489308,2.23468 2.6907358,4.20378 0.622383,0.78871 0.775297,0.98991 2.103227,1.67131 -0.324605,0.74579 -1.132094,-0.24412 -0.21998,0.69482 0.238759,-0.18511 0.560681,0.28436 1.094536,1.00064 0.405086,-0.059 1.373536,1.21526 2.057622,1.63644 0.02951,-0.0295 2.183707,0.65726 1.995919,1.25013 1.073075,-0.11267 4.547156,1.15624 1.955679,0.66262 -0.68945,-0.0912 -2.127371,-0.62774 -0.751152,0.15828 -1.880564,-0.48556 3.629676,1.41914 1.175017,0.45606 -2.159564,-0.75115 2.00665,0.0939 1.207209,0.44801 1.389633,0.35948 -0.139499,0.17169 1.639123,0.50166 1.263545,0.5419 0.914796,0.56337 1.207209,-0.34875 1.612295,0.1395 1.196479,0.90407 1.53718,0.88529 1.129411,0.51239 2.406371,-0.12341 4.125974,0.12877 1.818862,-0.051 3.036802,0.11267 3.380186,-0.0322 2.333938,-0.58751 -2.32589,0.44264 0.04561,-0.37558 1.440603,0 3.495542,-1.38963 4.501549,-1.00869 -0.407768,0.21998 -2.266871,0.53654 -0.957719,0.29778 -2.130054,0.73237 1.783987,-0.40241 2.508313,-0.78335 1.665949,-0.68945 -0.413134,-0.0912 1.378901,-1.04625 0.525807,-0.41313 1.703507,-0.7431 0.456057,-0.14486 0.303144,-0.12072 2.079083,-1.07576 0.815537,-0.56605 1.124046,-0.84504 1.834958,-1.57205 0.423865,-0.51239 -0.439961,0.52312 -2.390275,0.99528 -2.044208,1.27159 -1.614978,1.00333 -1.394998,0.42923 -3.015341,1.03284 -1.470113,0.58751 -2.983149,0.9765 -4.761771,1.20989 -2.398322,0.21461 -4.751039,-0.10999 -7.138631,-0.48557 -1.258181,0.17438 -4.429117,-0.92821 -4.184993,-1.06502 -2.087131,-0.7592 -3.425792,-1.56133 -4.442531,-2.33126 C 11.797712,45.80463 10.040551,44.50889 9.152581,43.55654 8.41216,42.58809 7.009114,41.48818 6.097,39.70152 5.115137,38.16165 4.0769366,36.10671 3.8542735,34.93706 3.3070053,32.74531 3.1782362,33.15039 2.5746315,30.89962 c 0.083163,0.14218 -0.3621628,-3.56798 -0.42923,-3.93014 0.053654,-1.56401 0.3272879,-4.02671 0.4399608,-4.6491 0.7484698,-1.60961 0.8665081,-2.09249 1.53718,-4.24669 0.4882491,-1.44597 1.7356987,-3.95697 3.0770427,-5.6095 0.893335,-1.23404 2.009333,-2.06299 2.937543,-3.18435 1.252815,-1.16161 3.651138,-2.71756 5.003212,-3.3158 1.394998,-0.76457 4.603492,-1.58816 3.983791,-2.02007 1.083806,-0.0161 3.686013,-0.52849 5.778509,-0.56605 1.749113,0.10195 4.238647,-0.0161 4.056224,0.23876 1.110633,-0.0617 0.992595,0.1556 0.863826,0.17706 0.818219,-0.19852 2.714879,0.78066 2.76585,0.45874 1.306469,0.29778 3.905994,1.51572 5.617548,2.45734 0.665307,0.11804 2.282967,2.04689 3.077043,2.23736 0.963085,0.96577 2.339304,2.68001 3.195081,3.46872 1.011373,1.45133 1.904708,2.66391 2.722928,4.5096 0.925527,1.93958 1.636439,4.02671 1.754478,6.18896 0.43996,-0.40777 0.214615,3.6109 0.60897,2.76317 0.745787,-1.67937 0.07511,-3.41507 -0.182423,-4.81006 -0.08048,-1.03016 -1.521084,-4.97907 -1.46743,-4.31108 0.394355,1.01405 -1.030152,-2.15152 -1.258181,-2.67196 -0.456057,-0.30314 -1.099902,-1.674 -0.791393,-1.30379 C 45.586162,12.38102 44.69551,11.27039 45.438614,12.29786 44.247501,10.77678 42.581552,8.91767 41.248256,8.15311 39.563528,6.92176 38.828472,6.05793 37.065946,5.44628 35.72192,5.05997 36.223582,4.54758 34.361797,4.12639 32.905098,3.54962 33.776971,3.89837 34.426177,4.2954 32.449037,3.76155 31.231097,2.72335 29.701965,2.97016 32.35246,3.25184 27.295594,2.96716 29.033975,2.88696 26.442499,2.48993 32.022489,3.0989 29.173475,2.71259 27.976996,2.66699 26.85295,2.49261 26.622239,2.447 25.868404,2.442 25.452587,2.32628 25.487462,2.34238 Z m 3.551879,0.53653 c 0.101942,0.0563 0.415816,-0.0402 0,0 z m 2.350034,1.10259 c 0.09658,0.003 0.329971,0.0563 0.101942,0.0617 -0.169009,-0.051 -0.160961,-0.0644 -0.101942,-0.0617 z M 12.251082,6.36916 c -0.09121,-0.005 -0.4185,0.15828 -0.257538,0.25486 -0.0054,0.003 -0.01341,0.0188 -0.02951,0.051 0.02146,0 0.03487,-0.0322 0.03756,-0.0456 0.278999,-0.18779 0.308509,-0.25485 0.252172,-0.26022 z m -3.64309,2.79268 c -1.022104,0.9604 -0.297778,0.47215 0,0 z m 37.525434,4.02135 c 0.01073,0.0241 0.01073,0.0241 0,0 z M 5.225123,13.75192 c -0.0161,0 -0.0617,0.005 -0.152913,0.0402 -0.24949,0.22803 0.225345,-0.0295 0.152913,-0.0402 z m -0.257538,0.41313 c 0.02414,-0.0536 0.01073,-0.0268 -0.112673,0.24413 0.02414,-0.0537 0.08853,-0.18779 0.112673,-0.24413 z M 3.9401155,16.0939 c -0.00268,0.003 -0.010731,0.0107 -0.021462,0.0268 0,0.17169 0.056337,-0.0537 0.021462,-0.0268 z M 3.060194,18.16226 c 0.04024,0.003 0.013413,0.21998 -0.2092496,0.64652 0.056336,-0.43727 0.1690093,-0.64921 0.2092496,-0.64652 z m -0.7189603,1.55059 c -0.00537,0.0134 -0.075115,0.14755 -0.1851054,0.36485 0.136817,-0.27096 0.1904708,-0.37826 0.1851054,-0.36485 z m 46.7968023,3.90331 c 0,0 0.0054,0.0349 0.01341,0.10731 -0.008,-0.0724 -0.01341,-0.10731 -0.01341,-0.10731 z m 0.06975,1.89934 c -0.206567,1.05698 0.134135,0.22267 0,0 z m 0.190471,0.9309 c -0.386307,0.0724 0.327288,0.92552 0,0 z m -0.195836,0.4024 c -0.04829,-0.0188 -0.08853,0.33802 0.04292,0.17706 -0.01073,-0.12072 -0.02683,-0.1717 -0.04292,-0.17706 z m -0.04829,3.77722 c -0.06438,0.12341 -0.0161,0.7592 0,0 z M 1.9415123,30.86478 c -0.00537,-0.10462 -0.00268,-0.0429 0.02951,0.50703 -0.00537,-0.1234 -0.021462,-0.39972 -0.02951,-0.50703 z m 0.4560569,0.70287 c -0.1073075,0.23071 0.4587395,0.69213 0,0 z M 48.867085,31.962 c -0.01878,-0.003 -0.08853,0.25754 -0.211932,0.97113 -0.0778,0.32729 -0.152914,0.65995 -0.270952,0.97919 0.348749,-0.63848 0.533855,-1.94227 0.485567,-1.95032 z M 2.4002528,32.38587 c 0.018779,0.0161 0.064385,0.1851 0.1099902,0.56873 C 2.3922048,32.5978 2.373426,32.3644 2.4002528,32.38587 Z m 46.2656302,1.12941 c -0.02146,-0.0188 -0.107307,0.16096 -0.187788,0.61165 0.169009,-0.36485 0.20925,-0.59019 0.187788,-0.61165 z m -1.027469,1.53718 c -0.008,-0.005 -0.101942,0.16632 -0.07511,0.15023 -0.02414,0.0537 -0.05365,0.14218 -0.09658,0.28436 0.107307,0.17438 0.198519,-0.36216 0.144865,-0.35679 0.01878,-0.0456 0.02951,-0.0751 0.02683,-0.0778 z m -0.07243,0.49898 c -0.02414,0.008 -0.101942,0.16632 -0.265586,0.60628 0.05365,0.3112 0.329971,-0.63043 0.265586,-0.60628 z m -0.426547,0.6814 c -0.04561,-0.0322 -0.523124,0.8987 -0.142182,0.44264 0.126086,-0.31119 0.158278,-0.42923 0.142182,-0.44264 z m 0.01878,0.17706 c -0.17974,0.47752 -0.158279,0.61433 0,0 z m 0.06975,0.25754 c -0.0027,0 -0.05634,0.15291 -0.206567,0.60092 l -0.01073,0.0215 c -0.0027,0.0966 0.228028,-0.62775 0.217298,-0.62507 z m -0.300461,0.39703 c 0,0 -0.0054,0.0188 -0.02146,0.0563 0.01341,-0.0376 0.02146,-0.0563 0.02146,-0.0563 z m -0.710913,1.12941 -0.06707,0.0402 c 0.01341,-0.003 0.02146,-0.003 0.05097,-0.008 0.03219,-0.0215 0.02951,-0.0295 0.0161,-0.0295 z m 0.659942,0.0724 c -0.02414,0.003 -0.07243,0.0322 -0.06975,0.0697 0.09926,-0.0563 0.09658,-0.0751 0.06975,-0.0697 z m -0.563365,0.15559 c -0.453374,0.93894 0.0778,0.40509 0,0 z M 5.882385,38.67673 c -0.0027,0 -0.01341,0.0241 -0.03487,0.0966 l 0.02951,-0.0429 c 0,-0.0188 0.008,-0.051 0.0027,-0.051 z m -0.03487,0.0966 c 0.0027,0.0483 0.01341,0.0349 0.02146,0.0107 z m 40.025699,-0.0885 c -0.04829,0.008 -0.15023,0.13145 -0.321922,0.47215 0.273634,0.0322 0.42923,-0.49362 0.321922,-0.47215 z m -0.10999,0.38094 c -0.182422,0.32997 -0.388989,0.84773 0,0 z m 0.630432,0.0107 c -0.07512,-0.0134 -1.451334,1.45938 -0.488249,0.64921 0.09121,-0.10999 0.169009,-0.20389 0.233394,-0.28437 -0.0054,0.0349 0.0054,0.0563 0.05097,-0.0537 -0.0027,-1.6e-4 -0.0054,0 -0.008,0 0.169009,-0.21461 0.230711,-0.30851 0.211932,-0.31119 z m -0.796758,0.51507 c -0.03219,-0.008 -0.20925,0.19316 -0.292413,0.46948 0.257538,-0.32729 0.31924,-0.46143 0.292413,-0.46948 z m -0.327288,0.50972 c -0.0161,0.003 -0.06707,0.0724 -0.09658,0.19315 0.09926,-0.13682 0.112673,-0.19584 0.09658,-0.19315 z m -0.233394,0.13681 c -0.786028,0.50703 -0.02683,0.21462 0,0 z m -0.10999,0.15828 c -0.24949,0.15291 -0.450692,0.79408 0,0 z m -0.332654,0.0349 c -0.02146,0.0241 -0.405085,0.85041 -0.134134,0.31924 0.10999,-0.24681 0.142183,-0.32729 0.134134,-0.31924 z m -0.431912,0.97918 c -0.008,0 -0.02951,0.0107 -0.07243,0.0456 -0.49898,0.72969 0.134135,-0.0295 0.07243,-0.0456 z m 0.15023,0.21998 c -0.842364,0.89065 -0.214615,0.68677 0,0 z m -0.31924,0.051 c 0,-0.0161 -0.434595,0.4963 -0.35948,0.45606 0.268269,-0.32998 0.35948,-0.44801 0.35948,-0.45606 z m -0.386307,0.059 c -0.319239,-0.0215 -0.912113,1.33866 0.05902,0.0215 -0.0161,-0.0134 -0.03756,-0.0215 -0.05902,-0.0215 z m -0.07243,0.42654 c -0.01341,0 -0.04829,0.0215 -0.107308,0.0644 -1.421824,1.63107 0.252173,-0.0805 0.107308,-0.0644 z M 7.379332,42.75983 c 1.062344,1.20989 0.922845,0.0778 0,0 z m 35.419524,0.005 -0.06438,0.0939 c 0.04292,-0.0617 0.06438,-0.0939 0.06438,-0.0939 z m 0.134135,0.28169 c -0.008,-0.0107 -0.07512,0.0376 -0.233394,0.19315 0.07512,-0.38362 -0.03756,-0.0966 -0.866508,0.72164 0.24949,-0.21729 0.485566,-0.45069 0.713595,-0.69213 -0.630432,1.05161 0.423864,-0.16901 0.386307,-0.22266 z m -34.904449,0.3246 c 0,0 0,0.003 0,0.0107 0.05097,0.059 0.0027,-0.0188 0,-0.0107 z m 34.255238,0.0215 c 0,0 -0.02683,0.0188 -0.08048,0.0617 0.05365,-0.0402 0.08048,-0.0617 0.08048,-0.0617 z m -0.528489,0.60897 c -0.05902,-0.0402 -1.644488,1.39232 -0.445326,0.41582 l 0.410451,-0.3568 -0.04561,0.0617 c 0.06439,-0.0751 0.08853,-0.11267 0.08048,-0.11803 z m 0.531172,0.17706 c -0.03219,-0.008 -0.533855,0.4346 -0.169009,0.2012 0.1395,-0.14486 0.17974,-0.19852 0.169009,-0.2012 z M 40.7466,44.69909 c -0.08048,0 -0.448008,0.70823 -0.0027,0.13682 0.02414,-0.0993 0.02146,-0.13682 0.0027,-0.13682 z m 0.48825,0.0134 c -0.128769,0.003 -0.362163,0.14754 -0.697499,0.51775 1.963727,-1.35207 -1.655218,1.59889 -0.07243,0.60361 l 0.0617,-0.0242 c 0.764566,-0.43996 0.992594,-1.10795 0.70823,-1.09721 z m -0.359481,0.0456 c -0.0054,0.003 -0.0161,0.0134 -0.02683,0.0456 0.05634,0.0268 0.05097,-0.0537 0.02683,-0.0456 z m -1.054296,0.67872 c -0.08316,-0.0241 -0.270951,0.42118 0.03487,0.10731 0,-0.0697 -0.01341,-0.0993 -0.03487,-0.10731 z M 39.719126,46.027 c -0.03487,-0.0134 -0.321922,0.10194 -0.321922,0.20389 0.276316,-0.13682 0.343384,-0.19584 0.321922,-0.20389 z m -26.620309,0.21462 c -0.10999,-0.0188 0.03756,0.2629 0.474836,0.45069 -0.246808,-0.31656 -0.410451,-0.43996 -0.474836,-0.45069 z m 26.094502,0.059 c -0.09389,0.008 -0.281682,0.10462 -0.507028,0.35948 0.579461,-0.14487 0.66799,-0.3729 0.507028,-0.35948 z m -1.099902,0.32997 -0.431912,0.28973 0.421182,-0.20925 -0.05097,-0.0107 z m 0.898701,0.0885 c -0.228029,0.0215 -0.324605,0.38899 0.104625,0.0134 -0.03487,-0.0134 -0.06975,-0.0161 -0.104625,-0.0134 z m -26.539829,0.4802 0.02146,0.1073 c 0.804806,0.54727 1.118681,0.37826 -0.02146,-0.1073 z m 25.971099,0.003 c -0.528489,0.25485 -0.67872,0.37826 0,0 z m -25.429196,0.23876 c 0.07243,0.0322 0.07243,0.0322 0,0 z m 24.154919,0.21193 c -0.02146,0.0268 -0.02146,0.0268 0,0 z m -0.890652,0.0429 c 0,0 -0.01341,0.005 -0.04561,0.0215 0.02951,-0.0134 0.04561,-0.0215 0.04561,-0.0215 z m 1.014056,0.0268 c 0,0 -0.03219,0.0188 -0.101942,0.0617 0.06707,-0.0402 0.101942,-0.0617 0.101942,-0.0617 z m -0.99796,0.008 c -0.09389,0.0376 -0.09389,0.0376 0,0 z m 0.88797,0.0563 c -0.02414,5e-5 -0.20925,0.0858 -0.662624,0.34338 0.311192,-0.10194 0.705547,-0.34338 0.662624,-0.34338 z m -1.20721,0.051 c 0,0 -0.0054,0.003 -0.02146,0.0107 0.01341,-0.008 0.02146,-0.0107 0.02146,-0.0107 z m -0.557999,0.23071 c -0.02951,-0.0483 -0.971133,0.62238 -0.152913,0.16901 0.120721,-0.10999 0.160961,-0.15828 0.152913,-0.16901 z m -1.877881,0.85309 c -0.134134,0.0993 -0.533855,0.0697 0,0 z m -4.305714,1.03015 c -1.317199,-0.0134 -0.853094,0.16901 0,0 z m -0.823585,0.0215 c -0.06707,-0.005 -0.340701,0.0134 -0.912113,0.0993 0.576777,0 1.027469,-0.0858 0.912113,-0.0993 z m 3.868436,0 c -0.324605,0.0107 -0.04561,0.25753 0.177057,0.0107 -0.07243,-0.008 -0.131451,-0.0107 -0.177057,-0.0107 z m -6.124576,0.0349 c 0,0.003 0.01341,0.0241 0.06438,0.0778 0.10999,0.051 -0.05902,-0.0912 -0.06438,-0.0778 z m -5.266116,0.0322 c -0.02951,0.005 -0.07243,0.0483 -0.120721,0.1556 0.219981,0.12072 0.217298,-0.17974 0.120721,-0.1556 z m 9.577195,0.11536 c -0.603605,0.0751 -1.030152,0.3568 0,0 z m 0.262903,0.29509 c -0.03219,0 -0.07512,0.003 -0.128769,0.0107 -1.207209,0.37826 0.622384,-0.0322 0.128769,-0.0107 z m -9.129185,0.34607 c 0,0 0.02683,0.008 0.08048,0.0268 -0.05365,-0.0161 -0.08048,-0.0268 -0.08048,-0.0268 z"
       id="jagged_face"
       inkscape:connector-curvature="0"
       sodipodi:nodetypes="ccccccccccccccccccccccccccccccccccccccccccccccccccccccccccccccccccccccccccccccccccccccccccccccccccccccccccccccccccccccccccccccccccccccccccccccccccccccccccccccccccccccccccccccccccccccccccccccccccccccccccccccccccccccccccccccccccccccccccccccccccccccccccccccccccccccccccccccccccccccccccccccccczccccccczccccccccccccccccccccccccccccscs"
       inkscape:label="#path5494-3" />
    <path
       style="color:#000000;font-style:normal;font-variant:normal;font-weight:normal;font-stretch:normal;font-size:medium;line-height:normal;font-family:sans-serif;font-variant-ligatures:normal;font-variant-position:normal;font-variant-caps:normal;font-variant-numeric:normal;font-variant-alternates:normal;font-feature-settings:normal;text-indent:0;text-align:start;text-decoration:none;text-decoration-line:none;text-decoration-style:solid;text-decoration-color:#000000;letter-spacing:normal;word-spacing:normal;text-transform:none;writing-mode:lr-tb;direction:ltr;text-orientation:mixed;dominant-baseline:auto;baseline-shift:baseline;text-anchor:start;white-space:normal;shape-padding:0;clip-rule:nonzero;display:inline;overflow:visible;visibility:visible;opacity:1;isolation:auto;mix-blend-mode:normal;color-interpolation:sRGB;color-interpolation-filters:linearRGB;solid-color:#000000;solid-opacity:1;vector-effect:none;fill:#0a0000;fill-opacity:0.27000002;fill-rule:nonzero;stroke:none;stroke-width:1.58000004;stroke-linecap:butt;stroke-linejoin:miter;stroke-miterlimit:4;stroke-dasharray:none;stroke-dashoffset:0;stroke-opacity:1;filter:url(#filter2235);color-rendering:auto;image-rendering:auto;shape-rendering:auto;text-rendering:auto;enable-background:accumulate"
       d="m 25.65,2.034 c -1.56,0.18 -3.27,0.14 -4.85,0.78 -1.63,0.27 -3.38,0.64 -4.83,1.53 -2.02,0.5 -3.71,1.76 -5.26,3.05 -1.31,0.9 -2.41,2.07 -3.16,2.72 -0.9,1.24 -1.83,2.59 -2.57,3.82 -0.48,0.92 -0.85,1.94 -1.42,2.73 -0.4,0.9 -1.13,2.22 -1.18,2.81 -0.31,1.85 -0.92,4.04 -0.7,6.2 -0.15,1.61 0.01,3.57 0.29,4.92 0.09,1.27 0.33,2.58 0.94,3.8 0.21,0.99 0.84,2.52 1.15,2.95 0.66,1.39 2.43,3.65 2.63,4.43 0.51,0.77 1.53,1.6 2.22,2.41 0.93,0.67 1.71,1.36 2.87,2.34 0.7,0.09 0.47,0.88 1.32,1.03 0.61,0.32 1.28,0.59 2.14,1.25 0.85,0.58 2.45,0.54 2.8,0.97 1.21,1.11 2.98,-0.25 3.58,0.88 1.58,0.09 3.74,-0.02 5.56,0.02 1.38,-0.22 3.45,0.49 4.09,-0.84 1.22,0.43 2.88,-0.69 4.22,-1.06 0.88,-0.57 1.45,-0.93 2.41,-1.34 0.44,-0.41 1.8,-0.78 1.89,-1.39 1.4,-0.13 1.76,-1.49 2.79,-2.06 0.01,-1.4 2.14,-1.72 1.9,-2.89 0.26,-0.46 1,-0.93 0.42,-1.12 0.14,-0.16 0.54,0.54 1.19,-0.33 0.29,-0.71 1.67,-1.89 0.49,-2.21 -0.24,0.03 1.28,-0.24 0.9,-1.23 0.43,-0.7 0.32,-1.6 0.81,-2.31 0.92,0.29 1.29,-3.69 -0.14,-2.31 -0.01,0.02 -0.02,0.04 -0.04,0.07 a 22.47,22.47 0 0 1 -0.26,1.05 c 0,0.64 0.23,1.18 0,1.35 -0.18,0.01 -0.33,0.07 -0.47,0.15 A 22.47,22.47 0 0 1 26.2,49.264 22.47,22.47 0 0 1 3.78,26.854 22.47,22.47 0 0 1 26.26,4.374 22.47,22.47 0 0 1 45.87,15.924 c 1.08,0.65 1.4,3.21 2.02,4.43 0.23,0.53 0.3,1.27 0.35,1.97 a 22.47,22.47 0 0 1 0.27,1.7 c 0.02,0.05 0.06,0.1 0.09,0.13 0.04,0.24 0.03,0.51 0.01,0.79 a 22.47,22.47 0 0 1 0.09,1.87 22.47,22.47 0 0 1 -0.01,0.22 c 0.06,0.1 0.15,0.2 0.27,0.29 1.27,-0.56 0.98,-2.56 1.2,-3.84 -0.39,-2.46 -0.88,-4.79 -2,-7.12 -0.74,-1.22 -1.31,-2.86 -2.06,-3.71 -0.51,1.05 -0.94,0.21 -0.02,-0.17 -1.36,-1.66 -2.93,-3.59 -4.64,-4.64 -1.49,-1.19 -3.01,-2.41 -4.87,-2.98 -1.37,-1.25 -2.86,-1.1 -4.45,-1.81 -2.07,-0.77 -4.32,-0.7 -6.49,-1.01 z"
       id="path2160"
       inkscape:connector-curvature="0" />
    <path
       inkscape:connector-curvature="0"
       id="path34-6"
       style="fill:none;stroke:#231f20;stroke-width:0.34999999;stroke-linecap:butt;stroke-linejoin:miter;stroke-miterlimit:10;stroke-dasharray:none;stroke-opacity:1"
       d="m 45.94,38.364 c 2,-3.46 3.15,-7.49 3.15,-11.79 0,-4.29 -1.14,-8.32 -3.15,-11.79 -4.07,-7.04 -11.69,-11.78 -20.42,-11.78 -8.73,0 -16.35,4.73 -20.42,11.78 -2,3.46 -3.15,7.49 -3.15,11.79 0,4.29 1.14,8.32 3.15,11.79 4.07,7.04 11.69,11.78 20.42,11.78 8.73,0 16.35,-4.73 20.42,-11.78 z" />
    <path
       inkscape:connector-curvature="0"
       id="hand"
       style="fill:none;stroke:#231f20;stroke-width:0.34999999;stroke-linecap:butt;stroke-linejoin:miter;stroke-miterlimit:10;stroke-dasharray:none;stroke-opacity:1"
       d="M 25.51,26.564 V 2.984"
       inkscape:transform-center-x="-0.05"
       inkscape:transform-center-y="-11.64" />
    <path
       style="opacity:1;fill:#333333;fill-opacity:0.77999998;stroke:none;stroke-width:1;stroke-opacity:1"
       d="m 25.53,2.714 c -8.18,0.73 -12.68,2.76 -16.84,7.56 l 16.84,15.69 z"
       id="pie8"
       inkscape:connector-curvature="0"
       inkscape:label="#path890"
       sodipodi:nodetypes="cccc"
       inkscape:transform-center-x="8.41"
       inkscape:transform-center-y="-12.38" />
    <path
       style="fill:#231f20;fill-opacity:1;fill-rule:nonzero;stroke:none;stroke-width:0.34999999"
       d="m 25.2,3.424 c -0.03,0 0.21,0.19 0.03,0.01 -0.01,0 -0.02,-0.01 -0.03,-0.01 z m 0,0.18 c -0.03,0 -0.05,0.1 0.03,0.36 0.16,-0.13 0.03,-0.37 -0.03,-0.36 z m 0.18,0.28 c -0.01,0 -0.02,0.03 0,0.1 0.08,-0.04 0.02,-0.11 0,-0.1 z m -0.47,0.3 c 0,0 -0.01,0.02 0,0.06 0.08,0.04 0.02,-0.07 0,-0.06 z m 0.13,0.05 c -0.01,0 -0.03,0.03 -0.03,0.11 0.1,0.01 0.08,-0.09 0.05,-0.11 0,0 -0.01,0 -0.01,0 z m -0.16,0.13 c -0.06,0 -0.1,0.18 0.06,0.07 -0.01,-0.05 -0.04,-0.07 -0.06,-0.07 z m 0.1,0.02 c 0.08,0.14 0.07,0.06 0,0 z m 0.13,0.01 c 0,0.02 0.08,0.13 0.1,0.11 -0.08,-0.1 -0.1,-0.13 -0.1,-0.11 z m 0.02,0.33 c 0.13,0.16 0.3,0.03 0,0 z m -0.22,0.06 c -0.02,0 -0.04,0.03 -0.05,0.09 0.2,0.08 0.12,-0.1 0.05,-0.09 z m 0.54,0.04 c -0.09,0.02 -0.39,0.31 0,0.09 0.04,-0.08 0.03,-0.1 0,-0.09 z m -0.47,0.02 c 0.05,0.23 0.09,-0.03 0,0 z m 0.11,0.07 c -0.05,0 -0.09,0.03 0.03,0.09 0.08,-0.07 0.01,-0.1 -0.03,-0.09 z m 0.04,0.09 c -0.01,-0.01 -0.04,0.07 0.01,0.04 0,-0.03 0,-0.04 -0.01,-0.04 z m -0.12,0.05 c -0.26,0.07 0.03,0.09 0,0 z m 0,0.03 c -0.04,0.01 0.02,0.17 0,0 z m -0.25,0.03 c 0,0 0.19,0.15 0.07,0.05 -0.05,-0.04 -0.07,-0.05 -0.07,-0.05 z m 0.23,0.16 c 0,5.3e-4 -0.01,0 -0.01,0.01 0.03,0.06 0.04,0.07 0.05,0.05 0,0.01 0,0.04 10e-4,0.06 -0.01,0 -0.03,0 -0.06,0.04 0.01,0.29 0.1,0.04 0.07,-0.02 0,2.1e-4 0,-2.4e-4 0.01,0 -0.01,-0.11 -0.02,-0.1 -0.03,-0.07 0,-0.01 -0.01,-0.07 -0.03,-0.06 z m 0.26,0.01 c 0,0.3 0.22,0 0,0 z m -0.51,0.05 c -0.15,0 0.2,0.4 0.1,0.02 -0.04,-0.01 -0.07,-0.02 -0.1,-0.02 z m 0.12,0.24 c 0,0 0,0 0.01,0.01 -0.01,-0.01 -0.01,-0.01 -0.01,-0.01 z m 0.15,0.05 c -0.03,0 -0.05,0 -0.03,0.02 0.02,0.02 0.09,0.4 0.04,0 0.34,0.03 0.09,-0.02 -0.01,-0.03 z m -0.08,0.07 c 0,0 0,0 -0.01,0.01 0,-0.01 0.01,-0.01 0.01,-0.01 z m 0.56,0.08 c -0.02,4.5e-4 -0.04,0.1 0.02,0.04 0,-0.03 -0.01,-0.04 -0.02,-0.04 z m -0.45,0.06 c -0.31,0 0.06,0.35 0,0 z m 0.1,0.02 c -0.14,0 0.1,0.33 0.45,0.28 -0.24,-0.21 -0.39,-0.28 -0.45,-0.28 z m -0.26,0.13 c -0.01,0.02 0.23,0.16 0.09,0.02 -0.03,-0.01 -0.06,-0.02 -0.07,-0.02 -0.01,0 -0.02,0 -0.02,0 z m 0.14,5.3e-4 c 0,0 0,0 0,0.01 0.03,-6e-4 0.01,-0.01 0,-0.01 z m -0.11,0.18 c -0.02,0.01 0.06,0.12 0.08,0.02 -0.04,-0.02 -0.07,-0.03 -0.08,-0.02 z m 0.37,0.09 c -0.02,0 -0.06,0.03 0,0.05 0.02,-0.03 0.01,-0.05 0,-0.05 z m -0.05,0.07 v 5.3e-4 c -0.02,0 -0.03,0.02 -0.01,0.06 -0.13,-0.08 -0.23,0 -0.25,0.14 0,-0.02 0,-0.05 -0.05,-0.02 -0.02,0.14 0.04,0.08 0.05,0.03 -0.02,0.15 0.03,0.36 0.24,0.49 -0.37,0.03 -0.19,0.56 -0.17,1.02 0,0 0,0 -0.01,-0.01 -0.17,0.19 -0.01,0.13 0.01,0.06 0,0.16 -0.02,0.31 -0.1,0.42 -0.2,0.9 0.37,1.3 0.06,2.12 0.03,0.05 0.27,0.68 0.25,0.88 -0.04,0.18 -0.01,1.38 -0.22,1.81 0.02,0.18 0.27,0.57 0.29,1.25 0.16,0.53 -0.26,0.81 -0.38,1.01 0.31,0.61 0.25,1.18 0.19,1.89 0.33,0.34 -0.57,1.8 0.36,1.77 -0.59,0.25 -0.23,1.59 -0.39,1.62 -0.06,0.1 -0.03,0.2 0,0.34 0.02,-0.04 0.04,0.05 0,0.02 0.06,0.19 0.14,0.45 0.04,0.86 0.3,0.6 -0.29,0.92 0.06,1.66 -0.1,0.41 -0.17,1.24 -0.09,1.86 l -0.31,0.62 0.38,0.58 0.7,-0.03 0.31,-0.62 -0.38,-0.58 c 0.09,-0.39 0.03,-0.86 0.01,-0.92 0.07,-0.78 0.33,-0.81 -0.01,-1.87 -0.06,-0.49 0.07,-1.17 -0.04,-1.11 0.33,-0.5 -0.29,-0.97 0.11,-0.87 -0.03,0.18 0.32,-0.59 -0.02,-0.58 0.6,-0.24 -0.25,-0.69 0.09,-0.75 -0.04,-0.53 0.01,-0.46 0.09,-0.82 0.07,-0.05 0.06,-0.3 0.04,-0.56 0.15,0.18 0.08,-0.07 0,-5.3e-4 -2.4e-5,-1.6e-4 2.4e-5,-10e-4 0,-10e-4 0,-6e-4 0,0 0,0 -0.02,-0.34 -0.07,-0.71 0.01,-0.71 -0.22,0.07 -0.11,-0.57 -0.08,-0.2 0.52,0.03 -0.29,-0.59 -0.06,-0.96 -0.41,-0.31 0.67,-0.43 0.01,-0.55 0.22,-0.33 0.05,-0.7 -0.09,-1.03 0.21,-0.38 -0.19,-0.77 -0.35,-0.91 0.01,0 0.02,-0.01 0.02,-0.01 0,6.1e-4 0,6.4e-4 0,0 0.88,0.32 -0.36,-1.34 0.41,-0.48 -0.21,-0.67 -0.09,-0.37 -0.18,-1.28 -0.03,-0.21 -0.61,-0.3 0.14,-0.45 -0.14,-0.1 -0.2,-0.58 -0.03,-0.94 -1.86,-0.92 0.96,0.2 0.05,-0.43 -0.61,0.24 0.76,-0.95 -0.71,-0.61 1.32,-0.22 -0.15,-0.66 0.47,-1.39 0.03,0.01 0.05,0.01 0.01,-0.02 0,0 -0.01,0.01 -0.01,0.02 -0.05,-0.01 -0.14,-0.07 -0.24,-0.14 0.03,-0.03 0.06,-0.1 -0.04,-0.09 0,0.02 0,0.03 0,0.05 -0.2,-0.17 -0.35,-0.42 0.05,-0.59 0.23,0.55 -0.21,-0.82 -0.15,-0.83 -0.01,-0.02 -0.03,-0.04 -0.05,-0.05 0.1,-0.05 0.02,-0.1 -0.02,-0.09 z m -0.1,14.97 c 0,0 0,-0.01 0,-0.02 0,0 0,0 0,0.01 0,0 0.01,0.01 0.01,0.01 z M 25,10.66453 c -0.34,0.08 0.05,0.21 0,0 z m 0.45,-4.28 c -0.12,0 0.09,0.14 0.07,0.01 -0.03,0 -0.05,-0.01 -0.07,-0.01 z m 0.1,0.13 c -0.05,0.03 -0.02,0.21 0,0 z m -0.12,0.19 c 0,0 0,0 0,0.01 0,-0.01 0,-0.01 0,-0.01 z m -0.01,0.01 c -0.02,0 -0.03,0.03 0.02,0.12 0.09,-0.04 0.01,-0.12 -0.02,-0.12 z m -0.48,0.16 c -4.77e-4,0 2.91e-4,0.01 0,0.01 0,-0.01 0,-0.02 0,-0.01 z m -0.01,0.1 c -0.02,0.01 0.1,0.16 0.08,0.03 -0.05,-0.03 -0.07,-0.04 -0.08,-0.03 z m 0.09,0.33 c 0.03,0.01 -0.08,0.09 0,0 z m 0.68,0.21 c -0.27,0.05 0.2,0.09 0,0 z m 0.07,0.27 c -0.01,0 -0.02,0.01 -0.04,0.02 0.08,0.16 0.12,-0.05 0.04,-0.02 z m -0.82,0.35 c -0.03,0 -0.06,0.06 0,0.14 0.06,-0.11 0.03,-0.15 0,-0.14 z m 1.03,2.47 c -0.06,0.01 -0.11,0.11 0.09,0.1 0,-0.09 -0.05,-0.11 -0.09,-0.1 z m -0.05,1.01 c 0,6.1e-4 0,0.01 0,0 -6.09e-4,0 0,0 0,0 z m -0.13,0.02 c -0.09,0 -0.11,0.09 0.2,0.11 -0.05,-0.09 -0.14,-0.12 -0.2,-0.11 z m -0.32,1.98 c 0,4.2e-4 0.01,0 0.01,0 0,-6e-4 0,0 -0.01,0 0,0 0,0 5.29e-4,0 z m 0.43,0.1 c -0.01,0.02 -0.01,0.02 0,0 z m 0.31,1.73 c -0.05,0 -0.08,0.18 0.02,0 0,0 -0.01,0 -0.02,0 z m -0.25,0.22 c 0.18,0.18 -0.15,0.09 0,0 z m 0.14,0.81 c -0.07,0.01 -0.21,0.12 0.02,0.02 0.01,-0.02 0,-0.03 -0.02,-0.02 z m 0.19,0.79 c 0,0 0,0 -0.01,0 -0.03,0.01 -0.09,0.13 0,0.12 0.02,-0.08 0.01,-0.11 0,-0.12 z m -0.52,3.51 c -0.03,0.01 0.07,0.06 0,0 z m -0.24,5.24 c 0.03,0.04 0.07,0.07 0.11,0.1 -0.02,0.05 -0.03,0.1 -0.03,0.15 -0.05,0 -0.1,0.02 -0.15,0.05 -0.03,-0.04 -0.07,-0.07 -0.11,-0.1 0.02,-0.05 0.03,-0.1 0.03,-0.15 0.05,0 0.1,-0.02 0.15,-0.05 z"
       id="jagged_hand"
       inkscape:connector-curvature="0"
       sodipodi:nodetypes="cccccccccccccccccccccccccccccccccccccccccccccccccccccccccccccccccccccccccccccccccccccccccccccccccccccccccccccccccccccccccccccccccccccccccccccccccccccccccccccccccccccccccccccccccccccccccccccccccccccccccccccccccccccccccccccccccccccccccc"
       inkscape:transform-center-x="-0.02"
       inkscape:transform-center-y="-11.33" />
    <path
       inkscape:transform-center-y="-7.99"
       inkscape:transform-center-x="-7.81"
       sodipodi:nodetypes="cccccccccccccccccccccccccccccccccccccccccccccccccccccccccccccccccccccccccccccccccccccccccccccccccccccccccccccccccccccccccccccccccccccccccccccccccccccccccccccccccccccccccccccccccccccccccccccccccccccccccccccccccccccccccccccccccccccccccc"
       inkscape:connector-curvature="0"
       id="path2239"
       d="m 41.66,9.974 c -0.02,-0.02 0.01,0.28 0.01,0.03 0,-0.01 -0.01,-0.02 -0.01,-0.03 z m -0.13,0.13 c -0.03,-0.02 -0.11,0.03 -0.23,0.28 0.21,0.01 0.28,-0.24 0.23,-0.28 z m -0.06,0.32 c -0.01,-0.01 -0.04,0 -0.06,0.08 0.09,0.02 0.09,-0.06 0.06,-0.08 z m -0.54,-0.11 c 0,0 -0.02,0 -0.04,0.04 0.02,0.09 0.06,-0.03 0.04,-0.04 z m 0.05,0.13 c -0.01,0 -0.04,0 -0.1,0.05 0.06,0.08 0.12,0 0.11,-0.04 0,0 0,-0.01 0,-0.01 z m -0.21,-0.01 c -0.04,-0.04 -0.2,0.06 0,0.09 0.02,-0.05 0.02,-0.08 0,-0.09 z m 0.05,0.09 c -0.03,0.16 0.01,0.1 0,0 z m 0.08,0.1 c -0.01,0.01 -0.03,0.15 -0.01,0.15 0.01,-0.13 0.01,-0.16 0.01,-0.15 z m -0.22,0.25 c -0.02,0.21 0.18,0.24 0,0 z m -0.2,-0.1 c -0.01,-0.01 -0.05,-0.01 -0.1,0.03 0.08,0.2 0.16,0 0.1,-0.03 z m 0.35,0.41 c -0.08,-0.05 -0.5,-0.05 -0.07,0.06 0.09,-0.02 0.09,-0.05 0.07,-0.06 z m -0.34,-0.31 c -0.12,0.2 0.08,0.04 0,0 z m 0.03,0.13 c -0.03,-0.03 -0.09,-0.03 -0.04,0.09 0.1,0 0.08,-0.05 0.04,-0.09 z m -0.03,0.09 c 0,-0.02 -0.08,0.02 -0.02,0.04 0.01,-0.02 0.02,-0.03 0.02,-0.04 z m -0.12,-0.05 c -0.24,-0.12 -0.04,0.09 0,0 z m -0.02,0.02 c -0.04,-0.02 -0.1,0.14 0,0 z m -0.2,-0.14 c 0,0 0.03,0.24 0.01,0.09 -0.01,-0.07 -0.01,-0.09 -0.01,-0.09 z m 0.05,0.28 c 0,0 -0.01,0 -0.02,0 -0.02,0.06 -0.01,0.08 0,0.07 -0.01,0.01 -0.03,0.03 -0.04,0.04 0,-0.01 -0.02,-0.01 -0.07,-0.01 -0.19,0.21 0.04,0.1 0.07,0.03 0,0 0,0 0.01,0 0.07,-0.09 0.05,-0.09 0.02,-0.07 0.01,-0.01 0.04,-0.05 0.02,-0.07 z m 0.17,0.19 c -0.21,0.21 0.15,0.16 0,0 z m -0.4,-0.32 c -0.11,-0.1 -0.14,0.43 0.05,0.09 -0.01,-0.04 -0.03,-0.07 -0.05,-0.09 z m -0.08,0.25 c 0,0 2.48e-4,0 -7.45e-4,0.02 4.77e-4,-0.01 7.45e-4,-0.02 7.45e-4,-0.02 z m 0.06,0.14 c -0.02,-0.02 -0.04,-0.03 -0.04,-0.01 0,0.03 -0.21,0.34 0.02,0.04 0.22,0.26 0.08,0.05 0.01,-0.02 z m -0.1,0 c 0,0 0,3e-4 -0.02,0 0.01,0 0.02,0 0.02,0 z m 0.33,0.45 c -0.02,-0.02 -0.1,0.04 -0.01,0.05 0.01,-0.03 0.01,-0.04 0.01,-0.05 z m -0.37,-0.27 c -0.22,-0.22 -0.19,0.29 0,0 z m 0.05,0.08 c -0.09,-0.1 -0.16,0.31 0.11,0.52 -0.02,-0.32 -0.07,-0.47 -0.11,-0.52 z m -0.28,-0.09 c -0.02,0 0.05,0.27 0.05,0.08 -0.01,-0.03 -0.02,-0.06 -0.03,-0.07 0,-0.01 -0.01,-0.01 -0.01,-0.01 z m 0.1,0.1 c 0,0 0,-5.9e-4 0,0 0.02,0.02 0.01,0 0,0 z m -0.21,0.04 c -0.03,0 -0.04,0.13 0.03,0.07 -0.01,-0.05 -0.02,-0.07 -0.03,-0.07 z m 0.19,0.33 c -0.01,-0.01 -0.06,-0.01 -0.04,0.03 0.04,-0.01 0.05,-0.02 0.04,-0.03 z m -0.09,0.01 -3.74e-4,3.8e-4 c -0.02,-0.01 -0.04,0 -0.05,0.04 -0.03,-0.15 -0.16,-0.16 -0.28,-0.08 0.02,-0.01 0.03,-0.03 -0.02,-0.06 -0.11,0.08 -0.03,0.09 0.01,0.06 -0.12,0.09 -0.22,0.28 -0.17,0.52 -0.29,-0.24 -0.53,0.25 -0.84,0.59 7.72e-4,0 0,-0.01 7.8e-4,-0.01 -0.26,0.01 -0.11,0.08 -0.03,0.05 -0.11,0.11 -0.23,0.2 -0.37,0.22 -0.78,0.49 -0.65,1.18 -1.45,1.54 -0.01,0.06 -0.28,0.68 -0.44,0.8 -0.15,0.09 -0.99,0.97 -1.44,1.12 -0.1,0.14 -0.21,0.6 -0.68,1.09 -0.26,0.49 -0.76,0.38 -0.98,0.44 -0.21,0.65 -0.65,1.01 -1.19,1.48 0,0.48 -1.68,0.87 -0.99,1.51 -0.6,-0.24 -1.29,0.96 -1.42,0.86 -0.11,0.02 -0.17,0.12 -0.23,0.25 0.05,-0.01 0,0.07 -0.01,0.02 -0.09,0.18 -0.22,0.42 -0.58,0.63 -0.21,0.64 -0.85,0.44 -1.12,1.21 -0.36,0.21 -1,0.76 -1.38,1.24 l -0.66,0.21 -0.14,0.68 0.52,0.46 0.66,-0.21 0.14,-0.68 c 0.34,-0.21 0.63,-0.58 0.66,-0.64 0.6,-0.5 0.81,-0.34 1.31,-1.33 0.3,-0.39 0.88,-0.77 0.75,-0.81 0.59,-0.12 0.48,-0.89 0.7,-0.54 -0.15,0.1 0.65,-0.18 0.39,-0.42 0.6,0.24 0.3,-0.67 0.6,-0.47 0.34,-0.41 0.33,-0.31 0.64,-0.51 0.09,0.01 0.26,-0.16 0.43,-0.36 -0.01,0.24 0.11,0 3.74e-4,-3.8e-4 9.7e-5,-1.3e-4 7.24e-4,-6.8e-4 7.11e-4,-7.1e-4 0,4.2e-4 0,-3.7e-4 0,0 0.22,-0.26 0.45,-0.55 0.51,-0.48 -0.21,-0.1 0.32,-0.48 0.08,-0.2 0.34,0.39 0.21,-0.62 0.63,-0.72 -0.07,-0.51 0.78,0.16 0.4,-0.38 0.39,-0.07 0.53,-0.45 0.65,-0.79 0.42,-0.12 0.4,-0.68 0.39,-0.9 0.01,0 0.02,0 0.02,0 4.49e-4,0.001 5.3e-4,0.001 0,0 0.39,0.85 0.69,-1.21 0.63,-0.05 0.32,-0.62 0.19,-0.33 0.77,-1.03 0.12,-0.17 -0.22,-0.65 0.42,-0.22 -0.03,-0.17 0.26,-0.56 0.64,-0.69 -0.66,-1.97 0.54,0.82 0.34,-0.26 -0.61,-0.26 1.2,-0.13 -0.07,-0.94 1.1,0.77 0.36,-0.57 1.32,-0.65 0.01,0.03 0.03,0.05 0.03,0 -0.01,2.4e-4 -0.01,9.5e-4 -0.03,0 -0.02,-0.04 -0.05,-0.15 -0.07,-0.28 0.04,0 0.11,-0.02 0.03,-0.09 -0.02,0.01 -0.03,0.02 -0.04,0.03 -0.02,-0.27 0.04,-0.55 0.46,-0.37 -0.22,0.55 0.42,-0.73 0.48,-0.7 0,-0.03 0,-0.05 0,-0.08 0.11,0.03 0.09,-0.05 0.05,-0.08 z m -10.65,10.51 c 0,0 0,-0.01 0.01,-0.02 0,8.7e-4 0,0 -0.01,0 -5.9e-4,0 -2.68e-4,0.01 2.92e-4,0.02 z m 7.42,-7.61 c -0.3,-0.17 -0.11,0.19 0,0 z m 3.35,-2.71 c -0.08,-0.08 -0.03,0.17 0.04,0.06 -0.01,-0.02 -0.03,-0.04 -0.04,-0.06 z m -0.02,0.17 c -0.06,-0.01 -0.17,0.13 0,0 z m -0.22,0.05 c 0,0 0,0 -0.01,0.01 0,-0.01 0.01,-0.01 0.01,-0.01 z m -0.02,0 c -0.01,-0.01 -0.04,0 -0.06,0.1 0.1,0.03 0.09,-0.07 0.06,-0.1 z m -0.45,-0.22 c 0,0 0,0.01 0,0.01 0.01,-0.01 0.01,-0.01 0,-0.01 z m -0.08,0.06 c -0.03,0 -0.04,0.18 0.03,0.08 -0.01,-0.06 -0.02,-0.08 -0.03,-0.08 z m -0.16,0.3 c 0.01,0.03 -0.12,0 0,0 z m 0.33,0.63 c -0.23,-0.15 0.07,0.21 0,0 z m -0.13,0.24 c -0.01,0 -0.02,-0.01 -0.05,-0.01 -0.05,0.18 0.12,0.05 0.05,0.01 z m -0.9,-0.25 c -0.03,-0.01 -0.09,0 -0.1,0.1 0.12,-0.03 0.13,-0.08 0.1,-0.1 z m -1.01,2.48 c -0.05,-0.03 -0.16,0 0,0.14 0.06,-0.06 0.04,-0.11 0,-0.14 z m -0.75,0.67 c 0,0 -0.01,0 -9.99e-4,0 0,0 0,0 9.99e-4,0 z m -0.11,-0.07 c -0.07,-0.06 -0.15,-0.01 0.06,0.22 0.02,-0.1 -0.01,-0.19 -0.06,-0.22 z m -1.63,1.17 c 5.98e-4,0.001 0,0.01 0,0.01 0,0 0,0 0,-0.01 6.53e-4,0 0,0 0,0 z m 0.23,0.38 c -0.03,0 -0.03,0 0,0 z m -1,1.45 c -0.04,-0.03 -0.19,0.06 0.01,0.02 0,-0.01 0,-0.01 -0.01,-0.02 z m -0.33,-0.01 c 0,0.26 -0.17,-0.04 0,0 z m -0.47,0.67 c -0.06,-0.04 -0.24,-0.06 7.55e-4,0.04 0.02,-0.01 0.01,-0.02 -7.55e-4,-0.04 z m -0.42,0.7 c 0,0 0,0 -0.01,-0.01 -0.04,-0.01 -0.16,0.02 -0.07,0.09 0.07,-0.04 0.09,-0.06 0.09,-0.08 z m -2.85,2.11 c -0.03,-0.01 0.01,0.09 0,0 z m -3.88,3.53 c 0,0.05 0,0.1 0,0.15 -0.05,0.02 -0.09,0.05 -0.13,0.08 -0.04,-0.03 -0.09,-0.05 -0.14,-0.07 0,-0.05 0,-0.1 0,-0.15 0.05,-0.02 0.09,-0.05 0.13,-0.08 0.04,0.03 0.09,0.05 0.14,0.07 z"
       style="fill:#231f20;fill-opacity:1;fill-rule:nonzero;stroke:none;stroke-width:0.34999999" />
    <path
       style="fill:#231f20;fill-opacity:1;fill-rule:nonzero;stroke:none;stroke-width:0.34999999"
       d="m 48.66,26.254 c 0,-0.03 -0.19,0.21 -0.01,0.03 0,-0.01 0.01,-0.02 0.01,-0.03 z m -0.18,0 c 0,-0.03 -0.1,-0.05 -0.36,0.03 0.13,0.16 0.37,0.03 0.36,-0.03 z m -0.28,0.18 c 0,-0.01 -0.03,-0.02 -0.1,0 0.04,0.08 0.11,0.02 0.1,0 z m -0.3,-0.47 c 0,0 -0.02,-0.01 -0.06,0 -0.04,0.08 0.07,0.02 0.06,0 z m -0.05,0.13 c 0,-0.01 -0.03,-0.03 -0.11,-0.03 -0.01,0.1 0.09,0.08 0.11,0.05 0,0 0,-0.01 0,-0.01 z m -0.13,-0.16 c 0,-0.06 -0.18,-0.1 -0.07,0.06 0.05,-0.01 0.07,-0.04 0.07,-0.06 z m -0.02,0.1 c -0.14,0.08 -0.06,0.07 0,0 z m -0.01,0.13 c -0.02,0 -0.13,0.08 -0.11,0.1 0.1,-0.08 0.13,-0.1 0.11,-0.1 z m -0.33,0.02 c -0.16,0.13 -0.03,0.3 0,0 z m -0.06,-0.22 c 0,-0.02 -0.03,-0.04 -0.09,-0.05 -0.08,0.2 0.1,0.12 0.09,0.05 z m -0.04,0.54 c -0.02,-0.09 -0.31,-0.39 -0.09,0 0.08,0.04 0.1,0.03 0.09,0 z m -0.02,-0.47 c -0.23,0.05 0.03,0.09 0,0 z m -0.07,0.11 c 0,-0.05 -0.03,-0.09 -0.09,0.03 0.07,0.08 0.1,0.01 0.09,-0.03 z m -0.09,0.04 c 0.01,-0.01 -0.07,-0.04 -0.04,0.01 0.03,0 0.04,0 0.04,-0.01 z m -0.05,-0.12 c -0.07,-0.26 -0.09,0.03 0,0 z m -0.03,0 c -0.01,-0.04 -0.17,0.02 0,0 z m -0.03,-0.25 c 0,0 -0.15,0.19 -0.05,0.07 0.04,-0.05 0.05,-0.07 0.05,-0.07 z m -0.16,0.23 c 0,0 0,-0.01 -0.01,-0.01 -0.06,0.03 -0.07,0.04 -0.05,0.05 -0.01,0 -0.04,0 -0.06,0.001 0,-0.01 0,-0.03 -0.04,-0.06 -0.29,0.01 -0.04,0.1 0.02,0.07 1.55e-4,0 3.75e-4,0 0,0.01 0.11,-0.01 0.1,-0.02 0.07,-0.03 0.01,0 0.07,-0.01 0.06,-0.03 z m -0.01,0.26 c -0.3,0 0,0.22 0,0 z m -0.05,-0.51 c 0,-0.15 -0.4,0.2 -0.02,0.1 0.01,-0.04 0.02,-0.07 0.02,-0.1 z m -0.24,0.12 c 0,0 0,0 -0.01,0.01 0.01,-0.01 0.01,-0.01 0.01,-0.01 z m -0.05,0.15 c 9.77e-4,-0.03 0,-0.05 -0.02,-0.03 -0.02,0.02 -0.4,0.09 0,0.04 -0.03,0.34 0.02,0.09 0.02,-0.01 z m -0.07,-0.08 c 0,0 0,0 -0.01,-0.01 0.01,0 0.01,0.01 0.01,0.01 z m -0.08,0.56 c -4.61e-4,-0.02 -0.1,-0.04 -0.04,0.02 0.03,0 0.04,-0.01 0.04,-0.02 z m -0.06,-0.45 c 0,-0.31 -0.35,0.06 0,0 z m -0.02,0.1 c 0,-0.14 -0.33,0.1 -0.28,0.45 0.21,-0.24 0.28,-0.39 0.28,-0.45 z m -0.13,-0.26 c -0.02,-0.01 -0.16,0.23 -0.02,0.09 0.01,-0.03 0.02,-0.06 0.02,-0.07 0,-0.01 0,-0.02 3.68e-4,-0.02 z m -5.51e-4,0.14 c -9.63e-4,0 0,0 0,0 0,0.03 0.01,0.01 0,0 z m -0.18,-0.11 c -0.01,-0.02 -0.12,0.06 -0.02,0.08 0.02,-0.04 0.03,-0.07 0.02,-0.08 z m -0.09,0.37 c 0,-0.02 -0.03,-0.06 -0.05,0 0.03,0.02 0.05,0.01 0.05,0 z m -0.07,-0.05 h -5.32e-4 c 0,-0.02 -0.02,-0.03 -0.06,-0.01 0.08,-0.13 0,-0.23 -0.14,-0.25 0.02,0 0.05,0 0.02,-0.05 -0.14,-0.02 -0.08,0.04 -0.03,0.05 -0.15,-0.02 -0.36,0.04 -0.49,0.24 -0.03,-0.37 -0.56,-0.19 -1.02,-0.17 0,0 0,0 0.01,-0.01 -0.19,-0.17 -0.13,-0.01 -0.06,0.01 -0.16,0 -0.31,-0.02 -0.42,-0.1 -0.9,-0.2 -1.3,0.37 -2.12,0.06 -0.05,0.03 -0.68,0.27 -0.88,0.25 -0.18,-0.04 -1.38,-0.01 -1.81,-0.22 -0.18,0.02 -0.57,0.27 -1.25,0.29 -0.53,0.16 -0.81,-0.26 -1.01,-0.38 -0.61,0.31 -1.18,0.25 -1.89,0.19 -0.34,0.33 -1.8,-0.57 -1.77,0.36 -0.25,-0.59 -1.59,-0.23 -1.62,-0.39 -0.1,-0.06 -0.2,-0.03 -0.34,0.01 0.04,0.02 -0.05,0.04 -0.02,0 -0.19,0.06 -0.45,0.14 -0.86,0.04 -0.6,0.3 -0.92,-0.29 -1.66,0.06 -0.41,-0.1 -1.24,-0.17 -1.86,-0.09 l -0.62,-0.31 -0.58,0.38 0.03,0.7 0.62,0.31 0.58,-0.38 c 0.39,0.09 0.86,0.03 0.92,0.01 0.78,0.07 0.81,0.33 1.87,-0.01 0.49,-0.06 1.17,0.07 1.1,-0.04 0.5,0.33 0.97,-0.29 0.87,0.11 -0.18,-0.03 0.59,0.32 0.58,-0.02 0.24,0.6 0.69,-0.25 0.75,0.09 0.53,-0.04 0.46,0.01 0.82,0.09 0.05,0.07 0.3,0.06 0.56,0.04 -0.18,0.15 0.07,0.08 5.33e-4,0 1.59e-4,-2e-5 9.93e-4,3e-5 10e-4,0 5.98e-4,0 0,0 0,-1.1e-4 0.34,-0.02 0.71,-0.07 0.71,0.01 -0.07,-0.22 0.57,-0.11 0.2,-0.08 -0.03,0.52 0.59,-0.29 0.96,-0.06 0.31,-0.41 0.43,0.67 0.55,0.01 0.33,0.22 0.7,0.05 1.03,-0.09 0.38,0.21 0.77,-0.19 0.91,-0.35 0,0.01 0.01,0.02 0.01,0.02 -3.45e-4,9.4e-4 -2.72e-4,9.6e-4 0,0 -0.32,0.88 1.34,-0.36 0.48,0.41 0.67,-0.21 0.37,-0.09 1.28,-0.18 0.21,-0.03 0.3,-0.61 0.45,0.14 0.1,-0.14 0.58,-0.2 0.94,-0.03 0.92,-1.86 -0.2,0.96 0.43,0.05 -0.24,-0.61 0.95,0.76 0.61,-0.71 0.22,1.32 0.66,-0.15 1.39,0.47 -0.01,0.03 -0.01,0.05 0.02,0.01 0,0 -0.01,-0.01 -0.02,-0.01 0.01,-0.05 0.07,-0.14 0.14,-0.24 0.03,0.03 0.1,0.06 0.09,-0.04 -0.02,0 -0.03,0 -0.05,0 0.17,-0.2 0.42,-0.35 0.59,0.05 -0.55,0.23 0.82,-0.21 0.83,-0.15 0.02,-0.01 0.04,-0.03 0.05,-0.05 0.05,0.1 0.1,0.02 0.09,-0.02 z m -14.97,-0.1 c 0,0 0.01,0 0.02,0 0,0 0,0 -0.01,0 0,0 -0.01,0.01 -0.01,0.01 z m 10.63,-0.13 c -0.08,-0.34 -0.21,0.05 0,0 z m 4.28,0.45 c 0,-0.12 -0.14,0.09 -0.01,0.07 0,-0.03 0.01,-0.05 0.01,-0.07 z m -0.13,0.1 c -0.03,-0.05 -0.21,-0.02 0,0 z M 45.23,26.514 c 0,0 0,0 -0.01,0 0.01,0 0.01,0 0.01,0 z m -0.01,-0.01 c 0,-0.02 -0.03,-0.03 -0.12,0.02 0.04,0.09 0.12,0.01 0.12,-0.02 z m -0.16,-0.48 c 0,-9.2e-4 -0.01,4.3e-4 -0.01,0 0.01,0 0.02,0 0.01,0 z m -0.1,-0.01 c -0.01,-0.02 -0.16,0.1 -0.03,0.08 0.03,-0.05 0.04,-0.07 0.03,-0.08 z m -0.33,0.09 c -0.01,0.03 -0.09,-0.08 0,0 z m -0.21,0.68 c -0.05,-0.27 -0.09,0.2 0,0 z m -0.27,0.07 c 0,-0.01 -0.01,-0.02 -0.02,-0.04 -0.16,0.08 0.05,0.12 0.02,0.04 z m -0.35,-0.82 c 0,-0.03 -0.06,-0.06 -0.14,0 0.11,0.06 0.15,0.03 0.14,0 z m -2.47,1.03 c -0.01,-0.06 -0.11,-0.11 -0.1,0.09 0.09,0 0.11,-0.05 0.1,-0.09 z m -1.01,-0.05 c -1.23e-4,0 -0.01,0 0,0 0,-3e-5 0,0 0,0 z m -0.02,-0.13 c 0,-0.09 -0.09,-0.11 -0.11,0.2 0.09,-0.05 0.12,-0.14 0.11,-0.2 z m -1.98,-0.32 c -2.12e-4,9.8e-4 0,0.01 0,0.01 8.65e-4,0 0,0 0,-0.01 0,0 0,0 0,5.2e-4 z m -0.1,0.43 c -0.02,-0.01 -0.02,-0.01 0,0 z m -1.73,0.31 c 0,-0.05 -0.18,-0.08 0,0.02 0,0 0,-0.01 0,-0.02 z m -0.22,-0.25 c -0.18,0.18 -0.09,-0.15 0,0 z m -0.81,0.14 c -0.01,-0.07 -0.12,-0.21 -0.02,0.02 0.02,0.01 0.03,0 0.02,-0.02 z m -0.79,0.19 c 0,0 0,-0.01 -8.76e-4,-0.01 -0.01,-0.03 -0.13,-0.09 -0.12,0.01 0.08,0.02 0.11,0.01 0.12,0 z m -3.51,-0.52 c -0.01,-0.03 -0.06,0.07 0,0 z m -5.24,-0.24 c -0.04,0.03 -0.07,0.07 -0.1,0.11 -0.05,-0.02 -0.1,-0.03 -0.15,-0.03 0,-0.05 -0.02,-0.1 -0.04,-0.15 0.04,-0.03 0.07,-0.07 0.1,-0.11 0.05,0.02 0.1,0.03 0.15,0.03 0,0.05 0.02,0.1 0.05,0.15 z"
       id="path2241"
       inkscape:connector-curvature="0"
       sodipodi:nodetypes="cccccccccccccccccccccccccccccccccccccccccccccccccccccccccccccccccccccccccccccccccccccccccccccccccccccccccccccccccccccccccccccccccccccccccccccccccccccccccccccccccccccccccccccccccccccccccccccccccccccccccccccccccccccccccccccccccccccccccc"
       inkscape:transform-center-x="-11.33"
       inkscape:transform-center-y="0.02" />
    <path
       style="fill:#231f20;fill-opacity:1;fill-rule:nonzero;stroke:none;stroke-width:0.34999999"
       d="m 42.1,42.714 c 0.02,-0.02 -0.28,0.01 -0.03,0.01 0.01,0 0.02,-0.01 0.03,-0.01 z m -0.13,-0.13 c 0.02,-0.03 -0.03,-0.11 -0.28,-0.23 -0.01,0.21 0.24,0.28 0.28,0.23 z m -0.32,-0.06 c 0.01,-0.01 0,-0.04 -0.08,-0.06 -0.02,0.09 0.06,0.09 0.08,0.06 z m 0.11,-0.54 c 0,0 0,-0.02 -0.04,-0.04 -0.09,0.02 0.03,0.06 0.04,0.04 z m -0.13,0.05 c 0,-0.01 0,-0.04 -0.05,-0.1 -0.08,0.06 0,0.12 0.04,0.11 0,0 0.01,0 0.01,0 z m 0.01,-0.21 c 0.04,-0.04 -0.05,-0.2 -0.09,0 0.05,0.02 0.08,0.02 0.09,0 z m -0.09,0.05 c -0.16,-0.03 -0.1,0.01 0,0 z m -0.1,0.08 c -0.01,-0.01 -0.15,-0.03 -0.15,-0.01 0.13,0.01 0.16,0.01 0.15,0.01 z m -0.25,-0.22 c -0.21,-0.02 -0.24,0.18 0,0 z m 0.1,-0.2 c 0.01,-0.01 0.01,-0.05 -0.03,-0.1 -0.2,0.08 0,0.16 0.03,0.1 z m -0.41,0.35 c 0.05,-0.08 0.05,-0.5 -0.06,-0.07 0.02,0.09 0.05,0.09 0.06,0.07 z m 0.32,-0.36 c -0.2,-0.12 -0.04,0.08 0,0 z m -0.13,0.03 c 0.03,-0.03 0.03,-0.09 -0.09,-0.04 0,0.1 0.05,0.08 0.09,0.04 z m -0.09,-0.03 c 0.02,0 -0.02,-0.08 -0.04,-0.02 0.02,0.01 0.03,0.02 0.04,0.02 z m 0.05,-0.12 c 0.12,-0.24 -0.09,-0.04 0,0 z m -0.02,-0.02 c 0.02,-0.04 -0.14,-0.1 0,0 z m 0.14,-0.2 c 0,0 -0.24,0.03 -0.09,0.01 0.07,-0.01 0.09,-0.01 0.09,-0.01 z m -0.28,0.05 c 0,0 0,-0.01 0,-0.02 -0.06,-0.02 -0.08,-0.01 -0.07,0 -0.01,-0.01 -0.03,-0.03 -0.04,-0.04 0.01,0 0.01,-0.02 0.01,-0.07 -0.21,-0.19 -0.1,0.04 -0.03,0.07 0,0 0,0 0,0.01 0.08,0.07 0.09,0.05 0.07,0.02 0,0.01 0.05,0.04 0.07,0.02 z m -0.19,0.17 c -0.21,-0.21 -0.16,0.15 0,0 z m 0.32,-0.4 c 0.1,-0.11 -0.43,-0.14 -0.09,0.05 0.04,-0.01 0.07,-0.03 0.09,-0.05 z m -0.25,-0.08 c 0,0 0,-6e-5 -0.02,-6.5e-4 0.01,3.8e-4 0.02,6.5e-4 0.02,6.5e-4 z m -0.14,0.06 c 0.02,-0.02 0.03,-0.04 0.01,-0.04 -0.03,0 -0.34,-0.21 -0.04,0.02 -0.26,0.22 -0.05,0.08 0.02,0.01 z m 0,-0.1 c 0,0 -7.65e-4,0 0,-0.02 0,0.01 0,0.02 0,0.02 z m -0.45,0.33 c 0.02,-0.02 -0.04,-0.1 -0.05,-0.01 0.03,0.01 0.04,0.01 0.05,0.01 z m 0.27,-0.37 c 0.22,-0.22 -0.29,-0.19 0,0 z m -0.08,0.05 c 0.1,-0.09 -0.31,-0.16 -0.52,0.11 0.32,-0.02 0.47,-0.07 0.52,-0.11 z m 0.09,-0.28 c 0,-0.02 -0.27,0.05 -0.08,0.05 0.03,-0.01 0.06,-0.02 0.07,-0.03 0.01,0 0.01,-0.01 0.01,-0.01 z m -0.1,0.1 c 0,0 1.04e-4,0 0,0 -0.02,0.02 0,0.01 0,0 z m -0.04,-0.21 c 0,-0.03 -0.13,-0.04 -0.07,0.03 0.05,-0.01 0.07,-0.02 0.07,-0.03 z m -0.33,0.19 c 0.01,-0.01 0.01,-0.06 -0.03,-0.04 0.01,0.04 0.02,0.05 0.03,0.04 z m -0.01,-0.09 -3.74e-4,-3.8e-4 c 0.01,-0.02 0,-0.04 -0.04,-0.05 0.15,-0.03 0.16,-0.16 0.08,-0.28 0.01,0.02 0.03,0.03 0.06,-0.02 -0.08,-0.11 -0.09,-0.03 -0.06,0.01 -0.09,-0.12 -0.28,-0.22 -0.52,-0.17 0.24,-0.29 -0.25,-0.53 -0.59,-0.84 0,6.3e-4 0,0 0.01,0.001 -0.01,-0.26 -0.08,-0.11 -0.05,-0.03 -0.11,-0.11 -0.2,-0.23 -0.22,-0.37 -0.49,-0.78 -1.18,-0.65 -1.54,-1.45 -0.06,-0.01 -0.68,-0.28 -0.8,-0.44 -0.09,-0.16 -0.97,-0.99 -1.12,-1.44 -0.14,-0.1 -0.6,-0.21 -1.09,-0.68 -0.49,-0.26 -0.38,-0.76 -0.44,-0.98 -0.65,-0.21 -1.01,-0.65 -1.48,-1.19 -0.48,0 -0.87,-1.68 -1.51,-0.99 0.24,-0.6 -0.96,-1.29 -0.86,-1.42 -0.02,-0.11 -0.12,-0.17 -0.25,-0.23 0.01,0.05 -0.07,0 -0.02,-0.01 -0.18,-0.09 -0.42,-0.22 -0.63,-0.58 -0.64,-0.21 -0.44,-0.85 -1.21,-1.12 -0.21,-0.36 -0.76,-1 -1.24,-1.38 l -0.21,-0.66 -0.68,-0.14 -0.46,0.52 0.21,0.66 0.68,0.14 c 0.21,0.34 0.58,0.63 0.64,0.66 0.5,0.6 0.34,0.81 1.33,1.31 0.39,0.3 0.77,0.88 0.81,0.75 0.12,0.59 0.89,0.48 0.54,0.7 -0.1,-0.15 0.18,0.65 0.42,0.39 -0.24,0.6 0.67,0.3 0.47,0.6 0.41,0.34 0.31,0.33 0.51,0.64 -0.01,0.09 0.16,0.26 0.36,0.43 -0.24,-0.01 0,0.11 3.75e-4,3.8e-4 1.27e-4,9e-5 6.79e-4,7.3e-4 7.07e-4,7e-4 -2.1e-4,9.8e-4 0,10e-4 0,0 0.26,0.22 0.55,0.45 0.48,0.51 0.1,-0.21 0.48,0.32 0.2,0.08 -0.39,0.34 0.62,0.21 0.72,0.63 0.51,-0.07 -0.16,0.78 0.38,0.4 0.07,0.39 0.45,0.53 0.79,0.65 0.12,0.42 0.68,0.4 0.9,0.39 0,0.01 0,0.02 0,0.02 -9.09e-4,4.2e-4 -8.75e-4,4.9e-4 0,10e-4 -0.85,0.39 1.21,0.69 0.05,0.63 0.62,0.32 0.33,0.19 1.03,0.77 0.17,0.12 0.65,-0.22 0.22,0.42 0.17,-0.03 0.56,0.26 0.69,0.64 1.97,-0.66 -0.82,0.54 0.26,0.34 0.26,-0.61 0.13,1.2 0.94,-0.07 -0.77,1.1 0.57,0.36 0.65,1.32 -0.03,0.01 -0.05,0.03 0,0.03 6.25e-4,-0.01 0,-0.01 0,-0.03 0.04,-0.02 0.15,-0.05 0.28,-0.07 0,0.04 0.02,0.11 0.09,0.03 -0.01,-0.02 -0.02,-0.03 -0.03,-0.04 0.27,-0.02 0.55,0.04 0.37,0.46 -0.55,-0.22 0.73,0.42 0.7,0.48 0.03,0 0.05,10e-4 0.08,0 -0.03,0.11 0.05,0.09 0.08,0.05 z M 29.4,29.934 c 0,0 0.01,0.01 0.02,0.01 -3.48e-4,0 0,0 0,-0.01 0,-4.2e-4 -0.01,-7.4e-4 -0.02,7.6e-4 z m 7.61,7.42 c 0.17,-0.3 -0.19,-0.11 0,0 z m 2.71,3.35 c 0.08,-0.08 -0.17,-0.03 -0.06,0.04 0.02,-0.01 0.04,-0.03 0.06,-0.04 z m -0.17,-0.02 c 0.01,-0.06 -0.13,-0.17 0,0 z m -0.05,-0.22 c 0,0 0,0 -0.01,-0.01 0.01,0 0.01,0.01 0.01,0.01 z m 0,-0.02 c 0.01,-0.01 0,-0.04 -0.1,-0.06 -0.03,0.1 0.07,0.09 0.1,0.06 z m 0.22,-0.45 c 0,0 -0.01,0 -0.01,0 0.01,0.01 0.01,0.01 0.01,0 z m -0.06,-0.08 c 0,-0.03 -0.18,-0.04 -0.08,0.03 0.06,-0.01 0.08,-0.02 0.08,-0.03 z m -0.3,-0.16 c -0.03,0.01 0,-0.12 0,0 z m -0.63,0.33 c 0.15,-0.23 -0.21,0.07 0,0 z m -0.24,-0.13 c 0,-0.01 0.01,-0.02 0.01,-0.05 -0.18,-0.05 -0.05,0.12 -0.01,0.05 z m 0.33,-0.83 c 0.01,-0.03 0,-0.09 -0.1,-0.1 0.03,0.12 0.08,0.13 0.1,0.1 z m -2.48,-1.01 c 0.03,-0.05 0,-0.16 -0.14,0 0.06,0.06 0.11,0.04 0.14,0 z m -0.67,-0.75 c 0,0 0,-0.01 0,-7.7e-4 0,0 0,0 0,7.7e-4 z m 0.07,-0.11 c 0.06,-0.07 0.01,-0.15 -0.22,0.06 0.1,0.02 0.19,-0.01 0.22,-0.06 z m -1.17,-1.63 c -8.41e-4,5.4e-4 -0.01,0 -0.01,0 0,0 0,0 0.01,0 0,9e-4 0,0 0,0 z m -0.38,0.23 c 0,-0.03 0,-0.03 0,0 z m -1.45,-1 c 0.03,-0.04 -0.06,-0.19 -0.02,0.01 0.01,-10e-4 0.01,0 0.02,-0.01 z m 0.01,-0.33 c -0.26,-10e-4 0.04,-0.17 0,0 z m -0.67,-0.47 c 0.04,-0.06 0.06,-0.24 -0.04,6.8e-4 0.01,0.02 0.02,0.01 0.04,-6.8e-4 z m -0.7,-0.42 c 0,0 0,0 0.01,-0.01 0.01,-0.04 -0.02,-0.16 -0.09,-0.07 0.04,0.07 0.06,0.09 0.08,0.09 z m -2.11,-2.85 c 0.01,-0.03 -0.09,0.01 0,0 z m -3.53,-3.88 c -0.05,0 -0.1,0 -0.15,0.01 -0.02,-0.05 -0.05,-0.09 -0.08,-0.13 0.03,-0.04 0.05,-0.09 0.07,-0.14 0.05,0 0.1,0 0.15,0 0.02,0.05 0.05,0.09 0.08,0.13 -0.03,0.04 -0.05,0.09 -0.07,0.14 z"
       id="path2243"
       inkscape:connector-curvature="0"
       sodipodi:nodetypes="cccccccccccccccccccccccccccccccccccccccccccccccccccccccccccccccccccccccccccccccccccccccccccccccccccccccccccccccccccccccccccccccccccccccccccccccccccccccccccccccccccccccccccccccccccccccccccccccccccccccccccccccccccccccccccccccccccccccccc"
       inkscape:transform-center-x="-7.99"
       inkscape:transform-center-y="7.81" />
    <path
       inkscape:transform-center-y="11.33"
       inkscape:transform-center-x="0.02"
       sodipodi:nodetypes="cccccccccccccccccccccccccccccccccccccccccccccccccccccccccccccccccccccccccccccccccccccccccccccccccccccccccccccccccccccccccccccccccccccccccccccccccccccccccccccccccccccccccccccccccccccccccccccccccccccccccccccccccccccccccccccccccccccccccc"
       inkscape:connector-curvature="0"
       id="path2245"
       d="m 25.83,49.714 c 0.03,0 -0.21,-0.19 -0.03,-0.01 0.01,0 0.02,0.01 0.03,0.01 z m 0,-0.18 c 0.03,0 0.05,-0.1 -0.03,-0.36 -0.16,0.13 -0.03,0.37 0.03,0.36 z m -0.18,-0.28 c 0.01,0 0.02,-0.03 0,-0.1 -0.08,0.04 -0.02,0.11 0,0.1 z m 0.47,-0.3 c 0,0 0.01,-0.02 0,-0.06 -0.08,-0.04 -0.02,0.07 0,0.06 z m -0.13,-0.05 c 0.01,0 0.03,-0.03 0.03,-0.11 -0.1,-0.01 -0.08,0.09 -0.05,0.11 0,0 0.01,0 0.01,0 z m 0.16,-0.13 c 0.06,0 0.1,-0.18 -0.06,-0.07 0.01,0.05 0.04,0.07 0.06,0.07 z m -0.1,-0.02 c -0.08,-0.14 -0.07,-0.06 0,0 z m -0.13,-0.01 c 0,-0.02 -0.08,-0.13 -0.1,-0.11 0.08,0.1 0.1,0.13 0.1,0.11 z m -0.02,-0.33 c -0.13,-0.16 -0.3,-0.03 0,0 z m 0.22,-0.06 c 0.02,0 0.04,-0.03 0.05,-0.09 -0.2,-0.08 -0.12,0.1 -0.05,0.09 z m -0.54,-0.04 c 0.09,-0.02 0.39,-0.31 0,-0.09 -0.04,0.08 -0.03,0.1 0,0.09 z m 0.47,-0.02 c -0.05,-0.23 -0.09,0.03 0,0 z m -0.11,-0.07 c 0.05,0 0.09,-0.03 -0.03,-0.09 -0.08,0.07 -0.01,0.1 0.03,0.09 z m -0.04,-0.09 c 0.01,0.01 0.04,-0.07 -0.01,-0.04 0,0.03 0,0.04 0.01,0.04 z m 0.12,-0.05 c 0.26,-0.07 -0.03,-0.09 0,0 z m 0,-0.03 c 0.04,-0.01 -0.02,-0.17 0,0 z m 0.25,-0.03 c 0,0 -0.19,-0.15 -0.07,-0.05 0.05,0.04 0.07,0.05 0.07,0.05 z m -0.23,-0.16 c 0,-8.4e-4 0.01,0 0.01,-0.01 -0.03,-0.06 -0.04,-0.07 -0.05,-0.05 0,-0.01 0,-0.04 -9.6e-4,-0.06 0.01,0 0.03,0 0.06,-0.04 -0.01,-0.29 -0.1,-0.04 -0.07,0.02 0,6.1e-4 0,6.2e-4 -0.01,0 0.01,0.11 0.02,0.1 0.03,0.07 0,0.01 0.01,0.07 0.03,0.06 z m -0.26,-0.01 c 0,-0.3 -0.22,0 0,0 z m 0.51,-0.05 c 0.15,0 -0.2,-0.4 -0.1,-0.02 0.04,0.01 0.07,0.02 0.1,0.02 z m -0.12,-0.24 c 0,0 0,0 -0.01,-0.01 0.01,0.01 0.01,0.01 0.01,0.01 z m -0.15,-0.05 c 0.03,0 0.05,0 0.03,-0.02 -0.02,-0.02 -0.09,-0.4 -0.04,0 -0.34,-0.03 -0.09,0.02 0.01,0.02 z m 0.08,-0.07 c 0,0 0,0 0.01,-0.01 0,0.01 -0.01,0.01 -0.01,0.01 z m -0.56,-0.08 c 0.02,-5.7e-4 0.04,-0.1 -0.02,-0.04 0,0.03 0.01,0.04 0.02,0.04 z m 0.45,-0.06 c 0.31,0 -0.06,-0.35 0,0 z m -0.1,-0.02 c 0.14,0 -0.1,-0.33 -0.45,-0.28 0.24,0.21 0.39,0.28 0.45,0.28 z m 0.26,-0.13 c 0.01,-0.02 -0.23,-0.16 -0.09,-0.02 0.03,0.01 0.06,0.02 0.07,0.02 0.01,0 0.02,0 0.02,6.7e-4 z m -0.14,-5.6e-4 c 0,0 0,0 0,-0.01 -0.03,0.001 -0.01,0.01 0,0.01 z m 0.11,-0.18 c 0.02,-0.01 -0.06,-0.12 -0.08,-0.02 0.04,0.02 0.07,0.03 0.08,0.02 z m -0.37,-0.09 c 0.02,8.4e-4 0.06,-0.03 0,-0.05 -0.02,0.03 -0.01,0.05 0,0.05 z m 0.05,-0.07 3e-6,-5.2e-4 c 0.02,0 0.03,-0.02 0.01,-0.06 0.13,0.08 0.23,0 0.25,-0.14 0,0.02 0,0.05 0.05,0.02 0.02,-0.14 -0.04,-0.08 -0.05,-0.03 0.02,-0.15 -0.04,-0.36 -0.24,-0.49 0.37,-0.03 0.19,-0.56 0.17,-1.02 0,0 0,0 0.01,0.01 0.17,-0.19 0.01,-0.13 -0.01,-0.06 0,-0.16 0.02,-0.31 0.1,-0.42 0.2,-0.9 -0.37,-1.3 -0.06,-2.12 -0.03,-0.05 -0.27,-0.68 -0.25,-0.88 0.04,-0.18 0.01,-1.38 0.22,-1.81 -0.02,-0.18 -0.27,-0.57 -0.29,-1.25 -0.16,-0.53 0.26,-0.81 0.38,-1.01 -0.31,-0.61 -0.25,-1.18 -0.19,-1.89 -0.33,-0.34 0.57,-1.8 -0.36,-1.77 0.59,-0.25 0.23,-1.59 0.39,-1.62 0.06,-0.1 0.03,-0.2 -0.01,-0.34 -0.02,0.04 -0.04,-0.05 0,-0.02 -0.06,-0.19 -0.14,-0.45 -0.04,-0.86 -0.3,-0.6 0.29,-0.92 -0.06,-1.66 0.1,-0.41 0.17,-1.24 0.09,-1.86 l 0.31,-0.62 -0.38,-0.58 -0.7,0.03 -0.31,0.62 0.38,0.58 c -0.09,0.39 -0.03,0.86 -0.01,0.92 -0.07,0.78 -0.33,0.81 0.01,1.87 0.06,0.49 -0.07,1.17 0.04,1.1 -0.33,0.5 0.29,0.97 -0.11,0.87 0.03,-0.18 -0.32,0.59 0.02,0.58 -0.6,0.24 0.25,0.69 -0.09,0.75 0.04,0.53 -0.01,0.46 -0.09,0.82 -0.07,0.05 -0.06,0.3 -0.04,0.56 -0.15,-0.18 -0.08,0.07 1.2e-5,5.3e-4 1.5e-5,1.6e-4 -3.6e-5,9.9e-4 -5e-6,10e-4 -8.41e-4,5.4e-4 2.41e-4,0 -6.36e-4,0 0.02,0.34 0.07,0.71 -0.01,0.71 0.22,-0.07 0.11,0.57 0.08,0.2 -0.52,-0.03 0.29,0.59 0.06,0.96 0.41,0.31 -0.67,0.43 -0.01,0.55 -0.22,0.33 -0.05,0.7 0.09,1.03 -0.21,0.38 0.19,0.77 0.35,0.91 -0.01,0 -0.02,0.01 -0.02,0.01 -9.46e-4,-3.4e-4 -9.64e-4,-2.7e-4 0,0 -0.88,-0.32 0.36,1.34 -0.41,0.48 0.21,0.67 0.09,0.37 0.18,1.28 0.03,0.21 0.61,0.3 -0.14,0.45 0.14,0.1 0.2,0.58 0.03,0.94 1.86,0.92 -0.96,-0.2 -0.05,0.43 0.61,-0.24 -0.76,0.95 0.71,0.61 -1.32,0.22 0.15,0.66 -0.47,1.39 -0.03,-0.01 -0.05,-0.01 -0.01,0.02 0,0 0.01,-0.01 0.01,-0.02 0.05,0.01 0.14,0.07 0.24,0.14 -0.03,0.03 -0.06,0.1 0.04,0.09 0,-0.02 0,-0.03 0,-0.05 0.2,0.17 0.35,0.42 -0.05,0.59 -0.23,-0.55 0.21,0.82 0.15,0.83 0.01,0.02 0.03,0.04 0.05,0.05 -0.1,0.05 -0.02,0.1 0.02,0.09 z m 0.1,-14.97 c 0,0 0,0.01 0,0.02 0,0 0,0 0,-0.01 0,0 -0.01,-0.01 -0.01,-0.01 z m 0.13,10.63 c 0.34,-0.08 -0.05,-0.21 0,0 z m -0.45,4.28 c 0.12,0 -0.09,-0.14 -0.07,-0.01 0.03,0 0.05,0.01 0.07,0.01 z m -0.1,-0.13 c 0.05,-0.03 0.02,-0.21 0,0 z m 0.12,-0.19 c 0,0 0,0 0,-0.01 0,0.01 0,0.01 0,0.01 z m 0.01,-0.01 c 0.02,0 0.03,-0.03 -0.02,-0.12 -0.09,0.04 -0.01,0.12 0.02,0.12 z m 0.48,-0.16 c 0,0 -8.85e-4,-0.01 0,-0.01 0,0.01 0,0.02 0,0.01 z m 0.01,-0.1 c 0.02,-0.01 -0.1,-0.16 -0.08,-0.03 0.05,0.03 0.07,0.04 0.08,0.03 z m -0.09,-0.33 c -0.03,-0.01 0.08,-0.09 0,0 z m -0.68,-0.21 c 0.27,-0.05 -0.2,-0.09 0,0 z m -0.07,-0.27 c 0.01,0 0.02,-0.01 0.04,-0.02 -0.08,-0.16 -0.12,0.05 -0.04,0.02 z m 0.82,-0.35 c 0.03,0 0.06,-0.06 0,-0.14 -0.06,0.11 -0.03,0.15 0,0.14 z m -1.03,-2.47 c 0.06,-0.01 0.11,-0.11 -0.09,-0.1 0,0.09 0.05,0.11 0.09,0.1 z m 0.05,-1.01 c 0,7e-5 0,-0.01 0,0 -4.49e-4,0 0,0 0,0 z m 0.13,-0.02 c 0.09,0 0.11,-0.09 -0.2,-0.11 0.05,0.09 0.14,0.12 0.2,0.11 z m 0.32,-1.98 c -9.79e-4,-2.1e-4 -0.01,0 -0.01,0 0,6.8e-4 0,0 0.01,0 0,0 0,0 -7.71e-4,0 z m -0.43,-0.1 c 0.01,-0.02 0.01,-0.02 0,0 z m -0.31,-1.73 c 0.05,0 0.08,-0.18 -0.02,0 0,0 0.01,0 0.02,0 z m 0.25,-0.22 c -0.18,-0.18 0.15,-0.09 0,0 z m -0.14,-0.81 c 0.07,-0.01 0.21,-0.12 -0.02,-0.02 -0.01,0.02 0,0.03 0.02,0.02 z m -0.19,-0.79 c 0,0 0.01,0 0.01,-9.4e-4 0.03,-0.01 0.09,-0.13 -0.01,-0.12 -0.02,0.08 -0.01,0.11 0,0.12 z m 0.52,-3.51 c 0.03,-0.01 -0.07,-0.06 0,0 z m 0.24,-5.24 c -0.03,-0.04 -0.07,-0.07 -0.11,-0.1 0.02,-0.05 0.03,-0.1 0.03,-0.15 0.05,0 0.1,-0.02 0.15,-0.04 0.03,0.04 0.07,0.07 0.11,0.1 -0.02,0.05 -0.03,0.1 -0.03,0.15 -0.05,0 -0.1,0.02 -0.15,0.05 z"
       style="fill:#231f20;fill-opacity:1;fill-rule:nonzero;stroke:none;stroke-width:0.34999999" />
    <path
       inkscape:transform-center-y="-0.02"
       inkscape:transform-center-x="11.33"
       sodipodi:nodetypes="cccccccccccccccccccccccccccccccccccccccccccccccccccccccccccccccccccccccccccccccccccccccccccccccccccccccccccccccccccccccccccccccccccccccccccccccccccccccccccccccccccccccccccccccccccccccccccccccccccccccccccccccccccccccccccccccccccccccccc"
       inkscape:connector-curvature="0"
       id="path2247"
       d="m 2.37,26.884 c 0,0.03 0.19,-0.21 0.01,-0.03 0,0.01 -0.01,0.02 -0.01,0.03 z m 0.18,0 c 0,0.03 0.1,0.05 0.36,-0.03 -0.13,-0.16 -0.37,-0.03 -0.36,0.03 z m 0.28,-0.18 c 0,0.01 0.03,0.02 0.1,0 -0.04,-0.08 -0.11,-0.02 -0.1,0 z m 0.3,0.47 c 0,0 0.02,0.01 0.06,0 0.04,-0.08 -0.07,-0.02 -0.06,0 z m 0.05,-0.13 c 0,0.01 0.03,0.03 0.11,0.03 0.01,-0.1 -0.09,-0.08 -0.11,-0.05 0,0 0,0.01 0,0.01 z m 0.13,0.16 c 0,0.06 0.18,0.1 0.07,-0.06 -0.05,0.01 -0.07,0.04 -0.07,0.06 z m 0.02,-0.1 c 0.14,-0.08 0.06,-0.07 0,0 z m 0.01,-0.13 c 0.02,0 0.13,-0.08 0.11,-0.1 -0.1,0.08 -0.13,0.1 -0.11,0.1 z m 0.33,-0.02 c 0.16,-0.13 0.03,-0.3 0,0 z m 0.06,0.22 c 0,0.02 0.03,0.04 0.09,0.05 0.08,-0.2 -0.1,-0.12 -0.09,-0.05 z m 0.04,-0.54 c 0.02,0.09 0.31,0.39 0.09,0 -0.08,-0.04 -0.1,-0.03 -0.09,0 z m 0.02,0.47 c 0.23,-0.05 -0.03,-0.09 0,0 z m 0.07,-0.11 c 0,0.05 0.03,0.09 0.09,-0.03 -0.07,-0.08 -0.1,-0.01 -0.09,0.03 z m 0.09,-0.04 c -0.01,0.02 0.07,0.04 0.04,-0.01 -0.03,0 -0.04,0.01 -0.04,0.01 z M 4,27.074 c 0.07,0.26 0.09,-0.03 0,0 z m 0.03,-0.001 c 0.01,0.04 0.17,-0.02 0,0 z m 0.03,0.25 c 0,0 0.15,-0.19 0.05,-0.07 -0.04,0.05 -0.05,0.08 -0.05,0.07 z m 0.16,-0.23 c 7.51e-5,0 0,0.01 0.01,0.01 0.06,-0.03 0.07,-0.04 0.05,-0.05 0.01,0 0.04,0 0.06,-0.001 0,0.01 0,0.03 0.04,0.06 0.29,-0.01 0.04,-0.1 -0.02,-0.07 2.22e-4,0 -6.19e-4,0 0,-0.01 -0.11,0.01 -0.1,0.02 -0.07,0.03 -0.01,0 -0.07,0.01 -0.06,0.03 z m 0.01,-0.26 c 0.3,0 0,-0.22 0,0 z m 0.05,0.51 c 0,0.15 0.4,-0.2 0.02,-0.1 -0.01,0.04 -0.02,0.07 -0.02,0.1 z m 0.24,-0.12 c 0,0 0,0 0.01,-0.01 -0.01,0.01 -0.01,0.01 -0.01,0.01 z m 0.05,-0.15 c 0,0.03 0,0.05 0.02,0.03 0.03,-0.01 0.4,-0.09 0,-0.04 0.03,-0.34 -0.02,-0.09 -0.03,0.01 z m 0.07,0.08 c 0,0 0,0 0.01,0.01 -0.01,0 -0.01,-0.01 -0.01,-0.01 z m 0.08,-0.56 c 5.75e-4,0.02 0.1,0.04 0.04,-0.02 -0.03,0 -0.04,0.01 -0.04,0.02 z m 0.06,0.45 c 0,0.31 0.35,-0.06 0,0 z m 0.02,-0.1 c 0,0.14 0.33,-0.1 0.28,-0.45 -0.21,0.24 -0.28,0.39 -0.28,0.45 z m 0.13,0.26 c 0.02,0.01 0.16,-0.23 0.02,-0.09 -0.01,0.03 -0.02,0.06 -0.02,0.07 0,0.01 0,0.02 3.12e-4,0.02 z m 5.87e-4,-0.14 c 0,0 0,0 0.01,0 -9.43e-4,-0.03 -0.01,-0.01 -0.01,0 z m 0.18,0.11 c 0.01,0.02 0.12,-0.06 0.02,-0.08 -0.02,0.04 -0.03,0.07 -0.02,0.08 z m 0.09,-0.37 c -7.49e-4,0.02 0.03,0.06 0.05,0 -0.03,-0.02 -0.05,-0.01 -0.05,0 z m 0.07,0.05 h 5.32e-4 c 0,0.02 0.02,0.03 0.06,0.01 -0.08,0.13 0,0.23 0.14,0.25 -0.02,0 -0.05,0 -0.02,0.05 0.14,0.02 0.08,-0.04 0.03,-0.05 0.15,0.02 0.36,-0.03 0.49,-0.24 0.03,0.37 0.56,0.19 1.02,0.17 0,0 0,0 -0.01,0.01 0.19,0.17 0.13,0.01 0.06,-0.01 0.16,0 0.31,0.02 0.42,0.1 0.9,0.2 1.3,-0.37 2.12,-0.06 0.05,-0.03 0.68,-0.27 0.88,-0.25 0.18,0.04 1.38,0.01 1.81,0.22 0.18,-0.02 0.57,-0.27 1.25,-0.29 0.53,-0.16 0.81,0.26 1.01,0.38 0.61,-0.31 1.18,-0.25 1.89,-0.19 0.34,-0.33 1.8,0.57 1.77,-0.36 0.25,0.59 1.59,0.23 1.62,0.39 0.1,0.06 0.2,0.03 0.34,-0.01 -0.04,-0.02 0.05,-0.04 0.02,0 0.19,-0.06 0.45,-0.14 0.86,-0.04 0.6,-0.3 0.92,0.29 1.66,-0.06 0.41,0.1 1.24,0.17 1.86,0.09 l 0.62,0.31 0.58,-0.38 -0.03,-0.7 -0.62,-0.31 -0.58,0.38 c -0.39,-0.09 -0.86,-0.03 -0.92,-0.01 -0.78,-0.07 -0.81,-0.33 -1.87,0.01 -0.49,0.06 -1.17,-0.07 -1.11,0.04 -0.5,-0.33 -0.97,0.29 -0.87,-0.11 0.18,0.03 -0.59,-0.32 -0.58,0.02 -0.24,-0.6 -0.69,0.25 -0.75,-0.09 -0.53,0.04 -0.46,-0.01 -0.82,-0.09 -0.05,-0.07 -0.3,-0.06 -0.56,-0.04 0.18,-0.15 -0.07,-0.08 -5.27e-4,1e-5 -1.52e-4,3e-5 -0.001,-2e-5 -9.91e-4,0 -3.42e-4,-9.4e-4 0,0 0,-1.1e-4 -0.34,0.02 -0.71,0.07 -0.71,-0.01 0.07,0.22 -0.57,0.11 -0.2,0.08 0.03,-0.52 -0.59,0.29 -0.96,0.06 -0.31,0.41 -0.43,-0.67 -0.55,-0.01 -0.33,-0.22 -0.7,-0.05 -1.03,0.09 -0.38,-0.21 -0.77,0.19 -0.91,0.35 0,-0.01 -0.01,-0.02 -0.01,-0.02 5.97e-4,-0.001 5.75e-4,-0.001 0,0 0.32,-0.88 -1.34,0.36 -0.48,-0.41 -0.67,0.21 -0.37,0.09 -1.28,0.18 -0.21,0.03 -0.3,0.61 -0.45,-0.14 -0.1,0.14 -0.58,0.2 -0.94,0.03 -0.92,1.86 0.2,-0.96 -0.43,-0.05 0.24,0.61 -0.95,-0.76 -0.61,0.71 -0.22,-1.32 -0.66,0.15 -1.39,-0.47 0.01,-0.03 0.01,-0.05 -0.02,-0.01 0,0 0.01,0.01 0.02,0.01 -0.01,0.05 -0.07,0.14 -0.14,0.24 -0.03,-0.03 -0.1,-0.06 -0.09,0.04 0.02,0 0.03,0 0.05,0 -0.17,0.2 -0.42,0.35 -0.59,-0.05 0.55,-0.23 -0.82,0.21 -0.83,0.15 -0.02,0.02 -0.04,0.03 -0.05,0.05 -0.05,-0.1 -0.1,-0.02 -0.09,0.02 z m 14.97,0.1 c 0,0 -0.01,0 -0.02,0 0,0 0,0 0.01,0 0,0 0.01,-0.01 0.01,-0.01 z m -10.63,0.13 c 0.08,0.34 0.21,-0.05 0,0 z m -4.28,-0.45 c 0,0.12 0.14,-0.09 0.01,-0.07 0,0.03 -0.01,0.05 -0.01,0.07 z m 0.13,-0.1 c 0.03,0.05 0.21,0.02 0,0 z m 0.19,0.12 c 0,0 0,0 0.01,0 -0.01,0 -0.01,0 -0.01,0 z m 0.01,0.01 c 0,0.02 0.03,0.03 0.12,-0.02 -0.04,-0.09 -0.12,-0.01 -0.12,0.02 z m 0.16,0.48 c 0,10e-6 0.01,3.2e-4 0.01,0 -0.01,0 -0.02,0 -0.01,0 z M 6.09,27.124 c 0.01,0.02 0.16,-0.1 0.03,-0.08 -0.03,0.05 -0.04,0.07 -0.03,0.08 z m 0.33,-0.09 c 0.01,-0.03 0.09,0.08 0,0 z m 0.21,-0.68 c 0.05,0.27 0.09,-0.2 0,0 z m 0.27,-0.07 c 0,0.01 0.01,0.02 0.02,0.04 0.16,-0.08 -0.05,-0.12 -0.02,-0.04 z m 0.35,0.82 c 0,0.03 0.06,0.06 0.14,0 -0.11,-0.06 -0.15,-0.03 -0.14,0 z m 2.47,-1.03 c 0.01,0.06 0.11,0.11 0.1,-0.09 -0.09,0 -0.11,0.05 -0.1,0.09 z m 1.01,0.05 c 9.16e-4,0 0.01,0 0,0 0,9.7e-4 0,0 0,0 z m 0.02,0.13 c 0,0.09 0.09,0.11 0.11,-0.2 -0.09,0.05 -0.12,0.14 -0.11,0.2 z m 1.98,0.32 c 4.56e-4,-0.001 0,-0.01 0,-0.01 -4.44e-4,0 0,0 0,0.01 0,0 0,0 0,-6.9e-4 z m 0.1,-0.43 c 0.02,0.01 0.02,0.01 0,0 z m 1.73,-0.31 c 0,0.05 0.18,0.08 0,-0.02 0,0.01 0,0.01 0,0.02 z m 0.22,0.25 c 0.18,-0.18 0.09,0.15 0,0 z m 0.81,-0.14 c 0.01,0.07 0.12,0.21 0.02,-0.03 -0.02,-0.01 -0.03,0 -0.02,0.03 z m 0.85,-0.21 c 0,0 0,0.01 0,0.01 0.01,0.03 0.13,0.09 0.12,-0.01 -0.08,-0.02 -0.11,-0.01 -0.12,0 z m 3.51,0.52 c 0.01,0.04 0.06,-0.07 0,0 z m 5.24,0.24 c 0.04,-0.03 0.07,-0.07 0.1,-0.11 0.05,0.02 0.1,0.03 0.15,0.03 0,0.05 0.02,0.1 0.05,0.15 -0.04,0.03 -0.07,0.07 -0.1,0.11 -0.05,-0.02 -0.1,-0.03 -0.15,-0.03 0,-0.05 -0.02,-0.1 -0.05,-0.15 z"
       style="fill:#231f20;fill-opacity:1;fill-rule:nonzero;stroke:none;stroke-width:0.34999999" />
    <path
       style="fill:#231f20;fill-opacity:1;fill-rule:nonzero;stroke:none;stroke-width:0.34999999"
       d="m 8.92,10.424 c -0.02,0.02 0.28,-0.01 0.03,-0.01 -0.01,0 -0.02,0.01 -0.03,0.01 z m 0.13,0.13 c -0.02,0.03 0.03,0.11 0.28,0.23 0.01,-0.21 -0.24,-0.28 -0.28,-0.23 z m 0.32,0.06 c -0.01,0.01 0,0.04 0.08,0.06 0.02,-0.09 -0.06,-0.09 -0.08,-0.06 z m -0.11,0.54 c 0,0 0,0.02 0.04,0.04 0.09,-0.02 -0.03,-0.06 -0.04,-0.04 z m 0.13,-0.05 c 0,0.01 0,0.04 0.05,0.1 0.08,-0.06 0,-0.12 -0.04,-0.11 0,0.001 -0.01,0 -0.01,0.01 z m -0.01,0.21 c -0.04,0.04 0.06,0.2 0.09,0 -0.05,-0.02 -0.08,-0.02 -0.09,0 z m 0.09,-0.05 c 0.16,0.03 0.1,-0.01 0,0 z m 0.1,-0.08 c 0.01,0.01 0.15,0.03 0.15,0.01 -0.13,-0.01 -0.16,-0.01 -0.15,-0.01 z m 0.25,0.22 c 0.21,0.02 0.24,-0.18 0,0 z m -0.1,0.2 c -0.01,0.01 0,0.05 0.03,0.1 0.2,-0.08 0,-0.16 -0.03,-0.1 z m 0.41,-0.35 c -0.05,0.08 -0.05,0.5 0.06,0.07 -0.02,-0.09 -0.05,-0.09 -0.06,-0.07 z m -0.31,0.34 c 0.2,0.12 0.04,-0.08 0,0 z m 0.13,-0.03 c -0.03,0.03 -0.03,0.09 0.09,0.04 0,-0.1 -0.05,-0.08 -0.09,-0.04 z m 0.09,0.03 c -0.02,0 0.02,0.08 0.04,0.02 -0.02,-0.02 -0.03,-0.02 -0.04,-0.02 z m -0.05,0.12 c -0.12,0.24 0.09,0.04 0,0 z m 0.02,0.02 c -0.02,0.04 0.14,0.1 0,0 z m -0.14,0.2 c 0,0 0.24,-0.03 0.09,-0.01 -0.07,0.01 -0.09,0.01 -0.09,0.01 z m 0.28,-0.05 c 0,0 0,0.01 0,0.02 0.06,0.02 0.08,0.01 0.07,0 0.01,0.01 0.02,0.03 0.04,0.04 -0.01,0 -0.01,0.02 -0.01,0.07 0.21,0.19 0.1,-0.04 0.03,-0.07 0,0 0,0 0,-0.01 -0.09,-0.07 -0.09,-0.05 -0.07,-0.02 -0.01,-0.01 -0.05,-0.04 -0.07,-0.02 z m 0.19,-0.17 c 0.21,0.21 0.16,-0.15 0,0 z m -0.32,0.4 c -0.1,0.11 0.43,0.14 0.09,-0.05 -0.04,0.01 -0.07,0.03 -0.09,0.05 z m 0.25,0.08 c 0,0 0,-1.7e-4 0.02,4.2e-4 -0.01,-6.4e-4 -0.02,-4.2e-4 -0.02,-4.2e-4 z m 0.14,-0.06 c -0.02,0.02 -0.03,0.04 -0.01,0.04 0.03,0 0.34,0.21 0.04,-0.02 0.26,-0.22 0.05,-0.08 -0.02,-0.01 z m 0,0.1 c 0,0 5.56e-4,0 0,0.02 0,-0.01 0,-0.02 0,-0.02 z m 0.45,-0.33 c -0.01,0.02 0.04,0.1 0.05,0.01 -0.03,-0.01 -0.04,-0.01 -0.05,-0.01 z m -0.27,0.37 c -0.22,0.22 0.29,0.19 0,0 z m 0.08,-0.05 c -0.1,0.09 0.31,0.16 0.52,-0.11 -0.32,0.02 -0.47,0.07 -0.52,0.11 z m -0.09,0.28 c 0,0.02 0.27,-0.05 0.08,-0.05 -0.03,0.01 -0.05,0.02 -0.07,0.03 -0.01,0 -0.01,0.01 -0.01,0.01 z m 0.1,-0.1 c -9.62e-4,0 -2.82e-4,0 0,0 0.02,-0.02 0,-0.01 0,0 z m 0.04,0.21 c 0,0.03 0.13,0.04 0.07,-0.03 -0.05,0.01 -0.07,0.02 -0.07,0.03 z m 0.33,-0.19 c -0.01,0.01 -0.01,0.06 0.03,0.04 -0.01,-0.04 -0.02,-0.05 -0.03,-0.04 z m 0.01,0.09 3.69e-4,3.6e-4 c -0.01,0.02 0,0.04 0.04,0.05 -0.15,0.03 -0.16,0.16 -0.08,0.28 -0.01,-0.02 -0.03,-0.03 -0.06,0.02 0.08,0.11 0.09,0.03 0.06,-0.01 0.09,0.12 0.28,0.22 0.52,0.17 -0.24,0.29 0.25,0.53 0.59,0.84 0,-7.7e-4 0,-10e-4 -0.01,-8.7e-4 0.01,0.26 0.08,0.11 0.05,0.03 0.11,0.11 0.2,0.23 0.22,0.37 0.49,0.78 1.18,0.65 1.54,1.45 0.06,0.01 0.68,0.28 0.8,0.44 0.09,0.15 0.97,0.99 1.12,1.44 0.14,0.1 0.6,0.21 1.09,0.68 0.49,0.26 0.38,0.76 0.44,0.98 0.65,0.21 1.01,0.65 1.48,1.19 0.48,0 0.87,1.68 1.51,0.99 -0.24,0.6 0.96,1.29 0.86,1.42 0.02,0.11 0.12,0.17 0.25,0.23 -0.01,-0.05 0.07,0 0.02,0.01 0.18,0.09 0.42,0.22 0.63,0.58 0.64,0.21 0.44,0.85 1.21,1.12 0.21,0.36 0.76,1 1.24,1.38 l 0.21,0.66 0.68,0.14 0.46,-0.52 -0.21,-0.66 -0.68,-0.14 c -0.21,-0.34 -0.58,-0.63 -0.64,-0.66 -0.5,-0.6 -0.34,-0.81 -1.33,-1.31 -0.39,-0.3 -0.77,-0.88 -0.81,-0.75 -0.12,-0.59 -0.89,-0.48 -0.54,-0.7 0.1,0.15 -0.18,-0.65 -0.42,-0.39 0.24,-0.6 -0.67,-0.3 -0.47,-0.6 -0.41,-0.34 -0.31,-0.33 -0.51,-0.64 0.01,-0.09 -0.16,-0.26 -0.36,-0.43 0.24,0.01 0,-0.11 -3.9e-4,-3.8e-4 -1.25e-4,-9e-5 -6.77e-4,-7.2e-4 -7.05e-4,-7.1e-4 4.57e-4,-0.001 -2.38e-4,0 0,0 -0.26,-0.22 -0.55,-0.45 -0.48,-0.51 -0.1,0.21 -0.48,-0.32 -0.2,-0.08 0.39,-0.34 -0.62,-0.21 -0.72,-0.63 -0.51,0.07 0.16,-0.78 -0.38,-0.4 -0.07,-0.39 -0.45,-0.53 -0.79,-0.65 -0.12,-0.42 -0.68,-0.4 -0.9,-0.39 0,-0.01 0,-0.02 0,-0.02 10e-4,-4.5e-4 0,-5.7e-4 0,-0.001 0.85,-0.39 -1.21,-0.69 -0.05,-0.63 -0.62,-0.32 -0.33,-0.19 -1.03,-0.77 -0.17,-0.12 -0.65,0.22 -0.22,-0.42 -0.17,0.03 -0.56,-0.26 -0.69,-0.64 -1.97,0.66 0.82,-0.54 -0.26,-0.34 -0.26,0.61 -0.13,-1.2 -0.94,0.07 0.77,-1.1 -0.57,-0.36 -0.65,-1.32 0.03,-0.01 0.05,-0.03 0,-0.03 7.92e-4,0.01 8.86e-4,0.01 0,0.03 -0.04,0.02 -0.15,0.05 -0.28,0.07 0,-0.04 -0.02,-0.11 -0.09,-0.03 0.01,0.02 0.02,0.03 0.03,0.04 -0.27,0.02 -0.55,-0.04 -0.37,-0.46 0.55,0.22 -0.73,-0.42 -0.7,-0.48 -0.03,0 -0.05,-0.001 -0.08,0 0.03,-0.11 -0.05,-0.09 -0.08,-0.05 z m 10.51,10.65 c 0,0 -0.01,0 -0.02,-0.01 0,0 0,0 0,0.01 0,6.8e-4 0.01,0 0.02,-2.3e-4 z m -7.61,-7.42 c -0.17,0.3 0.19,0.11 0,0 z m -2.71,-3.35 c -0.08,0.08 0.17,0.03 0.06,-0.04 -0.02,0.01 -0.04,0.03 -0.06,0.04 z m 0.17,0.02 c -0.01,0.06 0.13,0.17 0,0 z m 0.05,0.22 c 0,0 0,0 0.01,0.01 -0.01,0 -0.01,-0.01 -0.01,-0.01 z m 0,0.02 c -0.01,0.01 0,0.04 0.1,0.06 0.03,-0.1 -0.07,-0.09 -0.1,-0.06 z m -0.22,0.45 c 0,0 0.01,0.01 0.01,0 -0.01,-0.01 -0.01,-0.01 -0.01,0 z m 0.06,0.08 c 0,0.03 0.18,0.04 0.08,-0.03 -0.06,0.01 -0.08,0.02 -0.08,0.03 z m 0.3,0.16 c 0.03,-0.01 0,0.12 0,0 z m 0.63,-0.33 c -0.15,0.23 0.21,-0.07 0,0 z m 0.24,0.13 c 0,0.01 -0.01,0.02 -0.01,0.05 0.18,0.05 0.05,-0.12 0.01,-0.05 z m -0.33,0.83 c -0.01,0.03 0,0.09 0.1,0.1 -0.03,-0.12 -0.08,-0.13 -0.1,-0.1 z m 2.48,1.01 c -0.03,0.05 0,0.16 0.14,0 -0.06,-0.06 -0.11,-0.04 -0.14,0 z m 0.67,0.75 c 0,0 0,0.01 0,0 0,0 0,0 0,0 z m -0.07,0.11 c -0.06,0.07 -0.01,0.15 0.22,-0.06 -0.1,-0.02 -0.19,0.01 -0.22,0.06 z m 1.17,1.63 c 9.85e-4,-5.8e-4 0.01,0 0.01,0 0,0 0,0 -0.01,0 0,-2.8e-4 0,-8.5e-4 0,0 z m 0.38,-0.23 c 0,0.03 0,0.03 0,0 z m 1.45,1 c -0.03,0.04 0.06,0.19 0.02,-0.01 -0.01,0 -0.01,0 -0.02,0.01 z m -0.01,0.33 c 0.26,0 -0.04,0.17 0,0 z m 0.67,0.47 c -0.04,0.06 -0.06,0.24 0.04,-7e-4 -0.01,-0.02 -0.02,-0.01 -0.04,7e-4 z m 0.7,0.42 c 0,0 0,0 -0.01,0.01 -0.01,0.04 0.02,0.16 0.09,0.07 -0.04,-0.07 -0.06,-0.09 -0.08,-0.09 z m 2.11,2.85 c -0.01,0.03 0.09,-0.01 0,0 z m 3.53,3.88 c 0.05,0 0.1,0 0.15,0 0.02,0.05 0.05,0.09 0.08,0.13 -0.03,0.04 -0.05,0.09 -0.07,0.14 -0.05,0 -0.1,0 -0.15,0 -0.02,-0.05 -0.05,-0.09 -0.08,-0.13 0.03,-0.04 0.05,-0.09 0.07,-0.14 z"
       id="path2249"
       inkscape:connector-curvature="0"
       sodipodi:nodetypes="cccccccccccccccccccccccccccccccccccccccccccccccccccccccccccccccccccccccccccccccccccccccccccccccccccccccccccccccccccccccccccccccccccccccccccccccccccccccccccccccccccccccccccccccccccccccccccccccccccccccccccccccccccccccccccccccccccccccccc"
       inkscape:transform-center-x="7.99"
       inkscape:transform-center-y="-7.81" />
    <path
       style="fill:#231f20;fill-opacity:1;fill-rule:nonzero;stroke:none;stroke-width:0.34999999"
       d="m 9.37,43.154 c 0.02,0.02 -0.01,-0.28 -0.01,-0.03 0,0.01 0.01,0.02 0.01,0.03 z m 0.13,-0.13 c 0.03,0.02 0.11,-0.03 0.23,-0.28 -0.21,-0.01 -0.28,0.24 -0.23,0.28 z m 0.06,-0.32 c 0.01,0.01 0.04,0 0.06,-0.08 -0.09,-0.02 -0.09,0.06 -0.06,0.08 z m 0.54,0.11 c 0,0 0.02,0 0.04,-0.04 -0.02,-0.09 -0.06,0.03 -0.04,0.04 z m -0.05,-0.13 c 0.01,0 0.04,0 0.1,-0.05 -0.06,-0.08 -0.12,0 -0.11,0.04 3.36e-4,0 0,0.01 0.01,0.01 z m 0.21,0.01 c 0.04,0.04 0.2,-0.05 0,-0.09 -0.02,0.05 -0.02,0.08 0,0.09 z m -0.05,-0.09 c 0.03,-0.16 -0.01,-0.1 0,0 z m -0.08,-0.1 c 0.01,-0.01 0.03,-0.15 0.01,-0.15 -0.01,0.13 -0.01,0.16 -0.01,0.15 z m 0.22,-0.25 c 0.02,-0.21 -0.18,-0.24 0,0 z m 0.2,0.1 c 0.01,0.01 0.05,0.01 0.1,-0.03 -0.08,-0.2 -0.16,0 -0.1,0.03 z m -0.35,-0.41 c 0.08,0.05 0.5,0.05 0.07,-0.06 -0.09,0.02 -0.09,0.05 -0.07,0.06 z m 0.34,0.31 c 0.12,-0.2 -0.08,-0.04 0,0 z m -0.03,-0.13 c 0.03,0.03 0.09,0.03 0.04,-0.09 -0.1,0 -0.08,0.05 -0.04,0.09 z m 0.03,-0.09 c 0,0.02 0.08,-0.02 0.02,-0.04 -0.01,0.02 -0.02,0.03 -0.02,0.04 z m 0.12,0.05 c 0.24,0.12 0.04,-0.09 0,0 z m 0.02,-0.02 c 0.04,0.02 0.1,-0.14 0,0 z m 0.2,0.14 c 0,0 -0.03,-0.24 -0.01,-0.09 0.01,0.07 0.01,0.09 0.01,0.09 z m -0.05,-0.28 c 0,0 0.01,0 0.02,0 0.02,-0.06 0.01,-0.08 0,-0.07 0.01,-0.01 0.03,-0.03 0.04,-0.04 0,0.01 0.02,0.01 0.07,0.01 0.19,-0.21 -0.04,-0.1 -0.07,-0.03 0,0 0,0 -0.01,0 -0.07,0.09 -0.05,0.09 -0.02,0.07 -0.01,0.01 -0.04,0.05 -0.02,0.07 z m -0.17,-0.19 c 0.21,-0.21 -0.15,-0.16 0,0 z m 0.4,0.32 c 0.11,0.1 0.14,-0.43 -0.05,-0.09 0.01,0.04 0.03,0.07 0.05,0.09 z m 0.08,-0.25 c 0,0 1.89e-4,0 5.65e-4,-0.02 -5.21e-4,0.01 -5.65e-4,0.02 -5.65e-4,0.02 z m -0.06,-0.14 c 0.02,0.02 0.04,0.03 0.04,0.01 0,-0.03 0.21,-0.34 -0.02,-0.04 -0.22,-0.26 -0.08,-0.05 -0.01,0.02 z m 0.1,0 c 0,0 0,-9e-4 0.02,0 -0.01,0 -0.02,0 -0.02,0 z m -0.33,-0.45 c 0.02,0.01 0.1,-0.04 0.01,-0.05 -0.01,0.03 -0.01,0.04 -0.01,0.05 z m 0.37,0.27 c 0.22,0.22 0.19,-0.29 0,0 z m -0.05,-0.08 c 0.09,0.1 0.16,-0.31 -0.11,-0.52 0.02,0.32 0.07,0.47 0.11,0.52 z m 0.28,0.09 c 0.02,0 -0.05,-0.27 -0.05,-0.08 0.01,0.03 0.02,0.06 0.03,0.07 0,0.01 0.01,0.01 0.01,0.01 z m -0.1,-0.1 c 0,0 0,5.1e-4 0,0 -0.02,-0.02 -0.01,0 0,0 z m 0.21,-0.04 c 0.03,0 0.04,-0.13 -0.03,-0.07 0.01,0.05 0.02,0.07 0.03,0.07 z m -0.19,-0.33 c 0.01,0.01 0.06,0.01 0.04,-0.03 -0.04,0.01 -0.05,0.02 -0.04,0.03 z m 0.09,-0.01 3.75e-4,-3.8e-4 c 0.02,0.01 0.04,0 0.05,-0.04 0.03,0.15 0.16,0.16 0.28,0.08 -0.02,0.01 -0.03,0.03 0.02,0.06 0.11,-0.08 0.03,-0.09 -0.01,-0.06 0.12,-0.09 0.22,-0.28 0.17,-0.52 0.29,0.24 0.53,-0.25 0.84,-0.59 -5.42e-4,0 -1.88e-4,0.01 0,0.01 0.26,-0.01 0.11,-0.08 0.03,-0.05 0.11,-0.11 0.23,-0.2 0.37,-0.22 0.78,-0.49 0.65,-1.18 1.45,-1.54 0.01,-0.06 0.28,-0.68 0.44,-0.8 0.15,-0.09 0.99,-0.97 1.44,-1.12 0.1,-0.14 0.21,-0.6 0.68,-1.09 0.26,-0.49 0.76,-0.38 0.98,-0.44 0.21,-0.65 0.65,-1.01 1.19,-1.48 0,-0.48 1.68,-0.87 0.99,-1.51 0.6,0.24 1.29,-0.96 1.42,-0.86 0.11,-0.02 0.17,-0.12 0.23,-0.25 -0.05,0.01 0,-0.07 0.01,-0.02 0.09,-0.18 0.22,-0.42 0.58,-0.63 0.21,-0.64 0.85,-0.44 1.12,-1.21 0.36,-0.21 1,-0.76 1.38,-1.24 l 0.66,-0.21 0.14,-0.68 -0.52,-0.46 -0.66,0.21 -0.14,0.68 c -0.34,0.21 -0.63,0.58 -0.66,0.64 -0.6,0.5 -0.81,0.34 -1.31,1.33 -0.3,0.39 -0.88,0.77 -0.75,0.81 -0.59,0.12 -0.48,0.89 -0.7,0.54 0.15,-0.1 -0.65,0.18 -0.39,0.42 -0.6,-0.24 -0.3,0.67 -0.6,0.47 -0.34,0.41 -0.33,0.31 -0.64,0.51 -0.09,-0.01 -0.26,0.16 -0.43,0.36 0.01,-0.24 -0.11,0 -3.64e-4,3.8e-4 -8.7e-5,1.3e-4 -7.22e-4,6.9e-4 -7.05e-4,6.9e-4 -9.06e-4,-4.2e-4 0,2.9e-4 0,0 -0.22,0.26 -0.45,0.55 -0.51,0.48 0.21,0.1 -0.32,0.48 -0.08,0.2 -0.34,-0.39 -0.21,0.62 -0.63,0.72 0.07,0.51 -0.78,-0.16 -0.4,0.38 -0.39,0.07 -0.53,0.45 -0.65,0.79 -0.42,0.12 -0.4,0.68 -0.39,0.9 -0.01,0 -0.02,0 -0.02,0 -2.13e-4,-9.8e-4 -2.33e-4,-9.7e-4 0,0 -0.39,-0.85 -0.69,1.21 -0.63,0.05 -0.32,0.62 -0.19,0.33 -0.77,1.03 -0.12,0.17 0.22,0.65 -0.42,0.22 0.03,0.17 -0.26,0.56 -0.64,0.69 0.66,1.97 -0.54,-0.82 -0.34,0.26 0.61,0.26 -1.2,0.13 0.07,0.94 -1.1,-0.77 -0.36,0.57 -1.32,0.65 -0.01,-0.03 -0.03,-0.05 -0.03,0 0.01,-8.7e-4 0.01,0 0.03,0 0.02,0.04 0.05,0.15 0.07,0.28 -0.04,0 -0.11,0.02 -0.03,0.09 0.02,-0.01 0.03,-0.02 0.04,-0.03 0.02,0.27 -0.04,0.55 -0.46,0.37 0.22,-0.55 -0.42,0.73 -0.48,0.7 0,0.03 0,0.05 9.09e-4,0.08 -0.11,-0.03 -0.09,0.05 -0.05,0.08 z m 10.65,-10.51 c 0,0 0,0.01 -0.01,0.02 0,-0.001 0,0 0.01,0 4.72e-4,0 6.2e-4,-0.01 9.9e-5,-0.02 z m -7.42,7.61 c 0.3,0.17 0.11,-0.19 0,0 z m -3.35,2.71 c 0.08,0.08 0.03,-0.17 -0.04,-0.06 0.01,0.02 0.03,0.04 0.04,0.06 z m 0.02,-0.17 c 0.06,0.01 0.17,-0.13 0,0 z m 0.22,-0.05 c 0,0 0,0 0.01,-0.01 0,0.01 -0.01,0.01 -0.01,0.01 z m 0.02,0 c 0.01,0.01 0.04,0 0.06,-0.1 -0.1,-0.03 -0.09,0.07 -0.06,0.1 z m 0.45,0.22 c 0,0 0.01,0 0,-0.01 -0.01,0.01 -0.01,0.01 0,0.01 z m 0.08,-0.06 c 0.03,0 0.04,-0.18 -0.03,-0.08 0.01,0.06 0.02,0.08 0.03,0.08 z m 0.16,-0.3 c -0.01,-0.03 0.12,0 0,0 z m -0.33,-0.63 c 0.23,0.15 -0.07,-0.21 0,0 z m 0.13,-0.24 c 0.01,0 0.02,0.01 0.05,0.01 0.05,-0.18 -0.12,-0.05 -0.05,-0.01 z m 0.83,0.33 c 0.03,0.01 0.09,0 0.1,-0.1 -0.12,0.03 -0.13,0.08 -0.1,0.1 z m 1.01,-2.48 c 0.05,0.03 0.16,0 0,-0.14 -0.06,0.06 -0.04,0.11 0,0.14 z m 0.75,-0.67 c 0,0 0.01,0 0,0 0,0 0,0 0,0 z m 0.11,0.07 c 0.07,0.06 0.15,0.01 -0.06,-0.22 -0.02,0.1 0.01,0.19 0.06,0.22 z m 1.63,-1.17 c -3.4e-4,-9.4e-4 0,-0.01 0,-0.01 0,0 0,0 0,0.01 -7.65e-4,0 0,0 0,0 z m -0.23,-0.38 c 0.03,0 0.03,0 0,0 z m 1,-1.45 c 0.04,0.03 0.19,-0.06 -0.01,-0.02 0,0.01 0,0.01 0.01,0.02 z m 0.33,0.01 c 9.94e-4,-0.26 0.17,0.04 0,0 z m 0.47,-0.67 c 0.06,0.04 0.24,0.06 -7.65e-4,-0.04 -0.02,0.01 -0.01,0.02 7.65e-4,0.04 z m 0.42,-0.7 c 0,0 0,0 0.01,0.01 0.04,0.01 0.16,-0.02 0.07,-0.09 -0.07,0.04 -0.09,0.06 -0.09,0.08 z m 2.85,-2.11 c 0.03,0.01 -0.01,-0.09 0,0 z m 3.88,-3.53 c 0,-0.05 0,-0.1 0,-0.15 0.05,-0.02 0.09,-0.05 0.13,-0.08 0.04,0.03 0.09,0.05 0.14,0.07 0,0.05 0,0.1 0,0.15 -0.05,0.02 -0.09,0.05 -0.13,0.08 -0.04,-0.03 -0.09,-0.05 -0.14,-0.07 z"
       id="path2251"
       inkscape:connector-curvature="0"
       sodipodi:nodetypes="cccccccccccccccccccccccccccccccccccccccccccccccccccccccccccccccccccccccccccccccccccccccccccccccccccccccccccccccccccccccccccccccccccccccccccccccccccccccccccccccccccccccccccccccccccccccccccccccccccccccccccccccccccccccccccccccccccccccccc"
       inkscape:transform-center-x="7.81"
       inkscape:transform-center-y="7.99" />
    <path
       inkscape:transform-center-y="-12.07"
       inkscape:transform-center-x="-8.35"
       sodipodi:nodetypes="cccc"
       inkscape:label="#path890"
       inkscape:connector-curvature="0"
       id="pie1"
       d="M 42.23,10.114 C 35.93,4.844 31.31,3.104 24.98,3.554 l 0.81,23 z"
       style="opacity:1;fill:#333333;fill-opacity:0.77999998;stroke:none;stroke-width:1;stroke-opacity:1" />
    <path
       style="opacity:1;fill:#333333;fill-opacity:0.77999998;stroke:none;stroke-width:1;stroke-opacity:1"
       d="M 49.01,26.694 C 48.28,18.504 46.25,14.004 41.44,9.844 L 25.76,26.684 Z"
       id="pie2"
       inkscape:connector-curvature="0"
       inkscape:label="#path890"
       sodipodi:nodetypes="cccc"
       inkscape:transform-center-x="-12.38"
       inkscape:transform-center-y="-8.41" />
    <path
       inkscape:transform-center-y="8.35"
       inkscape:transform-center-x="-12.07"
       sodipodi:nodetypes="cccc"
       inkscape:label="#path890"
       inkscape:connector-curvature="0"
       id="pie3"
       d="m 42.13,43.274 c 5.27,-6.3 7.01,-10.92 6.56,-17.25 l -23,0.81 z"
       style="opacity:1;fill:#333333;fill-opacity:0.77999998;stroke:none;stroke-width:1;stroke-opacity:1" />
    <path
       style="opacity:1;fill:#333333;fill-opacity:0.77999998;stroke:none;stroke-width:1;stroke-opacity:1"
       d="m 25.65,50.354 c 8.18,-0.73 12.68,-2.76 16.84,-7.56 L 25.65,27.104 Z"
       id="pie4"
       inkscape:connector-curvature="0"
       inkscape:label="#path890"
       sodipodi:nodetypes="cccc"
       inkscape:transform-center-x="-8.41"
       inkscape:transform-center-y="12.38" />
    <path
       inkscape:transform-center-y="12.07"
       inkscape:transform-center-x="8.35"
       sodipodi:nodetypes="cccc"
       inkscape:label="#path890"
       inkscape:connector-curvature="0"
       id="pie5"
       d="m 8.79,43.484 c 6.3,5.27 10.92,7.01 17.25,6.56 l -0.81,-23 z"
       style="opacity:1;fill:#333333;fill-opacity:0.76999996;stroke:none;stroke-width:1;stroke-opacity:1" />
    <path
       style="opacity:1;fill:#333333;fill-opacity:0.76999996;stroke:none;stroke-width:1;stroke-opacity:1"
       d="m 1.51,26.724 c 0.73,8.18 2.76,12.68 7.56,16.84 l 15.69,-16.84 z"
       id="pie6"
       inkscape:connector-curvature="0"
       inkscape:label="#path890"
       sodipodi:nodetypes="cccc"
       inkscape:transform-center-x="12.38"
       inkscape:transform-center-y="8.41" />
    <path
       inkscape:transform-center-y="-8.35"
       inkscape:transform-center-x="12.07"
       sodipodi:nodetypes="cccc"
       inkscape:label="#path890"
       inkscape:connector-curvature="0"
       id="pie7"
       d="m 8.55,9.744 c -5.27,6.3 -7.01,10.92 -6.56,17.25 l 23,-0.81 z"
       style="opacity:1;fill:#333333;fill-opacity:0.77999998;stroke:none;stroke-width:1;stroke-opacity:1" />
  </g>
</svg>
