<?xml version="1.0" encoding="UTF-8" standalone="no"?>

<svg
   version="1.1"
   xmlns:dc="http://purl.org/dc/elements/1.1/"
   xmlns:cc="http://creativecommons.org/ns#"
   xmlns:rdf="http://www.w3.org/1999/02/22-rdf-syntax-ns#"
   xmlns:svg="http://www.w3.org/2000/svg"
   xmlns="http://www.w3.org/2000/svg"
   width="240"
   height="240"
   id="deckahedron_deck"
   class="deckahedron_deck droptarget"
   >
  <script
     type="text/javascript"
     data-namespace="deckahedron_deck"
     id="deckahedron_deck"><![CDATA[

function pile_offset(index) {
  return {
    x: 0.2 * index,
    y: 0.66 * index,
  }
}

var deckahedron_deck = {
  deckJSON: [
   {'id': 1, 'xp': false, 'Stamina': false, 'a': 1, 'b': 1, 'c': 1, 'd': 1, 'crit': 'fail'},
   {'id': 2, 'xp': false, 'Stamina': false, 'a': 1, 'b': 2, 'c': 3, 'd': 2},
   {'id': 3, 'xp': false, 'Stamina': false, 'a': 1, 'b': 4, 'c': 3, 'd': 4},
   {'id': 4, 'xp': false, 'Stamina': false, 'a': 2, 'b': 2, 'c': 3, 'd': 4},
   {'id': 5, 'xp': false, 'Stamina': false, 'a': 2, 'b': 3, 'c': 2, 'd': 3},
   {'id': 6, 'xp': false, 'Stamina': false, 'a': 1, 'b': 2, 'c': 2, 'd': 3},
   {'id': 7, 'xp': false, 'Stamina': false, 'a': 2, 'b': 1, 'c': 2, 'd': 3},
   {'id': 8, 'xp': true,  'Stamina': false, 'a': 1, 'b': 1, 'c': 4, 'd': 1},
   {'id': 9, 'xp': true,  'Stamina': false, 'a': 2, 'b': 2, 'c': 1, 'd': 2},
   {'id': 10, 'xp': false, 'Stamina': false, 'a': 3, 'b': 1, 'c': 2, 'd': 2},
   {'id': 11, 'xp': false, 'Stamina': true, 'a': 3, 'b': 3, 'c': 4, 'd': 3},
   {'id': 12, 'xp': false, 'Stamina': true, 'a': 1, 'b': 3, 'c': 3, 'd': 4},
   {'id': 13, 'xp': false, 'Stamina': true, 'a': 3, 'b': 3, 'c': 4, 'd': 4},
   {'id': 14, 'xp': false, 'Stamina': true, 'a': 3, 'b': 4, 'c': 3, 'd': 4},
   {'id': 15, 'xp': true , 'Stamina': true, 'a': 1, 'b': 2, 'c': 2, 'd': 4},
   {'id': 16, 'xp': true,  'Stamina': true, 'a': 3, 'b': 2, 'c': 1, 'd': 2},
   {'id': 17, 'xp': true,  'Stamina': true, 'a': 4, 'b': 1, 'c': 1, 'd': 2},
   {'id': 18, 'xp': false, 'Stamina': true, 'a': 3, 'b': 4, 'c': 3, 'd': 4},
   {'id': 19, 'xp': false, 'Stamina': true, 'a': 1, 'b': 3, 'c': 4, 'd': 2},
   {'id': 20, 'xp': false, 'Stamina': true, 'a': 4, 'b': 4, 'c': 4, 'd': 4, 'crit': 'win'},
  ],

  generate_card: function(template, cardJSON, deckEl) {
    let card = template.cloneNode(true)

    card.dataset.deckId = deckEl.id
    card.id = (
      deckEl.id
      + '_'
      + cardJSON.id
    )

    if (cardJSON.crit !== 'win') {
      card.querySelector('#g_crit_win').style.display = 'none'
    }
    if (cardJSON.crit !== 'fail') {
      card.querySelector('#g_crit_fail').style.display = 'none'
    }
    if (!cardJSON.xp) {
      card.querySelector('#g_xp').style.display = 'none'
    }

    if (cardJSON.Stamina) {
      card.querySelector('#g_stamina').style.display = undefined
      card.querySelector('#g_circle').style.display = 'none'
    } else {
      card.querySelector('#g_stamina').style.display = 'none'
      card.querySelector('#g_circle').style.display = undefined
    }
    let anvils = [
      card.querySelector('#g_anvil_0'),
      card.querySelector('#g_anvil_1'),
      card.querySelector('#g_anvil_2'),
      card.querySelector('#g_anvil_3'),
    ]
    for (var i = 0; i < anvils.length; i++) {
      if (i+1 === cardJSON.a) { continue }
      card.querySelector('#g_anvil_' + i).style.display = 'none'
    }
    let blades = [
      card.querySelector('#g_blades_0'),
      card.querySelector('#g_blades_1'),
      card.querySelector('#g_blades_2'),
      card.querySelector('#g_blades_3'),
    ]
    for (var i = 0; i < blades.length; i++) {
      if (i+1 === cardJSON.b) { continue }
      card.querySelector('#g_blades_' + i).style.display = 'none'
    }
    let crowns = [
      card.querySelector('#g_crown_0'),
      card.querySelector('#g_crown_1'),
      card.querySelector('#g_crown_2'),
      card.querySelector('#g_crown_3'),
    ]
    for (var i = 0; i < crowns.length; i++) {
      if (i+1 === cardJSON.c) { continue }
      card.querySelector('#g_crown_' + i).style.display = 'none'
    }
    let dragons = [
      card.querySelector('#g_dragon_0'),
      card.querySelector('#g_dragon_1'),
      card.querySelector('#g_dragon_2'),
      card.querySelector('#g_dragon_3'),
    ]
    for (var i = 0; i < dragons.length; i++) {
      if (i+1 === cardJSON.d) { continue }
      card.querySelector('#g_dragon_' + i).style.display = 'none'
    }

    card = SVG.adopt(card)
    card.removeClass('card_template')
    card.addClass('card')
    card.addClass('draggable-group')
    card.addClass('c' + cardJSON.id)
    card.addClass('of_' + deckEl.id)
    card.node.dataset.appNamespaces = ['deckahedron_deck_card']

    return card
  },

  generate_deck: function(elem) {
    local_doc = SVG.adopt(elem)
    deck = local_doc.group()
    deck.addClass('deck')
    deck.addClass('contents_group')
    deck_id = 'deck_' + base32.short_id()
    deck.id(deck_id)
    local_doc.add(deck)

    let template = elem.querySelector('.card_template')
    shuffle(this.deckJSON).map((cardJSON) => {
      card = this.generate_card(template, cardJSON, deck.node)
      this.endeck(deck, card)
    })
    template.remove()
  },

  endeck: function(deck, card) {
    localDocEl = deck.node.closest('.deckahedron_deck')
    deck_area = localDocEl.querySelector('#g_deck_area')
    deck_area = SVG.adopt(deck_area)

    deckahedron_deck.flip_card_to_back(card.node)

    let offset = pile_offset(
      deck.node.querySelectorAll('.card').length
    )
    card.cy(deck_area.cy() + offset.y)
    card.cx(deck_area.cx() + offset.x)
    deck.add(card)
  },

  flip_card_to_front: function(cardEl) {
    back = cardEl.querySelector('.card_back')
    back.remove()
    cardEl.insertBefore(back, cardEl.firstChild)
  },

  flip_card_to_back: function(cardEl) {
    back = cardEl.querySelector('.card_back')
    back.remove()
    cardEl.appendChild(back)
  },

  flip_card: function(cardEl) {
    if (cardEl.lastElementChild.classList.contains('card_back')) {
      deckahedron_deck.flip_card_to_front(cardEl)
    } else {
      deckahedron_deck.flip_card_to_back(cardEl)
    }
  },

  initialize: function(elem) {
    this.generate_deck(elem)
    elem.addEventListener('deckahedron_deck_flip', this.flip_handler)
    elem.addEventListener('deckahedron_deck_reshuffle', this.reshuffle_handler)
    elem.addEventListener('dblclick', lock_selection)
  },

  menu: {
    'Flip': {
      eventName: 'deckahedron_deck_flip',
      applicable: (dNode) => {
        deck = dNode.querySelector('.deck')
        if (deck.childNodes.length > 0) {
          return true
        }
        return false
      },
    },
    'Reshuffle': {
      eventName: 'deckahedron_deck_reshuffle',
      applicable: (dNode) => { return true },
    },
  },

  flip_handler: function(evt) {
    let topcard = this.querySelector('.deck .card:last-child')
    deckahedron_deck.flip_card(topcard)
  },

  reshuffle_handler: function(evt) {
    var deck

    if (evt.target.classList.contains('deck')) {
      deck = evt.target
    } else {
      deck = evt.target.querySelector('.deck')
    }
    local_doc = deck.closest('.deckahedron_deck')

    cardArray = []
    sDeck = SVG.adopt(deck)
    local_doc.querySelectorAll('.of_' + deck.id).forEach((card) => {
      card.remove()
      cardArray.push(card)
    })
    shuffle(cardArray).map((card) => {
      sCard = SVG.adopt(card)
      deckahedron_deck.endeck(sDeck, sCard)
    })
  },

}


deckahedron_deck_card = {
  initialize: function(elem) {
    elem.addEventListener('deckahedron_deck_card_flip', this.flip_handler)
    elem.addEventListener('deckahedron_deck_card_return', this.return_handler)
    elem.addEventListener('dblclick', this.flip_handler)
  },

  return_handler: function(evt) {
    push_to_parent(
      byId(evt.target.id),
      byId(evt.target.dataset.deckId),
      (cardEl, deckEl) => {
        s(cardEl, 'data-app-class', null)
        cardEl.classList.add('draggable-group')
        deckahedron_deck.endeck(SVG.adopt(deckEl), SVG.adopt(cardEl))
      }
    )
  },

  flip_handler: function(evt) {
    deckahedron_deck.flip_card(this)
  },

  menu: {
    'Flip': {
      eventName: 'deckahedron_deck_card_flip',
      applicable: (dNode) => { return true },
    },
    'Return to deck': {
      eventName: 'deckahedron_deck_card_return',
      applicable: (dNode) => {
        console.log('dnode', dNode)
        if(document.querySelector('#' + dNode.dataset.deckId)) {
          return true
        } else {
          return false
        }
      },
    },
  },

}


    ]]></script>

  <svg id="card_template"
     class="card_template"
     x="40"
     y="60"
     width="150"
     height="150"
     >
<g class="card_front">
    <rect
       style="opacity:1;fill:#ffffff;fill-opacity:1;stroke:#000000;stroke-width:0.26458332;stroke-linejoin:miter;stroke-miterlimit:4;stroke-dasharray:none;stroke-dashoffset:0;stroke-opacity:1"
       id="card_face"
       width="150"
       height="150"
       x="0"
       y="0"
       rx="10"
       ry="10" />
    <path
       id="rect_gray_face"
       style="opacity:1;fill:#cccccc;fill-opacity:1;stroke:none;stroke-width:0.26;stroke-linejoin:miter;stroke-miterlimit:4;stroke-dasharray:none;stroke-dashoffset:0;stroke-opacity:1"
       d="M 10,0 C 4.46,0 0,4.46 0,10 v 130 c 0,5.54 4.46,10 10,10 h 130 c 5.54,0 10,-4.46 10,-10 V 10 C 150,4.46 145.54,0 140,0 Z m 64.99,9.46 c 6.22,0 11.83,2.32 15.79,6.03 l 44.03,44.03 c 3.52,3.93 5.71,9.41 5.71,15.45 0,6.21 -2.32,11.82 -6.01,15.77 L 90.45,134.83 c -3.93,3.51 -9.40,5.70 -15.44,5.70 -6.22,0 -11.83,-2.32 -15.79,-6.03 L 15.17,90.46 C 11.65,86.53 9.46,81.05 9.46,75.00 c 0,-6.22 2.32,-11.83 6.03,-15.79 L 59.53,15.17 c 3.93,-3.52 9.41,-5.71 15.45,-5.71 z"
       inkscape:connector-curvature="0" />
  <g id="g_stamina">
    <path
       inkscape:connector-curvature="0"
       id="path12651"
       style="fill:#d5d5d5;fill-opacity:1;fill-rule:nonzero;stroke:none;stroke-width:0.86"
       d="M 81.02,44.31 H 80.57 78.54 77.46 v 1.08 c 0,1.35 -1.10,2.46 -2.46,2.46 -1.35,0 -2.46,-1.10 -2.46,-2.46 V 44.31 H 71.45 69.42 68.97 l -0.31,0.31 -24.01,24.01 -0.31,0.31 v 0.44 2.03 1.08 l 1.08,8.65e-4 c 1.35,8.66e-4 2.46,1.10 2.46,2.46 0,1.35 -1.10,2.45 -2.46,2.45 h -1.08 v 1.08 2.03 0.44 l 0.31,0.31 24.01,24.01 0.31,0.31 h 0.44 2.03 1.08 v -1.08 c 0,-1.35 1.10,-2.46 2.46,-2.46 1.35,0 2.46,1.10 2.46,2.46 v 1.08 h 1.08 2.03 0.44 l 0.31,-0.31 24.01,-24.01 0.31,-0.31 V 80.58 78.54 77.45 h -1.08 c -1.35,0 -2.46,-1.10 -2.46,-2.45 0,-1.35 1.10,-2.46 2.46,-2.46 h 1.08 V 71.45 69.41 68.97 L 105.36,68.65 81.34,44.63 Z m -0.44,1.08 24.02,24.01 v 2.03 c -1.96,0 -3.54,1.58 -3.54,3.54 0,1.95 1.58,3.54 3.54,3.54 v 2.04 L 80.58,104.59 H 78.54 c 0,-1.95 -1.58,-3.54 -3.54,-3.54 -1.95,0 -3.54,1.58 -3.54,3.54 H 69.42 L 45.40,80.58 V 78.54 c 1.95,0 3.54,-1.58 3.54,-3.54 0,-1.95 -1.58,-3.54 -3.54,-3.54 v -2.03 l 24.01,-24.01 h 2.03 c 0,1.95 1.58,3.54 3.54,3.54 1.95,0 3.54,-1.58 3.54,-3.54 h 2.03" />
    <path
       inkscape:connector-curvature="0"
       id="path12655"
       style="fill:#808080;fill-opacity:1;fill-rule:nonzero;stroke:none;stroke-width:0.86"
       d="m 78.95,104.16 h 1.45 L 104.16,80.40 v -1.45 c -1.99,-0.21 -3.54,-1.90 -3.54,-3.95 0,-2.04 1.55,-3.73 3.54,-3.95 V 69.59 L 80.39,45.83 h -1.44 c -0.21,1.98 -1.90,3.54 -3.95,3.54 -2.04,0 -3.73,-1.55 -3.95,-3.54 H 69.60 L 45.83,69.59 v 1.44 c 1.98,0.21 3.54,1.90 3.54,3.95 0,2.04 -1.55,3.73 -3.54,3.95 v 1.44 L 69.60,104.16 h 1.44 c 0.21,-1.99 1.90,-3.54 3.95,-3.54 2.04,0 3.73,1.55 3.95,3.54 m 1.80,0.86 h -2.65 v -0.43 c 0,-1.71 -1.39,-3.11 -3.10,-3.11 -1.71,0 -3.11,1.39 -3.11,3.11 v 0.43 H 69.24 L 44.96,80.75 v -2.65 h 0.43 c 1.71,0 3.10,-1.39 3.10,-3.10 0,-1.71 -1.39,-3.10 -3.11,-3.11 l -0.43,-8.66e-4 V 69.24 L 69.24,44.96 h 2.64 v 0.43 c 0,1.71 1.39,3.10 3.11,3.10 1.71,0 3.10,-1.39 3.10,-3.10 V 44.96 h 2.64 L 105.03,69.24 v 2.65 h -0.43 c -1.71,0 -3.11,1.39 -3.11,3.10 0,1.71 1.39,3.10 3.11,3.10 h 0.43 v 2.65 z" />
  </g>
  <g id="g_circle">
    <path
       inkscape:connector-curvature="0"
       id="path34455-6"
       style="fill:#d5d5d5;fill-opacity:1;fill-rule:nonzero;stroke:none;stroke-width:0.86"
       d="m 105.26,75.00 c 0,16.71 -13.54,30.26 -30.26,30.26 -16.71,0 -30.26,-13.54 -30.26,-30.26 0,-16.71 13.54,-30.26 30.26,-30.26 16.71,0 30.26,13.54 30.26,30.26" />
    <path
       inkscape:connector-curvature="0"
       id="path34459-5"
       style="fill:#808080;fill-opacity:1;fill-rule:nonzero;stroke:none;stroke-width:0.86"
       d="m 104.47,75.00 c 0,16.27 -13.19,29.46 -29.46,29.46 -16.27,0 -29.46,-13.19 -29.46,-29.46 0,-16.27 13.19,-29.46 29.46,-29.46 16.27,0 29.46,13.19 29.46,29.46" />
    <path
       inkscape:connector-curvature="0"
       id="path34463-5"
       style="fill:#d5d5d5;fill-opacity:1;fill-rule:nonzero;stroke:none;stroke-width:0.86"
       d="m 95.34,75.00 c 0,11.23 -9.10,20.34 -20.34,20.34 -11.23,0 -20.34,-9.10 -20.34,-20.34 0,-11.23 9.10,-20.34 20.34,-20.34 11.23,0 20.34,9.10 20.34,20.34" />
    <path
       inkscape:connector-curvature="0"
       id="path34467-2"
       style="fill:#ffffff;fill-opacity:1;fill-rule:nonzero;stroke:none;stroke-width:0.86"
       d="m 94.38,75.00 c 0,10.70 -8.67,19.38 -19.38,19.38 -10.70,0 -19.38,-8.67 -19.38,-19.38 0,-10.70 8.67,-19.38 19.38,-19.38 10.70,0 19.38,8.67 19.38,19.38" />
  </g>
</g>

  <g id="g_suit_anvil">
    <path
       inkscape:connector-curvature="0"
       id="path12615"
       style="fill:#d9b7b7;fill-opacity:1;fill-rule:nonzero;stroke:none;stroke-width:0.86000001"
       d="m 87.47,138.38 c 0,-5.45 -5.58,-9.88 -12.47,-9.88 -6.88,0 -12.47,4.42 -12.47,9.88 0,5.45 5.58,9.88 12.47,9.88 6.89,0 12.47,-4.42 12.47,-9.88" />
    <path
       inkscape:connector-curvature="0"
       id="path12619"
       style="fill:#330000;fill-opacity:1;fill-rule:nonzero;stroke:none;stroke-width:0.86000001"
       d="m 86.42,138.39 c 0,-4.99 -5.11,-9.05 -11.43,-9.05 -6.31,0 -11.42,4.05 -11.42,9.05 0,4.99 5.11,9.05 11.42,9.05 6.31,0 11.43,-4.05 11.43,-9.05" />
    <path
       inkscape:connector-curvature="0"
       id="path12623"
       style="fill:#ffffff;fill-opacity:1;fill-rule:evenodd;stroke:none;stroke-width:0.86000001"
       d="m 74.67,141.39 c -0.34,0 -1.76,-0.01 -2.12,-0.03 -0.23,-0.01 -0.52,-0.05 -0.63,-0.29 -0.09,-0.21 -0.02,-0.53 -0.02,-0.75 v -0.46 c 8.66e-4,-0.07 0.01,-0.22 -0.09,-0.24 -0.06,-0.01 -0.12,0.01 -0.18,0.02 -0.05,0.01 -0.11,0.03 -0.17,0.05 -0.08,0.02 -0.29,0.12 -0.36,0.27 -0.05,0.1 -0.04,0.25 -0.03,0.39 v 0.11 0.06 c 0,0.06 0,0.15 -0.03,0.2 -0.01,0.01 -0.03,0.03 -0.06,0.04 -0.06,0.02 -0.12,0.03 -0.19,0.03 -1.63,0.09 -3.1,0.31 -4.33,0.91 -0.02,0.01 -0.05,0.03 -0.08,0.04 -0.02,0.01 -0.05,0.03 -0.07,0.05 -0.05,0.02 -0.09,0.04 -0.13,0.08 l -0.01,0.02 c 0,0 -0.01,0.01 -0.02,0.01 -0.01,0.01 -0.02,0.03 -0.01,0.05 0.01,0.02 0.06,0 0.09,0 0.04,-0.01 0.07,-0.03 0.11,-0.04 h 0.03 c 0,0 0.01,-0.01 0.03,-0.01 0.03,-0.01 0.06,-0.02 0.09,-0.02 0.05,-0.01 0.11,-0.02 0.17,-0.04 0.12,-0.03 0.23,-0.06 0.35,-0.1 0.12,-0.03 0.25,-0.06 0.38,-0.09 0.13,-0.03 0.27,-0.06 0.41,-0.09 0.14,-0.03 0.28,-0.05 0.43,-0.07 0.14,-0.02 0.3,-0.04 0.45,-0.06 0.15,-0.01 0.3,-0.03 0.46,-0.04 0.16,0 0.32,-0.01 0.48,-0.01 0.16,0 0.33,0 0.5,0.01 0.17,0.01 0.34,0.01 0.5,0.04 0.09,0.01 0.18,0.03 0.27,0.04 0.09,0.01 0.21,0.03 0.28,-0.02 0.01,0 0.01,-0.01 0.02,-0.03 0.03,-0.04 0.03,-0.11 0.04,-0.17 0,-0.03 -8.65e-4,-0.07 -8.65e-4,-0.11 v -0.12 -0.47 -0.06 -0.12 c 0,-0.1 -0.01,-0.24 0.01,-0.29 0.03,-0.07 0.17,-0.15 0.24,-0.17 0.02,0 0.06,-0.01 0.09,-0.02 0.02,0 0.04,-0.01 0.07,0 0.04,0.04 0.03,0.16 0.03,0.22 v 0.24 0.09 c 0,0.2 -8.66e-4,0.42 -0.01,0.63 0,0.15 0,0.32 0.05,0.47 0.13,0.3 0.73,0.21 0.98,0.19 0.35,-0.02 0.65,-0.02 1.01,-0.01 0.36,0 0.72,-0.02 1.09,-0.01 h 2.14 0.9 0.9 0.9 0.9 0.45 c 0.06,0 0.12,0 0.18,0.01 0.03,0 0.08,0.01 0.11,-0.01 0,-0.01 0.02,-0.03 0.02,-0.05 0,-0.06 -0.08,-0.07 -0.13,-0.06 -0.06,8.7e-4 -0.13,-0.01 -0.19,-0.01 -0.11,0 -0.23,-0.01 -0.35,-0.01 -0.07,0 -0.15,-8.7e-4 -0.23,0 -0.18,0 -0.37,0 -0.56,-0.01 -0.21,0 -0.42,0 -0.63,-0.01 -0.23,0 -0.46,0 -0.69,-0.01 -0.24,0 -0.47,-0.01 -0.71,-0.01 -0.24,0 -0.47,-0.01 -0.71,-0.01 -0.23,0 -0.46,0 -0.69,-0.01 -0.21,0 -0.42,-0.01 -0.64,-0.01 -0.18,0 -0.37,0 -0.56,-0.01 -0.15,0 -0.3,0 -0.45,-0.01 h -0.09 m 1.33,-4.65 c -0.02,-0.02 -0.06,-0.02 -0.12,-0.02 -0.66,0 -1.33,0 -2,0 -0.03,0 -0.08,0 -0.12,0.01 -0.22,0.15 0.12,0.47 0.13,0.48 0.69,0.01 1.42,0 2.1,-0.03 m 1.13,-2.25 h 0.97 0.98 0.24 c 0.03,0 0.11,0.01 0.12,-0.03 0.01,-0.06 -0.12,-0.05 -0.16,-0.05 -0.06,0 -0.12,-0.01 -0.19,-0.02 -0.04,0 -0.08,-0.01 -0.13,-0.01 -0.03,0 -0.07,-0.01 -0.11,-0.01 -0.08,0 -0.16,0 -0.25,-0.01 -0.18,-0.01 -0.36,-0.02 -0.54,-0.04 -0.09,0 -0.19,-0.01 -0.29,-0.01 -0.48,-0.03 -0.61,-0.13 -0.7,-0.62 -0.01,-0.05 -0.03,-0.09 -0.04,-0.15 -0.01,-0.06 -0.01,-0.12 -0.01,-0.19 0,-0.03 0,-0.12 -0.06,-0.07 -0.03,0.03 -0.02,0.1 -0.02,0.14 v 0.08 0.14 c 0,0.06 -0.01,0.11 -0.02,0.17 -0.07,0.36 -0.28,0.62 -0.64,0.75 -0.83,0.29 -1.67,0.32 -2.52,0.04 -0.12,-0.03 -0.25,-0.09 -0.36,-0.16 -0.17,-0.11 -0.3,-0.25 -0.37,-0.45 -0.03,-0.1 -0.05,-0.19 -0.05,-0.3 0,-0.06 -0.01,-0.12 -0.01,-0.18 v -0.23 c 0,-0.02 0,-0.05 -0.03,-0.05 -0.01,0 -0.03,0.01 -0.04,0.03 -0.03,0.06 -0.01,0.13 -0.02,0.2 -0.01,0.08 -0.03,0.17 -0.05,0.25 -0.09,0.45 -0.22,0.56 -0.68,0.59 -0.1,0 -0.2,0.01 -0.31,0.02 -0.18,0.01 -0.36,0.02 -0.54,0.04 -0.08,0 -0.18,0.01 -0.27,0.02 -0.08,0 -0.16,0.02 -0.24,0.03 h -0.12 c -0.02,0 -0.1,0 -0.09,0.03 0.01,0.04 0.11,0.01 0.15,0.01 h 0.25 c 0.3,0 0.61,0.01 0.92,0.01 0.3,0 0.61,0.01 0.92,0.02 0.09,0 0.18,0.03 0.26,0.07 1.27,0.62 2.54,0.62 3.81,0 0.09,-0.04 0.2,-0.07 0.31,-0.07 m 5.46,7.45 c 0,0.02 -0.01,0.05 -0.03,0.06 -0.01,0.01 -0.04,0.03 -0.06,0.03 -0.03,0.01 -0.07,0 -0.1,0 h -0.16 c -0.06,0.01 -0.13,0 -0.2,0 h -1.44 c -2.88,5.9e-4 -5.84,0 -8.79,0 -0.09,0 -0.22,0.02 -0.3,-0.03 -0.09,-0.06 -0.03,-0.18 -0.09,-0.27 -0.03,-0.06 -0.12,-0.05 -0.18,-0.05 -0.85,-0.01 -1.73,0 -2.58,-0.01 -0.75,-0.02 -1.5,0.01 -2.32,0.01 H 66.2 66.13 c -0.02,0 -0.04,-0.01 -0.06,-0.02 -0.02,-0.01 -0.04,-0.02 -0.05,-0.04 0,-0.01 0,-0.02 -0.01,-0.03 0,-0.01 -0.01,-0.01 -0.02,-0.03 v -0.04 c 0,-0.03 0,-0.05 0.01,-0.08 0.01,-0.02 0.01,-0.06 0.03,-0.09 0.02,-0.03 0.04,-0.05 0.06,-0.09 0.24,-0.36 0.49,-0.55 0.82,-0.85 1.48,-0.88 3.19,-1.18 4.9,-1.74 0.43,-0.17 0.7,-0.54 0.82,-0.98 0.01,-0.05 0.01,-0.1 0.01,-0.16 0,-0.07 0.01,-0.12 0.04,-0.19 0.04,-0.08 0,-0.17 0,-0.26 -0.01,-0.07 0,-0.15 0,-0.22 -8.66e-4,-0.04 -0.02,-0.08 -0.04,-0.12 -0.02,-0.04 -0.02,-0.08 -0.03,-0.12 v -0.09 c 0,-0.05 -0.01,-0.08 -0.03,-0.12 -0.02,-0.07 -0.05,-0.14 -0.07,-0.21 -0.05,-0.13 -0.16,-0.21 -0.26,-0.3 -0.11,-0.09 -0.23,-0.17 -0.37,-0.24 -0.05,-0.03 -0.11,-0.05 -0.17,-0.08 -0.62,-0.3 -1.3,-0.62 -1.79,-0.9 -0.06,-0.03 -0.11,-0.15 -0.11,-0.23 v -0.19 c -8.65e-4,-0.05 0.01,-0.1 0.01,-0.15 0,-0.26 -0.01,-0.53 -0.01,-0.8 -8.66e-4,-0.18 0.08,-0.28 0.28,-0.27 0.9,0 1.78,0.02 2.65,0.01 0.07,0 0.16,0.02 0.22,0.06 0.45,0.39 1,0.57 1.58,0.61 0.83,0.06 1.62,-0.05 2.29,-0.6 0.06,-0.05 0.16,-0.07 0.24,-0.07 1.04,-0.02 2.14,-0.03 2.9,0.29 v 0.36 c 0,0.03 -0.01,0.06 -0.01,0.09 v 0.11 c 0.02,0.15 0.01,0.32 0.01,0.49 0,0.18 -0.05,0.29 -0.22,0.38 -0.27,0.14 -0.69,0.31 -1.25,0.53 -0.07,0.02 -0.14,0.05 -0.21,0.08 -0.15,0.06 -0.29,0.13 -0.43,0.22 -0.07,0.04 -0.14,0.1 -0.21,0.16 -0.03,0.02 -0.05,0.05 -0.09,0.07 -0.02,0.01 -0.04,0.04 -0.06,0.06 -0.01,0.02 -0.03,0.05 -0.05,0.08 -0.01,0.02 -0.03,0.03 -0.04,0.06 0,0.01 -0.01,0.03 -0.02,0.04 -0.02,0.04 -0.04,0.09 -0.06,0.14 -0.01,0.04 -0.05,0.08 -0.07,0.12 -0.01,0.02 -0.01,0.04 -0.02,0.06 -0.01,0.02 -0.01,0.04 -0.03,0.06 0,0.01 -0.02,0.02 -0.03,0.03 -0.02,0.04 -0.03,0.1 -0.04,0.15 -0.02,0.1 -0.05,0.21 -0.07,0.32 -0.04,0.31 -0.03,0.63 0.05,0.94 0.09,0.33 0.29,0.63 0.53,0.88 0.27,0.27 0.6,0.5 0.95,0.67 0.09,0.04 0.18,0.04 0.27,0.08 0.03,0.01 0.07,0.05 0.09,0.06 0.02,0 0.05,0 0.07,0.01 0.01,0 0.03,0.02 0.05,0.02 0.04,0.01 0.07,0.02 0.12,0.02 0.11,0.01 0.18,0.08 0.28,0.13 0.11,0.04 0.23,0.05 0.35,0.08 0.12,0.03 0.23,0.05 0.36,0.09 0.06,0.01 0.12,0.03 0.18,0.05 l 0.33,0.09 c 0.04,0.01 0.09,0.03 0.14,0.04 0.04,0 0.09,0 0.14,0.01 0.02,0.01 0.05,0.02 0.08,0.02 0.03,0 0.04,0.01 0.07,0.02 0.01,0.01 0.04,0.01 0.06,0.02 0.08,0.03 0.16,0.05 0.25,0.07 0.1,0.02 0.2,0.05 0.3,0.08 0.06,0.01 0.13,0.03 0.19,0.07 0.1,0.06 0.14,0.18 0.15,0.3 v 0.16 0.09 c 0,0.02 -0.01,0.07 0,0.09 0,0.01 0.01,0.02 0.02,0.03 0.01,0.02 0,0.06 0,0.09 0,0.02 0.01,0.05 0.02,0.07 0.02,0.05 0.07,0.09 0.13,0.13 0.04,0.02 0.07,0.05 0.1,0.09 0.05,0.07 0.08,0.16 0.09,0.26 0,0.04 0,0.12 -0.01,0.18"
       sodipodi:nodetypes="cccscccccccscscccccccscccccccsscccsscscccscccsccccscsccccccccccsccscssccccsscsccccccccccccscscssccccsscscscccccssssscccccccscssscccccccscsccccccccsscccscsccccscccscsccccccscsccccccccsscscccccscccccssccsccccccccccscccccscccccccsccsccccc" />
    <path
       inkscape:connector-curvature="0"
       id="path12627"
       style="fill:#d9b7b7;fill-opacity:1;fill-rule:nonzero;stroke:none;stroke-width:0.86000001"
       d="m 76.77,147.44 c 0,-0.98 -0.79,-1.77 -1.77,-1.77 -0.97,0 -1.77,0.79 -1.77,1.77 0,0.97 0.79,1.77 1.77,1.77 0.97,0 1.77,-0.79 1.77,-1.77" />
    <path
       inkscape:connector-curvature="0"
       id="path12631"
       style="fill:#ffffff;fill-opacity:1;fill-rule:nonzero;stroke:none;stroke-width:0.86000001"
       d="m 76.2,147.44 c 0,-0.66 -0.53,-1.2 -1.2,-1.2 -0.66,0 -1.2,0.53 -1.2,1.2 0,0.66 0.53,1.2 1.2,1.2 0.66,0 1.2,-0.53 1.2,-1.2" />
  </g>
  <g id="g_suit_blades">
    <path
       inkscape:connector-curvature="0"
       id="path12563"
       style="fill:#b6b6da;fill-opacity:1;fill-rule:nonzero;stroke:none;stroke-width:0.86000001"
       d="m 138.49,87.52 c -5.45,0 -9.88,-5.58 -9.88,-12.47 0,-6.89 4.42,-12.47 9.88,-12.47 5.45,0 9.88,5.58 9.88,12.47 0,6.88 -4.42,12.47 -9.88,12.47" />
    <path
       inkscape:connector-curvature="0"
       id="path12567"
       style="fill:#000033;fill-opacity:1;fill-rule:nonzero;stroke:none;stroke-width:0.86000001"
       d="m 138.49,86.48 c -5,0 -9.05,-5.11 -9.05,-11.42 0,-6.31 4.05,-11.43 9.05,-11.43 4.99,0 9.05,5.11 9.05,11.43 0,6.31 -4.05,11.42 -9.05,11.42" />
    <path
       inkscape:connector-curvature="0"
       id="path12571"
       style="fill:#ffffff;fill-opacity:1;fill-rule:nonzero;stroke:none;stroke-width:0.86000001"
       d="m 135.64,76.76 c -0.12,0.14 -0.29,0.32 -0.29,0.32 l 1.13,0.99 c 0.46,-0.52 0.99,-1.12 1.55,-1.73 -0.09,-0.1 -0.19,-0.21 -0.28,-0.32 -0.11,0.13 -0.2,0.23 -0.26,0.29 -0.28,0.31 -0.51,0.58 -0.67,0.77 -0.16,0.18 -0.25,0.29 -0.25,0.29 v 0 c -0.03,0.03 -0.09,0.04 -0.13,0.02 -0.01,0 -0.03,0 -0.04,-0.01 z" />
    <path
       inkscape:connector-curvature="0"
       id="path12575"
       style="fill:#ffffff;fill-opacity:1;fill-rule:nonzero;stroke:none;stroke-width:0.86000001"
       d="m 135.72,76.67 0.65,0.57 c 0,0 0,-0.01 0.01,-0.01 h 8.7e-4 c 0,0 0.38,-0.41 0.95,-1.04 0.05,-0.06 0.15,-0.17 0.27,-0.3 -0.2,-0.22 -0.4,-0.45 -0.59,-0.66 -0.62,0.7 -1.14,1.28 -1.23,1.38 0,0 -0.03,0.04 -0.07,0.08" />
    <path
       inkscape:connector-curvature="0"
       id="path12579"
       style="fill:#ffffff;fill-opacity:1;fill-rule:nonzero;stroke:none;stroke-width:0.86000001"
       d="m 144.38,70.26 c 0,0.01 0,0.02 -0.01,0.02 v 0 l -0.09,0.03 c -0.06,0.02 -0.15,0.05 -0.26,0.1 -0.22,0.09 -0.55,0.23 -0.92,0.44 -0.7,0.38 -1.25,0.83 -1.83,1.3 -0.21,0.18 -0.4,0.37 -0.6,0.58 -0.38,0.41 -0.76,0.83 -1.12,1.23 -0.11,0.13 -0.34,0.38 -0.59,0.68 l -0.12,-0.12 c 0.26,-0.29 0.48,-0.54 0.6,-0.66 0.36,-0.38 0.75,-0.8 1.15,-1.21 0.19,-0.2 0.4,-0.4 0.62,-0.58 0.57,-0.5 1.25,-0.9 1.87,-1.27 0.37,-0.19 0.7,-0.34 0.94,-0.42 0.11,-0.04 0.2,-0.07 0.27,-0.09 0.06,-0.01 0.09,-0.03 0.09,-0.03 0.01,0 0.02,0 0.02,0.01 m -1.65,0.02 c -0.03,0 -0.07,0.01 -0.11,0.02 -0.03,0.01 -0.04,0.04 -0.08,0.06 -1.14,0.34 -2.11,1.19 -2.81,1.82 -0.1,0.11 -0.74,0.82 -1.47,1.63 -0.62,-0.67 -1.2,-1.32 -1.7,-1.89 l -1.13,0.99 c 0,0 0.16,0.18 0.29,0.32 l 0.73,-0.63 c 0.01,-0.01 0.03,-0.01 0.04,-0.01 0.04,-0.02 0.09,-0.01 0.13,0.02 v 0 c 0,0 0.09,0.1 0.25,0.29 0.15,0.18 0.39,0.45 0.67,0.77 0.28,0.31 1.67,1.91 2.02,2.31 0.35,0.39 0.73,0.81 1.12,1.23 0.19,0.2 0.39,0.4 0.6,0.59 0.2,0.18 0.42,0.35 0.63,0.51 0.42,0.31 0.83,0.58 1.2,0.79 0.37,0.2 0.69,0.34 0.92,0.44 0.11,0.04 0.2,0.07 0.26,0.1 l 0.09,0.03 c 0.01,0 0.01,0.01 0.01,0.02 0,0.01 -0.01,0.01 -0.02,0.01 l -0.09,-0.03 c -0.06,-0.01 -0.15,-0.05 -0.27,-0.09 -0.23,-0.08 -0.56,-0.22 -0.94,-0.42 -0.37,-0.19 -0.8,-0.46 -1.23,-0.77 -0.21,-0.15 -0.43,-0.32 -0.64,-0.5 -0.21,-0.17 -0.42,-0.37 -0.61,-0.58 -0.4,-0.4 -0.78,-0.82 -1.15,-1.21 -0.36,-0.39 -1.76,-1.98 -2.05,-2.29 -0.57,-0.62 -0.95,-1.04 -0.95,-1.04 v 0 -0.01 l -0.65,0.57 c 0.03,0.04 0.06,0.07 0.07,0.08 0.1,0.11 0.2,0.23 0.31,0.34 0.2,0.22 0.41,0.46 0.61,0.69 0.25,0.29 0.52,0.58 0.78,0.87 0.27,0.3 0.55,0.61 0.82,0.92 0.12,0.14 0.26,0.27 0.38,0.42 0.1,0.13 0.19,0.28 0.36,0.35 0.03,0.01 0.08,0.02 0.11,0.04 0.05,0.03 0.02,0.06 0.03,0.11 0.22,0.42 0.65,0.72 1.04,1.08 0.16,0.13 0.32,0.26 0.49,0.39 0.07,0.05 0.15,0.1 0.22,0.16 0.45,0.23 0.91,0.48 1.31,0.71 h 0.1 c 0.04,0 0.03,-0.01 0.07,0.01 0.03,0.02 0.04,0.05 0.08,0.06 0.03,0.01 0.07,0.02 0.1,0.03 0.07,0.02 0.16,0.04 0.24,0.06 0.62,0.15 1.26,0.19 1.89,0.16 0.08,0 0.09,-0.07 0.01,-0.1 -1.17,-0.49 -3.5,-2.67 -5.63,-4.88 2.12,-2.21 4.45,-4.39 5.63,-4.88 0.07,-0.03 0.06,-0.1 -0.01,-0.1 -0.63,-0.02 -1.27,0.01 -1.89,0.16 l -0.24,0.06"
       sodipodi:nodetypes="cccscccccccccccccccccccccccccccccccccccccsccccccccccccccccccccccccccsccccccccccc" />
    <path
       inkscape:connector-curvature="0"
       id="path12583"
       style="fill:#ffffff;fill-opacity:1;fill-rule:nonzero;stroke:none;stroke-width:0.86000001"
       d="m 137.09,79.74 c 0.01,0.02 0.02,0.06 0.02,0.09 0.01,0.18 0,0.38 -0.19,0.48 -0.06,0.03 -0.28,0.03 -0.24,-0.09 0.02,-0.06 0.1,-0.06 0.15,-0.07 0.06,-0.02 0.13,-0.07 0.17,-0.13 0.04,-0.06 0.03,-0.14 0.03,-0.21 V 79.74 79.7 79.68 c 0.02,0.01 0.03,0.05 0.04,0.08 m -3.77,1.68 c 0.03,-0.01 0.06,-0.03 0.09,-0.05 0.01,-0.01 0.02,-0.03 0.03,-0.04 0.63,-0.56 1.17,-1.34 1.85,-2.04 v -0.07 c 0,-0.01 0.03,-0.04 0.05,-0.06 v -0.01 l 0.01,-0.01 c 0.03,-0.03 0.07,-0.06 0.1,-0.1 0.13,-0.14 0.3,-0.18 0.49,-0.04 0.03,0.03 0.07,0.06 0.1,0.1 v 0 c 0.17,0.17 0.34,0.36 0.49,0.58 0.02,0.04 0.08,0.12 0.04,0.17 -0.02,0.03 -0.08,0.03 -0.12,0.04 -0.08,0.01 -0.2,0.11 -0.24,0.18 -0.19,0.43 0.32,0.71 0.58,0.59 0.2,-0.09 0.32,-0.39 0.32,-0.59 -0.03,-0.59 -0.37,-1.08 -0.74,-1.5 -0.49,-0.54 -1.06,-0.97 -1.62,-1.43 -0.44,-0.37 -0.78,-0.86 -0.81,-1.45 v -0.14 c -0.1,-0.04 -0.19,0.01 -0.26,0.1 v 0.09 c -0.03,0.4 0.04,0.8 0.21,1.16 0.12,0.24 0.26,0.46 0.42,0.65 v 0 l 0.04,0.04 c 0.02,0.02 0.04,0.05 0.06,0.07 0.14,0.17 0.16,0.34 0.04,0.49 -0.03,0.03 -0.06,0.07 -0.08,0.11 -0.67,0.73 -1.27,1.52 -1.96,2.17 -0.01,0.02 0,0.04 0,0.06 v 0.09 c 0,0.03 -0.01,0.05 -0.03,0.08 -0.01,0.01 -0.04,0.03 -0.05,0.05 -0.01,0.02 0,0.06 0,0.08 0,0.02 0,0.06 0.01,0.09 0.02,0.05 0.05,0.11 0.1,0.15 l 0.38,0.33 c 0.04,0.03 0.08,0.06 0.14,0.08 0.07,0.02 0.15,0.02 0.23,0 0.03,-0.01 0.06,-0.02 0.09,-0.04"
       sodipodi:nodetypes="cccscssccccccccsccscccccccccccccccccccsccccsscsscccccc" />
    <path
       inkscape:connector-curvature="0"
       id="path12587"
       style="fill:#ffffff;fill-opacity:1;fill-rule:nonzero;stroke:none;stroke-width:0.86000001"
       d="M 137.05,70.41 V 70.37 70.3 c 0,-0.07 0,-0.15 -0.03,-0.21 -0.04,-0.06 -0.1,-0.11 -0.17,-0.13 -0.05,-0.01 -0.13,-0.01 -0.15,-0.07 -0.04,-0.11 0.17,-0.12 0.24,-0.08 0.19,0.1 0.19,0.29 0.19,0.48 0,0.03 -0.01,0.06 -0.02,0.09 0,0.03 -0.01,0.06 -0.04,0.08 0,0 0,-0.01 0.01,-0.02 m -2.98,4.16 c 0.03,-0.59 0.37,-1.08 0.81,-1.45 0.55,-0.46 1.13,-0.89 1.62,-1.43 0.37,-0.41 0.71,-0.9 0.74,-1.5 0.01,-0.2 -0.11,-0.5 -0.31,-0.6 -0.26,-0.11 -0.78,0.15 -0.58,0.59 0.03,0.07 0.15,0.17 0.23,0.18 0.04,0 0.09,0 0.12,0.03 0.03,0.04 -0.01,0.13 -0.04,0.17 -0.14,0.21 -0.31,0.4 -0.48,0.58 v 0 c -0.03,0.03 -0.07,0.06 -0.1,0.1 -0.18,0.14 -0.35,0.1 -0.49,-0.04 -0.72,-0.91 -1.39,-1.65 -2.1,-2.37 -0.03,-0.01 -0.06,-0.03 -0.09,-0.04 -0.07,-0.02 -0.15,-0.02 -0.23,0 -0.05,0.01 -0.09,0.05 -0.14,0.08 l -0.38,0.33 c -0.04,0.04 -0.08,0.09 -0.1,0.15 -0.01,0.02 -0.01,0.05 -0.01,0.08 0,0.02 -0.01,0.06 0,0.08 0.01,0.01 0.03,0.04 0.05,0.06 0.49,0.85 1.39,1.66 2.07,2.48 0.11,0.14 0.1,0.31 -0.04,0.49 l -0.06,0.07 -0.04,0.04 v 0 c -0.16,0.18 -0.3,0.4 -0.42,0.65 -0.17,0.36 -0.25,0.76 -0.21,1.16 8.6e-4,0.03 0,0.06 0,0.09 0.06,0.09 0.15,0.15 0.26,0.1 v -0.14"
       sodipodi:nodetypes="ccsccccsccccccscccccccccccccccscccccccccccc" />
    <path
       inkscape:connector-curvature="0"
       id="path12635"
       style="fill:#b7b7d9;fill-opacity:1;fill-rule:nonzero;stroke:none;stroke-width:0.86000001"
       d="m 149.62,72.58 c 0,0.98 -0.79,1.77 -1.77,1.77 -0.98,0 -1.77,-0.79 -1.77,-1.77 0,-0.98 0.79,-1.77 1.77,-1.77 0.98,0 1.77,0.79 1.77,1.77" />
    <path
       inkscape:connector-curvature="0"
       id="path12639"
       style="fill:#ffffff;fill-opacity:1;fill-rule:nonzero;stroke:none;stroke-width:0.86000001"
       d="m 149.05,72.58 c 0,0.66 -0.53,1.2 -1.2,1.2 -0.66,0 -1.2,-0.53 -1.2,-1.2 0,-0.66 0.54,-1.2 1.2,-1.2 0.66,0 1.2,0.53 1.2,1.2" />
    <path
       inkscape:connector-curvature="0"
       id="path12643"
       style="fill:#b7b7d9;fill-opacity:1;fill-rule:nonzero;stroke:none;stroke-width:0.86000001"
       d="m 149.62,77.51 c 0,0.98 -0.79,1.77 -1.77,1.77 -0.98,0 -1.77,-0.79 -1.77,-1.77 0,-0.98 0.79,-1.77 1.77,-1.77 0.98,0 1.77,0.79 1.77,1.77" />
    <path
       inkscape:connector-curvature="0"
       id="path12647"
       style="fill:#ffffff;fill-opacity:1;fill-rule:nonzero;stroke:none;stroke-width:0.86000001"
       d="m 149.05,77.51 c 0,0.66 -0.53,1.2 -1.2,1.2 -0.66,0 -1.2,-0.53 -1.2,-1.2 0,-0.66 0.54,-1.2 1.2,-1.2 0.66,0 1.2,0.53 1.2,1.2" />
  </g>
  <g id="g_suit_crown">
    <path
       inkscape:connector-curvature="0"
       id="path12555"
       style="fill:#d9d9b7;fill-opacity:1;fill-rule:nonzero;stroke:none;stroke-width:0.86000001"
       d="m 11.5,62.57 c 5.45,0 9.88,5.58 9.88,12.47 0,6.88 -4.42,12.47 -9.88,12.47 -5.45,0 -9.88,-5.58 -9.88,-12.47 0,-6.88 4.42,-12.47 9.88,-12.47" />
    <path
       inkscape:connector-curvature="0"
       id="path12559"
       style="fill:#333300;fill-opacity:1;fill-rule:nonzero;stroke:none;stroke-width:0.86000001"
       d="m 11.5,63.62 c 4.99,0 9.05,5.11 9.05,11.42 0,6.31 -4.05,11.43 -9.05,11.43 -4.99,0 -9.05,-5.11 -9.05,-11.43 0,-6.31 4.05,-11.42 9.05,-11.42" />
    <path
       inkscape:connector-curvature="0"
       id="path12591"
       style="fill:#ffffff;fill-opacity:1;fill-rule:nonzero;stroke:none;stroke-width:0.86000001"
       d="m 15.49,70.71 c -0.16,0.19 -0.23,0.42 -0.3,0.64 -0.11,0.32 -0.21,0.64 -0.28,0.96 -0.01,0.08 -0.03,0.16 -0.04,0.24 -0.1,0.58 -0.16,1.16 -0.19,1.75 -0.03,0.63 -0.02,1.26 0.03,1.9 0.02,0.26 0.05,0.52 0.09,0.78 0.06,0.46 0.15,0.92 0.28,1.38 0.1,0.36 0.2,0.83 0.55,1.1 0.04,0.03 0.13,0.06 0.21,0.07 0.51,0.06 0.62,-0.72 0.66,-0.98 0.05,-0.33 0.09,-0.67 0.1,-1.02 0.01,-0.15 0.02,-0.3 0.02,-0.45 0,-0.13 0,-0.26 0.01,-0.39 0.01,-0.38 0.01,-0.76 0.01,-1.14 0,-1.03 -0.03,-2.31 -0.12,-2.99 C 16.5,72.35 16.46,72.1 16.32,71.93 16.2,71.78 15.99,71.84 15.9,72 c -0.08,0.16 -0.14,0.33 -0.18,0.51 -0.04,0.17 -0.08,0.34 -0.12,0.51 -0.12,0.61 -0.17,1.23 -0.19,1.85 -0.02,0.5 -0.01,1.01 0.01,1.51 0.01,0.21 0.03,0.42 0.05,0.62 0.03,0.37 0.08,0.74 0.17,1.1 0.01,0.07 0.03,0.15 0.04,0.22 0.04,0.2 -0.05,0.22 -0.12,0.01 -0.04,-0.14 -0.07,-0.29 -0.11,-0.42 -0.1,-0.4 -0.16,-0.81 -0.21,-1.21 -0.02,-0.22 -0.04,-0.45 -0.06,-0.69 -0.03,-0.45 -0.04,-0.9 -0.03,-1.35 0.02,-0.98 0.13,-1.96 0.42,-2.92 0.05,-0.19 0.11,-0.39 0.23,-0.56 0.11,-0.15 0.32,-0.24 0.48,-0.07 0.01,0 0.02,0.03 0.03,0.03 0.01,0 0.03,0 0.05,8.65e-4 0.02,0 0.03,-0.07 0.03,-0.09 8.65e-4,-0.03 -0.02,-0.08 -0.03,-0.11 -0.03,-0.08 -0.07,-0.16 -0.13,-0.24 -0.03,-0.04 -0.06,-0.08 -0.1,-0.12 -0.21,-0.19 -0.48,-0.09 -0.63,0.08" />
    <path
       inkscape:connector-curvature="0"
       id="path12595"
       style="fill:#ffffff;fill-opacity:1;fill-rule:nonzero;stroke:none;stroke-width:0.86000001"
       d="m 12.17,74.24 c 0.04,0.05 0.09,0.1 0.14,0.15 0.17,0.17 0.36,0.3 0.58,0.41 0.05,0.03 0.11,0.05 0.18,0.07 0.05,0.01 0.11,0.02 0.16,0.06 0.02,0.01 0.03,0.04 0.03,0.07 0,0.01 0,0.03 -0.01,0.05 -0.03,0.04 -0.08,0.05 -0.13,0.07 -0.21,0.07 -0.41,0.19 -0.6,0.33 -0.08,0.06 -0.16,0.14 -0.24,0.22 -0.04,0.04 -0.07,0.09 -0.11,0.13 -0.01,0.01 -0.04,0.03 -0.07,0.03 -0.02,0 -0.06,0 -0.08,-0.01 -0.04,-0.02 -0.06,-0.09 -0.08,-0.13 -0.03,-0.05 -0.07,-0.09 -0.12,-0.14 -0.3,-0.26 -0.39,-0.27 -0.78,-0.31 -0.06,0 -0.1,-0.02 -0.1,-0.09 8.66e-4,-0.04 0,-0.09 0,-0.14 v 0 V 75 c 0,-0.04 0,-0.09 0,-0.14 0,-0.07 0.03,-0.08 0.1,-0.09 0.13,-0.01 0.15,-0.02 0.28,-0.04 0.3,-0.03 0.37,-0.12 0.58,-0.37 0.05,-0.06 0.09,-0.19 0.2,-0.18 0.04,0 0.06,0.02 0.09,0.06 m 0.21,-5.79 c -0.01,0 -0.03,0.01 -0.05,0.02 -0.04,0.02 -0.08,0.04 -0.12,0.06 -0.35,0.17 -0.9,0.36 -1.77,0.4 -0.04,0 -0.08,0 -0.12,0.01 -0.03,0 -0.07,0 -0.09,0.01 0,0 -0.02,0.02 -0.02,0.03 0,0.01 0,0.03 0,0.05 0,0.02 0.01,0.03 0.03,0.04 0.04,0.04 0.08,0.08 0.12,0.12 0.23,0.25 0.52,0.68 0.59,1.35 0,0.03 0,0.07 0,0.1 0,0.04 0,0.1 0.04,0.12 0.05,0.02 0.09,-0.04 0.12,-0.07 0.02,-0.02 0.05,-0.05 0.08,-0.07 0.09,-0.08 0.2,-0.16 0.31,-0.19 0.69,-0.2 1.35,0.06 1.43,0.86 0.02,0.29 -0.12,0.61 -0.44,0.65 -0.17,0.01 -0.36,-0.12 -0.53,-0.14 -0.31,-0.04 -0.21,0.24 -0.08,0.4 0.22,0.28 0.18,0.72 0.03,1.05 -0.14,0.32 -0.19,0.42 -0.5,0.53 -0.34,0.11 -0.53,0.07 -0.53,-0.22 v -0.04 c 0,-0.11 0,-0.14 0,-0.28 v 0 -0.01 c 0,-0.12 -0.03,-0.16 -0.18,-0.16 -0.17,0 -0.18,0 -0.32,0 -0.17,0 -0.17,0.12 -0.17,0.23 0,0.11 -8.66e-4,0.23 -8.66e-4,0.36 -0.45,-0.17 -0.77,-0.58 -0.8,-1.01 0,-0.13 0.01,-0.37 0.08,-0.48 0.15,-0.24 0.46,-0.39 0.75,-0.33 0.03,0 0.07,0.02 0.1,0.04 0.03,0.01 0.08,0.02 0.11,0 0.01,0 0.02,-0.01 0.02,-0.04 0,-0.07 -0.04,-0.16 -0.08,-0.23 -0.07,-0.12 -0.18,-0.23 -0.3,-0.32 -0.24,-0.16 -0.56,-0.22 -0.84,-0.16 -0.16,0.03 -0.32,0.1 -0.45,0.2 -0.52,0.41 -0.6,1.39 -0.08,2.06 0.37,0.46 0.78,0.7 1.33,0.83 0.05,0.01 0.11,0.01 0.16,0.02 v 0.29 c -0.59,-0.05 -1.32,-0.14 -1.72,-0.52 -0.06,-0.05 -0.11,-0.12 -0.16,-0.2 -0.04,-0.06 -0.08,-0.13 -0.12,-0.21 -0.02,-0.04 -0.03,-0.1 -0.08,-0.13 -0.12,-0.08 -0.22,0.1 -0.28,0.18 -0.78,1.12 -1.55,1.24 -1.67,1.28 -0.04,0.01 -0.13,0.04 -0.14,0.09 0,0.01 0,0.03 0.02,0.04 0.05,0.05 0.13,0.04 0.2,0.06 0.1,0.02 0.2,0.05 0.29,0.1 0.62,0.36 0.88,0.6 1.15,1 0.05,0.09 0.12,0.17 0.2,0.25 0.03,0.04 0.1,0.12 0.16,0.1 0.06,-0.01 0.09,-0.1 0.11,-0.15 0.03,-0.08 0.07,-0.16 0.12,-0.23 0.1,-0.13 0.23,-0.25 0.37,-0.34 0.14,-0.09 0.3,-0.15 0.45,-0.21 0.15,-0.05 0.32,-0.08 0.49,-0.11 0.01,0 0.03,0 0.05,0 0.11,-0.01 0.31,-0.03 0.5,-0.04 v 0.31 c -0.05,0 -0.11,0.01 -0.16,0.02 -0.54,0.12 -0.96,0.36 -1.33,0.83 -0.51,0.66 -0.44,1.64 0.08,2.06 0.13,0.1 0.29,0.17 0.45,0.2 0.28,0.05 0.6,0 0.84,-0.16 0.12,-0.07 0.23,-0.19 0.3,-0.32 0.04,-0.06 0.09,-0.15 0.08,-0.23 -8.66e-4,-0.01 0,-0.03 -0.02,-0.04 -0.03,-0.01 -0.08,0 -0.11,0 -0.03,0.01 -0.07,0.03 -0.1,0.04 -0.28,0.06 -0.59,-0.08 -0.75,-0.33 -0.07,-0.11 -0.09,-0.35 -0.08,-0.48 0.02,-0.42 0.34,-0.84 0.8,-1.01 0,0.12 8.66e-4,0.25 8.66e-4,0.37 0,0.1 0,0.23 0.17,0.23 0.14,0 -0.1,0 0.06,0 0.15,0 0.44,-0.04 0.44,-0.16 v -0.01 0 c 0,-0.14 0,-0.17 0,-0.29 v -0.04 c 0,-0.29 0.18,-0.34 0.53,-0.22 0.08,0.02 0.14,0.05 0.19,0.07 0.14,0.08 0.2,0.2 0.31,0.44 0.15,0.33 0.19,0.77 -0.03,1.05 -0.13,0.16 -0.23,0.44 0.08,0.4 0.17,-0.02 0.36,-0.16 0.53,-0.14 0.19,0.02 0.33,0.15 0.39,0.32 0,0 0,0 0,0 0.03,0.1 0.05,0.21 0.04,0.32 -0.08,0.8 -0.74,1.06 -1.43,0.86 -0.11,-0.03 -0.22,-0.11 -0.31,-0.19 -0.02,-0.02 -0.05,-0.04 -0.08,-0.07 -0.02,-0.02 -0.07,-0.09 -0.12,-0.07 -0.05,0.02 -0.04,0.08 -0.04,0.12 0,0.03 0,0.07 0,0.11 -0.06,0.66 -0.35,1.09 -0.59,1.34 -0.04,0.04 -0.08,0.08 -0.12,0.12 -0.01,0.01 -0.03,0.02 -0.03,0.04 0,0.01 0,0.03 0,0.05 0,0 0.01,0.02 0.02,0.03 0.02,0.02 0.06,0.01 0.09,0.01 0.04,0 0.08,0 0.12,0.01 0.87,0.03 1.41,0.23 1.77,0.4 0.04,0.01 0.08,0.04 0.12,0.06 0.01,0 0.03,0.01 0.05,0.02 0.01,0 0.04,0 0.05,0 0.1,0 0.09,-0.15 0.08,-0.21 -0.03,-0.18 -0.12,-0.68 0.3,-1.07 0.36,-0.29 0.84,-0.65 1.32,-0.84 0.11,-0.04 0.22,-0.01 0.27,0.06 0.02,0.03 0.03,0.08 0.06,0.11 0.06,0.1 0.18,0.09 0.29,0.07 0.05,0 0.14,-0.06 0.15,-0.1 0.01,-0.09 0,-0.18 -0.03,-0.27 -0.02,-0.09 -0.05,-0.18 -0.07,-0.27 -0.06,-0.16 -0.11,-0.33 -0.15,-0.47 l -0.03,-0.12 c -0.12,-0.43 -0.21,-0.89 -0.29,-1.44 -0.03,-0.24 -0.06,-0.5 -0.09,-0.8 -0.05,-0.61 -0.07,-1.28 -0.03,-1.96 0.03,-0.65 0.1,-1.25 0.2,-1.81 0.01,-0.08 0.03,-0.17 0.05,-0.25 0.06,-0.25 0.13,-0.53 0.24,-0.85 0.05,-0.22 0.12,-0.44 0.18,-0.66 0.02,-0.08 0.04,-0.18 0.03,-0.27 0,-0.04 -0.09,-0.09 -0.15,-0.1 -0.1,-0.01 -0.23,-0.02 -0.29,0.07 -0.02,0.03 -0.03,0.07 -0.06,0.11 -0.04,0.08 -0.15,0.1 -0.27,0.05 -0.47,-0.19 -0.95,-0.55 -1.31,-0.84 -0.42,-0.38 -0.34,-0.88 -0.3,-1.07 0.01,-0.06 0.01,-0.2 -0.08,-0.21 -0.01,-8.66e-4 -0.04,0 -0.05,8.66e-4" />
    <path
       inkscape:connector-curvature="0"
       id="path23411"
       style="fill:#d9d9b7;fill-opacity:1;fill-rule:nonzero;stroke:none;stroke-width:0.86000001"
       d="m 0.39,75.05 c 0,-0.98 0.79,-1.77 1.77,-1.77 0.98,0 1.77,0.79 1.77,1.77 0,0.98 -0.79,1.77 -1.77,1.77 -0.98,0 -1.77,-0.79 -1.77,-1.77" />
    <path
       inkscape:connector-curvature="0"
       id="path23415"
       style="fill:#ffffff;fill-opacity:1;fill-rule:nonzero;stroke:none;stroke-width:0.86000001"
       d="m 0.96,75.05 c 0,-0.66 0.53,-1.2 1.2,-1.2 0.66,0 1.2,0.53 1.2,1.2 0,0.66 -0.54,1.2 -1.2,1.2 -0.66,0 -1.2,-0.53 -1.2,-1.2" />
    <path
       inkscape:connector-curvature="0"
       id="path23419"
       style="fill:#d9d9b7;fill-opacity:1;fill-rule:nonzero;stroke:none;stroke-width:0.86000001"
       d="m 1.1,70.07 c 0,-0.98 0.79,-1.77 1.77,-1.77 0.98,0 1.77,0.79 1.77,1.77 0,0.98 -0.79,1.77 -1.77,1.77 -0.98,0 -1.77,-0.79 -1.77,-1.77" />
    <path
       inkscape:connector-curvature="0"
       id="path23423"
       style="fill:#ffffff;fill-opacity:1;fill-rule:nonzero;stroke:none;stroke-width:0.86000001"
       d="m 1.67,70.07 c 0,-0.66 0.53,-1.2 1.2,-1.2 0.66,0 1.2,0.53 1.2,1.2 0,0.66 -0.54,1.2 -1.2,1.2 -0.66,0 -1.2,-0.53 -1.2,-1.2" />
    <path
       inkscape:connector-curvature="0"
       id="path23427"
       style="fill:#d9d9b7;fill-opacity:1;fill-rule:nonzero;stroke:none;stroke-width:0.86000001"
       d="m 1.1,80.03 c 0,-0.98 0.79,-1.77 1.77,-1.77 0.98,0 1.77,0.79 1.77,1.77 0,0.98 -0.79,1.77 -1.77,1.77 -0.98,0 -1.77,-0.79 -1.77,-1.77" />
    <path
       inkscape:connector-curvature="0"
       id="path23431"
       style="fill:#ffffff;fill-opacity:1;fill-rule:nonzero;stroke:none;stroke-width:0.86000001"
       d="m 1.67,80.03 c 0,-0.66 0.53,-1.2 1.2,-1.2 0.66,0 1.2,0.53 1.2,1.2 0,0.66 -0.54,1.2 -1.2,1.2 -0.66,0 -1.2,-0.53 -1.2,-1.2" />
  </g>
  <g id="g_suit_dragon">
    <path
       d="m 87.47,11.6 c 8.66e-4,5.45 -5.58,9.88 -12.47,9.88 -6.88,0 -12.47,-4.42 -12.47,-9.88 0,-5.45 5.58,-9.87 12.47,-9.87 6.88,-8.65e-4 12.47,4.42 12.47,9.87"
       style="fill:#b7d9b7;fill-opacity:1;fill-rule:nonzero;stroke:none;stroke-width:0.86000001"
       id="path89033"
       inkscape:connector-curvature="0" />
    <path
       d="m 86.43,11.6 c 0,4.99 -5.11,9.05 -11.42,9.05 -6.31,0 -11.42,-4.05 -11.42,-9.05 8.66e-4,-5 5.11,-9.05 11.42,-9.05 6.31,8.65e-4 11.43,4.05 11.43,9.05"
       style="fill:#003300;fill-opacity:1;fill-rule:nonzero;stroke:none;stroke-width:0.86000001"
       id="path89037"
       inkscape:connector-curvature="0" />
    <path
       d="m 80.35,14.03 c 0,0.23 -0.11,0.48 -0.27,0.6 0.41,-0.11 0.82,-0.39 0.93,-0.65 -0.17,0.1 -0.46,0.17 -0.66,0.04"
       style="fill:#ffffff;fill-opacity:1;fill-rule:nonzero;stroke:none;stroke-width:0.86000001"
       id="path89041"
       inkscape:connector-curvature="0" />
    <path
       d="m 81.34,13.1 c -0.37,8.66e-4 -0.81,-0.07 -1.37,-0.29 -0.89,-0.36 -1.87,-0.47 -2.72,-0.37 -0.37,0.04 -0.71,0.13 -1.02,0.26 0.39,0.13 1.5,0 1.78,0.01 0.62,0.01 1.07,0.09 1.54,0.26 0.39,0.14 0.63,0.43 0.73,0.56 0.46,0.12 0.95,0.08 1.29,-0.07 0.19,-0.08 0.42,-0.28 0.52,-0.6 -0.21,0.16 -0.51,0.22 -0.76,0.22"
       style="fill:#ffffff;fill-opacity:1;fill-rule:nonzero;stroke:none;stroke-width:0.86000001"
       id="path89045"
       inkscape:connector-curvature="0" />
    <path
       d="M 80.6,7.93 C 80.1,7.7 79.38,7.66 78.86,7.63 H 78.75 C 78.37,7.61 77.69,7.52 77.33,7.11 77.33,7.11 77.32,7.1 77.3,7.07 77.28,7.04 77.24,7 77.21,6.95 77.2,6.93 77.18,6.9 77.16,6.87 77.15,6.84 77.13,6.8 77.12,6.77 77.11,6.73 77.1,6.7 77.09,6.65 c -0.01,-0.02 0,-0.08 -0.01,-0.12 0,-0.04 -0.01,-0.09 0,-0.13 0,-0.04 0,-0.08 0.01,-0.12 0,-0.04 0.01,-0.08 0.02,-0.12 0.01,-0.03 0.02,-0.07 0.02,-0.1 0,-0.03 0.02,-0.06 0.03,-0.08 0.01,-0.02 0.02,-0.04 0.02,-0.06 0.01,-0.03 0.02,-0.05 0.02,-0.05 0,0 -0.01,0.01 -0.03,0.05 C 77.16,5.93 77.15,5.95 77.14,5.98 77.13,6 77.11,6.02 77.1,6.06 77.09,6.09 77.07,6.12 77.06,6.16 77.05,6.19 77.03,6.23 77.02,6.28 77.01,6.32 77,6.37 76.99,6.41 76.98,6.45 76.98,6.5 76.98,6.55 c 0,0.04 0,0.08 0,0.14 0,0.04 0.01,0.09 0.01,0.14 0.01,0.04 0.02,0.08 0.03,0.13 0.01,0.03 0.02,0.08 0.04,0.11 0.03,0.07 0.06,0.12 0.08,0.15 0.02,0.03 0.03,0.05 0.03,0.05 l 0.08,-0.06 -0.07,0.07 c 0.38,0.44 1.06,0.56 1.57,0.59 h 0.11 c 0.5,0.02 1.19,0.06 1.66,0.28 0.39,0.18 1.06,0.62 1.04,1.5 0,0.03 -0.01,0.13 -0.03,0.23 -0.11,0.15 -0.3,0.16 -0.48,0.19 -0.1,0.01 -0.2,0.04 -0.31,0.06 -0.13,0.02 -0.27,0.05 -0.41,0.08 -1.39,0.28 -1.88,-0.1 -2.01,-0.12 -0.08,-0.01 -0.16,-0.04 -0.23,-0.09 0,0 -0.01,-0.01 -0.02,-0.02 -0.02,-0.02 -0.02,-0.06 -0.02,-0.1 0,-0.05 0,-0.08 0.02,-0.12 0,-0.01 0.03,-0.03 0.05,-0.04 0.02,-0.01 0.07,-0.03 0.1,-0.03 0.03,0 0.05,-0.02 0.07,-0.04 0.03,-0.03 0.04,-0.03 0.05,-0.08 0.02,-0.07 0.02,-0.16 0,-0.24 C 78.31,9.19 78.19,9.16 78.08,9.11 77.79,8.98 77.25,8.88 76.94,8.79 76.46,8.66 75.99,8.42 75.58,8.04 75.08,7.58 75.25,6.62 75.7,6.36 74.83,6.49 74.45,7.17 74.42,7.61 74.4,7.99 74.54,8.35 74.78,8.62 74.5,8.53 74.14,8.4 74.04,7.96 74,7.75 74.05,7.42 74.16,7.24 73.86,7.55 73.53,8.06 73.35,8.27 72.6,8.27 72.25,8.17 71.97,8.11 71.77,6.69 71.31,6.23 71.16,6.08 71.1,6.02 70.97,5.89 70.83,5.89 c -0.02,0 -0.04,0 -0.06,0.01 -0.01,0 -0.02,0.01 -0.03,0.03 0,0.01 0,0.02 0,0.04 0.06,0.15 0.12,0.27 0.18,0.38 0.13,0.27 0.23,0.47 0.31,0.86 0.1,0.49 0.06,0.69 0.02,0.72 C 71.24,7.94 71.21,7.95 71.18,7.94 70.79,7.9 69.99,7.55 69.39,7.09 69.24,6.98 68.89,6.7 68.75,6.58 68.36,6.25 68.31,6.12 68.19,6.29 c -0.04,0.05 0,0.21 0.07,0.31 0.13,0.19 0.27,0.38 0.43,0.56 0.35,0.38 0.73,0.71 1.19,0.97 0.9,0.5 1.74,0.7 2.6,0.83 -0.13,0.13 -0.26,0.29 -0.39,0.43 -0.54,0.62 -1.14,1.49 -1.8,2.72 -0.56,1.05 -1.01,1.73 -2.21,2.46 0.1,0.9 0.48,1.51 1.17,2.07 0.77,0.63 2.52,1.28 3.48,0.59 0.31,-0.22 0.36,-0.44 0.41,-0.81 0.02,-0.18 0.01,-0.38 0.06,-0.57 0.07,-0.33 0.28,-0.61 0.45,-0.9 0.21,-0.38 0.37,-0.73 0.8,-0.85 0.06,0.2 -0.02,0.51 -0.16,0.66 -0.36,0.39 -0.53,0.59 -0.54,1 0.32,-0.43 0.53,-0.59 1.07,-0.69 0.28,-0.05 0.45,-0.32 0.58,-0.55 0.02,-0.03 0.04,-0.07 0.06,-0.1 0.08,-0.13 0.2,-0.31 0.36,-0.48 0.03,-0.01 0.07,-0.02 0.11,-0.03 0.1,0.21 0.17,0.54 0.03,0.79 -0.16,0.3 -0.16,0.41 -0.14,0.54 0,-0.01 0.01,-0.02 0.02,-0.03 0.18,-0.24 0.33,-0.45 0.58,-0.63 0.17,-0.12 0.24,-0.31 0.32,-0.53 l 0.01,-0.04 c 0.04,-0.12 0.09,-0.26 0.16,-0.38 0.07,-0.01 0.14,-0.02 0.22,-0.03 0.12,0.37 -0.17,0.69 -0.1,1.03 0.31,-0.66 0.84,-0.67 0.92,-1.08 0.09,0 0.19,0 0.28,0.01 0.03,0 0.05,0 0.08,0 0.04,0.26 -0.19,0.45 -0.18,0.69 0.27,-0.39 0.6,-0.36 0.72,-0.58 0.17,0.05 0.34,0.12 0.51,0.23 0.23,0.15 0.26,0.45 0.03,0.65 -0.11,0.09 -0.23,0.16 -0.39,0.2 0.5,0.14 0.89,-0.04 1.06,-0.33 0.17,-0.3 0.13,-0.74 -0.35,-1.06 -0.51,-0.33 -1.68,-0.37 -1.69,-0.37 l -0.86,0.02 c -0.08,0 -0.95,0.07 -1.37,-0.27 -0.13,-0.11 -0.29,-0.29 -0.3,-0.47 -0.01,-0.28 0.11,-0.93 0.98,-0.98 0.62,-0.03 1.22,0.19 1.88,0.31 0.08,0.11 0.15,0.24 0.16,0.45 0.08,-0.1 0.15,-0.24 0.19,-0.4 0.07,0 0.14,0.01 0.21,0.01 0.03,0 0.06,0 0.09,0 0.12,0.13 0.23,0.28 0.25,0.55 0.11,-0.13 0.19,-0.34 0.21,-0.56 0.08,0 0.16,-0.01 0.23,-0.02 0.01,0.01 0.02,0.02 0.03,0.03 0.16,0.15 0.3,0.31 0.32,0.62 0.14,-0.17 0.25,-0.47 0.22,-0.78 0.09,-0.02 0.18,-0.05 0.26,-0.08 0.07,0.05 0.14,0.11 0.18,0.18 0.12,0.18 0.14,0.38 0.1,0.69 0.27,-0.21 0.51,-0.7 0.33,-1.21 0.17,-0.12 0.31,-0.27 0.39,-0.48 0.02,-0.07 0.04,-0.15 0.06,-0.23 0.02,-0.08 0.04,-0.17 0.04,-0.26 C 81.66,9.96 81.69,9.75 81.69,9.69 81.7,8.95 81.3,8.35 80.53,7.99"
       style="fill:#ffffff;fill-opacity:1;fill-rule:nonzero;stroke:none;stroke-width:0.86000001"
       id="path89049"
       inkscape:connector-curvature="0" />
    <path
       d="M 71.93,9.1 70.91,9.08 c 0.08,0.19 0.22,0.59 0.17,1.1 0.28,-0.4 0.56,-0.76 0.84,-1.08"
       style="fill:#ffffff;fill-opacity:1;fill-rule:nonzero;stroke:none;stroke-width:0.86000001"
       id="path89053"
       inkscape:connector-curvature="0" />
    <path
       d="m 70.26,11.46 c 0.25,-0.45 0.51,-0.87 0.76,-1.24 l -1.05,-0.08 c 0.09,0.21 0.34,0.74 0.28,1.32"
       style="fill:#ffffff;fill-opacity:1;fill-rule:nonzero;stroke:none;stroke-width:0.86000001"
       id="path89057"
       inkscape:connector-curvature="0" />
    <path
       d="m 69.28,13.1 h 8.66e-4 l -1.62,-0.18 c 0.22,0.27 0.33,0.75 0.32,1.32 0.59,-0.36 0.98,-0.73 1.29,-1.13"
       style="fill:#ffffff;fill-opacity:1;fill-rule:nonzero;stroke:none;stroke-width:0.86000001"
       id="path89061"
       inkscape:connector-curvature="0" />
    <path
       d="m 69.33,13.04 c 0.24,-0.32 0.44,-0.67 0.66,-1.09 0.08,-0.15 0.17,-0.31 0.25,-0.45 l -1.41,-0.05 c 0.14,0.24 0.49,0.96 0.49,1.6"
       style="fill:#ffffff;fill-opacity:1;fill-rule:nonzero;stroke:none;stroke-width:0.86000001"
       id="path89065"
       inkscape:connector-curvature="0" />
    <path
       d="m 82.45,5.57 c -0.98,0 -1.77,-0.79 -1.77,-1.77 8.66e-4,-0.98 0.79,-1.77 1.77,-1.77 0.98,0 1.77,0.79 1.77,1.77 -8.66e-4,0.98 -0.79,1.77 -1.77,1.77"
       style="fill:#b7d9b7;fill-opacity:1;fill-rule:nonzero;stroke:none;stroke-width:0.86000001"
       id="path89069"
       inkscape:connector-curvature="0" />
    <path
       d="m 82.45,5 c -0.66,0 -1.2,-0.53 -1.2,-1.2 -8.66e-4,-0.66 0.53,-1.2 1.2,-1.2 0.66,0 1.2,0.54 1.2,1.2 0,0.66 -0.54,1.2 -1.2,1.2"
       style="fill:#ffffff;fill-opacity:1;fill-rule:nonzero;stroke:none;stroke-width:0.86000001"
       id="path89073"
       inkscape:connector-curvature="0" />
    <path
       d="m 77.48,4.17 c -0.98,0 -1.77,-0.79 -1.77,-1.77 0,-0.98 0.79,-1.77 1.77,-1.77 0.98,0 1.77,0.79 1.77,1.77 -8.65e-4,0.98 -0.79,1.77 -1.77,1.77"
       style="fill:#b7d9b7;fill-opacity:1;fill-rule:nonzero;stroke:none;stroke-width:0.86000001"
       id="path89077"
       inkscape:connector-curvature="0" />
    <path
       d="m 77.48,3.6 c -0.66,0 -1.2,-0.53 -1.2,-1.2 -8.66e-4,-0.66 0.53,-1.2 1.2,-1.2 0.66,0 1.2,0.54 1.2,1.2 -8.66e-4,0.66 -0.54,1.2 -1.2,1.2"
       style="fill:#ffffff;fill-opacity:1;fill-rule:nonzero;stroke:none;stroke-width:0.86000001"
       id="path89081"
       inkscape:connector-curvature="0" />
    <path
       d="m 72.51,4.17 c -0.98,0 -1.77,-0.79 -1.77,-1.77 0,-0.98 0.79,-1.77 1.77,-1.77 0.98,0 1.77,0.79 1.77,1.77 8.65e-4,0.98 -0.79,1.77 -1.77,1.77"
       style="fill:#b7d9b7;fill-opacity:1;fill-rule:nonzero;stroke:none;stroke-width:0.86000001"
       id="path89085"
       inkscape:connector-curvature="0" />
    <path
       d="m 72.51,3.6 c -0.66,0 -1.2,-0.53 -1.2,-1.2 0,-0.66 0.53,-1.2 1.2,-1.2 0.66,0 1.2,0.54 1.2,1.2 8.65e-4,0.66 -0.53,1.2 -1.2,1.2"
       style="fill:#ffffff;fill-opacity:1;fill-rule:nonzero;stroke:none;stroke-width:0.86000001"
       id="path89089"
       inkscape:connector-curvature="0" />
    <path
       d="m 67.55,5.57 c -0.98,0 -1.77,-0.79 -1.77,-1.77 0,-0.98 0.79,-1.77 1.77,-1.77 0.98,0 1.77,0.79 1.77,1.77 -8.65e-4,0.98 -0.79,1.77 -1.77,1.77"
       style="fill:#b7d9b7;fill-opacity:1;fill-rule:nonzero;stroke:none;stroke-width:0.86000001"
       id="path89093"
       inkscape:connector-curvature="0" />
    <path
       d="m 67.55,5 c -0.66,0 -1.2,-0.53 -1.2,-1.2 -8.66e-4,-0.66 0.53,-1.2 1.2,-1.2 0.66,0 1.2,0.54 1.2,1.2 0,0.66 -0.53,1.2 -1.2,1.2"
       style="fill:#ffffff;fill-opacity:1;fill-rule:nonzero;stroke:none;stroke-width:0.86000001"
       id="path89097"
       inkscape:connector-curvature="0" />
  </g>
  <!-- -->
  <g id="g_anvil_3">
    <path
       inkscape:connector-curvature="0"
       id="path23383-4"
       style="fill:#80ff00;fill-opacity:1;fill-rule:nonzero;stroke:none;stroke-width:1.42"
       d="m 61.82,129.30 c 0,0.22 0.13,0.52 0.31,0.67 0.34,0.27 0.79,0.21 1.23,0.10 5.97,-1.87 10.47,-6.61 15.61,-13.63 0.88,1.5 1.99,2.47 3.40,3 1.84,0.67 4.05,0.22 5.04,-0.55 0.18,-0.13 0.28,-0.36 0.28,-0.6 0,-0.06 0,-0.13 -0.03,-0.21 -0.07,-0.28 -0.34,-0.51 -0.64,-0.54 -0.96,-0.10 -2.34,-1.57 -2.95,-2.82 l -0.82,-1.68 c -1.12,-2.25 -2.28,-4.57 -2.95,-5.80 -0.18,-0.36 -0.58,-0.58 -1.02,-0.58 -0.40,0 -0.76,0.22 -0.94,0.58 -4.23,8.79 -9.78,16.09 -16.03,21.15 -0.03,0.01 -0.06,0.04 -0.09,0.09 -0.16,0.19 -0.37,0.46 -0.37,0.81 m 0.76,0 c 0,-0.06 0.04,-0.16 0.18,-0.3 6.22,-5.02 11.86,-12.33 16.24,-21.42 0.09,-0.21 0.46,-0.19 0.58,0.03 0.82,1.5 2.38,4.66 3.76,7.42 0.66,1.32 2.20,3.09 3.57,3.25 -0.72,0.58 -2.61,1.03 -4.27,0.43 -1.47,-0.54 -2.61,-1.65 -3.55,-3.75 -5.31,7.38 -9.87,12.45 -15.9,14.35 -0.36,0.07 -0.6,0.09 -0.6,-0.03" />
    <path
       inkscape:connector-curvature="0"
       id="path23395-7"
       style="fill:#008000;fill-opacity:1;fill-rule:nonzero;stroke:none;stroke-width:1.42"
       d="m 63.20,129.34 c 6.01,-1.90 10.59,-6.97 15.9,-14.35 0.94,2.1 2.08,3.21 3.55,3.75 1.66,0.6 3.55,0.15 4.27,-0.43 -1.35,-0.15 -2.89,-1.92 -3.57,-3.25 -1.38,-2.76 -2.94,-5.92 -3.76,-7.42 -0.12,-0.22 -0.48,-0.24 -0.58,-0.03 -4.36,9.07 -10.00,16.38 -16.24,21.42 -0.39,0.43 -0.10,0.46 0.42,0.34" />
    <path
       d="m 84.68,129.30 c 0,0.22 0.13,0.52 0.31,0.67 0.34,0.27 0.79,0.21 1.23,0.10 5.97,-1.87 10.47,-6.61 15.61,-13.63 0.88,1.5 1.99,2.47 3.40,3 1.84,0.67 4.05,0.22 5.04,-0.55 0.18,-0.13 0.28,-0.36 0.28,-0.6 0,-0.06 0,-0.13 -0.03,-0.21 -0.07,-0.28 -0.34,-0.51 -0.64,-0.54 -0.96,-0.10 -2.34,-1.57 -2.95,-2.82 l -0.81,-1.65 c -1.12,-2.25 -2.28,-4.57 -2.95,-5.80 -0.18,-0.36 -0.58,-0.58 -1.02,-0.58 -0.40,0 -0.76,0.22 -0.94,0.58 -4.23,8.79 -9.78,16.09 -16.03,21.15 -0.03,0.01 -0.06,0.04 -0.09,0.09 -0.16,0.19 -0.37,0.46 -0.37,0.81 m 0.76,0 c 0,-0.06 0.04,-0.16 0.18,-0.3 6.22,-5.02 11.86,-12.33 16.24,-21.42 0.09,-0.21 0.46,-0.19 0.58,0.03 0.82,1.5 2.38,4.66 3.76,7.42 0.66,1.32 2.20,3.09 3.57,3.25 -0.72,0.58 -2.61,1.03 -4.27,0.43 -1.47,-0.54 -2.61,-1.65 -3.55,-3.75 -5.31,7.38 -9.87,12.45 -15.9,14.35 -0.36,0.07 -0.6,0.09 -0.6,-0.03"
       style="fill:#80ff00;fill-opacity:1;fill-rule:nonzero;stroke:none;stroke-width:1.42"
       id="path31585"
       inkscape:connector-curvature="0" />
    <path
       d="m 86.08,129.34 c 6.01,-1.90 10.59,-6.97 15.9,-14.35 0.94,2.1 2.08,3.21 3.55,3.75 1.66,0.6 3.55,0.15 4.27,-0.43 -1.35,-0.15 -2.89,-1.92 -3.57,-3.25 -1.38,-2.76 -2.94,-5.92 -3.76,-7.42 -0.12,-0.22 -0.48,-0.24 -0.58,-0.03 -4.36,9.07 -10.00,16.38 -16.24,21.42 -0.39,0.43 -0.10,0.46 0.42,0.34"
       style="fill:#008000;fill-opacity:1;fill-rule:nonzero;stroke:none;stroke-width:1.42"
       id="path31587"
       inkscape:connector-curvature="0" />
    <path
       d="m 38.95,129.30 c 0,0.22 0.13,0.52 0.31,0.67 0.34,0.27 0.79,0.21 1.23,0.10 5.97,-1.87 10.47,-6.61 15.61,-13.63 0.88,1.5 1.99,2.47 3.40,3 1.84,0.67 4.05,0.22 5.04,-0.55 0.18,-0.13 0.28,-0.36 0.28,-0.6 0,-0.06 0,-0.13 -0.03,-0.21 -0.07,-0.28 -0.34,-0.51 -0.64,-0.54 -0.96,-0.10 -2.34,-1.57 -2.95,-2.82 l -0.81,-1.65 c -1.12,-2.25 -2.28,-4.57 -2.95,-5.80 -0.18,-0.36 -0.58,-0.58 -1.02,-0.58 -0.40,0 -0.76,0.22 -0.94,0.58 -4.23,8.79 -9.78,16.09 -16.03,21.15 -0.03,0.01 -0.06,0.04 -0.09,0.09 -0.16,0.19 -0.37,0.46 -0.37,0.81 m 0.76,0 c 0,-0.06 0.04,-0.16 0.18,-0.3 6.22,-5.02 11.86,-12.33 16.24,-21.42 0.09,-0.21 0.46,-0.19 0.58,0.03 0.82,1.5 2.38,4.66 3.76,7.42 0.66,1.32 2.20,3.09 3.57,3.25 -0.72,0.58 -2.61,1.03 -4.27,0.43 -1.47,-0.54 -2.61,-1.65 -3.55,-3.75 -5.31,7.38 -9.87,12.45 -15.9,14.35 -0.36,0.07 -0.6,0.09 -0.6,-0.03"
       style="fill:#80ff00;fill-opacity:1;fill-rule:nonzero;stroke:none;stroke-width:1.42"
       id="path31591"
       inkscape:connector-curvature="0" />
    <path
       d="m 40.34,129.34 c 6.01,-1.90 10.59,-6.97 15.9,-14.35 0.94,2.1 2.08,3.21 3.55,3.75 1.66,0.6 3.55,0.15 4.27,-0.43 -1.35,-0.15 -2.89,-1.92 -3.57,-3.25 -1.38,-2.76 -2.94,-5.92 -3.76,-7.42 -0.12,-0.22 -0.48,-0.24 -0.58,-0.03 -4.36,9.07 -10.00,16.38 -16.24,21.42 -0.39,0.43 -0.10,0.46 0.42,0.34"
       style="fill:#008000;fill-opacity:1;fill-rule:nonzero;stroke:none;stroke-width:1.42"
       id="path31593"
       inkscape:connector-curvature="0" />
  </g>
  <g id="g_anvil_2">
    <path
       d="m 73.23,123.30 c 0,0.14 0.08,0.33 0.20,0.42 0.21,0.16 0.50,0.13 0.78,0.07 3.78,-1.18 6.62,-4.18 9.88,-8.62 0.56,0.94 1.26,1.57 2.14,1.89 1.16,0.43 2.56,0.14 3.19,-0.34 0.10,-0.08 0.18,-0.22 0.18,-0.37 0,-0.03 0,-0.08 -0.01,-0.13 -0.04,-0.18 -0.21,-0.32 -0.40,-0.34 -0.61,-0.06 -1.47,-0.99 -1.87,-1.78 l -0.51,-1.04 c -0.70,-1.42 -1.44,-2.90 -1.87,-3.67 -0.12,-0.22 -0.37,-0.37 -0.64,-0.37 -0.25,0 -0.48,0.14 -0.6,0.36 -2.67,5.56 -6.19,10.2 -10.15,13.39 -0.01,0.01 -0.03,0.03 -0.06,0.04 -0.10,0.12 -0.22,0.3 -0.22,0.51 m 0.49,0 c 0,-0.03 0.02,-0.09 0.10,-0.19 3.93,-3.18 7.51,-7.81 10.28,-13.56 0.06,-0.13 0.28,-0.12 0.37,0.01 0.51,0.94 1.5,2.95 2.38,4.70 0.42,0.84 1.40,1.95 2.25,2.05 -0.45,0.37 -1.65,0.66 -2.7,0.27 -0.92,-0.33 -1.65,-1.04 -2.25,-2.37 -3.36,4.66 -6.25,7.88 -10.06,9.08 -0.22,0.04 -0.38,0.06 -0.38,-0.01"
       style="fill:#80ff00;fill-opacity:1;fill-rule:nonzero;stroke:none;stroke-width:0.89"
       id="path31614"
       inkscape:connector-curvature="0" />
    <path
       d="m 74.12,123.33 c 3.81,-1.2 6.70,-4.41 10.06,-9.09 0.58,1.33 1.32,2.02 2.25,2.37 1.04,0.38 2.24,0.09 2.7,-0.27 -0.85,-0.09 -1.83,-1.21 -2.25,-2.05 -0.87,-1.75 -1.86,-3.75 -2.38,-4.70 -0.07,-0.14 -0.3,-0.14 -0.37,-0.01 -2.77,5.74 -6.33,10.38 -10.28,13.56 -0.24,0.27 -0.06,0.3 0.26,0.21"
       style="fill:#008000;fill-opacity:1;fill-rule:nonzero;stroke:none;stroke-width:0.89"
       id="path31616"
       inkscape:connector-curvature="0" />
    <path
       inkscape:connector-curvature="0"
       id="path31626"
       style="fill:#80ff00;fill-opacity:1;fill-rule:nonzero;stroke:none;stroke-width:0.89"
       d="m 59.90,123.30 c 0,0.14 0.08,0.33 0.20,0.42 0.21,0.16 0.50,0.13 0.78,0.07 3.78,-1.18 6.62,-4.18 9.88,-8.62 0.56,0.94 1.26,1.57 2.14,1.89 1.16,0.43 2.56,0.14 3.19,-0.34 0.10,-0.08 0.18,-0.22 0.18,-0.37 0,-0.03 0,-0.08 -0.01,-0.13 -0.04,-0.18 -0.21,-0.32 -0.40,-0.34 -0.61,-0.06 -1.47,-0.99 -1.87,-1.78 l -0.51,-1.04 c -0.70,-1.42 -1.44,-2.90 -1.87,-3.67 -0.12,-0.22 -0.37,-0.37 -0.64,-0.37 -0.25,0 -0.48,0.14 -0.6,0.36 -2.67,5.56 -6.19,10.2 -10.15,13.39 -0.01,0.01 -0.03,0.03 -0.06,0.04 -0.10,0.12 -0.22,0.3 -0.22,0.51 m 0.49,0 c 0,-0.03 0.02,-0.09 0.10,-0.19 3.93,-3.18 7.51,-7.81 10.28,-13.56 0.06,-0.13 0.28,-0.12 0.37,0.01 0.51,0.94 1.5,2.95 2.38,4.70 0.42,0.84 1.40,1.95 2.25,2.05 -0.45,0.37 -1.65,0.66 -2.7,0.27 -0.92,-0.33 -1.65,-1.04 -2.25,-2.37 -3.36,4.66 -6.25,7.88 -10.06,9.08 -0.22,0.04 -0.38,0.06 -0.38,-0.01" />
    <path
       inkscape:connector-curvature="0"
       id="path31628"
       style="fill:#008000;fill-opacity:1;fill-rule:nonzero;stroke:none;stroke-width:0.89"
       d="m 60.77,123.33 c 3.81,-1.2 6.70,-4.41 10.06,-9.09 0.58,1.33 1.32,2.02 2.25,2.37 1.04,0.38 2.24,0.09 2.7,-0.27 -0.85,-0.09 -1.83,-1.21 -2.25,-2.05 -0.87,-1.75 -1.86,-3.75 -2.38,-4.70 -0.07,-0.14 -0.3,-0.14 -0.37,-0.01 -2.77,5.74 -6.33,10.38 -10.28,13.56 -0.24,0.27 -0.06,0.3 0.26,0.21" />
  </g>
  <g id="g_anvil_1">
    <path
       inkscape:connector-curvature="0"
       id="path23407"
       d="m 76.97,108.81 c 0.14,0 0.28,0.07 0.35,0.2 0.33,0.6 0.91,1.77 1.47,2.89 l 0.39,0.78 c 0.33,0.67 1.05,1.43 1.59,1.49 l 0.5,0.05 -0.39,0.32 c -0.48,0.39 -1.56,0.53 -2.32,0.25 -0.72,-0.26 -1.28,-0.79 -1.72,-1.63 -2.59,3.56 -4.82,5.95 -7.76,6.88 -0.12,0.02 -0.2,0.04 -0.27,0.04 -0.18,0 -0.25,-0.1 -0.28,-0.16 -0.07,-0.17 0.06,-0.34 0.12,-0.4 3.13,-2.54 5.89,-6.17 8,-10.54 0.05,-0.12 0.18,-0.19 0.32,-0.19"
       style="fill:#80ff00;fill-opacity:1;fill-rule:nonzero;stroke:none;stroke-width:0.79" />
    <path
       inkscape:connector-curvature="0"
       id="path31567"
       d="m 80.21,114.44 c -0.6,-0.33 -1.15,-1.03 -1.4,-1.54 l -0.39,-0.78 c -0.53,-1.07 -1.09,-2.19 -1.43,-2.81 -2.03,4.18 -4.66,7.71 -7.63,10.22 2.71,-1 4.84,-3.39 7.36,-6.88 l 0.21,-0.3 0.15,0.34 c 0.42,0.94 0.93,1.47 1.64,1.74 0.47,0.17 1.08,0.14 1.49,0.02"
       style="fill:#000000;fill-opacity:1;fill-rule:nonzero" />
  </g>
  <g id="g_anvil_0">
    <path
       inkscape:connector-curvature="0"
       id="path12607-9"
       style="fill:#e40000;fill-opacity:1;fill-rule:nonzero;stroke:none;stroke-width:1.73"
       d="m 81.91,126.85 c 0.21,0 0.43,-0.08 0.61,-0.25 l 2.49,-2.49 c 0.15,-0.15 0.25,-0.37 0.25,-0.61 0,-0.22 -0.08,-0.44 -0.25,-0.61 l -6.41,-6.39 6.41,-6.39 c 0.15,-0.15 0.25,-0.37 0.25,-0.61 0,-0.22 -0.08,-0.44 -0.25,-0.61 l -2.49,-2.49 c -0.16,-0.16 -0.39,-0.25 -0.61,-0.25 -0.21,0 -0.43,0.08 -0.61,0.25 l -6.39,6.39 -6.41,-6.39 c -0.16,-0.16 -0.39,-0.25 -0.61,-0.25 -0.21,0 -0.43,0.08 -0.61,0.25 l -2.49,2.49 c -0.15,0.15 -0.25,0.37 -0.25,0.61 0,0.22 0.08,0.44 0.25,0.61 l 6.41,6.39 -6.41,6.39 c -0.33,0.33 -0.33,0.88 0,1.23 l 2.49,2.49 c 0.15,0.15 0.37,0.25 0.61,0.25 0.22,0 0.44,-0.08 0.61,-0.25 l 6.41,-6.39 6.39,6.39 c 0.16,0.16 0.39,0.25 0.61,0.25 m -14.05,-0.86 -2.49,-2.49 7.02,-7.01 -7.02,-7.01 2.49,-2.49 7.02,7.01 7.01,-7.01 2.50,2.49 -7.02,7.01 7.02,7.01 -2.50,2.49 -7.01,-7.01 -7.02,7.01" />
    <path
       inkscape:connector-curvature="0"
       id="path12611-9"
       style="fill:#800000;fill-opacity:1;fill-rule:nonzero;stroke:none;stroke-width:1.73"
       d="m 81.91,125.98 2.50,-2.49 -7.02,-7.01 7.02,-7.01 -2.50,-2.49 -7.01,7.01 -7.02,-7.01 -2.49,2.49 7.02,7.01 -7.02,7.01 2.49,2.49 7.02,-7.01 z" />
  </g>
  <!-- -->
  <g id="g_blades_0">
    <path
       inkscape:connector-curvature="0"
       id="path12607-9-1"
       style="fill:#e40000;fill-opacity:1;fill-rule:nonzero;stroke:none;stroke-width:1.73"
       d="m 126.80,68.18 c 0,-0.21 -0.08,-0.43 -0.25,-0.61 l -2.49,-2.49 c -0.15,-0.15 -0.37,-0.25 -0.61,-0.25 -0.22,0 -0.44,0.08 -0.61,0.25 l -6.39,6.41 -6.39,-6.41 c -0.15,-0.15 -0.37,-0.25 -0.61,-0.25 -0.22,0 -0.44,0.08 -0.61,0.25 l -2.49,2.49 c -0.16,0.16 -0.25,0.39 -0.25,0.61 0,0.21 0.08,0.43 0.25,0.61 l 6.39,6.39 -6.39,6.41 c -0.16,0.16 -0.25,0.39 -0.25,0.61 0,0.21 0.08,0.43 0.25,0.61 l 2.49,2.49 c 0.15,0.15 0.37,0.25 0.61,0.25 0.22,0 0.44,-0.08 0.61,-0.25 l 6.39,-6.41 6.39,6.41 c 0.33,0.33 0.88,0.33 1.23,0 l 2.49,-2.49 c 0.15,-0.15 0.25,-0.37 0.25,-0.61 0,-0.22 -0.08,-0.44 -0.25,-0.61 l -6.39,-6.41 6.39,-6.39 c 0.16,-0.16 0.25,-0.39 0.25,-0.61 m -0.86,14.04 -2.49,2.49 -7.01,-7.02 -7.01,7.02 -2.49,-2.49 7.01,-7.02 -7.01,-7.01 2.49,-2.50 7.01,7.02 7.01,-7.02 2.49,2.50 -7.01,7.01 7.01,7.02" />
    <path
       inkscape:connector-curvature="0"
       id="path12611-9-6"
       style="fill:#800000;fill-opacity:1;fill-rule:nonzero;stroke:none;stroke-width:1.73"
       d="m 125.93,68.18 -2.49,-2.50 -7.01,7.02 -7.01,-7.02 -2.49,2.50 7.01,7.01 -7.01,7.02 2.49,2.49 7.01,-7.02 7.01,7.02 2.49,-2.49 -7.01,-7.02 z" />
  </g>
  <g id="g_blades_1">
    <path
       inkscape:connector-curvature="0"
       id="path23407-9"
       d="m 108.76,73.14 c 0,-0.14 0.07,-0.28 0.20,-0.35 0.60,-0.33 1.77,-0.91 2.89,-1.47 l 0.78,-0.39 c 0.67,-0.33 1.43,-1.05 1.49,-1.59 l 0.05,-0.50 0.32,0.39 c 0.39,0.48 0.53,1.56 0.25,2.32 -0.26,0.72 -0.79,1.28 -1.63,1.72 3.56,2.59 5.95,4.82 6.88,7.76 0.02,0.12 0.04,0.20 0.04,0.27 0,0.18 -0.10,0.25 -0.16,0.28 -0.17,0.07 -0.34,-0.06 -0.40,-0.12 -2.54,-3.13 -6.17,-5.89 -10.54,-8.00 -0.12,-0.05 -0.19,-0.18 -0.19,-0.32"
       style="fill:#80ff00;fill-opacity:1;fill-rule:nonzero;stroke:none;stroke-width:0.79" />
    <path
       inkscape:connector-curvature="0"
       id="path31567-0"
       d="m 114.39,69.9 c -0.33,0.6 -1.03,1.15 -1.54,1.4 l -0.78,0.39 c -1.07,0.53 -2.19,1.09 -2.81,1.43 4.18,2.03 7.71,4.66 10.22,7.63 -1,-2.71 -3.39,-4.84 -6.88,-7.36 l -0.3,-0.21 0.34,-0.15 c 0.94,-0.42 1.47,-0.93 1.74,-1.64 0.17,-0.47 0.14,-1.08 0.02,-1.49"
       style="fill:#000000;fill-opacity:1;fill-rule:nonzero;stroke:none" />
  </g>
  <g id="g_blades_2">
    <path
       d="m 123.25,76.86 c 0.14,0 0.33,-0.08 0.42,-0.20 0.16,-0.21 0.13,-0.50 0.07,-0.78 -1.18,-3.78 -4.18,-6.62 -8.62,-9.88 0.94,-0.56 1.57,-1.26 1.89,-2.14 0.43,-1.16 0.14,-2.56 -0.34,-3.19 -0.08,-0.10 -0.22,-0.18 -0.37,-0.18 -0.03,0 -0.08,0 -0.13,0.01 -0.18,0.04 -0.32,0.21 -0.34,0.40 -0.06,0.61 -0.99,1.47 -1.78,1.87 l -1.04,0.51 c -1.42,0.70 -2.90,1.44 -3.67,1.87 -0.22,0.12 -0.37,0.37 -0.37,0.64 0,0.25 0.14,0.48 0.36,0.6 5.56,2.67 10.2,6.19 13.39,10.15 0.01,0.01 0.03,0.03 0.04,0.06 0.12,0.10 0.3,0.22 0.51,0.22 m 0,-0.49 c -0.03,0 -0.09,-0.02 -0.19,-0.10 -3.18,-3.93 -7.81,-7.51 -13.56,-10.28 -0.13,-0.06 -0.12,-0.28 0.01,-0.37 0.94,-0.51 2.95,-1.5 4.70,-2.38 0.84,-0.42 1.95,-1.40 2.05,-2.25 0.37,0.45 0.66,1.65 0.27,2.7 -0.33,0.92 -1.04,1.65 -2.37,2.25 4.66,3.36 7.88,6.25 9.08,10.06 0.04,0.22 0.06,0.38 -0.01,0.38"
       style="fill:#80ff00;fill-opacity:1;fill-rule:nonzero;stroke:none;stroke-width:0.89"
       id="path31614-0"
       inkscape:connector-curvature="0" />
    <path
       d="m 123.28,75.98 c -1.2,-3.81 -4.41,-6.70 -9.09,-10.06 1.33,-0.58 2.02,-1.32 2.37,-2.25 0.38,-1.04 0.09,-2.24 -0.27,-2.7 -0.09,0.85 -1.21,1.83 -2.05,2.25 -1.75,0.87 -3.75,1.86 -4.70,2.38 -0.14,0.07 -0.14,0.3 -0.01,0.37 5.74,2.77 10.38,6.33 13.56,10.28 0.27,0.24 0.3,0.06 0.21,-0.26"
       style="fill:#008000;fill-opacity:1;fill-rule:nonzero;stroke:none;stroke-width:0.89"
       id="path31616-6"
       inkscape:connector-curvature="0" />
    <path
       inkscape:connector-curvature="0"
       id="path31626-9"
       style="fill:#80ff00;fill-opacity:1;fill-rule:nonzero;stroke:none;stroke-width:0.89"
       d="m 123.25,90.20 c 0.14,0 0.33,-0.08 0.42,-0.20 0.16,-0.21 0.13,-0.50 0.07,-0.78 -1.18,-3.78 -4.18,-6.62 -8.62,-9.88 0.94,-0.56 1.57,-1.26 1.89,-2.14 0.43,-1.16 0.14,-2.56 -0.34,-3.19 -0.08,-0.10 -0.22,-0.18 -0.37,-0.18 -0.03,0 -0.08,0 -0.13,0.01 -0.18,0.04 -0.32,0.21 -0.34,0.40 -0.06,0.61 -0.99,1.47 -1.78,1.87 l -1.04,0.51 c -1.42,0.70 -2.90,1.44 -3.67,1.87 -0.22,0.12 -0.37,0.37 -0.37,0.64 0,0.25 0.14,0.48 0.36,0.6 5.56,2.67 10.2,6.19 13.39,10.15 0.01,0.01 0.03,0.03 0.04,0.06 0.12,0.10 0.3,0.22 0.51,0.22 m 0,-0.49 c -0.03,0 -0.09,-0.02 -0.19,-0.10 -3.18,-3.93 -7.81,-7.51 -13.56,-10.28 -0.13,-0.06 -0.12,-0.28 0.01,-0.37 0.94,-0.51 2.95,-1.5 4.70,-2.38 0.84,-0.42 1.95,-1.40 2.05,-2.25 0.37,0.45 0.66,1.65 0.27,2.7 -0.33,0.92 -1.04,1.65 -2.37,2.25 4.66,3.36 7.88,6.25 9.08,10.06 0.04,0.22 0.06,0.38 -0.01,0.38" />
    <path
       inkscape:connector-curvature="0"
       id="path31628-0"
       style="fill:#008000;fill-opacity:1;fill-rule:nonzero;stroke:none;stroke-width:0.89"
       d="m 123.28,89.32 c -1.2,-3.81 -4.41,-6.70 -9.09,-10.06 1.33,-0.58 2.02,-1.32 2.37,-2.25 0.38,-1.04 0.09,-2.24 -0.27,-2.7 -0.09,0.85 -1.21,1.83 -2.05,2.25 -1.75,0.87 -3.75,1.86 -4.70,2.38 -0.14,0.07 -0.14,0.3 -0.01,0.37 5.74,2.77 10.38,6.33 13.56,10.28 0.27,0.24 0.3,0.06 0.21,-0.26" />
  </g>
  <g id="g_blades_3">
    <path
       inkscape:connector-curvature="0"
       id="path23383-4-5"
       style="fill:#80ff00;fill-opacity:1;fill-rule:nonzero;stroke:none;stroke-width:1.42"
       d="m 129.24,88.28 c 0.22,0 0.52,-0.13 0.67,-0.31 0.27,-0.34 0.21,-0.79 0.10,-1.23 -1.87,-5.97 -6.61,-10.47 -13.63,-15.61 1.5,-0.88 2.47,-1.99 3,-3.40 0.67,-1.84 0.22,-4.05 -0.55,-5.04 -0.13,-0.18 -0.36,-0.28 -0.6,-0.28 -0.06,0 -0.13,0 -0.21,0.03 -0.28,0.07 -0.51,0.34 -0.54,0.64 -0.10,0.96 -1.57,2.34 -2.82,2.95 l -1.65,0.81 c -2.25,1.12 -4.57,2.28 -5.80,2.95 -0.36,0.18 -0.58,0.58 -0.58,1.02 0,0.40 0.22,0.76 0.58,0.94 8.79,4.23 16.09,9.78 21.15,16.03 0.01,0.03 0.04,0.06 0.09,0.09 0.19,0.16 0.46,0.37 0.81,0.37 m 0,-0.76 c -0.06,0 -0.16,-0.04 -0.3,-0.18 -5.02,-6.22 -12.33,-11.86 -21.42,-16.24 -0.21,-0.09 -0.19,-0.46 0.03,-0.58 1.5,-0.82 4.66,-2.38 7.42,-3.76 1.32,-0.66 3.09,-2.20 3.25,-3.57 0.58,0.72 1.03,2.61 0.43,4.27 -0.54,1.47 -1.65,2.61 -3.75,3.55 7.38,5.31 12.45,9.87 14.35,15.9 0.07,0.36 0.09,0.6 -0.03,0.6" />
    <path
       inkscape:connector-curvature="0"
       id="path23395-7-8"
       style="fill:#008000;fill-opacity:1;fill-rule:nonzero;stroke:none;stroke-width:1.42"
       d="m 129.29,86.88 c -1.90,-6.01 -6.97,-10.59 -14.35,-15.9 2.1,-0.94 3.21,-2.08 3.75,-3.55 0.6,-1.66 0.15,-3.55 -0.43,-4.27 -0.15,1.35 -1.92,2.89 -3.25,3.57 -2.76,1.38 -5.92,2.94 -7.42,3.76 -0.22,0.12 -0.24,0.48 -0.03,0.58 9.07,4.36 16.38,10.00 21.42,16.24 0.43,0.39 0.46,0.10 0.34,-0.42" />
    <path
       d="m 129.24,65.42 c 0.22,0 0.52,-0.13 0.67,-0.31 0.27,-0.34 0.21,-0.79 0.10,-1.23 -1.87,-5.97 -6.61,-10.47 -13.63,-15.61 1.5,-0.88 2.47,-1.99 3,-3.40 0.67,-1.84 0.22,-4.05 -0.55,-5.04 -0.13,-0.18 -0.36,-0.28 -0.6,-0.28 -0.06,0 -0.13,0 -0.21,0.03 -0.28,0.07 -0.51,0.34 -0.54,0.64 -0.10,0.96 -1.57,2.34 -2.82,2.95 l -1.65,0.81 c -2.25,1.12 -4.57,2.28 -5.80,2.95 -0.36,0.18 -0.58,0.58 -0.58,1.02 0,0.40 0.22,0.76 0.58,0.94 8.79,4.23 16.09,9.78 21.15,16.03 0.01,0.03 0.04,0.06 0.09,0.09 0.19,0.16 0.46,0.37 0.81,0.37 m 0,-0.76 c -0.06,0 -0.16,-0.04 -0.3,-0.18 -5.02,-6.22 -12.33,-11.86 -21.42,-16.24 -0.21,-0.09 -0.19,-0.46 0.03,-0.58 1.5,-0.82 4.66,-2.38 7.42,-3.76 1.32,-0.66 3.09,-2.20 3.25,-3.57 0.58,0.72 1.03,2.61 0.43,4.27 -0.54,1.47 -1.65,2.61 -3.75,3.55 7.38,5.31 12.45,9.87 14.35,15.9 0.07,0.36 0.09,0.6 -0.03,0.6"
       style="fill:#80ff00;fill-opacity:1;fill-rule:nonzero;stroke:none;stroke-width:1.42"
       id="path31585-0"
       inkscape:connector-curvature="0" />
    <path
       d="m 129.29,64.02 c -1.90,-6.01 -6.97,-10.59 -14.35,-15.9 2.1,-0.94 3.21,-2.08 3.75,-3.55 0.6,-1.66 0.15,-3.55 -0.43,-4.27 -0.15,1.35 -1.92,2.89 -3.25,3.57 -2.76,1.38 -5.92,2.94 -7.42,3.76 -0.22,0.12 -0.24,0.48 -0.03,0.58 9.07,4.36 16.38,10.00 21.42,16.24 0.43,0.39 0.46,0.10 0.34,-0.42"
       style="fill:#008000;fill-opacity:1;fill-rule:nonzero;stroke:none;stroke-width:1.42"
       id="path31587-9"
       inkscape:connector-curvature="0" />
    <path
       d="m 129.24,111.15 c 0.22,0 0.52,-0.13 0.67,-0.31 0.27,-0.34 0.21,-0.79 0.10,-1.23 -1.87,-5.97 -6.61,-10.47 -13.63,-15.61 1.5,-0.88 2.47,-1.99 3,-3.40 0.67,-1.84 0.22,-4.05 -0.55,-5.04 -0.13,-0.18 -0.36,-0.28 -0.6,-0.28 -0.06,0 -0.13,0 -0.21,0.03 -0.28,0.07 -0.51,0.34 -0.54,0.64 -0.10,0.96 -1.57,2.34 -2.82,2.95 l -1.65,0.81 c -2.25,1.12 -4.57,2.28 -5.80,2.95 -0.36,0.18 -0.58,0.58 -0.58,1.02 0,0.40 0.22,0.76 0.58,0.94 8.79,4.23 16.09,9.78 21.15,16.03 0.01,0.03 0.04,0.06 0.09,0.09 0.19,0.16 0.46,0.37 0.81,0.37 m 0,-0.76 c -0.06,0 -0.16,-0.04 -0.3,-0.18 -5.02,-6.22 -12.33,-11.86 -21.42,-16.24 -0.21,-0.09 -0.19,-0.46 0.03,-0.58 1.5,-0.82 4.66,-2.38 7.42,-3.76 1.32,-0.66 3.09,-2.20 3.25,-3.57 0.58,0.72 1.03,2.61 0.43,4.27 -0.54,1.47 -1.65,2.61 -3.75,3.55 7.38,5.31 12.45,9.87 14.35,15.9 0.07,0.36 0.09,0.6 -0.03,0.6"
       style="fill:#80ff00;fill-opacity:1;fill-rule:nonzero;stroke:none;stroke-width:1.42"
       id="path31591-8"
       inkscape:connector-curvature="0" />
    <path
       d="m 129.29,109.76 c -1.90,-6.01 -6.97,-10.59 -14.35,-15.9 2.1,-0.94 3.21,-2.08 3.75,-3.55 0.6,-1.66 0.15,-3.55 -0.43,-4.27 -0.15,1.35 -1.92,2.89 -3.25,3.57 -2.76,1.38 -5.92,2.94 -7.42,3.76 -0.22,0.12 -0.24,0.48 -0.03,0.58 9.07,4.36 16.38,10.00 21.42,16.24 0.43,0.39 0.46,0.10 0.34,-0.42"
       style="fill:#008000;fill-opacity:1;fill-rule:nonzero;stroke:none;stroke-width:1.42"
       id="path31593-0"
       inkscape:connector-curvature="0" />
  </g>
  <!-- -->
  <g id="g_crown_0">
    <path
       inkscape:connector-curvature="0"
       id="path12607-9-3"
       style="fill:#e40000;fill-opacity:1;fill-rule:nonzero;stroke:none;stroke-width:1.73"
       d="m 23.13,81.91 c 0,0.21 0.08,0.43 0.25,0.61 l 2.49,2.49 c 0.15,0.15 0.37,0.25 0.61,0.25 0.22,0 0.44,-0.08 0.61,-0.25 l 6.39,-6.41 6.39,6.41 c 0.15,0.15 0.37,0.25 0.61,0.25 0.22,0 0.44,-0.08 0.61,-0.25 l 2.49,-2.49 c 0.16,-0.16 0.25,-0.39 0.25,-0.61 0,-0.21 -0.08,-0.43 -0.25,-0.61 l -6.39,-6.39 6.39,-6.41 c 0.16,-0.16 0.25,-0.39 0.25,-0.61 0,-0.21 -0.08,-0.43 -0.25,-0.61 L 41.14,64.76 c -0.15,-0.15 -0.37,-0.25 -0.61,-0.25 -0.22,0 -0.44,0.08 -0.61,0.25 l -6.39,6.41 -6.39,-6.41 c -0.33,-0.33 -0.88,-0.33 -1.23,0 l -2.49,2.49 c -0.15,0.15 -0.25,0.37 -0.25,0.60 0,0.22 0.08,0.44 0.25,0.61 l 6.39,6.41 -6.39,6.39 c -0.16,0.16 -0.25,0.39 -0.25,0.61 m 0.86,-14.04 2.49,-2.49 7.01,7.02 7.01,-7.02 2.49,2.49 -7.01,7.02 7.01,7.01 -2.49,2.50 -7.01,-7.02 -7.01,7.02 -2.49,-2.50 7.01,-7.01 -7.01,-7.02" />
    <path
       inkscape:connector-curvature="0"
       id="path12611-9-0"
       style="fill:#800000;fill-opacity:1;fill-rule:nonzero;stroke:none;stroke-width:1.73"
       d="m 24.00,81.91 2.49,2.50 7.01,-7.02 7.01,7.02 2.49,-2.50 -7.01,-7.01 7.01,-7.02 -2.49,-2.49 -7.01,7.02 -7.01,-7.02 -2.49,2.49 7.01,7.02 z" />
  </g>
  <g id="g_crown_3">
    <path
       inkscape:connector-curvature="0"
       id="path23383-4-3"
       style="fill:#80ff00;fill-opacity:1;fill-rule:nonzero;stroke:none;stroke-width:1.42"
       d="m 20.68,61.81 c -0.22,0 -0.52,0.13 -0.67,0.31 -0.27,0.34 -0.21,0.79 -0.10,1.23 1.87,5.97 6.61,10.47 13.63,15.61 -1.5,0.88 -2.47,1.99 -3,3.40 -0.67,1.84 -0.22,4.05 0.55,5.04 0.13,0.18 0.36,0.28 0.6,0.28 0.06,0 0.13,0 0.21,-0.03 0.28,-0.07 0.51,-0.34 0.54,-0.64 0.10,-0.96 1.57,-2.34 2.82,-2.95 l 1.68,-0.81 c 2.25,-1.12 4.57,-2.28 5.80,-2.95 0.36,-0.18 0.58,-0.58 0.58,-1.02 0,-0.40 -0.22,-0.76 -0.58,-0.94 -8.79,-4.23 -16.09,-9.78 -21.15,-16.03 -0.01,-0.03 -0.04,-0.06 -0.09,-0.09 -0.19,-0.16 -0.46,-0.37 -0.81,-0.37 m 0,0.76 c 0.06,0 0.16,0.04 0.3,0.18 5.02,6.22 12.33,11.86 21.42,16.24 0.21,0.09 0.19,0.46 -0.03,0.58 -1.5,0.82 -4.66,2.38 -7.42,3.76 -1.32,0.66 -3.09,2.20 -3.25,3.57 -0.58,-0.72 -1.03,-2.61 -0.43,-4.27 0.54,-1.47 1.65,-2.61 3.75,-3.55 -7.38,-5.31 -12.45,-9.87 -14.35,-15.9 -0.07,-0.36 -0.09,-0.6 0.03,-0.6" />
    <path
       inkscape:connector-curvature="0"
       id="path23395-7-1"
       style="fill:#008000;fill-opacity:1;fill-rule:nonzero;stroke:none;stroke-width:1.42"
       d="m 20.64,63.20 c 1.90,6.01 6.97,10.59 14.35,15.9 -2.1,0.94 -3.21,2.08 -3.75,3.55 -0.6,1.66 -0.15,3.55 0.43,4.27 0.15,-1.35 1.92,-2.89 3.25,-3.57 2.76,-1.38 5.92,-2.94 7.42,-3.76 0.22,-0.12 0.24,-0.48 0.03,-0.58 -9.07,-4.36 -16.38,-10.00 -21.42,-16.24 -0.43,-0.39 -0.46,-0.10 -0.34,0.42" />
    <path
       d="m 20.68,84.68 c -0.22,0 -0.52,0.13 -0.67,0.31 -0.27,0.34 -0.21,0.79 -0.10,1.23 1.87,5.97 6.61,10.47 13.63,15.61 -1.5,0.88 -2.47,1.99 -3,3.40 -0.67,1.84 -0.22,4.05 0.55,5.04 0.13,0.18 0.36,0.28 0.6,0.28 0.06,0 0.13,0 0.21,-0.03 0.28,-0.07 0.51,-0.34 0.54,-0.64 0.10,-0.96 1.57,-2.34 2.82,-2.95 l 1.65,-0.81 c 2.25,-1.12 4.57,-2.28 5.80,-2.95 0.36,-0.18 0.58,-0.58 0.58,-1.02 0,-0.40 -0.22,-0.76 -0.58,-0.94 -8.79,-4.23 -16.09,-9.78 -21.15,-16.03 -0.01,-0.03 -0.04,-0.06 -0.09,-0.09 -0.19,-0.16 -0.46,-0.37 -0.81,-0.37 m 0,0.76 c 0.06,0 0.16,0.04 0.3,0.18 5.02,6.22 12.33,11.86 21.42,16.24 0.21,0.09 0.19,0.46 -0.03,0.58 -1.5,0.82 -4.66,2.38 -7.42,3.76 -1.32,0.66 -3.09,2.20 -3.25,3.57 -0.58,-0.72 -1.03,-2.61 -0.43,-4.27 0.54,-1.47 1.65,-2.61 3.75,-3.55 -7.38,-5.31 -12.45,-9.87 -14.35,-15.9 -0.07,-0.36 -0.09,-0.6 0.03,-0.6"
       style="fill:#80ff00;fill-opacity:1;fill-rule:nonzero;stroke:none;stroke-width:1.42"
       id="path31585-01"
       inkscape:connector-curvature="0" />
    <path
       d="m 20.64,86.08 c 1.90,6.01 6.97,10.59 14.35,15.9 -2.1,0.94 -3.21,2.08 -3.75,3.55 -0.6,1.66 -0.15,3.55 0.43,4.27 0.15,-1.35 1.92,-2.89 3.25,-3.57 2.76,-1.38 5.92,-2.94 7.42,-3.76 0.22,-0.12 0.24,-0.48 0.03,-0.58 -9.07,-4.36 -16.38,-10.00 -21.42,-16.24 -0.43,-0.39 -0.46,-0.10 -0.34,0.42"
       style="fill:#008000;fill-opacity:1;fill-rule:nonzero;stroke:none;stroke-width:1.42"
       id="path31587-7"
       inkscape:connector-curvature="0" />
    <path
       d="m 20.68,38.95 c -0.22,0 -0.52,0.13 -0.67,0.31 -0.27,0.34 -0.21,0.79 -0.10,1.23 1.87,5.97 6.61,10.47 13.63,15.61 -1.5,0.88 -2.47,1.99 -3,3.40 -0.67,1.84 -0.22,4.05 0.55,5.04 0.13,0.18 0.36,0.28 0.6,0.28 0.06,0 0.13,0 0.21,-0.03 0.28,-0.07 0.51,-0.34 0.54,-0.64 0.10,-0.96 1.57,-2.34 2.82,-2.95 l 1.65,-0.81 c 2.25,-1.12 4.57,-2.28 5.80,-2.95 0.36,-0.18 0.58,-0.58 0.58,-1.02 0,-0.40 -0.22,-0.76 -0.58,-0.94 -8.79,-4.23 -16.09,-9.78 -21.15,-16.03 -0.01,-0.03 -0.04,-0.06 -0.09,-0.09 -0.19,-0.16 -0.46,-0.37 -0.81,-0.37 m 0,0.76 c 0.06,0 0.16,0.04 0.3,0.18 5.02,6.22 12.33,11.86 21.42,16.24 0.21,0.09 0.19,0.46 -0.03,0.58 -1.5,0.82 -4.66,2.38 -7.42,3.76 -1.32,0.66 -3.09,2.20 -3.25,3.57 -0.58,-0.72 -1.03,-2.61 -0.43,-4.27 0.54,-1.47 1.65,-2.61 3.75,-3.55 -7.38,-5.31 -12.45,-9.87 -14.35,-15.9 -0.07,-0.36 -0.09,-0.6 0.03,-0.6"
       style="fill:#80ff00;fill-opacity:1;fill-rule:nonzero;stroke:none;stroke-width:1.42"
       id="path31591-0"
       inkscape:connector-curvature="0" />
    <path
       d="m 20.64,40.34 c 1.90,6.01 6.97,10.59 14.35,15.9 -2.1,0.94 -3.21,2.08 -3.75,3.55 -0.6,1.66 -0.15,3.55 0.43,4.27 0.15,-1.35 1.92,-2.89 3.25,-3.57 2.76,-1.38 5.92,-2.94 7.42,-3.76 0.22,-0.12 0.24,-0.48 0.03,-0.58 -9.07,-4.36 -16.38,-10.00 -21.42,-16.24 -0.43,-0.39 -0.46,-0.10 -0.34,0.42"
       style="fill:#008000;fill-opacity:1;fill-rule:nonzero;stroke:none;stroke-width:1.42"
       id="path31593-3"
       inkscape:connector-curvature="0" />
  </g>
  <g id="g_crown_1">
    <path
       inkscape:connector-curvature="0"
       id="path23407-4"
       d="m 41.18,76.97 c 0,0.14 -0.07,0.28 -0.20,0.35 -0.60,0.33 -1.77,0.91 -2.89,1.47 l -0.78,0.39 c -0.67,0.33 -1.43,1.05 -1.49,1.59 l -0.05,0.50 -0.32,-0.39 c -0.39,-0.48 -0.53,-1.56 -0.25,-2.32 0.26,-0.72 0.79,-1.28 1.63,-1.72 -3.56,-2.59 -5.95,-4.82 -6.88,-7.76 -0.02,-0.12 -0.04,-0.20 -0.04,-0.27 0,-0.18 0.10,-0.25 0.16,-0.28 0.17,-0.07 0.34,0.06 0.40,0.12 2.54,3.13 6.17,5.89 10.54,8.00 0.12,0.05 0.19,0.18 0.19,0.32"
       style="fill:#80ff00;fill-opacity:1;fill-rule:nonzero;stroke:none;stroke-width:0.79" />
    <path
       inkscape:connector-curvature="0"
       id="path31567-8"
       d="m 35.55,80.21 c 0.33,-0.6 1.03,-1.15 1.54,-1.4 l 0.78,-0.39 c 1.07,-0.53 2.19,-1.09 2.81,-1.43 -4.18,-2.03 -7.71,-4.66 -10.22,-7.63 1,2.71 3.39,4.84 6.88,7.36 l 0.3,0.21 -0.34,0.15 c -0.94,0.42 -1.47,0.93 -1.74,1.64 -0.17,0.47 -0.14,1.08 -0.02,1.49"
       style="fill:#000000;fill-opacity:1;fill-rule:nonzero;stroke:none" />
  </g>
  <g id="g_crown_2">
    <path
       d="m 26.68,73.23 c -0.14,0 -0.33,0.08 -0.42,0.20 -0.16,0.21 -0.13,0.50 -0.07,0.78 1.18,3.78 4.18,6.62 8.62,9.88 -0.94,0.56 -1.57,1.26 -1.89,2.14 -0.43,1.16 -0.14,2.56 0.34,3.19 0.08,0.10 0.22,0.18 0.37,0.18 0.03,0 0.08,0 0.13,-0.01 0.18,-0.04 0.32,-0.21 0.34,-0.40 0.06,-0.61 0.99,-1.47 1.78,-1.87 l 1.04,-0.51 c 1.42,-0.70 2.90,-1.44 3.67,-1.87 0.22,-0.12 0.37,-0.37 0.37,-0.64 0,-0.25 -0.14,-0.48 -0.36,-0.6 -5.56,-2.67 -10.2,-6.19 -13.39,-10.15 -0.01,-0.01 -0.03,-0.03 -0.04,-0.06 -0.12,-0.10 -0.3,-0.22 -0.51,-0.22 m 0,0.49 c 0.03,0 0.09,0.02 0.19,0.10 3.18,3.93 7.81,7.51 13.56,10.28 0.13,0.06 0.12,0.28 -0.01,0.37 -0.94,0.51 -2.95,1.5 -4.70,2.38 -0.84,0.42 -1.95,1.40 -2.05,2.25 -0.37,-0.45 -0.66,-1.65 -0.27,-2.7 0.33,-0.92 1.04,-1.65 2.37,-2.25 -4.66,-3.36 -7.88,-6.25 -9.08,-10.06 -0.04,-0.22 -0.06,-0.38 0.01,-0.38"
       style="fill:#80ff00;fill-opacity:1;fill-rule:nonzero;stroke:none;stroke-width:0.89"
       id="path31614-2"
       inkscape:connector-curvature="0" />
    <path
       d="m 26.65,74.12 c 1.2,3.81 4.41,6.70 9.09,10.06 -1.33,0.58 -2.02,1.32 -2.37,2.25 -0.38,1.04 -0.09,2.24 0.27,2.7 0.09,-0.85 1.21,-1.83 2.05,-2.25 1.75,-0.87 3.75,-1.86 4.70,-2.38 0.14,-0.07 0.14,-0.3 0.01,-0.37 -5.74,-2.77 -10.38,-6.33 -13.56,-10.28 -0.27,-0.24 -0.3,-0.06 -0.21,0.26"
       style="fill:#008000;fill-opacity:1;fill-rule:nonzero;stroke:none;stroke-width:0.89"
       id="path31616-9"
       inkscape:connector-curvature="0" />
    <path
       inkscape:connector-curvature="0"
       id="path31626-3"
       style="fill:#80ff00;fill-opacity:1;fill-rule:nonzero;stroke:none;stroke-width:0.89"
       d="m 26.68,59.90 c -0.14,0 -0.33,0.08 -0.42,0.20 -0.16,0.21 -0.13,0.50 -0.07,0.78 1.18,3.78 4.18,6.62 8.62,9.88 -0.94,0.56 -1.57,1.26 -1.89,2.14 -0.43,1.16 -0.14,2.56 0.34,3.19 0.08,0.10 0.22,0.18 0.37,0.18 0.03,0 0.08,0 0.13,-0.01 0.18,-0.04 0.32,-0.21 0.34,-0.40 0.06,-0.61 0.99,-1.47 1.78,-1.87 l 1.04,-0.51 c 1.42,-0.70 2.90,-1.44 3.67,-1.87 0.22,-0.12 0.37,-0.37 0.37,-0.64 0,-0.25 -0.14,-0.48 -0.36,-0.6 -5.56,-2.67 -10.2,-6.19 -13.39,-10.15 -0.01,-0.01 -0.03,-0.03 -0.04,-0.06 -0.12,-0.10 -0.3,-0.22 -0.51,-0.22 m 0,0.49 c 0.03,0 0.09,0.02 0.19,0.10 3.18,3.93 7.81,7.51 13.56,10.28 0.13,0.06 0.12,0.28 -0.01,0.37 -0.94,0.51 -2.95,1.5 -4.70,2.38 -0.84,0.42 -1.95,1.40 -2.05,2.25 -0.37,-0.45 -0.66,-1.65 -0.27,-2.7 0.33,-0.92 1.04,-1.65 2.37,-2.25 -4.66,-3.36 -7.88,-6.25 -9.08,-10.06 -0.04,-0.22 -0.06,-0.38 0.01,-0.38" />
    <path
       inkscape:connector-curvature="0"
       id="path31628-03"
       style="fill:#008000;fill-opacity:1;fill-rule:nonzero;stroke:none;stroke-width:0.89"
       d="m 26.65,60.77 c 1.2,3.81 4.41,6.70 9.09,10.06 -1.33,0.58 -2.02,1.32 -2.37,2.25 -0.38,1.04 -0.09,2.24 0.27,2.7 0.09,-0.85 1.21,-1.83 2.05,-2.25 1.75,-0.87 3.75,-1.86 4.70,-2.38 0.14,-0.07 0.14,-0.3 0.01,-0.37 -5.74,-2.77 -10.38,-6.33 -13.56,-10.28 -0.27,-0.24 -0.3,-0.06 -0.21,0.26" />
  </g>
  <!-- -->
  <g id="g_dragon_0">
    <path
       inkscape:connector-curvature="0"
       id="path12607-9-4"
       style="fill:#e40000;fill-opacity:1;fill-rule:nonzero;stroke:none;stroke-width:1.73"
       d="m 67.69,22.97 c -0.21,0 -0.43,0.08 -0.61,0.25 l -2.49,2.49 c -0.15,0.15 -0.25,0.37 -0.25,0.61 0,0.22 0.08,0.44 0.25,0.61 l 6.41,6.39 -6.41,6.39 c -0.15,0.15 -0.25,0.37 -0.25,0.61 0,0.22 0.08,0.44 0.25,0.61 l 2.49,2.49 c 0.16,0.16 0.39,0.25 0.61,0.25 0.21,0 0.43,-0.08 0.61,-0.25 l 6.39,-6.39 6.41,6.39 c 0.16,0.16 0.39,0.25 0.61,0.25 0.21,0 0.43,-0.08 0.61,-0.25 l 2.49,-2.49 c 0.15,-0.15 0.25,-0.37 0.25,-0.61 0,-0.22 -0.08,-0.44 -0.25,-0.61 l -6.41,-6.39 6.41,-6.39 c 0.33,-0.33 0.33,-0.88 0,-1.23 l -2.49,-2.49 c -0.15,-0.15 -0.37,-0.25 -0.61,-0.25 -0.22,0 -0.44,0.08 -0.61,0.25 L 74.70,29.62 68.31,23.22 C 68.14,23.06 67.91,22.97 67.69,22.97 m 14.04,0.86 2.49,2.49 -7.02,7.01 7.02,7.01 -2.49,2.49 -7.02,-7.01 -7.01,7.01 -2.50,-2.49 7.02,-7.01 -7.02,-7.01 2.50,-2.49 7.01,7.01 7.02,-7.01" />
    <path
       inkscape:connector-curvature="0"
       id="path12611-9-9"
       style="fill:#800000;fill-opacity:1;fill-rule:nonzero;stroke:none;stroke-width:1.73"
       d="m 67.69,23.85 -2.50,2.49 7.02,7.01 -7.02,7.01 2.50,2.49 7.01,-7.01 7.02,7.01 2.49,-2.49 -7.02,-7.01 7.02,-7.01 -2.49,-2.49 -7.02,7.01 z" />
  </g>
  <g id="g_dragon_3">
    <path
       inkscape:connector-curvature="0"
       id="path23383-4-2"
       style="fill:#80ff00;fill-opacity:1;fill-rule:nonzero;stroke:none;stroke-width:1.42"
       d="m 87.78,20.53 c 0,-0.22 -0.13,-0.52 -0.31,-0.67 -0.34,-0.27 -0.79,-0.21 -1.23,-0.10 -5.97,1.87 -10.47,6.61 -15.61,13.63 -0.88,-1.5 -1.99,-2.47 -3.40,-3 -1.84,-0.67 -4.05,-0.22 -5.04,0.55 -0.18,0.13 -0.28,0.36 -0.28,0.6 0,0.06 0,0.13 0.03,0.21 0.07,0.28 0.34,0.51 0.64,0.54 0.96,0.10 2.34,1.57 2.95,2.82 l 0.81,1.65 c 1.12,2.25 2.28,4.57 2.95,5.80 0.18,0.36 0.58,0.58 1.02,0.58 0.40,0 0.76,-0.22 0.94,-0.58 4.23,-8.79 9.78,-16.09 16.03,-21.15 0.03,-0.01 0.06,-0.04 0.09,-0.09 0.16,-0.19 0.37,-0.46 0.37,-0.81 m -0.76,0 c 0,0.06 -0.04,0.16 -0.18,0.3 -6.22,5.02 -11.86,12.33 -16.24,21.42 -0.09,0.21 -0.46,0.19 -0.58,-0.03 -0.82,-1.5 -2.38,-4.66 -3.76,-7.42 -0.66,-1.32 -2.20,-3.09 -3.57,-3.25 0.72,-0.58 2.61,-1.03 4.27,-0.43 1.47,0.54 2.61,1.65 3.55,3.75 5.31,-7.38 9.87,-12.45 15.9,-14.35 0.36,-0.07 0.6,-0.09 0.6,0.03" />
    <path
       inkscape:connector-curvature="0"
       id="path23395-7-0"
       style="fill:#008000;fill-opacity:1;fill-rule:nonzero;stroke:none;stroke-width:1.42"
       d="m 86.38,20.50 c -6.01,1.90 -10.59,6.97 -15.9,14.35 -0.94,-2.1 -2.08,-3.21 -3.55,-3.75 -1.66,-0.6 -3.55,-0.15 -4.27,0.43 1.35,0.15 2.89,1.92 3.57,3.25 1.38,2.76 2.94,5.92 3.76,7.42 0.12,0.22 0.48,0.24 0.58,0.03 4.36,-9.07 10.00,-16.38 16.24,-21.42 0.39,-0.43 0.10,-0.46 -0.42,-0.34" />
    <path
       d="m 64.92,20.53 c 0,-0.22 -0.13,-0.52 -0.31,-0.67 -0.34,-0.27 -0.79,-0.21 -1.23,-0.10 -5.97,1.87 -10.47,6.61 -15.61,13.63 -0.88,-1.5 -1.99,-2.47 -3.40,-3 -1.84,-0.67 -4.05,-0.22 -5.04,0.55 -0.18,0.13 -0.28,0.36 -0.28,0.6 0,0.06 0,0.13 0.03,0.21 0.07,0.28 0.34,0.51 0.64,0.54 0.96,0.10 2.34,1.57 2.95,2.82 l 0.81,1.65 c 1.12,2.25 2.28,4.57 2.95,5.80 0.18,0.36 0.58,0.58 1.02,0.58 0.40,0 0.76,-0.22 0.94,-0.58 4.23,-8.79 9.78,-16.09 16.03,-21.15 0.03,-0.01 0.06,-0.04 0.09,-0.09 0.16,-0.19 0.37,-0.46 0.37,-0.81 m -0.76,0 c 0,0.06 -0.04,0.16 -0.18,0.3 -6.22,5.02 -11.86,12.33 -16.24,21.42 -0.09,0.21 -0.46,0.19 -0.58,-0.03 -0.82,-1.5 -2.38,-4.66 -3.76,-7.42 -0.66,-1.32 -2.20,-3.09 -3.57,-3.25 0.72,-0.58 2.61,-1.03 4.27,-0.43 1.47,0.54 2.61,1.65 3.55,3.75 5.31,-7.38 9.87,-12.45 15.9,-14.35 0.36,-0.07 0.6,-0.09 0.6,0.03"
       style="fill:#80ff00;fill-opacity:1;fill-rule:nonzero;stroke:none;stroke-width:1.42"
       id="path31585-5"
       inkscape:connector-curvature="0" />
    <path
       d="m 63.52,20.50 c -6.01,1.90 -10.59,6.97 -15.9,14.35 -0.94,-2.1 -2.08,-3.21 -3.55,-3.75 -1.66,-0.6 -3.55,-0.15 -4.27,0.43 1.35,0.15 2.89,1.92 3.57,3.25 1.38,2.76 2.94,5.92 3.76,7.42 0.12,0.22 0.48,0.24 0.58,0.03 4.36,-9.07 10.00,-16.38 16.24,-21.42 0.39,-0.43 0.10,-0.46 -0.42,-0.34"
       style="fill:#008000;fill-opacity:1;fill-rule:nonzero;stroke:none;stroke-width:1.42"
       id="path31587-95"
       inkscape:connector-curvature="0" />
    <path
       d="m 110.65,20.53 c 0,-0.22 -0.13,-0.52 -0.31,-0.67 -0.34,-0.27 -0.79,-0.21 -1.23,-0.10 -5.97,1.87 -10.47,6.61 -15.61,13.63 -0.88,-1.5 -1.99,-2.47 -3.40,-3 -1.84,-0.67 -4.05,-0.22 -5.04,0.55 -0.18,0.13 -0.28,0.36 -0.28,0.6 0,0.06 0,0.13 0.03,0.21 0.07,0.28 0.34,0.51 0.64,0.54 0.96,0.10 2.34,1.57 2.95,2.82 l 0.81,1.65 c 1.12,2.25 2.28,4.57 2.95,5.80 0.18,0.36 0.58,0.58 1.02,0.58 0.40,0 0.76,-0.22 0.94,-0.58 4.23,-8.79 9.78,-16.09 16.03,-21.15 0.03,-0.01 0.06,-0.04 0.09,-0.09 0.16,-0.19 0.37,-0.46 0.37,-0.81 m -0.76,0 c 0,0.06 -0.04,0.16 -0.18,0.3 -6.22,5.02 -11.86,12.33 -16.24,21.42 -0.09,0.21 -0.46,0.19 -0.58,-0.03 -0.82,-1.5 -2.38,-4.66 -3.76,-7.42 -0.66,-1.32 -2.20,-3.09 -3.57,-3.25 0.72,-0.58 2.61,-1.03 4.27,-0.43 1.47,0.54 2.61,1.65 3.55,3.75 5.31,-7.38 9.87,-12.45 15.9,-14.35 0.36,-0.07 0.6,-0.09 0.6,0.03"
       style="fill:#80ff00;fill-opacity:1;fill-rule:nonzero;stroke:none;stroke-width:1.42"
       id="path31591-1"
       inkscape:connector-curvature="0" />
    <path
       d="m 109.26,20.50 c -6.01,1.90 -10.59,6.97 -15.9,14.35 -0.94,-2.1 -2.08,-3.21 -3.55,-3.75 -1.66,-0.6 -3.55,-0.15 -4.27,0.43 1.35,0.15 2.89,1.92 3.57,3.25 1.38,2.76 2.94,5.92 3.76,7.42 0.12,0.22 0.48,0.24 0.58,0.03 4.36,-9.07 10.00,-16.38 16.24,-21.42 0.39,-0.43 0.10,-0.46 -0.42,-0.34"
       style="fill:#008000;fill-opacity:1;fill-rule:nonzero;stroke:none;stroke-width:1.42"
       id="path31593-1"
       inkscape:connector-curvature="0" />
  </g>
  <g id="g_dragon_1">
    <path
       inkscape:connector-curvature="0"
       id="path23407-7"
       d="m 72.64,41.03 c -0.14,0 -0.28,-0.07 -0.35,-0.20 -0.33,-0.60 -0.91,-1.77 -1.47,-2.89 l -0.39,-0.78 c -0.33,-0.67 -1.05,-1.43 -1.59,-1.49 l -0.50,-0.05 0.39,-0.32 c 0.48,-0.39 1.56,-0.53 2.32,-0.25 0.72,0.26 1.28,0.79 1.72,1.63 2.59,-3.56 4.82,-5.95 7.76,-6.88 0.12,-0.02 0.20,-0.04 0.27,-0.04 0.18,0 0.25,0.10 0.28,0.16 0.07,0.17 -0.06,0.34 -0.12,0.40 -3.13,2.54 -5.89,6.17 -8.00,10.54 -0.05,0.12 -0.18,0.19 -0.32,0.19"
       style="fill:#80ff00;fill-opacity:1;fill-rule:nonzero;stroke:none;stroke-width:0.79" />
    <path
       inkscape:connector-curvature="0"
       id="path31567-2"
       d="m 69.4,35.4 c 0.6,0.33 1.15,1.03 1.4,1.54 l 0.39,0.78 c 0.53,1.07 1.09,2.19 1.43,2.81 2.03,-4.18 4.66,-7.71 7.63,-10.22 -2.71,1 -4.84,3.39 -7.36,6.88 l -0.21,0.3 -0.15,-0.34 C 72.11,36.21 71.6,35.68 70.89,35.41 70.42,35.24 69.81,35.27 69.4,35.39"
       style="fill:#000000;fill-opacity:1;fill-rule:nonzero;stroke:none" />
  </g>
  <g id="g_dragon_2">
    <path
       d="m 76.36,26.53 c 0,-0.14 -0.08,-0.33 -0.20,-0.42 -0.21,-0.16 -0.50,-0.13 -0.78,-0.07 -3.78,1.18 -6.62,4.18 -9.88,8.62 -0.56,-0.94 -1.26,-1.57 -2.14,-1.89 -1.16,-0.43 -2.56,-0.14 -3.19,0.34 -0.10,0.08 -0.18,0.22 -0.18,0.37 0,0.03 0,0.08 0.01,0.13 0.04,0.18 0.21,0.32 0.40,0.34 0.61,0.06 1.47,0.99 1.87,1.78 l 0.51,1.04 c 0.70,1.42 1.44,2.90 1.87,3.67 0.12,0.22 0.37,0.37 0.64,0.37 0.25,0 0.48,-0.14 0.6,-0.36 2.67,-5.56 6.19,-10.2 10.15,-13.39 0.01,-0.01 0.03,-0.03 0.06,-0.04 0.10,-0.12 0.22,-0.3 0.22,-0.51 m -0.49,0 c 0,0.03 -0.02,0.09 -0.10,0.19 -3.93,3.18 -7.51,7.81 -10.28,13.56 -0.06,0.13 -0.28,0.12 -0.37,-0.01 -0.51,-0.94 -1.5,-2.95 -2.38,-4.70 -0.42,-0.84 -1.40,-1.95 -2.25,-2.05 0.45,-0.37 1.65,-0.66 2.7,-0.27 0.92,0.33 1.65,1.04 2.25,2.37 3.36,-4.66 6.25,-7.88 10.06,-9.08 0.22,-0.04 0.38,-0.06 0.38,0.01"
       style="fill:#80ff00;fill-opacity:1;fill-rule:nonzero;stroke:none;stroke-width:0.89"
       id="path31614-9"
       inkscape:connector-curvature="0" />
    <path
       d="m 75.48,26.50 c -3.81,1.2 -6.70,4.41 -10.06,9.09 -0.58,-1.33 -1.32,-2.02 -2.25,-2.37 -1.04,-0.38 -2.24,-0.09 -2.7,0.27 0.85,0.09 1.83,1.21 2.25,2.05 0.87,1.75 1.86,3.75 2.38,4.70 0.07,0.14 0.3,0.14 0.37,0.01 2.77,-5.74 6.33,-10.38 10.28,-13.56 0.24,-0.27 0.06,-0.3 -0.26,-0.21"
       style="fill:#008000;fill-opacity:1;fill-rule:nonzero;stroke:none;stroke-width:0.89"
       id="path31616-2"
       inkscape:connector-curvature="0" />
    <path
       inkscape:connector-curvature="0"
       id="path31626-4"
       style="fill:#80ff00;fill-opacity:1;fill-rule:nonzero;stroke:none;stroke-width:0.89"
       d="m 89.70,26.53 c 0,-0.14 -0.08,-0.33 -0.20,-0.42 -0.21,-0.16 -0.50,-0.13 -0.78,-0.07 -3.78,1.18 -6.62,4.18 -9.88,8.62 -0.56,-0.94 -1.26,-1.57 -2.14,-1.89 -1.16,-0.43 -2.56,-0.14 -3.19,0.34 -0.10,0.08 -0.18,0.22 -0.18,0.37 0,0.03 0,0.08 0.01,0.13 0.04,0.18 0.21,0.32 0.40,0.34 0.61,0.06 1.47,0.99 1.87,1.78 l 0.51,1.04 c 0.70,1.42 1.44,2.90 1.87,3.67 0.12,0.22 0.37,0.37 0.64,0.37 0.25,0 0.48,-0.14 0.6,-0.36 2.67,-5.56 6.19,-10.2 10.15,-13.39 0.01,-0.01 0.03,-0.03 0.06,-0.04 0.10,-0.12 0.22,-0.3 0.22,-0.51 m -0.49,0 c 0,0.03 -0.02,0.09 -0.10,0.19 -3.93,3.18 -7.51,7.81 -10.28,13.56 -0.06,0.13 -0.28,0.12 -0.37,-0.01 -0.51,-0.94 -1.5,-2.95 -2.38,-4.70 -0.42,-0.84 -1.40,-1.95 -2.25,-2.05 0.45,-0.37 1.65,-0.66 2.7,-0.27 0.92,0.33 1.65,1.04 2.25,2.37 3.36,-4.66 6.25,-7.88 10.06,-9.08 0.22,-0.04 0.38,-0.06 0.38,0.01" />
    <path
       inkscape:connector-curvature="0"
       id="path31628-4"
       style="fill:#008000;fill-opacity:1;fill-rule:nonzero;stroke:none;stroke-width:0.89"
       d="m 88.83,26.50 c -3.81,1.2 -6.70,4.41 -10.06,9.09 -0.58,-1.33 -1.32,-2.02 -2.25,-2.37 -1.04,-0.38 -2.24,-0.09 -2.7,0.27 0.85,0.09 1.83,1.21 2.25,2.05 0.87,1.75 1.86,3.75 2.38,4.70 0.07,0.14 0.3,0.14 0.37,0.01 2.77,-5.74 6.33,-10.38 10.28,-13.56 0.24,-0.27 0.06,-0.3 -0.26,-0.21" />
  </g>

  <!-- -->

  <g id="g_crit_fail">
    <ellipse
       ry="15.99"
       rx="15.99"
       cy="75.00"
       cx="75.00"
       id="path5501-6"
       style="display:inline;opacity:1;fill:none;fill-opacity:1;stroke:#ff0000;stroke-width:1.58;stroke-linecap:round;stroke-linejoin:miter;stroke-miterlimit:4;stroke-dasharray:none;stroke-opacity:1">
    </ellipse>
  </g>
  <g id="g_crit_win">
    <path
       inkscape:connector-curvature="0"
       style="color:#000000;font-style:normal;font-variant:normal;font-weight:normal;font-stretch:normal;font-size:medium;line-height:normal;font-family:sans-serif;text-indent:0;text-align:start;text-decoration:none;text-decoration-line:none;text-decoration-style:solid;text-decoration-color:#000000;letter-spacing:normal;word-spacing:normal;text-transform:none;writing-mode:lr-tb;direction:ltr;baseline-shift:baseline;text-anchor:start;white-space:normal;clip-rule:nonzero;display:inline;overflow:visible;visibility:visible;opacity:1;isolation:auto;mix-blend-mode:normal;color-interpolation:sRGB;color-interpolation-filters:linearRGB;solid-color:#000000;solid-opacity:1;fill:none;fill-opacity:1;fill-rule:nonzero;stroke:#ffff80;stroke-width:0.95;stroke-linecap:butt;stroke-linejoin:miter;stroke-miterlimit:2;stroke-dasharray:none;stroke-dashoffset:0;stroke-opacity:1;color-rendering:auto;image-rendering:auto;shape-rendering:auto;text-rendering:auto;enable-background:accumulate"
       d="m 75.00,90.05 c -8.28,0 -15.05,-6.77 -15.05,-15.05 0,-8.28 6.77,-15.05 15.05,-15.05 8.28,0 15.05,6.77 15.05,15.05 0,8.28 -6.77,15.05 -15.05,15.05 z"
       id="path182846-2" />
    <path
       id="path38915-9-0-8"
       d="m 75.00,90.97 c -8.79,0 -15.97,-7.18 -15.97,-15.97 0,-8.79 7.18,-15.97 15.97,-15.97 8.79,0 15.97,7.18 15.97,15.97 0,8.79 -7.18,15.97 -15.97,15.97 z"
       style="color:#000000;font-style:normal;font-variant:normal;font-weight:normal;font-stretch:normal;font-size:medium;line-height:normal;font-family:sans-serif;text-indent:0;text-align:start;text-decoration:none;text-decoration-line:none;text-decoration-style:solid;text-decoration-color:#000000;letter-spacing:normal;word-spacing:normal;text-transform:none;writing-mode:lr-tb;direction:ltr;baseline-shift:baseline;text-anchor:start;white-space:normal;clip-rule:nonzero;display:inline;overflow:visible;visibility:visible;opacity:1;isolation:auto;mix-blend-mode:normal;color-interpolation:sRGB;color-interpolation-filters:linearRGB;solid-color:#000000;solid-opacity:1;fill:none;fill-opacity:1;fill-rule:nonzero;stroke:#cccc00;stroke-width:0.95;stroke-linecap:butt;stroke-linejoin:miter;stroke-miterlimit:2;stroke-dasharray:none;stroke-dashoffset:0;stroke-opacity:1;color-rendering:auto;image-rendering:auto;shape-rendering:auto;text-rendering:auto;enable-background:accumulate"
       inkscape:connector-curvature="0" />
    <rect
       inkscape:transform-center-x="-1.00e-05"
       inkscape:transform-center-y="-16.38"
       transform="rotate(45)"
       y="-11.30"
       x="94.76"
       height="4.21"
       width="4.21"
       id="rect182358-4-5"
       style="display:inline;opacity:1;fill:#008000;fill-opacity:1;stroke:none;stroke-width:0.79;stroke-linecap:round;stroke-linejoin:miter;stroke-miterlimit:4;stroke-dasharray:none;stroke-dashoffset:0;stroke-opacity:1" />
    <rect
       transform="rotate(135)"
       y="-117.37"
       x="-11.30"
       height="4.21"
       width="4.21"
       id="rect182362-8-9"
       style="display:inline;opacity:1;fill:#008000;fill-opacity:1;stroke:none;stroke-width:0.79;stroke-linecap:round;stroke-linejoin:miter;stroke-miterlimit:4;stroke-dasharray:none;stroke-dashoffset:0;stroke-opacity:1"
       inkscape:transform-center-x="-16.38" />
    <rect
       inkscape:transform-center-y="16.38"
       transform="rotate(-135)"
       y="-11.30"
       x="-117.37"
       height="4.21"
       width="4.21"
       id="rect182366-16-1"
       style="display:inline;opacity:1;fill:#008000;fill-opacity:1;stroke:none;stroke-width:0.79;stroke-linecap:round;stroke-linejoin:miter;stroke-miterlimit:4;stroke-dasharray:none;stroke-dashoffset:0;stroke-opacity:1" />
    <rect
       inkscape:transform-center-y="2.30e-05"
       transform="rotate(-45)"
       y="94.76"
       x="-11.30"
       height="4.21"
       width="4.21"
       id="rect182370-5-3"
       style="display:inline;opacity:1;fill:#008000;fill-opacity:1;stroke:none;stroke-width:0.79;stroke-linecap:round;stroke-linejoin:miter;stroke-miterlimit:4;stroke-dasharray:none;stroke-dashoffset:0;stroke-opacity:1"
       inkscape:transform-center-x="16.38" />
    <rect
       inkscape:transform-center-x="-8.19"
       style="display:inline;opacity:1;fill:#008000;fill-opacity:1;stroke:none;stroke-width:0.79;stroke-linecap:round;stroke-linejoin:miter;stroke-miterlimit:4;stroke-dasharray:none;stroke-dashoffset:0;stroke-opacity:1"
       id="rect182677-0-1"
       width="4.21"
       height="4.21"
       x="80.55"
       y="-64.33"
       transform="rotate(75)"
       inkscape:transform-center-y="-14.18" />
    <rect
       inkscape:transform-center-y="-8.19"
       transform="rotate(105)"
       y="-103.16"
       x="41.72"
       height="4.21"
       width="4.21"
       id="rect182679-1-4"
       style="display:inline;opacity:1;fill:#008000;fill-opacity:1;stroke:none;stroke-width:0.79;stroke-linecap:round;stroke-linejoin:miter;stroke-miterlimit:4;stroke-dasharray:none;stroke-dashoffset:0;stroke-opacity:1"
       inkscape:transform-center-x="-14.18" />
    <rect
       inkscape:transform-center-x="8.19"
       style="display:inline;opacity:1;fill:#008000;fill-opacity:1;stroke:none;stroke-width:0.79;stroke-linecap:round;stroke-linejoin:miter;stroke-miterlimit:4;stroke-dasharray:none;stroke-dashoffset:0;stroke-opacity:1"
       id="rect182681-5-2"
       width="4.21"
       height="4.21"
       x="80.55"
       y="41.72"
       transform="rotate(15)"
       inkscape:transform-center-y="-14.18" />
    <rect
       transform="rotate(-15)"
       inkscape:transform-center-x="14.18"
       style="display:inline;opacity:1;fill:#008000;fill-opacity:1;stroke:none;stroke-width:0.79;stroke-linecap:round;stroke-linejoin:miter;stroke-miterlimit:4;stroke-dasharray:none;stroke-dashoffset:0;stroke-opacity:1"
       id="rect182683-8-9"
       width="4.21"
       height="4.21"
       x="41.73"
       y="80.55"
       inkscape:transform-center-y="-8.19" />
    <rect
       inkscape:transform-center-x="-14.18"
       style="display:inline;opacity:1;fill:#008000;fill-opacity:1;stroke:none;stroke-width:0.79;stroke-linecap:round;stroke-linejoin:miter;stroke-miterlimit:4;stroke-dasharray:none;stroke-dashoffset:0;stroke-opacity:1"
       id="rect182685-6-0"
       width="4.21"
       height="4.21"
       x="-64.33"
       y="-103.16"
       transform="rotate(165)"
       inkscape:transform-center-y="8.19" />
    <rect
       inkscape:transform-center-x="-8.19"
       style="display:inline;opacity:1;fill:#008000;fill-opacity:1;stroke:none;stroke-width:0.79;stroke-linecap:round;stroke-linejoin:miter;stroke-miterlimit:4;stroke-dasharray:none;stroke-dashoffset:0;stroke-opacity:1"
       id="rect182687-0-9"
       width="4.21"
       height="4.21"
       x="-103.16"
       y="-64.33"
       transform="rotate(-165)"
       inkscape:transform-center-y="14.18" />
    <rect
       transform="rotate(-75)"
       inkscape:transform-center-x="14.18"
       style="display:inline;opacity:1;fill:#008000;fill-opacity:1;stroke:none;stroke-width:0.79;stroke-linecap:round;stroke-linejoin:miter;stroke-miterlimit:4;stroke-dasharray:none;stroke-dashoffset:0;stroke-opacity:1"
       id="rect182689-1-1"
       width="4.21"
       height="4.21"
       x="-64.33"
       y="80.55"
       inkscape:transform-center-y="8.19" />
    <rect
       transform="rotate(-105)"
       inkscape:transform-center-x="8.19"
       style="display:inline;opacity:1;fill:#008000;fill-opacity:1;stroke:none;stroke-width:0.79;stroke-linecap:round;stroke-linejoin:miter;stroke-miterlimit:4;stroke-dasharray:none;stroke-dashoffset:0;stroke-opacity:1"
       id="rect182691-0-7"
       width="4.21"
       height="4.21"
       x="-103.16"
       y="41.73"
       inkscape:transform-center-y="14.18" />
    <path
       id="path182848-4"
       d="m 75.00,91.96 c -9.33,0 -16.96,-7.62 -16.96,-16.96 0,-9.33 7.62,-16.96 16.96,-16.96 9.33,0 16.96,7.62 16.96,16.96 0,9.33 -7.62,16.96 -16.96,16.96 z"
       style="color:#000000;font-style:normal;font-variant:normal;font-weight:normal;font-stretch:normal;font-size:medium;line-height:normal;font-family:sans-serif;text-indent:0;text-align:start;text-decoration:none;text-decoration-line:none;text-decoration-style:solid;text-decoration-color:#000000;letter-spacing:normal;word-spacing:normal;text-transform:none;writing-mode:lr-tb;direction:ltr;baseline-shift:baseline;text-anchor:start;white-space:normal;clip-rule:nonzero;display:inline;overflow:visible;visibility:visible;opacity:1;isolation:auto;mix-blend-mode:normal;color-interpolation:sRGB;color-interpolation-filters:linearRGB;solid-color:#000000;solid-opacity:1;fill:none;fill-opacity:1;fill-rule:nonzero;stroke:#ffff80;stroke-width:0.95;stroke-linecap:butt;stroke-linejoin:miter;stroke-miterlimit:2;stroke-dasharray:none;stroke-dashoffset:0;stroke-opacity:1;color-rendering:auto;image-rendering:auto;shape-rendering:auto;text-rendering:auto;enable-background:accumulate"
       inkscape:connector-curvature="0" />
  </g>
  <!-- -->
  <g id="g_xp">
    <rect
       style="opacity:1;fill:#008000;fill-opacity:1;stroke:none;stroke-width:0.79;stroke-linecap:round;stroke-linejoin:miter;stroke-miterlimit:4;stroke-dasharray:none;stroke-dashoffset:0;stroke-opacity:1"
       id="rect113129"
       width="14.46"
       height="14.46"
       x="67.76"
       y="67.76" />
    <rect
       y="98.83"
       x="-7.23"
       height="14.46"
       width="14.46"
       id="rect113131"
       style="opacity:1;fill:#008000;fill-opacity:1;stroke:none;stroke-width:0.79;stroke-linecap:round;stroke-linejoin:miter;stroke-miterlimit:4;stroke-dasharray:none;stroke-dashoffset:0;stroke-opacity:1"
       transform="rotate(-45)" />
    <path
       sodipodi:type="star"
       style="opacity:1;fill:#91ff91;fill-opacity:1;stroke:none;stroke-width:0.79;stroke-linecap:round;stroke-linejoin:miter;stroke-miterlimit:4;stroke-dasharray:none;stroke-dashoffset:0;stroke-opacity:1"
       id="path113133"
       sodipodi:sides="8"
       sodipodi:cx="75.00"
       sodipodi:cy="75.00"
       sodipodi:r1="9.10"
       sodipodi:r2="6.15"
       sodipodi:arg1="0.78"
       sodipodi:arg2="1.17"
       inkscape:flatsided="false"
       inkscape:rounded="0"
       inkscape:randomized="0"
       d="m 81.44,81.44 -4.08,-0.75 -2.35,3.42 -2.35,-3.42 -4.08,0.75 0.75,-4.08 -3.42,-2.35 3.42,-2.35 -0.75,-4.08 4.08,0.75 2.35,-3.42 2.35,3.42 4.08,-0.75 -0.75,4.08 3.42,2.35 -3.42,2.35 z" />
  </g>
  <!-- -->
<g class="card_back">
    <rect
       style="opacity:1;
       fill:#ffffff;fill-opacity:1;
       stroke:#000000;stroke-width:0.5;
       stroke-opacity:1"
       id="card_back_outer"
       width="150"
       height="150"
       x="0"
       y="0"
       rx="10"
       ry="10" />
    <rect
       style="opacity:1;
       fill:#202020;fill-opacity:1;
       stroke:none"
       id="card_back_inner"
       width="140"
       height="140"
       x="5"
       y="5"
       rx="5"
       ry="5" />
</g>
</svg>
    <g id="g_deck_area" >
      <rect
         style="opacity:1;
         fill-opacity:0;
         stroke:#ffffff;
         stroke-width:0.5;
         stroke-opacity:0.5"
         id="deck_area_rect"
         width="240"
         height="240"
         x="0.0"
         y="0.0"
         rx="0"
         ry="0" />
    </g>

</svg>
