<?xml version="1.0" encoding="UTF-8" standalone="no"?>
<svg
   xmlns:dc="http://purl.org/dc/elements/1.1/"
   xmlns:cc="http://creativecommons.org/ns#"
   xmlns:rdf="http://www.w3.org/1999/02/22-rdf-syntax-ns#"
   xmlns:svg="http://www.w3.org/2000/svg"
   xmlns="http://www.w3.org/2000/svg"
   xmlns:xlink="http://www.w3.org/1999/xlink"
   xmlns:sodipodi="http://sodipodi.sourceforge.net/DTD/sodipodi-0.dtd"
   xmlns:inkscape="http://www.inkscape.org/namespaces/inkscape"
   id="sw_d122 die"
   height="100"
   width="100"
   version="1.1"
   inkscape:version="0.92.3 (2405546, 2018-03-11)"
   sodipodi:docname="dice_sw_d122.svg">
  <defs
     id="defs1">
    <filter
       id="app-filter-colorize"
       style="color-interpolation-filters:sRGB">
      <feColorMatrix
         id="recolorize-filter-matrix"
         type="matrix"
         values="0.9 0.0 0.0 0.0  0.0                  0.9 0.0 0.0 0.0  0.0                  0.9 0.0 0.0 0.0  0.0                  0.0 0.0 0.0 1.0  0.0" />
    </filter>
    <radialGradient
       inkscape:collect="always"
       xlink:href="#linearGradient3131"
       id="radialGradient3133"
       cx="166.10052"
       cy="2.4057181"
       fx="166.10052"
       fy="2.4057181"
       r="32.233128"
       gradientTransform="matrix(1.8341947,-5.7484081e-8,3.8428178e-8,1.2261614,-254.10199,44.3163)"
       gradientUnits="userSpaceOnUse" />
    <linearGradient
       inkscape:collect="always"
       id="linearGradient3131">
      <stop
         style="stop-color:#000000;stop-opacity:1;"
         offset="0"
         id="stop3127" />
      <stop
         style="stop-color:#000000;stop-opacity:0;"
         offset="1"
         id="stop3129" />
    </linearGradient>
  </defs>
  <script
     type="text/javascript"
     src="js/sw_dice.js"
     id="script_sw_dice_utils" />
  <script
     type="text/javascript"
     data-namespace="sw_d121"
     id="script_sw_d121"><![CDATA[
var sw_d121 = {

  initialize: function(elem, prototype) {
    if (!prototype) {
      return
    }
    prototype.querySelectorAll('g').forEach((gEl) => {
      if (gEl.id && elem.getElementById(gEl.id)) {
        elem.getElementById(gEl.id).setAttribute(
          'display',
          gEl.getAttribute('display'),
        )
      }
    })
  },

  menu: {
    'Roll': {
      eventName: 'die_roll',
      otherEvents: ['dblclick'],
      applicable: (dieNode) => { return true },
      handler: function(evt) {
        let faces = [
          'g_cro', 'g_crocro', 'g_crocro',
          'g_bang', 'g_bang', 'g_bangbang', 'g_bangbang',
          'g_crobang', 'g_crobang', 'g_crobang',
          'g_cbang',
          null,
        ]
        return sw_dice.roll_handler(this, faces)
      },
    },
  },

  getSerializerHints: function(elem) {
    return ['g']
  },

}
    ]]></script>
  <path
     style="fill:#000000;fill-opacity:0.50196078;stroke:none;stroke-width:1.43660581;stroke-linecap:round;stroke-linejoin:round;stroke-miterlimit:4;stroke-dasharray:none;stroke-opacity:1"
     d="m 7.4087091,61.198188 c 0,0 -4.1508409,0.819812 -4.1508409,7.81214 C 5.0868283,75.8361 23.19054,91.96716 23.19054,91.96716 c 0,0 17.556487,7.950995 26.887897,7.80455 11.084877,-0.173963 31.63375,-10.26882 31.63375,-10.26882 0,0 14.759289,-15.592388 16.576705,-22.375076 0,-5.614407 -3.909938,-5.929626 -3.909938,-5.929626 z"
     id="path_shadow1"
     inkscape:connector-curvature="0"
     sodipodi:nodetypes="cccscccc"
     inkscape:label="#patha1" />
  <g
     id="group-monochrome-1"
     class="draggable"
     filter="url(#app-filter-colorize)">
    <path
       inkscape:connector-curvature="0"
       id="patha2"
       d="m 50.560543,5.458109 -24.80296,5.200387 -18.00051,18.765482 -2.274,30.505378 14.25213,29.128043 30.39137,6.662315 L 80.516102,89.057399 95.636181,59.929356 93.159916,30.314002 75.361687,10.658496 Z"
       style="fill:#c8c8c8;fill-opacity:1;stroke:none;stroke-width:1.23338163;stroke-linecap:round;stroke-linejoin:round;stroke-miterlimit:4;stroke-dasharray:none;stroke-opacity:1"
       sodipodi:nodetypes="ccccccccccc" />
    <path
       inkscape:connector-curvature="0"
       style="fill:#9b9b9b;fill-opacity:1;stroke:none;stroke-width:1.23338163;stroke-linecap:round;stroke-linejoin:round;stroke-miterlimit:4;stroke-dasharray:none;stroke-opacity:1"
       d="m 7.758043,29.423821 -2.274,30.50538 14.25213,29.128048 30.38953,6.662315 L 80.515235,89.057249 95.635314,59.929201 93.160886,30.315684 80.290892,36.527461 70.149397,74.371859 H 30.968133 L 20.828483,36.527461 Z"
       id="patha3"
       sodipodi:nodetypes="cccccccccccc" />
    <path
       style="fill:none;fill-opacity:1;stroke:#000000;stroke-width:1.23338163;stroke-linecap:round;stroke-linejoin:round;stroke-miterlimit:4;stroke-dasharray:none;stroke-opacity:1"
       d="m 50.560543,5.458109 c -5.019219,0 -23.15334,3.5507671 -24.80296,5.200387 0,0 -15.078,13.703546 -18.00051,18.765482 l -2.274,30.505378 14.25213,29.128043 30.39137,6.662315 L 80.516102,89.057399 95.636181,59.929356 93.159916,30.314002 C 90.669946,26.001247 75.361687,10.658496 75.361687,10.658496 74.050308,9.3471169 54.921169,5.458109 50.560543,5.458109 Z"
       id="patha4"
       inkscape:connector-curvature="0"
       sodipodi:nodetypes="ccccccccccc" />
    <path
       style="fill:none;stroke:#000000;stroke-width:0.9415127px;stroke-linecap:butt;stroke-linejoin:miter;stroke-opacity:1"
       d="m 50.560543,5.458109 -0.002,13.903455 z m -42.80347,23.965869 13.07043,7.10364 z m 85.402843,0.890024 -12.870003,6.213616 z m -62.192753,44.058017 -11.23196,14.68538 z m 39.181265,0 10.367674,14.68538 z"
       id="patha5"
       inkscape:connector-curvature="0"
       sodipodi:nodetypes="ccccccccccccccc" />
    <path
       style="fill:#e4e4e4;fill-opacity:1;stroke:url(#radialGradient3133);stroke-width:1.23338163;stroke-linecap:round;stroke-linejoin:round;stroke-miterlimit:4;stroke-dasharray:none;stroke-opacity:1"
       d="m 50.558703,19.361563 c 10.321596,3.871669 20.160441,9.915665 29.73121,17.166055 -0.133262,15.612248 -5.261013,26.614199 -10.141495,37.844391 -12.728225,0.88588 -25.659645,1.22988 -39.181265,0 -6.39362,-13.870514 -8.12131,-25.7969 -10.13966,-37.844391 8.89135,-7.556315 18.96208,-12.989745 29.73121,-17.166055 z"
       id="penta_1"
       inkscape:connector-curvature="0"
       sodipodi:nodetypes="cccccc" />
    <g
       id="g_crocro"
       style="display: none"
       inkscape:label="#g73">
      <path
         id="circle848-3"
         d="m 50.559415,29.924651 a 2.6880368,2.6880368 0 0 0 -2.68901,2.687659 2.6880368,2.6880368 0 0 0 2.68901,2.687658 2.6880368,2.6880368 0 0 0 2.68766,-2.687658 2.6880368,2.6880368 0 0 0 -2.68766,-2.687659 z m -7.27986,0.157702 c -0.2791,0.79326 -0.43537,1.643277 -0.43537,2.529957 0,1.522656 0.45145,2.941979 1.21983,4.140665 -0.66369,1.035367 -1.08877,2.235692 -1.19286,3.524687 -1.65918,-0.891603 -2.76565,-2.440971 0.23318,-3.589385 -5.50931,0.96404 -3.59217,4.957532 0.23318,6.884933 1.09515,2.931019 3.91816,5.034305 7.22055,5.034305 3.30238,0 6.12675,-2.103286 7.2219,-5.034305 3.82535,-1.927401 5.74249,-5.920893 0.23318,-6.884933 2.99883,1.148414 1.89236,2.697782 0.23318,3.589385 -0.10409,-1.288995 -0.53052,-2.48932 -1.19421,-3.524687 0.76838,-1.198686 1.21982,-2.618009 1.21982,-4.140665 0,-0.88668 -0.15626,-1.736697 -0.43536,-2.529957 -0.44944,1.286284 -1.22735,2.419115 -2.23746,3.295549 -0.017,0.116305 -0.0331,0.233029 -0.058,0.346403 -0.0393,0.179364 -0.0894,0.354109 -0.14692,0.52567 -0.0569,0.169903 -0.12309,0.334796 -0.19679,0.496017 -5.9e-4,0.0013 -6.6e-4,0.0028 -0.001,0.0041 -0.3682,0.80368 -0.93719,1.491774 -1.64575,2.002939 1.28149,0.92448 2.11346,2.427577 2.11346,4.140665 0,2.835296 -2.27045,5.105742 -5.10574,5.105742 -2.83529,0 -5.10574,-2.270446 -5.10574,-5.105742 0,-1.713088 0.83197,-3.216185 2.11346,-4.140665 -0.70856,-0.511165 -1.27755,-1.199259 -1.64575,-2.002939 -5.9e-4,-0.0013 -6.6e-4,-0.0028 -10e-4,-0.0041 -0.0737,-0.161221 -0.13985,-0.326114 -0.19678,-0.496017 -0.0575,-0.171562 -0.10757,-0.346306 -0.14692,-0.52567 -0.0249,-0.113374 -0.041,-0.230098 -0.058,-0.346403 -1.01011,-0.876434 -1.78803,-2.009265 -2.23747,-3.295549 z"
         style="color:#000000;font-style:normal;font-variant:normal;font-weight:normal;font-stretch:normal;font-size:medium;line-height:normal;font-family:sans-serif;font-variant-ligatures:normal;font-variant-position:normal;font-variant-caps:normal;font-variant-numeric:normal;font-variant-alternates:normal;font-feature-settings:normal;text-indent:0;text-align:start;text-decoration:none;text-decoration-line:none;text-decoration-style:solid;text-decoration-color:#000000;letter-spacing:normal;word-spacing:normal;text-transform:none;writing-mode:lr-tb;direction:ltr;text-orientation:mixed;dominant-baseline:auto;baseline-shift:baseline;text-anchor:start;white-space:normal;shape-padding:0;clip-rule:nonzero;display:inline;overflow:visible;visibility:visible;opacity:1;isolation:auto;mix-blend-mode:normal;color-interpolation:sRGB;color-interpolation-filters:linearRGB;solid-color:#000000;solid-opacity:1;vector-effect:none;fill:#000000;fill-opacity:1;fill-rule:nonzero;stroke:none;stroke-width:2.60829282;stroke-linecap:round;stroke-linejoin:round;stroke-miterlimit:4;stroke-dasharray:none;stroke-dashoffset:0;stroke-opacity:1;color-rendering:auto;image-rendering:auto;shape-rendering:auto;text-rendering:auto;enable-background:accumulate"
         inkscape:connector-curvature="0" />
      <path
         inkscape:connector-curvature="0"
         style="color:#000000;font-style:normal;font-variant:normal;font-weight:normal;font-stretch:normal;font-size:medium;line-height:normal;font-family:sans-serif;font-variant-ligatures:normal;font-variant-position:normal;font-variant-caps:normal;font-variant-numeric:normal;font-variant-alternates:normal;font-feature-settings:normal;text-indent:0;text-align:start;text-decoration:none;text-decoration-line:none;text-decoration-style:solid;text-decoration-color:#000000;letter-spacing:normal;word-spacing:normal;text-transform:none;writing-mode:lr-tb;direction:ltr;text-orientation:mixed;dominant-baseline:auto;baseline-shift:baseline;text-anchor:start;white-space:normal;shape-padding:0;clip-rule:nonzero;display:inline;overflow:visible;visibility:visible;opacity:1;isolation:auto;mix-blend-mode:normal;color-interpolation:sRGB;color-interpolation-filters:linearRGB;solid-color:#000000;solid-opacity:1;vector-effect:none;fill:#000000;fill-opacity:1;fill-rule:nonzero;stroke:none;stroke-width:2.60829282;stroke-linecap:round;stroke-linejoin:round;stroke-miterlimit:4;stroke-dasharray:none;stroke-dashoffset:0;stroke-opacity:1;color-rendering:auto;image-rendering:auto;shape-rendering:auto;text-rendering:auto;enable-background:accumulate"
         d="m 50.559415,49.924651 a 2.6880368,2.6880368 0 0 0 -2.68901,2.687659 2.6880368,2.6880368 0 0 0 2.68901,2.687658 2.6880368,2.6880368 0 0 0 2.68766,-2.687658 2.6880368,2.6880368 0 0 0 -2.68766,-2.687659 z m -7.27986,0.157702 c -0.2791,0.79326 -0.43537,1.643277 -0.43537,2.529957 0,1.522656 0.45145,2.941979 1.21983,4.140665 -0.66369,1.035367 -1.08877,2.235692 -1.19286,3.524687 -1.65918,-0.891603 -2.76565,-2.440971 0.23318,-3.589385 -5.50931,0.96404 -3.59217,4.957532 0.23318,6.884933 1.09515,2.931019 3.91816,5.034305 7.22055,5.034305 3.30238,0 6.12675,-2.103286 7.2219,-5.034305 3.82535,-1.927401 5.74249,-5.920893 0.23318,-6.884933 2.99883,1.148414 1.89236,2.697782 0.23318,3.589385 -0.10409,-1.288995 -0.53052,-2.48932 -1.19421,-3.524687 0.76838,-1.198686 1.21982,-2.618009 1.21982,-4.140665 0,-0.88668 -0.15626,-1.736697 -0.43536,-2.529957 -0.44944,1.286284 -1.22735,2.419115 -2.23746,3.295549 -0.017,0.116305 -0.0331,0.233029 -0.058,0.346403 -0.0393,0.179364 -0.0894,0.354109 -0.14692,0.52567 -0.0569,0.169903 -0.12309,0.334796 -0.19679,0.496017 -5.9e-4,0.0013 -6.6e-4,0.0028 -0.001,0.0041 -0.3682,0.80368 -0.93719,1.491774 -1.64575,2.002939 1.28149,0.92448 2.11346,2.427577 2.11346,4.140665 0,2.835296 -2.27045,5.105742 -5.10574,5.105742 -2.83529,0 -5.10574,-2.270446 -5.10574,-5.105742 0,-1.713088 0.83197,-3.216185 2.11346,-4.140665 -0.70856,-0.511165 -1.27755,-1.199259 -1.64575,-2.002939 -5.9e-4,-0.0013 -6.6e-4,-0.0028 -10e-4,-0.0041 -0.0737,-0.161221 -0.13985,-0.326114 -0.19678,-0.496017 -0.0575,-0.171562 -0.10757,-0.346306 -0.14692,-0.52567 -0.0249,-0.113374 -0.041,-0.230098 -0.058,-0.346403 -1.01011,-0.876434 -1.78803,-2.009265 -2.23747,-3.295549 z"
         id="path929" />
    </g>
    <g
       id="g_bang"
       style="display: none"
       inkscape:label="#g77">
      <path
         d="m 54.377155,53.306582 1.022237,12.242687 -5.192186,-11.134162 -8.934364,8.432408 5.467763,-11.001451 -12.163206,-1.727646 12.010375,-2.584423 -6.232907,-10.586748 9.50893,7.778728 4.390899,-11.473812 -0.152934,12.284338 11.708268,-3.720862 -9.699635,7.539592 10.209073,6.833973 z"
         id="path931"
         style="fill:none;fill-opacity:1;stroke:#000000;stroke-width:3.78;stroke-linecap:round;stroke-linejoin:round;stroke-miterlimit:4;stroke-dasharray:none;stroke-opacity:1"
         inkscape:connector-curvature="0" />
    </g>
    <g
       id="g_bangbang"
       style="display: none"
       inkscape:label="#g61">
      <path
         d="m 52.410886,41.107485 0.48193,5.771764 -2.447835,-5.249154 -4.212069,3.975423 2.577754,-5.186588 -5.734293,-0.814492 5.662242,-1.218416 -2.938478,-4.991078 4.482945,3.667249 2.070071,-5.409281 -0.0721,5.7914 5.519815,-1.754184 -4.572853,3.554509 4.813025,3.221848 z"
         id="path_bangbang1"
         style="fill:none;fill-opacity:1;stroke:#000000;stroke-width:1.78206539;stroke-linecap:round;stroke-linejoin:round;stroke-miterlimit:4;stroke-dasharray:none;stroke-opacity:1"
         inkscape:connector-curvature="0" />
      <path
         style="fill:none;fill-opacity:1;stroke:#000000;stroke-width:1.78206539;stroke-linecap:round;stroke-linejoin:round;stroke-miterlimit:4;stroke-dasharray:none;stroke-opacity:1"
         id="path_bangbang2"
         d="m 52.410886,61.107483 0.48193,5.771764 -2.447835,-5.249154 -4.212069,3.975423 2.577754,-5.186588 -5.734293,-0.814492 5.662242,-1.218415 -2.938478,-4.991079 4.482945,3.667249 2.070071,-5.409281 -0.0721,5.791401 5.519815,-1.754185 -4.572853,3.554509 4.813025,3.221848 z"
         inkscape:connector-curvature="0" />
    </g>
    <g
       id="g_crobang"
       style="display: none"
       inkscape:label="#g67">
      <path
         id="path950"
         d="m 50.559415,49.924651 a 2.6880368,2.6880368 0 0 0 -2.68901,2.687659 2.6880368,2.6880368 0 0 0 2.68901,2.687658 2.6880368,2.6880368 0 0 0 2.68766,-2.687658 2.6880368,2.6880368 0 0 0 -2.68766,-2.687659 z m -7.27986,0.157702 c -0.2791,0.79326 -0.43537,1.643277 -0.43537,2.529957 0,1.522656 0.45145,2.941979 1.21983,4.140665 -0.66369,1.035367 -1.08877,2.235692 -1.19286,3.524687 -1.65918,-0.891603 -2.76565,-2.440971 0.23318,-3.589385 -5.50931,0.96404 -3.59217,4.957532 0.23318,6.884933 1.09515,2.931019 3.91816,5.034305 7.22055,5.034305 3.30238,0 6.12675,-2.103286 7.2219,-5.034305 3.82535,-1.927401 5.74249,-5.920893 0.23318,-6.884933 2.99883,1.148414 1.89236,2.697782 0.23318,3.589385 -0.10409,-1.288995 -0.53052,-2.48932 -1.19421,-3.524687 0.76838,-1.198686 1.21982,-2.618009 1.21982,-4.140665 0,-0.88668 -0.15626,-1.736697 -0.43536,-2.529957 -0.44944,1.286284 -1.22735,2.419115 -2.23746,3.295549 -0.017,0.116305 -0.0331,0.233029 -0.058,0.346403 -0.0393,0.179364 -0.0894,0.354109 -0.14692,0.52567 -0.0569,0.169903 -0.12309,0.334796 -0.19679,0.496017 -5.9e-4,0.0013 -6.6e-4,0.0028 -0.001,0.0041 -0.3682,0.80368 -0.93719,1.491774 -1.64575,2.002939 1.28149,0.92448 2.11346,2.427577 2.11346,4.140665 0,2.835296 -2.27045,5.105742 -5.10574,5.105742 -2.83529,0 -5.10574,-2.270446 -5.10574,-5.105742 0,-1.713088 0.83197,-3.216185 2.11346,-4.140665 -0.70856,-0.511165 -1.27755,-1.199259 -1.64575,-2.002939 -5.9e-4,-0.0013 -6.6e-4,-0.0028 -10e-4,-0.0041 -0.0737,-0.161221 -0.13985,-0.326114 -0.19678,-0.496017 -0.0575,-0.171562 -0.10757,-0.346306 -0.14692,-0.52567 -0.0249,-0.113374 -0.041,-0.230098 -0.058,-0.346403 -1.01011,-0.876434 -1.78803,-2.009265 -2.23747,-3.295549 z"
         style="color:#000000;font-style:normal;font-variant:normal;font-weight:normal;font-stretch:normal;font-size:medium;line-height:normal;font-family:sans-serif;font-variant-ligatures:normal;font-variant-position:normal;font-variant-caps:normal;font-variant-numeric:normal;font-variant-alternates:normal;font-feature-settings:normal;text-indent:0;text-align:start;text-decoration:none;text-decoration-line:none;text-decoration-style:solid;text-decoration-color:#000000;letter-spacing:normal;word-spacing:normal;text-transform:none;writing-mode:lr-tb;direction:ltr;text-orientation:mixed;dominant-baseline:auto;baseline-shift:baseline;text-anchor:start;white-space:normal;shape-padding:0;clip-rule:nonzero;display:inline;overflow:visible;visibility:visible;opacity:1;isolation:auto;mix-blend-mode:normal;color-interpolation:sRGB;color-interpolation-filters:linearRGB;solid-color:#000000;solid-opacity:1;vector-effect:none;fill:#000000;fill-opacity:1;fill-rule:nonzero;stroke:none;stroke-width:2.60829282;stroke-linecap:round;stroke-linejoin:round;stroke-miterlimit:4;stroke-dasharray:none;stroke-dashoffset:0;stroke-opacity:1;color-rendering:auto;image-rendering:auto;shape-rendering:auto;text-rendering:auto;enable-background:accumulate"
         inkscape:connector-curvature="0" />
      <path
         style="fill:none;fill-opacity:1;stroke:#000000;stroke-width:1.78206539;stroke-linecap:round;stroke-linejoin:round;stroke-miterlimit:4;stroke-dasharray:none;stroke-opacity:1"
         id="path952"
         d="m 52.410882,41.107485 0.481929,5.771764 -2.447834,-5.249154 -4.212069,3.975423 2.577754,-5.186588 -5.734293,-0.814492 5.662242,-1.218416 -2.938478,-4.991078 4.482945,3.667249 2.070071,-5.409281 -0.0721,5.7914 5.519815,-1.754184 -4.572853,3.554509 4.813025,3.221848 z"
         inkscape:connector-curvature="0" />
    </g>
    <g
       id="g_cbang"
       style="display: none"
       inkscape:label="#g3747">
      <circle
         r="15.278122"
         cy="49.400715"
         cx="50.448433"
         id="path856"
         style="fill:none;fill-opacity:1;stroke:#000000;stroke-width:3.78;stroke-linecap:round;stroke-linejoin:bevel;stroke-miterlimit:4;stroke-dasharray:none;stroke-opacity:1" />
      <path
         sodipodi:nodetypes="ccccccccccccccc"
         inkscape:connector-curvature="0"
         style="fill:#000000;fill-opacity:1;stroke:none;stroke-width:2.35977817;stroke-linecap:round;stroke-linejoin:round;stroke-miterlimit:4;stroke-dasharray:none;stroke-opacity:1"
         id="path35"
         d="m 56.864123,55.906407 0.638162,7.642864 -3.241378,-6.950834 -5.577543,5.264183 3.413414,-6.867985 -7.593245,-1.078534 7.497836,-1.613404 -3.891079,-6.609094 5.936234,4.856104 2.74115,-7.162871 -0.09547,7.668866 7.309236,-2.322859 -6.055287,4.706815 6.373319,4.266312 z" />
    </g>
    <g
       id="g_cro"
       inkscape:label="#g81">
      <path
         inkscape:connector-curvature="0"
         id="circle848"
         d="m 50.45947,37.721621 a 3.8950799,3.8950799 0 0 0 -3.89648,3.894532 3.8950799,3.8950799 0 0 0 3.89648,3.894531 3.8950799,3.8950799 0 0 0 3.89453,-3.894531 3.8950799,3.8950799 0 0 0 -3.89453,-3.894532 z m -10.54883,0.228516 c -0.40442,1.149468 -0.63086,2.381179 -0.63086,3.666016 0,2.206394 0.65416,4.263053 1.76758,6 -0.96172,1.500291 -1.57767,3.239614 -1.72851,5.107422 -2.40421,-1.29197 -4.00754,-3.537071 0.33789,-5.201172 -7.98322,1.396936 -5.20521,7.183676 0.33789,9.976562 1.58692,4.247171 5.67759,7.294922 10.46289,7.294922 4.78529,0 8.87792,-3.047751 10.46484,-7.294922 5.5431,-2.792886 8.32111,-8.579626 0.33789,-9.976562 4.34543,1.664101 2.7421,3.909202 0.33789,5.201172 -0.15084,-1.867808 -0.76875,-3.607131 -1.73047,-5.107422 1.11342,-1.736947 1.76758,-3.793606 1.76758,-6 0,-1.284837 -0.22644,-2.516548 -0.63086,-3.666016 -0.65126,1.863881 -1.77848,3.505402 -3.24218,4.775391 -0.0246,0.168532 -0.0479,0.337669 -0.084,0.501953 -0.057,0.259907 -0.12958,0.513119 -0.21289,0.761718 -0.0825,0.246198 -0.17837,0.485135 -0.28516,0.71875 -8.5e-4,0.0019 -9.5e-4,0.004 -0.002,0.0059 -0.53354,1.164566 -1.35802,2.161644 -2.38476,2.902344 1.85693,1.339611 3.0625,3.517662 3.0625,6 0,4.108464 -3.28998,7.398437 -7.39844,7.398437 -4.10846,0 -7.39844,-3.289973 -7.39844,-7.398437 0,-2.482338 1.20557,-4.660389 3.0625,-6 -1.02674,-0.7407 -1.85122,-1.737778 -2.38476,-2.902344 -8.6e-4,-0.0019 -9.6e-4,-0.004 -0.002,-0.0059 -0.10679,-0.233615 -0.20265,-0.472552 -0.28515,-0.71875 -0.0833,-0.2486 -0.15587,-0.501811 -0.21289,-0.761718 -0.0361,-0.164284 -0.0594,-0.333421 -0.084,-0.501953 -1.4637,-1.269989 -2.59093,-2.91151 -3.24219,-4.775391 z"
         style="color:#000000;font-style:normal;font-variant:normal;font-weight:normal;font-stretch:normal;font-size:medium;line-height:normal;font-family:sans-serif;font-variant-ligatures:normal;font-variant-position:normal;font-variant-caps:normal;font-variant-numeric:normal;font-variant-alternates:normal;font-feature-settings:normal;text-indent:0;text-align:start;text-decoration:none;text-decoration-line:none;text-decoration-style:solid;text-decoration-color:#000000;letter-spacing:normal;word-spacing:normal;text-transform:none;writing-mode:lr-tb;direction:ltr;text-orientation:mixed;dominant-baseline:auto;baseline-shift:baseline;text-anchor:start;white-space:normal;shape-padding:0;clip-rule:nonzero;display:inline;overflow:visible;visibility:visible;opacity:1;isolation:auto;mix-blend-mode:normal;color-interpolation:sRGB;color-interpolation-filters:linearRGB;solid-color:#000000;solid-opacity:1;vector-effect:none;fill:#000000;fill-opacity:1;fill-rule:nonzero;stroke:none;stroke-width:3.77952766;stroke-linecap:round;stroke-linejoin:round;stroke-miterlimit:4;stroke-dasharray:none;stroke-dashoffset:0;stroke-opacity:1;color-rendering:auto;image-rendering:auto;shape-rendering:auto;text-rendering:auto;enable-background:accumulate" />
    </g>
  </g>
</svg>
