<?xml version="1.0" encoding="UTF-8" standalone="no"?>
<svg
   xmlns:dc="http://purl.org/dc/elements/1.1/"
   xmlns:cc="http://creativecommons.org/ns#"
   xmlns:rdf="http://www.w3.org/1999/02/22-rdf-syntax-ns#"
   xmlns:svg="http://www.w3.org/2000/svg"
   xmlns="http://www.w3.org/2000/svg"
   xmlns:xlink="http://www.w3.org/1999/xlink"
   xmlns:sodipodi="http://sodipodi.sourceforge.net/DTD/sodipodi-0.dtd"
   xmlns:inkscape="http://www.inkscape.org/namespaces/inkscape"
   id="dn die"
   height="100"
   width="100"
   version="1.1"
   inkscape:version="0.92.3 (2405546, 2018-03-11)"
   sodipodi:docname="dice_dn.svg">
  <sodipodi:namedview
     pagecolor="#ffffff"
     bordercolor="#666666"
     borderopacity="1"
     objecttolerance="10"
     gridtolerance="10"
     guidetolerance="10"
     inkscape:pageopacity="0"
     inkscape:pageshadow="2"
     inkscape:window-width="1920"
     inkscape:window-height="1025"
     id="namedview11"
     showgrid="false"
     inkscape:zoom="6.0187444"
     inkscape:cx="18.447927"
     inkscape:cy="35.407254"
     inkscape:window-x="0"
     inkscape:window-y="27"
     inkscape:window-maximized="1"
     inkscape:current-layer="dn die"
     inkscape:snap-bbox="true"
     inkscape:snap-bbox-midpoints="true" />
  <metadata
     id="metadata15">
    <rdf:RDF>
      <cc:Work
         rdf:about="">
        <dc:format>image/svg+xml</dc:format>
        <dc:type
           rdf:resource="http://purl.org/dc/dcmitype/StillImage" />
        <dc:title />
      </cc:Work>
    </rdf:RDF>
  </metadata>
  <defs
     id="defs1">
    <linearGradient
       inkscape:collect="always"
       id="linearGradient831">
      <stop
         style="stop-color:#444444;stop-opacity:0.0;"
         offset="0"
         id="stop827" />
      <stop
         style="stop-color:#444444;stop-opacity:0.1;"
         offset="0.5"
         id="stop828" />
      <stop
         style="stop-color:#000000;stop-opacity:0.5;"
         offset="1"
         id="stop829" />
    </linearGradient>
    <filter
       id="app-filter-colorize"
       style="color-interpolation-filters:sRGB">
      <feColorMatrix
         id="recolorize-filter-matrix"
         type="matrix"
         values="0.9 0.0 0.0 0.0  0.0                  0.9 0.0 0.0 0.0  0.0                  0.9 0.0 0.0 0.0  0.0                  0.0 0.0 0.0 1.0  0.0" />
    </filter>
    <radialGradient
       inkscape:collect="always"
       xlink:href="#linearGradient831"
       id="radialGradient833"
       cx="52"
       cy="52"
       fx="52"
       fy="52"
       r="30"
       gradientTransform="matrix(1,0,0,0.89646717,0,4.335196)"
       gradientUnits="userSpaceOnUse" />
    <radialGradient
       inkscape:collect="always"
       xlink:href="#linearGradient831"
       id="radialGradient883"
       cx="-167.12856"
       cy="40.083916"
       fx="-167.12856"
       fy="40.083916"
       r="26.634365"
       gradientTransform="matrix(1,0,0,1.3508056,220,-14.061661)"
       gradientUnits="userSpaceOnUse" />
  </defs>
  <script
     type="text/javascript"
     src="js/dice_utils.js"
     id="script_dn_utils" />
  <script
     type="text/javascript"
     data-namespace="dn"
     id="script_dn"><![CDATA[
var dn = {

  roll_handler: function(evt) {
    if (this.isChanging) {
      return false
    }
    this.isChanging = true
    //var tspan = this.querySelector('tspan')
    var tspan = this.querySelector('#tspan_numeric_value')
    var origOpacity = this.style.opacity

    dieMax = this.querySelector('#tspan_num_faces').textContent
    dieMax = parseInt(dieMax.substring(1))
    var newNum = randDiceString(1,dieMax)

    animated_ghost(this, { animation: 'rollOut' })
    tspan.textContent = ' '
    this.style.opacity = 0.1
    animated_ghost(this, {
      animation: 'rollIn',
      before_begin: (ghost) => {
        ghost.querySelector('g').style.opacity = origOpacity
      },
      on_done: () => {
        tspan.textContent = newNum
        this.style.opacity = origOpacity
        this.isChanging = false
        net_fire({type: "change", data: serialize(this)});
        evt_fire('change', this, null, {})
      },
    })
  },

  turn_handler: function(evt) {
    //console.log('dn ', this, 'turn!!!!!!!!!!!!!!!!!!!!!!!!!!!!', evt.detail)
    if (this.isChanging) {
      return false
    }
    this.isChanging = true
    var tspan = this.querySelector('#tspan_numeric_value')
    var origOpacity = this.style.opacity
    var origNum = parseInt(tspan.textContent)

    dieMax = this.querySelector('#tspan_num_faces').textContent
    dieMax = parseInt(dieMax.substring(1))

    animated_ghost(this, {
      animation: 'thumb',
      on_done: () => {
        tspan.textContent = (origNum % dieMax) + 1
        this.style.opacity = origOpacity
        this.isChanging = false
        net_fire({type: "change", data: serialize(this)});
        evt_fire('change', this, null, {})
      },
    })
    tspan.textContent = " "
    this.style.opacity = 0.1
  },

  initialize: function(elem, serializedState) {
    console.log('hooking up handlers for ', elem, serializedState)
    elem.addEventListener('die_roll', this.roll_handler)
    elem.addEventListener('dblclick', this.roll_handler)
    elem.addEventListener('die_turn_up', this.turn_handler)
    recordTspan = elem.querySelector('#tspan_num_faces')
    recordTspan.textContent = 'd' + serializedState['numFaces']

    showTspan = elem.querySelector('#tspan_numeric_value')
    showTspan.textContent = serializedState['numFaces']
  },

  menu: {
    'Roll': {
      eventName: 'die_roll',
      applicable: (dieNode) => { return true },
    },
    'Turn Up': {
      eventName: 'die_turn_up',
      applicable: (dieNode) => { return true },
      uiLabel: (dieNode) => { 
        var dieMax = dieNode.querySelector('#tspan_num_faces').textContent
        dieMax = parseInt(dieMax.substring(1))

        var tspan = dieNode.querySelector('#tspan_numeric_value')
        var nextNum = (parseInt(tspan.textContent) % dieMax) + 1
        return 'Turn to ' + nextNum
        },
    },
  },

  serialize: function(elem) {
    numFaces = elem.querySelector('#tspan_num_faces').textContent
    value = elem.querySelector('#tspan_numeric_value').textContent
    return {
      numFaces: numFaces,
      dieValue: value,
    }
  },

  deserialize: function(elem, payload) {
    elem.querySelector('#tspan_numeric_value').textContent = payload.numFaces
    elem.querySelector('#tspan_num_faces').textContent = payload.dieValue
  },

}

    ]]></script>
  <path
     style="fill:#000000;fill-opacity:0.5;stroke:none"
     d="m 92.185547,80.28715 c 0.527098,-2.189479 -1.32411,-8.54974 -1.40625,-10.990234 l -75.8125,-4.1e-5 c -0.0863,2.460889 -1.93942,8.8403 -1.408203,11.046875 2.58465,8.106403 15.13346,17.69045 39.3125,17.69045 24.17904,0 34.145153,-9.288195 39.314453,-17.74705 z"
     id="path_shadow"
     inkscape:connector-curvature="0"
     sodipodi:nodetypes="cccczc" />
  <g
     id="group-monochrome-1"
     class="draggable"
     filter="url(#app-filter-colorize)">
    <path
       inkscape:connector-curvature="0"
       id="path840"
       d="m 43.51631,93.168476 -8.01454,-1.50831 -7.077,-4.362804 C 24.53242,84.897824 21.16211,82.7505 20.9352,82.525539 20.56362,82.157132 11.37169,70.088353 10.82088,69.245675 10.69525,69.053465 9.86044,65.85063 8.96574,62.128259 L 7.33903,55.360324 6.86651,47.869824 6.39399,40.379315 9.8907,32.251062 c 2.66164,-6.187077 3.60062,-8.238423 3.93175,-8.589566 0.23928,-0.253727 2.67678,-3.130338 5.41668,-6.392488 2.73989,-3.262151 5.10904,-6.06605 5.26475,-6.230913 0.16806,-0.177905 3.06617,-1.482747 7.13076,-3.210529 l 6.84762,-2.910801 6.722,-1.564936 c 3.6971,-0.860707 6.87895,-1.566019 7.07079,-1.567354 0.38687,-0.0028 15.72377,2.819837 16.45619,3.028516 0.42447,0.120934 13.87037,8.331581 14.63838,8.938814 0.29488,0.23314 9.67607,12.495267 10.31732,13.485732 0.20009,0.309055 3.24643,12.430239 3.45725,13.756162 0.0345,0.217474 0.27057,3.705575 0.52443,7.751341 l 0.46157,7.355915 -2.698,6.285783 c -1.4839,3.457179 -3.072,7.129506 -3.52909,8.160725 l -0.83109,1.874952 -5.4915,6.49687 c -3.02032,3.573277 -5.60038,6.591102 -5.73347,6.706286 -0.13308,0.115174 -3.35584,1.523304 -7.16168,3.12918 l -6.91969,2.919755 -6.56565,1.514641 c -3.6111,0.83304 -6.81393,1.50855 -7.11741,1.501128 -0.30347,-0.0075 -4.15831,-0.692241 -8.5663,-1.521799 z"
       style="fill:#f0f0f0;fill-opacity:1;stroke:#000000;stroke-width:1.30999994;stroke-linecap:round;stroke-linejoin:round;stroke-miterlimit:4;stroke-dasharray:none"
       sodipodi:nodetypes="scsccscccscccscscccccccsccscscsss" />
    <path
       style="fill:#c8c8c8;fill-opacity:1;stroke-width:0.13180384"
       d="m 52.26953,2.4414062 c 0.0944,-1.85e-4 0.0118,0.00195 -0.082,0.019531 -0.10492,0.01966 -0.25623,0.050473 -0.44531,0.089844 -0.37816,0.078742 -0.90772,0.1923046 -1.54688,0.3339844 -1.27831,0.2833596 -2.99518,0.6755655 -4.84179,1.1054688 l -4.35157,1.0117187 16.03516,0.1113281 4.83594,9.1289068 15.57031,10 -12.48438,3.4375 9.47071,13.054687 L 56.72073,40.9375 47.668,55.408203 28.96097,55.341793 21.50003,41.02148 l -10.9707,-0.226562 7.65234,-13.046875 0.5,-0.839844 c -0.0868,0.114138 -0.15426,0.195014 -0.17383,0.195313 -0.17383,0.0028 -4.09155,-2.342134 -4.40234,-2.634766 -0.004,-0.0039 -0.002,-0.0113 -0.006,-0.01563 -0.0388,0.06608 -0.03,0.04212 -0.0762,0.130859 -0.16693,0.320595 -0.39525,0.797232 -0.69727,1.457032 -0.60403,1.3196 -1.50383,3.376757 -2.83398,6.46875 l -3.43555,7.984375 0.46289,7.333984 0.46875,7.433594 1.61524,6.71289 c 0.4465,1.857682 0.87815,3.586854 1.21289,4.871094 0.16736,0.64212 0.31046,1.173763 0.41797,1.550781 0.0538,0.18851 0.0984,0.338893 0.13085,0.439454 0.013,0.04017 0.0213,0.0651 0.0293,0.08594 0.0907,0.135222 0.78114,1.073093 1.71094,2.308594 0.94383,1.254145 2.15529,2.852046 3.36133,4.435547 1.20604,1.583501 2.40681,3.152907 3.32812,4.347656 0.46066,0.597374 0.85085,1.100617 1.13672,1.464844 0.14294,0.182113 0.25925,0.330847 0.34375,0.435546 0.0845,0.104705 0.17559,0.200525 0.12109,0.146485 -0.0745,-0.07386 0.027,0.02019 0.14063,0.09961 0.11359,0.07942 0.27692,0.18886 0.47851,0.322266 0.40322,0.266811 0.96578,0.629335 1.64258,1.060547 1.35361,0.862422 3.16561,1.998981 5.10938,3.197265 l 6.97461,4.298828 7.89453,1.486329 c 2.20208,0.414418 4.26689,0.791142 5.8164,1.066406 0.77477,0.137632 1.42217,0.250655 1.89063,0.328125 0.23423,0.03874 0.42409,0.0678 0.56055,0.08789 0.13641,0.02004 0.26331,0.02904 0.19531,0.02734 -0.09,-0.0023 0.0162,-0.0022 0.12695,-0.01953 0.11242,-0.01762 0.27108,-0.04708 0.4668,-0.08398 0.39143,-0.07381 0.93009,-0.182917 1.57226,-0.31836 1.28437,-0.270885 2.98511,-0.646797 4.78711,-1.0625 l 6.50977,-1.501953 6.86914,-2.898437 c 1.90075,-0.802024 3.65485,-1.55359 4.94922,-2.119141 0.64718,-0.282776 1.17995,-0.518695 1.55469,-0.689453 0.18736,-0.08538 0.33614,-0.154785 0.43554,-0.203125 0.0306,-0.01488 0.0463,-0.02299 0.0664,-0.0332 0.0217,-0.02381 0.0454,-0.05071 0.0801,-0.08984 0.0862,-0.09714 0.20834,-0.237628 0.36133,-0.414063 0.30598,-0.352867 0.73489,-0.849956 1.2539,-1.457031 1.03803,-1.214148 2.43778,-2.862595 3.94727,-4.648437 l 5.43164,-6.425782 0.79297,-1.789062 c 0.4514,-1.018385 2.04199,-4.696327 3.52539,-8.152344 l 2.63672,-6.142578 -0.45118,-7.201172 c -0.12687,-2.02196 -0.2507,-3.903241 -0.3457,-5.30664 -0.0474,-0.7017 -0.0883,-1.284573 -0.11914,-1.703125 -0.0154,-0.209277 -0.0271,-0.377416 -0.0371,-0.498047 -0.01,-0.120631 -0.0236,-0.231171 -0.0156,-0.181641 -0.0386,-0.24273 -0.27426,-1.291021 -0.5918,-2.615234 -0.31754,-1.324214 -0.72486,-2.970488 -1.13086,-4.585938 -0.406,-1.615449 -0.81102,-3.200073 -1.12695,-4.396484 -0.15797,-0.598206 -0.29359,-1.100214 -0.39453,-1.457031 -0.0505,-0.178409 -0.0932,-0.320806 -0.12305,-0.416016 -0.0103,-0.03302 -0.0164,-0.05087 -0.0234,-0.07031 -0.11796,-0.17793 -0.82789,-1.146069 -1.78515,-2.416016 -0.97283,-1.290589 -2.21296,-2.921046 -3.44336,-4.529297 -1.2304,-1.608251 -2.45156,-3.192989 -3.38086,-4.388672 -0.46465,-0.597841 -0.85553,-1.099118 -1.13867,-1.455078 -0.14158,-0.17798 -0.2577,-0.320969 -0.3379,-0.417969 -0.0362,-0.04374 -0.0607,-0.07536 -0.0801,-0.09766 -0.0298,-0.02168 -0.3321,-0.227558 -0.75782,-0.5 -0.43815,-0.280405 -1.02661,-0.65043 -1.71289,-1.078125 C 79.09806,11.816485 77.33392,10.729229 75.57999,9.6582041 73.82615,8.5871779 72.08325,7.5327905 70.75391,6.7382812 70.08923,6.3410266 69.52799,6.0079045 69.12305,5.7734375 68.92057,5.656204 68.75659,5.562555 68.64258,5.5 68.59068,5.47153 68.55238,5.451283 68.52539,5.4375 68.51239,5.43517 68.17465,5.359068 67.70312,5.265625 67.2159,5.169071 66.55566,5.0413074 65.7832,4.8945312 64.23828,4.6009792 62.24196,4.2288005 60.25586,3.8632812 58.26976,3.497762 56.29261,3.1382115 54.79102,2.8710938 54.04022,2.7375348 53.40941,2.6275123 52.95508,2.5507812 c -0.22717,-0.038366 -0.4111,-0.068211 -0.53906,-0.087891 -0.064,-0.00984 -0.11459,-0.017324 -0.14649,-0.021484 z M 25.42578,11.283203 c -0.005,0.0025 -0.0164,0.0073 -0.0215,0.0098 -0.17429,0.08468 -0.31229,0.155265 -0.40039,0.203125 -0.0305,0.01651 -0.0439,0.02536 -0.0606,0.03516 -0.009,0.01163 -0.17946,0.205537 -0.44336,0.515625 -0.28593,0.335978 -0.68138,0.802867 -1.1582,1.367187 -0.95364,1.128644 -2.23198,2.644741 -3.60157,4.275391 -1.37049,1.631719 -2.66385,3.168472 -3.64648,4.328125 -0.88737,1.047234 -1.36537,1.606959 -1.62109,1.890625 0.73371,-0.633712 9.40016,-7.266545 11.03711,-8.453125 l 2.10351,-1.351562 -0.60156,-0.71875 c -0.16156,-0.11257 -0.45161,-0.450726 -0.83399,-0.976563 -0.41504,-0.570759 -0.70484,-1.011142 -0.75195,-1.125 z"
       id="path3598"
       inkscape:connector-curvature="0" />
    <path
       style="fill:#bebebe;fill-opacity:1;stroke-width:0.13180384"
       d="m 52.92578,2.546875 4.01953,2.6328125 17.14258,5.7910155 4.19922,13.214844 -3.13477,16.775391 -8.96679,15.103515 -18.49414,-0.623047 -8.38672,13.146485 -10.18555,-13.013672 -13.98047,0.564453 -4.73437,-15.1875 -3.33203,-0.492188 -0.0156,0.03516 0.46289,7.333984 0.46875,7.433594 1.61524,6.71289 c 0.4465,1.857682 0.87815,3.586854 1.21289,4.871094 0.16736,0.64212 0.31046,1.173763 0.41797,1.550781 0.0538,0.18851 0.0984,0.338893 0.13085,0.439454 0.013,0.04017 0.0213,0.0651 0.0293,0.08594 0.0907,0.135222 0.78114,1.073093 1.71094,2.308594 0.94383,1.254145 2.15529,2.852046 3.36133,4.435547 1.20604,1.583501 2.40681,3.152907 3.32812,4.347656 0.46066,0.597374 0.85085,1.100617 1.13672,1.464844 0.14294,0.182113 0.25925,0.330847 0.34375,0.435546 0.0845,0.104705 0.17559,0.200525 0.12109,0.146485 -0.0745,-0.07386 0.027,0.02019 0.14063,0.09961 0.11359,0.07942 0.27692,0.18886 0.47851,0.322266 0.40322,0.266811 0.96578,0.629335 1.64258,1.060547 1.35361,0.862422 3.16561,1.998981 5.10938,3.197265 l 6.97461,4.298828 7.89453,1.486329 c 2.20208,0.414418 4.26689,0.791142 5.8164,1.066406 0.77477,0.137632 1.42217,0.250655 1.89063,0.328125 0.23423,0.03874 0.42409,0.0678 0.56055,0.08789 0.13641,0.02004 0.26331,0.02904 0.19531,0.02734 -0.09,-0.0023 0.0162,-0.0022 0.12695,-0.01953 0.11242,-0.01762 0.27108,-0.04708 0.4668,-0.08398 0.39143,-0.07381 0.93009,-0.182917 1.57226,-0.31836 1.28437,-0.270885 2.98511,-0.646797 4.78711,-1.0625 l 6.50977,-1.501953 6.86914,-2.898437 c 1.90075,-0.802024 3.65485,-1.55359 4.94922,-2.119141 0.64718,-0.282776 1.17995,-0.518695 1.55469,-0.689453 0.18736,-0.08538 0.33614,-0.154785 0.43554,-0.203125 0.0306,-0.01488 0.0463,-0.02299 0.0664,-0.0332 0.0217,-0.02381 0.0454,-0.05071 0.0801,-0.08984 0.0862,-0.09714 0.20834,-0.237628 0.36133,-0.414063 0.30598,-0.352867 0.73489,-0.849956 1.2539,-1.457031 1.03803,-1.214148 2.43778,-2.862595 3.94727,-4.648437 l 5.43164,-6.425782 0.79297,-1.789062 c 0.4514,-1.018385 2.04199,-4.696327 3.52539,-8.152344 l 2.63672,-6.142578 -0.45118,-7.201172 c -0.12687,-2.02196 -0.2507,-3.903241 -0.3457,-5.30664 -0.0474,-0.7017 -0.0883,-1.284573 -0.11914,-1.703125 -0.0154,-0.209277 -0.0271,-0.377416 -0.0371,-0.498047 -0.01,-0.120631 -0.0236,-0.231171 -0.0156,-0.181641 -0.0386,-0.24273 -0.27426,-1.291021 -0.5918,-2.615234 -0.31754,-1.324214 -0.72486,-2.970488 -1.13086,-4.585938 -0.406,-1.615449 -0.81102,-3.200073 -1.12695,-4.396484 -0.15797,-0.598206 -0.29359,-1.100214 -0.39453,-1.457031 -0.0505,-0.178409 -0.0932,-0.320806 -0.12305,-0.416016 -0.0103,-0.03302 -0.0164,-0.05087 -0.0234,-0.07031 -0.11796,-0.17793 -0.82789,-1.146069 -1.78515,-2.416016 -0.97283,-1.290589 -2.21296,-2.921046 -3.44336,-4.529297 -1.2304,-1.608251 -2.45156,-3.192989 -3.38086,-4.388672 -0.46465,-0.597841 -0.85553,-1.099118 -1.13867,-1.455078 -0.14158,-0.17798 -0.2577,-0.320969 -0.3379,-0.417969 -0.0362,-0.04374 -0.0607,-0.07536 -0.0801,-0.09766 -0.0298,-0.02168 -0.3321,-0.227558 -0.75782,-0.5 -0.43815,-0.280405 -1.02661,-0.65043 -1.71289,-1.078125 C 79.09823,11.816497 77.33409,10.729241 75.58016,9.6582161 73.82615,8.5871779 72.08325,7.5327905 70.75391,6.7382812 70.08923,6.3410266 69.52799,6.0079045 69.12305,5.7734375 68.92057,5.656204 68.75659,5.562555 68.64258,5.5 68.59068,5.47153 68.55238,5.451283 68.52539,5.4375 68.51239,5.43517 68.17465,5.359068 67.70312,5.265625 67.2159,5.169071 66.55566,5.0413074 65.7832,4.8945312 64.23828,4.6009792 62.24196,4.2288005 60.25586,3.8632812 58.26976,3.497762 56.29261,3.1382115 54.79102,2.8710938 54.04022,2.7375348 53.40941,2.6275123 52.95508,2.5507812 c -0.0123,-0.00208 -0.0173,-0.00188 -0.0293,-0.00391 z"
       id="path3607"
       inkscape:connector-curvature="0" />
    <path
       style="fill:#969696;fill-opacity:1;stroke-width:0.13180384"
       d="m 68.91775,5.2889059 c -0.015,-0.00373 -0.0248,-0.00373 -0.0289,5.228e-4 -0.0317,0.031744 0.99114,1.1726281 2.2731,2.5354207 1.28195,1.362802 2.41174,2.6715926 2.5107,2.9084396 0.0247,0.0591 0.052,0.115678 0.0803,0.167075 0,0 2.8e-4,2.62e-4 2.8e-4,2.62e-4 l 0.28934,0.273641 c 0.0449,0.01699 0.0925,0.06153 0.14596,0.138245 l 1.10876,1.049023 c 1.95747,1.719426 12.17581,11.352114 12.24952,11.573257 9.3e-4,0.0037 -0.003,0.0065 -0.008,0.0098 l 0.0249,0.02343 -0.16835,0.0028 c -0.70035,0.08627 -3.89974,0.128432 -6.25503,0.110954 l -2.99339,0.05303 c 0.004,0.02829 0.007,0.05592 0.0116,0.08337 l 4.86696,7.483479 c 0.50225,0.770433 0.98758,1.516573 1.48407,2.281853 l 3.99686,6.145605 -0.0744,0.0047 c -5e-5,1.31e-4 9.4e-4,0.0019 9.4e-4,0.0028 -0.0433,0.04332 -2.17517,0.174152 -4.77069,0.294499 l -8.67639,0.539571 7.03708,14.185396 -1.47533,0.08235 c -0.54213,0.03016 -2.19503,0.09774 -4.05837,0.170418 L 66.14628,55.881233 55.88435,72.085903 39.43231,68.76738 25.85187,71.991941 25.09401,70.853578 c -0.48975,-0.718541 -1.34128,-2.000975 -2.3143,-3.47658 L 15.26038,56.081257 7.51356,55.313858 c 0.0973,0.701932 0.31063,1.632046 0.76637,3.488941 0.46374,1.889508 1.21148,4.964295 1.66171,6.832692 l 0.81862,3.397034 5.11075,6.751867 5.11075,6.751857 4.79333,2.956064 c 2.63634,1.625884 5.88071,3.633311 7.20983,4.460986 l 2.41674,1.50494 7.40265,1.381101 c 4.07154,0.7596 7.78841,1.459898 8.25961,1.556166 v -2.71e-4 c 0.47121,0.09627 0.97535,0.155835 1.12034,0.132326 0.14499,-0.02353 3.16989,-0.704574 6.722,-1.513424 l 6.45838,-1.470694 7.08703,-2.98412 7.0873,-2.984121 5.49997,-6.507821 c 6.12743,-7.250096 5.82805,-6.878712 6.13352,-7.60292 0.1223,-0.289962 1.65142,-3.848665 3.39806,-7.908231 l 3.17566,-7.381021 -0.4155,-6.787895 C 97.10217,45.653963 96.8672,42.154583 96.80862,41.610886 96.67041,40.32833 93.71644,28.100776 93.40978,27.541859 93.10182,26.9806 83.65135,14.498917 83.22407,14.089113 83.04284,13.915296 82.65731,13.653232 82.36735,13.506809 81.8562,13.248694 71.49571,6.8821977 69.79166,5.7790326 69.38493,5.5157265 69.02307,5.3141342 68.91768,5.2891406 Z"
       id="path834"
       inkscape:connector-curvature="0" />
    <path
       style="fill:#828282;fill-opacity:1;stroke-width:0.13180384"
       d="m 7.60266,55.365618 c -0.0214,9.34e-4 -0.034,0.01288 -0.034,0.03679 0,0.06395 0.40952,1.7765 0.91002,3.805578 0.50049,2.029078 1.24498,5.083053 1.6545,6.786616 l 0.74448,3.097381 4.68007,6.19479 c 2.574,3.407126 4.8763,6.433933 5.11615,6.726368 0.17613,0.214748 0.85062,0.69845 2.25946,1.608677 V 72.106479 l -2.21337,-0.04892 H 16.13025 L 7.96408,55.86216 c 0,-0.136358 -0.089,-0.32164 -0.19771,-0.411886 -0.068,-0.05639 -0.12811,-0.08608 -0.16372,-0.08468 z"
       id="path832"
       inkscape:connector-curvature="0" />
    <path
       inkscape:connector-curvature="0"
       id="path830"
       d="M 51.5797,94.408734 C 51.5493,94.378294 48.29202,93.753616 44.34148,93.020671 40.39094,92.287723 36.77315,91.613512 36.30195,91.522425 35.5258,91.372398 34.81301,90.966039 28.72323,87.201869 25.02614,84.916637 21.78689,82.917249 21.5249,82.758791 21.1982,82.561176 19.88578,80.928205 17.34714,77.560647 15.31136,74.860139 13.05121,71.879576 12.32456,70.937175 11.59792,69.994783 11.00164,69.12234 10.99951,68.998418 l 5.00867,3.153492 4.74958,0.03744 c 3.01828,0.02371 4.57896,-0.04762 4.7614,-0.145247 0.21889,-0.117145 0.33835,-0.09252 0.6174,0.127134 0.19031,0.149812 3.80887,2.418258 8.04125,5.040983 5.94968,3.686902 7.80763,4.778117 8.1907,4.810598 0.47012,0.03987 0.8046,-0.19388 6.53958,-4.570072 3.32426,-2.536644 6.23284,-4.792663 6.46351,-5.013385 l 0.4194,-0.401308 8.03311,0.01438 c 7.1098,0.01279 8.04204,-0.0093 8.11076,-0.187961 0.0427,-0.1113 0.15365,-0.204478 0.24655,-0.207064 0.18067,-0.0047 9.72799,-15.38776 9.88264,-15.92299 0.0506,-0.175244 0.20798,-0.44433 0.34967,-0.597961 0.14169,-0.15364 1.62018,-3.424259 3.28553,-7.268068 2.87888,-6.64475 3.03228,-7.040475 3.11672,-8.040043 0.0488,-0.578215 -0.0338,-4.164115 -0.18358,-7.968665 L 88.36002,24.942326 87.9583,23.900595 c -0.22096,-0.572949 -1.32003,-2.877564 -2.44239,-5.121361 -1.12235,-2.243807 -1.97942,-4.041799 -1.90458,-3.995555 0.0748,0.04621 0.41867,0.481256 0.7641,0.966694 1.05691,1.485296 8.08256,10.737394 8.54711,11.255716 0.23997,0.267741 0.49587,0.712575 0.56868,0.988532 0.0728,0.275948 0.72799,2.96317 1.45595,5.971593 0.72796,3.008423 1.41454,5.796077 1.52572,6.19478 0.19811,0.710409 0.27361,1.695795 0.86848,11.335131 l 0.28875,4.679038 -3.05063,7.081704 c -1.67784,3.894937 -3.20794,7.474666 -3.40022,7.954951 -0.26034,0.650338 -0.67264,1.248673 -1.61514,2.343921 -0.69606,0.808871 -3.24789,3.822579 -5.67074,6.697136 l -4.40518,5.226461 -7.04598,2.983196 c -5.50502,2.330785 -7.30885,3.037777 -8.24798,3.232759 -0.66111,0.137265 -3.6532,0.816416 -6.64907,1.509226 -5.19774,1.202016 -5.83837,1.331335 -5.96548,1.204238 z"
       style="fill:#646464;fill-opacity:1;stroke-width:0.13180384"
       sodipodi:nodetypes="cccscssccscsscssccccccscccscccccssscscsscsccc" />
    <path
       inkscape:connector-curvature="0"
       id="path828"
       d="M 51.31498,94.275802 C 51.25668,94.217542 41.64059,92.4047 37.72251,91.713309 L 35.51846,91.324381 33.9661,90.34287 C 31.6892,88.903247 23.55613,83.884251 22.25101,83.113379 21.43997,82.634336 20.98573,82.260066 20.61798,81.767906 18.31763,78.689188 13.3553,72.100084 12.41883,70.880876 c -0.63626,-0.828384 -1.1353,-1.527683 -1.10898,-1.554002 0.0263,-0.02633 0.90054,0.497641 1.94271,1.164365 1.04218,0.666724 2.0135,1.239916 2.15848,1.273751 0.14499,0.0338 0.94569,0.728895 1.77935,1.544564 3.48344,3.408265 12.1619,11.532923 12.31904,11.532923 0.0935,0 0.24389,0.08898 0.33414,0.197709 0.0903,0.108741 0.29856,0.197708 0.46292,0.197708 0.43239,0 11.12482,-2.59748 11.60974,-2.820322 0.3459,-0.158953 0.53656,-0.161072 1.25214,-0.01391 2.17156,0.446515 16.99495,2.873334 17.07313,2.795141 l 0.47822,-0.290391 c 0.16674,0 9.91091,-11.121532 10.94113,-12.487686 0.26654,-0.353449 0.49759,-0.506511 0.85672,-0.567496 1.1026,-0.187233 12.62333,-2.977781 12.72869,-3.083134 0.10433,-0.104334 -2.49271,-11.619659 -2.84927,-12.633717 -0.30287,-0.86137 -0.50416,-0.832147 5.66149,-0.821849 3.0576,0.0047 5.58428,-0.03641 5.61484,-0.09224 0.0305,-0.05583 -1.00478,-3.274708 -2.30077,-7.153034 -1.29598,-3.878337 -2.39191,-7.253523 -2.4354,-7.500434 -0.0706,-0.400627 -0.0525,-0.438243 0.16838,-0.349687 l 7.49559,0.676014 0.48263,7.574126 0.48264,7.574117 -2.94302,6.853802 c -1.61866,3.769585 -3.15284,7.378238 -3.40929,8.019231 -0.3478,0.869306 -0.66023,1.384649 -1.22957,2.028172 -0.41983,0.474506 -2.96694,3.472416 -5.66027,6.662013 l -4.89697,5.79928 -2.48405,1.048257 c -1.36623,0.576534 -4.50065,1.909908 -6.96538,2.963029 -3.91009,1.67069 -4.69975,1.962099 -6.19478,2.286017 -0.94241,0.204188 -3.9052,0.879296 -6.58401,1.500234 -4.3542,1.009294 -5.70162,1.25488 -5.88407,1.072427 z"
       style="fill:#5a5a5a;fill-opacity:1;stroke-width:0.13180384"
       sodipodi:nodetypes="cccccccsccssssccccscccccscccccsccscsscsc" />
    <path
       style="fill:#ffffff;fill-opacity:1;stroke-width:0.13180384"
       d="m 42.71875,11.576172 c -0.0272,-0.02717 -14.15277,2.513316 -14.8125,2.664062 -0.27995,0.06395 -0.17358,0.314398 2.01367,4.6875 1.27094,2.541069 2.3723,4.599204 2.44727,4.574219 0.075,-0.02502 2.44261,-2.711549 5.25976,-5.970703 2.81716,-3.259162 5.10796,-5.938926 5.0918,-5.955078 z m 1.80859,0 c -0.0482,0.04818 3.14989,9.544852 3.97266,11.796875 0.0386,0.105707 0.13237,0.129654 0.24414,0.06445 0.10005,-0.05835 2.85866,-2.150869 6.12891,-4.650391 l 5.94531,-4.544921 -8.11133,-1.367188 c -4.46162,-0.751919 -8.14279,-1.335735 -8.17969,-1.298828 z m -0.87695,0.140625 c -0.0192,-0.01923 -2.41912,2.721191 -5.33398,6.087891 l -5.30079,6.121093 h 7.44336 7.44141 L 47.75977,23.5625 c -0.0769,-0.199352 -1.02561,-2.93785 -2.10743,-6.085938 -1.08183,-3.148085 -1.98269,-5.740504 -2.00195,-5.759765 z M 27.01562,14.96875 23.6543,20.460938 c -1.84855,3.019711 -3.49096,5.705098 -3.65039,5.96875 l -0.29102,0.478515 5.86133,-1.404297 c 3.22315,-0.773206 5.88262,-1.429714 5.91016,-1.458984 0.0275,-0.02932 -0.96627,-2.083576 -2.20899,-4.564453 z m 13.14454,9.779297 -7.39063,0.0332 2.7207,7.349609 c 1.49642,4.041434 2.75258,7.345898 2.79102,7.34375 0.0385,-0.0019 2.16373,-3.302361 4.72266,-7.332031 2.55892,-4.029661 4.62795,-7.348599 4.59961,-7.376953 -0.0284,-0.02838 -3.37792,-0.03635 -7.44336,-0.01758 z m -8.91797,0.271484 c -0.036,-0.05508 -11.74713,2.769874 -11.84571,2.857422 -0.0578,0.05135 0.49247,2.668112 1.22266,5.814453 1.43371,6.177806 1.4206,6.126273 1.53906,6.007813 0.044,-0.04397 2.11116,-3.359375 4.5918,-7.367188 2.48063,-4.007805 4.50137,-7.298477 4.49219,-7.3125 z m 0.95312,0.34375 c -0.025,-0.07516 -1.99819,3.025845 -4.38476,6.890625 -2.38657,3.86477 -4.54184,7.343643 -4.78907,7.732422 l -0.44921,0.707031 1.03515,-0.07813 c 0.5693,-0.04332 3.73481,-0.171765 7.0332,-0.285156 3.29839,-0.113391 6.21045,-0.247944 6.47266,-0.298828 l 0.47656,-0.0918 -2.67382,-7.220703 C 33.445,28.747938 32.22038,25.438487 32.19531,25.363273 Z"
       id="path889"
       inkscape:connector-curvature="0" />
  </g>
  <!-- ================================================= -->
  <text
     xml:space="preserve"
     style="fill:#ffffff;fill-opacity:0.3;stroke:none"
     x="52.0"
     y="94.0"
     id="text_num_faces"><tspan
       id="tspan_num_faces"
       x="52.0"
       y="94.0"
       style="text-align:center;text-anchor:middle">d100</tspan></text>
  <text
     xml:space="preserve"
     style="font-style:normal;font-weight:normal;font-size:34px;line-height:1.25;font-family:sans-serif;letter-spacing:0px;word-spacing:0px;fill:#000000;fill-opacity:1;stroke:none"
     x="57.0"
     y="59.0"
     id="text_numeric_value"><tspan
       sodipodi:role="line"
       id="tspan_numeric_value"
       x="57.0"
       y="59.0"
       dx="-4.4 -3.8"
       style="font-size:34px;text-align:center;text-anchor:middle">100</tspan></text>
</svg>
