<?xml version="1.0" encoding="UTF-8" standalone="no"?>
<svg
   xmlns:dc="http://purl.org/dc/elements/1.1/"
   xmlns:cc="http://creativecommons.org/ns#"
   xmlns:rdf="http://www.w3.org/1999/02/22-rdf-syntax-ns#"
   xmlns:svg="http://www.w3.org/2000/svg"
   xmlns="http://www.w3.org/2000/svg"
   xmlns:xlink="http://www.w3.org/1999/xlink"
   xmlns:sodipodi="http://sodipodi.sourceforge.net/DTD/sodipodi-0.dtd"
   xmlns:inkscape="http://www.inkscape.org/namespaces/inkscape"
   id="sw_d61 die"
   height="100"
   width="80"
   version="1.1"
   inkscape:version="0.92.3 (2405546, 2018-03-11)"
   sodipodi:docname="dice_sw_d61.svg">
  <metadata
     id="metadata29">
    <rdf:RDF>
      <cc:Work
         rdf:about="">
        <dc:format>image/svg+xml</dc:format>
        <dc:type
           rdf:resource="http://purl.org/dc/dcmitype/StillImage" />
      </cc:Work>
    </rdf:RDF>
  </metadata>
  <sodipodi:namedview
     pagecolor="#ffffff"
     bordercolor="#666666"
     borderopacity="1"
     objecttolerance="10"
     gridtolerance="10"
     guidetolerance="10"
     inkscape:pageopacity="0"
     inkscape:pageshadow="2"
     inkscape:window-width="1920"
     inkscape:window-height="1025"
     id="namedview11"
     showgrid="false"
     inkscape:zoom="5.0627413"
     inkscape:cx="46.45467"
     inkscape:cy="43.568492"
     inkscape:window-x="0"
     inkscape:window-y="27"
     inkscape:window-maximized="1"
     inkscape:current-layer="sw_d61 die"
     showguides="true"
     inkscape:guide-bbox="true"
     inkscape:snap-bbox="true"
     inkscape:snap-bbox-midpoints="true"
     inkscape:snap-center="true"
     inkscape:snap-nodes="false"
     inkscape:bbox-nodes="false"
     inkscape:object-nodes="false" />
  <defs
     id="defs1">
    <filter
       id="app-filter-colorize"
       color-interpolation-filters="sRGB">
      <feColorMatrix
         id="recolorize-filter-matrix"
         type="matrix"
         values="0.9 0.0 0.0 0.0  0.0                  0.9 0.0 0.0 0.0  0.0                  0.9 0.0 0.0 0.0  0.0                  0.0 0.0 0.0 1.0  0.0" />
    </filter>
    <linearGradient
       inkscape:collect="always"
       id="linearGradient1476">
      <stop
         style="stop-color:#000000;stop-opacity:1;"
         offset="0"
         id="stop1472" />
      <stop
         style="stop-color:#000000;stop-opacity:0.39"
         offset="1"
         id="stop1474" />
    </linearGradient>
    <linearGradient
       inkscape:collect="always"
       xlink:href="#linearGradient1476"
       id="linearGradient1478"
       x1="-43.30563"
       y1="21.421244"
       x2="-43.30563"
       y2="87.722519"
       gradientUnits="userSpaceOnUse"
       gradientTransform="translate(82.856366,1.2798899)" />
  </defs>
  <script
     type="text/javascript"
     data-namespace="sw_d61"
     id="script6158"><![CDATA[
var sw_d61 = {

  roll_handler: function(evt) {
    if (this.isChanging) {
      return false
    }
    this.isChanging = true
    var origOpacity = this.style.opacity
    ui.animated_ghost(this, { animation: 'rollOut' })
    this.faces.forEach((name) => {
      if (name === null) {
        return
      }
      gEl = this.getElementById(name)
      gEl.style.setProperty('display', 'none')
    })
    this.style.opacity = 0.1
    ui.animated_ghost(this, {
      animation: 'rollIn',
      before_begin: (ghost) => {
        ghost.querySelector('g').style.opacity = origOpacity
      },
      on_done: () => {
        activeFace = this.faces[randInt(1,6) - 1]
        if (activeFace !== null) {
           gEl = this.getElementById(activeFace)
           gEl.style.setProperty('display', '')
        }
        this.style.opacity = origOpacity
        this.isChanging = false
        net_fire({type: "change", data: serialize(this)});
      },
    })
  },

  initialize: function(elem) {
    elem.faces = [
      'g_oct', 'g_oct', 'g_tri', 'g_tri', null, null,
    ]

    elem.addEventListener('die_roll', this.roll_handler)
    elem.addEventListener('dblclick', this.roll_handler)
  },

  menu: {
    'Roll': {
      eventName: 'die_roll',
      applicable: (dieNode) => { return true },
    },
  },

  serialize: function(elem) {
    value = elem.querySelector('tspan').textContent
    return {dieValue: value}
  },

  deserialize: function(elem, payload) {
    elem.querySelector('tspan').textContent = payload.dieValue
  },

}

    ]]></script>
  <g
     id="group-monochrome-1"
     class="draggable"
     filter="url(#app-filter-colorize)">
    <g id="g_die">
      <path
         style="fill:#000000;fill-opacity:0.50196078;stroke:none;stroke-width:1.30999994;stroke-linecap:round;stroke-linejoin:round;stroke-miterlimit:4;stroke-dasharray:none;stroke-opacity:1"
         d="m 16.266526,45.579474 c -1.68432,-0.0012 -5.18571,0.06788 -6.23438,0.637907 -1.5957502,0.90302 -1.7272502,1.615566 -1.9062502,5.013899 l -2.88281,32.27422 c 0.0306,1.384198 6.4061402,6.270484 8.3222602,6.270484 h 51.97266 c 1.91612,0 8.29167,-4.886286 8.32227,-6.270484 l -2.88282,-32.27422 c -0.179,-3.398333 -0.3105,-4.110879 -1.90625,-5.013899 -1.04867,-0.570031 -4.55005,-0.639123 -6.23437,-0.637907 z"
         id="path_shadow"
         inkscape:connector-curvature="0"
         sodipodi:nodetypes="ccccccccccc" />
      <path
         sodipodi:nodetypes="ccccccccccc"
         inkscape:connector-curvature="0"
         id="path_sides"
         d="m 16.266526,11.455671 c -1.68432,-0.0021 -5.18571,0.117211 -6.23438,1.101563 -1.5957502,1.559372 -1.7272502,2.789824 -1.9062502,8.658203 l -2.88281,55.732422 c 0.0306,2.390289 6.4061402,10.828125 8.3222602,10.828125 h 51.97266 c 1.91612,0 8.29167,-8.437836 8.32227,-10.828125 l -2.88282,-55.732422 c -0.179,-5.868379 -0.3105,-7.098831 -1.90625,-8.658203 -1.04867,-0.984352 -4.55005,-1.103663 -6.23437,-1.101563 z"
         style="fill:#9b9b9b;fill-opacity:1;stroke:#000000;stroke-width:1.30999994;stroke-linecap:round;stroke-linejoin:round;stroke-miterlimit:4;stroke-dasharray:none;stroke-opacity:1" />
      <path
         style="fill:#dedede;fill-opacity:1;stroke:url(#linearGradient1478);stroke-width:1.31000006;stroke-linecap:round;stroke-linejoin:round;stroke-miterlimit:4;stroke-dasharray:none;stroke-opacity:1"
         d="m 12.007916,11.667299 h 55.08564 c 1.662,0 2.94377,1.338951 3,3 l 2,59.08564 c 0.0562,1.661049 -1.338,3 -3,3 h -59.08564 c -1.6620002,0 -3.0562302,-1.338951 -3.0000002,-3 l 2,-59.08564 c 0.0562,-1.661049 1.3380002,-3 3.0000002,-3 z"
         id="topface"
         inkscape:connector-curvature="0"
         sodipodi:nodetypes="sssssssss" />
    </g>
    <g
       id="g_octoct"
       style="display: none"
       inkscape:label="#g53">
      <path
         style="fill:#000000;fill-opacity:1;stroke:none;stroke-width:1.85184896;stroke-linecap:round;stroke-linejoin:round;stroke-miterlimit:4;stroke-dasharray:none;stroke-opacity:0.64705882"
         id="path849"
         d="m 30.309301,29.798027 5.40665,-5.417264 7.65367,-0.0075 5.41726,5.406653 0.007,7.653665 -5.40665,5.417263 -7.65366,0.0075 -5.41727,-5.406653 z"
         inkscape:connector-curvature="0" />
      <path
         d="m 32.995731,30.907699 3.83516,-3.842687 5.42905,-0.0053 3.84269,3.835159 0.005,5.429057 -3.83515,3.842686 -5.42906,0.0053 -3.84269,-3.83516 z"
         id="path851"
         style="fill:none;fill-opacity:0.37433172;stroke:#ffffff;stroke-width:1.85184908;stroke-linecap:round;stroke-linejoin:round;stroke-miterlimit:4;stroke-dasharray:none;stroke-opacity:1"
         inkscape:connector-curvature="0" />
      <path
         d="m 30.309301,49.798026 5.40665,-5.417263 7.65367,-0.0075 5.41726,5.406653 0.008,7.653665 -5.40666,5.417264 -7.65366,0.0075 -5.41727,-5.406652 z"
         id="path855"
         style="fill:#000000;fill-opacity:1;stroke:none;stroke-width:1.85184896;stroke-linecap:round;stroke-linejoin:round;stroke-miterlimit:4;stroke-dasharray:none;stroke-opacity:0.64705882"
         inkscape:connector-curvature="0" />
      <path
         style="fill:none;fill-opacity:0.37433172;stroke:#ffffff;stroke-width:1.85184908;stroke-linecap:round;stroke-linejoin:round;stroke-miterlimit:4;stroke-dasharray:none;stroke-opacity:1"
         id="path857"
         d="m 32.995731,50.907698 3.83516,-3.842686 5.42906,-0.0053 3.84268,3.83516 0.005,5.429057 -3.83516,3.842686 -5.42906,0.0053 -3.84269,-3.835159 z"
         inkscape:connector-curvature="0" />
    </g>
    <g
       id="g_oct"
       style="display: none"
       inkscape:label="#g60">
      <path
         d="M 53.982421,58.641801 39.550739,64.6196 25.11906,58.641801 l -5.9778,-14.431682 5.9778,-14.431682 14.431678,-5.977799 14.431683,5.977799 5.977799,14.431682 z"
         id="path827"
         style="fill:#000000;fill-opacity:1;stroke:none;stroke-width:3.77952766;stroke-linecap:round;stroke-linejoin:round;stroke-miterlimit:4;stroke-dasharray:none;stroke-opacity:0.64705882"
         inkscape:connector-curvature="0" />
      <path
         style="fill:none;fill-opacity:0.37433172;stroke:#ffffff;stroke-width:3.7795279;stroke-linecap:round;stroke-linejoin:round;stroke-miterlimit:4;stroke-dasharray:none;stroke-opacity:1"
         id="path829"
         d="M 49.78772,54.4471 39.550739,58.687397 29.313757,54.4471 25.07346,44.210119 29.313757,33.973138 39.550738,29.732841 49.78772,33.973138 54.028016,44.210119 Z"
         inkscape:connector-curvature="0" />
    </g>
    <g
       id="g_trioct"
       style="display: none"
       inkscape:label="#g39">
      <path
         inkscape:connector-curvature="0"
         id="path884"
         d="m 39.54753,26.063078 a 37.923729,21.504238 60 0 0 3.37891,6.701171 37.923729,21.504238 60 0 0 5.75976,8.404297 37.923729,21.504238 0 0 0 -9.13672,-0.662109 37.923729,21.504238 0 0 0 -9.13281,0.65625 21.504238,37.923729 30 0 0 5.75586,-8.398438 21.504238,37.923729 30 0 0 3.375,-6.701171 z"
         style="fill:#000000;fill-opacity:1;stroke:none;stroke-width:3.77952766;stroke-linecap:round;stroke-linejoin:round;stroke-miterlimit:4;stroke-dasharray:none;stroke-opacity:1" />
      <path
         style="fill:#000000;fill-opacity:1;stroke:none;stroke-width:1.85184896;stroke-linecap:round;stroke-linejoin:round;stroke-miterlimit:4;stroke-dasharray:none;stroke-opacity:0.64705882"
         id="path849-3"
         d="m 30.308891,49.798036 5.406652,-5.417263 7.653667,-0.0075 5.41726,5.406653 0.008,7.653665 -5.40666,5.417264 -7.653662,0.0075 -5.417264,-5.406652 z"
         inkscape:connector-curvature="0" />
      <path
         d="m 32.99573,50.907699 3.83516,-3.842686 5.42906,-0.0053 3.84268,3.83516 0.005,5.429057 -3.83516,3.842686 -5.42906,0.0053 -3.842687,-3.835159 z"
         id="path851-5"
         style="fill:none;fill-opacity:0.37433172;stroke:#ffffff;stroke-width:1.85184908;stroke-linecap:round;stroke-linejoin:round;stroke-miterlimit:4;stroke-dasharray:none;stroke-opacity:1"
         inkscape:connector-curvature="0" />
    </g>
    <g
       id="g_tritri"
       style="display: none"
       inkscape:label="#g43">
      <path
         style="fill:#000000;fill-opacity:1;stroke:none;stroke-width:3.77952766;stroke-linecap:round;stroke-linejoin:round;stroke-miterlimit:4;stroke-dasharray:none;stroke-opacity:1"
         d="m 39.54753,26.063078 a 37.923729,21.504238 60 0 0 3.37891,6.701171 37.923729,21.504238 60 0 0 5.75976,8.404297 37.923729,21.504238 0 0 0 -9.13672,-0.662109 37.923729,21.504238 0 0 0 -9.13281,0.65625 21.504238,37.923729 30 0 0 5.75586,-8.398438 21.504238,37.923729 30 0 0 3.375,-6.701171 z"
         id="path913"
         inkscape:connector-curvature="0" />
      <path
         inkscape:connector-curvature="0"
         id="path915"
         d="m 39.54753,46.063078 a 37.923729,21.504238 60 0 0 3.37891,6.701171 37.923729,21.504238 60 0 0 5.75976,8.404297 37.923729,21.504238 0 0 0 -9.13672,-0.662109 37.923729,21.504238 0 0 0 -9.13281,0.65625 21.504238,37.923729 30 0 0 5.75586,-8.398438 21.504238,37.923729 30 0 0 3.375,-6.701171 z"
         style="fill:#000000;fill-opacity:1;stroke:none;stroke-width:3.77952766;stroke-linecap:round;stroke-linejoin:round;stroke-miterlimit:4;stroke-dasharray:none;stroke-opacity:1" />
    </g>
    <path
       inkscape:connector-curvature="0"
       id="g_tri"
       d="M 39.54158,24.500426 A 88.923768,50.423256 60 0 0 47.46447,40.213369 88.923768,50.423256 60 0 0 60.96999,59.919811 88.923768,50.423256 0 0 0 39.54615,58.367295 88.923768,50.423256 0 0 0 18.13149,59.906073 50.423256,88.923768 30 0 0 31.62786,40.213369 50.423256,88.923768 30 0 0 39.54158,24.500426 Z"
       style="fill:#000000;fill-opacity:1;stroke:none;stroke-width:8.862257;stroke-linecap:round;stroke-linejoin:round;stroke-miterlimit:4;stroke-dasharray:none;stroke-opacity:1"
       inkscape:label="#path913-6" />
  </g>
</svg>
