<?xml version="1.0" encoding="UTF-8" standalone="no"?>
<svg
   xmlns:dc="http://purl.org/dc/elements/1.1/"
   xmlns:svg="http://www.w3.org/2000/svg"
   xmlns="http://www.w3.org/2000/svg"
   xmlns:inkscape="http://www.inkscape.org/namespaces/inkscape"
   width="800"
   height="800"
   viewBox="0 0 211.66666 211.66667"
   version="1.1"
   class="gridpaper"
   >
  <defs id="defs2" />
  <g
     inkscape:label="Layer 1"
     inkscape:groupmode="layer"
     id="layer1"
     transform="translate(0,-85.333317)">
    <path
       style="fill:none;stroke:#00ffff;stroke-width:0.26458332px;stroke-linecap:butt;stroke-linejoin:miter;stroke-opacity:1"
       d="M 21.679412,95.366061 V 286.99998"
       id="path10"
       inkscape:connector-curvature="0" />
    <path
       inkscape:connector-curvature="0"
       id="path12"
       d="M 42.84608,95.366061 V 286.99998"
       style="fill:none;stroke:#00ffff;stroke-width:0.26458332px;stroke-linecap:butt;stroke-linejoin:miter;stroke-opacity:1" />
    <path
       style="fill:none;stroke:#00ffff;stroke-width:0.26458332px;stroke-linecap:butt;stroke-linejoin:miter;stroke-opacity:1"
       d="M 64.012748,95.366061 V 286.99998"
       id="path14"
       inkscape:connector-curvature="0" />
    <path
       inkscape:connector-curvature="0"
       id="path16"
       d="M 85.179416,95.366061 V 286.99998"
       style="fill:none;stroke:#00ffff;stroke-width:0.26458332px;stroke-linecap:butt;stroke-linejoin:miter;stroke-opacity:1" />
    <path
       style="fill:none;stroke:#00ffff;stroke-width:0.26458332px;stroke-linecap:butt;stroke-linejoin:miter;stroke-opacity:1"
       d="M 106.34609,95.366061 V 286.99998"
       id="path18"
       inkscape:connector-curvature="0" />
    <path
       inkscape:connector-curvature="0"
       id="path20"
       d="M 127.51277,95.366061 V 286.99998"
       style="fill:none;stroke:#00ffff;stroke-width:0.26458332px;stroke-linecap:butt;stroke-linejoin:miter;stroke-opacity:1" />
    <path
       style="fill:none;stroke:#00ffff;stroke-width:0.26458332px;stroke-linecap:butt;stroke-linejoin:miter;stroke-opacity:1"
       d="M 148.67945,95.366061 V 286.99998"
       id="path22"
       inkscape:connector-curvature="0" />
    <path
       inkscape:connector-curvature="0"
       id="path24"
       d="M 169.84613,95.366061 V 286.99998"
       style="fill:none;stroke:#00ffff;stroke-width:0.26458332px;stroke-linecap:butt;stroke-linejoin:miter;stroke-opacity:1" />
    <path
       style="fill:none;stroke:#00ffff;stroke-width:0.26458332px;stroke-linecap:butt;stroke-linejoin:miter;stroke-opacity:1"
       d="M 10,191.18302 H 201.63392"
       id="path26"
       inkscape:connector-curvature="0" />
    <path
       style="fill:none;stroke:#00ffff;stroke-width:0.26458332px;stroke-linecap:butt;stroke-linejoin:miter;stroke-opacity:1"
       d="M 191.01281,95.366061 V 286.99998"
       id="path28"
       inkscape:connector-curvature="0" />
    <path
       inkscape:connector-curvature="0"
       id="path30"
       d="M 10,170.01634 H 201.63392"
       style="fill:none;stroke:#00ffff;stroke-width:0.26458332px;stroke-linecap:butt;stroke-linejoin:miter;stroke-opacity:1" />
    <path
       style="fill:none;stroke:#00ffff;stroke-width:0.26458332px;stroke-linecap:butt;stroke-linejoin:miter;stroke-opacity:1"
       d="M 10,148.84966 H 201.63392"
       id="path32"
       inkscape:connector-curvature="0" />
    <path
       inkscape:connector-curvature="0"
       id="path34"
       d="M 10,127.68298 H 201.63392"
       style="fill:none;stroke:#00ffff;stroke-width:0.26458332px;stroke-linecap:butt;stroke-linejoin:miter;stroke-opacity:1" />
    <path
       style="fill:none;stroke:#00ffff;stroke-width:0.26458332px;stroke-linecap:butt;stroke-linejoin:miter;stroke-opacity:1"
       d="M 10,106.5163 H 201.63392"
       id="path36"
       inkscape:connector-curvature="0" />
    <path
       inkscape:connector-curvature="0"
       id="path38"
       d="M 10,212.3497 H 201.63392"
       style="fill:none;stroke:#00ffff;stroke-width:0.26458332px;stroke-linecap:butt;stroke-linejoin:miter;stroke-opacity:1" />
    <path
       style="fill:none;stroke:#00ffff;stroke-width:0.26458332px;stroke-linecap:butt;stroke-linejoin:miter;stroke-opacity:1"
       d="M 10,233.51638 H 201.63392"
       id="path40"
       inkscape:connector-curvature="0" />
    <path
       inkscape:connector-curvature="0"
       id="path42"
       d="M 10,254.68306 H 201.63392"
       style="fill:none;stroke:#00ffff;stroke-width:0.26458332px;stroke-linecap:butt;stroke-linejoin:miter;stroke-opacity:1" />
    <path
       style="fill:none;stroke:#00ffff;stroke-width:0.26458332px;stroke-linecap:butt;stroke-linejoin:miter;stroke-opacity:1"
       d="M 10,275.84974 H 201.63392"
       id="path44"
       inkscape:connector-curvature="0" />
    <g id="g219" class="snaptarget"
         style="opacity:1;fill:#ff00fd;fill-opacity:1"
    >
      <rect
         y="261.54581"
         x="27.516668"
         height="8" width="8"
         />
      <rect
         width="8" height="8"
         x="27.516668"
         y="240.37914"
         />
      <rect
         y="219.21245"
         x="27.516668"
         height="8" width="8"
         />
      <rect
         width="8" height="8"
         x="27.516668"
         y="198.04576"
         />
      <rect
         width="8" height="8"
         x="48.683338"
         y="261.54581"
         />
      <rect
         y="261.54581"
         x="69.85"
         height="8" width="8"
         />
      <rect
         width="8" height="8"
         x="91.016663"
         y="261.54581"
         />
      <rect
         y="240.37914"
         x="91.016663"
         height="8" width="8"
         />
      <rect
         width="8" height="8"
         x="69.85"
         y="240.37914"
         />
      <rect
         y="240.37914"
         x="48.683338"
         height="8" width="8"
         />
      <rect
         width="8" height="8"
         x="48.683338"
         y="219.21245"
         />
      <rect
         y="219.21245"
         x="69.85"
         height="8" width="8"
         />
      <rect
         width="8" height="8"
         x="91.016663"
         y="219.21245"
         />
      <rect
         y="198.04576"
         x="91.016663"
         height="8" width="8"
         />
      <rect
         width="8" height="8"
         x="69.85"
         y="198.04576"
         />
      <rect
         y="198.04576"
         x="48.683338"
         height="8" width="8"
         />
      <rect
         width="8" height="8"
         x="112.18331"
         y="261.54581"
         />
      <rect
         y="240.37914"
         x="112.18331"
         height="8" width="8"
         />
      <rect
         width="8" height="8"
         x="112.18331"
         y="219.21245"
         />
      <rect
         y="198.04576"
         x="112.18331"
         height="8" width="8"
         />
      <rect
         y="261.54581"
         x="133.34999"
         height="8" width="8"
         />
      <rect
         width="8" height="8"
         x="154.51668"
         y="261.54581"
         />
      <rect
         y="261.54581"
         x="175.68336"
         height="8" width="8"
         />
      <rect
         width="8" height="8"
         x="175.68336"
         y="240.37914"
         />
      <rect
         y="240.37914"
         x="154.51668"
         height="8" width="8"
         />
      <rect
         width="8" height="8"
         x="133.34999"
         y="240.37914"
         />
      <rect
         y="219.21245"
         x="133.34999"
         height="8" width="8"
         />
      <rect
         width="8" height="8"
         x="154.51668"
         y="219.21245"
         />
      <rect
         y="219.21245"
         x="175.68336"
         height="8" width="8"
         />
      <rect
         width="8" height="8"
         x="175.68336"
         y="198.04576"
         />
      <rect
         y="198.04576"
         x="154.51668"
         height="8" width="8"
         />
      <rect
         width="8" height="8"
         x="133.34999"
         y="198.04576"
         />
      <rect
         width="8" height="8"
         x="27.516668"
         y="176.87907"
         />
      <rect
         y="155.71239"
         x="27.516668"
         height="8" width="8"
         />
      <rect
         width="8" height="8"
         x="27.516668"
         y="134.5457"
         />
      <rect
         y="113.37902"
         x="27.516668"
         height="8" width="8"
         />
      <rect
         y="176.87907"
         x="48.683338"
         height="8" width="8"
         />
      <rect
         width="8" height="8"
         x="69.85"
         y="176.87907"
         />
      <rect
         y="176.87907"
         x="91.016663"
         height="8" width="8"
         />
      <rect
         width="8" height="8"
         x="91.016663"
         y="155.71239"
         />
      <rect
         y="155.71239"
         x="69.85"
         height="8" width="8"
         />
      <rect
         width="8" height="8"
         x="48.683338"
         y="155.71239"
         />
      <rect
         y="134.5457"
         x="48.683338"
         height="8" width="8"
         />
      <rect
         width="8" height="8"
         x="69.85"
         y="134.5457"
         />
      <rect
         y="134.5457"
         x="91.016663"
         height="8" width="8"
         />
      <rect
         width="8" height="8"
         x="91.016663"
         y="113.37902"
         />
      <rect
         y="113.37902"
         x="69.85"
         height="8" width="8"
         />
      <rect
         width="8" height="8"
         x="48.683338"
         y="113.37902"
         />
      <rect
         y="176.87907"
         x="112.18331"
         height="8" width="8"
         />
      <rect
         width="8" height="8"
         x="112.18331"
         y="155.71239"
         />
      <rect
         y="134.5457"
         x="112.18331"
         height="8" width="8"
         />
      <rect
         width="8" height="8"
         x="112.18331"
         y="113.37902"
         />
      <rect
         width="8" height="8"
         x="133.34999"
         y="176.87907"
         />
      <rect
         y="176.87907"
         x="154.51668"
         height="8" width="8"
         />
      <rect
         width="8" height="8"
         x="175.68336"
         y="176.87907"
         />
      <rect
         y="155.71239"
         x="175.68336"
         height="8" width="8"
         />
      <rect
         width="8" height="8"
         x="154.51668"
         y="155.71239"
         />
      <rect
         y="155.71239"
         x="133.34999"
         height="8" width="8"
         />
      <rect
         width="8" height="8"
         x="133.34999"
         y="134.5457"
         />
      <rect
         y="134.5457"
         x="154.51668"
         height="8" width="8"
         />
      <rect
         width="8" height="8"
         x="175.68336"
         y="134.5457"
         />
      <rect
         y="113.37902"
         x="175.68336"
         height="8" width="8"
         />
      <rect
         width="8" height="8"
         x="154.51668"
         y="113.37902"
         />
      <rect
         y="113.37902"
         x="133.34999"
         height="8" width="8"
         />
    </g>
  </g>
</svg>
