<?xml version="1.0" encoding="UTF-8" standalone="no"?>
<svg
   xmlns="http://www.w3.org/2000/svg"
   xmlns:svg="http://www.w3.org/2000/svg"
   xmlns:xlink="http://www.w3.org/1999/xlink"
   height="100"
   width="160"
   id="pbta_dice"
   version="1.1"
   >
  <defs id="defs4">
    <filter id="app-filter-colorize" color-interpolation-filters="sRGB" >
      <feColorMatrix id="recolorize-filter-matrix" type="matrix"
         values="0.9 0.0 0.0 0.0  0.0
                 0.9 0.0 0.0 0.0  0.0
                 0.9 0.0 0.0 0.0  0.0
                 0.0 0.0 0.0 1.0  0.0" />
    </filter>
    <linearGradient id="linearGradient1">
      <stop
         style="stop-color:#000000;stop-opacity:1;"
         offset="0"
         id="stop1" />
      <stop
         style="stop-color:#000000;stop-opacity:0.4"
         offset="1"
         id="stop2" />
    </linearGradient>
    <linearGradient
       id="linearGradient10"
       xlink:href="#linearGradient1"
       x1="0.0" y1="22.6"
       x2="0.0" y2="88.9"
       gradientUnits="userSpaceOnUse"
       />
  </defs>
  <script
     type="text/javascript"
     data-namespace="pbta_dice"
     id="script_pbta_dice"><![CDATA[

var pbta_dice = {
  roll_handler: function(evt) {
    if (this.isChanging) {
      return false
    }
    this.isChanging = true
    var text = this.querySelector('text')
    var tspan = this.querySelector('tspan')
    var origOpacity = this.style.opacity
    var newNum = randDiceString(1,6)
    animated_ghost(this, { animation: 'rollOut' })
    tspan.textContent = ' '
    this.style.opacity = 0.1
    animated_ghost(this, {
      animation: 'rollIn',
      before_begin: (ghost) => {
        ghost.querySelector('g').style.opacity = origOpacity
      },
      on_done: () => {
        tspan.textContent = newNum
        s(text, 'data-text', newNum)
        this.style.opacity = origOpacity
        this.isChanging = false
        net_fire({type: "change", data: serialize(this)})
        evt_fire('change', this, null, {})
      },
    })
  },

  initialize: function(elem) {
    elem.addEventListener('die_roll', this.roll_handler)
    elem.addEventListener('dblclick', this.roll_handler)
  },

  menu: {
    'Roll': {
      eventName: 'die_roll',
      applicable: (dieNode) => { return true },
    },
  },

  serialize: function(elem) {
    value = elem.querySelector('tspan').textContent
    return {dieValue: value}
  },

  deserialize: function(elem, payload) {
    var tspan = elem.querySelector('tspan')
    tspan.textContent = payload.dieValue
  },

}

var pbta_dice = {
  roll_handler: function(evt) {
    console.log('pbta roll handler')
    die1 = pbta_dice.select_my(this, 'pbta_die_1')
    evt_fire('die_roll', die1, null, {})
  },

  initialize: function(elem) {
    elem.addEventListener('die_roll', this.roll_handler)
    elem.addEventListener('dblclick', this.roll_handler)
    pbta_dice.initialize(elem.querySelector('#pbta_die_1')
    pbta_dice.initialize(elem.querySelector('#pbta_die_2')

    var idStrings = [
      'pbta_die_1',
      'pbta_die_2',
    ]
    idStrings.forEach((idString) => {
      el = elem.querySelector('#' + idString)
      el.id = elem.id + '_' + idString
    })

  },

  select_my: function(parentElem, oldId) {
    q = '#' + parentElem.id + '_' + oldId
    return parentElem.querySelector(q)
  },

  menu: {
    'Roll': {
      eventName: 'die_roll',
      applicable: (dieNode) => { return true },
    },
  },

  serialize: function(elem) {
    console.log('pbta serialize')
  },
}


    ]]></script>

  <g id="pbta_die_1" />
  <g filter="url(#app-filter-colorize)" id="die_body_1" >
      <path
        style="fill:#000000;fill-opacity:0.50196078;stroke:none;"
        d="m 16.266526,45.579474 c -1.68432,-0.0012 -5.18571,0.06788 -6.23438,0.637907 -1.5957502,0.90302 -1.7272502,1.615566 -1.9062502,5.013899 l -2.88281,32.27422 c 0.0306,1.384198 6.4061402,6.270484 8.3222602,6.270484 h 51.97266 c 1.91612,0 8.29167,-4.886286 8.32227,-6.270484 l -2.88282,-32.27422 c -0.179,-3.398333 -0.3105,-4.110879 -1.90625,-5.013899 -1.04867,-0.570031 -4.55005,-0.639123 -6.23437,-0.637907 z"
        id="path_shadow"
      />
      <path
        id="path_sides"
        d="m 16.266526,11.455671 c -1.68432,-0.0021 -5.18571,0.117211 -6.23438,1.101563 -1.5957502,1.559372 -1.7272502,2.789824 -1.9062502,8.658203 l -2.88281,55.732422 c 0.0306,2.390289 6.4061402,10.828125 8.3222602,10.828125 h 51.97266 c 1.91612,0 8.29167,-8.437836 8.32227,-10.828125 l -2.88282,-55.732422 c -0.179,-5.868379 -0.3105,-7.098831 -1.90625,-8.658203 -1.04867,-0.984352 -4.55005,-1.103663 -6.23437,-1.101563 z"
        style="fill:#9b9b9b;fill-opacity:1;stroke:#000000;stroke-width:1.30999994;stroke-linecap:round;stroke-linejoin:round;stroke-miterlimit:4;stroke-dasharray:none;stroke-opacity:1"
      />
      <path
        style="fill:#dedede;fill-opacity:1;stroke:url(#linearGradient10);stroke-width:1.31;stroke-linecap:round;stroke-linejoin:round;stroke-miterlimit:4;stroke-dasharray:none;stroke-opacity:1"
        d="m 12.007916,11.667299 h 55.08564 c 1.662,0 2.94377,1.338951 3,3 l 2,59.08564 c 0.0562,1.661049 -1.338,3 -3,3 h -59.08564 c -1.6620002,0 -3.0562302,-1.338951 -3.0000002,-3 l 2,-59.08564 c 0.0562,-1.661049 1.3380002,-3 3.0000002,-3 z"
        id="topface"
      />
  </g>
  <text
     xml:space="preserve"
     style="font-size:50px;line-height:125%;font-family:sans-serif;fill:#000000;fill-opacity:1;stroke:none;"
     x="24"
     y="62"
     id="text_die_1_value"
     ><tspan
       id="tspan_die_1_value"
       x="24"
       y="62">6</tspan>
  </text>
  </g>

  <g id="pbta_die_2" transform="translate(80,0)" />
  <g filter="url(#app-filter-colorize)" id="die_body_1" >
      <path
        style="fill:#000000;fill-opacity:0.50196078;stroke:none;"
        d="m 16.266526,45.579474 c -1.68432,-0.0012 -5.18571,0.06788 -6.23438,0.637907 -1.5957502,0.90302 -1.7272502,1.615566 -1.9062502,5.013899 l -2.88281,32.27422 c 0.0306,1.384198 6.4061402,6.270484 8.3222602,6.270484 h 51.97266 c 1.91612,0 8.29167,-4.886286 8.32227,-6.270484 l -2.88282,-32.27422 c -0.179,-3.398333 -0.3105,-4.110879 -1.90625,-5.013899 -1.04867,-0.570031 -4.55005,-0.639123 -6.23437,-0.637907 z"
        id="path_shadow"
      />
      <path
        id="path_sides"
        d="m 16.266526,11.455671 c -1.68432,-0.0021 -5.18571,0.117211 -6.23438,1.101563 -1.5957502,1.559372 -1.7272502,2.789824 -1.9062502,8.658203 l -2.88281,55.732422 c 0.0306,2.390289 6.4061402,10.828125 8.3222602,10.828125 h 51.97266 c 1.91612,0 8.29167,-8.437836 8.32227,-10.828125 l -2.88282,-55.732422 c -0.179,-5.868379 -0.3105,-7.098831 -1.90625,-8.658203 -1.04867,-0.984352 -4.55005,-1.103663 -6.23437,-1.101563 z"
        style="fill:#9b9b9b;fill-opacity:1;stroke:#000000;stroke-width:1.30999994;stroke-linecap:round;stroke-linejoin:round;stroke-miterlimit:4;stroke-dasharray:none;stroke-opacity:1"
      />
      <path
        style="fill:#dedede;fill-opacity:1;stroke:url(#linearGradient10);stroke-width:1.31;stroke-linecap:round;stroke-linejoin:round;stroke-miterlimit:4;stroke-dasharray:none;stroke-opacity:1"
        d="m 12.007916,11.667299 h 55.08564 c 1.662,0 2.94377,1.338951 3,3 l 2,59.08564 c 0.0562,1.661049 -1.338,3 -3,3 h -59.08564 c -1.6620002,0 -3.0562302,-1.338951 -3.0000002,-3 l 2,-59.08564 c 0.0562,-1.661049 1.3380002,-3 3.0000002,-3 z"
        id="topface"
      />
  </g>
  <text
     xml:space="preserve"
     style="font-size:50px;line-height:125%;font-family:sans-serif;fill:#000000;fill-opacity:1;stroke:none;"
     x="24"
     y="62"
     id="text_die_2_value"
     ><tspan
       id="tspan_die_2_value"
       x="24"
       y="62">6</tspan>
  </text>
  </g>
</svg>
