<svg xmlns="http://www.w3.org/2000/svg" width="420" height="420">
<symbol id="deckahedron_front" viewBox="0 0 420 420">
  <g style="display:inline">
    <rect width="419.3" height="419.3" x=".1" y=".1" rx="20" ry="20" style="fill:#fff;fill-opacity:1;stroke:#000;stroke-width:.726756;stroke-linejoin:miter;stroke-miterlimit:4;stroke-dasharray:none;stroke-dashoffset:0;stroke-opacity:1" />
    <path d="M20.1.1C9.02.1.1 9.02.1 20.1v379.3c0 11.08 8.92 20 20 20h379.3c11.08 0 20-8.92 20-20V20.1c0-11.08-8.92-20-20-20zm189.85 26.62.03.04c17.38 0 33.01 6.43 44.08 16.83l123 123.17C386.88 177.77 393 193.1 393 210c0 17.4-6.5 33.06-16.8 44.1L253.18 377.47a64.2 64.3 0 0 1-43.13 15.97c-17.37 0-33.05-6.5-44.11-16.87L42.9 253.36a64.2 64.3 0 0 1-15.98-43.28c0-17.4 6.5-33.1 16.85-44.19l123-123.17c10.95-9.83 26.29-16 43.17-16" style="fill:#ccc;fill-opacity:1;stroke:none;stroke-width:.726756;stroke-linejoin:miter;stroke-miterlimit:4;stroke-dasharray:none;stroke-dashoffset:0;stroke-opacity:1" />
    <path d="M244.84 387.41c0-15.25-15.59-27.64-34.83-27.64-19.22 0-34.83 12.36-34.83 27.64 0 15.25 15.58 27.64 34.83 27.64 19.24 0 34.83-12.37 34.83-27.64" style="fill:#d9b7b7;fill-opacity:1;fill-rule:nonzero;stroke:none;stroke-width:2.40394" />
    <path d="M241.9 387.44c0-13.96-14.27-25.32-31.92-25.32s-31.9 11.33-31.9 25.32c0 13.96 14.28 25.32 31.9 25.32s31.92-11.33 31.92-25.32" style="fill:#300;fill-opacity:1;fill-rule:nonzero;stroke:none;stroke-width:2.40394" />
    <path d="M213.36 412.76a3.35 3.36 0 1 0-6.7 0 3.35 3.36 0 1 0 6.7 0" style="fill:#000;fill-opacity:1;fill-rule:nonzero;stroke:none;stroke-width:2.79528" />
    <path d="M387.34 245.13c-15.23 0-27.6-15.62-27.6-34.9 0-19.27 12.35-34.88 27.6-34.88 15.22 0 27.59 15.61 27.59 34.89 0 19.25-12.34 34.89-27.6 34.89" style="fill:#b6b6da;fill-opacity:1;fill-rule:nonzero;stroke:none;stroke-width:2.40394" />
    <path d="M387.34 242.22c-13.97 0-25.28-14.3-25.28-31.95 0-17.66 11.31-31.98 25.28-31.98 13.93 0 25.27 14.3 25.27 31.98s-11.31 31.95-25.27 31.95" style="fill:#003;fill-opacity:1;fill-rule:nonzero;stroke:none;stroke-width:2.40394" />
    <path d="M416.83 203.33a3.35 3.36 0 1 1-6.7 0 3.35 3.36 0 1 1 6.7 0" style="fill:#000;fill-opacity:1;fill-rule:nonzero;stroke:none;stroke-width:2.79528" />
    <path d="M416.83 217.12a3.35 3.36 0 1 1-6.7 0 3.35 3.36 0 1 1 6.7 0" style="fill:#000;fill-opacity:1;fill-rule:nonzero;stroke:none;stroke-width:2.40394" />
    <path d="M32.65 175.33c15.23 0 27.6 15.6 27.6 34.88 0 19.25-12.35 34.89-27.6 34.89-15.22 0-27.6-15.61-27.6-34.89 0-19.25 12.35-34.88 27.6-34.88" style="fill:#d9d9b7;fill-opacity:1;fill-rule:nonzero;stroke:none;stroke-width:2.40394" />
    <path d="M32.65 178.26c13.94 0 25.28 14.3 25.28 31.95S46.62 242.2 32.65 242.2c-13.93 0-25.27-14.3-25.27-31.98s11.3-31.95 25.27-31.95" style="fill:#330;fill-opacity:1;fill-rule:nonzero;stroke:none;stroke-width:2.40394" />
    <path d="M5.2 196.3a3.35 3.36 0 1 1 6.7 0 3.35 3.36 0 1 1-6.7 0m-1.98 13.94a3.35 3.36 0 1 1 6.7 0 3.35 3.36 0 1 1-6.7 0m1.98 13.93a3.35 3.36 0 1 1 6.7 0 3.35 3.36 0 1 1-6.7 0" style="fill:#000;fill-opacity:1;fill-rule:nonzero;stroke:none;stroke-width:2.40394" />
    <path d="M244.84 32.73c0 15.25-15.59 27.64-34.83 27.64-19.22 0-34.83-12.36-34.83-27.64 0-15.24 15.58-27.6 34.83-27.6 19.21 0 34.83 12.36 34.83 27.6" style="fill:#b7d9b7;fill-opacity:1;fill-rule:nonzero;stroke:none;stroke-width:2.40394" />
    <path d="M241.93 32.73c0 13.96-14.27 25.32-31.9 25.32s-31.89-11.33-31.89-25.32 14.27-25.31 31.9-25.31 31.92 11.33 31.92 25.31" style="fill:#030;fill-opacity:1;fill-rule:nonzero;stroke:none;stroke-width:2.40394" />
    <path d="M230.82 14.27a3.35 3.36 0 1 1 0-6.71 3.36 3.36 0 0 1 0 6.7m-13.88-3.9a3.35 3.36 0 1 1 0-6.72 3.36 3.36 0 0 1 0 6.71m-13.89 0a3.35 3.36 0 1 1 0-6.71 3.35 3.36 0 1 1 0 6.71m-13.85 3.92a3.35 3.36 0 1 1 0-6.71 3.35 3.36 0 1 1 0 6.7" style="fill:#000;fill-opacity:1;fill-rule:nonzero;stroke:none;stroke-width:2.40394" />
    <path d="m196.05 33.3-4.2-.16c.42.7 1.48 2.85 1.43 4.77a29 29 0 0 0 2-3.26zM198.36 29.57l-3.12-.25c.24.62 1.01 2.15.81 3.9q1.18-2.04 2.31-3.65M201.01 26.19l-3.01-.04c.25.54.61 1.75.54 3.26q1.21-1.76 2.47-3.18z" style="display:inline;fill:#fff;fill-opacity:1;fill-rule:nonzero;stroke:none;stroke-width:.839421" />
    <path d="M197.72 15.7c-.61.3 0 .83.25 1.4.4.82.68 1.37.93 2.56.33 1.46.2 2.04.08 2.12q0 .07-.25.03a12 12 0 0 1-5.27-2.47l-1.96-1.6c-1.14-.97-1.3-1.33-1.63-.85-.17.16 0 .65.17.94q.6.9 1.25 1.63a12 12 0 0 0 3.54 2.89 21 21 0 0 0 7.73 2.43q-.6.64-1.14 1.35-2.44 2.69-5.33 8.05a16 16 0 0 1-6.58 7.31c.28 2.7 1.42 4.48 3.44 6.15 2.33 1.87 7.5 3.83 10.33 1.8.95-.65 1.11-1.3 1.23-2.45q0-.81.16-1.62c.25-.98.86-1.83 1.35-2.74.64-1.1 1.1-2.15 2.4-2.51.16.57-.09 1.5-.49 2.04-1.1 1.13-1.6 1.7-1.64 2.92.94-1.22 1.6-1.74 3.18-2.04.82-.16 1.35-.96 1.71-1.62l.2-.28q.38-.62 1.1-1.43l.33-.08c.29.6.48 1.58.08 2.32-.5.89-.45 1.22-.4 1.62l.04-.12c.52-.69.96-1.29 1.74-1.87a3 3 0 0 0 .94-1.54v-.13q.2-.6.48-1.14l.61-.07c.41 1.05-.48 2.03-.28 3.04.9-1.95 2.48-1.99 2.73-3.25q.4 0 .8.08h.25c.12.77-.57 1.3-.53 2.04.82-1.14 1.79-1.1 2.16-1.72q.73.22 1.5.7c.7.4.74 1.34.09 1.95a4 4 0 0 1-1.14.61c1.5.4 2.65-.12 3.12-1.01.54-.86.42-2.2-1.01-3.13-1.54-1.02-5-1.1-5.04-1.14l-2.56.07c-.25 0-2.85.22-4.07-.8-.4-.37-.89-.9-.89-1.4-.04-.85.32-2.76 2.88-2.92 1.88-.12 3.66.57 5.61.94q.4.4.45 1.3a4 4 0 0 0 .57-1.22l.65.04h.29c.36.4.65.81.69 1.63q.6-.6.64-1.63l.7-.08.08.08c.5.45.9.93.98 1.87.4-.53.73-1.42.64-2.32l.78-.24q.32.2.54.53c.36.52.4 1.09.28 2.03a3.2 3.2 0 0 0 .96-3.58c.82-.61 1.07-1.22 1.35-2.07.09-.82.5-1.51.7-2.29q0-3.36-3.47-5.07c-1.5-.7-3.66-.82-5.16-.86h-.32c-1.15-.08-3.18-.33-4.23-1.54-.78-.87-.78-1.67-.65-2.73q.08-.57.2-.82c-.24.1-.32.54-.45.82-.4 1.3-.48 2.16.49 3.21 1.14 1.3 3.17 1.63 4.68 1.75h.32c1.46.08 3.5.2 4.93.81 1.22.54 3.16 1.83 3.12 4.48l-.1.69a2.2 2.2 0 0 1-1.44.57l-2.12.4c-4.14.87-5.6-.27-6.01-.36-1.19-.12-1.02-1.18-.09-1.3l.13-.25a2 2 0 0 0 0-.73c-.09-.4-.41-.49-.82-.65-.8-.32-2.44-.69-3.37-.93a10 10 0 0 1-4.03-2.2c-1.47-1.39-.97-4.23.36-5a4.3 4.3 0 0 0-3.82 3.74q0 1.74 1.06 3.02c-.85-.25-1.95-.66-2.2-1.96a4.3 4.3 0 0 1 .37-2.12c-.9.93-1.87 2.44-2.43 3.01-2.24 0-3.27-.28-4.12-.44-.6-4.24-1.95-5.58-2.4-6.07-.16-.16-.57-.57-.93-.57m20.05 19.14a12 12 0 0 0-4.33.81c1.2.45 7.99-.48 11.32 2.32 2.73.54 4.78-.24 5.05-1.87-1.47 1.17-6.78-1.33-12.04-1.26" style="display:inline;fill:#fff;fill-opacity:1;fill-rule:nonzero;stroke:none;stroke-width:.839421" />
    <path d="M217.36 395.7c.7-.05 1.6-.18 1.87-.9.3-.61.09-1.62.09-2.24v-1.38c0-.2-.05-.65.23-.74l.57.1.5.15c.24.03.86.33 1.05.77l.2 2.32.17.12.57.09c4.48 0 8.55.52 12.53 2.51q.69.33 1.37.82v.03h.1v.18h-.26l-1.33-.41-1.07-.3a28.5 28.5 0 0 0-11.7-.89 1.6 1.6 0 0 1-.87-.04l-.07-.1-.12-.5v-3.63a1.6 1.6 0 0 0-.7-.48l-.28-.05h-.2c-.2 1.14-.09 2.48-.05 3.59q.05.64-.16 1.37c-.4.9-2.15.62-2.93.58h-3q-10.42-.08-20.59 0a9 9 0 0 1-2.28-.17c0-.2.25-.24.41-.2l2.28-.04m13.22-14.11q0-.12.09-.2c1.99-.08 4.3-.08 6.38-.08l.36.03q.2.13.12.32v.54q0 .6-.53.65-3.25 0-6.38-.12c-.12-.09-.08-.41-.08-.57zm-3.34-5.7H197c-.09 0-.33.05-.37-.08 0-.16.37-.12.49-.12l3.65-.37.9-.04c1.43-.07 1.8-.4 2.04-1.83 0-.4.4-1.21.4-1.26l.13 1.63q.28 1.67 1.87 2.24 3.66 1.34 7.56.11.57-.16 1.06-.48a3 3 0 0 0 1.14-1.3q.2-1.1.2-2.2 0-.04.08-.12l.12.08c0 1.87 1.23 2.6 2.28 3.17l.9.05 3.78.36H222l-2.77.05-2.72.07a1.6 1.6 0 0 0-.82.2q-5.7 2.73-11.39 0l-.93-.2M187.3 399h31.89c.29 0 .64.08.9-.09.24-.16.12-.52.24-.8.09-.18.37-.13.54-.13q7.52-.05 15.12.16h.77l.16-.03.17-.13v-.12l.08-.09v-.12l-.04-.24-.08-.24-.24-.25c-.78-1.18-1.55-1.83-2.6-2.76-4.49-2.73-9.77-3.62-14.97-5.37a4.3 4.3 0 0 1-2.45-2.93v-.45c-.4-1.47.08-2.73.5-4.07q.24-.56.77-.93a4 4 0 0 1 1.61-.93c1.83-.94 3.88-1.87 5.34-2.74.16-.07.32-.44.32-.68v-3.46q0-.82-.8-.82h-8.14a1 1 0 0 0-.65.22 8 8 0 0 1-4.76 1.83c-2.45.2-4.85-.17-6.84-1.8a1 1 0 0 0-.73-.25h-8q-.9 0-.9.9v3.17q0 .73.7 1.14 2.1 1.06 4.34 1.83l1.3.65c2.28 1.83 2.65 4.1 2.31 7.04q-.48 1.5-1.61 2.6c-4.2 3.06-8.47 3.74-13.1 5.17a1.2 1.2 0 0 0-.42.89c.13 1.34-.4 2.12-1.13 3.13" style="display:inline;fill:#fff;fill-opacity:1;fill-rule:evenodd;stroke:none;stroke-width:.914709" />
    <path d="M373.32 191.76q2.85 3.01 5.7 6.59l.08.04.28.32q.61.65 1.46.12l.3-.28a12 12 0 0 0 1.46-1.71c.04-.12.2-.4.07-.53l-.37-.07a1.2 1.2 0 0 1-.68-.54c-.57-1.34.96-2.11 1.75-1.79.6.3.97 1.19.93 1.79-.08 1.75-1.13 3.26-2.23 4.48-1.47 1.62-3.18 2.9-4.89 4.27a6.5 6.5 0 0 0-2.44 4.35c.04.5-.37.17-.49-.08v-.25q-.16-1.83.65-3.45a9 9 0 0 1 1.23-1.95l.32-.32q.61-.82.12-1.48l-.24-.32q-.16 0-.25-.12c-1.78-2.56-3.95-4.68-5.94-6.76-.4-.52-.89-.8.09-1.74l1.14-1.02c.9-.57 1.42-.04 1.95.45m9.76 2.64c-.25 0-.53.08-.4.29 0 .2.28.2.4.2a.9.9 0 0 1 .54.41l.07.65v.45l.12-.22.04-.28c.05-.57 0-1.13-.53-1.46zm23.18.74.86.03q.41.09.03.32c-3.53 1.48-10.49 8.02-17.08 14.4 6.43 6.63 13.4 13.19 16.92 14.65q.3.2-.07.28-2.85.22-5.66-.48a25 25 0 0 1-6.5-3.25c-3.75-3.26-4.52-4.44-6.22-5.99l-1.14-1.21-2.45-2.77-2.37-2.6-2.91-3.34 1.95-1.71 2.88 3.13c.9.94 5.1 5.7 6.1 6.88 1.63 1.7 3.38 3.66 5.3 5.37a29 29 0 0 0 8.41 5.05h.05a25 25 0 0 1-8.23-5.21 82 82 0 0 1-5.16-5.42c-1.06-1.21-5.2-6.02-6.06-6.9l-2.77-3.18c-.16-.16-.48-.09-.48-.09l-2.12 1.83-.9-.93 3.43-2.96 5.08 5.69 4.39-4.93c3.54-3.25 9.96-6.13 9.96-6.13s3.46-.62 4.8-.54m-4.43 2.24c-2.7 1.55-5.37 3.26-7.52 5.57q-1.83 1.83-3.41 3.66-.62.57-1.8 1.96l.36.37c.82-.9 1.44-1.72 1.8-2.05a69 69 0 0 1 5.08-5.44 37 37 0 0 1 5.53-3.9c1.35-.82 2.6-1.23 3.9-1.75-1.42.24-2.84 1-3.94 1.58m-18.22 13.34 1.79 1.95-.81.94-2.9 3.13-1.94-1.7.2-.22zm-3.86 4.3v.05zm-5.05-3.81v.4a6.1 6.1 0 0 0 2.44 4.36c1.63 1.42 3.42 2.68 4.89 4.3 1.1 1.27 2.1 2.73 2.2 4.49 0 .6-.37 1.55-.99 1.78-.81.41-2.31-.4-1.74-1.74a1.2 1.2 0 0 1 .69-.54l.4-.1c.08-.18-.08-.43-.12-.55q-.65-.93-1.46-1.7l-.28-.29q-.82-.57-1.47.12l-.5.54c-1.6 1.9-3.08 4.06-4.94 5.68-1.36 1.55-1.92 1.96-2.82.98q-.81-.61-1.42-1.42c-.25-.32-.53-.57.2-1.39 1.92-1.94 3.5-3.82 5.62-6.01l.1-.45.22-.24.28-.13.25-.32q.54-.65-.12-1.47l-.21-.2-.11-.12q-.74-.86-1.23-1.95-.82-1.63-.64-3.46c.1-.65.6-.49.76-.57m11.15 1.83.8.98-4.62 5.2-3.42-2.97.89-.96 2.32 1.82c.28.24.6-.21 1.26-.9l2.04-2.27z" style="display:inline;fill:#fff;fill-opacity:1;fill-rule:nonzero;stroke:none;stroke-width:.914709" />
    <path d="M33.23 191.19c-.13.57-.41 2.03.89 3.2a16 16 0 0 0 3.94 2.54q.54.16.82-.17l.16-.36a.9.9 0 0 1 .86-.22q.32.09.4.34v.77l-.57 2a21 21 0 0 0-.9 3.29 41 41 0 0 0 .65 18.01l.09.41.7 2.15.07.82c0 .12-.28.3-.4.32-.37.05-.74.09-.9-.2l-.2-.37q-.21-.32-.77-.16c-1.47.62-2.9 1.63-3.95 2.53-1.26 1.13-.97 2.64-.9 3.2-.04.9-.4.7-.89.37a14 14 0 0 0-5.3-1.21h-.64l-.08-.13v-.16l.08-.12.41-.37a7 7 0 0 0 1.7-4.02v-.33l.13-.36c.16-.04.32.16.37.2l.23.2.94.61c2.08.57 4.07-.2 4.27-2.56l-.07-.97a1.6 1.6 0 0 0-1.19-.98c-.53-.04-1.1.37-1.58.4-.9.13-.57-.69-.21-1.22.61-.81.53-2.15.08-3.13-.32-.73-.48-1.1-.9-1.3l-.6-.25q-1.54-.6-1.59.7v.97c0 .37-.86.5-1.29.5h-.21c-.49 0-.49-.41-.49-.7v-1.13a3.7 3.7 0 0 0-2.4 3.04c0 .41 0 1.14.25 1.46a2.04 2.04 0 0 0 2.23.97l.29-.1h.32q.09 0 .09.1 0 .3-.25.66-.37.61-.9.94a3.8 3.8 0 0 1-2.55.5 4 4 0 0 1-1.35-.62c-1.55-1.23-1.79-4.2-.25-6.14a6.5 6.5 0 0 1 4.48-2.53v-.93q-2.44.04-4.43 1.14c-.74.48-1.06.97-1.51 1.71q0 .32-.32.44c-.16.09-.41-.16-.46-.28l-.6-.77c-.82-1.23-1.62-1.92-3.45-3.02l-1.5-.48-.05-.13c0-.1.28-.24.4-.24.33-.13 2.64-.5 4.96-3.87.21-.2.5-.77.86-.52a1 1 0 0 1 .25.4l.36.61.49.57c1.18 1.19 3.37 1.42 5.16 1.59v-.81l-.48-.09a6.7 6.7 0 0 1-3.98-2.47c-1.6-1.96-1.35-4.89.23-6.15a4 4 0 0 1 1.35-.61 4 4 0 0 1 2.52.5 4 4 0 0 1 .93.93 1 1 0 0 1 .25.65q0 .11-.09.11h-.32l-.28-.16c-.86-.16-1.8.3-2.24 1.03-.25.32-.25 1.05-.25 1.42a3.7 3.7 0 0 0 2.37 3.05v-1.06c0-.33.03-.7.52-.7h.98q.61 0 .54.5v1.02q0 1.21 1.61.64c.9-.32 1.07-.64 1.46-1.61.46-1 .57-2.3-.07-3.15-.41-.48-.69-1.34.24-1.21.53.07 1.06.44 1.55.4.96-.08 1.42-1.02 1.34-1.9-.25-2.38-2.2-3.14-4.27-2.57q-.49.16-.94.57-.28.28-.61.44c-.2-.2-.08-.4-.12-.69a6.7 6.7 0 0 0-1.74-4.06c-.94-.49-.13-.74-.13-.74l.4-.04a12 12 0 0 0 5.29-1.22c.94-.64.65.37.65.37m11.11 5.78a4 4 0 0 1 .7 1.05c.31.57-.26.49-.26.49-.48-.53-1.05-.24-1.42.21q-.5.76-.69 1.66-1.22 4.27-1.22 8.75l.04 4.07.2 2.03q.21 1.83.62 3.66l.36 1.26c.17.61.4.57.33 0q0-.4-.13-.69-.37-1.63-.49-3.3l-.16-1.86v-4.52a37 37 0 0 1 .94-7.09 9 9 0 0 1 .54-1.53c.28-.46.88-.65 1.2-.2a4 4 0 0 1 .62 1.86 94 94 0 0 1 .32 12.37v1.18l-.08 1.34-.32 3.05c-.17.77-.45 3.1-2.04 2.93q-.36 0-.6-.21c-1.06-.81-1.35-2.23-1.63-3.34a29 29 0 0 1-1.1-6.5 45 45 0 0 1 .6-11.55 25 25 0 0 1 1.76-4.84c.61-1.22 1.7-.45 1.91-.28M32.17 207.7c-.32 0-.45.36-.61.54-.61.73-.82 1-1.71 1.1l-.86.1q-.28 0-.28.3v.85q0 .28.29.28c1.14.12 1.42.12 2.31.94l.37.4c.04.08.12.33.24.37h.24l.22-.08.32-.4.73-.61a9 9 0 0 1 2.2-1.23v-.16l-.05-.2a1 1 0 0 0-.48-.17l-.5-.23a9 9 0 0 1-2.1-1.73l-.05.09q-.16-.16-.29-.16" style="display:inline;fill:#fff;fill-opacity:1;fill-rule:nonzero;stroke:none;stroke-width:.839421" />
  </g>
</symbol>
</svg>
