<?xml version="1.0" encoding="UTF-8" standalone="no"?>
<!-- Created with Inkscape (http://www.inkscape.org/) -->

<svg
   width="420"
   height="420"
   viewBox="0 0 111.125 111.125"
   version="1.1"
   id="svg1646"
   inkscape:version="1.1.2 (0a00cf5339, 2022-02-04)"
   sodipodi:docname="deckahedron_back2.svg"
   xmlns:inkscape="http://www.inkscape.org/namespaces/inkscape"
   xmlns:sodipodi="http://sodipodi.sourceforge.net/DTD/sodipodi-0.dtd"
   xmlns="http://www.w3.org/2000/svg"
   xmlns:svg="http://www.w3.org/2000/svg">
  <sodipodi:namedview
     id="namedview1648"
     pagecolor="#ffffff"
     bordercolor="#666666"
     borderopacity="1.0"
     inkscape:pageshadow="2"
     inkscape:pageopacity="0.0"
     inkscape:pagecheckerboard="0"
     inkscape:document-units="mm"
     showgrid="false"
     units="px"
     inkscape:zoom="0.64052329"
     inkscape:cx="300.53552"
     inkscape:cy="561.25984"
     inkscape:window-width="1920"
     inkscape:window-height="1136"
     inkscape:window-x="0"
     inkscape:window-y="0"
     inkscape:window-maximized="1"
     inkscape:current-layer="layer1" />
  <defs
     id="defs1643" />
  <g
     inkscape:label="Layer 1"
     inkscape:groupmode="layer"
     id="layer1">
    <rect
       id="card_back_outer"
       style="display:inline;fill:#202020;fill-opacity:1;stroke:none;stroke-width:0.132292;stroke-opacity:1"
       width="111.125"
       height="111.125"
       x="0"
       y="0"
       rx="5.2916665"
       ry="5.2916665" />
    <rect
       id="card_back_inner"
       style="display:inline;fill:#202020;fill-opacity:1;stroke:none;stroke-width:0.264583"
       width="103.71667"
       height="103.71667"
       x="3.7041626"
       y="3.7041321"
       rx="1.3229166"
       ry="1.3229166" />
    <g
       id="back_pattern"
       transform="matrix(0.74083329,0,0,0.74083329,1.0842285e-5,-1.6120605e-5)"
       style="display:inline;stroke-width:0.357142">
      <path
         inkscape:connector-curvature="0"
         id="path4470-2"
         d="m 81.07,55.81 c -0.04,0 -0.09,0 -0.14,0.02 -0.27,0.11 -0.65,0.23 -1.12,0.33 -0.47,0.09 -1.04,0.16 -1.72,0.16 H 66.58 c -0.28,0 -0.2,0.27 -0.14,0.3 1.51,0.96 1.99,2.13 1.99,3.86 0,0.01 0,0.04 0,0.06 0,4.64 0,11.33 0,17.03 0,0.14 -0.1,0.13 -0.15,0.06 -0.62,-0.92 -1.2,-1.74 -1.75,-2.38 -0.09,-0.1 -0.07,-0.21 0,-0.31 0.16,-0.27 0.32,-0.59 0.58,-1.1 0.14,-0.29 0.27,-0.56 0.39,-0.87 0.02,-0.05 0.07,-0.23 0.07,-0.53 0,-0.9 0,-1.99 0,-3.02 0,-0.22 -0.13,-0.28 -0.19,-0.08 -0.42,1.28 -0.78,2.57 -1.58,3.92 -0.15,0.24 -0.3,0.47 -0.46,0.68 -0.05,0.08 -0.15,0.1 -0.25,0.02 -0.83,-0.69 -1.7,-1.05 -2.52,-1.24 -0.03,0 -0.08,-0.03 -0.13,-0.08 -0.04,-0.04 -0.07,-0.1 -0.07,-0.16 0,-5.35 0,-10.43 0,-12.28 0.02,-0.3 -0.21,-0.31 -0.29,-0.14 -0.11,0.28 -0.22,0.52 -0.34,0.72 -0.83,1.42 -2.11,2.47 -3.53,3.09 -0.18,0.08 -0.12,0.22 0.04,0.22 h 1.47 c 0.24,0 0.47,0.14 0.47,0.45 0,1.49 0,4.36 0,7.78 0,0.21 -0.13,0.31 -0.25,0.32 -0.34,0.08 -0.68,0.18 -1.04,0.32 -1.88,0.72 -2.33,2.66 -1.37,3.65 0.57,0.59 1.35,0.92 2.49,1.04 0.05,0 0.17,0.05 0.17,0.2 0,0.15 0,4.17 0,5.93 0,0.04 -0.01,0.36 -0.01,0.47 -0.03,0.94 -0.37,1.9 -1.11,2.83 -0.12,0.13 -0.01,0.24 0.12,0.2 0.59,-0.19 1.31,-0.3 2.09,-0.3 0.73,0 1.41,0.09 1.99,0.26 0.09,0.04 0.22,-0.08 0.14,-0.19 -0.56,-0.7 -0.93,-1.45 -1.02,-2.45 0,-0.08 -0.01,-0.49 -0.01,-0.62 0,-2.33 0,-5.36 0,-8.84 0,-0.18 -0.12,-0.25 -0.19,-0.27 -0.63,-0.16 -1.21,-0.15 -1.72,-0.05 -0.14,0.02 -0.26,0.14 -0.26,0.29 v 1.17 c 0,0.14 -0.14,0.15 -0.21,0.14 -1.54,-0.24 -2.01,-1.58 -0.24,-2.27 0.9,-0.35 2.11,-0.44 3.48,0.31 0.3,0.16 0.52,0.32 0.78,0.57 0.13,0.11 0.04,0.24 0,0.27 -0.11,0.08 -0.22,0.16 -0.33,0.23 -0.1,0.06 -0.22,0.13 -0.34,0.19 -0.03,0.01 -0.1,0.07 -0.1,0.22 v 1.2 c 0,0.13 0.12,0.18 0.2,0.15 0.19,-0.06 0.43,-0.16 0.7,-0.29 0.26,-0.13 0.55,-0.29 0.82,-0.49 0.05,-0.04 0.21,-0.08 0.26,0 1.86,2.7 5.28,7.78 5.7,8.31 1.16,1.43 2.11,2.25 3.24,2.87 0.12,0.09 0.19,0.15 0.18,0.31 -0.06,1.06 -0.01,1.94 0.32,3.13 0.45,1.62 1.54,3.1 3.14,3.9 1.59,0.8 4.24,0.44 5.31,-1.01 0.04,-0.05 0.13,-0.27 -0.02,-0.35 C 82.7,93.45 82.3,93.04 82,92.5 81.79,92.12 81.66,91.73 81.61,91.37 81.6,91.26 81.48,91.21 81.42,91.3 c -0.09,0.14 -0.2,0.28 -0.31,0.39 -0.39,0.4 -0.95,0.62 -1.58,0.62 -0.83,0 -1.65,-0.5 -2.01,-1.34 -0.39,-0.91 -0.58,-1.96 -0.58,-3 0,0 0,0 0,0 0,-0.62 0.05,-1.24 0.17,-1.82 0.68,-3.33 1.96,-6.38 2.97,-9.61 0.11,-0.36 0.22,-0.72 0.33,-1.08 0.04,-0.16 0.15,-0.27 0.33,-0.23 0.16,0.03 0.32,0.09 0.49,0.15 4.18,1.54 8.92,6.32 5.79,10.4 -0.09,0.12 0.01,0.22 0.11,0.19 0.7,-0.27 1.61,-0.44 2.61,-0.44 1.07,0 2.04,0.19 2.76,0.5 0.07,0.05 0.18,-0.02 0.17,-0.13 0,0 0,0 0,0 0,-0.03 -0.01,-0.07 -0.05,-0.11 -0.44,-0.6 -1.22,-1.91 -1.77,-3.95 -0.68,-2.51 -2.88,-10.29 -3.58,-12.8 -0.62,-2.19 -2.02,-5.67 -0.5,-7.76 0.07,-0.09 0,-0.29 -0.22,-0.22 -0.64,0.18 -1.48,0.29 -2.39,0.29 -0.78,0 -1.5,-0.08 -2.1,-0.21 -0.13,-0.06 -0.29,0.08 -0.21,0.22 0.23,0.41 0.42,1.04 0.23,1.81 -0.11,0.81 -5.09,14.93 -5.87,17.38 -0.5,1.57 -1.07,3.14 -1.42,4.67 -0.01,0.07 -0.12,0.15 -0.25,0.07 C 74.27,85.1 73.89,84.81 73.65,84.6 72.34,83.43 71.62,82.41 70.77,81.15 70.7,81.02 70.66,80.94 70.66,80.72 v -4.94 c 0,-0.31 0.13,-0.58 0.45,-0.58 0.71,0 1.44,0 2.16,0 0.87,0.01 1.85,0.49 2.14,1.64 0.04,0.15 0.15,0.21 0.23,0.12 0.03,-0.71 0.17,-1.53 0.43,-2.39 0.28,-0.92 0.67,-1.74 1.09,-2.38 0,0 0,0 0,0 0.03,-0.15 -0.13,-0.28 -0.28,-0.1 -0.75,0.87 -2.45,1.33 -3.55,1.41 -0.15,0.01 -0.3,0.01 -0.43,0.01 H 71 c -0.28,0 -0.43,-0.25 -0.43,-0.52 v -5.87 c 0.38,-0.42 0.79,-0.78 1.22,-1.01 1.01,-0.55 2.52,-0.67 3.51,0.39 0.68,0.73 -0.34,1.04 -0.65,1.6 -0.3,0.55 -0.07,1.05 0.19,1.35 0.62,0.7 1.82,0.44 2.25,-0.34 0.2,-0.37 0.3,-1.06 0.29,-1.42 -0.02,-0.74 -0.28,-1.75 -1.4,-2.63 -0.29,-0.22 -0.62,-0.41 -0.99,-0.54 -0.36,-0.13 -0.74,-0.23 -1.14,-0.28 -0.19,-0.02 -0.39,-0.03 -0.59,-0.04 -0.39,0 -0.79,0.02 -1.18,0.09 -0.19,0.03 -0.37,0.08 -0.55,0.14 -0.16,0.05 -0.32,0.11 -0.48,0.19 -0.15,0.07 -0.31,0.16 -0.46,0.25 v -5.99 c 0,-0.33 0.19,-0.47 0.39,-0.47 h 4.72 c 1.75,0 3.22,0.62 4.2,2.13 0.09,0.15 0.27,0.13 0.26,-0.08 -0.05,-0.67 0,-1.47 0.19,-2.3 0.18,-0.8 0.47,-1.52 0.81,-2.09 0.09,-0.1 0.03,-0.24 -0.09,-0.26 z m 2.73,9.03 c 0.06,0 0.13,0.03 0.17,0.13 0.15,0.6 0.27,1.04 0.43,1.65 0.7,2.81 1.41,5.69 2.15,8.53 0.12,0.5 0.28,1.02 0.38,1.53 0,0.03 0,0.06 0,0.08 0,0.02 -0.01,0.04 -0.03,0.05 -0.03,0.02 -0.09,0 -0.17,-0.07 -0.51,-0.47 -1.69,-1.36 -3.44,-2.25 -0.47,-0.24 -0.88,-0.41 -1.6,-0.67 -0.16,-0.05 -0.31,-0.11 -0.46,-0.19 -0.08,-0.04 -0.14,-0.11 -0.11,-0.26 0.06,-0.26 2.38,-7.77 2.44,-8 0.04,-0.17 0.04,-0.18 0.1,-0.37 0.02,-0.09 0.09,-0.15 0.16,-0.16 z m -0.94,16.7 c -0.6,0.05 -1.1,0.52 -1.17,1.35 -0.11,1.17 0.98,1.23 0.65,2.12 -0.02,0.06 -0.04,0.14 -0.14,0.27 -0.32,0.45 -1.61,1.46 -3.98,1.38 -0.03,0 -0.07,0 -0.12,0.03 -0.04,0.02 -0.08,0.06 -0.1,0.13 -0.11,0.6 -0.14,1.23 -0.07,1.83 0.01,0.19 0.15,0.19 0.21,0.19 2.31,-0.06 4.6,-1.26 5.63,-3.53 0.2,-0.46 0.35,-0.91 0.47,-1.4 0.17,-0.73 0.17,-1.73 -0.52,-2.2 -0.14,-0.09 -0.4,-0.17 -0.57,-0.19 -0.09,0 -0.17,0 -0.26,0 z m -14.31,1.8 c -0.05,0 -0.12,0.06 -0.12,0.16 0,3.11 0,5.2 0,5.23 -0.02,0.94 -0.34,1.89 -1.06,2.81 -0.07,0.09 -0.01,0.24 0.1,0.2 0.56,-0.15 1.22,-0.25 1.93,-0.25 0.83,0 1.59,0.12 2.21,0.34 0.08,0.02 0.22,-0.05 0.11,-0.17 -0.76,-0.92 -1.11,-1.89 -1.15,-2.84 0,-0.83 0,-1.59 0,-2.42 0,-0.26 -0.1,-0.42 -0.15,-0.48 -0.18,-0.22 -0.35,-0.44 -0.51,-0.68 -0.35,-0.52 -0.85,-1.19 -1.3,-1.84 -0.01,-0.02 -0.03,-0.03 -0.05,-0.03 z"
         style="display:inline;fill:#ffffff;fill-opacity:1;fill-rule:nonzero;stroke:none;stroke-width:0.278571" />
      <path
         d="m 75,101.18 c -12.09,0 -21.93,-11.75 -21.93,-26.19 0,-14.44 9.83,-26.18 21.92,-26.18 12.09,0 21.93,11.74 21.93,26.18 0,14.44 -9.83,26.18 -21.93,26.19 m 0,-53.23 c -12.56,0 -22.78,12.13 -22.78,27.04 0,14.91 10.22,27.04 22.78,27.04 12.56,0 22.78,-12.13 22.78,-27.04 0,-14.91 -10.22,-27.04 -22.78,-27.04"
         style="fill:#ffffff;fill-opacity:1;fill-rule:nonzero;stroke:none;stroke-width:0.303571"
         id="path4482-2"
         inkscape:connector-curvature="0" />
      <path
         d="m 62.23,23.13 0.16,0.22 c 2.72,3.61 7.44,5.76 12.62,5.76 5.15,0 9.86,-2.14 12.6,-5.73 l 0.18,-0.24 c 0.45,0.11 0.89,0.22 1.34,0.35 l -0.51,0.66 c -2.97,3.9 -8.06,6.23 -13.61,6.23 -5.57,0 -10.67,-2.34 -13.64,-6.27 l -0.48,-0.64 c 0.44,-0.12 0.89,-0.23 1.34,-0.34 m 1.65,-0.65 c 2.42,3.09 6.57,4.93 11.14,4.93 4.55,0 8.69,-1.83 11.12,-4.9 0.38,0.21 0.78,0.38 1.21,0.51 l -0.08,0.1 c -2.65,3.48 -7.23,5.56 -12.26,5.56 -5.04,0 -9.63,-2.09 -12.28,-5.59 l -0.06,-0.08 c 0.42,-0.13 0.83,-0.31 1.2,-0.52 m 1.39,-1.12 c 2.06,2.53 5.64,4.22 9.71,4.22 4.06,0 7.63,-1.67 9.7,-4.2 0.32,0.34 0.67,0.65 1.07,0.91 -2.34,2.95 -6.34,4.7 -10.75,4.7 -4.41,0 -8.42,-1.76 -10.77,-4.73 0.38,-0.25 0.71,-0.56 1.03,-0.9 M 75,7.58 c 6.14,0 11.14,3.94 11.14,8.78 0,4.84 -5,8.78 -11.14,8.78 -6.14,0 -11.14,-3.94 -11.14,-8.78 0,-4.84 5,-8.78 11.14,-8.78 m 1.61,26.2 c -0.26,0.32 -0.5,0.67 -0.7,1.05 -0.41,0.74 -0.71,1.51 -0.9,2.25 -0.18,-0.74 -0.49,-1.51 -0.9,-2.26 -0.2,-0.37 -0.44,-0.72 -0.7,-1.05 0.87,-0.65 1.23,-1.39 1.2,-2.5 0,-0.13 -0.02,-0.3 -0.05,-0.45 0.16,0 0.32,0 0.48,0 0.14,0 0.29,0 0.43,0 -0.02,0.15 -0.05,0.32 -0.05,0.45 -0.02,1.1 0.32,1.84 1.21,2.5 m -29.31,4.72 c 0.86,-0.1 1.63,-0.54 2.17,-1.23 0.53,-0.68 0.76,-1.54 0.66,-2.4 -0.01,-0.11 -0.11,-0.19 -0.23,-0.18 -0.11,0.01 -0.2,0.12 -0.18,0.23 0.09,0.75 -0.11,1.49 -0.57,2.09 -0.46,0.59 -1.13,0.98 -1.88,1.07 -0.95,0.11 -1.89,-0.14 -2.65,-0.73 -0.75,-0.58 -1.24,-1.43 -1.36,-2.39 -0.2,-1.65 0.5,-3.29 1.86,-4.26 0,0 0,0 0,0 4.7,-3.16 9.86,-5.54 15.34,-7.08 l 0.59,0.77 c 2.88,3.81 7.71,6.17 13.06,6.42 0.04,0.19 0.06,0.37 0.06,0.48 0.02,1.03 -0.31,1.66 -1.21,2.27 -0.05,0.03 -0.08,0.08 -0.09,0.14 0,0.06 0.01,0.12 0.05,0.16 0.3,0.34 0.57,0.73 0.81,1.15 0.61,1.11 0.98,2.26 1.06,3.32 0.01,0.11 0.11,0.21 0.22,0.19 0.12,0.01 0.21,-0.08 0.21,-0.19 0.07,-1.05 0.44,-2.2 1.05,-3.31 0.23,-0.41 0.5,-0.8 0.8,-1.15 0.04,-0.04 0.05,-0.1 0.05,-0.16 0,-0.06 -0.04,-0.11 -0.09,-0.15 -0.9,-0.6 -1.24,-1.24 -1.21,-2.27 0,-0.11 0.02,-0.28 0.06,-0.48 5.34,-0.22 10.19,-2.57 13.08,-6.38 l 0.61,-0.8 c 5.46,1.54 10.6,3.91 15.29,7.07 0,0 0,0 0,0 1.35,0.97 2.07,2.6 1.86,4.26 -0.11,0.95 -0.6,1.8 -1.36,2.39 -0.75,0.59 -1.7,0.84 -2.65,0.72 -0.75,-0.09 -1.42,-0.47 -1.88,-1.07 -0.46,-0.59 -0.66,-1.33 -0.57,-2.09 0.01,-0.11 -0.06,-0.22 -0.18,-0.23 -0.12,-0.01 -0.22,0.06 -0.23,0.18 -0.1,0.86 0.12,1.72 0.66,2.4 0.53,0.68 1.3,1.12 2.17,1.23 1.06,0.13 2.12,-0.15 2.97,-0.81 0.84,-0.66 1.39,-1.61 1.52,-2.67 0.22,-1.81 -0.55,-3.59 -2.03,-4.66 0,0 0,0 -0.01,-0.01 C 99.88,26.79 94.05,24.21 87.83,22.69 86.7,22.42 85.74,21.81 85,21 c 1,-1.36 1.59,-2.95 1.59,-4.64 0,-5.08 -5.19,-9.21 -11.57,-9.21 -6.38,0 -11.57,4.13 -11.57,9.21 0,1.69 0.58,3.27 1.59,4.64 -0.74,0.8 -1.71,1.41 -2.84,1.69 -0.56,0.13 -1.12,0.28 -1.68,0.44 -0.01,0 -0.02,0 -0.03,0.01 -5.57,1.55 -10.82,3.96 -15.6,7.18 0,0 0,0 -0.01,0.01 -1.47,1.06 -2.25,2.85 -2.02,4.66 0.13,1.06 0.67,2.01 1.52,2.67 0.84,0.65 1.9,0.94 2.97,0.81"
         style="fill:#ffffff;fill-opacity:1;fill-rule:nonzero;stroke:none;stroke-width:0.303571"
         id="path10326-1"
         inkscape:connector-curvature="0" />
      <path
         d="m 85.62,142.96 c -0.19,0 -0.35,0.15 -0.35,0.35 0,0.19 0.15,0.35 0.35,0.35 0.19,0 0.35,-0.15 0.35,-0.35 0,-0.19 -0.15,-0.35 -0.35,-0.35"
         style="fill:#ffffff;fill-opacity:1;fill-rule:nonzero;stroke:none;stroke-width:0.303571"
         id="path10362-9"
         inkscape:connector-curvature="0" />
      <path
         d="m 85.62,7.03 c 0.19,0 0.35,-0.15 0.35,-0.35 0,-0.19 -0.15,-0.35 -0.35,-0.35 -0.19,0 -0.35,0.15 -0.35,0.35 0,0.19 0.15,0.35 0.35,0.35"
         style="fill:#ffffff;fill-opacity:1;fill-rule:nonzero;stroke:none;stroke-width:0.303571"
         id="path11358-5"
         inkscape:connector-curvature="0" />
      <path
         d="m 75,142.4 c -6.14,0 -11.14,-3.94 -11.14,-8.78 0,-4.84 5,-8.78 11.14,-8.78 6.14,0 11.14,3.94 11.14,8.78 0,4.84 -5,8.78 -11.14,8.78 M 64.22,127.71 c 2.35,-2.94 6.35,-4.7 10.75,-4.7 4.42,0 8.42,1.76 10.77,4.73 -0.38,0.25 -0.72,0.56 -1.03,0.88 -2.06,-2.53 -5.64,-4.21 -9.71,-4.21 -4.06,0 -7.64,1.68 -9.7,4.2 -0.32,-0.33 -0.67,-0.64 -1.07,-0.91 m -1.58,-0.74 0.08,-0.1 c 2.65,-3.48 7.23,-5.56 12.26,-5.56 5.04,0 9.63,2.09 12.28,5.59 l 0.06,0.08 c -0.42,0.13 -0.83,0.31 -1.21,0.52 -2.42,-3.09 -6.57,-4.93 -11.14,-4.93 -4.55,0 -8.69,1.83 -11.12,4.9 -0.38,-0.21 -0.78,-0.38 -1.21,-0.51 m -0.44,-0.12 c -0.44,-0.11 -0.89,-0.22 -1.34,-0.35 l 0.5,-0.66 c 2.97,-3.9 8.06,-6.23 13.61,-6.23 5.57,0 10.67,2.34 13.64,6.27 l 0.49,0.64 c -0.44,0.12 -0.89,0.23 -1.34,0.34 l -0.16,-0.22 c -2.72,-3.61 -7.44,-5.76 -12.62,-5.76 -5.15,0 -9.86,2.14 -12.6,5.73 z M 73.4,116.19 c 0.26,-0.32 0.5,-0.67 0.7,-1.05 0.41,-0.74 0.71,-1.51 0.9,-2.25 0.18,0.74 0.49,1.5 0.9,2.25 0.2,0.37 0.44,0.73 0.7,1.05 -0.88,0.65 -1.23,1.39 -1.2,2.5 0,0.13 0.02,0.3 0.05,0.45 -0.16,0 -0.32,0 -0.48,0 -0.14,0 -0.28,0 -0.43,0 0.02,-0.15 0.05,-0.32 0.05,-0.46 0.02,-1.1 -0.32,-1.84 -1.21,-2.5 m 14.44,11.07 c 0.56,-0.13 1.12,-0.28 1.68,-0.44 0.01,0 0.02,0 0.03,0 5.57,-1.55 10.82,-3.96 15.6,-7.18 0,0 0,0 0.01,-0.01 1.47,-1.06 2.25,-2.85 2.02,-4.66 -0.13,-1.06 -0.67,-2.01 -1.52,-2.67 -0.84,-0.65 -1.9,-0.94 -2.97,-0.81 -0.86,0.1 -1.63,0.54 -2.17,1.23 -0.53,0.68 -0.77,1.54 -0.66,2.4 0.01,0.11 0.1,0.19 0.23,0.18 0.11,-0.01 0.2,-0.12 0.18,-0.23 -0.09,-0.75 0.1,-1.49 0.57,-2.09 0.46,-0.59 1.13,-0.98 1.88,-1.07 0.95,-0.11 1.89,0.13 2.65,0.72 0.75,0.59 1.24,1.44 1.36,2.39 0.2,1.65 -0.5,3.29 -1.86,4.26 0,0 0,0 0,0 -4.7,3.16 -9.86,5.54 -15.34,7.08 l -0.59,-0.77 c -2.88,-3.81 -7.71,-6.17 -13.06,-6.42 -0.03,-0.19 -0.06,-0.37 -0.06,-0.48 -0.02,-1.02 0.31,-1.66 1.21,-2.27 0.05,-0.03 0.08,-0.08 0.09,-0.15 0,-0.05 -0.01,-0.12 -0.05,-0.16 -0.3,-0.34 -0.57,-0.73 -0.81,-1.15 -0.61,-1.11 -0.98,-2.26 -1.06,-3.31 0,-0.11 -0.1,-0.21 -0.22,-0.19 -0.12,-0.01 -0.2,0.08 -0.21,0.19 -0.07,1.05 -0.44,2.2 -1.05,3.31 -0.23,0.41 -0.5,0.8 -0.8,1.15 -0.04,0.04 -0.05,0.1 -0.05,0.16 0,0.06 0.04,0.11 0.09,0.14 0.89,0.6 1.24,1.24 1.21,2.27 0,0.11 -0.02,0.28 -0.06,0.48 -5.34,0.23 -10.19,2.58 -13.08,6.38 l -0.61,0.8 c -5.46,-1.54 -10.6,-3.91 -15.29,-7.07 0,0 0,0 0,0 -1.35,-0.97 -2.07,-2.6 -1.86,-4.26 0.11,-0.95 0.6,-1.8 1.36,-2.39 0.75,-0.58 1.7,-0.84 2.65,-0.72 0.75,0.09 1.42,0.47 1.88,1.07 0.46,0.59 0.67,1.33 0.57,2.09 -0.01,0.11 0.06,0.22 0.18,0.23 0.12,0.01 0.22,-0.06 0.23,-0.18 0.1,-0.86 -0.12,-1.72 -0.66,-2.4 -0.53,-0.68 -1.3,-1.12 -2.17,-1.23 -1.06,-0.13 -2.12,0.15 -2.97,0.81 -0.84,0.66 -1.39,1.61 -1.52,2.67 -0.22,1.81 0.54,3.59 2.02,4.66 0,0 0,0 0.01,0.01 5.27,3.54 11.1,6.12 17.32,7.64 1.12,0.27 2.09,0.87 2.84,1.68 -1.01,1.36 -1.6,2.95 -1.6,4.65 0,5.08 5.19,9.21 11.57,9.21 6.38,0 11.57,-4.13 11.57,-9.21 0,-1.69 -0.59,-3.28 -1.6,-4.64 0.74,-0.8 1.71,-1.4 2.85,-1.68"
         style="fill:#ffffff;fill-opacity:1;fill-rule:nonzero;stroke:none;stroke-width:0.303571"
         id="path12766-7"
         inkscape:connector-curvature="0" />
      <path
         d="m 82.99,141.45 c -0.09,0 -0.18,0.06 -0.2,0.15 0,0.01 -0.02,0.09 -0.02,0.11 -0.08,0.47 -0.13,0.94 -0.13,1.41 0,0.1 0,0.2 0.01,0.3 -2.38,0.68 -5.62,0.99 -7.68,1 -2.05,0 -5.29,-0.31 -7.68,-1 0,-0.1 0,-0.2 0,-0.3 0,-0.46 -0.05,-0.93 -0.13,-1.39 0,-0.02 -0.02,-0.09 -0.02,-0.09 -0.02,-0.12 -0.1,-0.18 -0.21,-0.18 -0.11,0 -0.19,0.08 -0.2,0.19 0,0 0,0.05 0,0.07 0.08,0.46 0.14,0.93 0.14,1.4 0,0.11 0,0.21 0,0.32 0,0.09 -0.02,0.2 0.04,0.27 0.06,0.06 0.15,0.08 0.23,0.1 2.37,0.68 5.59,1 7.68,1.02 h 0.26 c 2.07,-0.01 5.25,-0.33 7.61,-1 0.1,-0.03 0.22,-0.05 0.29,-0.14 0.09,-0.1 0.04,-0.28 0.04,-0.4 0,-0.06 0,-0.12 0,-0.18 0,-0.46 0.05,-0.93 0.14,-1.39 0,-0.02 0,-0.09 0,-0.09 0,-0.11 -0.09,-0.19 -0.2,-0.19"
         style="fill:#ffffff;fill-opacity:1;fill-rule:nonzero;stroke:none;stroke-width:0.303571"
         id="path12770-4"
         inkscape:connector-curvature="0" />
      <path
         d="m 67.01,8.53 c 0.09,0 0.18,-0.06 0.2,-0.15 0,-0.01 0.02,-0.09 0.02,-0.11 0.08,-0.46 0.13,-0.94 0.13,-1.41 0,-0.1 0,-0.2 -0.01,-0.3 2.38,-0.68 5.62,-0.99 7.68,-1 2.05,0 5.29,0.31 7.68,1 0,0.1 0,0.2 0,0.3 0,0.46 0.05,0.93 0.13,1.39 0,0.02 0.02,0.09 0.02,0.09 0.02,0.12 0.1,0.18 0.21,0.18 0.11,0 0.19,-0.08 0.2,-0.19 0,0 0,-0.05 0,-0.07 -0.08,-0.46 -0.14,-0.93 -0.14,-1.4 0,-0.11 0,-0.21 0,-0.32 0,-0.09 0.02,-0.2 -0.04,-0.27 C 83.03,6.18 82.94,6.16 82.86,6.14 80.48,5.45 77.27,5.13 75.17,5.12 h -0.26 c -2.07,0.01 -5.25,0.33 -7.61,1 -0.1,0.03 -0.22,0.05 -0.29,0.14 -0.09,0.1 -0.04,0.28 -0.04,0.41 0,0.06 0,0.12 0,0.18 0,0.46 -0.05,0.93 -0.14,1.39 0,0.03 0,0.09 0,0.09 0,0.11 0.09,0.19 0.2,0.19"
         style="fill:#ffffff;fill-opacity:1;fill-rule:nonzero;stroke:none;stroke-width:0.303571"
         id="path12774-6"
         inkscape:connector-curvature="0" />
      <path
         style="fill:#ffffff;fill-opacity:1;fill-rule:nonzero;stroke:none;stroke-width:0.303571"
         d="m 74.97,3.84 c -2.82,0 -6.96,0.51 -9.4,1.48 -0.06,0.02 -0.11,0.07 -0.12,0.14 -0.01,0.04 0,0.09 0,0.13 0.08,0.41 0.12,0.83 0.12,1.25 0,0.88 -0.19,1.75 -0.56,2.6 h 0.02 c -0.43,1.12 -1.22,2.2 -2.34,3.18 h -0.01 c -0.49,0.46 -1.05,0.9 -1.66,1.33 h -3.4 c -0.02,0 -0.1,0 -0.14,0.02 -0.85,0.39 -1.77,0.74 -2.74,1.04 -2.98,0.91 -4.97,1.33 -8.36,1.33 -6.39,0 -11.36,-1.32 -14.08,-3.73 H 32.27 C 31.69,12.1 31.19,11.56 30.79,11 30.72,10.91 30.65,10.83 30.58,10.73 V 10.7 C 30.33,10.41 30.16,10.1 30.02,9.78 H 29.91 C 29.68,9.38 29.47,8.95 29.29,8.47 h 8.31 c 0.11,0 0.21,-0.09 0.21,-0.21 0,-0.11 -0.09,-0.21 -0.21,-0.21 h -8.57 c -0.11,0 -0.21,0.09 -0.21,0.21 0,0 -0.01,0.11 0,0.17 0.7,1.97 1.84,3.25 2.86,4.25 2.72,2.66 7.93,4.12 14.67,4.12 3.44,0 5.46,-0.43 8.45,-1.34 1.01,-0.31 1.94,-0.66 2.81,-1.06 h 2.74 c -1.46,0.9 -3.2,1.67 -5.16,2.28 0,0 0,0 -0.01,0 -3.1,0.95 -5.22,1.4 -8.82,1.4 -7.06,0 -12.59,-1.59 -15.56,-4.48 -1.52,-1.47 -3.12,-3.42 -3.7,-6.71 h 36 c 0.11,0 0.21,-0.09 0.21,-0.21 0,-0.11 -0.09,-0.21 -0.21,-0.21 H 26.94 c -0.09,0 -0.19,0 -0.25,0.08 -0.05,0.06 -0.05,0.15 -0.05,0.23 0,0.08 -0.01,0.16 -0.01,0.25 0.1,0.45 0.22,0.89 0.36,1.32 0,-0.02 0,-0.05 0,-0.07 0.07,0.25 0.15,0.5 0.23,0.74 0.01,0.03 0.02,0.06 0.03,0.09 0.06,0.17 0.13,0.33 0.2,0.5 1.39,3.14 3.81,5.31 6.75,6.72 0.12,0.06 0.25,0.12 0.38,0.18 0,0 0,0 0,-0.01 2.92,1.23 6.71,1.92 11.1,1.98 -0.01,0.01 -0.02,0.02 -0.03,0.03 0.2,0 0.4,0 0.6,0 0,0 0.01,-0.01 0.02,-0.02 h 0.05 c 0.23,0 0.44,0 0.66,-0.01 2.24,-0.11 4.44,-0.43 6.46,-0.89 0.56,-0.15 1.13,-0.3 1.76,-0.5 0.01,0 0.02,0 0.04,0 5.21,-1.6 8.86,-4.38 10.17,-7.58 0.04,-0.1 0.13,-0.33 0.19,-0.54 0.22,-0.68 0.33,-1.39 0.33,-2.1 0,-0.39 -0.03,-0.8 -0.11,-1.2 2.48,-0.93 6.43,-1.41 9.15,-1.41 h 0.05 c 2.72,0 6.67,0.47 9.07,1.38 -0.07,0.39 -0.11,0.8 -0.11,1.2 0,0.78 0.14,1.55 0.4,2.31 0.08,0.22 0.15,0.41 0.22,0.56 1.38,3.1 4.99,5.79 10.07,7.36 0.01,0 0.03,0 0.04,0 0.47,0.14 0.9,0.25 1.34,0.38 2.26,0.54 4.76,0.91 7.3,1.02 0.08,0 0.15,0 0.24,0 h 0.05 c 0,0 0,0 0,0 0.2,0 0.4,0 0.6,0.01 0,0 -0.01,-0.01 -0.01,-0.02 4.38,-0.06 8.16,-0.74 11.09,-1.98 0,0 0,0 0,0.01 3.4,-1.53 6.13,-4.04 7.48,-7.83 0.04,-0.13 0.09,-0.27 0.13,-0.41 0,0.01 0,0.02 0,0.04 0.14,-0.43 0.26,-0.88 0.36,-1.34 0,-0.06 0,-0.13 0,-0.2 0,-0.08 0,-0.17 -0.05,-0.23 -0.06,-0.08 -0.16,-0.08 -0.26,-0.08 H 86.89 c -0.11,0 -0.21,0.09 -0.21,0.21 0,0.11 0.09,0.21 0.21,0.21 h 36 c -0.58,3.29 -2.18,5.24 -3.68,6.7 -2.96,2.89 -8.49,4.48 -15.56,4.48 -3.6,0 -5.71,-0.45 -8.82,-1.4 0,0 0,0 -0.01,0 -1.96,-0.6 -3.69,-1.38 -5.16,-2.28 h 2.73 c 0.86,0.39 1.79,0.74 2.81,1.06 2.98,0.91 5.01,1.34 8.45,1.34 6.73,0 11.94,-1.46 14.67,-4.12 1.02,-0.99 2.16,-2.27 2.86,-4.25 0.01,-0.05 0,-0.16 0,-0.17 0,-0.11 -0.09,-0.21 -0.21,-0.21 h -8.57 c -0.11,0 -0.21,0.09 -0.21,0.21 0,0.11 0.09,0.21 0.21,0.21 h 8.31 c -0.18,0.47 -0.39,0.91 -0.61,1.31 h -0.05 c -0.46,1.01 -1.21,1.97 -2.23,2.85 h -0.07 c -2.72,2.41 -7.69,3.73 -14.08,3.73 -3.38,0 -5.38,-0.42 -8.36,-1.33 -0.96,-0.29 -1.89,-0.65 -2.74,-1.04 -0.03,-0.01 -0.11,-0.02 -0.14,-0.02 h -3.45 c -0.65,-0.41 -1.24,-0.89 -1.76,-1.38 h 0.02 C 87.09,12.41 86.94,12.27 86.8,12.12 H 86.79 C 86.77,12.1 86.74,12.07 86.71,12.04 v -0.02 c -0.14,-0.15 -0.29,-0.31 -0.42,-0.47 v 0.01 C 86.28,11.54 86.26,11.52 86.24,11.49 86.13,11.36 86.02,11.22 85.92,11.07 85.85,10.97 85.77,10.86 85.7,10.75 85.5,10.44 85.33,10.12 85.18,9.8 h -0.06 c -0.46,-0.96 -0.7,-1.94 -0.7,-2.95 0,-0.42 0.04,-0.84 0.12,-1.25 0.01,-0.04 0.01,-0.08 0,-0.13 C 84.54,5.4 84.49,5.34 84.43,5.32 81.99,4.35 77.85,3.84 75.02,3.84 Z M 23.22,6.47 c 0,0 0,0 0,0 H 6.68 c -0.11,0 -0.21,0.09 -0.21,0.21 v 16.54 c 0,0.11 0.09,0.21 0.21,0.21 0.35,0 0.7,-0.01 1.05,-0.03 v 1.09 c 0,0.11 0.09,0.21 0.21,0.21 0.06,0 0.13,0 0.2,0 l 0.01,-0.92 v -0.4 c 0,0 0,0 0,0 v -0.43 c 0,0 0,0 0,0 V 8.16 h 14.79 c 0,0 0,0 0,0.01 h 0.42 c 0,0 0,0 0,0 h 0.91 v 0 h 0.42 c 0,-0.07 0,-0.14 0,-0.21 v 0 c 0,-0.11 -0.09,-0.21 -0.21,-0.21 v 0 H 23.4 c 0.02,-0.36 0.04,-0.72 0.04,-1.07 v 0 c 0,-0.11 -0.09,-0.21 -0.21,-0.21 z m 103.55,0 c -0.11,0 -0.21,0.09 -0.21,0.21 v 0 c 0,0.35 0.01,0.7 0.03,1.05 h -1.09 v 0 c -0.11,0 -0.21,0.09 -0.21,0.21 v 0 c 0,0.07 0,0.15 0,0.23 h 0.42 c 0,0 0,-0.01 0,-0.02 h 0.9 c 0,0.01 0,0.02 0,0.03 h 0.42 c 0,-0.01 0,-0.02 0,-0.03 h 14.77 v 12.22 l 0.03,4.33 c 0.05,0 0.11,0 0.17,0 v 0 c 0.11,0 0.21,-0.09 0.21,-0.21 0,0 0,0 0,0 v -1.08 c 0.35,0.02 0.7,0.03 1.05,0.03 v 0 c 0.11,0 0.21,-0.09 0.21,-0.21 0,0 0,0 0,0 V 6.68 c 0,-0.11 -0.09,-0.21 -0.21,-0.21 h -16.54 c 0,0 0,0 0,0 z M 6.89,6.89 H 23 c 0,0.28 -0.01,0.56 -0.03,0.84 H 7.95 C 7.84,7.73 7.74,7.82 7.74,7.94 V 22.97 C 7.46,22.98 7.18,22.99 6.9,23 Z m 120.1,0 H 143.1 V 23 c -0.28,0 -0.56,-0.01 -0.84,-0.03 V 7.95 c 0,-0.11 -0.09,-0.21 -0.21,-0.21 H 127.03 C 127.02,7.46 127.01,7.18 127,6.9 Z m 16.1,19.72 c -5.3,1.17 -8.46,4.78 -10.11,9.29 -0.92,2.7 -1.43,6.01 -1.48,9.75 0.03,2.93 0.43,5.83 1.07,8.41 0.11,0.38 0.2,0.75 0.33,1.17 0,0.01 0,0.03 0,0.04 v 0 c 0,0 0,0 0,0 1.04,3.39 2.61,6.18 4.52,8.07 0,0 0.01,0.01 0.02,0.01 v 1.05 c -1.16,-0.67 -2.46,-1.05 -3.82,-1.06 -1.69,0 -3.27,0.58 -4.64,1.59 -0.8,-0.74 -1.41,-1.71 -1.68,-2.84 0,0 0,-0.01 0,-0.01 -0.13,-0.55 -0.28,-1.1 -0.43,-1.65 0,-0.02 0,-0.04 -0.01,-0.05 -1.55,-5.57 -3.97,-10.82 -7.19,-15.6 0,0 0,0 -0.01,-0.01 -1.06,-1.47 -2.84,-2.25 -4.65,-2.02 -1.06,0.13 -2.01,0.67 -2.67,1.52 -0.65,0.85 -0.94,1.9 -0.81,2.97 0.1,0.86 0.54,1.63 1.23,2.17 0.57,0.45 1.27,0.68 1.99,0.68 0.13,0 0.27,0 0.41,-0.02 0.11,-0.01 0.19,-0.12 0.18,-0.23 -0.01,-0.11 -0.11,-0.2 -0.23,-0.18 -0.75,0.09 -1.49,-0.11 -2.09,-0.57 -0.59,-0.46 -0.97,-1.13 -1.07,-1.88 -0.11,-0.95 0.13,-1.89 0.72,-2.65 0.59,-0.76 1.43,-1.24 2.39,-1.36 1.65,-0.2 3.29,0.5 4.26,1.86 0,0 0,0 0,0 3.16,4.7 5.54,9.86 7.08,15.35 l -0.77,0.58 c -4.03,3.04 -6.44,8.27 -6.44,13.98 0,5.68 2.39,10.9 6.4,13.95 l 0.8,0.61 c -1.54,5.46 -3.91,10.6 -7.07,15.29 0,0 0,0 0,0 -0.97,1.35 -2.61,2.07 -4.26,1.86 -0.95,-0.12 -1.8,-0.6 -2.39,-1.36 -0.59,-0.75 -0.85,-1.7 -0.72,-2.65 0.09,-0.74 0.47,-1.42 1.07,-1.88 0.59,-0.46 1.33,-0.67 2.09,-0.57 0.12,0.01 0.22,-0.06 0.23,-0.18 0.01,-0.11 -0.06,-0.22 -0.18,-0.23 -0.86,-0.1 -1.72,0.12 -2.41,0.66 -0.68,0.53 -1.12,1.3 -1.23,2.17 -0.13,1.06 0.15,2.12 0.81,2.96 0.66,0.85 1.61,1.39 2.67,1.52 0.2,0.02 0.41,0.03 0.62,0.03 1.58,0 3.08,-0.75 4.02,-2.05 0,0 0.01,-0.01 0.02,-0.02 3.21,-4.76 5.61,-9.99 7.17,-15.55 0,-0.01 0.01,-0.02 0.01,-0.04 0.15,-0.56 0.3,-1.12 0.44,-1.69 0.02,-0.03 0.03,-0.07 0.03,-0.11 0.28,-1.09 0.88,-2.02 1.66,-2.75 1.36,1 2.94,1.59 4.64,1.59 1.36,0 2.65,-0.38 3.82,-1.05 v 1.06 c 0,0 -0.02,0.01 -0.02,0.01 -1.73,1.71 -3.17,4.16 -4.2,7.12 -1.03,3.18 -1.7,7.07 -1.71,10.99 0.08,3.44 0.55,6.5 1.37,9.06 1.62,4.67 4.8,8.41 10.25,9.6 v 0 c 0.04,0 0.09,0 0.14,0 0,0 0,0 0,0 0.03,0 0.07,0 0.1,-0.01 0.07,-0.02 0.12,-0.08 0.13,-0.15 v 0 c 0,-0.01 0,-0.02 0,-0.03 0,0 0,0 0,0 V 94.56 c 0,-0.11 -0.09,-0.21 -0.21,-0.21 -0.11,0 -0.21,0.09 -0.21,0.21 v 28.34 c -3.29,-0.58 -5.24,-2.19 -6.7,-3.69 -2.89,-2.96 -4.48,-8.49 -4.48,-15.56 0,-3.6 0.45,-5.72 1.4,-8.83 0,-0.01 0,-0.02 0,-0.04 0.6,-1.94 1.37,-3.67 2.28,-5.15 v 2.7 c 0,0.01 0,0.01 0,0.02 -0.39,0.86 -0.75,1.8 -1.06,2.79 l -0.01,0.05 c -0.91,2.97 -1.34,4.99 -1.34,8.43 0,6.73 1.46,11.94 4.12,14.67 0.99,1.02 2.27,2.16 4.25,2.86 0.11,0.03 0.2,0.04 0.27,0 0.05,-0.03 0.11,-0.11 0.11,-0.23 v -8.55 c 0,-0.11 -0.09,-0.21 -0.21,-0.21 -0.11,0 -0.21,0.09 -0.21,0.21 v 8.31 c -0.47,-0.18 -0.9,-0.39 -1.3,-0.61 v -0.12 c -0.32,-0.14 -0.64,-0.31 -0.95,-0.51 h -0.03 c -0.05,-0.03 -0.09,-0.07 -0.14,-0.11 -0.63,-0.43 -1.25,-0.97 -1.83,-1.64 v -0.09 c -2.34,-2.74 -3.63,-7.66 -3.63,-13.96 0,-3.38 0.42,-5.38 1.33,-8.32 0.3,-1 0.65,-1.93 1.05,-2.78 0.02,-0.05 0.02,-0.1 0,-0.15 0,-0.01 0.02,-0.03 0.02,-0.05 v -3.38 c 0.44,-0.65 0.92,-1.24 1.42,-1.78 v 0.02 c 0.14,-0.15 0.28,-0.3 0.42,-0.44 v -0.07 h 0.06 c 0.16,-0.15 0.33,-0.28 0.49,-0.42 h -0.56 v -0.85 h 1.81 c 0.17,-0.09 0.35,-0.17 0.53,-0.24 v -2.11 c 0.12,-0.15 0.23,-0.31 0.35,-0.48 1.56,2.43 2.5,5.31 2.53,8.42 0,0.04 0,0.09 0,0.14 0,0.11 0.08,0.21 0.2,0.22 0,0 0,0 0,0 0,0 0,0 0,0 0.11,0 0.21,-0.09 0.21,-0.21 0,-0.04 0,-0.09 0,-0.14 0.19,-5.05 -0.04,-8.44 -1.58,-11.06 0.56,-1.5 0.89,-3.17 0.89,-4.94 0,-1.76 -0.32,-3.43 -0.88,-4.92 1.54,-2.62 1.77,-6.01 1.58,-11.07 0,-0.04 0,-0.09 0,-0.14 0,-0.11 -0.09,-0.21 -0.21,-0.21 0,0 0,0 0,0 0,0 0,0 0,0 -0.11,0 -0.21,0.1 -0.2,0.22 0,0.04 0,0.09 0,0.14 -0.02,3.1 -0.96,5.98 -2.53,8.41 -0.11,-0.16 -0.22,-0.32 -0.35,-0.48 v -1.92 c -0.28,-0.12 -0.56,-0.26 -0.83,-0.43 h -1.5 v -0.85 h 0.34 c -0.33,-0.29 -0.65,-0.6 -0.97,-0.96 v -0.17 c -0.42,-0.47 -0.83,-0.98 -1.22,-1.55 v -3.42 c 0,-0.02 -0.01,-0.03 -0.02,-0.05 0.01,-0.04 0.01,-0.1 0,-0.15 -0.39,-0.85 -0.74,-1.77 -1.05,-2.78 -0.9,-2.94 -1.33,-4.94 -1.33,-8.32 0,-6.29 1.28,-11.21 3.63,-13.96 v -0.08 c 0.92,-1.07 1.9,-1.91 2.96,-2.37 v -0.02 c 0.39,-0.22 0.83,-0.43 1.3,-0.61 v 8.31 c 0,0.11 0.09,0.21 0.21,0.21 0.11,0 0.21,-0.09 0.21,-0.21 v -8.55 c 0,-0.11 -0.05,-0.19 -0.11,-0.23 -0.07,-0.04 -0.16,-0.03 -0.27,0 -1.97,0.7 -3.25,1.84 -4.25,2.86 -2.66,2.72 -4.12,7.93 -4.12,14.67 0,3.44 0.43,5.46 1.34,8.43 l 0.01,0.05 c 0.3,0.98 0.66,1.92 1.06,2.79 0,0.01 0,0.01 0,0.02 v 2.7 c -0.91,-1.47 -1.68,-3.2 -2.28,-5.15 0,-0.01 0,-0.02 0,-0.04 -0.95,-3.11 -1.4,-5.22 -1.4,-8.82 0,-7.07 1.59,-12.59 4.48,-15.56 1.46,-1.5 3.41,-3.1 6.7,-3.69 v 28.34 c 0,0.11 0.09,0.21 0.21,0.21 0.11,0 0.21,-0.09 0.21,-0.21 V 26.84 c 0,0 0,0 0,0 0,-0.01 0,-0.02 0,-0.03 v 0 c -0.01,-0.07 -0.06,-0.13 -0.13,-0.16 -0.03,-0.01 -0.07,-0.01 -0.1,-0.01 0,0 0,0 0,0 -0.05,0 -0.11,0 -0.17,0 z m -136.2,0 c -0.05,0 -0.1,0 -0.16,0 0,0 0,0 0,0 -0.03,0 -0.07,0 -0.1,0.01 -0.07,0.02 -0.12,0.08 -0.13,0.16 v 0 0 c 0,0.01 0,0.02 0,0.03 V 55.4 c 0,0.11 0.09,0.21 0.21,0.21 0.11,0 0.21,-0.09 0.21,-0.21 V 27.06 c 3.29,0.58 5.24,2.19 6.7,3.69 2.89,2.96 4.48,8.49 4.48,15.56 0,3.6 -0.45,5.71 -1.4,8.82 0,0.01 0,0.02 0,0.04 -0.6,1.94 -1.37,3.67 -2.28,5.15 v -2.65 c 0,0 -0.01,-0.01 -0.01,-0.02 0.4,-0.87 0.75,-1.81 1.06,-2.79 l 0.01,-0.05 c 0.91,-2.96 1.34,-4.99 1.34,-8.43 0,-6.73 -1.46,-11.94 -4.12,-14.67 -1.01,-1.05 -2.3,-2.2 -4.27,-2.9 -0.12,-0.04 -0.21,-0.05 -0.28,0 -0.06,0.04 -0.11,0.12 -0.11,0.23 v 8.55 c 0,0.11 0.09,0.21 0.21,0.21 0.11,0 0.21,-0.09 0.21,-0.21 v -8.31 c 0.47,0.18 0.9,0.39 1.3,0.61 v 0.08 c 0.31,0.14 0.62,0.34 0.92,0.55 h 0.05 c 0.37,0.27 0.71,0.56 1.02,0.85 h -0.03 c 0.27,0.26 0.53,0.53 0.8,0.83 v -0.07 c 2.47,2.69 3.83,7.71 3.83,14.19 0,3.38 -0.42,5.38 -1.33,8.32 -0.3,1 -0.65,1.93 -1.05,2.78 -0.02,0.05 -0.02,0.1 0,0.15 0,0.01 -0.01,0.03 -0.01,0.05 v 3.36 c -0.42,0.62 -0.87,1.19 -1.35,1.7 v 0.02 c -0.16,0.18 -0.33,0.34 -0.49,0.51 v 0.01 h -0.01 c -0.14,0.14 -0.3,0.29 -0.45,0.42 h 0.47 v 0.85 H 10.5 c -0.23,0.14 -0.47,0.26 -0.71,0.37 v 1.98 c -0.12,0.15 -0.23,0.32 -0.35,0.48 -1.56,-2.43 -2.5,-5.31 -2.53,-8.41 0,-0.04 0,-0.09 0,-0.14 0,-0.11 -0.08,-0.21 -0.2,-0.22 0,0 0,0 0,0 0,0 0,0 0,0 -0.11,0 -0.21,0.09 -0.21,0.21 0,0.04 0,0.09 0,0.14 -0.19,5.05 0.04,8.44 1.59,11.06 -0.56,1.5 -0.89,3.17 -0.89,4.94 0,1.76 0.32,3.43 0.89,4.93 -1.54,2.62 -1.78,6.01 -1.58,11.06 0,0.04 0,0.09 0,0.14 0,0.11 0.09,0.21 0.21,0.21 0,0 0,0 0,0 0,0 0,0 0,0 0.11,0 0.21,-0.1 0.2,-0.22 0,-0.04 0,-0.09 0,-0.14 0.03,-3.1 0.96,-5.98 2.53,-8.41 0.11,0.16 0.22,0.32 0.34,0.48 v 2.16 c 0.14,0.06 0.28,0.12 0.42,0.19 v 0 h 1.91 v 0.85 h -0.69 c 0.16,0.13 0.33,0.27 0.49,0.42 h 0.19 v 0.2 c 0.14,0.14 0.28,0.28 0.42,0.44 v -0.03 c 0.49,0.53 0.97,1.12 1.42,1.78 v 3.36 c 0,0.02 0.01,0.03 0.01,0.05 -0.01,0.04 -0.01,0.1 0,0.15 0.39,0.85 0.74,1.77 1.05,2.78 0.9,2.94 1.33,4.94 1.33,8.32 0,6.47 -1.36,11.49 -3.83,14.19 v -0.07 c -0.26,0.3 -0.54,0.58 -0.82,0.83 h 0.05 c -0.3,0.28 -0.64,0.57 -1.02,0.85 h -0.15 c -0.27,0.17 -0.54,0.32 -0.82,0.45 v 0.18 c -0.39,0.22 -0.83,0.43 -1.3,0.61 v -8.31 c 0,-0.11 -0.09,-0.21 -0.21,-0.21 -0.11,0 -0.21,0.09 -0.21,0.21 v 8.55 c 0,0.11 0.04,0.19 0.1,0.23 0.07,0.04 0.16,0.03 0.27,0 1.97,-0.7 3.25,-1.84 4.25,-2.86 2.66,-2.72 4.12,-7.93 4.12,-14.67 0,-3.44 -0.43,-5.46 -1.34,-8.43 l -0.01,-0.05 c -0.3,-0.98 -0.66,-1.92 -1.06,-2.79 0,-0.01 0.01,-0.01 0.01,-0.02 v -2.7 c 0.91,1.47 1.68,3.21 2.28,5.15 0,0.01 0,0.02 0,0.04 0.95,3.11 1.4,5.22 1.4,8.83 0,7.07 -1.59,12.6 -4.48,15.56 -1.46,1.5 -3.4,3.1 -6.7,3.69 V 94.56 c 0,-0.11 -0.09,-0.21 -0.21,-0.21 -0.11,0 -0.21,0.09 -0.21,0.21 v 28.59 c 0,0.01 0,0.02 0,0.03 v 0 c 0.01,0.07 0.06,0.13 0.13,0.15 0.03,0.01 0.06,0.02 0.1,0.01 0,0 0,0 0,0 0.15,0 0.29,0.01 0.44,0.01 0.43,-0.1 0.86,-0.22 1.27,-0.36 -0.04,0 -0.08,-0.01 -0.13,-0.01 0.52,-0.15 1.01,-0.34 1.46,-0.54 v 0.02 c 0.33,-0.15 0.66,-0.31 0.97,-0.48 h -0.03 c 0.22,-0.12 0.44,-0.25 0.65,-0.38 0.02,-0.01 0.04,-0.02 0.06,-0.04 0.2,-0.13 0.39,-0.26 0.58,-0.4 0.18,-0.13 0.37,-0.27 0.54,-0.42 0.17,-0.14 0.32,-0.28 0.48,-0.42 1.49,-1.36 2.63,-3.04 3.48,-4.93 v 0 c 1.23,-2.93 1.92,-6.71 1.97,-11.1 0,0 0,0 0,0 -0.05,-3.2 -0.53,-6.36 -1.28,-9.11 -0.04,-0.15 -0.07,-0.28 -0.12,-0.44 0,0 0,0 0,-0.01 -0.06,-0.22 -0.13,-0.43 -0.2,-0.65 -1.04,-3.11 -2.52,-5.69 -4.32,-7.47 0,0 -0.01,-0.01 -0.02,-0.01 v -1.06 c 1.16,0.67 2.45,1.05 3.82,1.05 1.69,0 3.27,-0.58 4.64,-1.59 0.76,0.7 1.35,1.61 1.64,2.67 -0.01,0.05 0,0.12 0.03,0.17 0,0 0.01,0.01 0.02,0.02 0.13,0.55 0.28,1.1 0.43,1.65 0,0 0,0.01 0,0.02 1.55,5.58 3.97,10.83 7.19,15.61 0,0 0.01,0.01 0.02,0.02 0.94,1.3 2.44,2.05 4.02,2.05 0.2,0 0.41,-0.01 0.62,-0.03 1.06,-0.13 2.01,-0.67 2.67,-1.52 0.65,-0.84 0.94,-1.9 0.81,-2.96 -0.1,-0.86 -0.54,-1.63 -1.23,-2.17 -0.68,-0.53 -1.53,-0.77 -2.4,-0.66 -0.11,0.01 -0.2,0.12 -0.18,0.23 0.01,0.11 0.1,0.19 0.23,0.18 0.75,-0.09 1.49,0.11 2.09,0.57 0.59,0.46 0.97,1.13 1.07,1.88 0.12,0.95 -0.13,1.89 -0.72,2.65 -0.59,0.75 -1.44,1.24 -2.39,1.36 -1.65,0.21 -3.29,-0.5 -4.26,-1.86 0,0 0,0 0,0 -3.16,-4.7 -5.54,-9.86 -7.08,-15.34 l 0.78,-0.59 c 4.03,-3.04 6.44,-8.27 6.44,-13.98 0,-5.68 -2.39,-10.9 -6.4,-13.95 l -0.71,-0.63 c 1.54,-5.46 3.91,-10.6 7.07,-15.29 0,0 0,0 0,0 0.97,-1.35 2.61,-2.07 4.26,-1.86 0.95,0.11 1.8,0.6 2.39,1.36 0.58,0.75 0.84,1.7 0.72,2.65 -0.09,0.75 -0.47,1.41 -1.07,1.88 -0.59,0.46 -1.33,0.66 -2.09,0.57 -0.12,-0.02 -0.22,0.06 -0.23,0.18 -0.01,0.11 0.06,0.22 0.18,0.23 0.13,0.01 0.27,0.02 0.41,0.02 0.72,0 1.41,-0.23 1.99,-0.68 0.68,-0.53 1.12,-1.3 1.23,-2.16 0.13,-1.06 -0.15,-2.12 -0.81,-2.97 -0.66,-0.84 -1.61,-1.39 -2.67,-1.52 -1.81,-0.22 -3.59,0.55 -4.66,2.02 0,0 0,0 -0.01,0.01 -3.21,4.76 -5.61,9.99 -7.17,15.55 0,0.01 -0.01,0.02 -0.01,0.04 -0.15,0.56 -0.3,1.12 -0.44,1.69 -0.02,0.03 -0.03,0.07 -0.03,0.11 -0.28,1.09 -0.88,2.02 -1.67,2.75 -1.36,-1 -2.95,-1.59 -4.64,-1.59 -1.36,0 -2.65,0.38 -3.82,1.05 v -1.05 c 0,0 0.01,-0.01 0.02,-0.02 1.86,-1.84 3.39,-4.54 4.44,-7.82 0,0 0,-0.01 0,-0.01 0.02,-0.09 0.05,-0.18 0.07,-0.28 0,0 0,0 0,-0.01 0.04,-0.16 0.08,-0.29 0.12,-0.45 0.76,-2.82 1.24,-6.06 1.27,-9.34 C 18.42,41.79 17.91,38.54 17,35.88 15.35,31.37 12.18,27.78 6.87,26.62 Z m 16.61,34.22 0.67,0.52 c 3.9,2.97 6.23,8.06 6.23,13.61 0,5.57 -2.34,10.67 -6.27,13.64 l -0.64,0.49 C 23.37,88.65 23.25,88.2 23.14,87.75 l 0.22,-0.16 c 3.61,-2.72 5.76,-7.44 5.76,-12.62 0,-5.15 -2.14,-9.86 -5.73,-12.59 L 23.15,62.2 c 0.11,-0.45 0.22,-0.89 0.35,-1.34 z m 103,0.05 c 0.12,0.44 0.23,0.89 0.34,1.34 l -0.22,0.16 c -3.61,2.72 -5.76,7.44 -5.76,12.62 0,5.15 2.14,9.86 5.73,12.59 l 0.24,0.18 c -0.11,0.44 -0.22,0.89 -0.35,1.33 l -0.66,-0.5 c -3.9,-2.97 -6.23,-8.06 -6.23,-13.61 0,-5.57 2.34,-10.67 6.27,-13.64 z m 16.64,1.41 c -0.03,3.04 -0.42,5.32 -1.42,7.2 -0.26,-0.6 -0.56,-1.18 -0.91,-1.71 1.08,-1.64 1.9,-3.49 2.33,-5.48 z m -136.31,0 c 0.43,1.99 1.24,3.84 2.32,5.49 -0.34,0.53 -0.64,1.1 -0.9,1.71 -1,-1.87 -1.38,-4.16 -1.42,-7.2 z m 16.19,0.31 0.1,0.08 c 3.48,2.65 5.56,7.23 5.56,12.25 0,5.04 -2.09,9.63 -5.59,12.28 L 23,87.27 c -0.13,-0.42 -0.31,-0.83 -0.52,-1.2 3.09,-2.42 4.93,-6.57 4.93,-11.14 0,-4.55 -1.83,-8.69 -4.9,-11.12 0.21,-0.37 0.39,-0.78 0.52,-1.21 z m 103.95,0.05 c 0.13,0.42 0.31,0.82 0.52,1.2 -3.09,2.42 -4.93,6.57 -4.93,11.14 0,4.55 1.83,8.69 4.9,11.12 -0.21,0.38 -0.38,0.78 -0.52,1.21 l -0.1,-0.08 c -3.48,-2.65 -5.56,-7.23 -5.56,-12.25 0,-5.04 2.09,-9.63 5.59,-12.28 z m -110.6,1.2 c 4.84,0 8.78,5 8.78,11.14 0,6.14 -3.94,11.14 -8.78,11.14 -4.84,0 -8.78,-5 -8.78,-11.14 0,-6.14 3.93,-11.14 8.78,-11.14 z m 117.24,0 c 4.84,0 8.78,5 8.78,11.14 0,6.14 -3.94,11.14 -8.78,11.14 -4.84,0 -8.78,-5 -8.78,-11.14 0,-6.14 3.94,-11.14 8.78,-11.14 z M 22.29,64.21 c 2.94,2.35 4.7,6.35 4.7,10.75 0,4.41 -1.76,8.42 -4.73,10.77 -0.25,-0.38 -0.56,-0.71 -0.9,-1.02 2.53,-2.06 4.22,-5.64 4.22,-9.71 0,-4.06 -1.67,-7.64 -4.2,-9.7 0.34,-0.32 0.65,-0.67 0.91,-1.07 z m 105.44,0.04 c 0.25,0.38 0.56,0.71 0.9,1.02 -2.54,2.06 -4.23,5.64 -4.23,9.72 0,4.06 1.68,7.64 4.21,9.7 -0.33,0.32 -0.65,0.67 -0.91,1.07 -2.95,-2.35 -4.7,-6.35 -4.7,-10.75 0,-4.35 1.8,-8.45 4.73,-10.77 z M 10.2,65 h 1.54 c -0.34,0.25 -0.68,0.53 -1,0.84 H 10.2 Z m 128.04,0 h 1.54 v 0.84 h -0.54 c -0.31,-0.3 -0.65,-0.59 -1,-0.84 z M 10.2,66.27 h 0.13 c -0.04,0.04 -0.08,0.09 -0.13,0.14 z m 129.45,0 h 0.13 v 0.14 c -0.04,-0.04 -0.08,-0.1 -0.13,-0.14 z M 8.26,80.47 c 0.26,0.6 0.56,1.17 0.9,1.71 -1.08,1.64 -1.89,3.49 -2.33,5.49 0.03,-3.04 0.41,-5.33 1.42,-7.2 z m 133.47,0 c 1,1.87 1.38,4.16 1.42,7.2 -0.43,-1.99 -1.24,-3.84 -2.33,-5.49 0.34,-0.53 0.64,-1.1 0.9,-1.71 z m -1.94,3.09 v 0.15 h -0.13 c 0.04,-0.04 0.08,-0.1 0.13,-0.15 z m -129.58,0 c 0.04,0.04 0.08,0.1 0.13,0.14 h -0.13 z m 0.54,0.57 c 0.31,0.31 0.65,0.59 1,0.85 H 10.2 v -0.84 z m 128.49,0 h 0.54 v 0.84 h -1.54 c 0.34,-0.25 0.68,-0.53 1,-0.84 z M 7.95,125.28 c -0.11,0 -0.21,0.09 -0.21,0.21 v 1.09 c -0.35,-0.02 -0.7,-0.03 -1.05,-0.03 -0.11,0 -0.21,0.09 -0.21,0.21 v 16.54 c 0,0.11 0.09,0.21 0.21,0.21 h 16.53 c 0.11,0 0.21,-0.09 0.21,-0.21 v 0 c 0,-0.35 -0.01,-0.7 -0.03,-1.05 h 1.08 v 0 c 0.11,0 0.21,-0.09 0.21,-0.21 v 0 c 0,-0.05 0,-0.1 0,-0.15 l -5.56,-0.06 H 8.16 v -13.08 l -0.03,-3.43 -0.02,-0.03 c -0.05,0 -0.1,0 -0.16,0 z m 134.09,0 c -0.06,0 -0.12,0 -0.19,0 l -0.01,1.76 v 0 14.77 h -14.77 c 0,0 0,0 0,0 h -0.42 c 0,0 0,0 0,0 h -0.58 -0.74 c 0,0.06 0,0.13 0,0.2 v 0 c 0,0.11 0.09,0.21 0.21,0.21 v 0 h 1.09 c -0.02,0.35 -0.03,0.7 -0.03,1.05 v 0 c 0,0.11 0.09,0.21 0.21,0.21 0,0 0,0 0,0 h 16.54 c 0.11,0 0.21,-0.09 0.21,-0.21 v -16.54 c 0,0 0,0 0,0 0,-0.11 -0.09,-0.21 -0.21,-0.21 v 0 c -0.35,0 -0.7,0.01 -1.05,0.03 v -1.08 c 0,0 0,0 0,0 0,-0.11 -0.09,-0.21 -0.21,-0.21 z m -135.15,1.7 c 0.28,0 0.56,0.01 0.84,0.03 v 15.02 c 0,0.11 0.09,0.21 0.21,0.21 h 15.03 c 0.01,0.27 0.02,0.56 0.03,0.84 H 6.89 Z m 136.21,0 v 16.11 h -16.11 c 0,-0.28 0.01,-0.56 0.03,-0.84 h 15.02 c 0.11,0 0.21,-0.09 0.21,-0.21 v -15.02 c 0.28,-0.01 0.56,-0.02 0.84,-0.03 z m -38.78,4.46 c -0.2,0 -0.4,0 -0.6,0 l -0.01,0.01 h -0.05 c -0.17,0 -0.34,0 -0.51,0 -2.34,0.11 -4.63,0.44 -6.74,0.93 -0.52,0.14 -1.05,0.28 -1.63,0.46 -0.01,0 -0.02,0 -0.04,0 -5.2,1.6 -8.86,4.38 -10.17,7.59 -0.08,0.17 -0.12,0.31 -0.19,0.54 -0.22,0.68 -0.34,1.39 -0.34,2.11 0,0.4 0.03,0.8 0.11,1.2 -2.4,0.91 -6.35,1.38 -9.07,1.38 h -0.05 c -2.72,0 -6.67,-0.47 -9.07,-1.38 0.07,-0.39 0.11,-0.8 0.11,-1.2 0,-0.78 -0.13,-1.55 -0.4,-2.31 -0.07,-0.17 -0.13,-0.34 -0.22,-0.56 -1.19,-2.67 -4.03,-5.03 -8.05,-6.64 -3.74,-1.38 -8.71,-2.25 -13.59,-2.05 0,0 0,0 0,0 -2.16,0.13 -4.16,0.42 -5.95,0.87 -5.36,1.42 -9.81,4.66 -11.15,10.66 0,0.03 0,0.07 0,0.1 0,0.08 0,0.17 0.05,0.23 0.06,0.08 0.16,0.08 0.25,0.08 h 36.16 c 0.11,0 0.21,-0.09 0.21,-0.21 0,-0.11 -0.09,-0.21 -0.21,-0.21 H 27.1 c 0.58,-3.29 2.18,-5.24 3.68,-6.7 2.96,-2.89 8.49,-4.48 15.56,-4.48 3.6,0 5.72,0.45 8.82,1.4 0,0 0.01,0 0.01,0 1.96,0.6 3.7,1.38 5.16,2.28 h -2.74 c -0.86,-0.39 -1.79,-0.75 -2.81,-1.06 -2.98,-0.91 -5.01,-1.34 -8.45,-1.34 -6.73,0 -11.94,1.46 -14.67,4.12 -1.02,0.99 -2.16,2.28 -2.86,4.25 -0.01,0.05 0,0.16 0,0.17 0,0.11 0.09,0.21 0.21,0.21 h 8.57 c 0.11,0 0.21,-0.09 0.21,-0.21 0,-0.11 -0.09,-0.21 -0.21,-0.21 h -8.31 c 0.18,-0.47 0.39,-0.91 0.61,-1.31 h 0.05 c 0.46,-1.01 1.21,-1.98 2.23,-2.86 h 0.08 c 2.72,-2.4 7.68,-3.72 14.06,-3.72 3.38,0 5.38,0.43 8.36,1.34 0.96,0.3 1.89,0.65 2.74,1.04 0.03,0.01 0.12,0.02 0.14,0.02 h 3.4 c 0.65,0.44 1.24,0.92 1.76,1.41 h -0.01 c 0.15,0.14 0.3,0.28 0.44,0.42 v 0 c 0.02,0.03 0.05,0.06 0.08,0.09 v 0 c 0.15,0.15 0.29,0.31 0.42,0.47 0.16,0.19 0.31,0.39 0.45,0.59 0,0 0,0 0,0 v 0 c 0.26,0.38 0.49,0.77 0.66,1.16 h 0.02 c 0.45,0.94 0.69,1.92 0.69,2.92 0,0.41 -0.04,0.84 -0.12,1.25 -0.01,0.04 -0.01,0.08 0,0.13 0.01,0.06 0.06,0.12 0.12,0.14 2.43,0.97 6.57,1.48 9.4,1.48 h 0.05 c 2.82,0 6.96,-0.5 9.4,-1.48 0.06,-0.02 0.11,-0.07 0.12,-0.14 0.01,-0.04 0,-0.08 0,-0.12 -0.08,-0.41 -0.12,-0.83 -0.13,-1.25 0,-0.89 0.2,-1.76 0.57,-2.61 h -0.02 c 0.43,-1.12 1.22,-2.2 2.34,-3.18 h 0.02 c 0.49,-0.45 1.04,-0.9 1.65,-1.31 h 3.4 c 0.02,0 0.1,0 0.14,-0.02 0.85,-0.39 1.77,-0.74 2.74,-1.04 2.98,-0.91 4.98,-1.34 8.36,-1.34 6.38,0 11.34,1.32 14.07,3.72 h 0.05 c 0.63,0.55 1.15,1.13 1.57,1.74 0.03,0.05 0.07,0.09 0.11,0.14 v 0.01 c 0.2,0.31 0.38,0.62 0.52,0.95 h 0.1 c 0.22,0.39 0.43,0.83 0.61,1.31 h -8.31 c -0.11,0 -0.21,0.09 -0.21,0.21 0,0.11 0.09,0.21 0.21,0.21 h 8.57 c 0.11,0 0.21,-0.09 0.21,-0.21 0,0 0.01,-0.12 0,-0.17 -0.7,-1.97 -1.84,-3.25 -2.86,-4.25 -2.72,-2.66 -7.93,-4.12 -14.67,-4.12 -3.44,0 -5.46,0.43 -8.45,1.34 -1.01,0.31 -1.94,0.66 -2.81,1.06 h -2.73 c 1.46,-0.9 3.19,-1.67 5.16,-2.28 0,0 0.01,0 0.01,0 3.11,-0.95 5.22,-1.4 8.82,-1.4 7.07,0 12.6,1.59 15.56,4.48 1.5,1.46 3.09,3.41 3.68,6.7 H 86.89 c -0.11,0 -0.21,0.09 -0.21,0.21 0,0.11 0.09,0.21 0.21,0.21 h 36.16 c 0.09,0 0.19,0 0.26,-0.08 0.05,-0.06 0.05,-0.15 0.05,-0.23 0,-0.09 0.01,-0.18 0.01,-0.27 -0.1,-0.45 -0.22,-0.89 -0.36,-1.31 0,0.02 0,0.05 -0.01,0.08 -0.14,-0.5 -0.31,-0.97 -0.5,-1.4 -1.45,-3.23 -4.01,-5.44 -7.11,-6.83 0,0 0,0 0,0.01 -2.92,-1.23 -6.71,-1.91 -11.09,-1.98 0.01,-0.01 0.02,-0.02 0.03,-0.03 z"
         id="path12778-7"
         inkscape:connector-curvature="0"
         sodipodi:nodetypes="scccscccccsccscccccccccssscccscccccccccssscccccccccccccccsccccccscssccccccccscccccccccccccsscccscccccsccssssccccccsccsccccccccccccccscccsscssscscssccccccccccccccscsccsssccsccsssccccccccccsssscsscssscccccsscccccccsscccccccccccccccccccccccccscccccccccccscccccccccccccccsccccccccccccccccsccccsssssccscccscccscccsscsccccccccscccsccccccccccccccccsssccsccscscccccccccccccscccscccccscsscccscccscccsccssssccccccccccccccccssccscccscccscccsssscccccccccccccsccccccccccccccccscscccccssccccccccccccccccccscccscccccccccsccccccscccscccsccsssscccccccccccccccccccccccccccccccccccccccccccccccccccccsccccccccccccccccccccccccccccccccccccccscsccsccccccsccccscccccccccccscccsccccscccsccsssssscsssccccscsccsccscccccccccccccccccccccccccccccccccccccccccscccssccssccssccsssccccccssccccccccccsssccsssccssssscssssccssccccccccsscccccsccccccccsscscccccccccsssscccccccccccssssscccccsccscccccccccccccsccccscccccccccsccscccccccccccscccccacccsccsssscccsccccccccccccccc" />
      <path
         inkscape:connector-curvature="0"
         id="path10330-96-1"
         d="m 82.01,17.67 c -0.2,0.16 -0.5,0.22 -0.74,0.22 -0.36,0 -0.8,-0.06 -1.35,-0.29 -0.88,-0.35 -1.85,-0.46 -2.68,-0.36 -0.36,0.04 -0.7,0.13 -1,0.25 0.39,0.13 1.48,0 1.75,0.01 0.61,0.01 1.06,0.09 1.52,0.26 0.39,0.14 0.62,0.43 0.72,0.55 0.45,0.12 0.94,0.08 1.27,-0.06 0.19,-0.08 0.41,-0.28 0.51,-0.59 z M 81.69,14.48 C 81.7,13.75 81.3,13.16 80.54,12.8 80.04,12.57 79.34,12.53 78.83,12.51 H 78.72 C 78.35,12.49 77.67,12.4 77.32,12 c 0,0 -0.01,-0.01 -0.03,-0.03 -0.02,-0.03 -0.06,-0.07 -0.09,-0.12 -0.01,-0.02 -0.03,-0.05 -0.05,-0.08 -0.01,-0.03 -0.03,-0.06 -0.04,-0.1 0,-0.03 -0.02,-0.07 -0.03,-0.11 -0.01,-0.02 0,-0.08 -0.01,-0.12 0,-0.04 -0.01,-0.09 0,-0.13 0,-0.04 0,-0.08 0.01,-0.12 0,-0.04 0.01,-0.07 0.02,-0.11 0,-0.03 0.02,-0.07 0.02,-0.1 0,-0.03 0.02,-0.06 0.03,-0.08 0.01,-0.02 0.02,-0.04 0.03,-0.06 0.01,-0.03 0.02,-0.05 0.02,-0.05 0,0 -0.01,0.01 -0.03,0.05 -0.01,0.01 -0.02,0.03 -0.03,0.05 -0.01,0.02 -0.03,0.04 -0.04,0.08 -0.01,0.03 -0.03,0.06 -0.04,0.1 -0.01,0.03 -0.03,0.07 -0.04,0.11 -0.01,0.04 -0.02,0.09 -0.03,0.13 -0.01,0.04 -0.01,0.09 -0.01,0.13 0,0.04 -0.01,0.08 0,0.14 0,0.04 0.01,0.09 0.01,0.14 0.01,0.04 0.02,0.08 0.03,0.12 0.01,0.04 0.02,0.08 0.04,0.11 0.03,0.07 0.06,0.12 0.08,0.15 0.02,0.03 0.03,0.05 0.03,0.05 l 0.08,-0.06 -0.07,0.06 c 0.38,0.43 1.05,0.55 1.55,0.58 h 0.11 c 0.49,0.02 1.17,0.06 1.64,0.27 0.39,0.18 1.05,0.61 1.03,1.48 0,0.03 -0.01,0.13 -0.03,0.23 -0.11,0.14 -0.3,0.16 -0.47,0.19 -0.1,0.01 -0.2,0.04 -0.31,0.06 -0.13,0.02 -0.27,0.05 -0.41,0.08 -1.37,0.28 -1.85,-0.1 -1.98,-0.12 -0.08,-0.01 -0.16,-0.04 -0.23,-0.09 0,0 -0.01,-0.01 -0.02,-0.02 -0.02,-0.02 -0.02,-0.06 -0.02,-0.1 0,-0.04 0,-0.07 0.02,-0.12 0,-0.01 0.03,-0.03 0.05,-0.04 0.02,-0.01 0.06,-0.02 0.09,-0.03 0.03,0 0.05,-0.02 0.07,-0.04 0.03,-0.03 0.04,-0.03 0.05,-0.08 0.02,-0.07 0.02,-0.16 0,-0.24 C 78.29,14.03 78.18,14 78.06,13.95 77.77,13.83 77.24,13.72 76.93,13.64 76.46,13.51 76,13.27 75.59,12.9 c -0.49,-0.46 -0.32,-1.4 0.12,-1.65 -0.86,0.13 -1.24,0.8 -1.27,1.24 -0.02,0.38 0.12,0.73 0.35,1 -0.28,-0.08 -0.64,-0.22 -0.73,-0.65 -0.04,-0.21 0.01,-0.53 0.12,-0.71 -0.29,0.31 -0.62,0.81 -0.8,1.01 -0.74,0 -1.09,-0.1 -1.37,-0.16 -0.2,-1.4 -0.65,-1.85 -0.79,-2 -0.06,-0.06 -0.19,-0.19 -0.32,-0.19 -0.02,0 -0.04,0 -0.06,0.01 -0.01,0 -0.02,0.01 -0.03,0.03 0,0.01 0,0.02 0,0.04 0.06,0.14 0.12,0.26 0.18,0.37 0.13,0.27 0.23,0.46 0.31,0.85 0.1,0.49 0.06,0.68 0.02,0.71 -0.01,0.01 -0.04,0.02 -0.07,0.01 -0.39,-0.04 -1.17,-0.38 -1.77,-0.83 -0.14,-0.11 -0.5,-0.38 -0.64,-0.5 -0.38,-0.33 -0.43,-0.45 -0.55,-0.29 -0.04,0.05 0,0.21 0.07,0.31 0.12,0.19 0.26,0.38 0.42,0.55 0.35,0.38 0.72,0.7 1.17,0.95 0.89,0.49 1.71,0.7 2.57,0.82 -0.13,0.13 -0.25,0.28 -0.38,0.43 -0.54,0.61 -1.13,1.47 -1.78,2.68 -0.55,1.03 -0.99,1.7 -2.18,2.43 0.1,0.89 0.47,1.49 1.15,2.04 0.76,0.62 2.48,1.26 3.43,0.59 0.31,-0.22 0.36,-0.43 0.4,-0.8 0.02,-0.18 0.01,-0.38 0.06,-0.56 0.07,-0.32 0.28,-0.6 0.44,-0.89 0.21,-0.37 0.36,-0.72 0.79,-0.84 0.06,0.19 -0.02,0.5 -0.16,0.66 -0.36,0.39 -0.52,0.58 -0.54,0.99 0.32,-0.42 0.53,-0.58 1.06,-0.68 0.28,-0.05 0.44,-0.32 0.57,-0.54 0.02,-0.03 0.04,-0.07 0.06,-0.1 0.08,-0.12 0.2,-0.31 0.36,-0.47 0.03,-0.01 0.07,-0.02 0.11,-0.03 0.1,0.21 0.17,0.53 0.03,0.78 -0.16,0.29 -0.15,0.4 -0.14,0.53 0,-0.01 0.01,-0.02 0.02,-0.03 0.17,-0.23 0.33,-0.44 0.58,-0.62 0.17,-0.11 0.24,-0.3 0.31,-0.52 l 0.01,-0.04 c 0.04,-0.12 0.09,-0.25 0.15,-0.38 0.07,-0.01 0.14,-0.02 0.21,-0.03 0.12,0.36 -0.17,0.68 -0.1,1.02 0.3,-0.65 0.83,-0.66 0.91,-1.07 0.09,0 0.18,0 0.27,0.01 0.02,0 0.05,0 0.08,0 0.04,0.26 -0.19,0.44 -0.18,0.68 0.26,-0.38 0.59,-0.36 0.71,-0.57 0.17,0.05 0.33,0.12 0.5,0.23 0.23,0.15 0.25,0.45 0.03,0.65 -0.11,0.09 -0.23,0.16 -0.38,0.2 0.5,0.14 0.88,-0.04 1.05,-0.33 0.17,-0.29 0.12,-0.73 -0.35,-1.05 -0.51,-0.33 -1.65,-0.36 -1.67,-0.37 l -0.85,0.02 c -0.08,0 -0.94,0.07 -1.35,-0.27 -0.13,-0.11 -0.29,-0.29 -0.3,-0.46 -0.01,-0.28 0.11,-0.91 0.97,-0.97 0.61,-0.03 1.2,0.19 1.85,0.31 0.08,0.11 0.14,0.24 0.16,0.44 0.08,-0.09 0.15,-0.24 0.19,-0.4 0.07,0 0.14,0.01 0.21,0.01 0.03,0 0.06,0 0.09,0 0.12,0.13 0.22,0.27 0.24,0.54 0.11,-0.13 0.19,-0.33 0.21,-0.55 0.08,0 0.16,-0.01 0.23,-0.02 0.01,0.01 0.02,0.02 0.03,0.03 0.16,0.15 0.3,0.3 0.32,0.61 0.14,-0.17 0.25,-0.46 0.21,-0.77 0.09,-0.02 0.18,-0.05 0.26,-0.08 0.07,0.05 0.13,0.11 0.18,0.18 0.12,0.18 0.14,0.37 0.09,0.68 0.27,-0.2 0.5,-0.69 0.33,-1.19 0.17,-0.12 0.31,-0.27 0.38,-0.47 0.02,-0.07 0.05,-0.14 0.06,-0.22 0.02,-0.08 0.04,-0.16 0.04,-0.25 0.04,-0.15 0.06,-0.35 0.07,-0.41 z m -0.74,4.28 c -0.17,0.1 -0.46,0.17 -0.65,0.04 0,0.23 -0.11,0.48 -0.27,0.59 0.4,-0.1 0.81,-0.39 0.92,-0.64 z m -5.92,1.64 c 0,0 0,0 0,0 0,0 0,0 0,0 0,0 0,0.01 0,0.02 v 0 c 0,0 0,-0.01 0,-0.02 z M 72,13.95 71,13.93 c 0.08,0.18 0.21,0.58 0.17,1.09 0.28,-0.39 0.55,-0.75 0.83,-1.06 z m -0.88,1.11 -1.04,-0.08 c 0.09,0.21 0.34,0.72 0.28,1.3 0.25,-0.45 0.5,-0.85 0.76,-1.22 z m -0.77,1.24 -1.39,-0.05 c 0.14,0.23 0.49,0.94 0.48,1.58 0.23,-0.32 0.43,-0.66 0.65,-1.07 0.08,-0.15 0.16,-0.3 0.25,-0.45 z m -0.94,1.58 -1.6,-0.18 c 0.22,0.27 0.33,0.73 0.31,1.3 0.58,-0.36 0.97,-0.72 1.28,-1.12 v 0 z"
         style="display:inline;fill:#ffffff;fill-opacity:1;fill-rule:nonzero;stroke:none;stroke-width:0.278571" />
      <path
         d="m 77.43,136.57 c 0.23,-0.01 0.52,-0.05 0.62,-0.29 0.09,-0.21 0.02,-0.53 0.02,-0.75 0,-0.2 0,-0.25 0,-0.45 0,-0.07 -0.01,-0.22 0.09,-0.24 0.06,-0.01 0.12,0.01 0.18,0.02 0.05,0.01 0.11,0.03 0.17,0.05 0.08,0.02 0.28,0.12 0.35,0.26 0.01,0.25 0.05,0.53 0.06,0.77 0.01,0.01 0.04,0.03 0.06,0.04 0.05,0.02 0.12,0.03 0.19,0.03 1.47,0 2.83,0.17 4.15,0.83 0.16,0.07 0.32,0.18 0.46,0.27 0,0 0.01,0.02 0.01,0.02 0,0 0.01,0.01 0.02,0.01 0.01,0.01 0.02,0.03 0.01,0.05 -0.01,0.02 -0.06,0 -0.09,0 -0.14,-0.06 -0.3,-0.09 -0.45,-0.14 -0.11,-0.03 -0.23,-0.06 -0.35,-0.1 -1.19,-0.35 -2.41,-0.43 -3.62,-0.33 -0.09,0.01 -0.18,0.02 -0.27,0.04 -0.09,0.01 -0.21,0.03 -0.28,-0.02 -0.01,0 -0.02,-0.01 -0.02,-0.03 -0.03,-0.04 -0.03,-0.11 -0.04,-0.17 0.01,-0.4 0,-0.79 -0.01,-1.2 -0.03,-0.07 -0.17,-0.15 -0.23,-0.16 -0.02,0 -0.06,-0.01 -0.09,-0.02 -0.02,-0.01 -0.04,-0.02 -0.07,0 -0.06,0.38 -0.02,0.83 -0.01,1.19 0,0.15 0,0.32 -0.05,0.46 -0.13,0.3 -0.72,0.21 -0.98,0.19 -0.35,-0.02 -0.64,-0.02 -1,-0.01 -2.32,-0.02 -4.56,0 -6.82,0 -0.14,0 -0.3,0 -0.45,0 -0.06,0 -0.11,0 -0.18,0.01 -0.03,0 -0.08,0.01 -0.11,-0.01 0,-0.01 -0.02,-0.03 -0.02,-0.05 0,-0.06 0.08,-0.07 0.13,-0.06 0.06,0 0.12,-0.01 0.19,-0.01 0.11,0 0.23,-0.01 0.34,-0.01 0.07,0 0.15,0 0.23,0 m 4.39,-4.68 c 0,-0.03 0.01,-0.06 0.02,-0.07 0.66,-0.03 1.43,-0.02 2.12,-0.02 0.03,0 0.08,0 0.12,0.01 0.05,0.02 0.05,0.06 0.05,0.11 0,0.05 0,0.1 0,0.16 0,0.12 -0.04,0.21 -0.18,0.21 -0.72,0 -1.44,0 -2.12,-0.03 -0.04,-0.03 -0.02,-0.15 -0.02,-0.2 0,-0.05 0,-0.11 0,-0.16 m -1.11,-1.88 c -0.32,0 -0.64,0 -0.97,0 -0.44,0 -0.82,0 -1.22,0 -0.03,0 -0.11,0.01 -0.12,-0.03 -0.01,-0.06 0.12,-0.05 0.16,-0.05 0.4,-0.06 0.83,-0.08 1.22,-0.11 0.09,0 0.19,-0.01 0.29,-0.02 0.48,-0.03 0.6,-0.13 0.69,-0.61 0,-0.14 0.11,-0.41 0.11,-0.42 0.03,0.18 0.04,0.37 0.05,0.55 0.07,0.36 0.28,0.62 0.63,0.74 0.82,0.29 1.66,0.31 2.5,0.04 0.12,-0.04 0.25,-0.09 0.36,-0.16 0.17,-0.1 0.29,-0.25 0.37,-0.44 0.07,-0.24 0.06,-0.48 0.07,-0.72 0,-0.02 0,-0.05 0.03,-0.05 0.01,0 0.03,0.01 0.04,0.03 0.01,0.62 0.4,0.86 0.75,1.05 0.1,0 0.2,0.01 0.3,0.02 0.18,0.01 0.36,0.02 0.54,0.04 0.08,0 0.17,0.01 0.26,0.02 0.08,0 0.16,0.02 0.24,0.02 0.04,0 0.08,0 0.12,0 0.01,0 0.1,0 0.09,0.04 -0.01,0.04 -0.11,0.01 -0.15,0.01 -0.08,0 -0.16,0 -0.25,0 -0.3,0 -0.61,0.01 -0.91,0.01 -0.3,0 -0.61,0.01 -0.91,0.02 -0.09,0 -0.18,0.03 -0.26,0.07 -1.26,0.61 -2.52,0.61 -3.79,0 -0.09,-0.04 -0.2,-0.07 -0.31,-0.07 m -5.43,7.41 c 0,0.02 0.02,0.05 0.04,0.06 0.01,0.01 0.04,0.03 0.06,0.03 0.02,0.01 0.07,0 0.1,0 0.05,0 0.1,0 0.16,0 0.06,0.01 0.13,0 0.2,0 3.32,0.01 6.72,0 10.12,0 0.09,0 0.22,0.02 0.3,-0.03 0.08,-0.06 0.04,-0.18 0.08,-0.27 0.03,-0.06 0.12,-0.04 0.18,-0.04 1.64,0 3.34,0 5.02,0.05 0.06,0 0.12,0 0.18,0 0.02,0 0.04,0 0.07,0 0.02,0 0.04,-0.01 0.06,-0.02 0.02,-0.01 0.04,-0.02 0.05,-0.04 0,-0.01 0,-0.02 0,-0.03 0,-0.01 0.01,-0.01 0.02,-0.03 0,-0.01 0,-0.02 0,-0.04 0,-0.03 0,-0.05 -0.01,-0.08 -0.01,-0.02 -0.01,-0.06 -0.03,-0.08 -0.02,-0.02 -0.04,-0.05 -0.07,-0.09 -0.26,-0.38 -0.52,-0.6 -0.87,-0.91 -1.49,-0.91 -3.23,-1.2 -4.96,-1.78 -0.42,-0.17 -0.7,-0.53 -0.81,-0.97 -0.01,-0.05 -0.01,-0.1 -0.01,-0.16 -0.12,-0.48 0.03,-0.9 0.16,-1.35 0.05,-0.12 0.16,-0.21 0.26,-0.3 0.1,-0.09 0.23,-0.17 0.36,-0.24 0.05,-0.02 0.11,-0.05 0.17,-0.08 0.62,-0.3 1.29,-0.61 1.78,-0.9 0.06,-0.03 0.11,-0.15 0.11,-0.23 0,-0.06 0,-0.12 0,-0.19 0,-0.05 -0.01,-0.1 -0.01,-0.15 0,-0.26 0.01,-0.53 0.01,-0.8 0,-0.18 -0.08,-0.28 -0.28,-0.27 -0.9,0.01 -1.8,0.02 -2.69,0 -0.07,0 -0.16,0.02 -0.22,0.06 -0.45,0.39 -0.99,0.56 -1.57,0.61 -0.82,0.06 -1.61,-0.05 -2.28,-0.6 -0.06,-0.04 -0.15,-0.07 -0.24,-0.07 -0.22,0 -0.45,0 -0.68,0 -0.59,0.02 -1.18,0 -1.78,0 -0.06,0 -0.13,0 -0.2,0 -0.2,0 -0.29,0.09 -0.29,0.29 0.01,0.35 0,0.71 0,1.05 0,0.18 0.05,0.29 0.22,0.38 0.27,0.14 0.69,0.31 1.24,0.53 0.07,0.02 0.14,0.05 0.21,0.08 0.15,0.06 0.29,0.13 0.43,0.22 0.76,0.6 0.88,1.36 0.77,2.33 -0.09,0.33 -0.29,0.63 -0.53,0.87 -1.4,1 -2.82,1.24 -4.35,1.71 -0.1,0.06 -0.14,0.18 -0.15,0.3 0.05,0.44 -0.13,0.7 -0.37,1.04 0,0.04 0,0.12 0.01,0.18"
         style="fill:#ffffff;fill-opacity:1;fill-rule:evenodd;stroke:none;stroke-width:0.303571"
         id="path12810-9-0-7-0"
         inkscape:connector-curvature="0"
         sodipodi:nodetypes="ccscccccccsccccccccccccccccccccccccccccscccccccccccccccccccccccccccccccccccccccccccccccccccccccccccscccccccccccccccscccccsccccccccccccccc" />
      <path
         inkscape:connector-curvature="0"
         id="path15762"
         style="fill:#ffffff;fill-opacity:1;fill-rule:nonzero;stroke:none;stroke-width:0.303571"
         d="m 19.2,76.7 c 0.12,0.14 0.29,0.32 0.29,0.32 L 18.36,78 c -0.45,-0.52 -0.98,-1.11 -1.55,-1.72 0.09,-0.1 0.19,-0.21 0.28,-0.32 0.11,0.13 0.2,0.23 0.25,0.29 0.28,0.31 0.51,0.58 0.67,0.76 0.16,0.18 0.25,0.29 0.25,0.29 0,0 0,0 0,0 0.03,0.03 0.08,0.04 0.13,0.02 0.01,0 0.03,0 0.04,-0.01 z" />
      <path
         inkscape:connector-curvature="0"
         id="path15766"
         style="fill:#ffffff;fill-opacity:1;fill-rule:nonzero;stroke:none;stroke-width:0.303571"
         d="m 19.12,76.61 -0.65,0.57 c 0,0 0,-0.01 -0.01,-0.01 v 0 c 0,0 -0.38,-0.41 -0.95,-1.03 -0.05,-0.06 -0.15,-0.16 -0.27,-0.3 0.2,-0.22 0.4,-0.45 0.59,-0.66 0.62,0.7 1.13,1.27 1.22,1.37 0,0.01 0.03,0.04 0.07,0.08" />
      <path
         sodipodi:nodetypes="cccccccccccccccccccccccccccccccccccccccccccccccccccccccccccccccc"
         inkscape:connector-curvature="0"
         id="path15770"
         style="fill:#ffffff;fill-opacity:1;fill-rule:nonzero;stroke:none;stroke-width:0.303571"
         d="m 10.5,70.24 c 0,0.01 0,0.02 0.01,0.02 0,0 0.03,0.01 0.09,0.03 0.06,0.02 0.15,0.05 0.26,0.09 0.22,0.09 0.55,0.23 0.91,0.43 0.7,0.39 1.25,0.82 1.83,1.3 0.21,0.18 0.4,0.37 0.59,0.58 0.38,0.4 0.76,0.83 1.11,1.22 0.11,0.12 0.33,0.38 0.59,0.68 0.04,-0.04 0.08,-0.08 0.12,-0.12 -0.25,-0.29 -0.48,-0.54 -0.59,-0.66 -0.36,-0.38 -0.74,-0.8 -1.14,-1.2 -0.72,-0.76 -1.61,-1.34 -2.49,-1.85 -0.37,-0.19 -0.7,-0.33 -0.93,-0.42 -0.11,-0.04 -0.2,-0.07 -0.27,-0.09 -0.06,-0.02 -0.09,-0.03 -0.09,-0.03 -0.01,0 -0.02,0 -0.02,0.01 m 4.7,1.98 c 0.1,0.11 0.73,0.81 1.46,1.63 0.61,-0.66 1.19,-1.31 1.69,-1.88 l 1.13,0.98 c 0,0 -0.16,0.18 -0.29,0.32 l -0.7,-0.6 c -0.01,-0.01 -0.02,-0.01 -0.04,-0.01 -0.04,-0.02 -0.09,-0.01 -0.13,0.02 0,0 0,0 0,0 0,0 -0.09,0.1 -0.25,0.29 -0.15,0.18 -0.39,0.45 -0.67,0.76 -0.28,0.31 -1.66,1.9 -2.01,2.3 -0.58,0.66 -1.12,1.24 -1.71,1.8 -0.2,0.18 -0.41,0.35 -0.62,0.51 -0.41,0.31 -0.83,0.58 -1.2,0.78 -0.36,0.2 -0.69,0.34 -0.91,0.43 -0.11,0.04 -0.2,0.07 -0.26,0.09 -0.06,0.02 -0.09,0.03 -0.09,0.03 -0.01,0 -0.01,0.01 -0.01,0.02 0,0.01 0.01,0.01 0.02,0.01 0,0 0.03,-0.01 0.09,-0.03 0.06,-0.01 0.15,-0.05 0.27,-0.09 0.23,-0.08 0.55,-0.22 0.93,-0.42 0.37,-0.19 0.79,-0.45 1.22,-0.77 0.21,-0.15 0.43,-0.32 0.64,-0.5 0.63,-0.55 1.22,-1.21 1.75,-1.78 0.35,-0.38 1.74,-1.97 2.03,-2.28 0.57,-0.62 0.95,-1.03 0.95,-1.03 v 0 c 0,0 0,0 0.01,-0.01 l 0.65,0.57 c -0.03,0.04 -0.06,0.07 -0.07,0.08 -0.1,0.11 -0.2,0.22 -0.3,0.34 -0.2,0.22 -0.4,0.45 -0.61,0.68 -0.26,0.29 -0.52,0.58 -0.78,0.87 -0.27,0.3 -0.55,0.6 -0.81,0.91 -0.12,0.14 -0.26,0.27 -0.38,0.41 -0.11,0.13 -0.19,0.28 -0.35,0.35 -0.03,0.01 -0.08,0.02 -0.11,0.04 -0.3,0.63 -0.99,1.13 -1.59,1.61 -0.71,0.52 -1.41,0.81 -2.17,1.07 -0.61,0.15 -1.25,0.18 -1.88,0.16 -0.08,0 -0.09,-0.07 -0.02,-0.1 1.17,-0.48 3.48,-2.65 5.6,-4.85 C 13.48,72.8 11.17,70.62 10,70.14 9.92,70.1 9.93,70.03 10.01,70.03 c 0.63,-0.02 1.27,0.01 1.88,0.16" />
      <path
         sodipodi:nodetypes="cccccccccccccccccccccccccccccccccccccccccccccc"
         inkscape:connector-curvature="0"
         id="path15774"
         style="fill:#ffffff;fill-opacity:1;fill-rule:nonzero;stroke:none;stroke-width:0.303571"
         d="m 21.51,81.34 c -0.1,-0.13 -0.24,-0.18 -0.35,-0.26 -0.02,-0.03 -0.04,-0.07 -0.05,-0.11 -0.01,-0.02 0,-0.05 -0.02,-0.07 -0.62,-0.54 -1.1,-1.24 -1.65,-1.88 0,-0.02 -0.03,-0.04 -0.05,-0.06 0,0 0,0 -0.01,-0.01 0,0 0,0 -0.01,-0.01 -0.03,-0.03 -0.06,-0.06 -0.1,-0.1 -0.13,-0.14 -0.3,-0.18 -0.48,-0.04 -0.03,0.03 -0.07,0.06 -0.1,0.1 v 0 c -0.17,0.17 -0.34,0.36 -0.48,0.57 -0.02,0.04 -0.07,0.12 -0.03,0.17 0.02,0.03 0.08,0.03 0.12,0.04 0.08,0.01 0.2,0.11 0.23,0.18 0.19,0.43 -0.31,0.7 -0.58,0.58 -0.2,-0.09 -0.32,-0.39 -0.32,-0.59 0.03,-0.59 0.36,-1.07 0.74,-1.49 0.48,-0.54 1.06,-0.96 1.61,-1.43 0.44,-0.36 0.77,-0.85 0.81,-1.44 0,-0.05 0,-0.09 0,-0.14 0.1,-0.04 0.19,0.01 0.26,0.1 0,0.03 0,0.06 0,0.09 0.03,0.39 -0.04,0.79 -0.21,1.15 -0.12,0.24 -0.26,0.45 -0.42,0.64 0,0 0,0 0,0 -0.01,0.01 -0.02,0.03 -0.04,0.04 -0.02,0.02 -0.04,0.05 -0.06,0.07 -0.14,0.17 -0.16,0.34 -0.04,0.49 0.03,0.03 0.06,0.07 0.08,0.11 0.03,0.01 0.06,0.01 0.09,0.03 0.03,0.02 0.05,0.04 0.07,0.08 0.01,0.04 0.01,0.1 0.04,0.15 0.7,0.73 1.23,1.35 1.86,2 0.01,0.02 0,0.04 0,0.06 0,0.03 0,0.06 0,0.09 0,0.03 0,0.05 0.03,0.08 0.01,0.01 0.04,0.03 0.05,0.05 0.01,0.02 0,0.06 0,0.08 0,0.02 0,0.06 -0.01,0.09 -0.02,0.05 -0.05,0.11 -0.1,0.15 l -0.38,0.33 c -0.03,0.03 -0.08,0.06 -0.14,0.08 -0.07,0.02 -0.15,0.02 -0.22,0 -0.03,-0.01 -0.06,-0.02 -0.09,-0.04" />
      <path
         sodipodi:nodetypes="ccccsccccccccccccccccccccccccccccccccccccccccccccccccccc"
         inkscape:connector-curvature="0"
         id="path15778"
         style="fill:#ffffff;fill-opacity:1;fill-rule:nonzero;stroke:none;stroke-width:0.303571"
         d="m 17.79,70.39 c 0,-0.01 0,-0.02 0,-0.04 0,-0.02 0,-0.04 0,-0.07 0,-0.07 0,-0.14 0.03,-0.21 0.03,-0.05 0.1,-0.11 0.17,-0.13 0.05,-0.01 0.13,-0.01 0.15,-0.07 0.04,-0.11 -0.17,-0.12 -0.23,-0.08 -0.18,0.1 -0.19,0.29 -0.18,0.48 0,0.02 0.01,0.06 0.02,0.09 0,0.02 0.01,0.06 0.04,0.08 0,0 0,-0.01 -0.01,-0.02 m 2.97,4.13 c -0.03,-0.58 -0.37,-1.07 -0.81,-1.44 -0.55,-0.46 -1.12,-0.88 -1.61,-1.42 -0.37,-0.41 -0.71,-0.9 -0.74,-1.49 -0.01,-0.2 0.11,-0.5 0.31,-0.59 0.26,-0.11 0.77,0.15 0.58,0.59 -0.03,0.07 -0.15,0.16 -0.23,0.18 -0.04,0 -0.09,0 -0.12,0.03 -0.04,0.04 0.01,0.13 0.03,0.17 0.14,0.21 0.31,0.4 0.48,0.57 0,0 0,0 0,0 0.03,0.03 0.07,0.06 0.1,0.09 0.18,0.14 0.35,0.1 0.48,-0.04 0.03,-0.03 0.06,-0.07 0.1,-0.1 0,0 0,0 0.01,-0.01 0,0 0,0 0,-0.01 0.63,-0.79 1.25,-1.53 1.9,-2.18 0.02,0 0.06,-0.01 0.07,-0.04 0,-0.01 0,-0.01 0,-0.03 0,-0.01 0,-0.02 0.01,-0.03 0.01,-0.01 0.02,-0.03 0.03,-0.04 0.02,-0.02 0.06,-0.03 0.09,-0.05 0.03,-0.02 0.06,-0.03 0.09,-0.04 0.07,-0.02 0.15,-0.02 0.22,0 0.05,0.01 0.1,0.05 0.14,0.08 l 0.38,0.33 c 0.04,0.04 0.08,0.09 0.1,0.15 0.01,0.02 0.01,0.05 0.01,0.08 0,0.02 0.01,0.06 0,0.08 -0.01,0.01 -0.03,0.04 -0.05,0.05 -0.02,0.02 -0.02,0.04 -0.03,0.08 0,0.03 0,0.06 0,0.09 0,0.02 0,0.04 0,0.06 -0.66,0.69 -1.38,1.39 -1.97,2.24 -0.02,0.02 -0.05,0.02 -0.09,0.03 -0.02,0.04 -0.05,0.07 -0.08,0.11 -0.11,0.14 -0.09,0.31 0.04,0.49 0.02,0.02 0.04,0.05 0.06,0.07 0.01,0.01 0.02,0.03 0.04,0.04 0,0 0,0 0,0 0.16,0.18 0.3,0.4 0.42,0.64 0.17,0.35 0.25,0.75 0.21,1.15 0,0.03 0,0.06 0,0.09 -0.06,0.09 -0.15,0.15 -0.26,0.1 0,-0.04 0,-0.09 0,-0.14" />
      <path
         inkscape:connector-curvature="0"
         id="path15784-3"
         style="fill:#ffffff;fill-opacity:1;fill-rule:nonzero;stroke:none;stroke-width:0.278571"
         d="m 130.06,70.72 c 0.15,0.19 0.23,0.41 0.3,0.64 0.11,0.31 0.21,0.63 0.28,0.96 0.01,0.08 0.03,0.15 0.04,0.23 0.1,0.57 0.16,1.16 0.19,1.74 0.03,0.62 0.02,1.26 -0.03,1.88 -0.02,0.26 -0.05,0.52 -0.08,0.78 -0.06,0.46 -0.15,0.92 -0.28,1.37 -0.1,0.36 -0.2,0.83 -0.55,1.1 -0.04,0.03 -0.13,0.06 -0.21,0.07 -0.51,0.06 -0.61,-0.72 -0.66,-0.97 -0.05,-0.33 -0.09,-0.67 -0.11,-1.01 0,-0.15 -0.02,-0.3 -0.02,-0.45 0,-0.13 -0.01,-0.26 -0.01,-0.39 -0.01,-0.37 -0.01,-0.75 -0.01,-1.13 0,-1.03 0.04,-2.3 0.12,-2.97 0.02,-0.21 0.06,-0.46 0.19,-0.62 0.12,-0.15 0.33,-0.09 0.42,0.07 0.08,0.15 0.13,0.33 0.18,0.51 0.04,0.16 0.08,0.33 0.12,0.5 0.12,0.61 0.17,1.23 0.19,1.84 0.02,0.5 0.01,1 -0.01,1.5 -0.01,0.2 -0.03,0.41 -0.05,0.62 -0.03,0.36 -0.08,0.73 -0.16,1.1 -0.01,0.07 -0.03,0.14 -0.04,0.22 -0.04,0.2 0.05,0.21 0.11,0.01 0.04,-0.14 0.07,-0.29 0.11,-0.42 0.1,-0.39 0.16,-0.8 0.21,-1.21 0.02,-0.22 0.04,-0.45 0.06,-0.68 0.03,-0.44 0.04,-0.9 0.03,-1.35 -0.02,-0.97 -0.13,-1.95 -0.42,-2.9 -0.05,-0.19 -0.11,-0.39 -0.23,-0.56 -0.11,-0.15 -0.31,-0.24 -0.47,-0.07 0,0.01 -0.02,0.03 -0.03,0.03 -0.01,0 -0.03,0 -0.05,0 -0.02,0 -0.03,-0.06 -0.03,-0.08 0,-0.03 0.02,-0.08 0.03,-0.11 0.03,-0.08 0.07,-0.16 0.13,-0.23 0.03,-0.04 0.06,-0.08 0.1,-0.12 0.21,-0.19 0.48,-0.08 0.62,0.08" />
      <path
         inkscape:connector-curvature="0"
         id="path15786"
         style="fill:#ffffff;fill-opacity:1;fill-rule:nonzero;stroke:none;stroke-width:0.278571"
         d="m 133.36,74.23 c -0.04,0.05 -0.09,0.1 -0.14,0.15 -0.16,0.17 -0.36,0.3 -0.57,0.41 -0.05,0.03 -0.11,0.05 -0.17,0.08 -0.05,0.01 -0.11,0.02 -0.15,0.06 -0.02,0.01 -0.03,0.04 -0.03,0.07 0,0.01 0,0.03 0.01,0.05 0.03,0.04 0.08,0.05 0.13,0.07 0.21,0.08 0.41,0.19 0.6,0.33 0.08,0.06 0.16,0.14 0.24,0.21 0.04,0.04 0.07,0.09 0.11,0.13 0.01,0.01 0.04,0.03 0.07,0.04 0.02,0 0.06,0 0.08,-0.01 0.04,-0.02 0.06,-0.09 0.08,-0.13 0.03,-0.05 0.07,-0.09 0.12,-0.13 0.3,-0.26 0.39,-0.27 0.77,-0.31 0.06,0 0.1,-0.02 0.1,-0.09 0,-0.04 0,-0.09 0,-0.14 v 0 -0.01 c 0,-0.04 0,-0.09 0,-0.14 0,-0.07 -0.03,-0.08 -0.1,-0.09 -0.13,-0.01 -0.15,-0.02 -0.28,-0.04 -0.3,-0.03 -0.37,-0.12 -0.57,-0.36 -0.05,-0.06 -0.09,-0.19 -0.2,-0.18 -0.04,0 -0.06,0.02 -0.09,0.06 m -0.21,-5.75 c 0.01,0 0.03,0.01 0.05,0.02 0.04,0.02 0.08,0.04 0.12,0.06 0.35,0.17 0.89,0.36 1.76,0.4 0.04,0 0.08,0 0.12,0.01 0.03,0 0.07,0 0.09,0.01 0,0 0.02,0.02 0.02,0.03 0,0.01 0,0.03 0,0.05 0,0.02 -0.01,0.03 -0.03,0.04 -0.04,0.03 -0.08,0.08 -0.12,0.12 -0.23,0.25 -0.52,0.68 -0.58,1.34 0,0.03 0,0.07 0,0.11 0,0.04 0,0.09 -0.04,0.12 -0.05,0.02 -0.09,-0.04 -0.12,-0.07 -0.02,-0.02 -0.05,-0.05 -0.08,-0.07 -0.09,-0.08 -0.2,-0.16 -0.31,-0.19 -0.69,-0.19 -1.34,0.06 -1.42,0.85 -0.02,0.29 0.12,0.61 0.44,0.64 0.17,0.01 0.35,-0.12 0.52,-0.14 0.31,-0.04 0.21,0.24 0.08,0.4 -0.22,0.28 -0.18,0.72 -0.03,1.05 0.14,0.32 0.19,0.42 0.5,0.53 0.34,0.11 0.53,0.07 0.53,-0.22 v -0.04 c 0,-0.11 0,-0.14 0,-0.28 0,0 0,0 0,0 0,0 0,-0.01 0,-0.01 0,-0.11 0.03,-0.16 0.18,-0.16 0.16,0 0.18,0 0.32,0 0.16,0 0.17,0.12 0.17,0.23 0,0.11 0,0.23 0,0.35 0.45,-0.17 0.77,-0.58 0.79,-1.01 0,-0.13 -0.01,-0.37 -0.08,-0.48 -0.15,-0.24 -0.46,-0.39 -0.74,-0.33 -0.03,0 -0.07,0.02 -0.1,0.04 -0.03,0.01 -0.08,0.02 -0.11,0.01 -0.01,0 -0.02,-0.02 -0.02,-0.04 0,-0.07 0.04,-0.16 0.08,-0.22 0.07,-0.12 0.18,-0.23 0.3,-0.31 0.24,-0.15 0.55,-0.21 0.84,-0.16 0.16,0.03 0.32,0.1 0.45,0.2 0.52,0.41 0.6,1.39 0.08,2.04 -0.36,0.46 -0.77,0.7 -1.32,0.82 -0.05,0.01 -0.11,0.02 -0.16,0.02 0,0.09 0,0.19 0,0.28 0.59,-0.05 1.32,-0.14 1.71,-0.52 0.06,-0.05 0.11,-0.12 0.16,-0.19 0.04,-0.06 0.08,-0.13 0.12,-0.21 0.02,-0.04 0.03,-0.1 0.08,-0.13 0.12,-0.08 0.22,0.1 0.28,0.18 0.77,1.11 1.54,1.23 1.65,1.27 0.04,0.01 0.13,0.04 0.14,0.09 0,0.01 0,0.03 -0.02,0.04 -0.06,0.05 -0.13,0.04 -0.2,0.06 -0.09,0.02 -0.2,0.05 -0.29,0.1 -0.62,0.36 -0.87,0.59 -1.15,1 -0.06,0.09 -0.12,0.17 -0.2,0.25 -0.03,0.04 -0.1,0.12 -0.16,0.1 -0.06,-0.01 -0.09,-0.1 -0.11,-0.15 -0.03,-0.08 -0.07,-0.16 -0.12,-0.23 -0.09,-0.13 -0.23,-0.25 -0.37,-0.34 -0.13,-0.09 -0.29,-0.15 -0.45,-0.21 -0.15,-0.05 -0.32,-0.08 -0.48,-0.11 -0.01,0 -0.03,0 -0.05,-0.01 -0.11,-0.01 -0.3,-0.02 -0.49,-0.04 0,0.1 0,0.2 0,0.3 0.05,0 0.11,0.01 0.16,0.02 0.54,0.12 0.95,0.35 1.32,0.82 0.51,0.65 0.44,1.63 -0.08,2.04 -0.13,0.1 -0.29,0.17 -0.45,0.2 -0.28,0.05 -0.6,0 -0.84,-0.16 -0.12,-0.08 -0.22,-0.19 -0.3,-0.31 -0.03,-0.06 -0.09,-0.15 -0.08,-0.22 0,-0.02 0.01,-0.03 0.02,-0.04 0.03,-0.01 0.08,0 0.11,0.01 0.03,0.01 0.06,0.03 0.1,0.04 0.28,0.05 0.59,-0.08 0.74,-0.33 0.07,-0.11 0.09,-0.35 0.08,-0.48 -0.02,-0.42 -0.34,-0.84 -0.79,-1.01 0,0.12 0,0.24 0,0.37 0,0.1 0,0.23 -0.17,0.23 h -0.06 c -0.15,0 -0.44,-0.04 -0.44,-0.16 0,0 0,-0.01 0,-0.01 0,0 0,0 0,0 0,-0.14 0,-0.17 0,-0.28 v -0.04 c 0,-0.29 -0.18,-0.33 -0.53,-0.22 -0.07,0.02 -0.14,0.05 -0.19,0.07 -0.14,0.08 -0.2,0.2 -0.3,0.44 -0.15,0.32 -0.18,0.76 0.03,1.05 0.12,0.16 0.22,0.44 -0.08,0.4 -0.16,-0.02 -0.35,-0.16 -0.52,-0.14 -0.19,0.01 -0.33,0.15 -0.39,0.32 0,0 0,0 0,0 -0.03,0.1 -0.05,0.21 -0.03,0.32 0.08,0.79 0.73,1.05 1.42,0.85 0.11,-0.03 0.22,-0.11 0.31,-0.19 0.02,-0.02 0.05,-0.04 0.08,-0.07 0.02,-0.02 0.07,-0.09 0.12,-0.07 0.05,0.02 0.04,0.08 0.04,0.12 0,0.03 0,0.07 0,0.11 0.06,0.65 0.35,1.09 0.58,1.34 0.04,0.04 0.08,0.08 0.12,0.12 0.01,0.01 0.03,0.02 0.03,0.04 0,0.01 0,0.03 0,0.05 0,0 -0.01,0.02 -0.02,0.03 -0.02,0.02 -0.06,0.01 -0.09,0.01 -0.04,0 -0.08,0 -0.12,0.01 -0.86,0.03 -1.4,0.23 -1.76,0.4 -0.04,0.01 -0.08,0.04 -0.12,0.06 -0.01,0 -0.03,0.02 -0.05,0.02 -0.01,0 -0.04,0 -0.05,0 -0.1,0 -0.09,-0.15 -0.08,-0.21 0.03,-0.18 0.12,-0.68 -0.3,-1.06 -0.35,-0.29 -0.83,-0.64 -1.31,-0.84 -0.11,-0.04 -0.22,-0.01 -0.26,0.06 -0.02,0.03 -0.03,0.08 -0.06,0.11 -0.06,0.1 -0.18,0.09 -0.29,0.07 -0.05,-0.01 -0.14,-0.06 -0.14,-0.1 -0.01,-0.08 0,-0.18 0.02,-0.27 0.02,-0.08 0.05,-0.18 0.08,-0.26 0.06,-0.16 0.11,-0.33 0.15,-0.47 l 0.03,-0.12 c 0.12,-0.42 0.21,-0.88 0.29,-1.43 0.03,-0.24 0.06,-0.49 0.09,-0.8 0.05,-0.61 0.07,-1.27 0.03,-1.95 -0.03,-0.65 -0.1,-1.24 -0.2,-1.8 -0.01,-0.08 -0.03,-0.17 -0.05,-0.25 -0.05,-0.25 -0.13,-0.52 -0.24,-0.85 -0.05,-0.22 -0.12,-0.44 -0.18,-0.66 -0.02,-0.08 -0.04,-0.18 -0.02,-0.26 0,-0.04 0.09,-0.09 0.14,-0.1 0.1,-0.01 0.22,-0.02 0.29,0.07 0.02,0.03 0.03,0.07 0.06,0.11 0.04,0.08 0.15,0.1 0.26,0.06 0.47,-0.19 0.95,-0.54 1.31,-0.84 0.42,-0.38 0.34,-0.88 0.3,-1.06 -0.01,-0.06 -0.01,-0.2 0.08,-0.21 0.01,0 0.04,0 0.05,0" />
    </g>
  </g>
</svg>
