<svg xmlns="http://www.w3.org/2000/svg" width="420" height="420">
<symbol id="deckahedron_back" viewBox="0 0 420 420">
  <rect id="black_rect" width="420" height="420" rx="20" ry="20" style="display:inline;fill:#202020;fill-opacity:1;stroke:none;stroke-width:.499979;stroke-opacity:1" />
  <ellipse id="center_ellipse" cx="210" cy="210" rx="62.59" ry="74.34" style="display:inline;fill:none;fill-opacity:.469101;stroke:#fff;stroke-width:2.49989;stroke-linecap:round;stroke-linejoin:round;stroke-miterlimit:4;stroke-dasharray:none;stroke-opacity:1" />
  <path d="m351.1 22.3 46.56-.08V69.1" style="display:inline;fill:none;stroke:#fff;stroke-width:1.2;stroke-linecap:round;stroke-linejoin:round;stroke-miterlimit:4;stroke-dasharray:none;stroke-opacity:1" />
  <path d="M355.03 22.3v-3.52h46.11" style="display:inline;fill:none;fill-opacity:.469101;stroke:#fff;stroke-width:1.2;stroke-linecap:round;stroke-linejoin:round;stroke-miterlimit:4;stroke-dasharray:none;stroke-opacity:1" />
  <path d="M397.59 64.85h3.51V18.78" style="display:inline;fill:none;fill-opacity:.469101;stroke:#fff;stroke-width:1.2;stroke-linecap:round;stroke-linejoin:round;stroke-miterlimit:4;stroke-dasharray:none;stroke-opacity:1" />
  <ellipse cx="210.06" cy="45.81" rx="31.78" ry="25.21" style="display:inline;fill:none;fill-opacity:.469101;stroke:#fff;stroke-width:1.2;stroke-linecap:round;stroke-linejoin:round;stroke-miterlimit:4;stroke-dasharray:none;stroke-opacity:1" />
  <path d="M179.07 62.32c6.76 8.88 18.21 13.87 30.99 13.87s24.18-5.02 30.91-13.98" style="display:inline;fill:none;fill-opacity:.469101;stroke:#fff;stroke-width:1.2;stroke-linecap:round;stroke-linejoin:round;stroke-miterlimit:4;stroke-dasharray:none;stroke-opacity:1" />
  <path d="M174.46 64.06c7.48 10.7 20.82 16.74 35.6 16.74 14.74 0 28.08-6.04 35.52-16.78" style="display:inline;fill:none;fill-opacity:.469101;stroke:#fff;stroke-width:1.2;stroke-linecap:round;stroke-linejoin:round;stroke-miterlimit:4;stroke-dasharray:none;stroke-opacity:1" />
  <path d="M169.62 65.38c8.12 12.89 23.4 20.37 40.44 20.37s32.35-7.52 40.44-20.4" style="display:inline;fill:none;fill-opacity:.469101;stroke:#fff;stroke-width:1.2;stroke-linecap:round;stroke-linejoin:round;stroke-miterlimit:4;stroke-dasharray:none;stroke-opacity:1" />
  <path d="M237.15 59.18s2.5 2.39 3.97 3.18c2.95 1.59 6.35 2.12 9.56 3.02a151 151 0 0 1 44.53 20.86c2.94 2.08 5.66 9.08 3.89 13.95a10.96 10.96 0 0 1-11.3 6.88c-8.13-1.21-7.71-9.3-7.71-9.3M183.1 59.18s-2.5 2.39-3.97 3.18c-2.95 1.59-6.35 2.12-9.56 3.02a151 151 0 0 0-44.52 20.86c-2.95 2.08-5.67 9.08-3.9 13.95a10.96 10.96 0 0 0 11.3 6.88c8.13-1.21 7.72-9.3 7.72-9.3m71.92-12.05c-1.14 3.78.9 7.52 3.36 8.73-1.13.79-5.18 7.93-5.33 12.85m-1.96-21.58c1.13 3.78-.91 7.52-3.4 8.73 1.17.79 5.21 7.93 5.36 12.85m22.04-89.54c-13.91-3.78-29.75-3.59-44.1 0m55.25 1.02h101.2c0 7.03-7.63 23.89-27.58 28.8-12.78 3.14-15.88 3.4-24.57 3.55-15.8.27-34.58-4.9-43.08-11.3-4.84-3.62-9.07-6.42-11.27-11.56a22.7 22.7 0 0 1-2-12.85" style="display:inline;fill:none;fill-opacity:.469101;stroke:#fff;stroke-width:1.2;stroke-linecap:round;stroke-linejoin:round;stroke-miterlimit:4;stroke-dasharray:none;stroke-opacity:1" />
  <path d="M249.32 39.83h9.6s16.44 6.92 30.5 6.43c15.99-.45 29.1-1.51 40.82-10.43a30 30 0 0 0 8.39-12.78h-24m-82.09.16a27 27 0 0 1-.37-5.45m-44.52 5.45c.22-1.1.56-4.16.37-5.45m48-2.3c-18.44-5.44-32.12-5.67-51.93 0" style="display:inline;fill:none;fill-opacity:.469101;stroke:#fff;stroke-width:1.2;stroke-linecap:round;stroke-linejoin:round;stroke-miterlimit:4;stroke-dasharray:none;stroke-opacity:1" />
  <path d="M176.95 18.78H75.74c0 7.03 7.63 23.89 27.59 28.8 12.77 3.14 15.87 3.4 24.56 3.55 15.8.27 34.55-4.9 43.09-11.3 4.84-3.62 9.07-6.42 11.26-11.56a23 23 0 0 0 2-12.85" style="display:inline;fill:none;fill-opacity:.469101;stroke:#fff;stroke-width:1.2;stroke-linecap:round;stroke-linejoin:round;stroke-miterlimit:4;stroke-dasharray:none;stroke-opacity:1" />
  <path d="M170.94 39.83h-9.56s-16.44 6.92-30.5 6.43c-15.99-.45-29.1-1.51-40.82-10.43a30 30 0 0 1-8.43-12.78h24" style="display:inline;fill:none;fill-opacity:.469101;stroke:#fff;stroke-width:1.2;stroke-linecap:round;stroke-linejoin:round;stroke-miterlimit:4;stroke-dasharray:none;stroke-opacity:1" />
  <path d="m68.82 397.63-46.56.07v-46.86" style="display:inline;fill:none;stroke:#fff;stroke-width:1.2;stroke-linecap:round;stroke-linejoin:round;stroke-miterlimit:4;stroke-dasharray:none;stroke-opacity:1" />
  <path d="M64.9 397.63v3.51H18.77" style="display:inline;fill:none;fill-opacity:.469101;stroke:#fff;stroke-width:1.2;stroke-linecap:round;stroke-linejoin:round;stroke-miterlimit:4;stroke-dasharray:none;stroke-opacity:1" />
  <path d="M22.3 355.07h-3.48v46.07" style="display:inline;fill:none;fill-opacity:.469101;stroke:#fff;stroke-width:1.2;stroke-linecap:round;stroke-linejoin:round;stroke-miterlimit:4;stroke-dasharray:none;stroke-opacity:1" />
  <ellipse cx="-209.87" cy="-374.12" rx="31.78" ry="25.21" style="display:inline;fill:none;fill-opacity:.469101;stroke:#fff;stroke-width:1.2;stroke-linecap:round;stroke-linejoin:round;stroke-miterlimit:4;stroke-dasharray:none;stroke-opacity:1" transform="scale(-1)" />
  <path d="M240.86 357.6c-6.77-8.88-18.22-13.87-31-13.87-12.77 0-24.18 5.03-30.9 13.99" style="display:inline;fill:none;fill-opacity:.469101;stroke:#fff;stroke-width:1.2;stroke-linecap:round;stroke-linejoin:round;stroke-miterlimit:4;stroke-dasharray:none;stroke-opacity:1" />
  <path d="M245.47 355.86c-7.48-10.7-20.82-16.74-35.6-16.74-14.74 0-28.08 6.05-35.53 16.78" style="display:inline;fill:none;fill-opacity:.469101;stroke:#fff;stroke-width:1.2;stroke-linecap:round;stroke-linejoin:round;stroke-miterlimit:4;stroke-dasharray:none;stroke-opacity:1" />
  <path d="M250.3 354.54c-8.12-12.89-23.39-20.37-40.43-20.37-17.05 0-32.35 7.52-40.44 20.4" style="display:inline;fill:none;fill-opacity:.469101;stroke:#fff;stroke-width:1.2;stroke-linecap:round;stroke-linejoin:round;stroke-miterlimit:4;stroke-dasharray:none;stroke-opacity:1" />
  <path d="M182.77 360.74s-2.5-2.38-3.97-3.17c-2.95-1.6-6.35-2.12-9.56-3.03a151 151 0 0 1-44.52-20.9c-2.95-2.08-5.67-9.07-3.9-13.94a10.96 10.96 0 0 1 11.3-6.88c8.13 1.2 7.72 9.3 7.72 9.3m96.97 38.62s2.5-2.38 3.97-3.17c2.95-1.6 6.35-2.12 9.56-3.03a151 151 0 0 0 44.53-20.86c2.94-2.08 5.66-9.07 3.89-13.95a10.96 10.96 0 0 0-11.3-6.87c-8.13 1.2-7.67 9.3-7.67 9.3m-71.96 12.05c1.13-3.78-.91-7.52-3.37-8.73 1.14-.8 5.18-7.94 5.33-12.85m1.97 21.58c-1.14-3.78.9-7.52 3.4-8.73a25.3 25.3 0 0 1-5.37-12.85m-22.03 89.53c13.9 3.78 29.74 3.6 44.1 0m-55.25-1.02H75.4c0-7.03 7.63-23.88 27.59-28.8 12.77-3.13 15.87-3.4 24.56-3.55 15.8-.26 34.58 4.91 43.09 11.3 4.84 3.63 9.07 6.42 11.26 11.56a22.7 22.7 0 0 1 2 12.85" style="display:inline;fill:none;fill-opacity:.469101;stroke:#fff;stroke-width:1.2;stroke-linecap:round;stroke-linejoin:round;stroke-miterlimit:4;stroke-dasharray:none;stroke-opacity:1" />
  <path d="M170.6 380.09H161s-16.44-6.92-30.5-6.42c-15.99.45-29.1 1.5-40.82 10.43a30 30 0 0 0-8.42 12.73h24m82.12-.11c.19 1.1.57 4.16.38 5.44m44.52-5.44a27 27 0 0 0-.38 5.44m-48 2.34c18.45 5.4 32.13 5.64 51.93 0m7.18-3.36H344.2c0-7.03-7.64-23.88-27.6-28.8-12.77-3.13-15.87-3.4-24.56-3.55-15.8-.26-34.54 4.91-43.08 11.3-4.84 3.63-9.07 6.42-11.27 11.56a22.7 22.7 0 0 0-2 12.85" style="display:inline;fill:none;fill-opacity:.469101;stroke:#fff;stroke-width:1.2;stroke-linecap:round;stroke-linejoin:round;stroke-miterlimit:4;stroke-dasharray:none;stroke-opacity:1" />
  <path d="M248.98 380.09h9.6s16.44-6.92 30.5-6.42c15.99.45 29.1 1.5 40.82 10.43a30 30 0 0 1 8.43 12.73h-24" style="display:inline;fill:none;fill-opacity:.469101;stroke:#fff;stroke-width:1.2;stroke-linecap:round;stroke-linejoin:round;stroke-miterlimit:4;stroke-dasharray:none;stroke-opacity:1" />
  <path d="m397.63 351.1.07 46.56h-46.86" style="display:inline;fill:none;stroke:#fff;stroke-width:1.2;stroke-linecap:round;stroke-linejoin:round;stroke-miterlimit:4;stroke-dasharray:none;stroke-opacity:1" />
  <path d="M397.63 355.03h3.51v46.11" style="display:inline;fill:none;fill-opacity:.469101;stroke:#fff;stroke-width:1.2;stroke-linecap:round;stroke-linejoin:round;stroke-miterlimit:4;stroke-dasharray:none;stroke-opacity:1" />
  <path d="M355.07 397.59v3.51h46.07" style="display:inline;fill:none;fill-opacity:.469101;stroke:#fff;stroke-width:1.2;stroke-linecap:round;stroke-linejoin:round;stroke-miterlimit:4;stroke-dasharray:none;stroke-opacity:1" />
  <ellipse cx="210.06" cy="-374.12" rx="31.78" ry="25.21" style="display:inline;fill:none;fill-opacity:.469101;stroke:#fff;stroke-width:1.2;stroke-linecap:round;stroke-linejoin:round;stroke-miterlimit:4;stroke-dasharray:none;stroke-opacity:1" transform="rotate(90)" />
  <path d="M357.6 179.07c-8.88 6.76-13.87 18.21-13.87 30.99s5.03 24.18 13.99 30.91" style="display:inline;fill:none;fill-opacity:.469101;stroke:#fff;stroke-width:1.2;stroke-linecap:round;stroke-linejoin:round;stroke-miterlimit:4;stroke-dasharray:none;stroke-opacity:1" />
  <path d="M355.86 174.46c-10.7 7.48-16.74 20.82-16.74 35.6 0 14.74 6.05 28.08 16.78 35.52" style="display:inline;fill:none;fill-opacity:.469101;stroke:#fff;stroke-width:1.2;stroke-linecap:round;stroke-linejoin:round;stroke-miterlimit:4;stroke-dasharray:none;stroke-opacity:1" />
  <path d="M354.54 169.62c-12.89 8.12-20.37 23.4-20.37 40.44s7.52 32.35 20.4 40.44" style="display:inline;fill:none;fill-opacity:.469101;stroke:#fff;stroke-width:1.2;stroke-linecap:round;stroke-linejoin:round;stroke-miterlimit:4;stroke-dasharray:none;stroke-opacity:1" />
  <path d="M360.74 237.15s-2.38 2.5-3.17 3.97c-1.6 2.95-2.12 6.35-3.03 9.56a151 151 0 0 1-20.86 44.53c-2.08 2.94-9.07 5.66-13.95 3.89a10.96 10.96 0 0 1-6.87-11.3c1.2-8.13 9.3-7.71 9.3-7.71m38.58-96.98s-2.38-2.5-3.17-3.97c-1.6-2.95-2.12-6.35-3.03-9.56a151 151 0 0 0-20.86-44.52c-2.08-2.95-9.07-5.67-13.95-3.9a10.96 10.96 0 0 0-6.87 11.3c1.2 8.13 9.3 7.72 9.3 7.72m63.86 101.74c-2.08 2.11-3.89 4.65-5.93 7.4-6.39 8.47-11.56 27.22-11.34 43.01.15 8.73.46 11.83 3.6 24.6 4.9 19.96 21.76 27.6 28.8 27.6V265.3" style="display:inline;fill:none;fill-opacity:.469101;stroke:#fff;stroke-width:1.2;stroke-linecap:round;stroke-linejoin:round;stroke-miterlimit:4;stroke-dasharray:none;stroke-opacity:1" />
  <path d="M380.09 249.32v9.6s-6.92 16.44-6.42 30.5c.45 15.99 1.5 29.1 10.43 40.82a30 30 0 0 0 12.73 8.39v-24m4.31-159.68V75.74c-7.03 0-23.88 7.63-28.8 27.59-3.13 12.77-3.4 15.87-3.55 24.56-.26 15.8 4.91 34.55 11.3 43.09 2.04 2.72 3.85 5.29 5.93 7.37" style="display:inline;fill:none;fill-opacity:.469101;stroke:#fff;stroke-width:1.2;stroke-linecap:round;stroke-linejoin:round;stroke-miterlimit:4;stroke-dasharray:none;stroke-opacity:1" />
  <path d="M380.09 170.94v-9.56s-6.92-16.44-6.42-30.5c.45-15.99 1.5-29.1 10.43-40.82a30 30 0 0 1 12.73-8.43v24m-3.25 84.06c1.51-2.23 7.33-10.17 7.6-24.68 1.06 12.2-1.06 26.64-4.54 31.1m-3.06 34.32c1.51 2.19 7.33 10.13 7.6 24.64 1.06-12.2-1.06-26.65-4.54-31.07" style="display:inline;fill:none;fill-opacity:.469101;stroke:#fff;stroke-width:1.2;stroke-linecap:round;stroke-linejoin:round;stroke-miterlimit:4;stroke-dasharray:none;stroke-opacity:1" />
  <path d="M22.37 68.56 22.3 22h46.86" style="display:inline;fill:none;stroke:#fff;stroke-width:1.2;stroke-linecap:round;stroke-linejoin:round;stroke-miterlimit:4;stroke-dasharray:none;stroke-opacity:1" />
  <path d="M22.37 64.63h-3.51V18.52" style="display:inline;fill:none;fill-opacity:.469101;stroke:#fff;stroke-width:1.2;stroke-linecap:round;stroke-linejoin:round;stroke-miterlimit:4;stroke-dasharray:none;stroke-opacity:1" />
  <path d="M64.93 22.03v-3.51h-46.1" style="display:inline;fill:none;fill-opacity:.469101;stroke:#fff;stroke-width:1.2;stroke-linecap:round;stroke-linejoin:round;stroke-miterlimit:4;stroke-dasharray:none;stroke-opacity:1" />
  <ellipse cx="-209.6" cy="45.88" rx="31.78" ry="25.21" style="display:inline;fill:none;fill-opacity:.469101;stroke:#fff;stroke-width:1.2;stroke-linecap:round;stroke-linejoin:round;stroke-miterlimit:4;stroke-dasharray:none;stroke-opacity:1" transform="rotate(-90)" />
  <path d="M62.36 240.56c8.92-6.73 13.87-18.18 13.9-31 0-12.77-5.02-24.18-13.98-30.91" style="display:inline;fill:none;fill-opacity:.469101;stroke:#fff;stroke-width:1.2;stroke-linecap:round;stroke-linejoin:round;stroke-miterlimit:4;stroke-dasharray:none;stroke-opacity:1" />
  <path d="M64.1 245.17c10.73-7.45 16.78-20.79 16.78-35.57 0-14.77-6.05-28.08-16.78-35.52" style="display:inline;fill:none;fill-opacity:.469101;stroke:#fff;stroke-width:1.2;stroke-linecap:round;stroke-linejoin:round;stroke-miterlimit:4;stroke-dasharray:none;stroke-opacity:1" />
  <path d="M65.46 250c12.85-8.08 20.33-23.35 20.33-40.43 0-17.01-7.48-32.32-20.4-40.44" style="display:inline;fill:none;fill-opacity:.469101;stroke:#fff;stroke-width:1.2;stroke-linecap:round;stroke-linejoin:round;stroke-miterlimit:4;stroke-dasharray:none;stroke-opacity:1" />
  <path d="M59.26 182.47s2.34-2.46 3.14-3.93c1.58-2.95 2.11-6.35 3.1-9.56a151 151 0 0 1 20.78-44.56c2.12-2.91 9.07-5.67 13.99-3.9a10.96 10.96 0 0 1 6.84 11.34c-1.17 8.13-9.26 7.67-9.26 7.67m-38.59 97.02s2.34 2.46 3.14 3.97c1.58 2.95 2.11 6.35 3.1 9.56a151 151 0 0 0 20.78 44.52c2.12 2.95 9.07 5.67 13.99 3.9a10.96 10.96 0 0 0 6.84-11.3c-1.17-8.13-9.26-7.72-9.26-7.72M33.94 177.71c2.12-2.08 3.93-4.62 5.97-7.37 6.35-8.5 11.56-27.25 11.3-43.05-.15-8.7-.42-11.83-3.55-24.57-4.92-19.99-21.77-27.59-28.8-27.59v79.22" style="display:inline;fill:none;fill-opacity:.469101;stroke:#fff;stroke-width:1.2;stroke-linecap:round;stroke-linejoin:round;stroke-miterlimit:4;stroke-dasharray:none;stroke-opacity:1" />
  <path d="M39.91 170.34v-9.6s6.88-16.44 6.42-30.5c-.49-15.99-1.5-29.1-10.43-40.82a30 30 0 0 0-12.73-8.43v24m-4.31 159.72v79.21c7.03 0 23.88-7.63 28.8-27.59 3.13-12.77 3.4-15.87 3.55-24.56.26-15.8-4.91-34.58-11.34-43.09-2-2.72-3.81-5.29-5.93-7.37" style="display:inline;fill:none;fill-opacity:.469101;stroke:#fff;stroke-width:1.2;stroke-linecap:round;stroke-linejoin:round;stroke-miterlimit:4;stroke-dasharray:none;stroke-opacity:1" />
  <path d="M39.91 248.68v9.6s6.88 16.48 6.42 30.5c-.49 15.99-1.5 29.1-10.43 40.82a30 30 0 0 1-12.73 8.46v-24m3.25-84.09c-1.51 2.2-7.37 10.17-7.6 24.65-1.06-12.21 1.06-26.65 4.5-31.07m3.1-34.32c-1.51-2.23-7.37-10.16-7.6-24.68-1.06 12.21 1.06 26.69 4.5 31.1" style="display:inline;fill:none;fill-opacity:.469101;stroke:#fff;stroke-width:1.2;stroke-linecap:round;stroke-linejoin:round;stroke-miterlimit:4;stroke-dasharray:none;stroke-opacity:1" />
  <path d="M226.76 156.24c-.75.3-1.96.72-3.29 1.02q-1.96.38-4.83.41H186.4c-.76 0-.53.76-.38.87 4.23 2.65 5.6 5.94 5.6 10.81v47.85c0 .38-.3.38-.46.15q-2.57-3.97-4.91-6.65-.3-.45 0-.87c.49-.76.9-1.66 1.66-3.1q.57-1.13 1.1-2.42.1-.22.18-1.51v-8.43c0-.6-.37-.75-.52-.22-1.18 3.59-2.2 7.18-4.43 10.96q-.64 1.02-1.28 1.89-.27.37-.72.07a16.6 16.6 0 0 0-7.07-3.48q-.53-.07-.53-.64v-34.4c.04-.82-.6-.86-.83-.37q-.45 1.14-.94 2a21 21 0 0 1-9.9 8.66c-.5.23-.3.6.1.6h4.17c.64 0 1.28.38 1.28 1.25v21.8c0 .57-.38.88-.68.88a23 23 0 0 0-2.9.9c-5.3 2-6.55 7.45-3.86 10.2 1.58 1.67 3.78 2.62 6.95 2.96.15 0 .5.11.5.53v17.95q-.12 3.97-3.15 7.93c-.34.34 0 .65.34.53q2.54-.83 5.86-.83 3.14 0 5.56.72c.26.11.64-.23.38-.53a12 12 0 0 1-2.84-6.88V210.4a.76.76 0 0 0-.56-.76q-2.65-.6-4.8-.15c-.38.04-.76.38-.76.8v3.28c0 .38-.38.42-.57.38-4.3-.64-5.63-4.42-.68-6.35a11.3 11.3 0 0 1 9.75.87q1.14.6 2.2 1.59c.37.34.1.68 0 .75l-1.9 1.21q-.18 0-.26.6V216c0 .38.34.5.57.38a15 15 0 0 0 4.23-2.16c.15-.1.6-.22.76 0 5.17 7.56 14.74 21.77 15.95 23.28a30 30 0 0 0 9.07 8.02c.34.26.52.41.49.87-.15 2.98 0 5.44.9 8.76a17.4 17.4 0 0 0 8.77 10.96c4.46 2.2 11.9 1.21 14.9-2.87.1-.11.37-.75-.08-.98a7.6 7.6 0 0 1-3.06-3.25 11 11 0 0 1-1.14-3.18c0-.3-.34-.45-.49-.18l-.87 1.1q-1.7 1.7-4.42 1.73a6.3 6.3 0 0 1-5.67-3.78 23 23 0 0 1-1.59-8.39q0-2.64.5-5.1c1.88-9.3 5.47-17.84 8.3-26.91l.92-3.02q.15-.76.9-.65l1.4.42c11.72 4.3 24.95 17.72 16.22 29.1-.27.38 0 .64.3.57a21 21 0 0 1 7.3-1.25c3.02 0 5.7.53 7.74 1.4.68.11.53-.38.34-.64a34 34 0 0 1-4.99-11.08c-1.89-7.03-8.05-28.8-10.01-35.83-1.74-6.16-5.67-15.87-1.4-21.73.19-.26 0-.83-.6-.6q-6.32 1.55-12.6.22a.42.42 0 0 0-.56.61c.64 1.13 1.13 2.91.64 5.06-.3 2.27-14.25 41.8-16.44 48.64-1.4 4.43-3.02 8.81-3.97 13.08-.03.23-.37.42-.71.23-.76-.57-1.82-1.36-2.5-1.97-3.66-3.25-5.67-6.12-8.05-9.64a4 4 0 0 1-.3-1.2v-13.84c0-.87.38-1.62 1.25-1.62h6.04a6 6 0 0 1 6.01 4.6q.23.65.65.31a27.6 27.6 0 0 1 4.23-13.34c.07-.42-.38-.76-.76-.26-2.11 2.41-6.88 3.7-9.94 3.93h-6.54c-.75 0-1.2-.68-1.2-1.44v-16.44q1.66-1.78 3.4-2.8c2.83-1.55 7.06-1.89 9.82 1.1 1.9 2.04-.94 2.9-1.81 4.46-.87 1.55-.2 2.95.53 3.78 1.74 1.96 5.1 1.25 6.3-.95.58-1.06.84-2.98.84-3.97a9.5 9.5 0 0 0-3.93-7.36 11 11 0 0 0-2.76-1.52c-1.74-.6-3.1-.75-4.87-.9a19 19 0 0 0-4.84.64q-1.44.45-2.61 1.25v-16.78c0-.91.53-1.33 1.06-1.33h13.23c4.91 0 9.03 1.74 11.75 5.97.26.42.76.38.76-.22a22.7 22.7 0 0 1 2.8-12.29s.37-.98-.5-.75m8.35 25.66c.38 1.66.76 2.87 1.21 4.57a1274 1274 0 0 0 7.07 28.2c.15.87-.57.15-.57.15a45 45 0 0 0-15.38-8.7q-.38-.1-.3-.75c.15-.72 6.65-21.73 6.8-22.37l.3-1.06c.46-.76.87-.04.87-.04m-6.38 50.15c-.3 3.25 2.72 3.4 1.81 5.94q0 .22-.38.75c-.9 1.25-4.53 4.08-11.15 3.86-.56-.15-.6.45-.6.45q-.5 2.57-.23 5.1c.04.57.42.57.6.57a17.4 17.4 0 0 0 17.09-13.83c.45-2.04.45-4.84-1.47-6.16q-1.14-.57-2.35-.53c-2.53.07-3.13 2.19-3.32 3.85m-37.12 1.7v14.63q0 3.97-2.98 7.9c-.2.23 0 .64.26.53a21 21 0 0 1 11.6.26c.23.08.61-.15.3-.49a13.2 13.2 0 0 1-3.2-7.94v-6.76c0-.68-.27-1.13-.42-1.32l-1.44-1.9c-.98-1.47-2.38-3.32-3.63-5.13-.37-.6-.49.22-.49.22m38.02-184.24a4 4 0 0 1-2.07.57 9 9 0 0 1-3.78-.8 15 15 0 0 0-7.53-1.02q-1.5.2-2.8.72c1.1.38 4.17 0 4.92 0 1.7.04 2.95.27 4.23.76 1.14.37 1.74 1.2 2.05 1.5a5.6 5.6 0 0 0 3.55-.14 2.7 2.7 0 0 0 1.43-1.67zm-.9-8.96q0-3.13-3.22-4.72c-1.4-.64-3.4-.76-4.8-.8h-.3c-1.06-.07-2.95-.3-3.93-1.43-.72-.8-.72-1.55-.6-2.53q.07-.53.19-.76c-.23.08-.3.5-.42.76-.38 1.2-.45 2 .45 2.98 1.06 1.21 2.95 1.51 4.35 1.63h.3c1.36.07 3.25.19 4.58.75 1.13.5 2.94 1.7 2.9 4.16l-.1.64a2 2 0 0 1-1.33.53l-1.97.38c-3.85.8-5.21-.26-5.59-.34-1.1-.11-.94-1.1-.08-1.21l.12-.23a2 2 0 0 0 0-.68c-.08-.37-.38-.45-.76-.6-.75-.3-2.27-.64-3.13-.87q-2-.53-3.75-2.04c-1.36-1.29-.9-3.93.34-4.65a4 4 0 0 0-3.55 3.48q0 1.62.98 2.8c-.79-.23-1.81-.61-2.04-1.82a4 4 0 0 1 .34-1.97c-.83.87-1.74 2.27-2.26 2.8-2.08 0-3.03-.26-3.82-.41-.57-3.94-1.82-5.18-2.23-5.64-.15-.15-.53-.53-.87-.53-.57.27 0 .76.23 1.29.37.76.64 1.28.87 2.38.3 1.36.18 1.9.07 1.97q0 .07-.23.03a11.3 11.3 0 0 1-4.9-2.3l-1.82-1.48c-1.06-.9-1.21-1.24-1.51-.79-.16.15 0 .6.15.87q.56.83 1.17 1.51 1.43 1.7 3.29 2.69c2.5 1.36 4.8 1.96 7.18 2.26q-.57.6-1.06 1.25-2.27 2.5-4.95 7.48a15 15 0 0 1-6.12 6.8c.26 2.5 1.32 4.16 3.2 5.71 2.16 1.74 6.96 3.56 9.6 1.67.88-.6 1.03-1.21 1.14-2.27q0-.76.15-1.51c.23-.91.8-1.7 1.25-2.54.6-1.02 1.02-2 2.23-2.34.15.53-.08 1.4-.45 1.9-1.02 1.05-1.48 1.58-1.52 2.71.87-1.13 1.48-1.62 2.95-1.89.76-.15 1.25-.9 1.59-1.51l.19-.26q.34-.57 1.02-1.33l.3-.07c.27.56.45 1.47.08 2.15-.46.83-.42 1.14-.38 1.51l.04-.11c.49-.64.9-1.2 1.62-1.74a2.7 2.7 0 0 0 .87-1.43v-.12q.19-.56.45-1.06l.57-.07c.38.98-.45 1.89-.26 2.83.83-1.81 2.3-1.85 2.53-3.02q.38 0 .75.07h.23c.11.72-.53 1.21-.49 1.9.76-1.06 1.66-1.03 2-1.6q.68.2 1.4.65c.64.38.68 1.25.08 1.81a4 4 0 0 1-1.06.57c1.4.38 2.46-.11 2.9-.94.5-.8.39-2.05-.94-2.91-1.43-.95-4.64-1.02-4.68-1.06l-2.38.07c-.23 0-2.65.2-3.78-.75-.38-.34-.83-.83-.83-1.29-.04-.8.3-2.57 2.68-2.72 1.74-.11 3.4.53 5.21.87q.38.38.42 1.21a4 4 0 0 0 .53-1.13l.6.03h.27c.34.38.6.76.64 1.52q.57-.57.6-1.52l.65-.07.07.07c.46.42.84.87.91 1.74.38-.49.68-1.32.6-2.15l.72-.23q.3.19.5.5c.34.48.37 1.01.26 1.88a3 3 0 0 0 .9-3.32c.76-.57.99-1.14 1.25-1.93.08-.76.46-1.4.65-2.12m-2.08 11.98c-.5.27-1.29.46-1.82.12 0 .64-.3 1.32-.75 1.62 1.13-.26 2.27-1.06 2.57-1.77zm-25.06-13.49-2.8-.04c.23.5.57 1.63.5 3.03q1.13-1.63 2.3-2.95zm-2.46 3.14-2.9-.23c.22.57.94 2 .75 3.63q1.1-1.9 2.15-3.4m-2.15 3.47-3.9-.15c.39.65 1.37 2.65 1.33 4.43a27 27 0 0 0 1.85-3.03zm-2.65 4.43-4.46-.53q.91 1.13.87 3.66a14 14 0 0 0 3.56-3.13z" style="display:inline;fill:#fff;fill-opacity:1;fill-rule:nonzero;stroke:none;stroke-width:.78" />
  <path d="M216.78 382.4c.65-.04 1.48-.16 1.74-.84.27-.56.08-1.5.08-2.07v-1.29c0-.19-.04-.6.22-.68l.53.08.46.15c.22.03.8.3.98.71l.19 2.16.15.11.53.08c4.16 0 7.94.49 11.64 2.34q.64.3 1.28.76v.03h.08v.16h-.23l-1.24-.38-.99-.27a26.5 26.5 0 0 0-10.88-.83 1.5 1.5 0 0 1-.8-.04l-.07-.1-.11-.46v-3.37a1.5 1.5 0 0 0-.65-.45l-.26-.04h-.19c-.19 1.06-.08 2.3-.04 3.33q.04.6-.15 1.28c-.38.83-2 .57-2.72.53h-2.8q-9.67-.07-19.12 0a8 8 0 0 1-2.12-.15c0-.19.23-.23.38-.19l2.12-.04m12.28-13.11q0-.11.08-.19c1.85-.07 4-.07 5.93-.07l.34.03q.19.12.11.3v.5q0 .56-.49.6-3.02 0-5.93-.11c-.11-.08-.08-.38-.08-.53zm-3.1-5.3h-6.12c-.08 0-.3.05-.34-.07 0-.15.34-.11.45-.11l3.4-.34.84-.04c1.32-.07 1.66-.38 1.89-1.7 0-.38.37-1.13.37-1.17l.12 1.51q.26 1.55 1.74 2.08 3.4 1.25 7.02.11.53-.15.99-.45a2.7 2.7 0 0 0 1.06-1.2q.18-1.03.18-2.05 0-.04.08-.11l.11.07c0 1.74 1.14 2.42 2.12 2.95l.83.04 3.52.34h-1.14l-2.57.04-2.53.07a1.5 1.5 0 0 0-.76.19q-5.29 2.53-10.58 0l-.87-.19m-14.93 20.98h29.63c.27 0 .6.07.84-.08.22-.15.11-.49.22-.75.08-.16.34-.12.5-.12q6.99-.04 14.05.15h.72l.15-.03.15-.12v-.11l.08-.08v-.11l-.04-.23-.07-.22-.23-.23c-.72-1.1-1.44-1.7-2.42-2.57-4.16-2.53-9.07-3.36-13.9-4.99a4 4 0 0 1-2.28-2.72v-.42c-.37-1.36.08-2.53.46-3.78q.23-.52.72-.86a4 4 0 0 1 1.5-.87c1.7-.87 3.6-1.74 4.96-2.54.15-.07.3-.41.3-.64v-3.21q0-.76-.75-.76h-7.56a1 1 0 0 0-.6.2 7.6 7.6 0 0 1-4.43 1.7c-2.27.18-4.5-.16-6.35-1.67a1 1 0 0 0-.68-.23h-7.44q-.84 0-.84.83v2.95q0 .68.65 1.06 1.96.98 4.04 1.7l1.21.6c2.12 1.7 2.46 3.82 2.15 6.54q-.45 1.4-1.5 2.42c-3.9 2.84-7.87 3.48-12.18 4.8a1.1 1.1 0 0 0-.38.83c.12 1.25-.37 1.97-1.05 2.91" style="display:inline;fill:#fff;fill-opacity:1;fill-rule:evenodd;stroke:none;stroke-width:.849959" />
  <path d="M59.45 192.9q-2.65 2.8-5.3 6.12l-.07.04-.26.3q-.57.6-1.36.11l-.27-.26a11 11 0 0 1-1.36-1.59c-.04-.11-.19-.38-.07-.49l.34-.07a1.1 1.1 0 0 0 .64-.5c.53-1.24-.9-1.96-1.63-1.66-.56.27-.9 1.1-.86 1.66.07 1.63 1.05 3.03 2.07 4.16 1.36 1.51 2.95 2.69 4.54 3.97a6 6 0 0 1 2.27 4.04c-.04.46.34.16.45-.07v-.23q.15-1.7-.6-3.21a8 8 0 0 0-1.14-1.81l-.3-.3q-.57-.76-.11-1.37l.22-.3q.15 0 .23-.11c1.66-2.38 3.67-4.35 5.52-6.28.38-.49.83-.75-.08-1.62l-1.06-.95c-.83-.53-1.32-.04-1.81.42m-9.07 2.45c.23 0 .49.08.38.27 0 .19-.27.19-.38.19a.8.8 0 0 0-.5.38l-.07.6v.42l-.11-.2-.04-.26c-.04-.53 0-1.05.5-1.36zm-21.54.69-.8.03q-.38.08-.03.3c3.28 1.37 9.75 7.45 15.87 13.38-5.97 6.16-12.44 12.25-15.72 13.61q-.27.19.07.26 2.65.2 5.26-.45a23 23 0 0 0 6.04-3.02c3.48-3.03 4.2-4.12 5.78-5.56l1.06-1.13 2.27-2.57 2.2-2.42 2.71-3.1-1.81-1.59-2.68 2.91c-.84.87-4.73 5.3-5.67 6.39-1.51 1.59-3.14 3.4-4.92 4.99a27 27 0 0 1-7.82 4.69h-.04a23 23 0 0 0 7.64-4.84 76 76 0 0 0 4.8-5.03c.98-1.13 4.83-5.6 5.63-6.42l2.57-2.95c.15-.15.45-.08.45-.08l1.97 1.7.83-.87-3.18-2.75-4.72 5.29-4.08-4.58c-3.29-3.02-9.26-5.7-9.26-5.7s-3.21-.57-4.46-.5m4.12 2.08c2.5 1.44 4.99 3.03 6.99 5.18q1.7 1.7 3.17 3.4.57.53 1.67 1.82l-.34.34c-.76-.83-1.33-1.59-1.67-1.9a64 64 0 0 0-4.72-5.06 34 34 0 0 0-5.14-3.62c-1.25-.76-2.42-1.14-3.63-1.63 1.33.23 2.65.94 3.67 1.47m16.93 12.4-1.66 1.81.75.87 2.69 2.91 1.81-1.58-.19-.2zm3.59 4v.04zm4.69-3.55v.38a5.7 5.7 0 0 1-2.27 4.05c-1.51 1.32-3.18 2.49-4.54 4-1.02 1.17-1.96 2.53-2.04 4.16 0 .57.34 1.44.91 1.66.76.38 2.15-.38 1.62-1.62a1.1 1.1 0 0 0-.64-.5l-.38-.1c-.07-.16.08-.39.12-.5q.6-.87 1.36-1.59l.26-.26q.76-.53 1.36.11l.46.5c1.5 1.77 2.87 3.77 4.6 5.28 1.26 1.44 1.78 1.82 2.62.91q.75-.57 1.32-1.32c.23-.3.49-.53-.19-1.29-1.78-1.81-3.25-3.55-5.22-5.59l-.1-.42-.2-.22-.26-.12-.23-.3q-.5-.6.11-1.36l.2-.19.1-.11q.69-.8 1.14-1.81.76-1.52.6-3.22c-.1-.6-.56-.45-.71-.53m-10.36 1.7-.75.91 4.3 4.84 3.18-2.76-.83-.9-2.16 1.7c-.26.22-.56-.2-1.17-.84l-1.89-2.11z" style="display:inline;fill:#fff;fill-opacity:1;fill-rule:nonzero;stroke:none;stroke-width:.849959" />
  <path d="M372.68 192.37c.12.53.38 1.89-.83 2.98a15 15 0 0 1-3.66 2.35q-.5.15-.76-.15l-.15-.34a.8.8 0 0 0-.8-.2q-.3.08-.37.31v.72l.53 1.85a19 19 0 0 1 .83 3.06 38 38 0 0 1-.6 16.74l-.08.38-.65 2-.07.76c0 .11.26.27.38.3.34.04.68.08.83-.19l.19-.34q.19-.3.71-.15c1.37.57 2.69 1.51 3.67 2.35 1.17 1.05.9 2.45.83 2.98.04.83.38.64.83.34a13 13 0 0 1 4.92-1.13h.6l.08-.12v-.15l-.08-.11-.38-.34a6.4 6.4 0 0 1-1.58-3.74v-.3l-.12-.34c-.15-.04-.3.15-.34.19l-.22.18-.87.57c-1.93.53-3.78-.19-3.97-2.38l.07-.9a1.5 1.5 0 0 1 1.1-.91c.5-.04 1.02.34 1.47.37.84.12.53-.64.2-1.13-.57-.76-.5-2-.08-2.91.3-.68.45-1.02.83-1.21l.57-.23q1.43-.56 1.47.65v.9c0 .34.8.46 1.2.46h.2c.45 0 .45-.38.45-.65v-1.05a3.4 3.4 0 0 1 2.23 2.83c0 .38 0 1.06-.23 1.36a1.9 1.9 0 0 1-2.07.9l-.27-.1h-.3q-.08 0-.08.1 0 .27.23.61.34.57.83.87a3.5 3.5 0 0 0 2.38.46 4 4 0 0 0 1.25-.57c1.44-1.14 1.66-3.9.23-5.7a6 6 0 0 0-4.16-2.35v-.87q2.27.04 4.12 1.06c.68.45.98.9 1.4 1.59q0 .3.3.41c.15.08.38-.15.42-.26l.56-.72c.76-1.14 1.51-1.78 3.21-2.8l1.4-.45.04-.12c0-.1-.26-.22-.38-.22-.3-.12-2.45-.46-4.6-3.6-.2-.18-.46-.71-.8-.48a1 1 0 0 0-.23.37l-.34.57-.45.53c-1.1 1.1-3.14 1.32-4.8 1.47v-.75l.45-.08a6.2 6.2 0 0 0 3.7-2.3c1.48-1.82 1.25-4.54-.22-5.71a4 4 0 0 0-1.25-.57 3.8 3.8 0 0 0-2.34.46 4 4 0 0 0-.87.87 1 1 0 0 0-.23.6q0 .11.08.11h.3l.26-.15c.8-.15 1.67.27 2.08.95.23.3.23.98.23 1.32a3.4 3.4 0 0 1-2.2 2.84v-.99c0-.3-.03-.64-.48-.64h-.91q-.57 0-.5.45v.95q0 1.13-1.5.6c-.83-.3-.99-.6-1.36-1.5-.42-.92-.53-2.13.07-2.92.38-.45.64-1.25-.22-1.13-.5.07-.99.41-1.44.38-.9-.08-1.32-.95-1.25-1.78.23-2.2 2.04-2.91 3.97-2.38q.45.15.87.53.26.26.57.41c.19-.19.07-.38.11-.64a6.2 6.2 0 0 1 1.62-3.78c.87-.45.12-.68.12-.68l-.38-.04a11 11 0 0 1-4.91-1.13c-.87-.6-.6.34-.6.34m-10.33 5.37a4 4 0 0 0-.64.98c-.3.53.23.45.23.45.45-.49.98-.22 1.32.2q.46.7.64 1.54 1.14 3.97 1.14 8.13l-.04 3.78-.19 1.89q-.19 1.7-.57 3.4l-.34 1.17c-.15.57-.37.53-.3 0q0-.38.12-.64.34-1.52.45-3.07l.15-1.73v-4.2a34 34 0 0 0-.87-6.58 8 8 0 0 0-.5-1.43c-.26-.42-.82-.6-1.12-.19a4 4 0 0 0-.57 1.74 87 87 0 0 0-.3 11.49v1.1l.07 1.24.3 2.84c.16.71.42 2.87 1.9 2.72q.33 0 .56-.2c.98-.75 1.25-2.07 1.51-3.1a27 27 0 0 0 1.02-6.04 42 42 0 0 0-.56-10.73 23 23 0 0 0-1.63-4.5c-.57-1.13-1.59-.42-1.78-.26m11.3 9.97c.3 0 .42.34.57.5.57.68.76.94 1.59 1.02l.8.1q.26 0 .26.27v.8q0 .26-.27.26c-1.06.11-1.32.11-2.15.87l-.34.38c-.04.07-.11.3-.23.34h-.22l-.2-.08-.3-.37-.68-.57a8 8 0 0 0-2.04-1.14v-.15l.04-.19a1 1 0 0 1 .45-.15l.46-.22a8 8 0 0 0 1.96-1.6l.04.08q.15-.15.27-.15" style="display:inline;fill:#fff;fill-opacity:1;fill-rule:nonzero;stroke:none;stroke-width:.78" />
</symbol>
</svg>
