<?xml version="1.0" encoding="UTF-8" standalone="no"?>
<!-- Created with Inkscape (http://www.inkscape.org/) -->
<svg width="800" height="1200" viewBox="0 0 211.66666 317.50001" version="1.1" id="svg839" inkscape:version="1.1.2 (0a00cf5339, 2022-02-04)" sodipodi:docname="lines.svg" xmlns:inkscape="http://www.inkscape.org/namespaces/inkscape" xmlns:sodipodi="http://sodipodi.sourceforge.net/DTD/sodipodi-0.dtd" xmlns="http://www.w3.org/2000/svg" xmlns:svg="http://www.w3.org/2000/svg">
  <sodipodi:namedview id="namedview841" pagecolor="#ffffff" bordercolor="#666666" borderopacity="1.0" inkscape:pageshadow="2" inkscape:pageopacity="0.0" inkscape:pagecheckerboard="true" inkscape:document-units="mm" showgrid="false" units="px" inkscape:snap-center="true" inkscape:snap-bbox="true" inkscape:bbox-nodes="false" inkscape:snap-nodes="false" inkscape:zoom="0.63363467" inkscape:cx="388.23633" inkscape:cy="638.38048" inkscape:window-width="1920" inkscape:window-height="1136" inkscape:window-x="0" inkscape:window-y="0" inkscape:window-maximized="1" inkscape:current-layer="layer3" />
  <defs id="defs836">
    <marker style="overflow:visible" id="Arrow2Mstart" refX="0.0" refY="0.0" orient="auto" inkscape:stockid="Arrow2Mstart" inkscape:isstock="true">
      <path transform="scale(0.6) translate(0,0)" d="M 8.7185878,4.0337352 L -2.2072895,0.016013256 L 8.7185884,-4.0017078 C 6.9730900,-1.6296469 6.9831476,1.6157441 8.7185878,4.0337352 z " style="stroke:context-stroke;fill-rule:evenodd;fill:context-stroke;stroke-width:0.62500000;stroke-linejoin:round" id="path23562" />
    </marker>
    <marker style="overflow:visible" id="Arrow2Lstart" refX="0.0" refY="0.0" orient="auto" inkscape:stockid="Arrow2Lstart" inkscape:isstock="true">
      <path transform="scale(1.1) translate(1,0)" d="M 8.7185878,4.0337352 L -2.2072895,0.016013256 L 8.7185884,-4.0017078 C 6.9730900,-1.6296469 6.9831476,1.6157441 8.7185878,4.0337352 z " style="stroke:context-stroke;fill-rule:evenodd;fill:context-stroke;stroke-width:0.62500000;stroke-linejoin:round" id="path23556" />
    </marker>
  </defs>
  <g inkscape:groupmode="layer" id="layer4" inkscape:label="deckahedron" style="display:inline">
    <circle class="centermarker center_g" style="display:inline;fill:#ff00ff;fill-opacity:1;stroke:none;stroke-width:2.64583;stroke-linecap:butt;stroke-linejoin:round;stroke-miterlimit:4;stroke-dasharray:none;stroke-dashoffset:0;stroke-opacity:0.5" id="path60996-7-5" cx="105.83334" cy="294.2168" r="3.5456281" />
    <rect style="display:inline;opacity:1;fill:#231000;fill-opacity:1;stroke:none;stroke-width:0.2;stroke-linecap:round;stroke-linejoin:round" id="rect5331" width="111.125" height="111.125" x="50.270836" y="232.30437" rx="5.2916665" ry="5.2916665" />
    <rect style="display:inline;opacity:1;fill:#ffffff;fill-opacity:1;stroke:none;stroke-width:0.2;stroke-linecap:round;stroke-linejoin:round" id="rect5329" width="111.125" height="111.125" x="50.270836" y="234.42101" rx="5.2916665" ry="5.2916665" />
    <rect style="display:inline;opacity:1;fill:#231000;fill-opacity:1;stroke:none;stroke-width:0.2;stroke-linecap:round;stroke-linejoin:round" id="rect5327" width="111.125" height="111.125" x="50.270836" y="236.53764" rx="5.2916665" ry="5.2916665" />
    <rect style="display:inline;opacity:1;fill:#ffffff;fill-opacity:1;stroke:none;stroke-width:0.2;stroke-linecap:round;stroke-linejoin:round" id="rect5307" width="111.125" height="111.125" x="50.270836" y="238.65428" rx="5.2916665" ry="5.2916665" />
    <rect style="display:inline;opacity:1;fill:#231000;fill-opacity:1;stroke:none;stroke-width:0.2;stroke-linecap:round;stroke-linejoin:round" id="rect3956" width="111.125" height="111.125" x="50.270836" y="240.77092" rx="5.2916665" ry="5.2916665" />
    <rect style="display:inline;opacity:1;fill:none;fill-opacity:1;stroke:#ffffff;stroke-width:2.64583;stroke-linecap:butt;stroke-linejoin:round;stroke-miterlimit:4;stroke-dasharray:2.64583, 2.64583;stroke-dashoffset:0;stroke-opacity:0.5" id="rect5333" width="135.91818" height="135.91818" x="37.874245" y="228.37433" rx="5.2916665" ry="5.2916665" />
  </g>
  <g inkscape:groupmode="layer" id="layer5" inkscape:label="suit_chooser" style="display:inline">
    <circle class="centermarker center_g" style="fill:#ff00ff;fill-opacity:1;stroke:none;stroke-width:2.64583;stroke-linecap:butt;stroke-linejoin:round;stroke-miterlimit:4;stroke-dasharray:none;stroke-dashoffset:0;stroke-opacity:0.5" id="path24438-1-1" cx="230.03038" cy="78.122345" r="2.5420868" transform="rotate(45)" />
    <path class="suit suit_dragon" inkscape:connector-curvature="0" id="path10330-96-3" d="m 117.3591,201.94044 c -0.26522,0.21203 -0.66301,0.29172 -0.98125,0.29172 -0.47737,0 -1.06081,-0.0797 -1.79012,-0.3844 -1.1669,-0.46406 -2.45313,-0.60995 -3.55373,-0.4776 -0.47736,0.0532 -0.92821,0.17226 -1.32601,0.33177 0.51714,0.17226 1.9625,0 2.32052,0.0152 0.80887,0.0151 1.40558,0.11944 2.01555,0.34479 0.51714,0.18551 0.82213,0.57017 0.95473,0.72929 0.59671,0.15938 1.24645,0.10619 1.68404,-0.0797 0.25193,-0.10619 0.54367,-0.37139 0.67627,-0.78238 z m -0.42434,-4.23001 c 0.0129,-0.96801 -0.51715,-1.75032 -1.52492,-2.22767 -0.66301,-0.30465 -1.59122,-0.35786 -2.26749,-0.38442 h -0.14586 c -0.49065,-0.0246 -1.39232,-0.14575 -1.85643,-0.6763 0,0 -0.0129,-0.0151 -0.0396,-0.0399 -0.0265,-0.0399 -0.0796,-0.0926 -0.11932,-0.15882 -0.0129,-0.0246 -0.0396,-0.0662 -0.0663,-0.10619 -0.0129,-0.0399 -0.0396,-0.0797 -0.053,-0.13288 0,-0.0399 -0.0265,-0.0926 -0.0396,-0.14594 -0.0129,-0.0246 0,-0.1062 -0.0129,-0.15882 0,-0.0532 -0.0129,-0.11944 0,-0.17226 0,-0.0532 0,-0.10619 0.0129,-0.15938 0,-0.0532 0.0129,-0.0926 0.0265,-0.14594 0,-0.0399 0.0265,-0.0926 0.0265,-0.13289 0,-0.0399 0.0265,-0.0797 0.0396,-0.10619 0.0129,-0.0246 0.0265,-0.0532 0.0396,-0.0797 0.0129,-0.0399 0.0265,-0.0662 0.0265,-0.0662 0,0 -0.0129,0.0151 -0.0396,0.0662 -0.0129,0.0151 -0.0265,0.0399 -0.0396,0.0661 -0.0129,0.0246 -0.0396,0.0532 -0.053,0.10619 -0.0129,0.0399 -0.0396,0.0797 -0.053,0.13289 -0.0129,0.0399 -0.0396,0.0926 -0.053,0.14575 -0.0129,0.0532 -0.0265,0.11944 -0.0396,0.17226 -0.0129,0.0532 -0.0129,0.11944 -0.0129,0.17225 0,0.0532 -0.0129,0.10619 0,0.18551 0,0.0532 0.0129,0.11944 0.0129,0.1855 0.0129,0.0532 0.0265,0.1062 0.0396,0.15939 0.0129,0.0532 0.0265,0.10619 0.053,0.14594 0.0396,0.0926 0.0796,0.15939 0.10609,0.1991 0.0265,0.0399 0.0396,0.0661 0.0396,0.0661 l 0.1061,-0.0797 -0.0928,0.0797 c 0.50389,0.57017 1.39232,0.72929 2.05533,0.76908 h 0.14587 c 0.64974,0.0246 1.55143,0.0797 2.17466,0.35783 0.51715,0.23849 1.39232,0.80885 1.3658,1.9625 0,0.0399 -0.0129,0.17226 -0.0396,0.30525 -0.14584,0.18551 -0.39778,0.21203 -0.62323,0.25203 -0.13262,0.0151 -0.26522,0.0532 -0.41106,0.0797 -0.17241,0.0246 -0.35804,0.0662 -0.54367,0.10619 -1.81664,0.37135 -2.45313,-0.13288 -2.62551,-0.15881 -0.1061,-0.0151 -0.21214,-0.0532 -0.30495,-0.11945 0,0 -0.0129,-0.0151 -0.0265,-0.0246 -0.0265,-0.0246 -0.0265,-0.0797 -0.0265,-0.13289 0,-0.0532 0,-0.0926 0.0265,-0.15938 0,-0.0151 0.0396,-0.0399 0.0663,-0.0532 0.0265,-0.0152 0.0796,-0.0246 0.11933,-0.0399 0.0396,0 0.0663,-0.0246 0.0928,-0.0532 0.0396,-0.0399 0.053,-0.0399 0.0663,-0.1062 0.0265,-0.0926 0.0265,-0.212 0,-0.31823 -0.0396,-0.17226 -0.18564,-0.21203 -0.34475,-0.27879 -0.38456,-0.15939 -1.08734,-0.30527 -1.4984,-0.41097 -0.62323,-0.17226 -1.2332,-0.49065 -1.77686,-0.98123 -0.64975,-0.60998 -0.42435,-1.85645 0.15911,-2.18791 -1.14037,0.17225 -1.64425,1.06075 -1.68404,1.64422 -0.0265,0.5039 0.15912,0.96798 0.46409,1.32601 -0.37127,-0.10619 -0.84865,-0.29172 -0.96799,-0.8619 -0.053,-0.27881 0.0129,-0.7028 0.15911,-0.94146 -0.38454,0.41095 -0.82212,1.07404 -1.06081,1.33927 -0.98125,0 -1.44535,-0.13288 -1.81664,-0.21202 -0.26522,-1.85641 -0.86191,-2.45309 -1.04755,-2.652 -0.0796,-0.0797 -0.25193,-0.25202 -0.42434,-0.25202 -0.0265,0 -0.053,0 -0.0796,0.0151 -0.0129,0 -0.0265,0.0151 -0.0396,0.0399 0,0.0151 0,0.0246 0,0.0532 0.0795,0.18588 0.15912,0.34481 0.23866,0.49066 0.17241,0.35782 0.30498,0.60995 0.41106,1.1271 0.13262,0.64976 0.0796,0.90169 0.0265,0.94146 -0.0129,0.0151 -0.053,0.0246 -0.0928,0.0151 -0.51714,-0.0532 -1.55143,-0.50395 -2.34704,-1.10064 -0.18564,-0.14594 -0.66302,-0.50385 -0.848659,-0.66297 -0.503883,-0.43755 -0.570181,-0.5967 -0.729305,-0.38441 -0.05302,0.0662 0,0.27848 0.09281,0.41097 0.159118,0.25202 0.344757,0.50388 0.556928,0.72928 0.464086,0.5039 0.954736,0.92823 1.551446,1.25977 1.18015,0.64971 2.26748,0.92816 3.40786,1.08728 -0.17241,0.17225 -0.33153,0.37135 -0.50389,0.57024 -0.71605,0.80882 -1.4984,1.94921 -2.36031,3.5537 -0.7293,1.36578 -1.31275,2.25422 -2.890716,3.22224 0.132599,1.18016 0.62323,1.97575 1.524926,2.70505 1.00777,0.82213 3.28852,1.67075 4.54823,0.78234 0.41106,-0.29171 0.47737,-0.57018 0.53041,-1.06082 0.0265,-0.23849 0.0129,-0.5039 0.0796,-0.74256 0.0928,-0.42446 0.37127,-0.79561 0.58345,-1.18015 0.27845,-0.49063 0.47736,-0.95473 1.04755,-1.11385 0.0796,0.25202 -0.0265,0.66301 -0.21214,0.87515 -0.47736,0.51714 -0.68953,0.76911 -0.71605,1.31277 0.42434,-0.55689 0.70279,-0.76911 1.40558,-0.90172 0.37126,-0.0661 0.58345,-0.42447 0.75582,-0.716 0.0265,-0.0399 0.053,-0.0926 0.0796,-0.13288 0.1061,-0.15939 0.26522,-0.41099 0.47737,-0.62323 0.0396,-0.0151 0.0928,-0.0246 0.14588,-0.0399 0.1326,0.27849 0.22544,0.7028 0.0396,1.03427 -0.21214,0.3844 -0.19891,0.53044 -0.18563,0.70281 0,-0.0151 0.0129,-0.0246 0.0265,-0.0399 0.22543,-0.30525 0.43757,-0.58345 0.76908,-0.82215 0.22544,-0.14594 0.31825,-0.39794 0.41106,-0.68953 l 0.0129,-0.0532 c 0.053,-0.15938 0.11933,-0.33177 0.19891,-0.50387 0.0928,-0.0152 0.18564,-0.0246 0.27846,-0.04 0.15912,0.47711 -0.22544,0.90168 -0.13262,1.35251 0.39778,-0.86192 1.10059,-0.87515 1.20667,-1.4188 0.11933,0 0.2387,0 0.35804,0.0152 0.0265,0 0.0663,0 0.1061,0 0.053,0.34479 -0.25193,0.58345 -0.23866,0.90169 0.34475,-0.50386 0.78235,-0.47711 0.94147,-0.7558 0.22543,0.0661 0.43757,0.15938 0.66301,0.30525 0.30498,0.19909 0.33152,0.59672 0.0396,0.86192 -0.14583,0.11944 -0.30495,0.212 -0.50389,0.26525 0.66301,0.18551 1.1669,-0.0532 1.39232,-0.43751 0.22543,-0.38441 0.15912,-0.96802 -0.46408,-1.39237 -0.67627,-0.43751 -2.18793,-0.4776 -2.21445,-0.49063 l -1.12712,0.0246 c -0.10609,0 -1.24645,0.0926 -1.79012,-0.35785 -0.1724,-0.14576 -0.38455,-0.3844 -0.39778,-0.60996 -0.0129,-0.37139 0.14583,-1.20668 1.28624,-1.28622 0.80887,-0.0399 1.59122,0.25203 2.45313,0.41096 0.10609,0.14575 0.18563,0.31827 0.21214,0.58345 0.1061,-0.11944 0.19891,-0.31824 0.25193,-0.53041 0.0928,0 0.18563,0.0151 0.27845,0.0151 0.0396,0 0.0796,0 0.11933,0 0.15912,0.17225 0.29174,0.35786 0.31824,0.71603 0.14583,-0.17225 0.25193,-0.43751 0.27846,-0.72928 0.10609,0 0.21214,-0.0151 0.30497,-0.0246 0.0129,0.0151 0.0265,0.0246 0.0396,0.0399 0.21215,0.1991 0.39783,0.39795 0.42435,0.80884 0.18564,-0.22556 0.33152,-0.60993 0.27845,-1.02103 0.11933,-0.0246 0.23867,-0.0663 0.34476,-0.1062 0.0928,0.0662 0.1724,0.14576 0.23869,0.23847 0.15912,0.23849 0.18564,0.49067 0.11933,0.90171 0.35804,-0.26525 0.66301,-0.91494 0.43758,-1.57793 0.22543,-0.15939 0.41106,-0.35782 0.50388,-0.62326 0.0265,-0.0926 0.0663,-0.18551 0.0796,-0.29172 0.0265,-0.10619 0.053,-0.21201 0.053,-0.33126 0.053,-0.19908 0.0796,-0.46409 0.0928,-0.54367 z m -0.98125,5.67537 c -0.22543,0.13231 -0.60997,0.22556 -0.86192,0.0532 0,0.30527 -0.14583,0.63649 -0.35803,0.78232 0.5304,-0.13231 1.07407,-0.51709 1.21993,-0.84863 z m -7.85002,2.17464 c 0,0 0,0 0,0 0,0 0,0 0,0 0,0 0,0.0151 0,0.0246 v 0 c 0,0 0,-0.0151 0,-0.0246 z m -4.01782,-8.55279 -1.32602,-0.0246 c 0.1061,0.23849 0.27845,0.76911 0.22543,1.44532 0.37127,-0.51709 0.7293,-0.99448 1.10059,-1.40553 z m -1.1669,1.4719 -1.37905,-0.1062 c 0.11933,0.27879 0.45085,0.95471 0.37126,1.72383 0.33153,-0.59669 0.66301,-1.12714 1.00777,-1.61773 z m -1.02103,1.64422 -1.84317,-0.0661 c 0.18564,0.30525 0.64975,1.24646 0.63649,2.09514 0.30501,-0.42451 0.57019,-0.87516 0.86192,-1.41884 0.10609,-0.1991 0.21214,-0.39793 0.33152,-0.59669 z m -1.24646,2.0951 -2.121623,-0.23849 c 0.291748,0.35786 0.437572,0.96796 0.411058,1.72384 0.769094,-0.4776 1.286235,-0.95473 1.697305,-1.48516 v 0 z" style="display:inline;fill:#ffffff;fill-opacity:1;fill-rule:nonzero;stroke:none;stroke-width:0.206375" />
    <path class="suit suit_blades" id="path15784-7" style="display:inline;fill:#ffffff;fill-opacity:1;fill-rule:nonzero;stroke:none;stroke-width:0.206375" d="m 98.754387,201.23921 c 0.0025,0.0151 0.0059,0.0276 0.01476,0.039 l -0.01533,-0.10582 z m 0.01476,0.039 c 0.04501,0.0801 0.194722,0.0791 0.26396,0.0674 0.238081,-0.0541 0.90244,-0.16071 1.406273,0.39622 0.3979,0.47736 0.8617,1.11457 1.11365,1.73783 0.0535,0.14614 0.0243,0.2911 -0.0795,0.34474 -0.0545,0.0399 -0.1053,0.0536 -0.14475,0.0803 -0.1189,0.0935 -0.10673,0.25047 -0.093,0.38347 0.0153,0.0661 0.0789,0.18645 0.1321,0.18645 0.10616,0.0276 0.24085,4.7e-4 0.34734,-0.0246 0.29193,-0.0793 0.58354,-0.17225 0.87552,-0.23786 0.43741,-0.14595 0.7951,-0.25233 1.12679,-0.31788 0.10648,-0.0246 0.22528,-0.0538 0.33156,-0.0664 0.74255,-0.13269 1.52336,-0.22433 2.38528,-0.26402 0.90172,-0.053 1.77837,-0.0276 2.58726,0.039 0.41097,0.0397 0.74109,0.0793 1.05931,0.11906 0.72935,0.10619 1.33883,0.22677 1.89583,0.38593 l 0.1604,0.039 c 0.18549,0.053 0.41196,0.12001 0.6242,0.1994 0.1062,0.0397 0.23845,0.0797 0.34421,0.10619 0.11921,0.0276 0.251,0.0388 0.35721,0.0246 0.0541,0.001 0.1188,-0.12001 0.13251,-0.18607 0.0231,-0.14651 0.0399,-0.30372 -0.0931,-0.3833 -0.04,-0.0399 -0.10517,-0.0536 -0.14487,-0.0803 -0.0927,-0.0532 -0.13309,-0.19847 -0.0802,-0.34443 0.26523,-0.63644 0.72848,-1.27407 1.11352,-1.73789 0.5038,-0.55703 1.1676,-0.43617 1.40643,-0.39598 0.0797,0.0132 0.27966,0.0276 0.27963,-0.10676 l -9.1e-4,-0.0678 c 7.6e-4,-0.0246 -0.0308,-0.0517 -0.0311,-0.0649 -0.0252,-0.0532 -0.0643,-0.10733 -0.0775,-0.16071 -0.22556,-0.47736 -0.49115,-1.1931 -0.53089,-2.33347 -0.0148,-0.0532 -0.0157,-0.10487 -0.0151,-0.15787 7.4e-4,-0.0399 0.0161,-0.095 -0.0153,-0.12153 -0.0168,-0.0151 -0.04,-0.0276 -0.04,-0.0276 l -0.0642,0.001 c -0.0252,4.2e-4 -0.041,0.0276 -0.0544,0.0434 l -0.15795,0.15787 c -0.33114,0.30495 -0.91464,0.68976 -1.77664,0.76915 l -0.1475,2e-5 c -0.0541,-10e-4 -0.13167,-0.0151 -0.15793,0.052 -0.0234,0.067 0.0667,0.13383 0.0932,0.16033 0.04,0.0399 0.0669,0.0793 0.0932,0.10581 0.10614,0.11907 0.21134,0.26588 0.25123,0.41173 0.26522,0.91498 -0.079,1.77677 -1.12651,1.8829 -0.14603,0.0276 -0.29239,-0.001 -0.42502,-0.0414 -0.22549,-0.0793 -0.41144,-0.26339 -0.4245,-0.51542 -0.0249,-0.22556 0.16025,-0.47921 0.18641,-0.69154 0.0535,-0.39766 -0.31872,-0.26525 -0.53088,-0.10619 -0.38414,0.27879 -0.969,0.24063 -1.39336,0.0414 -0.31827,-0.13269 -0.47659,-0.21324 -0.58267,-0.39882 -0.0246,-0.0664 -0.0666,-0.15825 -0.0934,-0.25111 -0.1457,-0.46409 -0.0916,-0.70441 0.2927,-0.70436 l 0.0508,-8.9e-4 0.37295,1.2e-4 0.0168,0.002 c 0.15931,0 0.21408,-0.38296 0.21248,-0.58277 l -9.1e-4,-0.0806 c -2.4e-4,-0.22556 -0.17259,-0.22524 -0.30553,-0.22524 h -0.49219 c 0.22552,-0.59667 0.78469,-1.01972 1.34172,-1.04608 0.1722,-0.0132 0.48859,0.0114 0.63452,0.10619 0.33138,0.19877 0.50398,0.61026 0.43749,0.98159 -0.0169,0.0517 -0.0393,0.0926 -0.0513,0.13231 -0.0136,0.0399 -0.0249,0.10563 -0.0163,0.145 0.0169,0.0151 0.0243,0.0276 0.0518,0.0276 0.0927,0.0132 0.21297,-0.0664 0.29234,-0.10714 0.1593,-0.10619 0.30322,-0.23972 0.40854,-0.39971 0.21205,-0.31835 0.27861,-0.74232 0.21269,-1.11366 -0.04,-0.21232 -0.13157,-0.42331 -0.26405,-0.59564 -0.54367,-0.68953 -1.84188,-0.78246 -2.70383,-0.10619 -0.6233,0.49062 -0.92854,1.03213 -1.08779,1.74811 -0.0167,0.0655 -0.0296,0.14651 -0.0312,0.21232 l -0.39637,1.2e-4 c 0.0246,-0.25203 0.0398,-0.50422 0.0516,-0.65009 0.0178,-0.0246 0.0161,-0.0507 0.0161,-0.0644 0.0409,-0.21202 0.0814,-0.43823 0.14841,-0.63683 0.0791,-0.21233 0.15775,-0.42329 0.27716,-0.5957 0.11834,-0.18607 0.27848,-0.37249 0.44953,-0.49299 0.092,-0.0674 0.19937,-0.11812 0.30519,-0.15844 0.0656,-0.0276 0.18547,-0.0689 0.19981,-0.14708 0.0246,-0.0793 -0.0789,-0.16979 -0.13217,-0.20987 -0.10606,-0.10581 -0.21198,-0.18702 -0.33137,-0.26678 -0.54365,-0.37126 -0.84861,-0.70326 -1.32597,-1.52541 -0.0661,-0.11944 -0.10591,-0.26403 -0.13232,-0.38324 -0.0243,-0.0929 -0.0153,-0.1874 -0.0801,-0.26679 -0.0163,-0.0276 -0.04,-0.0276 -0.0547,-0.0276 -0.0656,0.0151 -0.1065,0.1327 -0.11865,0.18683 -0.0523,0.14595 -0.21149,1.1674 -1.68344,2.18844 -0.10625,0.0791 -0.34508,0.20985 -0.2386,0.37009 0.0397,0.0661 0.11774,0.0801 0.17078,0.10619 0.10615,0.0532 0.19995,0.10468 0.27971,0.15787 0.0924,0.0664 0.1849,0.13269 0.25116,0.21233 0.50375,0.51724 0.62261,1.48635 0.68895,2.26869 l -0.37042,-1.1e-4 c -0.001,-0.0668 -0.0151,-0.14556 -0.0246,-0.21233 -0.15878,-0.72928 -0.47763,-1.27342 -1.08773,-1.75076 -0.8619,-0.68953 -2.16022,-0.58328 -2.70387,0.1062 -0.13259,0.17168 -0.22666,0.38632 -0.26697,0.59812 -0.066,0.38455 0.0153,0.79535 0.21263,1.11362 0.1061,0.15901 0.25264,0.30342 0.41192,0.39628 0.0799,0.053 0.19694,0.1062 0.29012,0.1062 0.0252,-4.2e-4 0.056,-0.0132 0.0559,-0.0246 0.0136,-0.0399 -5.9e-4,-0.10563 -0.0157,-0.14519 -0.0249,-0.0397 -0.0544,-0.095 -0.0546,-0.13478 -0.0794,-0.37123 0.11955,-0.78001 0.43761,-0.97892 0.14652,-0.0916 0.46483,-0.10562 0.63703,-0.10638 0.57025,0.0276 1.11359,0.44961 1.33898,1.04633 l -0.46356,-4e-5 c -0.14607,-6e-5 -0.30571,0.0132 -0.30568,0.22526 l -10e-6,0.42477 c 5e-5,0.1991 0.0668,0.23817 0.21269,0.23817 l 0.0144,-0.001 0.37295,9e-5 0.0508,-8.7e-4 c 0.3843,-8e-5 0.4385,0.25111 0.29264,0.70182 -0.14574,0.41103 -0.27935,0.47785 -0.70543,0.66205 -0.43744,0.19909 -1.0192,0.25387 -1.39075,-0.039 -0.21211,-0.17264 -0.58401,-0.30495 -0.53093,0.10619 0.0249,0.22556 0.20002,0.46346 0.18647,0.68892 -0.0401,0.42428 -0.46513,0.61174 -0.84948,0.58531 -1.04759,-0.10619 -1.37857,-0.9679 -1.12663,-1.8829 0.0401,-0.14575 0.14429,-0.29295 0.25174,-0.41146 0.0225,-0.0413 0.0669,-0.0797 0.0931,-0.10638 0.0414,-0.0367 0.12001,-0.0943 0.0934,-0.16033 -0.04,-0.053 -0.1077,-0.0517 -0.16044,-0.0521 l -0.14528,5e-5 c -0.87519,-0.0797 -1.44511,-0.46418 -1.77665,-0.76917 -0.05311,-0.0532 -0.120598,-0.10486 -0.160538,-0.15843 -0.01628,-0.0276 -0.02463,-0.0414 -0.05173,-0.0414 l -0.06729,-0.001 c -0.01439,0.001 -0.03969,0.0276 -0.03969,0.0276 -0.01779,0.0246 -0.0142,0.0801 -0.01628,0.11887 -0.01685,0.0517 -0.01628,0.10733 -0.0142,0.1609 -0.05332,1.15362 -0.305318,1.86935 -0.530988,2.33346 l -0.08028,0.15786 c -0.01779,0.0246 -0.024,0.0541 -0.0243,0.0678 z m 2.664893,4.62561 c 0.002,0.11395 0.0351,0.22955 0.13222,0.33406 0.0531,0.0532 0.10771,0.0926 0.1603,0.13193 0.0927,0.0797 0.197,0.13345 0.30313,0.17358 0.0399,0.0132 0.10791,0.0394 0.1481,0.0394 0.0252,-4.3e-4 0.10599,-0.0133 0.1054,-0.0409 l -9.2e-4,-0.0678 c 9e-5,-0.0132 -0.0305,-0.0392 -0.0401,-0.0392 -0.22571,-0.21232 -0.10589,-0.47841 0.0932,-0.6242 0.22575,-0.15882 0.49096,-0.2397 0.74332,-0.30556 1.25963,-0.38466 2.55967,-0.53039 3.84596,-0.55682 0.59664,-0.0114 1.20613,0.001 1.78959,0.0416 0.3051,0.0276 0.60954,0.0511 0.90128,0.0776 0.54374,0.0664 1.08857,0.14708 1.60573,0.27972 0.17235,0.053 0.37139,0.092 0.55684,0.14518 0.26507,0.0797 0.25205,0.20063 -0.0142,0.14803 -0.10633,-0.0114 -0.19996,-0.0413 -0.29261,-0.0545 -0.49064,-0.10581 -0.98072,-0.17263 -1.45807,-0.21233 -0.27858,-0.0276 -0.55851,-0.0517 -0.8236,-0.0649 -0.66305,-0.0276 -1.32607,-0.0422 -1.98907,-0.0151 -0.80881,0.0276 -1.63072,0.0948 -2.43964,0.25388 -0.22515,0.0539 -0.45097,0.10487 -0.66291,0.15844 -0.23854,0.0662 -0.47743,0.13117 -0.676,0.23816 -0.21205,0.11945 -0.29208,0.39786 -0.0931,0.55694 0.21189,0.17225 0.54508,0.22741 0.82355,0.25387 0.88846,0.1062 2.57083,0.15825 3.93661,0.15787 0.50398,4e-5 1.00894,4.8e-4 1.49959,-0.0132 0.17233,4e-5 0.34587,-0.0114 0.5179,-0.0114 0.19894,-1.3e-4 0.39687,-0.0276 0.59571,-0.0246 0.45116,-0.0276 0.90133,-0.0812 1.33897,-0.14764 0.33109,-0.0664 1.36668,-0.1994 1.28716,-0.87531 -0.0153,-0.10619 -0.0533,-0.224 -0.0931,-0.27693 -0.35783,-0.46407 -0.98071,-0.59784 -1.45812,-0.73034 -0.59673,-0.17226 -1.20814,-0.29079 -1.8181,-0.37041 -0.34468,-0.0394 -0.68858,-0.0797 -1.03336,-0.10619 -0.82214,-0.0664 -1.67192,-0.0788 -2.49405,-0.039 -0.76903,0.0397 -1.55175,0.11849 -2.30758,0.25109 -0.10615,0.0132 -0.19749,0.0369 -0.3031,0.0526 -0.43779,0.0918 -0.86289,0.22802 -1.27413,0.37327 -0.30559,0.0914 -0.59762,0.19724 -0.84949,0.39615 l -0.024,0.0276 c -0.13311,0.11603 -0.23845,0.29787 -0.23802,0.48708 z m 4.87939,-5.02432 c -0.0151,-0.14556 0.15869,-0.19786 0.23809,-0.26402 0.31829,-0.26526 0.43937,-0.35856 0.47931,-0.75607 0.024,-0.17225 0.0404,-0.19787 0.0518,-0.37033 0.0153,-0.0926 0.0259,-0.13175 0.11922,-0.13231 l 0.18651,10e-6 0.0144,-10e-4 0.18637,8e-5 c 0.0929,5.9e-4 0.11937,0.052 0.11948,0.13194 0.0534,0.50397 0.067,0.6226 0.41198,1.02045 0.0532,0.0664 0.10456,0.12058 0.17053,0.16033 0.0529,0.0276 0.14672,0.053 0.17353,0.10619 0.0163,0.0276 0.0153,0.0772 0.0153,0.10373 -0.0136,0.0399 -0.0404,0.0793 -0.0541,0.0933 -0.0517,0.0547 -0.11672,0.096 -0.17012,0.14841 -0.0931,0.10581 -0.19968,0.21293 -0.2795,0.31858 -0.18537,0.25202 -0.33056,0.51742 -0.4377,0.79502 -0.0237,0.0668 -0.0404,0.13118 -0.0919,0.17169 -0.0255,0.0132 -0.052,0.0132 -0.0645,0.0151 -0.0392,9.5e-4 -0.08,-0.0132 -0.0933,-0.0388 -0.0531,-0.0532 -0.0673,-0.13345 -0.0802,-0.1997 -0.0398,-0.0793 -0.0659,-0.15901 -0.10633,-0.22556 -0.14586,-0.27849 -0.31833,-0.54399 -0.54389,-0.75622 -0.0659,-0.0662 -0.13023,-0.1308 -0.19681,-0.18381 l 0.0399,-0.0132 c -0.0529,-0.0399 -0.0804,-0.0685 -0.0798,-0.12152 z" />
    <path class="suit suit_crown" id="path15762-8-1" style="display:inline;fill:#ffffff;fill-opacity:1;fill-rule:nonzero;stroke:none;stroke-width:0.224896" d="m 115.82873,207.60151 c -1.4e-4,-0.0496 -0.005,-0.10165 -0.0206,-0.14803 -0.11125,-0.13761 -0.17038,-0.30741 -0.30541,-0.38352 -0.86191,-0.86188 -1.84261,-1.68466 -2.89026,-2.51989 l -0.0144,-0.001 -0.0153,-0.0132 c -0.0408,-0.052 -0.0923,-0.0924 -0.1322,-0.13193 -0.18547,-0.17226 -0.23716,-0.39878 -0.0516,-0.6371 0.04,-0.0399 0.0791,-0.0924 0.11946,-0.13194 0.22565,-0.22525 0.47758,-0.45146 0.7562,-0.6371 0.0529,-0.0276 0.17225,-0.092 0.22546,-0.039 0.0415,0.0367 0.0397,0.10525 0.0401,0.15787 0.0252,0.10581 0.14608,0.26525 0.23867,0.30555 0.58343,0.25203 0.92801,-0.42439 0.78218,-0.76913 -0.12071,-0.26465 -0.51682,-0.4252 -0.78214,-0.41188 -0.7823,0.0394 -1.43238,0.49093 -1.97604,0.98156 -0.71605,0.6497 -1.27286,1.40473 -1.88285,2.13405 -0.49063,0.58346 -1.13964,1.03503 -1.90877,1.07467 l 0.0802,-0.11945 -0.1862,-1.9e-4 c -0.0661,0.14557 0.0153,0.26463 0.13244,0.3445 l 0.11937,1.5e-4 c 0.53044,0.053 1.06134,-0.0541 1.52545,-0.27972 0.31819,-0.159 0.61084,-0.34449 0.84949,-0.55682 0.0163,-0.0276 0.0399,-0.0384 0.0516,-0.0517 0.0249,-0.0276 0.0668,-0.0538 0.0931,-0.0806 0.23854,-0.17226 0.46461,-0.19757 0.6501,-0.0521 0.0545,0.0399 0.0931,0.0787 0.14564,0.10525 0.0168,0.0517 0.0153,0.0926 0.0405,0.11944 1.12699,0.78249 2.05567,1.73537 2.97052,2.61062 0.29744,-0.0152 0.52776,0.26247 0.78222,-0.039 l 0.43749,-0.50242 c 0.0401,-0.0532 0.0932,-0.12038 0.10628,-0.18645 0.0163,-0.0468 0.0218,-0.0954 0.0215,-0.145 z m -1.4762,-4.78866 c -0.003,0.096 -0.0451,0.19324 -0.13463,0.16033 -0.079,-0.0276 -0.0799,-0.13327 -0.0937,-0.1991 -0.0249,-0.0926 -0.1046,-0.18551 -0.17093,-0.22524 -0.0923,-0.0407 -0.18711,-0.0407 -0.2799,-0.0416 l -0.0934,4.7e-4 -0.0508,-8.7e-4 -0.0399,-0.0132 c -0.0169,0.0151 -0.0311,0.0151 -0.0311,0.0151 0.0249,-0.0394 0.0798,-0.0521 0.1061,-0.0522 0.0399,-0.0114 0.0926,-0.0246 0.11946,-0.0276 0.25205,-0.0114 0.50454,-4.9e-4 0.63718,0.23817 0.0209,0.031 0.0292,0.0876 0.0292,0.14556 z m -0.3393,-9.99175 c 0.003,-0.20986 -10e-4,-0.42058 -0.009,-0.62928 6e-5,-0.10619 -0.0929,-0.11887 -0.14481,-0.0132 -0.63649,1.55146 -3.52632,4.61476 -6.33744,7.50549 -2.9173,-2.81115 -5.79672,-5.87377 -6.43323,-7.42517 -0.0397,-0.0933 -0.13247,-0.0801 -0.13232,0.0276 -0.0246,0.83536 0.0153,1.68257 0.21264,2.49147 0.34485,1.00773 0.72966,1.9385 1.41932,2.87992 0.63638,0.79563 1.29866,1.71037 2.13415,2.10803 0.0225,0.0413 0.0397,0.10563 0.0552,0.145 0.0937,0.2114 0.29144,0.31735 0.46344,0.46367 0.18547,0.15938 0.3587,0.34557 0.54401,0.50491 0.41116,0.34465 0.80911,0.71409 1.20678,1.0723 l 1.15253,1.0359 c 0.30461,0.27849 0.60953,0.54272 0.90121,0.80813 0.15906,0.13326 0.30498,0.26586 0.45059,0.39885 0.0153,0.0132 0.0519,0.0547 0.10615,0.0933 l 0.75627,-0.86247 -0.0153,-0.0132 c 0,0 -0.54372,-0.50438 -1.36483,-1.2613 -0.41088,-0.38468 -2.52102,-2.22683 -3.02506,-2.69084 -0.75579,-0.70282 -1.63007,-1.48515 -2.35953,-2.32034 -0.23891,-0.27788 -0.46436,-0.57085 -0.66314,-0.84939 -0.42446,-0.5702 -0.76852,-1.12536 -1.02045,-1.61608 -0.26593,-0.50351 -0.45076,-0.93029 -0.55689,-1.23533 -0.0523,-0.15939 -0.10633,-0.27756 -0.11808,-0.35778 l -0.0405,-0.11907 c -8e-5,-0.0132 -4.7e-4,-0.0246 0.0167,-0.0276 0.0144,0.001 0.0315,-0.001 0.0329,0.0132 l 0.0405,0.11906 c 0.0246,0.0793 0.0659,0.19847 0.11785,0.34474 0.11939,0.29172 0.30473,0.72947 0.56961,1.20692 0.2655,0.49051 0.62539,1.04622 1.03604,1.59015 0.21195,0.27848 0.43745,0.5585 0.67598,0.82353 0.74289,0.7821 1.51015,1.49705 2.38535,2.26611 0.53051,0.46402 2.63973,2.29633 3.0509,2.66753 0.41077,0.3716 0.76879,0.68938 1.0075,0.88831 0.25174,0.21233 0.38584,0.33149 0.38584,0.33149 0.0408,0.0521 0.0505,0.11849 0.0237,0.17112 7.7e-4,0.0246 0.002,0.0407 -0.0144,0.0538 l -0.79766,0.92715 c 0.18548,0.17225 0.42353,0.38428 0.42353,0.38428 l 1.30007,-1.49696 c -0.75577,-0.66303 -1.61892,-1.43129 -2.49399,-2.24025 1.08736,-0.96798 2.01668,-1.80461 2.16257,-1.93723 l 2.67788,-4.36133 c 0.14918,-0.6067 0.21109,-1.23568 0.22005,-1.86472 z m -0.25919,0.0216 -0.0402,0.11907 c -0.0243,0.0929 -0.0688,0.2117 -0.12189,0.35744 -0.11931,0.30495 -0.30467,0.74219 -0.55687,1.23282 -0.67627,1.16688 -1.44484,2.34733 -2.45254,3.30204 -0.53047,0.53041 -1.08632,1.03514 -1.59015,1.51249 -0.15876,0.14595 -0.49069,0.45069 -0.87543,0.7822 l -0.1601,-0.15825 c 0.39792,-0.34476 0.74472,-0.63627 0.90384,-0.78212 0.51714,-0.46414 1.08572,-0.96974 1.61608,-1.47363 0.27888,-0.25203 0.53056,-0.50361 0.76914,-0.78219 0.63648,-0.76911 1.20775,-1.49849 1.72489,-2.42669 0.26531,-0.47743 0.45057,-0.91518 0.56974,-1.20694 0.0534,-0.14575 0.0926,-0.26463 0.11937,-0.34445 l 0.0402,-0.11907 c -9e-5,-0.0132 0.0169,-0.0151 0.0311,-0.0151 l 0.0167,-0.0276 c 0.0144,10e-4 0.0153,0.0132 0.0178,0.0246 z m -6.57827,9.71977 c -0.27833,-0.25233 -0.5838,-0.51686 -0.87534,-0.78219 -0.18557,0.159 -0.31677,0.29111 -0.39652,0.35736 -0.82214,0.75581 -1.36484,1.25866 -1.36484,1.25866 8e-5,0.0132 -0.0153,0.0151 -0.0153,0.0151 l 0.74331,0.84688 c 0.0456,-0.0452 0.0815,-0.0782 0.0933,-0.0776 0.13296,-0.11945 0.88726,-0.79656 1.81552,-1.61869 z m -1.90878,1.69639 c -0.004,0.006 -0.01,0.006 -0.0169,0.0152 l 0.0252,4.1e-4 z m 1.70156,2.32574 c 8.3e-4,-0.0318 -0.005,-0.0653 -0.02,-0.0988 l -0.18409,7e-5 c -0.78227,-0.0532 -1.43387,-0.489 -1.91162,-1.07169 -0.62316,-0.72936 -1.17982,-1.50012 -1.89564,-2.13676 -0.55701,-0.50386 -1.19384,-0.93904 -1.97611,-0.97889 -0.26531,-5e-5 -0.66285,0.15693 -0.78218,0.4221 -0.15956,0.35809 0.19909,1.02116 0.76919,0.76923 0.0926,-0.0394 0.22472,-0.19694 0.23848,-0.3031 0.0148,-0.0532 0.0153,-0.1342 0.0542,-0.1607 0.0662,-0.053 0.17254,0.0133 0.22571,0.0382 0.27867,0.18589 0.53083,0.41173 0.75633,0.63706 0.0545,0.0399 0.0923,0.0924 0.13241,0.13194 0.18588,0.23849 0.13099,0.46475 -0.0548,0.6371 l -0.13236,0.13194 -0.0153,0.0151 -0.0169,0.0151 c -0.0249,0.0276 -0.0532,0.0644 -0.0801,0.0649 -0.84867,0.72932 -1.77539,1.36629 -2.491504,2.18846 -0.02493,0.0276 -0.06678,0.0151 -0.09321,0.0246 -0.0537,0.0152 -0.105493,0.0407 -0.14496,0.0674 -0.10623,0.14595 -0.174375,0.331 -0.346767,0.46358 l 0.09302,0.0679 c -0.02493,0.0397 -0.03979,0.0793 -0.05173,0.11945 -0.0243,0.0929 -0.02461,0.19726 1.41e-4,0.28988 0.02463,0.0793 0.0672,0.1467 0.105946,0.18683 l 0.437639,0.50493 c 0.05312,0.0663 0.133034,0.10487 0.199123,0.1327 0.03994,0.0132 0.09285,0.0132 0.119462,0.0132 0.02523,4e-4 0.07886,0.0151 0.10616,-2.5e-4 0.0249,-0.0114 0.0519,-0.0541 0.0648,-0.0674 0.04,-0.0399 0.0666,-0.039 0.10615,-0.039 l 0.11937,1.3e-4 c 0.0252,4.4e-4 0.0533,0.0114 0.0805,-7.4e-4 0.86191,-0.83536 1.684,-1.53733 2.65202,-2.46556 0.0662,-0.0397 0.14644,-0.0409 0.19968,-0.0545 0.0529,-0.0276 0.0796,-0.0536 0.10647,-0.0935 0.0249,-0.0394 0.0243,-0.0791 0.0399,-0.11907 0.0529,-0.0276 0.10516,-0.0664 0.14466,-0.10581 0.19913,-0.15901 0.42449,-0.13118 0.65003,0.0545 0.0262,0.0246 0.0671,0.053 0.0939,0.0791 0.0178,0.0246 0.0407,0.0363 0.0543,0.053 0.25174,0.21233 0.52866,0.39778 0.84691,0.55684 0.47725,0.22526 1.00828,0.31954 1.52546,0.27972 l 0.11933,1.3e-4 c 0.0897,-0.0695 0.14814,-0.15484 0.15075,-0.24896 z m -0.82618,-5.00368 c -0.14555,-0.11963 -0.29098,-0.25203 -0.42463,-0.37022 -0.80893,0.75582 -1.58959,1.45705 -2.27911,2.05374 l 1.29758,1.49953 c 0,0 0.239,-0.22677 0.42504,-0.38591 l -0.80804,-1.02038 c -0.0153,-0.0132 -0.0163,-0.0378 -0.0163,-0.0507 -0.0234,-0.067 -0.0167,-0.13326 0.0246,-0.17358 0,0 0.14491,-0.11906 0.38346,-0.33156 0.23851,-0.21202 0.59896,-0.51703 1.01002,-0.88833 0.0797,-0.0662 0.21137,-0.18588 0.38339,-0.33152 z" />
    <path class="suit suit_anvil" d="m 103.46187,196.58656 c -0.30495,0.0152 -0.68951,0.0663 -0.82211,0.3844 -0.11881,0.27879 -0.0277,0.70282 -0.028,0.99471 1.7e-4,0.26493 -6e-5,0.33112 -2e-4,0.59653 -4.5e-4,0.0933 0.0123,0.29172 -0.11963,0.31837 -0.0797,0.0151 -0.15935,-0.0151 -0.23885,-0.0246 -0.0656,-0.0151 -0.14568,-0.0399 -0.22494,-0.0668 -0.10595,-0.0246 -0.37127,-0.159 -0.46399,-0.34511 -0.0123,-0.33113 -0.0663,-0.70267 -0.0795,-1.0211 -0.0129,-0.0189 -0.0525,-0.0394 -0.0794,-0.0532 -0.067,-0.0246 -0.15876,-0.0397 -0.25196,-0.0388 -1.949199,8e-5 -3.752559,-0.22554 -5.502909,-1.10059 -0.2115,-0.0935 -0.42452,-0.23787 -0.6093,-0.35886 0,0 -0.0123,-0.0246 -0.0123,-0.0246 0,0 -0.0129,-0.0189 -0.0265,-0.0151 -0.0129,-0.0189 -0.0271,-0.0403 -0.0167,-0.0655 0.0127,-0.0246 0.0792,0.002 0.11939,1.5e-4 0.18598,0.0784 0.39759,0.11944 0.59682,0.18532 0.14574,0.0399 0.30492,0.0797 0.46386,0.13383 1.57803,0.46389 3.19572,0.57018 4.800159,0.43751 0.11898,-0.0152 0.23863,-0.0246 0.35822,-0.0532 0.11902,-0.0152 0.2786,-0.0399 0.3712,0.0246 0.0129,3.6e-4 0.0265,0.0152 0.0268,0.0403 0.0407,0.0521 0.0397,0.14595 0.054,0.22526 -0.0127,0.53038 5e-5,1.04754 0.0123,1.59117 0.0394,0.0929 0.22522,0.19942 0.30504,0.21202 0.0246,2.1e-4 0.08,0.0152 0.11931,0.0246 0.0265,0.0151 0.0536,0.0246 0.0935,-4.3e-4 0.0797,-0.5039 0.0277,-1.10058 0.0123,-1.57792 2.9e-4,-0.1991 8e-5,-0.42466 0.0666,-0.60994 0.17239,-0.39802 0.95494,-0.27816 1.2995,-0.252 0.46413,0.0246 0.84864,0.0246 1.32602,0.0151 3.07633,0.0246 6.04662,0 9.04344,-2e-5 0.18567,-2.4e-4 0.39768,1.6e-4 0.5967,2.7e-4 0.0792,0.002 0.14564,-1.5e-4 0.23872,-0.0151 0.0387,7.9e-4 0.10589,-0.0152 0.14593,0.0113 -0.003,0.0152 0.0228,0.0418 0.0271,0.0664 0.002,0.0793 -0.10625,0.0933 -0.17294,0.0784 -0.0791,-0.002 -0.1598,0.0151 -0.2518,0.0151 -0.14564,1.6e-4 -0.30495,0.0152 -0.45086,0.0152 -0.0935,4.3e-4 -0.19897,-1.2e-4 -0.30504,1.3e-4 m -5.82119,6.20585 c -0.003,0.0407 -0.0157,0.0788 -0.0246,0.0933 -0.87514,0.0399 -1.89626,0.0246 -2.81118,0.0246 -0.0386,-7.9e-4 -0.10613,2.5e-4 -0.15866,-0.0189 -0.0669,-0.0246 -0.0666,-0.0797 -0.0665,-0.14613 -0.002,-0.0668 -5e-5,-0.13288 -1.9e-4,-0.21233 -3e-5,-0.15901 0.0528,-0.27909 0.23937,-0.27816 0.95471,0 1.90944,1e-5 2.8111,0.0399 0.0526,0.0397 0.028,0.19847 0.0277,0.26555 0.002,0.0668 4e-5,0.14651 1.6e-4,0.21233 m 1.47136,2.49312 c 0.42448,3.1e-4 0.84874,-5e-5 1.28625,-1e-5 0.58346,-8e-5 1.08733,1.7e-4 1.61777,0 0.0387,7.9e-4 0.14509,-0.0151 0.15872,0.0397 0.0108,0.0806 -0.15976,0.0636 -0.2118,0.0663 -0.53047,0.0797 -1.10055,0.10619 -1.61775,0.14575 -0.11924,5.5e-4 -0.25181,0.0152 -0.38455,0.0246 -0.63655,0.0399 -0.79551,0.17264 -0.91504,0.80883 -1e-4,0.1855 -0.14579,0.54364 -0.14604,0.55691 -0.0386,-0.23909 -0.0532,-0.49081 -0.0665,-0.72936 -0.0929,-0.4776 -0.37128,-0.82209 -0.83546,-0.98121 -1.08734,-0.38438 -2.20117,-0.41109 -3.31501,-0.0532 -0.15927,0.0522 -0.33113,0.12058 -0.47739,0.212 -0.22559,0.13327 -0.38463,0.33108 -0.49046,0.58365 -0.0917,0.31861 -0.0796,0.6364 -0.0926,0.95477 -1.3e-4,0.0246 0.002,0.0668 -0.0403,0.0659 -0.0129,-3.4e-4 -0.0412,-0.0132 -0.0526,-0.0397 -0.0123,-0.82213 -0.53046,-1.14035 -0.99454,-1.39234 -0.1325,-1.5e-4 -0.2654,-0.0151 -0.39781,-0.0246 -0.23897,-0.0151 -0.47752,-0.0246 -0.7161,-0.053 -0.10613,2.3e-4 -0.22546,-0.0151 -0.34479,-0.0246 -0.10616,2e-4 -0.21242,-0.0246 -0.31836,-0.0246 -0.052,0.002 -0.10615,2.2e-4 -0.15887,-2.1e-4 -0.0129,-3.4e-4 -0.13271,1.1e-4 -0.12029,-0.0515 0.0112,-0.0522 0.14509,-0.0151 0.19912,-0.0151 0.10619,-1.9e-4 0.21236,-1e-4 0.33158,-2e-5 0.39797,2.5e-4 0.8089,-0.0151 1.20665,-0.0151 0.39796,2.4e-4 0.80895,-0.0151 1.20675,-0.0246 0.11938,1.3e-4 0.23934,-0.0388 0.34483,-0.0926 1.67074,-0.80899 3.3416,-0.80874 5.0256,-1e-5 0.11878,0.0541 0.26512,0.0933 0.41068,0.0941 m 7.20026,-9.82575 c 1.3e-4,-0.0246 -0.0271,-0.0664 -0.0536,-0.0797 -0.0129,-0.0189 -0.0523,-0.0394 -0.0794,-0.0403 -0.0265,-0.0151 -0.0935,4.2e-4 -0.13275,1.1e-4 -0.0664,-0.002 -0.13275,1e-4 -0.21198,-9e-5 -0.0801,-0.0151 -0.17232,0 -0.26501,4e-5 -4.40244,-0.0152 -8.91083,0 -13.41932,0 -0.11938,-1.5e-4 -0.29199,-0.0246 -0.39771,0.0399 -0.10549,0.0797 -0.0539,0.23818 -0.10551,0.3581 -0.0401,0.0793 -0.15927,0.0522 -0.23842,0.0545 -2.174689,3e-5 -4.428909,3e-5 -6.656589,-0.0663 -0.0792,-0.002 -0.15897,-2e-4 -0.23873,-2.4e-4 -0.0246,-1.9e-4 -0.0519,0.002 -0.0935,4.3e-4 -0.0246,-1.9e-4 -0.052,0.0189 -0.0794,0.0246 -0.0249,0.0189 -0.054,0.0246 -0.0662,0.053 -0.003,0.0152 -1.3e-4,0.0246 -0.003,0.0407 -0.003,0.0151 -0.0117,0.0151 -0.0274,0.0394 0.003,0.0152 -1.3e-4,0.0246 0.003,0.0532 -0.003,0.0407 0.002,0.0668 0.0127,0.10582 0.0123,0.0246 0.0108,0.0806 0.0403,0.10657 0.0292,0.0246 0.0529,0.0661 0.0934,0.11963 0.3447,0.50386 0.68951,0.79567 1.15357,1.20668 1.97576,1.20677 4.283049,1.59124 6.577109,2.36035 0.5568,0.22556 0.92816,0.70288 1.07414,1.28613 0.0169,0.0655 0.0132,0.13231 0.0123,0.21172 0.15802,0.6367 -0.0397,1.19335 -0.21199,1.79011 -0.0682,0.15825 -0.21202,0.27879 -0.3449,0.39787 -0.13271,0.11945 -0.30492,0.22587 -0.47732,0.31847 -0.0671,0.0246 -0.1473,0.0634 -0.22564,0.10524 -0.82224,0.39791 -1.71061,0.80889 -2.36037,1.19334 -0.0792,0.0399 -0.146619,0.19879 -0.144409,0.30618 0.002,0.0797 2.9e-4,0.15881 2e-5,0.25202 0.002,0.0668 0.0132,0.13231 0.0123,0.1991 5e-5,0.3447 -0.0123,0.70282 -0.0123,1.06084 2.4e-4,0.23879 0.105849,0.37134 0.371109,0.35812 1.19345,-0.0151 2.38684,-0.0246 3.56695,0 0.0935,-3.9e-4 0.21177,-0.0246 0.29144,-0.0801 0.59669,-0.51716 1.31226,-0.74342 2.08183,-0.8088 1.08733,-0.0797 2.13492,0.0662 3.02372,0.79427 0.0795,0.0532 0.19848,0.0933 0.31841,0.0918 0.29162,1e-4 0.5967,2.7e-4 0.9017,-1.9e-4 0.78236,-0.0246 1.56467,-3e-5 2.36025,0 0.0792,0.002 0.17231,-3e-5 0.26543,1e-4 0.26501,-4e-5 0.3846,-0.11907 0.38458,-0.38438 -0.0119,-0.46412 2e-5,-0.94148 0,-1.39231 9e-5,-0.23819 -0.0659,-0.38451 -0.29172,-0.50386 -0.3582,-0.18551 -0.91494,-0.41112 -1.64426,-0.70278 -0.0925,-0.0246 -0.18588,-0.0659 -0.27839,-0.10639 -0.19968,-0.0791 -0.38482,-0.17206 -0.57025,-0.29171 -1.00789,-0.79548 -1.16694,-1.80333 -1.02091,-3.08968 0.11946,-0.43753 0.38467,-0.83536 0.70265,-1.15371 1.85649,-1.3259 3.73938,-1.64426 5.76823,-2.26749 0.13222,-0.0797 0.18547,-0.23817 0.19808,-0.39842 -0.0665,-0.58347 0.17266,-0.92821 0.49061,-1.37907 -0.003,-0.0532 1e-5,-0.159 -0.0123,-0.23879" style="display:inline;fill:#ffffff;fill-opacity:1;fill-rule:evenodd;stroke:none;stroke-width:0.224896" id="path12810-9-0-7-2" inkscape:connector-curvature="0" sodipodi:nodetypes="ccscccccccsccccccccccccccccccccccccccccscccccccccccccccccccccccccccccccccccccccccccccccccccccccccccscccccccccccccccscccccsccccccccccccccc" />
    <path id="circle23894-5-4" style="color:#000000;fill:#ffffff;fill-opacity:0.5;stroke-width:1;stroke-linejoin:round;-inkscape-stroke:none" d="m 123.69292,202.45034 h -4.47697 c -0.11084,3e-5 -0.19988,0.0891 -0.19988,0.19987 v 4.47698 l 1.37539,-1.3754 c 4.34022,4.63011 5.73985,10.9965 4.2,16.74736 l 2.5447,0.68185 c 1.76672,-6.63562 0.14174,-13.99275 -4.87308,-19.30082 z" sodipodi:nodetypes="ccscccccc" />
    <path id="path25855" style="color:#000000;fill:#ffffff;fill-opacity:0.5;stroke-width:1;stroke-linejoin:round;-inkscape-stroke:none" d="m 91.137482,202.45033 h 4.476972 c 0.110838,4e-5 0.199878,0.0891 0.199878,0.19988 l 2e-6,4.47697 -1.375396,-1.37539 c -4.340218,4.6301 -5.739845,10.99649 -4.199995,16.74736 l -2.544697,0.68185 c -1.76672,-6.63563 -0.141744,-13.99276 4.873076,-19.30083 z" sodipodi:nodetypes="ccscccccc" />
  </g>
  <g inkscape:groupmode="layer" id="layer8" inkscape:label="exhaustion" style="display:inline">
    <rect style="fill:none;fill-opacity:1;stroke:#ffffff;stroke-width:2.64583;stroke-linecap:butt;stroke-linejoin:round;stroke-miterlimit:4;stroke-dasharray:2.64583, 2.64583;stroke-dashoffset:0;stroke-opacity:0.5" id="rect26267" width="94.059319" height="94.059319" x="-56.006378" y="-2.6062291" rx="3.175" ry="3.175" transform="scale(-1,1)" />
    <circle class="centermarker" style="display:inline;fill:#ff00ff;fill-opacity:1;stroke:none;stroke-width:2.64583;stroke-linecap:butt;stroke-linejoin:round;stroke-miterlimit:4;stroke-dasharray:none;stroke-dashoffset:0;stroke-opacity:0.5" id="path60996-2" cx="8.976717" cy="44.423431" r="3.5456281" />
    <text xml:space="preserve" style="font-weight:300;font-size:6.35px;line-height:1.25;font-family:'URW Bookman';-inkscape-font-specification:'URW Bookman, Light';display:inline;fill:#ffffff;stroke-width:0.264583" x="6.951108" y="46.671326" id="text41632-2">
      <tspan sodipodi:role="line" id="tspan41630-9" style="font-size:6.35px;fill:#ffffff;stroke-width:0.264583" x="6.951108" y="46.671326">Exhaustion</tspan>
    </text>
  </g>
  <g inkscape:groupmode="layer" id="layer7" inkscape:label="discard" style="display:inline">
    <circle class="centermarker center_g" style="opacity:1;fill:#ff00ff;fill-opacity:1;stroke:none;stroke-width:2.64583;stroke-linecap:butt;stroke-linejoin:round;stroke-miterlimit:4;stroke-dasharray:none;stroke-dashoffset:0;stroke-opacity:0.5" id="path60996" cx="202.68994" cy="44.423428" r="3.5456281" />
    <rect style="fill:none;fill-opacity:1;stroke:#ffffff;stroke-width:2.64583;stroke-linecap:butt;stroke-linejoin:round;stroke-miterlimit:4;stroke-dasharray:2.64583, 2.64583;stroke-dashoffset:0;stroke-opacity:0.5" id="rect3956-4-5" width="94.059319" height="94.059319" x="155.66029" y="-2.6062291" rx="3.175" ry="3.175" />
    <text xml:space="preserve" style="font-weight:300;font-size:6.35px;line-height:1.25;font-family:'URW Bookman';-inkscape-font-specification:'URW Bookman, Light';fill:#ffffff;stroke-width:0.264583" x="174.81345" y="46.671326" id="text41632">
      <tspan sodipodi:role="line" id="tspan41630" style="font-size:6.35px;fill:#ffffff;stroke-width:0.264583" x="174.81345" y="46.671326">Discard</tspan>
    </text>
  </g>
  <g inkscape:groupmode="layer" id="layer6" inkscape:label="results" style="display:inline">
    <circle class="centermarker center_g" style="display:inline;fill:#ff00ff;fill-opacity:1;stroke:none;stroke-width:2.64583;stroke-linecap:butt;stroke-linejoin:round;stroke-miterlimit:4;stroke-dasharray:none;stroke-dashoffset:0;stroke-opacity:0.5" id="circle61738-7" cx="105.83334" cy="29.691345" r="3.5456281" />
    <g id="g26169" transform="translate(-0.41848373,0.04243763)" style="display:inline">
      <rect style="fill:#ffffff;fill-opacity:1;stroke:#ffffff;stroke-width:2.64583;stroke-linecap:butt;stroke-linejoin:round;stroke-miterlimit:4;stroke-dasharray:none;stroke-dashoffset:0;stroke-opacity:0.5" id="rect23334" width="59.182426" height="33.363567" x="76.660606" y="12.967124" rx="3.175" ry="3.175" />
      <text xml:space="preserve" style="font-size:3.88056px;line-height:1.25;font-family:sans-serif;-inkscape-font-specification:sans-serif;fill:#000000;stroke-width:0.264583" x="85.790741" y="15.12435" id="text26144">
        <tspan sodipodi:role="line" id="tspan26142" style="font-style:normal;font-variant:normal;font-weight:300;font-stretch:normal;font-size:11.2889px;font-family:'URW Bookman';-inkscape-font-specification:'URW Bookman, Light';font-variant-ligatures:normal;font-variant-caps:normal;font-variant-numeric:normal;font-variant-east-asian:normal;fill:#000000;stroke-width:0.264583" x="85.790741" y="15.12435">Results</tspan>
      </text>
      <text xml:space="preserve" style="font-size:3.88056px;line-height:1.25;font-family:sans-serif;-inkscape-font-specification:sans-serif;stroke-width:0.264583" x="85.790741" y="14.595183" id="text10946">
        <tspan sodipodi:role="line" id="tspan10944" style="font-style:normal;font-variant:normal;font-weight:300;font-stretch:normal;font-size:11.2889px;font-family:'URW Bookman';-inkscape-font-specification:'URW Bookman, Light';font-variant-ligatures:normal;font-variant-caps:normal;font-variant-numeric:normal;font-variant-east-asian:normal;fill:#ffffff;stroke-width:0.264583" x="85.790741" y="14.595183">Results</tspan>
      </text>
    </g>
  </g>
  <g inkscape:groupmode="layer" id="layer3" inkscape:label="play_area" style="display:inline">
    <circle class="centermarker center_g" style="display:inline;fill:#ff00ff;fill-opacity:1;stroke:none;stroke-width:2.64583;stroke-linecap:butt;stroke-linejoin:round;stroke-miterlimit:4;stroke-dasharray:none;stroke-dashoffset:0;stroke-opacity:0.5" id="circle61738" cx="105.83334" cy="158.75" r="3.5456281" />
    <circle class="centermarker center_card1" style="display:inline;fill:#ff00ff;fill-opacity:1;stroke:none;stroke-width:2.64583;stroke-linecap:butt;stroke-linejoin:round;stroke-miterlimit:4;stroke-dasharray:none;stroke-dashoffset:0;stroke-opacity:0.5" id="circle61738-6" cx="105.83334" cy="100.54166" r="3.5456281" />
    <circle class="centermarker center_card2" style="display:inline;fill:#ff00ff;fill-opacity:1;stroke:none;stroke-width:2.64583;stroke-linecap:butt;stroke-linejoin:round;stroke-miterlimit:4;stroke-dasharray:none;stroke-dashoffset:0;stroke-opacity:0.5" id="circle61738-4" cx="116.41668" cy="127" r="3.5456281" />
    <circle class="centermarker center_card3" style="display:inline;fill:#ff00ff;fill-opacity:1;stroke:none;stroke-width:2.64583;stroke-linecap:butt;stroke-linejoin:round;stroke-miterlimit:4;stroke-dasharray:none;stroke-dashoffset:0;stroke-opacity:0.5" id="circle61738-63" cx="95.25" cy="153.45834" r="3.5456281" />
  </g>
</svg>
