<svg xmlns="http://www.w3.org/2000/svg" width="420" height="420"><path d="M245.22 226.95c0-.35-.21-.78-.49-1-.51-.41-1.18-.33-1.83-.17-8.8 2.78-15.42 9.74-23 20.08a9.6 9.6 0 0 0-5.01-4.42c-2.73-1.01-5.98-.35-7.43.83a1.14 1.14 0 0 0 .6 2.03c1.43.16 3.45 2.32 4.37 4.16l1.21 2.43c1.66 3.33 3.37 6.76 4.36 8.56.29.54.87.88 1.51.87.61-.01 1.15-.34 1.4-.87 6.24-12.94 14.4-23.71 23.61-31.15l.14-.14c.26-.29.56-.7.56-1.21m-1.15 0q0 .15-.27.46c-9.18 7.41-17.47 18.17-23.92 31.54-.15.31-.7.3-.87-.05-1.22-2.21-3.52-6.87-5.56-10.95-.98-1.96-3.26-4.57-5.26-4.8 1.07-.87 3.85-1.54 6.3-.64 2.17.8 3.86 2.43 5.25 5.53 7.83-10.87 14.55-18.34 23.43-21.15.54-.12.9-.14.9.06" style="fill:#80ff00;fill-opacity:1;fill-rule:nonzero;stroke:none;stroke-width:.755087"/><path d="M243.17 226.9c-8.88 2.8-15.6 10.27-23.43 21.14-1.4-3.1-3.08-4.73-5.25-5.53-2.45-.9-5.23-.23-6.3.65 2 .22 4.28 2.83 5.26 4.8 2.04 4.07 4.34 8.73 5.56 10.94.18.34.72.36.87.05 6.44-13.37 14.74-24.13 23.92-31.54.58-.66.16-.7-.63-.52" style="fill:green;fill-opacity:1;fill-rule:nonzero;stroke:none;stroke-width:.755087"/><path d="M211.55 226.95c0-.35-.21-.78-.49-1-.52-.41-1.18-.33-1.83-.17-8.8 2.78-15.42 9.74-23 20.08a9.6 9.6 0 0 0-5.01-4.42c-2.74-1.01-5.98-.35-7.43.83a1.14 1.14 0 0 0 .6 2.03c1.43.16 3.44 2.32 4.36 4.16l1.22 2.43c1.65 3.33 3.37 6.76 4.36 8.56.29.54.87.88 1.51.87.61-.01 1.14-.34 1.4-.87 6.24-12.94 14.4-23.71 23.61-31.15l.14-.14c.26-.29.56-.7.56-1.21m-1.15 0q0 .15-.27.46c-9.18 7.41-17.48 18.17-23.92 31.54-.15.31-.7.3-.88-.05-1.21-2.21-3.5-6.87-5.55-10.95-.98-1.96-3.26-4.57-5.26-4.8 1.06-.87 3.85-1.54 6.3-.64 2.17.8 3.86 2.43 5.25 5.53 7.83-10.87 14.55-18.34 23.42-21.15.54-.12.9-.14.9.06" style="fill:#80ff00;fill-opacity:1;fill-rule:nonzero;stroke:none;stroke-width:.755087"/><path d="M209.5 226.9c-8.88 2.8-15.6 10.27-23.43 21.14-1.4-3.1-3.08-4.73-5.25-5.53-2.45-.9-5.23-.23-6.3.65 2 .22 4.28 2.83 5.26 4.8 2.04 4.07 4.34 8.73 5.56 10.94.18.34.72.36.87.05 6.44-13.37 14.74-24.13 23.92-31.54.58-.66.16-.7-.63-.52" style="fill:green;fill-opacity:1;fill-rule:nonzero;stroke:none;stroke-width:.755087"/><path d="M226.97 180.45c-9.21 2.9-16.19 10.66-24.3 21.94-1.45-3.22-3.2-4.91-5.45-5.74-2.54-.94-5.43-.24-6.54.67 2.08.23 4.45 2.94 5.46 4.97 2.12 4.23 4.5 9.06 5.77 11.36.18.36.74.38.9.06 6.69-13.88 15.3-25.04 24.82-32.73.6-.68.16-.73-.66-.53" style="fill:#000;fill-opacity:1;fill-rule:nonzero;stroke:none;stroke-width:.783353"/><circle cx="207.51" cy="156.15" r="14.87" style="fill:#fff;fill-opacity:1;stroke:none;stroke-width:.2;stroke-linecap:round;stroke-linejoin:round"/><path d="M197.52 153.98a9 9 0 0 1 2.73-4.94 9 9 0 0 1 4.92-2.7l1.35-.29-.05-.98-.05-.98-.6.06c-1.05.1-3.17.86-4.35 1.54-.62.36-1.76 1.28-2.52 2.05-1.88 1.87-3 4.04-3.46 6.72-.1.63-.1.64.55.7l.92.1c.19.03.34-.33.56-1.28m22.28.21c-.33-2.3-1.14-3.46-2.65-5.45-1.84-2.43-4.61-4-8-4.54l-.9-.14v1.96l1.45.27a9 9 0 0 1 5.06 2.66c1.72 1.7 2.86 4.09 2.86 5.95v.57h1.12l3 .05.02-1.29zm-9.81 9.78a8.6 8.6 0 0 0 5.25-4.48c.93-1.97.86-4.71-.19-6.97a10 10 0 0 0-3.53-3.62 9 9 0 0 0-10.28 1.86c-3.95 4.23-1.9 11.66 3.66 13.3.33.1.4.05.4-.31 0-.23.04-.65.09-.92.09-.47.03-.54-1.06-1.1a5.9 5.9 0 0 1-3.2-5.46c0-2.72 1.16-4.58 3.64-5.8.86-.42 1.14-.47 2.78-.47 1.57 0 1.94.06 2.65.41a7 7 0 0 1 3.12 3.11c.52 1.06.57 1.3.56 2.73-.02 2.24-.66 3.54-2.4 4.89a10 10 0 0 1-2.97 1.27c-.05 0-.1-1.44-.1-3.2 0-3.04-.01-3.21-.35-3.45-.64-.45-1.58.15-1.2.76.1.14.16.7.17 1.25 0 .86-.04 1-.33 1-.4 0-1.36-1.06-1.51-1.67a4 4 0 0 1-.02-1.15c.33-2.44 3.56-3.01 4.68-.83.25.5.28.91.19 2.77l-1.58 3.05 1.97-1.3s1.64-2.04 1.64-3.41c0-1.18-.36-2.05-1.19-2.9a4.5 4.5 0 0 0-2.9-1.46c-3.22-.33-5.58 2.18-4.95 5.25.32 1.53 1.86 3.04 3.72 3.63.3.1-.04-1.14.02.55l.12 3.22.98-.1c.54-.07 1.5-.27 2.12-.45m-.36 4.1a12.3 12.3 0 0 0 7.04-3.96 12.5 12.5 0 0 0 2.85-5.42c.31-1.71.33-1.67-.81-1.6l-1 .05-.12 1.08c-.4 3.56-3.96 7.07-8.04 7.93a9.6 9.6 0 0 1-6.79-.87c-2.74-1.32-4.18-3.2-5-6l2.11-.55c0-.77-1.03-1.5-.33-1.81l-2.27.28h-.94c-1.08 0-1.07-.04-.68 1.81a11 11 0 0 0 2.32 4.66c2.96 3.72 7 5.25 11.66 4.4m-4.13 2.14c-5.66-.7-10.57-5.31-11.76-11.03-1.49-7.23 3.07-14.7 10.14-16.6 1.81-.49 5.5-.53 7.14-.07a14.3 14.3 0 0 1 9.29 7.76c1.01 2.15 1.22 3.22 1.2 6.07 0 2.33-.05 2.63-.56 4.17a14.7 14.7 0 0 1-5.74 7.43 15 15 0 0 1-9.71 2.27m5.87 3c3.27-.85 5.56-2.86 7.84-5.26 3.11-3.28 4.48-7.86 4.27-12.57a15.8 15.8 0 0 0-12.45-14.86 17.6 17.6 0 0 0-9.67.83c-4 1.68-7.65 5.8-9.2 10.37-1.82 5.33-.03 12.95 4.3 17.1 2.4 2.3 5.1 4.18 8.83 4.86 1.11.2 4.48-.05 6.08-.47" style="fill:#000;stroke-width:.0623139"/><path d="M207.5 161.85a.9.9 0 0 1-.81-.48c-.78-1.4-2.12-4.1-3.43-6.72l-.9-1.8c-.78-1.56-2.45-3.32-3.7-3.47l-1.18-.14 1.35-1.04c1.12-.91 3.9-1.7 5.69-1.04 1.68.62 2.42 1.81 3.45 3.77 6-8.26 10.98-13.02 17.81-15.18.3-.07.48-.1.64-.1.43 0 .6.24.66.37.19.41-.15.8-.28.94-7.27 5.88-13.66 14.31-18.54 24.43a.8.8 0 0 1-.76.46" style="fill:#000;fill-opacity:1;fill-rule:nonzero;stroke:none;stroke-width:.660132"/><path d="M200.56 148.8a8.7 8.7 0 0 1 3.12 3.42l.86 1.73c1.19 2.38 2.42 4.84 3.16 6.2 4.5-9.24 10.3-17.02 16.86-22.58-5.99 2.22-10.7 7.5-16.25 15.21l-.49.67-.34-.75c-.94-2.08-2.05-3.27-3.62-3.85a5.6 5.6 0 0 0-3.3-.05" style="fill:#fff;fill-opacity:1;fill-rule:nonzero;stroke:none;stroke-width:.62924"/><path d="m200.73 151.43 1.63-1.53-1.8-1.1-1.07 1.04-.1 1.18z" style="fill:#fff;stroke:none;stroke-width:.264583px;stroke-linecap:butt;stroke-linejoin:miter;stroke-opacity:1"/><path d="M217.34 105.67c-.15-1.59-2.13-4.3-4.18-5.39a9 9 0 0 0-2.96-.97c-.35 0-.37.04-.32.89l.04.88.89.11c2.41.3 4.2 2.14 4.82 4.96.1.4.15.42.96.42l2.4.1-.2-1.23zm-14.6.77c0-.17.14-.77.32-1.35.28-.93.46-1.2 1.43-2.16 1.12-1.11 2.33-1.77 3.27-1.77.37 0 .39-.04.39-.95v-.94l-.66.1c-.36.05-1.24.38-1.95.73a7.8 7.8 0 0 0-4.27 5.25c-.33 1.42-.35 1.38.61 1.38.73 0 .85-.04.85-.3m6.98 4.01c.04-1.46.1-1.75.4-2.16.19-.25.34-.67.34-.92 0-.94-1.47-1.48-2.16-.8-.37.37-.41 1.27-.09 1.6.28.28.46 1.65.26 1.95-.23.35-1.31-.04-1.78-.65-1.58-2.08-.04-5.05 2.62-5.06.68 0 1.76.6 2.3 1.28.4.5.48.75.53 1.65s0 1.2-.34 1.92c-.29.6-.4 1.1-.4 1.71 0 .47.03.86.08.86.24 0 .97-.5 1.41-.95a4.4 4.4 0 0 0 1.2-3.3 4.3 4.3 0 0 0-1.57-3.64q-2.13-1.95-5.23-.77c-1.87.71-2.9 2.33-2.88 4.5.01 1.4.45 2.42 1.44 3.3a4 4 0 0 0 2.94 1.16l.87.01zm2.5 8.35a11.3 11.3 0 0 0 7.37-6.08 10 10 0 0 0 1.17-4.52 11.4 11.4 0 0 0-3.15-8.75 11 11 0 0 0-7.02-3.56 11.2 11.2 0 0 0-10.27 4.25 12.3 12.3 0 0 0-1.7 12.23c1.38 3.1 4.6 5.8 7.56 6.35l.6.1-.06-.82-.04-.82-1.09-.4a7 7 0 0 1-3.42-2.23c-2-1.99-2.84-4.1-2.84-7.03 0-2.98.95-5.29 2.93-7.18 2.12-2.02 4.16-2.9 6.81-2.93 1.81-.02 2.8.2 4.47 1a8 8 0 0 1 2.56 1.88c.7.7 1.45 1.59 1.67 1.99a11.2 11.2 0 0 1 .15 10.25c-.67 1.29-2.5 3.19-3.7 3.83-.84.45-2.89 1.04-3.63 1.04-.35 0-.44-.07-.44-.35 0-.2-.04-.6-.09-.9l-.1-.56 1.07-.1c2.88-.26 5.58-2.85 6.22-5.95.3-1.4.28-1.42-.6-1.42-.76 0-.76 0-.86.58a5.8 5.8 0 0 1-2 3.72c-1.3 1.18-2.2 1.49-4.49 1.49-2.32 0-3.2-.3-4.55-1.56a6 6 0 0 1-1.88-3.24l-.19-.83h-.82c-.96 0-.97.02-.6 1.46a8 8 0 0 0 6.18 5.72l.94.19.04 1.72.04 1.73h1.29c.77 0 1.76-.12 2.47-.3m-5.17 1.85a14 14 0 0 1-6.41-2.76 12 12 0 0 1-3.18-4.13c-1.13-2.3-1.3-3.08-1.3-6.1.02-2.48.03-2.6.5-3.83.52-1.36 1.15-2.5 2.45-4.37 1-1.45 1.47-2.38 2.16-4.3 1.54-4.23 3.29-6.2 6.32-7.07a7 7 0 0 1 4.24.24c2.44 1.06 4.11 3.17 5.4 6.8.75 2.08 1.01 2.62 2.13 4.25 2.5 3.67 3.06 5.23 3.04 8.54a13 13 0 0 1-8.66 12.2c-1.82.63-4.35.83-6.69.53m6.08 1.33a14.7 14.7 0 0 0 7.1-4.23c2.57-2.7 3.84-6.02 3.84-10.04 0-1.99-.26-3.39-.94-5.04-.5-1.21-.63-1.43-2.35-4.1a23 23 0 0 1-2.1-4.11c-1.34-3.4-2.53-5.09-4.65-6.69a7 7 0 0 0-4.18-1.56 8.5 8.5 0 0 0-6.84 2.75 9 9 0 0 0-2.12 3.1 41 41 0 0 0-1.39 3.19c-.25.7-.68 1.6-.95 2a59 59 0 0 0-3.1 5.2 11.6 11.6 0 0 0-1.06 5.27c0 4.02 1.27 7.28 3.9 10.08a15.4 15.4 0 0 0 14.84 4.18m-7.77 1.85c-7.01-1.01-13.42-4.63-17.4-9.83-1.62-2.14-1.87-2.96-1.37-4.65.76-2.6 1.72-4.15 3.84-6.25.94-.94 2.04-2.13 2.43-2.64 1.4-1.83 2.85-5 3.9-8.58l1.18-4.02c.9-3.04 1.47-4.58 2.26-6a9.9 9.9 0 0 1 8.95-5.34 9.9 9.9 0 0 1 8.2 4.09c1.39 1.8 2.22 3.8 3.55 8.57 1.42 5.11 2.67 8.25 4.18 10.52a27 27 0 0 0 2.74 3.22c1.92 1.95 2.86 3.21 3.57 4.84.59 1.34.94 2.85.81 3.52-.23 1.26-3.09 4.7-5.58 6.74a26.6 26.6 0 0 1-12.37 5.67c-1.74.32-7 .4-8.89.14" style="fill:#000;stroke-width:.0554825"/></svg>