<svg xmlns="http://www.w3.org/2000/svg" id="svg6979" width="420" height="420" version="1.1">
  <symbol id="g_result_4">
    <g id="g_result_4">
      <path id="path23383-4-2" d="M246.57 235.3c0-.36-.21-.81-.5-1.04-.54-.42-1.24-.34-1.9-.18-9.17 2.9-16.06 10.14-23.95 20.91a10 10 0 0 0-5.22-4.6c-2.85-1.05-6.23-.37-7.73.87a1.19 1.19 0 0 0 .62 2.1c1.48.17 3.58 2.43 4.54 4.34l1.27 2.53c1.72 3.46 3.5 7.04 4.54 8.91.3.56.9.92 1.57.9.63 0 1.2-.35 1.46-.9 6.5-13.47 15-24.69 24.58-32.43l.15-.14c.27-.3.57-.73.57-1.27m-1.2 0q0 .15-.27.48c-9.56 7.72-18.2 18.92-24.9 32.84-.16.33-.73.3-.92-.05-1.26-2.3-3.65-7.15-5.78-11.4-1.02-2.04-3.4-4.75-5.48-5 1.11-.9 4-1.6 6.56-.66 2.26.83 4.02 2.53 5.47 5.75 8.15-11.31 15.15-19.1 24.39-22.01.56-.14.94-.16.94.06" style="fill:#80ff00;fill-opacity:1;fill-rule:nonzero;stroke:none;stroke-width:2.19108" />
      <path id="path23395-7-0" d="M244.44 235.25c-9.24 2.92-16.25 10.7-24.4 22.01-1.44-3.22-3.2-4.92-5.46-5.75-2.55-.94-5.45-.24-6.56.67 2.08.23 4.46 2.95 5.48 5 2.12 4.24 4.52 9.08 5.78 11.39.2.36.75.37.91.05 6.71-13.92 15.35-25.12 24.9-32.84.6-.68.17-.73-.65-.53" style="fill:green;fill-opacity:1;fill-rule:nonzero;stroke:none;stroke-width:2.19108" />
      <path id="path31585-5" d="M211.52 235.3c0-.36-.22-.81-.5-1.04-.55-.42-1.24-.34-1.92-.18-9.16 2.9-16.05 10.14-23.94 20.91a10 10 0 0 0-5.22-4.6c-2.85-1.05-6.23-.37-7.73.87a1.19 1.19 0 0 0 .62 2.1c1.48.17 3.59 2.43 4.54 4.34l1.27 2.53c1.72 3.46 3.5 7.04 4.54 8.91.3.56.9.92 1.57.9.64 0 1.2-.35 1.46-.9 6.5-13.47 15-24.69 24.58-32.43l.15-.14c.27-.3.58-.73.58-1.27m-1.2 0q.01.15-.28.48c-9.55 7.72-18.2 18.92-24.9 32.84-.16.33-.73.3-.91-.05-1.27-2.3-3.66-7.15-5.79-11.4-1.01-2.04-3.4-4.75-5.48-5 1.11-.9 4.01-1.6 6.57-.66 2.26.83 4.01 2.53 5.46 5.75 8.15-11.31 15.15-19.1 24.39-22.01.56-.14.94-.16.94.06" style="fill:#80ff00;fill-opacity:1;fill-rule:nonzero;stroke:none;stroke-width:2.19108" />
      <path id="path31587-95" d="M209.38 235.25c-9.24 2.92-16.24 10.7-24.39 22.01-1.45-3.22-3.2-4.92-5.46-5.75-2.56-.94-5.46-.24-6.57.67 2.08.23 4.46 2.95 5.48 5 2.13 4.24 4.52 9.08 5.79 11.39.19.36.75.37.9.05 6.71-13.92 15.35-25.12 24.91-32.84.6-.68.17-.73-.66-.53" style="fill:green;fill-opacity:1;fill-rule:nonzero;stroke:none;stroke-width:2.19108" />
    </g>
  </symbol>
  <symbol id="g_result_3">
    <g id="g_result_3">
      <path id="path31616-2" d="M227.57 186.89c-9.58 3.03-16.85 11.1-25.3 22.84-1.5-3.35-3.33-5.1-5.67-5.97-2.65-.98-5.65-.25-6.8.7 2.15.24 4.62 3.06 5.68 5.17 2.2 4.4 4.68 9.44 6 11.83.2.37.78.39.94.06 6.96-14.45 15.93-26.07 25.84-34.08.62-.7.17-.75-.69-.55" style="fill:#000;fill-opacity:1;fill-rule:nonzero;stroke:none;stroke-width:2.27309" />
    </g>
  </symbol>
  <symbol id="g_result_2">
    <g id="g_result_2">
      <circle id="path9254" cx="207.31" cy="161.59" r="15.48" style="fill:#fff;fill-opacity:1;stroke:none;stroke-width:.58035;stroke-linecap:round;stroke-linejoin:round" />
      <path id="path941-1" d="M196.9 159.33a9.6 9.6 0 0 1 2.85-5.14 9.4 9.4 0 0 1 5.13-2.8l1.4-.31-.05-1.02-.05-1.02-.63.06c-1.09.1-3.3.9-4.52 1.6-.65.38-1.83 1.34-2.63 2.13a12.5 12.5 0 0 0-3.6 7c-.11.66-.11.67.57.74l.95.1c.2.02.36-.34.59-1.34m23.2.22c-.35-2.4-1.18-3.6-2.76-5.67-1.92-2.54-4.8-4.17-8.32-4.73l-.95-.15v2.04l1.51.29a9.5 9.5 0 0 1 5.28 2.77c1.78 1.77 2.97 4.25 2.97 6.19v.6h1.17l3.1.05.04-1.35zm-10.22 10.18a9 9 0 0 0 5.47-4.66c.97-2.05.9-4.9-.2-7.26a10.5 10.5 0 0 0-3.67-3.77 9.4 9.4 0 0 0-10.7 1.94c-4.12 4.4-2 12.14 3.8 13.85.35.1.41.05.41-.33 0-.24.05-.67.1-.96.1-.49.03-.55-1.1-1.13a6.1 6.1 0 0 1-3.34-5.69c0-2.84 1.22-4.77 3.8-6.04.9-.44 1.2-.5 2.9-.5 1.62 0 2.01.07 2.76.44a7.4 7.4 0 0 1 3.24 3.24c.54 1.1.6 1.34.58 2.83-.02 2.34-.68 3.69-2.5 5.1-.59.45-2.61 1.32-3.08 1.32-.06 0-.1-1.5-.1-3.33 0-3.17-.02-3.35-.37-3.6-.67-.47-1.65.16-1.25.8.1.14.17.73.17 1.3 0 .9-.04 1.04-.34 1.04-.42 0-1.42-1.1-1.58-1.73-.06-.26-.07-.8-.01-1.2.34-2.55 3.7-3.14 4.86-.87.27.52.3.95.2 2.88l-1.64 3.18 2.05-1.36s1.7-2.12 1.7-3.55a4 4 0 0 0-1.22-3.02 4.7 4.7 0 0 0-3.04-1.51c-3.34-.35-5.8 2.27-5.14 5.46.33 1.6 1.93 3.16 3.87 3.79.32.1-.04-1.2.02.56l.13 3.36 1.02-.12c.56-.06 1.55-.26 2.2-.45m-.37 4.26a12.8 12.8 0 0 0 7.33-4.12 13 13 0 0 0 2.97-5.64c.32-1.79.34-1.74-.85-1.67l-1.04.06-.12 1.12c-.42 3.7-4.13 7.36-8.38 8.25-2.62.55-4.54.3-7.06-.9-2.86-1.38-4.35-3.33-5.2-6.26l2.2-.56c-.02-.8-1.09-1.56-.35-1.88l-2.37.29h-.98c-1.13 0-1.1-.04-.7 1.88.36 1.73 1.1 3.2 2.41 4.85a12 12 0 0 0 12.14 4.58m-4.3 2.23c-5.9-.73-11.01-5.53-12.24-11.48-1.55-7.53 3.19-15.3 10.55-17.28 1.9-.51 5.74-.55 7.44-.08a14.9 14.9 0 0 1 9.66 8.08c1.06 2.24 1.28 3.35 1.26 6.32 0 2.43-.05 2.74-.58 4.34-1 3.05-3.28 6-5.98 7.74a15.7 15.7 0 0 1-10.11 2.36m6.11 3.12c3.4-.88 5.79-2.97 8.16-5.47 3.24-3.42 4.66-8.18 4.45-13.09a16.5 16.5 0 0 0-12.96-15.47c-3.1-.69-7.22-.33-10.07.86-4.16 1.75-7.96 6.04-9.58 10.8-1.9 5.55-.03 13.48 4.49 17.81 2.5 2.39 5.3 4.34 9.18 5.06 1.16.21 4.67-.06 6.33-.5" style="fill:#000;stroke-width:.18082" />
      <path id="path23407-7" d="M207.3 167.53a1 1 0 0 1-.84-.5c-.8-1.46-2.21-4.28-3.57-7l-.94-1.88c-.8-1.62-2.55-3.45-3.86-3.6l-1.22-.15 1.4-1.09c1.17-.94 4.08-1.76 5.93-1.08 1.75.65 2.52 1.89 3.6 3.93 6.24-8.6 11.43-13.56 18.54-15.8q.44-.11.66-.1c.45 0 .63.23.7.38.18.42-.17.82-.3.97-7.57 6.13-14.23 14.9-19.3 25.44a.9.9 0 0 1-.8.48" style="fill:#000;fill-opacity:1;fill-rule:nonzero;stroke:none;stroke-width:1.91554" />
      <path id="path31567-2" d="M200.08 153.94a9 9 0 0 1 3.24 3.56l.9 1.8c1.24 2.48 2.52 5.04 3.3 6.46 4.67-9.63 10.72-17.73 17.55-23.52-6.24 2.31-11.15 7.81-16.93 15.84l-.5.7-.36-.79c-.97-2.16-2.14-3.4-3.77-4a6 6 0 0 0-3.43-.05" style="fill:#fff;fill-opacity:1;fill-rule:nonzero;stroke:none;stroke-width:1.82591" />
      <path id="path8012" d="m200.25 156.68 1.7-1.6-1.87-1.14-1.11 1.08-.1 1.23z" style="fill:#fff;stroke:none;stroke-width:.767757px;stroke-linecap:butt;stroke-linejoin:miter;stroke-opacity:1" />
    </g>
  </symbol>
  <symbol id="g_result_1">
    <g id="g_result_1">
      <path id="path925" d="M217.55 109.03c-.16-1.65-2.22-4.47-4.36-5.6a9 9 0 0 0-3.08-1.02c-.36 0-.38.05-.33.93l.05.92.92.12c2.51.3 4.37 2.22 5.02 5.15.1.42.15.45 1 .45l2.5.1-.2-1.28zm-15.21.8c0-.17.15-.8.34-1.4.3-.96.48-1.24 1.49-2.25 1.16-1.16 2.42-1.84 3.4-1.84.39 0 .4-.04.4-.98v-1l-.68.11c-.38.06-1.29.4-2.03.76a8.1 8.1 0 0 0-4.44 5.47c-.35 1.48-.37 1.44.63 1.44.77 0 .89-.05.89-.3m7.27 4.17c.05-1.52.1-1.82.42-2.24.2-.27.36-.7.36-.97 0-.98-1.54-1.54-2.25-.82-.39.38-.44 1.31-.1 1.66.3.29.49 1.72.28 2.03-.25.37-1.38-.05-1.86-.68-1.65-2.16-.04-5.26 2.73-5.27.7 0 1.83.63 2.4 1.34.4.52.49.78.54 1.72s0 1.24-.35 2a4 4 0 0 0-.42 1.77c0 .5.04.9.08.9.25 0 1.02-.52 1.48-1a4.5 4.5 0 0 0 1.24-3.43 4.5 4.5 0 0 0-1.63-3.78q-2.22-2.03-5.44-.8c-1.95.73-3.03 2.41-3 4.67a4.3 4.3 0 0 0 1.5 3.45 4.3 4.3 0 0 0 3.06 1.2l.9.01zm2.61 8.69a11.8 11.8 0 0 0 7.67-6.33 10 10 0 0 0 1.22-4.7c.2-3.52-.88-6.5-3.29-9.11a11.5 11.5 0 0 0-7.3-3.7c-4-.56-8.1 1.13-10.7 4.41-2.81 3.58-3.53 8.73-1.75 12.74 1.43 3.23 4.77 6.04 7.86 6.61l.61.11-.05-.86-.05-.86-1.12-.41a7.5 7.5 0 0 1-3.56-2.31 9.5 9.5 0 0 1-2.96-7.33c0-3.1.98-5.5 3.04-7.47 2.21-2.11 4.34-3.03 7.1-3.05 1.88-.02 2.9.2 4.65 1.04a8 8 0 0 1 2.67 1.95c.73.72 1.5 1.66 1.73 2.07a11.6 11.6 0 0 1 .16 10.67 12 12 0 0 1-3.85 4c-.88.47-3 1.08-3.78 1.08-.36 0-.45-.08-.46-.37a8 8 0 0 0-.1-.94l-.09-.58 1.1-.1c3-.28 5.82-2.97 6.49-6.2.3-1.44.29-1.47-.62-1.47-.8 0-.8 0-.9.6a6 6 0 0 1-2.08 3.87c-1.35 1.23-2.3 1.55-4.68 1.55-2.41 0-3.33-.31-4.74-1.62a6.3 6.3 0 0 1-1.96-3.37l-.2-.87h-.85c-1 0-1 .02-.62 1.52a8.3 8.3 0 0 0 6.43 5.95l.98.2.04 1.8.05 1.8h1.33c.8 0 1.84-.13 2.58-.32m-5.38 1.93a15 15 0 0 1-6.68-2.87 12 12 0 0 1-3.3-4.3c-1.2-2.4-1.36-3.21-1.35-6.36 0-2.58.02-2.7.5-3.98.54-1.42 1.2-2.6 2.56-4.55a17 17 0 0 0 2.25-4.47c1.6-4.41 3.42-6.46 6.58-7.37a7.5 7.5 0 0 1 4.41.25c2.54 1.1 4.29 3.3 5.63 7.09a15 15 0 0 0 2.21 4.42c2.6 3.82 3.19 5.44 3.16 8.89a13.5 13.5 0 0 1-9 12.7c-1.9.65-4.54.86-6.97.55m6.32 1.38a15.3 15.3 0 0 0 7.39-4.4q4.01-4.18 4-10.45c0-2.07-.26-3.53-.97-5.25-.53-1.26-.66-1.5-2.45-4.28a23 23 0 0 1-2.18-4.27c-1.4-3.53-2.64-5.3-4.85-6.96a7.2 7.2 0 0 0-4.35-1.63c-2.72-.16-5.03.77-7.12 2.87a9 9 0 0 0-2.2 3.23 42 42 0 0 0-1.45 3.31 12 12 0 0 1-1 2.1 62 62 0 0 0-3.22 5.4 12 12 0 0 0-1.11 5.49c0 4.18 1.32 7.58 4.07 10.5a16 16 0 0 0 15.44 4.34m-8.08 1.93c-7.3-1.05-13.98-4.82-18.11-10.23-1.7-2.23-1.96-3.09-1.44-4.85.8-2.7 1.8-4.32 4-6.5a37 37 0 0 0 2.53-2.75c1.46-1.9 2.96-5.2 4.06-8.93l1.23-4.18c.93-3.18 1.53-4.77 2.35-6.25 2-3.6 5.3-5.56 9.32-5.57q5.26 0 8.54 4.26c1.44 1.87 2.3 3.96 3.69 8.92 1.48 5.33 2.78 8.6 4.35 10.96.54.8 1.75 2.23 2.86 3.35 2 2.03 2.97 3.35 3.72 5.04.6 1.4.97 2.97.84 3.66-.24 1.31-3.22 4.9-5.8 7.02a27.7 27.7 0 0 1-12.89 5.9c-1.81.34-7.3.43-9.25.15" style="fill:#000;stroke-width:.160996" />
    </g>
  </symbol>
</svg>
