<?xml version="1.0" encoding="UTF-8" standalone="no"?>
<svg
   id="svg6979"
   width="420"
   height="420"
   version="1.1"
   viewBox="-40 -40 100 100"
   sodipodi:docname="results_symbols.svg"
   inkscape:version="1.1.2 (0a00cf5339, 2022-02-04)"
   xmlns:inkscape="http://www.inkscape.org/namespaces/inkscape"
   xmlns:sodipodi="http://sodipodi.sourceforge.net/DTD/sodipodi-0.dtd"
   xmlns="http://www.w3.org/2000/svg"
   xmlns:svg="http://www.w3.org/2000/svg">
  <defs
     id="defs20" />
  <sodipodi:namedview
     id="namedview18"
     pagecolor="#ffffff"
     bordercolor="#666666"
     borderopacity="1.0"
     inkscape:pageshadow="2"
     inkscape:pageopacity="0.0"
     inkscape:pagecheckerboard="0"
     showgrid="false"
     inkscape:lockguides="true"
     inkscape:snap-center="true"
     inkscape:snap-nodes="false"
     inkscape:zoom="1.7119048"
     inkscape:cx="210.29207"
     inkscape:cy="210"
     inkscape:window-width="1920"
     inkscape:window-height="1136"
     inkscape:window-x="0"
     inkscape:window-y="0"
     inkscape:window-maximized="1"
     inkscape:current-layer="svg6979" />
  <g
     id="g_result_1">
    <path
       id="path925"
       d="m 8.381815,5.636947 c -0.16,-1.65 -2.22,-4.47 -4.36,-5.6 a 9,9 0 0 0 -3.08,-1.02 c -0.36,0 -0.38,0.05 -0.33,0.93 l 0.05,0.92 0.92,0.12 c 2.51,0.3 4.37,2.22 5.02,5.15 0.1,0.42 0.15,0.45 1,0.45 l 2.5,0.1 -0.2,-1.28 z m -15.21,0.8 c 0,-0.17 0.15,-0.8 0.34,-1.4 0.3,-0.96 0.48,-1.24 1.49,-2.25 1.16,-1.16 2.42,-1.84 3.4,-1.84 0.39,0 0.4,-0.04 0.4,-0.98 v -1 l -0.68,0.11 c -0.38,0.06 -1.29,0.4 -2.03,0.76 a 8.1,8.1 0 0 0 -4.44,5.47 c -0.35,1.48 -0.37,1.44 0.63,1.44 0.77,0 0.89,-0.05 0.89,-0.3 m 7.27,4.17 c 0.05,-1.52 0.1,-1.82 0.42,-2.24 0.2,-0.27 0.36,-0.7 0.36,-0.97 0,-0.98 -1.54,-1.54 -2.25,-0.82 -0.39,0.38 -0.44,1.31 -0.1,1.66 0.3,0.29 0.49,1.72 0.28,2.03 -0.25,0.37 -1.38,-0.05 -1.86,-0.68 -1.65,-2.16 -0.04,-5.26 2.73,-5.27 0.7,0 1.83,0.63 2.4,1.34 0.4,0.52 0.49,0.78 0.54,1.72 0.05,0.94 0,1.24 -0.35,2 a 4,4 0 0 0 -0.42,1.77 c 0,0.5 0.04,0.9 0.08,0.9 0.25,0 1.02,-0.52 1.48,-1 a 4.5,4.5 0 0 0 1.24,-3.43 4.5,4.5 0 0 0 -1.63,-3.78 q -2.22,-2.03 -5.44,-0.8 c -1.95,0.73 -3.03,2.41 -3,4.67 a 4.3,4.3 0 0 0 1.5,3.45 4.3,4.3 0 0 0 3.06,1.2 l 0.9,0.01 z m 2.61,8.69 a 11.8,11.8 0 0 0 7.67,-6.33 10,10 0 0 0 1.22,-4.7 c 0.2,-3.52 -0.88,-6.5 -3.29,-9.11 a 11.5,11.5 0 0 0 -7.3,-3.7 c -4,-0.56 -8.1,1.13 -10.7,4.41 -2.81,3.58 -3.53,8.73 -1.75,12.74 1.43,3.23 4.77,6.04 7.86,6.61 l 0.61,0.11 -0.05,-0.86 -0.05,-0.86 -1.12,-0.41 a 7.5,7.5 0 0 1 -3.56,-2.31 9.5,9.5 0 0 1 -2.96,-7.33 c 0,-3.1 0.98,-5.5 3.04,-7.47 2.21,-2.11 4.34,-3.03 7.1,-3.05 1.88,-0.02 2.9,0.2 4.65,1.04 a 8,8 0 0 1 2.67,1.95 c 0.73,0.72 1.5,1.66 1.73,2.07 a 11.6,11.6 0 0 1 0.16,10.67 12,12 0 0 1 -3.85,4 c -0.88,0.47 -3,1.08 -3.78,1.08 -0.36,0 -0.45,-0.08 -0.46,-0.37 a 8,8 0 0 0 -0.1,-0.94 l -0.09,-0.58 1.1,-0.1 c 3,-0.28 5.82,-2.97 6.49,-6.2 0.3,-1.44 0.29,-1.47 -0.62,-1.47 -0.8,0 -0.8,0 -0.9,0.6 a 6,6 0 0 1 -2.08,3.87 c -1.35,1.23 -2.3,1.55 -4.68,1.55 -2.41,0 -3.33,-0.31 -4.74,-1.62 a 6.3,6.3 0 0 1 -1.96,-3.37 l -0.2,-0.87 h -0.85 c -1,0 -1,0.02 -0.62,1.52 a 8.3,8.3 0 0 0 6.43,5.95 l 0.98,0.2 0.04,1.8 0.05,1.8 h 1.33 c 0.8,0 1.84,-0.13 2.58,-0.32 m -5.38,1.93 a 15,15 0 0 1 -6.68,-2.87 12,12 0 0 1 -3.3,-4.3 c -1.2,-2.4 -1.36,-3.21 -1.35,-6.36 0,-2.58 0.02,-2.7 0.5,-3.98 0.54,-1.42 1.2,-2.6 2.56,-4.55 a 17,17 0 0 0 2.25,-4.47 c 1.6,-4.41 3.42,-6.46 6.58,-7.37 a 7.5,7.5 0 0 1 4.41,0.25 c 2.54,1.1 4.29,3.3 5.63,7.09 a 15,15 0 0 0 2.21,4.42 c 2.6,3.82 3.19,5.44 3.16,8.89 a 13.5,13.5 0 0 1 -9,12.7 c -1.9,0.65 -4.54,0.86 -6.97,0.55 m 6.32,1.38 a 15.3,15.3 0 0 0 7.39,-4.4 q 4.01,-4.18 4,-10.45 c 0,-2.07 -0.26,-3.53 -0.97,-5.25 -0.53,-1.26 -0.66,-1.5 -2.45,-4.28 a 23,23 0 0 1 -2.18,-4.27 c -1.4,-3.53 -2.64,-5.3 -4.85,-6.96 a 7.2,7.2 0 0 0 -4.35,-1.63 c -2.72,-0.16 -5.03,0.77 -7.12,2.87 a 9,9 0 0 0 -2.2,3.23 42,42 0 0 0 -1.45,3.31 12,12 0 0 1 -1,2.1 62,62 0 0 0 -3.22,5.4 12,12 0 0 0 -1.11,5.49 c 0,4.18 1.32,7.58 4.07,10.5 a 16,16 0 0 0 15.44,4.34 m -8.08,1.93 c -7.3,-1.05 -13.98,-4.82 -18.11,-10.23 -1.7,-2.23 -1.96,-3.09 -1.44,-4.85 0.8,-2.7 1.8,-4.32 4,-6.5 a 37,37 0 0 0 2.53,-2.75 c 1.46,-1.9 2.96,-5.2 4.06,-8.93 l 1.23,-4.18 c 0.93,-3.18 1.53,-4.77 2.35,-6.25 2,-3.6 5.3,-5.56 9.32,-5.57 q 5.26,0 8.54,4.26 c 1.44,1.87 2.3,3.96 3.69,8.92 1.48,5.33 2.78,8.6 4.35,10.96 0.54,0.8 1.75,2.23 2.86,3.35 2,2.03 2.97,3.35 3.72,5.04 0.6,1.4 0.97,2.97 0.84,3.66 -0.24,1.31 -3.22,4.9 -5.8,7.02 a 27.7,27.7 0 0 1 -12.89,5.9 c -1.81,0.34 -7.3,0.43 -9.25,0.15"
       style="fill:#000000;stroke-width:0.160996" />
  </g>
  <g
     id="g_result_2">
    <circle
       id="path9254"
       cx="-1.8616192"
       cy="1.4991369"
       r="15.48"
       style="fill:#ffffff;fill-opacity:1;stroke:none;stroke-width:0.58035;stroke-linecap:round;stroke-linejoin:round" />
    <path
       id="path941-1"
       d="m -12.271615,-0.760861 a 9.6,9.6 0 0 1 2.85,-5.14 9.4,9.4 0 0 1 5.13,-2.8 l 1.4,-0.31 -0.05,-1.02 -0.05,-1.02 -0.63,0.06 c -1.09,0.1 -3.3,0.9 -4.52,1.6 -0.65,0.38 -1.83,1.34 -2.63,2.13 a 12.5,12.5 0 0 0 -3.6,7 c -0.11,0.66 -0.11,0.67 0.57,0.74 l 0.95,0.1 c 0.2,0.02 0.36,-0.34 0.59,-1.34 m 23.2,0.22 c -0.35,-2.4 -1.18,-3.6 -2.76,-5.67 -1.92,-2.54 -4.8,-4.17 -8.32,-4.73 l -0.95,-0.15 v 2.04 l 1.51,0.29 a 9.5,9.5 0 0 1 5.28,2.77 c 1.78,1.77 2.97,4.25 2.97,6.19 v 0.6 h 1.17 l 3.1,0.05 0.04,-1.35 z m -10.22,10.18 a 9,9 0 0 0 5.47,-4.66 c 0.97,-2.05 0.9,-4.9 -0.2,-7.26 a 10.5,10.5 0 0 0 -3.67,-3.77 9.4,9.4 0 0 0 -10.7,1.94 c -4.12,4.4 -2,12.14 3.8,13.85 0.35,0.1 0.41,0.05 0.41,-0.33 0,-0.24 0.05,-0.67 0.1,-0.96 0.1,-0.49 0.03,-0.55 -1.1,-1.13 a 6.1,6.1 0 0 1 -3.34,-5.69 c 0,-2.84 1.22,-4.77 3.8,-6.04 0.9,-0.44 1.2,-0.5 2.9,-0.5 1.62,0 2.01,0.07 2.76,0.44 a 7.4,7.4 0 0 1 3.24,3.24 c 0.54,1.1 0.6,1.34 0.58,2.83 -0.02,2.34 -0.68,3.69 -2.5,5.1 -0.59,0.45 -2.61,1.32 -3.08,1.32 -0.06,0 -0.1,-1.5 -0.1,-3.33 0,-3.17 -0.02,-3.35 -0.37,-3.6 -0.67,-0.47 -1.65,0.16 -1.25,0.8 0.1,0.14 0.17,0.73 0.17,1.3 0,0.9 -0.04,1.04 -0.34,1.04 -0.42,0 -1.42,-1.1 -1.58,-1.73 -0.06,-0.26 -0.07,-0.8 -0.01,-1.2 0.34,-2.55 3.7,-3.14 4.86,-0.87 0.27,0.52 0.3,0.95 0.2,2.88 l -1.64,3.18 2.05,-1.36 c 0,0 1.7,-2.12 1.7,-3.55 a 4,4 0 0 0 -1.22,-3.02 4.7,4.7 0 0 0 -3.04,-1.51 c -3.34,-0.35 -5.8,2.27 -5.14,5.46 0.33,1.6 1.93,3.16 3.87,3.79 0.32,0.1 -0.04,-1.2 0.02,0.56 l 0.13,3.36 1.02,-0.12 c 0.56,-0.06 1.55,-0.26 2.2,-0.45 m -0.37,4.26 a 12.8,12.8 0 0 0 7.33,-4.12 13,13 0 0 0 2.97,-5.64 c 0.32,-1.79 0.34,-1.74 -0.85,-1.67 l -1.04,0.06 -0.12,1.12 c -0.42,3.7 -4.13,7.36 -8.38,8.25 -2.62,0.55 -4.54,0.3 -7.06,-0.9 -2.86,-1.38 -4.35,-3.33 -5.2,-6.26 l 2.2,-0.56 c -0.02,-0.8 -1.09,-1.56 -0.35,-1.88 l -2.37,0.29 h -0.98 c -1.13,0 -1.1,-0.04 -0.7,1.88 0.36,1.73 1.1,3.2 2.41,4.85 a 12,12 0 0 0 12.14,4.58 m -4.3,2.23 c -5.9,-0.73 -11.01,-5.53 -12.24,-11.48 -1.55,-7.53 3.19,-15.3 10.55,-17.28 1.9,-0.51 5.74,-0.55 7.44,-0.08 a 14.9,14.9 0 0 1 9.66,8.08 c 1.06,2.24 1.28,3.35 1.26,6.32 0,2.43 -0.05,2.74 -0.58,4.34 -1,3.05 -3.28,6 -5.98,7.74 a 15.7,15.7 0 0 1 -10.11,2.36 m 6.11,3.12 c 3.4,-0.88 5.79,-2.97 8.16,-5.47 3.24,-3.42 4.66,-8.18 4.45,-13.09 a 16.5,16.5 0 0 0 -12.96,-15.47 c -3.1,-0.69 -7.22,-0.33 -10.07,0.86 -4.16,1.75 -7.96,6.04 -9.58,10.8 -1.9,5.55 -0.03,13.48 4.49,17.81 2.5,2.39 5.3,4.34 9.18,5.06 1.16,0.21 4.67,-0.06 6.33,-0.5"
       style="fill:#000000;stroke-width:0.18082" />
    <path
       id="path23407-7"
       d="m -1.871615,7.439139 a 1,1 0 0 1 -0.84,-0.5 c -0.8,-1.46 -2.21,-4.28 -3.57,-7 l -0.94,-1.88 c -0.8,-1.62 -2.55,-3.45 -3.86,-3.6 l -1.22,-0.15 1.4,-1.09 c 1.17,-0.94 4.08,-1.76 5.93,-1.08 1.75,0.65 2.52,1.89 3.6,3.93 6.24,-8.6 11.43,-13.56 18.54,-15.8 q 0.44,-0.11 0.66,-0.1 c 0.45,0 0.63,0.23 0.7,0.38 0.18,0.42 -0.17,0.82 -0.3,0.97 -7.57,6.13 -14.23,14.9 -19.3,25.44 a 0.9,0.9 0 0 1 -0.8,0.48"
       style="fill:#000000;fill-opacity:1;fill-rule:nonzero;stroke:none;stroke-width:1.91554" />
    <path
       id="path31567-2"
       d="m -9.091615,-6.150861 a 9,9 0 0 1 3.24,3.56 l 0.9,1.8 c 1.24,2.48 2.52,5.04 3.3,6.46 4.67,-9.63 10.72,-17.73 17.55,-23.52 -6.24,2.31 -11.15,7.81 -16.93,15.84 l -0.5,0.7 -0.36,-0.79 c -0.97,-2.16 -2.14,-3.4 -3.77,-4 a 6,6 0 0 0 -3.43,-0.05"
       style="fill:#ffffff;fill-opacity:1;fill-rule:nonzero;stroke:none;stroke-width:1.82591" />
    <path
       id="path8012"
       d="m -8.921615,-3.410861 1.7,-1.6 -1.87,-1.14 -1.11,1.08 -0.1,1.23 z"
       style="fill:#ffffff;stroke:none;stroke-width:0.767757px;stroke-linecap:butt;stroke-linejoin:miter;stroke-opacity:1" />
  </g>
  <g
     id="g_result_3">
    <path
       id="path31616-2"
       d="m 18.395935,-17.380631 c -9.58,3.03 -16.85,11.1 -25.3,22.84 -1.5,-3.35 -3.33,-5.1 -5.67,-5.97 -2.65,-0.98 -5.65,-0.25 -6.8,0.7 2.15,0.24 4.62,3.06 5.68,5.17 2.2,4.4 4.68,9.44 6,11.83 0.2,0.37 0.78,0.39 0.94,0.06 6.96,-14.45 15.93,-26.07 25.84,-34.08 0.62,-0.7 0.17,-0.75 -0.69,-0.55"
       style="fill:#000000;fill-opacity:1;fill-rule:nonzero;stroke:none;stroke-width:2.27309" />
  </g>
  <g
     id="g_result_4">
    <path
       id="path23383-4-2"
       d="m 37.396355,-16.695821 c 0,-0.36 -0.21,-0.81 -0.5,-1.04 -0.54,-0.42 -1.24,-0.34 -1.9,-0.18 -9.17,2.9 -16.06,10.14 -23.95,20.91 a 10,10 0 0 0 -5.22,-4.6 c -2.85,-1.05 -6.23,-0.37 -7.73,0.87 a 1.19,1.19 0 0 0 0.62,2.1 c 1.48,0.17 3.58,2.43 4.54,4.34 l 1.27,2.53 c 1.72,3.46 3.5,7.04 4.54,8.91 0.3,0.56 0.9,0.92 1.57,0.9 0.63,0 1.2,-0.35 1.46,-0.9 6.5,-13.47 15,-24.69 24.58,-32.43 l 0.15,-0.14 c 0.27,-0.3 0.57,-0.73 0.57,-1.27 m -1.2,0 q 0,0.15 -0.27,0.48 c -9.56,7.72 -18.2,18.92 -24.9,32.84 -0.16,0.33 -0.73,0.3 -0.92,-0.05 -1.26,-2.3 -3.65,-7.15 -5.78,-11.4 -1.02,-2.04 -3.4,-4.75 -5.48,-5 1.11,-0.9 4,-1.6 6.56,-0.66 2.26,0.83 4.02,2.53 5.47,5.75 8.15,-11.31 15.15,-19.1 24.39,-22.01 0.56,-0.14 0.94,-0.16 0.94,0.06"
       style="fill:#80ff00;fill-opacity:1;fill-rule:nonzero;stroke:none;stroke-width:2.19108" />
    <path
       id="path23395-7-0"
       d="m 35.266355,-16.745821 c -9.24,2.92 -16.25,10.7 -24.4,22.01 -1.44,-3.22 -3.2,-4.92 -5.46,-5.75 -2.55,-0.94 -5.45,-0.24 -6.56,0.67 2.08,0.23 4.46,2.95 5.48,5 2.12,4.24 4.52,9.08 5.78,11.39 0.2,0.36 0.75,0.37 0.91,0.05 6.71,-13.92 15.35,-25.12 24.9,-32.84 0.6,-0.68 0.17,-0.73 -0.65,-0.53"
       style="fill:#008000;fill-opacity:1;fill-rule:nonzero;stroke:none;stroke-width:2.19108" />
    <path
       id="path31585-5"
       d="m 2.346355,-16.695821 c 0,-0.36 -0.22,-0.81 -0.5,-1.04 -0.55,-0.42 -1.24,-0.34 -1.92,-0.18 -9.16,2.9 -16.05,10.14 -23.94,20.91 a 10,10 0 0 0 -5.22,-4.6 c -2.85,-1.05 -6.23,-0.37 -7.73,0.87 a 1.19,1.19 0 0 0 0.62,2.1 c 1.48,0.17 3.59,2.43 4.54,4.34 l 1.27,2.53 c 1.72,3.46 3.5,7.04 4.54,8.91 0.3,0.56 0.9,0.92 1.57,0.9 0.64,0 1.2,-0.35 1.46,-0.9 6.5,-13.47 15,-24.69 24.58,-32.43 l 0.15,-0.14 c 0.27,-0.3 0.58,-0.73 0.58,-1.27 m -1.2,0 q 0.01,0.15 -0.28,0.48 c -9.55,7.72 -18.2,18.92 -24.9,32.84 -0.16,0.33 -0.73,0.3 -0.91,-0.05 -1.27,-2.3 -3.66,-7.15 -5.79,-11.4 -1.01,-2.04 -3.4,-4.75 -5.48,-5 1.11,-0.9 4.01,-1.6 6.57,-0.66 2.26,0.83 4.01,2.53 5.46,5.75 8.15,-11.31 15.15,-19.1 24.39,-22.01 0.56,-0.14 0.94,-0.16 0.94,0.06"
       style="fill:#80ff00;fill-opacity:1;fill-rule:nonzero;stroke:none;stroke-width:2.19108" />
    <path
       id="path31587-95"
       d="m 0.206355,-16.745821 c -9.24,2.92 -16.24,10.7 -24.39,22.01 -1.45,-3.22 -3.2,-4.92 -5.46,-5.75 -2.56,-0.94 -5.46,-0.24 -6.57,0.67 2.08,0.23 4.46,2.95 5.48,5 2.13,4.24 4.52,9.08 5.79,11.39 0.19,0.36 0.75,0.37 0.9,0.05 6.71,-13.92 15.35,-25.12 24.91,-32.84 0.6,-0.68 0.17,-0.73 -0.66,-0.53"
       style="fill:#008000;fill-opacity:1;fill-rule:nonzero;stroke:none;stroke-width:2.19108" />
  </g>
</svg>
