<?xml version="1.0" encoding="UTF-8" standalone="no"?>
<!-- Created with Inkscape (http://www.inkscape.org/) -->

<svg
   width="420"
   height="420"
   viewBox="0 0 111.125 111.125"
   version="1.1"
   id="svg6979"
   inkscape:version="1.1.2 (0a00cf5339, 2022-02-04)"
   sodipodi:docname="results_symbols.svg"
   xmlns:inkscape="http://www.inkscape.org/namespaces/inkscape"
   xmlns:sodipodi="http://sodipodi.sourceforge.net/DTD/sodipodi-0.dtd"
   xmlns="http://www.w3.org/2000/svg"
   xmlns:svg="http://www.w3.org/2000/svg">
  <sodipodi:namedview
     id="namedview6981"
     pagecolor="#ffffff"
     bordercolor="#666666"
     borderopacity="1.0"
     inkscape:pageshadow="2"
     inkscape:pageopacity="0.0"
     inkscape:pagecheckerboard="0"
     inkscape:document-units="mm"
     showgrid="false"
     units="px"
     inkscape:zoom="1.8116734"
     inkscape:cx="147.10157"
     inkscape:cy="243.14537"
     inkscape:window-width="1920"
     inkscape:window-height="1136"
     inkscape:window-x="0"
     inkscape:window-y="0"
     inkscape:window-maximized="1"
     inkscape:current-layer="layer1" />
  <defs
     id="defs6976" />
  <g
     inkscape:label="Layer 1"
     inkscape:groupmode="layer"
     id="layer1">
    <g
       id="g_result_4">
      <path
         d="m 65.054712,63.468168 c 0,-0.09967 -0.05927,-0.222151 -0.13746,-0.28404 -0.147229,-0.116612 -0.336807,-0.09251 -0.519872,-0.04886 -2.499682,0.788927 -4.377867,2.765481 -6.529012,5.701648 -0.373294,-0.633228 -0.83518,-1.037789 -1.425412,-1.255379 -0.775897,-0.285995 -1.698378,-0.09967 -2.108152,0.236483 -0.07687,0.06254 -0.119868,0.155701 -0.119868,0.251466 0,0.03062 0.0047,0.06189 0.01368,0.09251 0.03651,0.125082 0.14463,0.216939 0.275571,0.231272 0.405214,0.04626 0.978507,0.66124 1.239749,1.183717 l 0.344622,0.689905 c 0.470359,0.943325 0.957007,1.918573 1.23844,2.429975 0.08143,0.153095 0.246907,0.248861 0.42932,0.245604 0.172638,-0.0026 0.324432,-0.09642 0.396741,-0.244952 1.771344,-3.675583 4.089916,-6.734225 6.704261,-8.846285 0.01434,-0.01172 0.02802,-0.02475 0.04039,-0.03844 0.07296,-0.08339 0.157005,-0.198046 0.157005,-0.344626 m -0.325734,0 c 0,0.02736 -0.02342,0.0697 -0.07622,0.129641 -2.605872,2.105546 -4.962233,5.160279 -6.792853,8.957035 -0.04237,0.08795 -0.196091,0.08209 -0.247558,-0.01499 -0.34528,-0.628016 -0.997401,-1.950496 -1.577207,-3.108806 -0.277525,-0.555703 -0.92704,-1.296421 -1.494465,-1.361569 0.302932,-0.247557 1.093164,-0.438437 1.789582,-0.18241 0.616285,0.227362 1.095117,0.690556 1.490556,1.569386 2.222158,-3.086004 4.130962,-5.207835 6.651492,-6.00393 0.153092,-0.03648 0.256676,-0.04234 0.256676,0.01564"
         style="fill:#80ff00;fill-opacity:1;fill-rule:nonzero;stroke:none;stroke-width:0.597547"
         id="path23383-4-2"
         inkscape:connector-curvature="0" />
      <path
         d="m 64.472641,63.45221 c -2.52053,0.796745 -4.429979,2.917925 -6.651486,6.004581 -0.395444,-0.879482 -0.874921,-1.342676 -1.490562,-1.569387 -0.696417,-0.256679 -1.48665,-0.06579 -1.789582,0.182411 0.567431,0.0645 1.216289,0.805215 1.494465,1.361568 0.579161,1.15766 1.231276,2.480139 1.577207,3.108154 0.05145,0.09772 0.204558,0.102932 0.247558,0.01564 1.829975,-3.796756 4.186336,-6.85214 6.792208,-8.957034 0.163519,-0.18632 0.04559,-0.199349 -0.179808,-0.145929"
         style="fill:#008000;fill-opacity:1;fill-rule:nonzero;stroke:none;stroke-width:0.597547"
         id="path23395-7-0"
         inkscape:connector-curvature="0" />
      <path
         inkscape:connector-curvature="0"
         id="path31585-5"
         style="fill:#80ff00;fill-opacity:1;fill-rule:nonzero;stroke:none;stroke-width:0.597547"
         d="m 55.493961,63.468168 c 0,-0.09967 -0.05927,-0.222151 -0.137459,-0.28404 -0.14723,-0.116612 -0.336808,-0.09251 -0.519872,-0.04886 -2.499682,0.788927 -4.377868,2.765481 -6.529013,5.701648 -0.373293,-0.633228 -0.835179,-1.037789 -1.425412,-1.255379 -0.775897,-0.285995 -1.698378,-0.09967 -2.108152,0.236483 -0.07687,0.06254 -0.119867,0.155701 -0.119867,0.251466 0,0.03062 0.0047,0.06189 0.01368,0.09251 0.03651,0.125082 0.14463,0.216939 0.275571,0.231272 0.405214,0.04626 0.978507,0.66124 1.239749,1.183717 l 0.344623,0.689905 c 0.470359,0.943325 0.957007,1.918573 1.238439,2.429975 0.08143,0.153095 0.246907,0.248861 0.42932,0.245604 0.172638,-0.0026 0.324432,-0.09642 0.396742,-0.244952 1.771344,-3.675583 4.089915,-6.734225 6.704261,-8.846285 0.01434,-0.01172 0.02802,-0.02475 0.04039,-0.03844 0.07296,-0.08339 0.157005,-0.198046 0.157005,-0.344626 m -0.325735,0 c 0,0.02736 -0.02342,0.06971 -0.07622,0.129641 -2.605873,2.105546 -4.962233,5.160279 -6.792854,8.957035 -0.04237,0.08795 -0.196091,0.08209 -0.247558,-0.01499 -0.34528,-0.628016 -0.997401,-1.950496 -1.577207,-3.108806 -0.277525,-0.555703 -0.92704,-1.296421 -1.494465,-1.361569 0.302933,-0.247557 1.093164,-0.438437 1.789582,-0.18241 0.616286,0.227362 1.095118,0.690556 1.490556,1.569386 2.222158,-3.086004 4.130962,-5.207835 6.651492,-6.00393 0.153092,-0.03648 0.256677,-0.04234 0.256677,0.01564" />
      <path
         inkscape:connector-curvature="0"
         id="path31587-95"
         style="fill:#008000;fill-opacity:1;fill-rule:nonzero;stroke:none;stroke-width:0.597547"
         d="m 54.91189,63.45221 c -2.52053,0.796745 -4.429979,2.917925 -6.651485,6.004581 -0.395445,-0.879482 -0.874922,-1.342676 -1.490563,-1.569387 -0.696417,-0.256679 -1.486649,-0.0658 -1.789581,0.182411 0.56743,0.0645 1.216288,0.805215 1.494464,1.361568 0.579161,1.15766 1.231276,2.480139 1.577208,3.108154 0.05145,0.09772 0.204558,0.102932 0.247557,0.01564 1.829976,-3.796756 4.186337,-6.85214 6.792209,-8.957034 0.163519,-0.18632 0.04559,-0.199349 -0.179809,-0.145929" />
    </g>
    <g
       id="g_result_3">
      <path
         inkscape:connector-curvature="0"
         id="path31616-2"
         style="fill:#000000;fill-opacity:1;fill-rule:nonzero;stroke:none;stroke-width:0.619914"
         d="m 59.873339,50.264139 c -2.61488,0.826569 -4.5958,3.027147 -6.900459,6.22934 -0.410245,-0.912402 -0.90767,-1.392933 -1.546355,-1.628131 -0.722487,-0.266286 -1.542297,-0.06826 -1.856568,0.189239 0.588668,0.06691 1.261816,0.835355 1.550405,1.412534 0.600836,1.200991 1.27736,2.572973 1.636241,3.224496 0.05338,0.101378 0.212214,0.106784 0.256823,0.01622 1.898476,-3.938874 4.343037,-7.108625 7.046449,-9.292307 0.169639,-0.193295 0.04731,-0.206811 -0.186536,-0.151391" />
    </g>
    <g
       id="g_result_2">
      <circle
         style="fill:#ffffff;fill-opacity:1;stroke:none;stroke-width:0.158272;stroke-linecap:round;stroke-linejoin:round"
         id="path9254"
         cx="54.34668"
         cy="43.36544"
         r="4.2210751" />
      <path
         id="path941-1"
         style="fill:#000000;stroke-width:0.0493128"
         d="m 51.510299,42.748684 c 0.133969,-0.589462 0.348773,-0.977878 0.775411,-1.402128 0.430505,-0.428094 0.811415,-0.636498 1.397829,-0.764777 l 0.384472,-0.0841 -0.01462,-0.278087 -0.01462,-0.278087 -0.172595,0.01719 c -0.295859,0.02946 -0.898166,0.243307 -1.232812,0.437693 -0.17629,0.102402 -0.498787,0.363711 -0.716662,0.580688 -0.533704,0.531505 -0.849762,1.146014 -0.981228,1.907794 -0.0312,0.180762 -0.03027,0.181965 0.155198,0.20129 0.102619,0.01068 0.21992,0.02319 0.260668,0.0277 0.05379,0.0063 0.09734,-0.09404 0.158972,-0.365201 z m 6.327843,0.06111 c -0.09456,-0.653248 -0.323228,-0.984081 -0.751776,-1.548577 -0.524792,-0.69127 -1.310064,-1.136907 -2.270931,-1.288735 l -0.258892,-0.04091 v 0.278255 0.278253 l 0.412554,0.07789 c 0.586294,0.110687 1.01772,0.337445 1.43864,0.756153 0.486362,0.483809 0.811699,1.160028 0.811699,1.687136 v 0.162237 h 0.317433 l 0.848884,0.0158 0.0094,-0.367119 z m -2.786423,2.776491 c 0.636135,-0.184751 1.206936,-0.67185 1.490628,-1.272026 0.265137,-0.560917 0.244393,-1.339387 -0.05279,-1.981087 -0.153718,-0.331921 -0.683353,-0.875125 -1.002064,-1.027732 -0.975241,-0.466979 -2.193218,-0.245964 -2.918693,0.529626 -1.122674,1.200227 -0.542577,3.309521 1.038471,3.775973 0.09371,0.02762 0.110954,0.01401 0.110954,-0.08771 0,-0.06624 0.01238,-0.184237 0.0275,-0.26221 0.02588,-0.133415 0.0081,-0.151711 -0.301141,-0.310158 -0.580533,-0.297425 -0.909865,-0.85869 -0.909865,-1.550632 0,-0.773424 0.331082,-1.300393 1.035569,-1.648268 0.243187,-0.120086 0.324739,-0.133889 0.789005,-0.133541 0.444743,3.73e-4 0.551036,0.01685 0.753502,0.117082 0.373076,0.184693 0.702875,0.514051 0.884642,0.88346 0.14801,0.3008 0.161452,0.366609 0.157985,0.773464 -0.0055,0.638067 -0.185477,1.005527 -0.680422,1.388736 -0.161637,0.125154 -0.713749,0.362736 -0.84293,0.362736 -0.01442,0 -0.02621,-0.409268 -0.02621,-0.909488 0,-0.86309 -0.0052,-0.913127 -0.101816,-0.980805 -0.18224,-0.127646 -0.449238,0.04258 -0.339314,0.216319 0.02482,0.03925 0.04546,0.198909 0.04588,0.354854 6.53e-4,0.245781 -0.0117,0.283553 -0.09276,0.283553 -0.113754,0 -0.386298,-0.299633 -0.429649,-0.472356 -0.01731,-0.06893 -0.01925,-0.216405 -0.0044,-0.327686 0.09287,-0.692384 1.011302,-0.854817 1.327311,-0.23475 0.07231,0.141883 0.08037,0.257501 0.05477,0.785505 l -0.448123,0.866984 0.559174,-0.371133 c 0,0 0.464431,-0.578018 0.464431,-0.967273 0,-0.334911 -0.09993,-0.580669 -0.335269,-0.824496 -0.23899,-0.247614 -0.504034,-0.380133 -0.826931,-0.41346 -0.91074,-0.094 -1.582696,0.620109 -1.402099,1.490037 0.09054,0.436127 0.526515,0.8629 1.054953,1.032694 0.08606,0.02762 -0.01173,-0.325661 0.0062,0.153714 l 0.03413,0.915352 0.278385,-0.03078 c 0.153112,-0.01693 0.423547,-0.07296 0.600966,-0.124489 z m -0.100673,1.163807 c 0.775263,-0.140656 1.425818,-0.506835 1.997554,-1.124366 0.378252,-0.408548 0.726044,-1.069073 0.810171,-1.538675 0.08731,-0.487399 0.09342,-0.475347 -0.23113,-0.456481 l -0.283549,0.01646 -0.03413,0.305877 c -0.112782,1.010781 -1.125266,2.008973 -2.283573,2.251327 -0.715441,0.149694 -1.238827,0.0824 -1.927232,-0.247815 -0.778512,-0.373427 -1.185838,-0.905896 -1.419753,-1.704368 l 0.599991,-0.154605 c -0.0017,-0.218451 -0.293638,-0.425439 -0.09413,-0.513441 l -0.645322,0.08058 h -0.266271 c -0.307848,0 -0.303551,-0.01147 -0.192344,0.513467 0.09963,0.470306 0.300204,0.873544 0.657944,1.32276 0.841359,1.056506 1.988715,1.489302 3.311782,1.24925 z m -1.173997,0.607457 c -1.606596,-0.198481 -3.002359,-1.50786 -3.33764,-3.13106 -0.424187,-2.05362 0.869475,-4.173018 2.877236,-4.713758 0.515106,-0.138731 1.564882,-0.149651 2.028903,-0.02111 1.186922,0.328806 2.116959,1.106854 2.635571,2.204855 0.287937,0.609616 0.348394,0.912382 0.343768,1.72157 -0.0038,0.663573 -0.01527,0.748921 -0.159374,1.185823 -0.274129,0.831088 -0.895366,1.635285 -1.630075,2.110149 -0.797737,0.515603 -1.835044,0.757601 -2.758389,0.643527 z m 1.667125,0.85167 c 0.927136,-0.24127 1.578363,-0.811034 2.22596,-1.49382 0.883168,-0.931163 1.271005,-2.230689 1.211531,-3.568564 -0.0918,-2.065052 -1.523551,-3.774898 -3.533106,-4.219366 -0.847156,-0.187371 -1.969116,-0.09119 -2.746563,0.235464 -1.134315,0.476588 -2.172099,1.645689 -2.614061,2.944832 -0.515065,1.514029 -0.0083,3.676233 1.224456,4.856549 0.680712,0.651725 1.44871,1.184699 2.505834,1.379817 0.314611,0.05809 1.271929,-0.01678 1.725949,-0.134912 z"
         sodipodi:nodetypes="csscccsssssccccsscccssscccccssssscsscsscsscsssccssscsscssssscscssscssccsssccccsssccssssssssscsssssscc" />
      <path
         inkscape:connector-curvature="0"
         id="path23407-7"
         d="m 54.345568,44.983587 c -0.09853,0 -0.18681,-0.05183 -0.231234,-0.135552 -0.219273,-0.398118 -0.602006,-1.165849 -0.972776,-1.907394 L 52.884693,42.425774 C 52.664851,41.984946 52.189852,41.484889 51.83332,41.443881 l -0.334322,-0.0393 0.384888,-0.296529 c 0.316666,-0.258572 1.109502,-0.481027 1.614685,-0.294787 0.477846,0.175988 0.688518,0.513518 0.980692,1.069958 1.70407,-2.344802 3.11839,-3.698263 5.057111,-4.310521 0.08258,-0.01937 0.13669,-0.02734 0.180545,-0.02734 0.123021,0 0.170863,0.06607 0.188518,0.105364 0.0524,0.115618 -0.04385,0.2244 -0.08031,0.265408 -2.064588,1.671035 -3.87858,4.064816 -5.264276,6.938161 -0.03873,0.0797 -0.121312,0.129284 -0.215286,0.129284"
         style="fill:#000000;fill-opacity:1;fill-rule:nonzero;stroke:none;stroke-width:0.522402"
         sodipodi:nodetypes="ccccccccccscccc" />
      <path
         inkscape:connector-curvature="0"
         id="path31567-2"
         d="m 52.375745,41.278591 c 0.377309,0.207384 0.72313,0.648752 0.883825,0.97177 l 0.245386,0.490232 c 0.337678,0.675902 0.686213,1.374602 0.896854,1.762765 1.275792,-2.625958 2.925635,-4.835522 4.78829,-6.414246 -1.701416,0.629752 -3.040183,2.129215 -4.616194,4.319236 l -0.137351,0.190552 -0.09663,-0.214443 c -0.266016,-0.590664 -0.583606,-0.927255 -1.028776,-1.092294 -0.295876,-0.108578 -0.68187,-0.09392 -0.9354,-0.01357"
         style="fill:#ffffff;fill-opacity:1;fill-rule:nonzero;stroke:none;stroke-width:0.497956" />
      <path
         style="fill:#ffffff;stroke:none;stroke-width:0.209381px;stroke-linecap:butt;stroke-linejoin:miter;stroke-opacity:1"
         d="m 52.421927,42.025683 0.462914,-0.434697 -0.509097,-0.312395 -0.303923,0.29569 -0.02873,0.333062 z"
         id="path8012" />
    </g>
    <g
       id="g_result_1">
      <path
         id="path925"
         style="fill:#000000;stroke-width:0.0439066"
         d="m 57.138932,29.031541 c -0.0417,-0.449974 -0.604906,-1.220357 -1.187252,-1.528698 -0.279299,-0.147887 -0.672339,-0.277693 -0.840817,-0.277693 -0.09885,0 -0.103336,0.01248 -0.09082,0.252447 l 0.01318,0.252449 0.250681,0.03114 c 0.686106,0.08524 1.193887,0.606362 1.370804,1.406829 0.0252,0.114042 0.04023,0.120742 0.270824,0.120742 l 0.682819,0.0269 -0.05585,-0.349075 z m -4.147378,0.217938 c 0,-0.04576 0.04167,-0.218074 0.09258,-0.382931 0.08099,-0.262223 0.131831,-0.338894 0.406135,-0.612508 0.317278,-0.316476 0.660951,-0.502011 0.929895,-0.502011 0.103125,0 0.10812,-0.01243 0.10812,-0.269052 v -0.269052 l -0.186603,0.02803 c -0.102632,0.01542 -0.351504,0.108748 -0.553049,0.207407 -0.625855,0.306364 -1.058403,0.83873 -1.212446,1.492233 -0.0951,0.403444 -0.100599,0.391074 0.17388,0.391074 0.20774,0 0.241487,-0.01162 0.241487,-0.08319 z m 1.98289,1.140466 c 0.01284,-0.414586 0.02823,-0.497513 0.113649,-0.612917 0.05434,-0.0734 0.09879,-0.192099 0.09879,-0.263769 0,-0.265912 -0.419917,-0.419274 -0.614693,-0.224499 -0.104037,0.104038 -0.117661,0.359039 -0.02418,0.452524 0.07892,0.07891 0.130487,0.469093 0.07327,0.554337 -0.06737,0.100364 -0.373998,-0.01224 -0.506532,-0.185984 -0.448405,-0.58789 -0.0096,-1.43394 0.744501,-1.435325 0.192254,-3.32e-4 0.499047,0.170855 0.653085,0.36446 0.112645,0.14158 0.135574,0.213214 0.150007,0.468662 0.01445,0.255677 -3.31e-4,0.338356 -0.09749,0.543638 -0.08069,0.17057 -0.114532,0.314258 -0.114532,0.486307 0,0.134314 0.01085,0.244207 0.02414,0.244207 0.06799,0 0.27751,-0.141172 0.401705,-0.270672 0.238844,-0.249037 0.342121,-0.533959 0.339555,-0.936761 -0.0029,-0.463586 -0.120142,-0.735401 -0.445102,-1.032399 -0.403886,-0.369127 -0.897325,-0.44215 -1.483818,-0.219584 -0.530855,0.20145 -0.825743,0.660462 -0.819951,1.276299 0.0037,0.399173 0.129576,0.687606 0.409879,0.939622 0.254244,0.228586 0.494776,0.323108 0.834277,0.327841 l 0.248578,0.0035 0.01487,-0.479454 z m 0.711955,2.368821 c 0.911295,-0.23307 1.656863,-0.848405 2.090567,-1.725392 0.232288,-0.46971 0.30447,-0.746882 0.334276,-1.283594 0.05331,-0.959861 -0.23977,-1.771921 -0.896751,-2.484752 -0.528154,-0.57305 -1.158529,-0.892418 -1.991285,-1.008851 -1.093055,-0.152823 -2.211568,0.308998 -2.916993,1.204393 -0.769576,0.976824 -0.963564,2.38137 -0.479938,3.474937 0.389518,0.880767 1.301411,1.646899 2.144682,1.801865 l 0.167129,0.03071 -0.01346,-0.234472 -0.01346,-0.234472 -0.307348,-0.114227 c -0.480504,-0.178582 -0.59025,-0.249806 -0.971073,-0.63022 -0.566199,-0.565588 -0.807781,-1.164245 -0.806495,-1.998541 0.0013,-0.845745 0.267876,-1.49978 0.830294,-2.03711 0.601626,-0.57479 1.182368,-0.824528 1.935173,-0.832183 0.513457,-0.0052 0.793168,0.05731 1.268508,0.283594 0.29372,0.139824 0.441297,0.247976 0.727797,0.533363 0.197654,0.196888 0.410429,0.45114 0.472834,0.565006 0.485532,0.885923 0.502342,2.020184 0.04314,2.910341 -0.189094,0.366551 -0.708753,0.90526 -1.049181,1.087648 -0.240456,0.128828 -0.821872,0.295412 -1.031047,0.295412 -0.0999,0 -0.124792,-0.01964 -0.125179,-0.09879 -3.32e-4,-0.05434 -0.01224,-0.16983 -0.0266,-0.256657 l -0.02612,-0.157868 0.301015,-0.02783 c 0.816999,-0.07554 1.585629,-0.810095 1.767628,-1.689278 0.082,-0.396102 0.07869,-0.403974 -0.16938,-0.403974 -0.217198,0 -0.217587,3.31e-4 -0.245184,0.164648 -0.07819,0.465777 -0.229013,0.746297 -0.56765,1.055792 -0.367939,0.336273 -0.627853,0.422402 -1.27472,0.422402 -0.658817,0 -0.909756,-0.08556 -1.293847,-0.441164 -0.282406,-0.261451 -0.450554,-0.551808 -0.533056,-0.920462 l -0.05311,-0.237308 H 52.74307 c -0.271152,0 -0.273754,0.0065 -0.16727,0.415289 0.212255,0.814901 0.897424,1.4495 1.753221,1.62382 l 0.265113,0.054 0.01242,0.490176 0.01242,0.490176 h 0.364745 c 0.219079,0 0.499706,-0.03452 0.702681,-0.08643 z M 54.217628,33.28511 C 53.617897,33.20782 52.875991,32.889174 52.396597,32.502967 52.030311,32.207881 51.746693,31.838719 51.495755,31.330419 51.172132,30.67488 51.125142,30.45353 51.12759,29.596107 c 0.002,-0.703212 0.0061,-0.735097 0.139799,-1.087151 0.14645,-0.385656 0.326777,-0.707164 0.695435,-1.239901 0.284965,-0.411791 0.418304,-0.676297 0.614386,-1.218745 0.435068,-1.203595 0.932616,-1.761137 1.79339,-2.009636 0.353313,-0.101999 0.884723,-0.07246 1.204476,0.06693 0.69231,0.301828 1.167728,0.900626 1.534807,1.933121 0.209566,0.589448 0.286016,0.742461 0.602714,1.206316 0.711168,1.041616 0.868532,1.48401 0.862262,2.424038 -0.01045,1.566788 -0.994707,2.953777 -2.456969,3.462301 -0.517776,0.180065 -1.235568,0.237375 -1.900262,0.151722 z m 1.724793,0.377305 c 0.76706,-0.195644 1.43754,-0.594869 2.015615,-1.200158 0.731124,-0.76554 1.092631,-1.708614 1.092631,-2.850368 0,-0.565303 -0.07423,-0.961954 -0.267922,-1.431664 -0.142124,-0.344657 -0.177861,-0.407263 -0.666032,-1.16685 -0.246928,-0.384215 -0.41971,-0.722022 -0.596001,-1.165245 -0.382853,-0.962552 -0.71844,-1.444405 -1.322361,-1.898728 -0.394785,-0.296989 -0.714359,-0.416456 -1.187094,-0.443769 -0.740962,-0.04281 -1.370545,0.211084 -1.940457,0.78254 -0.29375,0.294546 -0.372356,0.409515 -0.602002,0.880489 -0.145276,0.29794 -0.322825,0.704776 -0.394554,0.904079 -0.07173,0.199305 -0.193912,0.456158 -0.271515,0.570787 -0.280321,0.414064 -0.753637,1.209043 -0.877715,1.474204 -0.215693,0.460953 -0.304538,0.899032 -0.303467,1.496374 0.0021,1.140753 0.361271,2.067189 1.109671,2.86179 1.044959,1.109468 2.692889,1.573778 4.211203,1.186519 z m -2.204455,0.524579 c -1.991423,-0.285953 -3.812128,-1.314505 -4.93901,-2.790143 -0.463216,-0.606574 -0.532681,-0.841155 -0.391114,-1.320779 0.216944,-0.735005 0.489478,-1.178628 1.090578,-1.775211 0.267646,-0.265634 0.57846,-0.602654 0.690696,-0.748933 0.39836,-0.519184 0.807189,-1.417795 1.107498,-2.434296 0.06064,-0.205264 0.211346,-0.71897 0.334899,-1.141572 0.252966,-0.865252 0.416906,-1.300641 0.64098,-1.702304 0.546824,-0.980202 1.445307,-1.517188 2.541186,-1.518758 0.953238,-0.0013 1.734968,0.387995 2.32904,1.160038 0.393504,0.511387 0.629123,1.081592 1.005867,2.434229 0.404233,1.451327 0.758562,2.342932 1.186974,2.986795 0.146083,0.219547 0.477854,0.608764 0.779898,0.914932 0.545805,0.55326 0.810896,0.912791 1.013439,1.374476 0.166526,0.379585 0.265901,0.80982 0.230562,0.99819 -0.06713,0.357845 -0.877668,1.336971 -1.584334,1.913871 -1.031505,0.842093 -2.152849,1.356217 -3.512528,1.610453 -0.495634,0.09268 -1.990088,0.115769 -2.524631,0.03901 z"
         inkscape:connector-curvature="0"
         sodipodi:nodetypes="cssccssscccssssscssssssccssssccsscssscsscsccccsssssssscccsscsssssssscscssscsssscscscccssssssccssscssssssssssssssssssscsssssssssscssssssssss" />
    </g>
  </g>
</svg>
