<?xml version="1.0" encoding="UTF-8" standalone="no"?>
<svg
   xmlns:dc="http://purl.org/dc/elements/1.1/"
   xmlns:cc="http://creativecommons.org/ns#"
   xmlns:rdf="http://www.w3.org/1999/02/22-rdf-syntax-ns#"
   xmlns:svg="http://www.w3.org/2000/svg"
   xmlns="http://www.w3.org/2000/svg"
   xmlns:xlink="http://www.w3.org/1999/xlink"
   xmlns:sodipodi="http://sodipodi.sourceforge.net/DTD/sodipodi-0.dtd"
   xmlns:inkscape="http://www.inkscape.org/namespaces/inkscape"
   id="dice_spiral"
   height="100"
   width="100"
   version="1.1"
   sodipodi:docname="dice_spiral.svg"
   inkscape:version="0.92.5 (2060ec1f9f, 2020-04-08)">
  <defs id="defs1">
    <filter
       id="app-filter-colorize"
       style="color-interpolation-filters:sRGB">
      <feColorMatrix
         id="recolorize-filter-matrix"
         type="matrix"
         values="0.9 0.0 0.0 0.0  0.0
                 0.9 0.0 0.0 0.0  0.0
                 0.9 0.0 0.0 0.0  0.0
                 0.0 0.0 0.0 1.0  0.0" />
    </filter>
    <radialGradient
       inkscape:collect="always"
       xlink:href="#linearGradient3131"
       id="radialGradient3133"
       cx="166.10052"
       cy="2.4057181"
       fx="166.10052"
       fy="2.4057181"
       r="32.233128"
       gradientTransform="matrix(1.8341947,-5.7484081e-8,3.8428178e-8,1.2261614,-254.10199,44.3163)"
       gradientUnits="userSpaceOnUse" />
    <linearGradient
       inkscape:collect="always"
       id="linearGradient3131">
      <stop
         style="stop-color:#000000;stop-opacity:1;"
         offset="0"
         id="stop3127" />
      <stop
         style="stop-color:#000000;stop-opacity:0;"
         offset="1"
         id="stop3129" />
    </linearGradient>
  </defs>
  <script
     type="text/javascript"
     src="js/sw_dice.js"
     id="script_sw_dice_utils" />
  <script
     type="text/javascript"
     data-namespace="dice_spiral"
     id="script_dice_spiral"><![CDATA[
var dice_spiral = {

  initialize: function(elem, prototype) {
    if (!prototype) {
      return
    }
    prototype.querySelectorAll('g').forEach((gEl) => {
      if (gEl.id && elem.getElementById(gEl.id)) {
        elem.getElementById(gEl.id).setAttribute(
          'display',
          gEl.getAttribute('display'),
        )
      }
    })
  },

  menu: {
    'Roll': {
      eventName: 'die_roll',
      otherEvents: ['dblclick'],
      applicable: (dieNode) => { return true },
      handler: function(evt) {
        let faces = [
          'g_spiral', 'g_spiral',
          'g_foot', 'g_foot', 'g_foot2',
          'g_bang_foot', 'g_bang', 'g_bang2',
          'g_bang2_spiral', 'g_bang_spiral', 'g_bang_spiral',
          null,
        ]
        return sw_dice.roll_handler(this, faces)
      },
    },
  },

  getValue: function(elem) {
    console.log('getValue', elem)
    let val = []
    let allValues = {
      'g_spiral': ['Spiral'],
      'g_foot': ['Foot'],
      'g_foot2': ['Foot', 'Foot'],
      'g_bang_foot': ['Foot', 'Bang'],
      'g_bang': ['Bang'],
      'g_bang2': ['Bang', 'Bang'],
      'g_bang_spiral': ['Spiral', 'Bang'],
      'g_bang2_spiral': ['Spiral', 'Bang', 'Bang'],
    }
    elem.querySelectorAll('.face').forEach(f => {
      if (f.style.display !== 'none') {
        val = allValues[f.id]
      }
    })
    return val
  },

}
    ]]></script>
  <path
     style="fill:#000000;fill-opacity:0.50196078;stroke:none;stroke-width:1.43660581;stroke-linecap:round;stroke-linejoin:round;stroke-miterlimit:4;stroke-dasharray:none;stroke-opacity:1"
     d="m 7.4087091,61.198188 c 0,0 -4.1508409,0.819812 -4.1508409,7.81214 C 5.0868283,75.8361 23.19054,91.96716 23.19054,91.96716 c 0,0 17.556487,7.950995 26.887897,7.80455 11.084877,-0.173963 31.63375,-10.26882 31.63375,-10.26882 0,0 14.759289,-15.592388 16.576705,-22.375076 0,-5.614407 -3.909938,-5.929626 -3.909938,-5.929626 z"
     id="path_shadow1"
     class="object_shadow"
     inkscape:connector-curvature="0"
     sodipodi:nodetypes="cccscccc"
     inkscape:label="#patha1" />
  <g
     id="group-monochrome-1"
     class="draggable"
     filter="url(#app-filter-colorize)">
    <path
       inkscape:connector-curvature="0"
       id="patha2"
       d="m 50.560543,5.458109 -24.80296,5.200387 -18.00051,18.765482 -2.274,30.505378 14.25213,29.128043 30.39137,6.662315 L 80.516102,89.057399 95.636181,59.929356 93.159916,30.314002 75.361687,10.658496 Z"
       style="fill:#c8c8c8;fill-opacity:1;stroke:none;stroke-width:1.23338163;stroke-linecap:round;stroke-linejoin:round;stroke-miterlimit:4;stroke-dasharray:none;stroke-opacity:1"
       sodipodi:nodetypes="ccccccccccc" />
    <path
       inkscape:connector-curvature="0"
       style="fill:#9b9b9b;fill-opacity:1;stroke:none;stroke-width:1.23338163;stroke-linecap:round;stroke-linejoin:round;stroke-miterlimit:4;stroke-dasharray:none;stroke-opacity:1"
       d="m 7.758043,29.423821 -2.274,30.50538 14.25213,29.128048 30.38953,6.662315 L 80.515235,89.057249 95.635314,59.929201 93.160886,30.315684 80.290892,36.527461 70.149397,74.371859 H 30.968133 L 20.828483,36.527461 Z"
       id="patha3"
       sodipodi:nodetypes="cccccccccccc" />
    <path
       style="fill:none;fill-opacity:1;stroke:#000000;stroke-width:1.23338163;stroke-linecap:round;stroke-linejoin:round;stroke-miterlimit:4;stroke-dasharray:none;stroke-opacity:1"
       d="m 50.560543,5.458109 c -5.019219,0 -23.15334,3.5507671 -24.80296,5.200387 0,0 -15.078,13.703546 -18.00051,18.765482 l -2.274,30.505378 14.25213,29.128043 30.39137,6.662315 L 80.516102,89.057399 95.636181,59.929356 93.159916,30.314002 C 90.669946,26.001247 75.361687,10.658496 75.361687,10.658496 74.050308,9.3471169 54.921169,5.458109 50.560543,5.458109 Z"
       id="patha4"
       inkscape:connector-curvature="0"
       sodipodi:nodetypes="ccccccccccc" />
    <path
       style="fill:none;stroke:#000000;stroke-width:0.9415127px;stroke-linecap:butt;stroke-linejoin:miter;stroke-opacity:1"
       d="m 50.560543,5.458109 -0.002,13.903455 z m -42.80347,23.965869 13.07043,7.10364 z m 85.402843,0.890024 -12.870003,6.213616 z m -62.192753,44.058017 -11.23196,14.68538 z m 39.181265,0 10.367674,14.68538 z"
       id="patha5"
       inkscape:connector-curvature="0"
       sodipodi:nodetypes="ccccccccccccccc" />
    <path
       style="fill:#e4e4e4;fill-opacity:1;stroke:url(#radialGradient3133);stroke-width:1.23338163;stroke-linecap:round;stroke-linejoin:round;stroke-miterlimit:4;stroke-dasharray:none;stroke-opacity:1"
       d="m 50.558703,19.361563 c 10.321596,3.871669 20.160441,9.915665 29.73121,17.166055 -0.133262,15.612248 -5.261013,26.614199 -10.141495,37.844391 -12.728225,0.88588 -25.659645,1.22988 -39.181265,0 -6.39362,-13.870514 -8.12131,-25.7969 -10.13966,-37.844391 8.89135,-7.556315 18.96208,-12.989745 29.73121,-17.166055 z"
       id="penta_1"
       inkscape:connector-curvature="0"
       sodipodi:nodetypes="cccccc" />
  </g>
  <g
     id="g_foot"
     class="face"
     style="display: none">
    <path
       inkscape:connector-curvature="0"
       d="m 58.977641,57.85182 c -0.01225,-0.007 -0.0242,-0.01434 -0.03585,-0.02211 v 8.68e-4 l -8.361097,-4.827186 -8.371701,4.833448 v -8.69e-4 c -0.0118,0.0077 -0.02375,0.01479 -0.036,0.02211 -0.408577,0.235735 -0.938606,0.08261 -1.18405,-0.342397 -0.245295,-0.424859 -0.113087,-0.960565 0.295639,-1.196448 0.0121,-0.007 0.0245,-0.01375 0.03705,-0.02016 v -8.68e-4 l 8.453269,-4.88063 V 41.95146 h 0.0015 c -0.0015,-0.0142 -0.0015,-0.0281 -0.0015,-0.0421 0,-0.47192 0.397821,-0.85435 0.88856,-0.85435 0.49059,0 0.888261,0.38243 0.888261,0.85435 0,0.014 0,0.028 -0.0015,0.0421 h 0.0015 v 9.560232 l 8.279678,4.780117 v 0.0012 c 0.01255,0.0062 0.02495,0.01299 0.03719,0.02016 0.408577,0.235734 0.540785,0.771439 0.29549,1.196448 -0.245444,0.425009 -0.775473,0.578131 -1.184049,0.342248 z"
       style="display:inline;stroke-width:0.07469399px"
       id="path23" />
  </g>
  <g
     id="g_foot2"
     class="face"
     style="display: none">
    <path
       inkscape:connector-curvature="0"
       d="m 49.515602,51.092273 c -0.0122,-0.007 -0.0242,-0.01434 -0.0358,-0.02211 v 9.47e-4 l -8.3611,-4.827185 -8.371708,4.833446 v -9.47e-4 c -0.01176,0.0077 -0.02376,0.01479 -0.036,0.02211 -0.408576,0.235734 -0.938604,0.08261 -1.184042,-0.342397 -0.245296,-0.42486 -0.113091,-0.960565 0.295636,-1.196449 0.01208,-0.007 0.02447,-0.01375 0.03703,-0.02016 v -9.48e-4 l 8.453274,-4.880643 V 35.19182 h 0.002 c -0.002,-0.0142 -0.002,-0.0281 -0.002,-0.0421 0,-0.47192 0.39781,-0.85435 0.88855,-0.85435 0.49059,0 0.88826,0.38243 0.88826,0.85435 0,0.014 0,0.028 -0.002,0.0421 h 0.002 v 9.560232 l 8.27968,4.780117 v 0.0012 c 0.0126,0.0062 0.025,0.013 0.0372,0.02016 0.40858,0.235734 0.54078,0.771439 0.2955,1.196448 -0.24545,0.425009 -0.77548,0.578131 -1.18405,0.342248 z"
       style="display:inline;stroke-width:0.0"
       id="path30" />
    <path
       inkscape:connector-curvature="0"
       d="m 68.443792,61.848206 c -0.0122,-0.007 -0.0242,-0.01434 -0.0358,-0.02211 v 9.48e-4 l -8.36109,-4.827187 -8.3717,4.833447 v -9.47e-4 c -0.0118,0.0077 -0.0238,0.01479 -0.036,0.02211 -0.40858,0.235734 -0.93861,0.08261 -1.18404,-0.342397 -0.24531,-0.424859 -0.1131,-0.960565 0.29563,-1.196448 0.0121,-0.007 0.0245,-0.01375 0.037,-0.02016 v -9.48e-4 l 8.45325,-4.880629 v -9.466118 h 0.002 c -0.002,-0.0142 -0.002,-0.02808 -0.002,-0.04213 0,-0.471917 0.39782,-0.85435 0.88856,-0.85435 0.49059,0 0.88826,0.382433 0.88826,0.85435 0,0.01405 0,0.02793 -0.002,0.04213 h 0.002 V 55.508 l 8.27968,4.780115 v 0.0012 c 0.0126,0.0062 0.025,0.013 0.0372,0.02016 0.40858,0.235735 0.54079,0.77144 0.29549,1.196449 -0.24545,0.425009 -0.77548,0.578131 -1.18405,0.342247 z"
       style="display:inline;stroke-width:0.07469399px"
       id="path32" />
  </g>
  <g
     id="g_bang_spiral"
     class="face"
     style="display: none">
    <path
       inkscape:connector-curvature="0"
       d="m 71.19088,59.798847 c -0.27787,-0.212575 -0.67479,-0.159243 -0.88602,0.118616 -1.66822,2.182859 -4.25114,3.601744 -7.08712,3.893796 -2.63879,0.270842 -5.176,-0.45817 -6.95849,-2.001347 -1.79983,-1.558418 -2.88244,-3.844351 -2.96983,-6.272056 -0.0889,-2.472522 0.85808,-4.88917 2.59845,-6.629688 2.93712,-2.937115 8.08413,-3.023465 11.01452,-0.185987 1.23141,1.192414 1.94638,2.943242 1.96102,4.803716 0.016,1.98761 -0.73335,3.840167 -2.1101,5.216629 -1.06499,1.065436 -2.62117,1.675238 -4.2725,1.675238 -0.006,0 -0.0134,0 -0.0201,0 -1.67554,-0.0049 -3.2722,-0.644161 -4.38065,-1.752618 -1.76667,-1.766217 -2.20467,-5.322847 -0.008,-7.601757 1.71274,-1.778911 4.76025,-1.908283 6.52168,-0.278611 0.72797,0.673742 1.15686,1.67195 1.17778,2.738133 0.0205,1.080824 -0.38124,2.114884 -1.10263,2.836429 -0.57321,0.573052 -1.32852,0.895733 -2.1264,0.908877 -0.81296,0.01163 -1.55751,-0.292952 -2.12593,-0.861371 -0.92143,-0.922025 -0.9392,-2.405146 -0.0395,-3.305656 0.34434,-0.34389 0.82641,-0.551842 1.32268,-0.569916 0.5,-0.02135 0.95893,0.153721 1.29011,0.485362 0.16044,0.160292 0.25695,0.360624 0.27891,0.578877 0.035,0.347777 0.34733,0.599047 0.69242,0.566183 0.34717,-0.03494 0.60099,-0.34479 0.56603,-0.692266 -0.0512,-0.512549 -0.27353,-0.978641 -0.64282,-1.347627 -0.58306,-0.583511 -1.37945,-0.891402 -2.23126,-0.854947 -0.81207,0.02958 -1.60308,0.372275 -2.17031,0.939946 -1.39304,1.392894 -1.37526,3.678381 0.0393,5.093681 0.81282,0.813419 1.88647,1.247838 3.04125,1.232004 1.12787,-0.01852 2.19316,-0.472664 3,-1.279209 0.96356,-0.96385 1.50015,-2.332841 1.47252,-3.755464 -0.0273,-1.408282 -0.60442,-2.735744 -1.58321,-3.641778 -2.2459,-2.078884 -6.12058,-1.924714 -8.29193,0.328502 -2.70422,2.805954 -2.15746,7.192583 0.0251,9.374244 1.34284,1.343296 3.26382,2.116828 5.27145,2.122955 1.99208,0.02283 3.88468,-0.739174 5.19018,-2.04557 1.61833,-1.617427 2.49942,-3.79132 2.48074,-6.120877 -0.0176,-2.197046 -0.87272,-4.27548 -2.34613,-5.702287 -3.46655,-3.356001 -9.32242,-3.263529 -12.78866,0.200931 -1.98806,1.988054 -3.06992,4.746798 -2.96759,7.569036 0.0999,2.777574 1.3409,5.395296 3.40559,7.182574 1.76801,1.53033 4.16329,2.365408 6.70857,2.365408 0.39932,0 0.80222,-0.02049 1.2075,-0.06169 3.18137,-0.327014 6.08353,-1.924868 7.96223,-4.383791 0.21198,-0.277712 0.1588,-0.674489 -0.11891,-0.88662 z"
       style="display:inline;stroke-width:0.14938797"
       id="path35" />
    <path
       inkscape:connector-curvature="0"
       d="m 43.99088,51.314856 -4.75985,-4.57332 -3.84685,5.364026 0.60783,-6.572843 -6.59224,0.336902 5.51773,-3.622828 -4.37352,-4.943958 6.27275,2.05512 1.13855,-6.501901 2.30419,6.185548 5.79319,-3.163716 -3.3995,5.658136 6.0856,2.55678 -6.54325,0.870053 z"
       style="display:inline;stroke-width:0.14938797"
       id="path37" />
  </g>
  <g
     id="g_bang_foot"
     class="face"
     style="display:none">
    <path
       inkscape:connector-curvature="0"
       d="m 44.004314,51.91409 -4.759831,-4.573314 -3.846862,5.36402 0.607835,-6.572843 -6.592242,0.336903 5.517722,-3.622824 -4.373511,-4.943957 6.272755,2.055115 1.13855,-6.501901 2.304181,6.185547 5.793177,-3.163715 -3.399488,5.65814 6.085608,2.55678 -6.543253,0.870048 z"
       style="display:inline;stroke-width:0.14938797"
       id="path40" />
    <path
       inkscape:connector-curvature="0"
       d="m 68.800653,63.198967 c -0.01225,-0.007 -0.02422,-0.01436 -0.03585,-0.02211 v 9.48e-4 L 60.403707,58.350635 52.032,63.18408 v -9.47e-4 c -0.01184,0.0076 -0.02376,0.01479 -0.036,0.02211 -0.408577,0.235734 -0.938605,0.08261 -1.184051,-0.342396 -0.245287,-0.42486 -0.113082,-0.960562 0.295644,-1.196449 0.01208,-0.007 0.02447,-0.01374 0.03703,-0.02015 V 61.6453 l 8.453267,-4.880654 v -9.466132 h 0.0014 c -0.0014,-0.01416 -0.0014,-0.0281 -0.0014,-0.04212 0,-0.471917 0.397821,-0.854348 0.888559,-0.854348 0.490588,0 0.888261,0.382431 0.888261,0.854348 0,0.01402 0,0.02796 -0.0014,0.04212 h 0.0014 v 9.560231 l 8.279681,4.780118 v 9.47e-4 c 0.01254,0.0062 0.02494,0.01302 0.03719,0.02015 0.408576,0.235734 0.540786,0.771436 0.295488,1.196444 -0.245445,0.425013 -0.77547,0.578135 -1.184046,0.342248 z"
       style="display:inline;stroke-width:0.07469399px"
       id="path42" />
  </g>
  <g
     id="g_bang2"
     class="face"
     style="display:none">
    <path
       inkscape:connector-curvature="0"
       d="m 43.118909,51.614454 -4.75983,-4.573315 -3.846864,5.364026 0.607824,-6.572848 -6.592231,0.336902 5.517706,-3.622823 -4.37351,-4.943957 6.272775,2.055119 1.13852,-6.501901 2.30421,6.185548 5.79317,-3.163721 -3.39949,5.658141 6.08561,2.556779 -6.54326,0.870054 z"
       style="display:inline;stroke-width:0.14938797"
       id="path45" />
    <path
       inkscape:connector-curvature="0"
       d="m 66.797259,63.915407 -4.75982,-4.573319 -3.84686,5.364026 0.60783,-6.572848 -6.59224,0.336907 5.51771,-3.622828 -4.37351,-4.943957 6.27277,2.055119 1.13854,-6.501901 2.30419,6.185547 5.79318,-3.163715 -3.39949,5.658135 6.0856,2.556781 -6.54325,0.870052 z"
       style="display:inline;stroke-width:0.14938797"
       id="path47" />
  </g>
  <g
     id="g_bang2_spiral"
     class="face"
     style="display:none">
    <path
       inkscape:connector-curvature="0"
       d="m 71.441772,44.301144 c -0.277861,-0.212581 -0.674786,-0.159248 -0.88602,0.118611 -1.668215,2.182858 -4.251133,3.601743 -7.087114,3.893801 -2.638789,0.270837 -5.175995,-0.458175 -6.958491,-2.001353 -1.799827,-1.558417 -2.882442,-3.84435 -2.969834,-6.272055 -0.08888,-2.472517 0.858085,-4.88917 2.598455,-6.629689 2.937117,-2.937116 8.084129,-3.023462 11.014523,-0.185986 1.231406,1.192414 1.946376,2.943242 1.961017,4.803721 0.01598,1.987605 -0.733346,3.840166 -2.110105,5.216624 -1.064987,1.065435 -2.621161,1.675238 -4.272496,1.675238 -0.0067,0 -0.01345,0 -0.02016,0 -1.675536,-0.0049 -3.272194,-0.644161 -4.380653,-1.752618 -1.766662,-1.766218 -2.204668,-5.322843 -0.0079,-7.601757 1.712733,-1.778911 4.760247,-1.908283 6.521681,-0.278607 0.727967,0.673737 1.15686,1.67195 1.177775,2.738128 0.02046,1.080825 -0.381239,2.114889 -1.102633,2.83643 -0.573202,0.573051 -1.328507,0.895733 -2.126389,0.908877 -0.812969,0.01163 -1.557518,-0.292948 -2.12594,-0.861371 -0.921425,-0.92202 -0.939202,-2.405146 -0.03944,-3.305656 0.34434,-0.343891 0.826415,-0.551837 1.322681,-0.569917 0.500002,-0.02135 0.958922,0.153721 1.290115,0.485363 0.160442,0.160292 0.256948,0.360624 0.278907,0.578876 0.03495,0.347778 0.347327,0.599048 0.692413,0.566184 0.347178,-0.03495 0.600988,-0.344791 0.566031,-0.692266 -0.05124,-0.51255 -0.273529,-0.978642 -0.642816,-1.347627 -0.583061,-0.583511 -1.379448,-0.891397 -2.231259,-0.854947 -0.812073,0.02958 -1.603082,0.372275 -2.170308,0.939946 -1.393043,1.392894 -1.375266,3.678381 0.03929,5.093685 0.81282,0.813415 1.886471,1.247838 3.04124,1.231999 1.127879,-0.01852 2.193165,-0.472663 3.000009,-1.279208 0.963552,-0.963851 1.500154,-2.332841 1.472517,-3.755464 -0.02733,-1.408278 -0.604424,-2.73574 -1.583214,-3.641778 -2.245898,-2.078884 -6.120573,-1.924714 -8.291928,0.328502 -2.704221,2.805953 -2.157461,7.192583 0.0251,9.374244 1.342849,1.343296 3.263828,2.116828 5.271454,2.122954 1.992088,0.02288 3.884685,-0.739174 5.190186,-2.045569 1.61832,-1.617422 2.499409,-3.791316 2.480737,-6.120872 -0.01763,-2.197051 -0.872725,-4.275485 -2.346139,-5.70229 -3.466547,-3.356 -9.322406,-3.263529 -12.788656,0.200928 -1.988054,1.988055 -3.069923,4.746803 -2.967591,7.569041 0.09994,2.777569 1.340906,5.395291 3.405597,7.18257 1.768006,1.53033 4.163294,2.365412 6.708566,2.365412 0.399314,0 0.802213,-0.02049 1.207503,-0.0617 3.181365,-0.327008 6.083526,-1.924863 7.962229,-4.383791 0.211981,-0.277711 0.158799,-0.674483 -0.118913,-0.886614 z"
       style="display:inline;stroke-width:0.14938797"
       id="path50" />
    <path
       inkscape:connector-curvature="0"
       d="m 42.792177,53.705774 -4.759826,-4.573315 -3.846878,5.364021 0.607831,-6.572843 -6.592238,0.336902 5.517722,-3.622823 -4.373514,-4.943958 6.272754,2.055115 1.138546,-6.501896 2.304207,6.185543 5.793175,-3.163715 -3.399487,5.65814 6.085602,2.55678 -6.543253,0.870048 z"
       style="display:inline;stroke-width:0.14938797"
       id="path52" />
    <path
       inkscape:connector-curvature="0"
       d="m 60.267986,71.284131 -4.75983,-4.573315 -3.846874,5.364021 0.607829,-6.572843 -6.592237,0.336903 5.51772,-3.622824 -4.373512,-4.943957 6.272756,2.055115 1.138545,-6.501902 2.30419,6.185548 5.79319,-3.163716 -3.399502,5.658141 6.085618,2.55678 -6.543253,0.870048 z"
       style="display:inline;stroke-width:0.14938797"
       id="path54" />
  </g>
  <g
     id="g_bang"
     class="face"
     style="display: none">
    <path
     style="display:inline;stroke-width:0.14938797"
     id="bang"
     d="m 55.388862,58.321253 -4.75983,-4.573315 -3.846864,5.364026 0.607824,-6.572848 -6.592231,0.336902 5.517706,-3.622823 -4.37351,-4.943957 6.272775,2.055119 1.13852,-6.501901 2.30421,6.185548 5.79317,-3.163721 -3.39949,5.658141 6.08561,2.556779 -6.54326,0.870054 z"
     inkscape:connector-curvature="0" />
  </g>
  <g
     id="g_spiral"
     class="face"
     style="display: inline">
    <path
     style="display:inline;stroke-width:0.14938797"
     d="m 58.98426,53.522924 c -0.27785,-0.212578 -0.67478,-0.159247 -0.88601,0.118615 -1.66823,2.182857 -4.25114,3.601744 -7.08712,3.893797 -2.63879,0.270841 -5.17599,-0.458173 -6.9585,-2.00135 -1.79982,-1.558416 -2.88243,-3.844351 -2.96983,-6.272054 -0.0889,-2.472521 0.85809,-4.88917 2.59846,-6.629692 2.93711,-2.93711 8.08413,-3.02346 11.01452,-0.18598 1.23141,1.19241 1.94638,2.943237 1.96102,4.803714 0.016,1.987608 -0.73335,3.840167 -2.1101,5.216628 -1.06499,1.065435 -2.62117,1.675237 -4.2725,1.675237 -0.006,0 -0.0134,0 -0.0201,0 -1.67553,-0.0049 -3.27219,-0.644161 -4.38065,-1.752619 -1.76666,-1.766214 -2.20467,-5.322844 -0.008,-7.601756 1.71273,-1.778914 4.76025,-1.908284 6.52169,-0.278609 0.72796,0.673739 1.15685,1.67195 1.17777,2.738132 0.0205,1.080822 -0.38124,2.114885 -1.10264,2.836429 -0.5732,0.573053 -1.3285,0.89573 -2.12639,0.908876 -0.81296,0.01165 -1.55751,-0.292949 -2.12593,-0.86137 -0.92143,-0.922023 -0.93921,-2.405147 -0.0395,-3.305658 0.34434,-0.343891 0.82641,-0.551839 1.32268,-0.569915 0.5,-0.02136 0.95892,0.15372 1.29012,0.485362 0.16044,0.160293 0.25695,0.360622 0.2789,0.578878 0.035,0.347775 0.34733,0.599046 0.69242,0.566181 0.34717,-0.03496 0.60098,-0.344788 0.56603,-0.692264 -0.0512,-0.51255 -0.27353,-0.97864 -0.64282,-1.347629 -0.58306,-0.58351 -1.37945,-0.891399 -2.23126,-0.854947 -0.81207,0.02958 -1.60308,0.372275 -2.17031,0.939949 -1.39304,1.392893 -1.37526,3.67838 0.0393,5.093681 0.81282,0.813417 1.88647,1.247838 3.04123,1.232003 1.12789,-0.01852 2.19317,-0.472664 3.00001,-1.279209 0.96355,-0.963852 1.50016,-2.332843 1.47253,-3.755464 -0.0273,-1.408281 -0.60443,-2.735743 -1.58323,-3.64178 -2.2459,-2.07888 -6.12056,-1.92472 -8.29192,0.328504 -2.70422,2.805954 -2.15746,7.192582 0.0251,9.374244 1.34286,1.343297 3.26384,2.116827 5.27146,2.122953 1.99209,0.02286 3.88469,-0.739172 5.19019,-2.045569 1.61831,-1.617425 2.4994,-3.791318 2.48073,-6.120874 -0.0176,-2.197049 -0.87273,-4.275488 -2.34614,-5.702288 -3.46655,-3.356 -9.3224,-3.26353 -12.78865,0.20093 -1.98806,1.988051 -3.06992,4.746799 -2.96759,7.569037 0.0999,2.77757 1.3409,5.395295 3.40559,7.182573 1.76801,1.53033 4.1633,2.36541 6.70857,2.36541 0.39931,0 0.80221,-0.02046 1.2075,-0.06169 3.18136,-0.327011 6.08353,-1.924864 7.96223,-4.383791 0.21198,-0.277712 0.1588,-0.674486 -0.11891,-0.886617 z"
     inkscape:connector-curvature="0" />
  </g>
</svg>
