<?xml version="1.0" encoding="UTF-8" standalone="no"?>
<svg
   xmlns:dc="http://purl.org/dc/elements/1.1/"
   xmlns:svg="http://www.w3.org/2000/svg"
   xmlns="http://www.w3.org/2000/svg"
   xmlns:inkscape="http://www.inkscape.org/namespaces/inkscape"
   width="800"
   height="800"
   viewBox="0 0 211.6 211.6"
   version="1.1"
   class="gridpaper"
   >
  <defs
     id="defs2" />
  <g
     inkscape:label="Layer 1"
     inkscape:groupmode="layer"
     id="layer1">
    <rect
       style="opacity:1;fill:#ffffff;fill-opacity:1"

       width="211.66"
       height="211.66"
       x="0"
       y="0" />
    <path
       style="fill:none;stroke:#00ffff;stroke-width:0.26458332px;stroke-linecap:butt;stroke-linejoin:miter;stroke-opacity:1"
       d="M 21.679412,10.69939 V 202.33331"
       id="path10"
        />
    <path
       id="path12"
       d="M 42.84608,10.69939 V 202.33331"
       style="fill:none;stroke:#00ffff;stroke-width:0.26458332px;stroke-linecap:butt;stroke-linejoin:miter;stroke-opacity:1" />
    <path
       style="fill:none;stroke:#00ffff;stroke-width:0.26458332px;stroke-linecap:butt;stroke-linejoin:miter;stroke-opacity:1"
       d="M 64.012748,10.69939 V 202.33331"
       id="path14"
        />
    <path
       id="path16"
       d="M 85.179416,10.69939 V 202.33331"
       style="fill:none;stroke:#00ffff;stroke-width:0.26458332px;stroke-linecap:butt;stroke-linejoin:miter;stroke-opacity:1" />
    <path
       style="fill:none;stroke:#00ffff;stroke-width:0.26458332px;stroke-linecap:butt;stroke-linejoin:miter;stroke-opacity:1"
       d="M 106.34609,10.69939 V 202.33331"
       id="path18"
        />
    <path
       
       id="path20"
       d="M 127.51277,10.69939 V 202.33331"
       style="fill:none;stroke:#00ffff;stroke-width:0.26458332px;stroke-linecap:butt;stroke-linejoin:miter;stroke-opacity:1" />
    <path
       style="fill:none;stroke:#00ffff;stroke-width:0.26458332px;stroke-linecap:butt;stroke-linejoin:miter;stroke-opacity:1"
       d="M 148.67945,10.69939 V 202.33331"
       id="path22"
        />
    <path
       
       id="path24"
       d="M 169.84613,10.69939 V 202.33331"
       style="fill:none;stroke:#00ffff;stroke-width:0.26458332px;stroke-linecap:butt;stroke-linejoin:miter;stroke-opacity:1" />
    <path
       style="fill:none;stroke:#00ffff;stroke-width:0.26458332px;stroke-linecap:butt;stroke-linejoin:miter;stroke-opacity:1"
       d="M 10,106.51635 H 201.63392"
       id="path26"
        />
    <path
       style="fill:none;stroke:#00ffff;stroke-width:0.26458332px;stroke-linecap:butt;stroke-linejoin:miter;stroke-opacity:1"
       d="M 191.01281,10.69939 V 202.33331"
       id="path28"
        />
    <path
       
       id="path30"
       d="M 10,85.349669 H 201.63392"
       style="fill:none;stroke:#00ffff;stroke-width:0.26458332px;stroke-linecap:butt;stroke-linejoin:miter;stroke-opacity:1" />
    <path
       style="fill:none;stroke:#00ffff;stroke-width:0.26458332px;stroke-linecap:butt;stroke-linejoin:miter;stroke-opacity:1"
       d="M 10,64.182989 H 201.63392"
       id="path32"
        />
    <path
       
       id="path34"
       d="M 10,43.016309 H 201.63392"
       style="fill:none;stroke:#00ffff;stroke-width:0.26458332px;stroke-linecap:butt;stroke-linejoin:miter;stroke-opacity:1" />
    <path
       style="fill:none;stroke:#00ffff;stroke-width:0.26458332px;stroke-linecap:butt;stroke-linejoin:miter;stroke-opacity:1"
       d="M 10,21.849629 H 201.63392"
       id="path36"
        />
    <path
       
       id="path38"
       d="M 10,127.68303 H 201.63392"
       style="fill:none;stroke:#00ffff;stroke-width:0.26458332px;stroke-linecap:butt;stroke-linejoin:miter;stroke-opacity:1" />
    <path
       style="fill:none;stroke:#00ffff;stroke-width:0.26458332px;stroke-linecap:butt;stroke-linejoin:miter;stroke-opacity:1"
       d="M 10,148.84971 H 201.63392"
       id="path40"
        />
    <path
       
       id="path42"
       d="M 10,170.01639 H 201.63392"
       style="fill:none;stroke:#00ffff;stroke-width:0.26458332px;stroke-linecap:butt;stroke-linejoin:miter;stroke-opacity:1" />
    <path
       style="fill:none;stroke:#00ffff;stroke-width:0.26458332px;stroke-linecap:butt;stroke-linejoin:miter;stroke-opacity:1"
       d="M 10,191.18307 H 201.63392"
       id="path44"
        />
    <g
       id="g219"
       class="snaptarget"
       style="opacity:1;fill:#fafafa;fill-opacity:1"
       transform="translate(0,-84.6)">
      <rect
         x="27.516668"
         y="261.54581"
         height="8"
         width="8"
         id="rect21" />
      <rect
         width="8"
         height="8"
         x="27.516668"
         y="240.37914"
         id="rect23" />
      <rect
         y="219.21245"
         x="27.516668"
         height="8"
         width="8"
         id="rect25" />
      <rect
         width="8"
         height="8"
         x="27.516668"
         y="198.04576"
         id="rect27" />
      <rect
         width="8"
         height="8"
         x="48.683338"
         y="261.54581"
         id="rect29" />
      <rect
         y="261.54581"
         x="69.849998"
         height="8"
         width="8"
         id="rect31" />
      <rect
         width="8"
         height="8"
         x="91.016663"
         y="261.54581"
         id="rect33" />
      <rect
         y="240.37914"
         x="91.016663"
         height="8"
         width="8"
         id="rect35" />
      <rect
         width="8"
         height="8"
         x="69.849998"
         y="240.37914"
         id="rect37" />
      <rect
         y="240.37914"
         x="48.683338"
         height="8"
         width="8"
         id="rect39" />
      <rect
         width="8"
         height="8"
         x="48.683338"
         y="219.21245"
         id="rect41" />
      <rect
         y="219.21245"
         x="69.849998"
         height="8"
         width="8"
         id="rect43" />
      <rect
         width="8"
         height="8"
         x="91.016663"
         y="219.21245"
         id="rect45" />
      <rect
         y="198.04576"
         x="91.016663"
         height="8"
         width="8"
         id="rect47" />
      <rect
         width="8"
         height="8"
         x="69.849998"
         y="198.04576"
         id="rect49" />
      <rect
         y="198.04576"
         x="48.683338"
         height="8"
         width="8"
         id="rect51" />
      <rect
         width="8"
         height="8"
         x="112.18331"
         y="261.54581"
         id="rect53" />
      <rect
         y="240.37914"
         x="112.18331"
         height="8"
         width="8"
         id="rect55" />
      <rect
         width="8"
         height="8"
         x="112.18331"
         y="219.21245"
         id="rect57" />
      <rect
         y="198.04576"
         x="112.18331"
         height="8"
         width="8"
         id="rect59" />
      <rect
         y="261.54581"
         x="133.34999"
         height="8"
         width="8"
         id="rect61" />
      <rect
         width="8"
         height="8"
         x="154.51668"
         y="261.54581"
         id="rect63" />
      <rect
         y="261.54581"
         x="175.68336"
         height="8"
         width="8"
         id="rect65" />
      <rect
         width="8"
         height="8"
         x="175.68336"
         y="240.37914"
         id="rect67" />
      <rect
         y="240.37914"
         x="154.51668"
         height="8"
         width="8"
         id="rect69" />
      <rect
         width="8"
         height="8"
         x="133.34999"
         y="240.37914"
         id="rect71" />
      <rect
         y="219.21245"
         x="133.34999"
         height="8"
         width="8"
         id="rect73" />
      <rect
         width="8"
         height="8"
         x="154.51668"
         y="219.21245"
         id="rect75" />
      <rect
         y="219.21245"
         x="175.68336"
         height="8"
         width="8"
         id="rect77" />
      <rect
         width="8"
         height="8"
         x="175.68336"
         y="198.04576"
         id="rect79" />
      <rect
         y="198.04576"
         x="154.51668"
         height="8"
         width="8"
         id="rect81" />
      <rect
         width="8"
         height="8"
         x="133.34999"
         y="198.04576"
         id="rect83" />
      <rect
         width="8"
         height="8"
         x="27.516668"
         y="176.87907"
         id="rect85" />
      <rect
         y="155.71239"
         x="27.516668"
         height="8"
         width="8"
         id="rect87" />
      <rect
         width="8"
         height="8"
         x="27.516668"
         y="134.5457"
         id="rect89" />
      <rect
         y="113.37902"
         x="27.516668"
         height="8"
         width="8"
         id="rect91" />
      <rect
         y="176.87907"
         x="48.683338"
         height="8"
         width="8"
         id="rect93" />
      <rect
         width="8"
         height="8"
         x="69.849998"
         y="176.87907"
         id="rect95" />
      <rect
         y="176.87907"
         x="91.016663"
         height="8"
         width="8"
         id="rect97" />
      <rect
         width="8"
         height="8"
         x="91.016663"
         y="155.71239"
         id="rect99" />
      <rect
         y="155.71239"
         x="69.849998"
         height="8"
         width="8" />
      <rect
         width="8"
         height="8"
         x="48.683338"
         y="155.71239" />
      <rect
         y="134.5457"
         x="48.683338"
         height="8"
         width="8" />
      <rect
         width="8"
         height="8"
         x="69.849998"
         y="134.5457" />
      <rect
         y="134.5457"
         x="91.016663"
         height="8"
         width="8" />
      <rect
         width="8"
         height="8"
         x="91.016663"
         y="113.37902" />
      <rect
         y="113.37902"
         x="69.849998"
         height="8"
         width="8" />
      <rect
         width="8"
         height="8"
         x="48.683338"
         y="113.37902" />
      <rect
         y="176.87907"
         x="112.18331"
         height="8"
         width="8" />
      <rect
         width="8"
         height="8"
         x="112.18331"
         y="155.71239" />
      <rect
         y="134.5457"
         x="112.18331"
         height="8"
         width="8" />
      <rect
         width="8"
         height="8"
         x="112.18331"
         y="113.37902" />
      <rect
         width="8"
         height="8"
         x="133.34999"
         y="176.87907" />
      <rect
         y="176.87907"
         x="154.51668"
         height="8"
         width="8" />
      <rect
         width="8"
         height="8"
         x="175.68336"
         y="176.87907" />
      <rect
         y="155.71239"
         x="175.68336"
         height="8"
         width="8" />
      <rect
         width="8"
         height="8"
         x="154.51668"
         y="155.71239" />
      <rect
         y="155.71239"
         x="133.34999"
         height="8"
         width="8" />
      <rect
         width="8"
         height="8"
         x="133.34999"
         y="134.5457" />
      <rect
         y="134.5457"
         x="154.51668"
         height="8"
         width="8" />
      <rect
         width="8"
         height="8"
         x="175.68336"
         y="134.5457" />
      <rect
         y="113.37902"
         x="175.68336"
         height="8"
         width="8" />
      <rect
         width="8"
         height="8"
         x="154.51668"
         y="113.37902" />
      <rect
         y="113.37902"
         x="133.34999"
         height="8"
         width="8" />
    </g>
  </g>
</svg>
