<?xml version="1.0" encoding="UTF-8" standalone="no"?>
<svg class="sampler-scene" xmlns="http://www.w3.org/2000/svg" xmlns:xlink="http://www.w3.org/1999/xlink" viewBox="0 0 600 200" preserveAspectRatio="xMidYMid slice">
  <defs>
    <pattern id="s0-bg" x="0" y="0" width="1384" height="998" patternUnits="userSpaceOnUse">
      <image href="img/bg_slatehex.png" x="0" y="0" width="1384" height="998"/>
    </pattern>
  </defs>
  <g id="background-layer">
    <rect width="100%" height="100%" fill="url(#s0-bg)"/>
  </g>
  <g id="boundaries-positions-layer"/>
  <g id="toys-layer">
    <g class="toy" data-toy-type="dice_d6" data-color="#191e78" data-id="sample-s0d0" id="sample-s0d0" data-module="toys" transform="rotate(-8,105,100)" style="filter:drop-shadow(0 4px 10px rgba(0,0,0,0.75))">
      <svg id="sample-s0d0__d6_die" height="100" width="80" viewBox="0 0 80 100" class="d6_die dice" version="1.1" data-id="sample-s0d0__d6_die" x="65" y="50">
        <defs id="sample-s0d0__defs4" data-id="sample-s0d0__defs4">
          <filter id="sample-s0d0__app-filter-colorize" class="tt_color_filter sample-s0d0__tt_color_filter" color-interpolation-filters="sRGB" data-id="sample-s0d0__app-filter-colorize">
            <feColorMatrix id="sample-s0d0__recolorize-filter-matrix" type="matrix" values="0.2500 0 0 0 0  0.2763 0 0 0 0  0.7500 0 0 0 0  0 0 0 1 0" data-id="sample-s0d0__recolorize-filter-matrix"/>
          </filter>
          <linearGradient id="sample-s0d0__linearGradient1" data-id="sample-s0d0__linearGradient1">
            <stop id="sample-s0d0__stop1" style="stop-color:#000000;stop-opacity:1;" offset="0" data-id="sample-s0d0__stop1"/>
            <stop id="sample-s0d0__stop2" style="stop-color:#000000;stop-opacity:0.4" offset="1" data-id="sample-s0d0__stop2"/>
          </linearGradient>
          <linearGradient id="sample-s0d0__linearGradient10" xlink:href="#sample-s0d0__linearGradient1" x1="0.0" y1="22.6" x2="0.0" y2="88.9" gradientUnits="userSpaceOnUse" data-id="sample-s0d0__linearGradient10"/>
        </defs>
        <g id="sample-s0d0__layer1" class="tt_colored sample-s0d0__tt_colored" filter="url(#sample-s0d0__app-filter-colorize)" data-id="sample-s0d0__layer1">
          <path id="sample-s0d0__path_shadow" style="fill:#000000;fill-opacity:0.50196078;stroke:none;stroke-width:1.30999994;stroke-linecap:round;stroke-linejoin:round;stroke-miterlimit:4;stroke-dasharray:none;stroke-opacity:1" d="m 16.266526,45.579474 c -1.68432,-0.0012 -5.18571,0.06788 -6.23438,0.637907 -1.5957502,0.90302 -1.7272502,1.615566 -1.9062502,5.013899 l -2.88281,32.27422 c 0.0306,1.384198 6.4061402,6.270484 8.3222602,6.270484 h 51.97266 c 1.91612,0 8.29167,-4.886286 8.32227,-6.270484 l -2.88282,-32.27422 c -0.179,-3.398333 -0.3105,-4.110879 -1.90625,-5.013899 -1.04867,-0.570031 -4.55005,-0.639123 -6.23437,-0.637907 z" class="object_shadow" data-id="sample-s0d0__path_shadow"/>
          <path id="sample-s0d0__path_sides" d="m 16.266526,11.455671 c -1.68432,-0.0021 -5.18571,0.117211 -6.23438,1.101563 -1.5957502,1.559372 -1.7272502,2.789824 -1.9062502,8.658203 l -2.88281,55.732422 c 0.0306,2.390289 6.4061402,10.828125 8.3222602,10.828125 h 51.97266 c 1.91612,0 8.29167,-8.437836 8.32227,-10.828125 l -2.88282,-55.732422 c -0.179,-5.868379 -0.3105,-7.098831 -1.90625,-8.658203 -1.04867,-0.984352 -4.55005,-1.103663 -6.23437,-1.101563 z" style="fill:#9b9b9b;fill-opacity:1;stroke:#000000;stroke-width:1.30999994;stroke-linecap:round;stroke-linejoin:round;stroke-miterlimit:4;stroke-dasharray:none;stroke-opacity:1" data-id="sample-s0d0__path_sides"/>
          <path id="sample-s0d0__topface" style="fill:#dedede;fill-opacity:1;stroke:url(#sample-s0d0__linearGradient10);stroke-width:1.31;stroke-linecap:round;stroke-linejoin:round;stroke-miterlimit:4;stroke-dasharray:none;stroke-opacity:1" d="m 12.007916,11.667299 h 55.08564 c 1.662,0 2.94377,1.338951 3,3 l 2,59.08564 c 0.0562,1.661049 -1.338,3 -3,3 h -59.08564 c -1.6620002,0 -3.0562302,-1.338951 -3.0000002,-3 l 2,-59.08564 c 0.0562,-1.661049 1.3380002,-3 3.0000002,-3 z" data-id="sample-s0d0__topface"/>
        </g>
        <text id="sample-s0d0__text_die_value" style="font-size:50px;line-height:125%;font-family:sans-serif;fill:#000000;fill-opacity:1;stroke:none;" x="24" y="62" data-id="sample-s0d0__text_die_value"><tspan id="sample-s0d0__tspan_die_value" x="24" y="62" data-id="sample-s0d0__tspan_die_value">6</tspan></text>
      </svg>
    </g>
    <g class="toy" data-toy-type="dice_d6" data-color="#3c14a0" data-id="sample-s0d1" id="sample-s0d1" data-module="toys" transform="rotate(4,235,100)" style="filter:drop-shadow(0 4px 10px rgba(0,0,0,0.75))">
      <svg id="sample-s0d1__d6_die" height="100" width="80" viewBox="0 0 80 100" class="d6_die dice" version="1.1" data-id="sample-s0d1__d6_die" x="195" y="50">
        <defs id="sample-s0d1__defs4" data-id="sample-s0d1__defs4">
          <filter id="sample-s0d1__app-filter-colorize" class="tt_color_filter sample-s0d1__tt_color_filter" color-interpolation-filters="sRGB" data-id="sample-s0d1__app-filter-colorize">
            <feColorMatrix id="sample-s0d1__recolorize-filter-matrix" type="matrix" values="0.2353 0 0 0 0  0.0784 0 0 0 0  0.6275 0 0 0 0  0 0 0 1 0" data-id="sample-s0d1__recolorize-filter-matrix"/>
          </filter>
          <linearGradient id="sample-s0d1__linearGradient1" data-id="sample-s0d1__linearGradient1">
            <stop id="sample-s0d1__stop1" style="stop-color:#000000;stop-opacity:1;" offset="0" data-id="sample-s0d1__stop1"/>
            <stop id="sample-s0d1__stop2" style="stop-color:#000000;stop-opacity:0.4" offset="1" data-id="sample-s0d1__stop2"/>
          </linearGradient>
          <linearGradient id="sample-s0d1__linearGradient10" xlink:href="#sample-s0d1__linearGradient1" x1="0.0" y1="22.6" x2="0.0" y2="88.9" gradientUnits="userSpaceOnUse" data-id="sample-s0d1__linearGradient10"/>
        </defs>
        <g id="sample-s0d1__layer1" class="tt_colored sample-s0d1__tt_colored" filter="url(#sample-s0d1__app-filter-colorize)" data-id="sample-s0d1__layer1">
          <path id="sample-s0d1__path_shadow" style="fill:#000000;fill-opacity:0.50196078;stroke:none;stroke-width:1.30999994;stroke-linecap:round;stroke-linejoin:round;stroke-miterlimit:4;stroke-dasharray:none;stroke-opacity:1" d="m 16.266526,45.579474 c -1.68432,-0.0012 -5.18571,0.06788 -6.23438,0.637907 -1.5957502,0.90302 -1.7272502,1.615566 -1.9062502,5.013899 l -2.88281,32.27422 c 0.0306,1.384198 6.4061402,6.270484 8.3222602,6.270484 h 51.97266 c 1.91612,0 8.29167,-4.886286 8.32227,-6.270484 l -2.88282,-32.27422 c -0.179,-3.398333 -0.3105,-4.110879 -1.90625,-5.013899 -1.04867,-0.570031 -4.55005,-0.639123 -6.23437,-0.637907 z" class="object_shadow" data-id="sample-s0d1__path_shadow"/>
          <path id="sample-s0d1__path_sides" d="m 16.266526,11.455671 c -1.68432,-0.0021 -5.18571,0.117211 -6.23438,1.101563 -1.5957502,1.559372 -1.7272502,2.789824 -1.9062502,8.658203 l -2.88281,55.732422 c 0.0306,2.390289 6.4061402,10.828125 8.3222602,10.828125 h 51.97266 c 1.91612,0 8.29167,-8.437836 8.32227,-10.828125 l -2.88282,-55.732422 c -0.179,-5.868379 -0.3105,-7.098831 -1.90625,-8.658203 -1.04867,-0.984352 -4.55005,-1.103663 -6.23437,-1.101563 z" style="fill:#9b9b9b;fill-opacity:1;stroke:#000000;stroke-width:1.30999994;stroke-linecap:round;stroke-linejoin:round;stroke-miterlimit:4;stroke-dasharray:none;stroke-opacity:1" data-id="sample-s0d1__path_sides"/>
          <path id="sample-s0d1__topface" style="fill:#dedede;fill-opacity:1;stroke:url(#sample-s0d1__linearGradient10);stroke-width:1.31;stroke-linecap:round;stroke-linejoin:round;stroke-miterlimit:4;stroke-dasharray:none;stroke-opacity:1" d="m 12.007916,11.667299 h 55.08564 c 1.662,0 2.94377,1.338951 3,3 l 2,59.08564 c 0.0562,1.661049 -1.338,3 -3,3 h -59.08564 c -1.6620002,0 -3.0562302,-1.338951 -3.0000002,-3 l 2,-59.08564 c 0.0562,-1.661049 1.3380002,-3 3.0000002,-3 z" data-id="sample-s0d1__topface"/>
        </g>
        <text id="sample-s0d1__text_die_value" style="font-size:50px;line-height:125%;font-family:sans-serif;fill:#000000;fill-opacity:1;stroke:none;" x="24" y="62" data-id="sample-s0d1__text_die_value"><tspan id="sample-s0d1__tspan_die_value" x="24" y="62" data-id="sample-s0d1__tspan_die_value">4</tspan></text>
      </svg>
    </g>
    <g class="toy" data-toy-type="dice_d6" data-color="#0a0a5a" data-id="sample-s0d2" id="sample-s0d2" data-module="toys" transform="rotate(-3,365,100)" style="filter:drop-shadow(0 4px 10px rgba(0,0,0,0.75))">
      <svg id="sample-s0d2__d6_die" height="100" width="80" viewBox="0 0 80 100" class="d6_die dice" version="1.1" data-id="sample-s0d2__d6_die" x="325" y="50">
        <defs id="sample-s0d2__defs4" data-id="sample-s0d2__defs4">
          <filter id="sample-s0d2__app-filter-colorize" class="tt_color_filter sample-s0d2__tt_color_filter" color-interpolation-filters="sRGB" data-id="sample-s0d2__app-filter-colorize">
            <feColorMatrix id="sample-s0d2__recolorize-filter-matrix" type="matrix" values="0.2500 0 0 0 0  0.2500 0 0 0 0  0.7500 0 0 0 0  0 0 0 1 0" data-id="sample-s0d2__recolorize-filter-matrix"/>
          </filter>
          <linearGradient id="sample-s0d2__linearGradient1" data-id="sample-s0d2__linearGradient1">
            <stop id="sample-s0d2__stop1" style="stop-color:#000000;stop-opacity:1;" offset="0" data-id="sample-s0d2__stop1"/>
            <stop id="sample-s0d2__stop2" style="stop-color:#000000;stop-opacity:0.4" offset="1" data-id="sample-s0d2__stop2"/>
          </linearGradient>
          <linearGradient id="sample-s0d2__linearGradient10" xlink:href="#sample-s0d2__linearGradient1" x1="0.0" y1="22.6" x2="0.0" y2="88.9" gradientUnits="userSpaceOnUse" data-id="sample-s0d2__linearGradient10"/>
        </defs>
        <g id="sample-s0d2__layer1" class="tt_colored sample-s0d2__tt_colored" filter="url(#sample-s0d2__app-filter-colorize)" data-id="sample-s0d2__layer1">
          <path id="sample-s0d2__path_shadow" style="fill:#000000;fill-opacity:0.50196078;stroke:none;stroke-width:1.30999994;stroke-linecap:round;stroke-linejoin:round;stroke-miterlimit:4;stroke-dasharray:none;stroke-opacity:1" d="m 16.266526,45.579474 c -1.68432,-0.0012 -5.18571,0.06788 -6.23438,0.637907 -1.5957502,0.90302 -1.7272502,1.615566 -1.9062502,5.013899 l -2.88281,32.27422 c 0.0306,1.384198 6.4061402,6.270484 8.3222602,6.270484 h 51.97266 c 1.91612,0 8.29167,-4.886286 8.32227,-6.270484 l -2.88282,-32.27422 c -0.179,-3.398333 -0.3105,-4.110879 -1.90625,-5.013899 -1.04867,-0.570031 -4.55005,-0.639123 -6.23437,-0.637907 z" class="object_shadow" data-id="sample-s0d2__path_shadow"/>
          <path id="sample-s0d2__path_sides" d="m 16.266526,11.455671 c -1.68432,-0.0021 -5.18571,0.117211 -6.23438,1.101563 -1.5957502,1.559372 -1.7272502,2.789824 -1.9062502,8.658203 l -2.88281,55.732422 c 0.0306,2.390289 6.4061402,10.828125 8.3222602,10.828125 h 51.97266 c 1.91612,0 8.29167,-8.437836 8.32227,-10.828125 l -2.88282,-55.732422 c -0.179,-5.868379 -0.3105,-7.098831 -1.90625,-8.658203 -1.04867,-0.984352 -4.55005,-1.103663 -6.23437,-1.101563 z" style="fill:#9b9b9b;fill-opacity:1;stroke:#000000;stroke-width:1.30999994;stroke-linecap:round;stroke-linejoin:round;stroke-miterlimit:4;stroke-dasharray:none;stroke-opacity:1" data-id="sample-s0d2__path_sides"/>
          <path id="sample-s0d2__topface" style="fill:#dedede;fill-opacity:1;stroke:url(#sample-s0d2__linearGradient10);stroke-width:1.31;stroke-linecap:round;stroke-linejoin:round;stroke-miterlimit:4;stroke-dasharray:none;stroke-opacity:1" d="m 12.007916,11.667299 h 55.08564 c 1.662,0 2.94377,1.338951 3,3 l 2,59.08564 c 0.0562,1.661049 -1.338,3 -3,3 h -59.08564 c -1.6620002,0 -3.0562302,-1.338951 -3.0000002,-3 l 2,-59.08564 c 0.0562,-1.661049 1.3380002,-3 3.0000002,-3 z" data-id="sample-s0d2__topface"/>
        </g>
        <text id="sample-s0d2__text_die_value" style="font-size:50px;line-height:125%;font-family:sans-serif;fill:#000000;fill-opacity:1;stroke:none;" x="24" y="62" data-id="sample-s0d2__text_die_value"><tspan id="sample-s0d2__tspan_die_value" x="24" y="62" data-id="sample-s0d2__tspan_die_value">1</tspan></text>
      </svg>
    </g>
    <g class="toy" data-toy-type="dice_d6" data-color="#5a28b4" data-id="sample-s0d3" id="sample-s0d3" data-module="toys" transform="rotate(9,495,100)" style="filter:drop-shadow(0 4px 10px rgba(0,0,0,0.75))">
      <svg id="sample-s0d3__d6_die" height="100" width="80" viewBox="0 0 80 100" class="d6_die dice" version="1.1" data-id="sample-s0d3__d6_die" x="455" y="50">
        <defs id="sample-s0d3__defs4" data-id="sample-s0d3__defs4">
          <filter id="sample-s0d3__app-filter-colorize" class="tt_color_filter sample-s0d3__tt_color_filter" color-interpolation-filters="sRGB" data-id="sample-s0d3__app-filter-colorize">
            <feColorMatrix id="sample-s0d3__recolorize-filter-matrix" type="matrix" values="0.3529 0 0 0 0  0.1569 0 0 0 0  0.7059 0 0 0 0  0 0 0 1 0" data-id="sample-s0d3__recolorize-filter-matrix"/>
          </filter>
          <linearGradient id="sample-s0d3__linearGradient1" data-id="sample-s0d3__linearGradient1">
            <stop id="sample-s0d3__stop1" style="stop-color:#000000;stop-opacity:1;" offset="0" data-id="sample-s0d3__stop1"/>
            <stop id="sample-s0d3__stop2" style="stop-color:#000000;stop-opacity:0.4" offset="1" data-id="sample-s0d3__stop2"/>
          </linearGradient>
          <linearGradient id="sample-s0d3__linearGradient10" xlink:href="#sample-s0d3__linearGradient1" x1="0.0" y1="22.6" x2="0.0" y2="88.9" gradientUnits="userSpaceOnUse" data-id="sample-s0d3__linearGradient10"/>
        </defs>
        <g id="sample-s0d3__layer1" class="tt_colored sample-s0d3__tt_colored" filter="url(#sample-s0d3__app-filter-colorize)" data-id="sample-s0d3__layer1">
          <path id="sample-s0d3__path_shadow" style="fill:#000000;fill-opacity:0.50196078;stroke:none;stroke-width:1.30999994;stroke-linecap:round;stroke-linejoin:round;stroke-miterlimit:4;stroke-dasharray:none;stroke-opacity:1" d="m 16.266526,45.579474 c -1.68432,-0.0012 -5.18571,0.06788 -6.23438,0.637907 -1.5957502,0.90302 -1.7272502,1.615566 -1.9062502,5.013899 l -2.88281,32.27422 c 0.0306,1.384198 6.4061402,6.270484 8.3222602,6.270484 h 51.97266 c 1.91612,0 8.29167,-4.886286 8.32227,-6.270484 l -2.88282,-32.27422 c -0.179,-3.398333 -0.3105,-4.110879 -1.90625,-5.013899 -1.04867,-0.570031 -4.55005,-0.639123 -6.23437,-0.637907 z" class="object_shadow" data-id="sample-s0d3__path_shadow"/>
          <path id="sample-s0d3__path_sides" d="m 16.266526,11.455671 c -1.68432,-0.0021 -5.18571,0.117211 -6.23438,1.101563 -1.5957502,1.559372 -1.7272502,2.789824 -1.9062502,8.658203 l -2.88281,55.732422 c 0.0306,2.390289 6.4061402,10.828125 8.3222602,10.828125 h 51.97266 c 1.91612,0 8.29167,-8.437836 8.32227,-10.828125 l -2.88282,-55.732422 c -0.179,-5.868379 -0.3105,-7.098831 -1.90625,-8.658203 -1.04867,-0.984352 -4.55005,-1.103663 -6.23437,-1.101563 z" style="fill:#9b9b9b;fill-opacity:1;stroke:#000000;stroke-width:1.30999994;stroke-linecap:round;stroke-linejoin:round;stroke-miterlimit:4;stroke-dasharray:none;stroke-opacity:1" data-id="sample-s0d3__path_sides"/>
          <path id="sample-s0d3__topface" style="fill:#dedede;fill-opacity:1;stroke:url(#sample-s0d3__linearGradient10);stroke-width:1.31;stroke-linecap:round;stroke-linejoin:round;stroke-miterlimit:4;stroke-dasharray:none;stroke-opacity:1" d="m 12.007916,11.667299 h 55.08564 c 1.662,0 2.94377,1.338951 3,3 l 2,59.08564 c 0.0562,1.661049 -1.338,3 -3,3 h -59.08564 c -1.6620002,0 -3.0562302,-1.338951 -3.0000002,-3 l 2,-59.08564 c 0.0562,-1.661049 1.3380002,-3 3.0000002,-3 z" data-id="sample-s0d3__topface"/>
        </g>
        <text id="sample-s0d3__text_die_value" style="font-size:50px;line-height:125%;font-family:sans-serif;fill:#000000;fill-opacity:1;stroke:none;" x="24" y="62" data-id="sample-s0d3__text_die_value"><tspan id="sample-s0d3__tspan_die_value" x="24" y="62" data-id="sample-s0d3__tspan_die_value">5</tspan></text>
      </svg>
    </g>
  </g>
  <g id="drawing-layer"/>
</svg>
