<?xml version="1.0" encoding="UTF-8" standalone="no"?>
<svg
   xmlns:dc="http://purl.org/dc/elements/1.1/"
   xmlns:cc="http://creativecommons.org/ns#"
   xmlns:rdf="http://www.w3.org/1999/02/22-rdf-syntax-ns#"
   xmlns:svg="http://www.w3.org/2000/svg"
   xmlns="http://www.w3.org/2000/svg"
   xmlns:sodipodi="http://sodipodi.sourceforge.net/DTD/sodipodi-0.dtd"
   xmlns:inkscape="http://www.inkscape.org/namespaces/inkscape"
   style="height: 512px; width: 512px;"
   viewBox="0 0 512 512"
   version="1.1"
   id="svg6"
   sodipodi:docname="host.svg"
   inkscape:version="0.92.5 (2060ec1f9f, 2020-04-08)">
  <metadata
     id="metadata12">
    <rdf:RDF>
      <cc:Work
         rdf:about="">
        <dc:format>image/svg+xml</dc:format>
        <dc:type
           rdf:resource="http://purl.org/dc/dcmitype/StillImage" />
        <dc:title></dc:title>
      </cc:Work>
    </rdf:RDF>
  </metadata>
  <defs
     id="defs10" />
  <sodipodi:namedview
     pagecolor="#4c4c4c"
     bordercolor="#666666"
     borderopacity="1"
     objecttolerance="10"
     gridtolerance="10"
     guidetolerance="10"
     inkscape:pageopacity="0"
     inkscape:pageshadow="2"
     inkscape:window-width="1920"
     inkscape:window-height="1016"
     id="namedview8"
     showgrid="false"
     inkscape:zoom="0.921875"
     inkscape:cx="-26.449062"
     inkscape:cy="179.18599"
     inkscape:window-x="0"
     inkscape:window-y="27"
     inkscape:window-maximized="1"
     inkscape:current-layer="svg6" />
  <path
     inkscape:connector-curvature="0"
     style="fill:#ffffff;fill-opacity:1"
     d="m 144.98242,212.64453 -111.999995,224 H 480.98242 l -112,-224 h -10.71875 c -6.48165,13.3093 -20.11847,22.44141 -35.9707,22.44141 h -130.6211 c -15.85223,0 -29.48905,-9.13211 -35.9707,-22.44141 z"
     id="path2" />
  <path
     style="fill:#ffffff;fill-rule:evenodd;stroke:none;stroke-width:1px;stroke-linecap:butt;stroke-linejoin:miter;stroke-opacity:1"
     d="M 32.982425,436.64453 36.236331,502 l 440.779289,-0.54102 3.9668,-64.81445 -27.54823,-3.79661 -1.99083,50.61106 L 61.892581,484 c 0,0 -0.0542,-32.45265 -1.148125,-52.34117 z"
     id="path826"
     inkscape:connector-curvature="0"
     sodipodi:nodetypes="ccccccccc" />
  <path
     sodipodi:nodetypes="ccccc"
     inkscape:connector-curvature="0"
     id="path834"
     d="m 36.236331,450 440.779289,-0.54102 c -5.35324,-26.28451 -28.86059,-78.16778 -25.57225,-18 L 61.892581,432 c 39.396429,-58.92331 0.152377,-38.8698 -25.65625,18 z"
     style="fill:#ffffff;fill-rule:evenodd;stroke:none;stroke-width:1px;stroke-linecap:butt;stroke-linejoin:miter;stroke-opacity:1" />
  <circle
     style="opacity:1;fill:#ffffff;fill-opacity:1;stroke:none;stroke-width:10;stroke-linecap:round;stroke-miterlimit:4;stroke-dasharray:none;stroke-dashoffset:0;stroke-opacity:1"
     id="path835-3"
     cx="431.27136"
     cy="194.5768"
     r="41.220341" />
  <path
     style="opacity:1;fill:#ffffff;fill-opacity:1;stroke:none;stroke-width:10;stroke-linecap:round;stroke-miterlimit:4;stroke-dasharray:none;stroke-dashoffset:0;stroke-opacity:1"
     d="m 380.99999,248.61074 c -16.62,0 -30,13.38 -30,30 v 37.62695 c 0,16.62 13.38,30 30,30 h 97.96485 c 16.62,0 30,-13.38 30,-30 v -37.62695 c 0,-16.62 -13.38,-30 -30,-30 h -2.50195 a 70.508476,70.508476 0 0 1 -45.19141,16.47461 70.508476,70.508476 0 0 1 -45.28516,-16.47461 z"
     id="rect837-6"
     inkscape:connector-curvature="0" />
  <circle
     r="41.220341"
     cy="194.5768"
     cx="85.27137"
     id="circle860"
     style="opacity:1;fill:#ffffff;fill-opacity:1;stroke:none;stroke-width:10;stroke-linecap:round;stroke-miterlimit:4;stroke-dasharray:none;stroke-dashoffset:0;stroke-opacity:1" />
  <path
     inkscape:connector-curvature="0"
     id="path862"
     d="m 35,248.61074 c -16.62,0 -30,13.38 -30,30 v 37.62695 c 0,16.62 13.38,30 30,30 h 97.96484 c 16.62,0 30,-13.38 30,-30 v -37.62695 c 0,-16.62 -13.38,-30 -30,-30 H 130.4629 A 70.508476,70.508476 0 0 1 85.27149,265.08535 70.508476,70.508476 0 0 1 39.98633,248.61074 Z"
     style="opacity:1;fill:#ffffff;fill-opacity:1;stroke:none;stroke-width:10;stroke-linecap:round;stroke-miterlimit:4;stroke-dasharray:none;stroke-dashoffset:0;stroke-opacity:1" />
  <circle
     style="opacity:1;fill:#ffffff;fill-opacity:1;stroke:none;stroke-width:10;stroke-linecap:round;stroke-miterlimit:4;stroke-dasharray:none;stroke-dashoffset:0;stroke-opacity:1"
     id="path835"
     cx="258.27139"
     cy="67.153008"
     r="41.220341" />
  <path
     style="opacity:1;fill:#ffffff;fill-opacity:1;stroke:none;stroke-width:10;stroke-linecap:round;stroke-miterlimit:4;stroke-dasharray:none;stroke-dashoffset:0;stroke-opacity:1"
     d="m 208,121.18694 c -16.62001,0 -30,13.38 -30,30 v 37.62695 c 0,16.62 13.37999,30 30,30 h 97.96484 c 16.62,0 30,-13.38 30,-30 v -37.62695 c 0,-16.62 -13.38,-30 -30,-30 h -2.50195 a 70.508476,70.508476 0 0 1 -45.19141,16.47461 70.508476,70.508476 0 0 1 -45.28516,-16.47461 z"
     id="rect837"
     inkscape:connector-curvature="0" />
</svg>
