<?xml version="1.0" encoding="UTF-8" standalone="no"?>
<!-- Generator: Adobe Illustrator 23.1.1, SVG Export Plug-In . SVG Version: 6.00 Build 0)  -->

<svg
   xmlns:dc="http://purl.org/dc/elements/1.1/"
   xmlns:cc="http://creativecommons.org/ns#"
   xmlns:rdf="http://www.w3.org/1999/02/22-rdf-syntax-ns#"
   xmlns:svg="http://www.w3.org/2000/svg"
   xmlns="http://www.w3.org/2000/svg"
   xmlns:sodipodi="http://sodipodi.sourceforge.net/DTD/sodipodi-0.dtd"
   xmlns:inkscape="http://www.inkscape.org/namespaces/inkscape"
   version="1.1"
   id="Layer_1"
   x="0px"
   y="0px"
   viewBox="0 0 1000 1000"
   style="enable-background:new 0 0 1000 1000;"
   xml:space="preserve"
   sodipodi:docname="day10-canvas-stand.svg"
   inkscape:version="0.92.3 (2405546, 2018-03-11)"><metadata
   id="metadata210"><rdf:RDF><cc:Work
       rdf:about=""><dc:format>image/svg+xml</dc:format><dc:type
         rdf:resource="http://purl.org/dc/dcmitype/StillImage" /></cc:Work></rdf:RDF></metadata><defs
   id="defs208" /><sodipodi:namedview
   pagecolor="#ffffff"
   bordercolor="#666666"
   borderopacity="1"
   objecttolerance="10"
   gridtolerance="10"
   guidetolerance="10"
   inkscape:pageopacity="0"
   inkscape:pageshadow="2"
   inkscape:window-width="1163"
   inkscape:window-height="751"
   id="namedview206"
   showgrid="false"
   inkscape:zoom="0.472"
   inkscape:cx="433.9819"
   inkscape:cy="485.03007"
   inkscape:window-x="0"
   inkscape:window-y="27"
   inkscape:window-maximized="0"
   inkscape:current-layer="Layer_1" />
<style
   type="text/css"
   id="style2">
	.st0{fill:#684463;}
	.st1{fill:#EEF2F4;}
	.st2{opacity:0.5;fill:#825D7E;}
	.st3{opacity:0.69;fill:#3D233C;}
	.st4{fill:#96628A;}
	.st5{fill:#84517A;}
	.st6{fill:#CC83B4;}
	.st7{fill:#BC71A7;}
	.st8{fill:#AB8FB8;}
	.st9{fill:#DFCCE2;}
	.st10{opacity:0.82;fill:#A380AF;}
	.st11{fill:#AC91BA;}
	.st12{fill:#B39FC1;}
	.st13{fill:#F7CD84;}
	.st14{fill:#F8B461;}
	.st15{fill:#6F5A66;}
	.st16{fill:#6B4C5F;}
	.st17{fill:#ED4A5E;}
	.st18{fill:#DE6173;}
	.st19{fill:#F37F82;}
	.st20{fill:#DD6B80;}
	.st21{opacity:0.34;fill:#F37F82;}
	.st22{fill:#D1B9D6;}
	.st23{opacity:0.87;fill:#A380AF;}
	.st24{fill:#C5E1DF;}
	.st25{fill:#A5CECA;}
	.st26{fill:#FFFDFF;}
	.st27{fill:#E26971;}
	.st28{fill:#CE5F78;}
	.st29{fill:#633047;}
	.st30{fill:#F4CEE1;}
	.st31{opacity:0.4;fill:#E26971;}
	.st32{opacity:0.2;fill:#E26971;}
	.st33{opacity:0.39;fill:#E26971;}
	.st34{fill:#EA3268;}
	.st35{opacity:0.69;fill:#AA235B;}
	.st36{fill:#E29C50;}
	.st37{fill:#736177;}
	.st38{fill:#D33167;}
	.st39{fill:#F4E1E4;}
	.st40{opacity:0.2;fill:#442228;}
	.st41{fill:#E0445E;}
</style>
<rect
   id="XMLID_9_"
   class="st0"
   width="1000"
   height="1000" />
<g
   id="g101">
	<g
   id="g37">
		<g
   id="g7">
			<path
   class="st1"
   d="M63.2,959.2c0,2.5-1.2,3.7-2.6,3.7c-1.1,0-1.9-0.5-2.1-1.4c-0.4,0.5-1,0.8-1.8,0.8c-1.5,0-2.6-1.2-2.6-2.8     c0-1.6,1.1-2.8,2.6-2.8c0.7,0,1.2,0.3,1.6,0.7v-0.5h1.6v3.9c0,0.8,0.3,1.4,1,1.4c0.9,0,1.7-0.9,1.7-3c0-3-2.3-5.3-5.4-5.3     c-3.1,0-5.6,2.4-5.6,5.7c0,3.3,2.5,5.7,5.9,5.7c1.1,0,2.1-0.2,2.9-0.4v0.6c-0.8,0.3-1.7,0.4-2.9,0.4c-3.7,0-6.5-2.6-6.5-6.2     c0-3.4,2.7-6.2,6.2-6.2C61.1,953.3,63.2,956.4,63.2,959.2z M58.3,959.5c0-0.8-0.6-1.4-1.3-1.4c-0.8,0-1.3,0.5-1.3,1.4     c0,0.8,0.6,1.3,1.3,1.3C57.8,960.9,58.3,960.3,58.3,959.5z"
   id="path5" />
		</g>
		<g
   id="g11">
			<path
   class="st1"
   d="M69.4,955.1v2c-1.2-0.1-2.6,0.5-2.6,2.4v4.3h-1.9v-8.6h1.9v1.4C67.3,955.5,68.3,955.1,69.4,955.1z"
   id="path9" />
		</g>
		<g
   id="g15">
			<path
   class="st1"
   d="M74.6,962.3c1,0,1.8-0.5,2.2-1.1l1.5,0.9c-0.8,1.2-2.1,1.9-3.8,1.9c-2.8,0-4.7-1.9-4.7-4.5     c0-2.5,1.8-4.5,4.5-4.5c2.6,0,4.3,2.1,4.3,4.5c0,0.3,0,0.5-0.1,0.8h-6.8C72.1,961.6,73.2,962.3,74.6,962.3z M76.9,958.8     c-0.3-1.5-1.3-2.1-2.5-2.1c-1.4,0-2.3,0.8-2.6,2.1H76.9z"
   id="path13" />
		</g>
		<g
   id="g19">
			<path
   class="st1"
   d="M88.9,955.2v8.6h-1.9v-1.2c-0.7,0.9-1.7,1.5-3,1.5c-2.3,0-4.3-2-4.3-4.5c0-2.6,1.9-4.5,4.3-4.5     c1.3,0,2.3,0.5,3,1.4v-1.2H88.9z M87.1,959.5c0-1.6-1.2-2.7-2.7-2.7c-1.5,0-2.7,1.1-2.7,2.7c0,1.6,1.2,2.7,2.7,2.7     C85.9,962.3,87.1,961.1,87.1,959.5z"
   id="path17" />
		</g>
		<g
   id="g23">
			<path
   class="st1"
   d="M91.1,951.3H93v12.5h-1.9V951.3z"
   id="path21" />
		</g>
		<g
   id="g27">
			<path
   class="st1"
   d="M102.9,955.2l-3.3,8.6h-2.1l-3.3-8.6h2l2.4,6.5l2.4-6.5H102.9z"
   id="path25" />
		</g>
		<g
   id="g31">
			<path
   class="st1"
   d="M104.2,955.2h1.9v8.9c0,2.4-1.2,3.5-3.5,3.3v-1.8c1.1,0.1,1.7-0.3,1.7-1.5V955.2z M104,952.8     c0-0.7,0.5-1.2,1.2-1.2c0.7,0,1.2,0.5,1.2,1.2c0,0.6-0.5,1.2-1.2,1.2C104.5,954,104,953.4,104,952.8z"
   id="path29" />
		</g>
		<g
   id="g35">
			<path
   class="st1"
   d="M116,955.2l-3.3,8.8c-0.8,2.2-2.2,3.3-4.2,3.2v-1.7c1.2,0.1,1.9-0.5,2.3-1.7l0.1-0.2l-3.6-8.4h2l2.6,6.2     l2.2-6.2H116z"
   id="path33" />
		</g>
	</g>
	<g
   id="g49">
		<path
   class="st1"
   d="M211.9,938.7c0,2.1-1.5,3.8-3.6,3.8h-3v-7.6h3C210.4,934.9,211.9,936.6,211.9,938.7z M210.9,938.7    c0-1.6-1.1-2.9-2.6-2.9h-2v5.7h2C209.8,941.6,210.9,940.3,210.9,938.7z"
   id="path39" />
		<path
   class="st1"
   d="M219.5,940.8h-3.4l-0.6,1.7h-1.1l2.8-7.6h1.1l2.8,7.6h-1.1L219.5,940.8z M219.2,939.9l-1.4-3.8l-1.4,3.8    H219.2z"
   id="path41" />
		<path
   class="st1"
   d="M226.4,939.4v3.1h-1v-3.1l-2.7-4.5h1.1l2.1,3.6l2.1-3.6h1.1L226.4,939.4z"
   id="path43" />
		<path
   class="st1"
   d="M239.5,934.9v7.6h-1V936l-1.6,0.5l-0.3-0.9l2-0.7H239.5z"
   id="path45" />
		<path
   class="st1"
   d="M243.2,938.7c0-2.4,1.1-4,2.9-4c1.9,0,2.9,1.6,2.9,4c0,2.4-1,4-2.9,4C244.2,942.7,243.2,941,243.2,938.7z     M248,938.7c0-1.9-0.7-3-1.9-3c-1.2,0-1.9,1.1-1.9,3s0.7,3,1.9,3C247.3,941.7,248,940.6,248,938.7z"
   id="path47" />
	</g>
	<g
   id="g71">
		<path
   class="st1"
   d="M58.9,938.7c0,2.1-1.5,3.8-3.6,3.8h-3v-7.6h3C57.4,934.9,58.9,936.6,58.9,938.7z M57.9,938.7    c0-1.6-1.1-2.9-2.6-2.9h-2v5.7h2C56.8,941.6,57.9,940.3,57.9,938.7z"
   id="path51" />
		<path
   class="st1"
   d="M67,941.6v1h-4.6v-7.6h4.5v1h-3.5v2.3h3.2v0.9h-3.2v2.4H67z"
   id="path53" />
		<path
   class="st1"
   d="M70,940.8l0.9-0.5c0.3,0.8,0.9,1.4,2,1.4c1.1,0,1.6-0.5,1.6-1.2c0-0.8-0.7-1-1.8-1.4    c-1.2-0.4-2.4-0.8-2.4-2.2c0-1.4,1.1-2.2,2.4-2.2c1.3,0,2.2,0.7,2.6,1.7l-0.8,0.5c-0.3-0.7-0.8-1.2-1.7-1.2    c-0.8,0-1.4,0.4-1.4,1.1c0,0.7,0.5,1,1.6,1.3c1.3,0.4,2.6,0.8,2.6,2.3c0,1.3-1.1,2.2-2.6,2.2C71.5,942.7,70.4,941.9,70,940.8z"
   id="path55" />
		<path
   class="st1"
   d="M80,934.9v7.6h-1v-7.6H80z"
   id="path57" />
		<path
   class="st1"
   d="M91.3,939.2c0,1.9-1.4,3.5-3.7,3.5c-2.4,0-4-1.8-4-4c0-2.2,1.7-4,4-4c1.4,0,2.7,0.8,3.3,1.8l-0.9,0.5    c-0.4-0.8-1.4-1.4-2.4-1.4c-1.8,0-3,1.3-3,3c0,1.7,1.2,3,3,3c1.6,0,2.5-0.9,2.7-2h-2.8v-0.9h3.8V939.2z"
   id="path59" />
		<path
   class="st1"
   d="M100.6,934.9v7.6h-0.8l-3.9-5.7v5.7h-1v-7.6h0.8l3.9,5.7v-5.7H100.6z"
   id="path61" />
		<path
   class="st1"
   d="M109.1,941.6v1h-4.6v-7.6h4.5v1h-3.5v2.3h3.2v0.9h-3.2v2.4H109.1z"
   id="path63" />
		<path
   class="st1"
   d="M119.2,938.7c0,2.1-1.5,3.8-3.6,3.8h-3v-7.6h3C117.6,934.9,119.2,936.6,119.2,938.7z M118.2,938.7    c0-1.6-1.1-2.9-2.6-2.9h-2v5.7h2C117.1,941.6,118.2,940.3,118.2,938.7z"
   id="path65" />
		<path
   class="st1"
   d="M133.2,940.4c0,1.2-1,2.2-2.2,2.2h-3.3v-7.6h3c1.2,0,2.1,0.9,2.1,2.1c0,0.7-0.3,1.2-0.8,1.6    C132.7,938.9,133.2,939.5,133.2,940.4z M128.7,935.8v2.3h2c0.6,0,1.1-0.5,1.1-1.2c0-0.6-0.5-1.2-1.1-1.2H128.7z M132.2,940.3    c0-0.7-0.5-1.2-1.2-1.2h-2.3v2.5h2.3C131.7,941.6,132.2,941,132.2,940.3z"
   id="path67" />
		<path
   class="st1"
   d="M139.4,939.4v3.1h-1v-3.1l-2.7-4.5h1.1l2.1,3.6l2.1-3.6h1.1L139.4,939.4z"
   id="path69" />
	</g>
	<g
   id="g95">
		<path
   class="st1"
   d="M204.8,958.1c0-3.6,2.7-6.4,6.5-6.4c2.3,0,4.3,1.2,5.3,3l-1.8,1c-0.7-1.2-2-2-3.6-2c-2.7,0-4.4,1.9-4.4,4.4    s1.8,4.4,4.4,4.4c1.6,0,2.9-0.8,3.6-2l1.8,1c-1,1.8-3,3-5.3,3C207.5,964.5,204.8,961.7,204.8,958.1z"
   id="path73" />
		<path
   class="st1"
   d="M227.1,955.4v8.9h-1.9V963c-0.7,0.9-1.7,1.5-3.1,1.5c-2.4,0-4.4-2-4.4-4.7c0-2.6,2-4.7,4.4-4.7    c1.4,0,2.4,0.6,3.1,1.5v-1.3H227.1z M225.2,959.9c0-1.6-1.2-2.8-2.8-2.8c-1.6,0-2.8,1.2-2.8,2.8c0,1.6,1.2,2.8,2.8,2.8    C224,962.7,225.2,961.5,225.2,959.9z"
   id="path75" />
		<path
   class="st1"
   d="M237.4,958.9v5.4h-1.9v-5.2c0-1.3-0.8-2.1-2-2.1c-1.3,0-2.2,0.7-2.2,2.5v4.7h-1.9v-8.9h1.9v1.1    c0.6-0.9,1.5-1.4,2.7-1.4C236,955.2,237.4,956.6,237.4,958.9z"
   id="path77" />
		<path
   class="st1"
   d="M247.4,955.4l-3.5,8.9h-2.2l-3.5-8.9h2.1l2.5,6.7l2.5-6.7H247.4z"
   id="path79" />
		<path
   class="st1"
   d="M257.2,955.4v8.9h-1.9V963c-0.7,0.9-1.7,1.5-3.1,1.5c-2.4,0-4.4-2-4.4-4.7c0-2.6,2-4.7,4.4-4.7    c1.4,0,2.4,0.6,3.1,1.5v-1.3H257.2z M255.3,959.9c0-1.6-1.2-2.8-2.8-2.8c-1.6,0-2.8,1.2-2.8,2.8c0,1.6,1.2,2.8,2.8,2.8    C254.1,962.7,255.3,961.5,255.3,959.9z"
   id="path81" />
		<path
   class="st1"
   d="M265.8,961.8c0,1.8-1.5,2.7-3.5,2.7c-1.8,0-3-0.8-3.6-2.1l1.6-1c0.3,0.8,1,1.3,2,1.3c0.8,0,1.5-0.3,1.5-1    c0-1.6-4.8-0.7-4.8-3.9c0-1.7,1.4-2.7,3.2-2.7c1.5,0,2.7,0.7,3.3,1.8L264,958c-0.3-0.7-0.9-1-1.7-1c-0.7,0-1.3,0.3-1.3,0.9    C261.1,959.5,265.8,958.5,265.8,961.8z"
   id="path83" />
		<path
   class="st1"
   d="M271.4,961.5l1.8-1c0.4,1.3,1.4,2.1,3.1,2.1c1.6,0,2.3-0.7,2.3-1.6c0-1.1-1-1.5-2.8-2    c-1.9-0.6-3.8-1.3-3.8-3.6c0-2.3,1.9-3.6,4-3.6c2,0,3.5,1.1,4.3,2.7l-1.7,1c-0.4-1-1.2-1.7-2.6-1.7c-1.2,0-1.9,0.6-1.9,1.5    c0,1,0.7,1.4,2.5,1.9c2.1,0.7,4.1,1.3,4.1,3.8c0,2.3-1.8,3.6-4.4,3.6C273.7,964.5,272.1,963.3,271.4,961.5z"
   id="path85" />
		<path
   class="st1"
   d="M284.7,957.3v4.2c0,1.1,0.7,1.1,2.2,1v1.7c-2.9,0.4-4.1-0.5-4.1-2.8v-4.2h-1.6v-1.8h1.6v-1.9l1.9-0.6v2.5h2.2    v1.8H284.7z"
   id="path87" />
		<path
   class="st1"
   d="M297.2,955.4v8.9h-1.9V963c-0.7,0.9-1.7,1.5-3.1,1.5c-2.4,0-4.4-2-4.4-4.7c0-2.6,2-4.7,4.4-4.7    c1.4,0,2.4,0.6,3.1,1.5v-1.3H297.2z M295.3,959.9c0-1.6-1.2-2.8-2.8-2.8c-1.6,0-2.8,1.2-2.8,2.8c0,1.6,1.2,2.8,2.8,2.8    C294.1,962.7,295.3,961.5,295.3,959.9z"
   id="path89" />
		<path
   class="st1"
   d="M307.5,958.9v5.4h-1.9v-5.2c0-1.3-0.8-2.1-2-2.1c-1.3,0-2.2,0.7-2.2,2.5v4.7h-1.9v-8.9h1.9v1.1    c0.6-0.9,1.5-1.4,2.7-1.4C306.1,955.2,307.5,956.6,307.5,958.9z"
   id="path91" />
		<path
   class="st1"
   d="M318.5,951.9v12.4h-1.9V963c-0.7,0.9-1.7,1.5-3.1,1.5c-2.4,0-4.4-2-4.4-4.7c0-2.6,2-4.7,4.4-4.7    c1.4,0,2.4,0.6,3.1,1.5v-4.8H318.5z M316.5,959.9c0-1.6-1.2-2.8-2.8-2.8c-1.6,0-2.8,1.2-2.8,2.8c0,1.6,1.2,2.8,2.8,2.8    C315.3,962.7,316.5,961.5,316.5,959.9z"
   id="path93" />
	</g>
	<g
   id="g99">
		<path
   class="st1"
   d="M841.3,942.5h-1v-7.6h1.1l2.4,4l2.4-4h1.1v7.6h-1v-6l-2.5,4.2h-0.1l-2.5-4.1V942.5z M858.8,938.7    c0,2.2-1.7,4-4,4c-2.2,0-3.9-1.8-3.9-4c0-2.2,1.7-4,3.9-4C857.1,934.7,858.8,936.5,858.8,938.7z M857.8,938.7c0-1.7-1.3-3-2.9-3    c-1.7,0-2.9,1.3-2.9,3c0,1.7,1.3,3,2.9,3C856.6,941.7,857.8,940.4,857.8,938.7z M866.2,939.5l1.8,3.1h-1.1l-1.7-2.9h-1.8v2.9h-1    v-7.6h3c1.3,0,2.4,1.1,2.4,2.4C867.8,938.2,867.1,939.1,866.2,939.5z M865.4,938.7c0.8,0,1.4-0.6,1.4-1.4c0-0.8-0.6-1.4-1.4-1.4    h-2v2.8H865.4z M875.9,941.6h-3.5v-2.4h3.2v-0.9h-3.2v-2.3h3.5v-1h-4.5v7.6h4.6V941.6z M844.2,962.2l-2.5-6.7h-2.1l3.5,8.9h2.2    l3.5-8.9h-2.1L844.2,962.2z M850,964.3h1.9v-8.9H850V964.3z M851,951.7c-0.7,0-1.2,0.5-1.2,1.2c0,0.7,0.5,1.2,1.2,1.2    c0.7,0,1.2-0.6,1.2-1.2C852.2,952.2,851.6,951.7,851,951.7z M855.2,951.7c-0.7,0-1.2,0.5-1.2,1.2c0,0.7,0.5,1.2,1.2,1.2    c0.7,0,1.2-0.6,1.2-1.2C856.5,952.2,855.9,951.7,855.2,951.7z M854.3,964.7c0,1.2-0.5,1.7-1.7,1.6v1.8c2.4,0.2,3.6-1,3.6-3.4v-9.2    h-1.9V964.7z M865.4,955.4h1.9v8.9h-1.9V963c-0.7,0.9-1.7,1.5-3.1,1.5c-2.4,0-4.4-2-4.4-4.7c0-2.6,2-4.7,4.4-4.7    c1.4,0,2.4,0.6,3.1,1.5V955.4z M865.4,959.9c0-1.6-1.2-2.8-2.8-2.8c-1.6,0-2.8,1.2-2.8,2.8c0,1.6,1.2,2.8,2.8,2.8    C864.2,962.7,865.4,961.5,865.4,959.9z M873.3,961.9l-2.6-6.4h-2.1l3.8,8.7l-0.1,0.2c-0.4,1.2-1.1,1.8-2.4,1.7v1.8    c2,0.1,3.5-1,4.3-3.3l3.4-9.1h-2L873.3,961.9z M882.3,962.2l-2.5-6.7h-2.1l3.5,8.9h2.2l3.5-8.9h-2.1L882.3,962.2z M896.4,959.9    c0,0.3,0,0.5-0.1,0.8h-7c0.3,1.4,1.4,2.1,2.8,2.1c1.1,0,1.9-0.5,2.3-1.1l1.6,0.9c-0.8,1.2-2.1,1.9-3.9,1.9c-2.9,0-4.8-2-4.8-4.7    c0-2.6,1.9-4.7,4.7-4.7C894.5,955.2,896.4,957.3,896.4,959.9z M894.4,959.1c-0.3-1.5-1.4-2.2-2.5-2.2c-1.4,0-2.4,0.8-2.7,2.2    H894.4z M899.9,956.9v-1.5H898v8.9h1.9v-4.5c0-2,1.5-2.6,2.7-2.5v-2.1C901.6,955.3,900.5,955.7,899.9,956.9z M913.8,955.2    c-1.2,0-2.1,0.5-2.7,1.4c-0.5-0.9-1.4-1.4-2.5-1.4c-1.1,0-2,0.4-2.5,1.3v-1.1h-1.9v8.9h1.9v-5c0-1.6,0.9-2.3,2-2.3    c1,0,1.7,0.7,1.7,1.9v5.4h1.9v-5c0-1.6,0.8-2.3,1.9-2.3c1,0,1.7,0.7,1.7,1.9v5.4h1.9v-5.5C917.1,956.6,915.8,955.2,913.8,955.2z     M926.2,955.4h1.9v8.9h-1.9V963c-0.7,0.9-1.7,1.5-3.1,1.5c-2.4,0-4.4-2-4.4-4.7c0-2.6,2-4.7,4.4-4.7c1.4,0,2.4,0.6,3.1,1.5V955.4z     M926.2,959.9c0-1.6-1.2-2.8-2.8-2.8c-1.6,0-2.8,1.2-2.8,2.8c0,1.6,1.2,2.8,2.8,2.8C925,962.7,926.2,961.5,926.2,959.9z     M931.5,961.9c-0.7,0-1.3,0.6-1.3,1.3c0,0.7,0.6,1.3,1.3,1.3c0.7,0,1.3-0.6,1.3-1.3C932.8,962.4,932.2,961.9,931.5,961.9z     M938.3,962.6c-1.6,0-2.7-1.2-2.7-2.8c0-1.6,1.2-2.8,2.7-2.8c1.1,0,1.9,0.5,2.3,1.4l1.6-1c-0.7-1.4-2.2-2.3-3.9-2.3    c-2.7,0-4.7,2-4.7,4.7c0,2.6,2,4.7,4.7,4.7c1.7,0,3.2-0.9,4-2.3l-1.6-0.9C940.2,962.1,939.3,962.6,938.3,962.6z M952.4,959.9    c0,2.6-2.1,4.7-4.7,4.7c-2.6,0-4.7-2-4.7-4.7c0-2.6,2.1-4.7,4.7-4.7C950.3,955.2,952.4,957.2,952.4,959.9z M950.5,959.9    c0-1.6-1.2-2.8-2.8-2.8s-2.8,1.2-2.8,2.8c0,1.6,1.2,2.8,2.8,2.8S950.5,961.5,950.5,959.9z"
   id="path97" />
	</g>
</g>
<path
   id="XMLID_3_"
   class="st2"
   d="M 803.18544,282.75986 H 599.77978 v -57.82993 h 66.72684 c 16.01444,0 28.91496,-12.90052 28.91496,-28.91496 v 0 C 695.42158,180.00052 682.52106,167.1 666.50662,167.1 H 329.31364 c -16.01444,0 -28.91497,12.90052 -28.91497,28.91497 v 0 c 0,16.01444 12.90053,28.91496 28.91497,28.91496 h 66.72684 v 57.82993 H 192.63482 c -16.01444,0 -28.91496,12.90052 -28.91496,28.91497 v 0 c 0,16.01444 12.90052,28.91496 28.91496,28.91496 h 76.29103 v 57.82993 h 4.11482 c -16.01444,0 -28.91497,12.90052 -28.91497,28.91497 v 0 c 0,16.01444 12.90053,28.91496 28.91497,28.91496 h 109.65444 v 57.82993 h -84.52066 c -16.01445,0 -28.91497,12.90053 -28.91497,28.91497 v 0 c 0,16.01444 12.90052,28.91496 28.91497,28.91496 h 84.52066 v 57.82993 H 264.03255 c -16.01445,0 -28.91497,12.90053 -28.91497,28.91497 v 0 c 0,16.01444 12.90052,28.91496 28.91497,28.91496 h 432.0563 c 16.01444,0 28.91497,-12.90052 28.91497,-28.91496 v 0 c 0,-16.01444 -12.90053,-28.91497 -28.91497,-28.91497 h -82.85249 v -57.82993 h 26.24589 c 16.01444,0 28.91496,-12.90052 28.91496,-28.91496 v 0 c 0,-16.01444 -12.90052,-28.91497 -28.91496,-28.91497 H 613.23636 V 456.24965 H 722.8908 c 16.01444,0 28.91497,-12.90052 28.91497,-28.91496 v 0 c 0,-16.01445 -12.90053,-28.91497 -28.91497,-28.91497 h 4.11482 v -57.82993 h 76.29103 c 16.01444,0 28.91496,-12.90052 28.91496,-28.91496 v 0 C 832.1004,295.7716 819.08867,282.75986 803.18544,282.75986 Z"
   inkscape:connector-curvature="0"
   style="opacity:0.5;fill:#825d7e;stroke-width:1.11211407" />
<path
   id="XMLID_105_"
   class="st3"
   d="M 814.08415,778.75912 H 155.04537 c -7.33995,0 -13.34537,-6.00542 -13.34537,-13.34537 v 0 c 0,-7.33996 6.00542,-13.34537 13.34537,-13.34537 h 659.14999 c 7.33996,0 13.34537,6.00541 13.34537,13.34537 v 0 c -0.11121,7.33995 -6.00541,13.34537 -13.45658,13.34537 z"
   inkscape:connector-curvature="0"
   style="opacity:0.68999999;fill:#3d233c;stroke-width:1.11211407"
   sodipodi:nodetypes="ssccssccs" />
<path
   id="XMLID_226_"
   class="st2"
   d="m 241.90148,459.14115 h -30.24951 c -16.01444,0 -28.91496,-12.90052 -28.91496,-28.91497 v 0 c 0,-16.01444 12.90052,-28.91496 28.91496,-28.91496 h 30.24951 c 16.01444,0 28.91496,12.90052 28.91496,28.91496 v 0 c 0,15.90323 -12.90052,28.91497 -28.91496,28.91497 z"
   inkscape:connector-curvature="0"
   style="opacity:0.5;fill:#825d7e;stroke-width:1.11211407" />
<path
   id="XMLID_157_"
   class="st0"
   d="M 602.33764,398.41972 H 478.00329 c -16.01444,0 -28.91497,-12.90052 -28.91497,-28.91496 v 0 c 0,-16.01445 12.90053,-28.91497 28.91497,-28.91497 h 124.22314 c 16.01444,0 28.91496,12.90052 28.91496,28.91497 v 0 c 0.11121,16.01444 -12.90052,28.91496 -28.80375,28.91496 z"
   inkscape:connector-curvature="0"
   style="fill:#684463;stroke-width:1.11211407" />
<path
   id="XMLID_216_"
   class="st0"
   d="M 869.35622,398.41972 H 745.13308 c -16.01444,0 -28.91496,-12.90052 -28.91496,-28.91496 v 0 c 0,-16.01445 12.90052,-28.91497 28.91496,-28.91497 h 124.22314 c 16.01444,0 28.91497,12.90052 28.91497,28.91497 v 0 c 0,16.01444 -12.90053,28.91496 -28.91497,28.91496 z"
   inkscape:connector-curvature="0"
   style="fill:#684463;stroke-width:1.11211407" />
<path
   id="XMLID_223_"
   class="st0"
   d="M 756.14301,514.07958 H 631.91987 c -16.01444,0 -28.91496,-12.90052 -28.91496,-28.91496 v 0 c 0,-16.01444 12.90052,-28.91497 28.91496,-28.91497 h 124.22314 c 16.01444,0 28.91497,12.90053 28.91497,28.91497 v 0 c 0,16.01444 -12.90053,28.91496 -28.91497,28.91496 z"
   inkscape:connector-curvature="0"
   style="fill:#684463;stroke-width:1.11211407" />
<path
   id="XMLID_220_"
   class="st0"
   d="M 373.68699,398.41972 H 249.35264 c -16.01444,0 -28.91497,-12.90052 -28.91497,-28.91496 v 0 c 0,-16.01445 12.90053,-28.91497 28.91497,-28.91497 h 124.22314 c 16.01444,0 28.91496,12.90052 28.91496,28.91497 v 0 c 0.11122,16.01444 -12.90052,28.91496 -28.80375,28.91496 z"
   inkscape:connector-curvature="0"
   style="fill:#684463;stroke-width:1.11211407" />
<path
   id="XMLID_221_"
   class="st0"
   d="M 453.7592,282.75986 H 329.53606 c -16.01444,0 -28.91496,-12.90052 -28.91496,-28.91496 v 0 c 0,-16.01445 12.90052,-28.91497 28.91496,-28.91497 H 453.7592 c 16.01444,0 28.91497,12.90052 28.91497,28.91497 v 0 c 0,16.01444 -12.90053,28.91496 -28.91497,28.91496 z"
   inkscape:connector-curvature="0"
   style="fill:#684463;stroke-width:1.11211407" />
<path
   id="XMLID_222_"
   class="st0"
   d="M 726.67199,282.75986 H 602.44885 c -16.01444,0 -28.91497,-12.90052 -28.91497,-28.91496 v 0 c 0,-16.01445 12.90053,-28.91497 28.91497,-28.91497 h 124.22314 c 16.01444,0 28.91496,12.90052 28.91496,28.91497 v 0 c 0,16.01444 -12.90052,28.91496 -28.91496,28.91496 z"
   inkscape:connector-curvature="0"
   style="fill:#684463;stroke-width:1.11211407" />
<path
   id="XMLID_224_"
   class="st0"
   d="M 756.14301,629.73944 H 631.91987 c -16.01444,0 -28.91496,-12.90052 -28.91496,-28.91496 v 0 c 0,-16.01444 12.90052,-28.91497 28.91496,-28.91497 h 124.22314 c 16.01444,0 28.91497,12.90053 28.91497,28.91497 v 0 c 0,16.01444 -12.90053,28.91496 -28.91497,28.91496 z"
   inkscape:connector-curvature="0"
   style="fill:#684463;stroke-width:1.11211407" />
<path
   id="XMLID_225_"
   class="st0"
   d="M 440.63626,629.73944 H 316.30191 c -16.01445,0 -28.91497,-12.90052 -28.91497,-28.91496 v 0 c 0,-16.01444 12.90052,-28.91497 28.91497,-28.91497 h 124.22313 c 16.01445,0 28.91497,12.90053 28.91497,28.91497 v 0 c 0.11121,16.01444 -12.90052,28.91496 -28.80375,28.91496 z"
   inkscape:connector-curvature="0"
   style="fill:#684463;stroke-width:1.11211407" />




<rect
   id="XMLID_163_"
   x="286.38602"
   y="687.56934"
   class="st0"
   width="507.68005"
   height="57.829929"
   style="fill:#684463;stroke-width:1.11211407" />
<rect
   id="XMLID_112_"
   x="456.6507"
   y="233.15958"
   class="st8"
   width="42.371544"
   height="71.731354"
   style="fill:#ab8fb8;stroke-width:1.11211407" />
<rect
   id="XMLID_93_"
   x="449.64438"
   y="233.15958"
   class="st9"
   width="42.371544"
   height="71.731354"
   style="fill:#dfcce2;stroke-width:1.11211407" />
<rect
   id="XMLID_107_"
   x="449.64438"
   y="296.55008"
   class="st10"
   width="42.371544"
   height="7.2287412"
   style="opacity:0.8199999;fill:#a380af;stroke-width:1.11211407" />
<rect
   id="XMLID_179_"
   x="492.01593"
   y="296.55008"
   class="st10"
   width="7.0063186"
   height="7.2287412"
   style="opacity:0.8199999;fill:#a380af;stroke-width:1.11211407" />
<rect
   id="XMLID_40_"
   x="434.186"
   y="303.77881"
   class="st8"
   width="95.975449"
   height="45.374252"
   style="fill:#ab8fb8;stroke-width:1.11211407" />
<polygon
   id="XMLID_101_"
   class="st11"
   points="433,509.6 396.9,496.4 331.3,676.4 372.3,676.4 "
   transform="matrix(1.112114,0,0,1.112114,-15.886561,-18.734257)"
   style="fill:#ac91ba" />
<polygon
   id="XMLID_104_"
   class="st9"
   points="417.3,509.6 381.1,496.4 315.6,676.4 356.6,676.4 "
   transform="matrix(1.112114,0,0,1.112114,-15.886561,-18.734257)"
   style="fill:#dfcce2" />
<polygon
   id="XMLID_150_"
   class="st10"
   points="381.1,496.4 354.6,569.3 411.2,569.3 433,509.6 396.9,496.4 395,501.5 "
   transform="matrix(1.112114,0,0,1.112114,-15.886561,-18.734257)"
   style="opacity:0.81999996;fill:#a380af" />
<rect
   id="XMLID_21_"
   x="301.17715"
   y="733.49969"
   class="st9"
   width="62.612019"
   height="28.914965"
   style="fill:#dfcce2;stroke-width:1.11211407" />
<rect
   id="XMLID_23_"
   x="355.89316"
   y="733.49969"
   class="st12"
   width="62.612019"
   height="28.914965"
   style="fill:#b39fc1;stroke-width:1.11211407" />








<polygon
   id="XMLID_162_"
   class="st22"
   points="385,617.5 490.6,617.5 490.6,583.3 397.5,583.3 "
   transform="matrix(1.112114,0,0,1.112114,-15.886561,-18.734257)"
   style="fill:#d1b9d6" />
<polygon
   id="XMLID_165_"
   class="st23"
   points="385,617.5 391.8,617.5 404.3,583.3 397.5,583.3 "
   transform="matrix(1.112114,0,0,1.112114,-15.886561,-18.734257)"
   style="opacity:0.87000002;fill:#a380af" />







<polygon
   id="XMLID_98_"
   class="st11"
   points="487.9,496.4 451.8,509.6 512.5,676.4 553.5,676.4 "
   transform="matrix(1.112114,0,0,1.112114,-15.886561,-18.734257)"
   style="fill:#ac91ba" />
<polygon
   id="XMLID_95_"
   class="st9"
   points="476.4,496.4 440.3,509.6 501,676.4 541.9,676.4 "
   transform="matrix(1.112114,0,0,1.112114,-15.886561,-18.734257)"
   style="fill:#dfcce2" />
<polygon
   id="XMLID_152_"
   class="st10"
   points="477.7,500.1 476.4,496.4 440.3,509.6 462,569.3 514.5,569.3 487.9,496.4 "
   transform="matrix(1.112114,0,0,1.112114,-15.886561,-18.734257)"
   style="opacity:0.81999996;fill:#a380af" />
<path
   id="XMLID_49_"
   class="st8"
   d="m 322.19611,600.71327 h -21.35259 v -18.4611 c 0,-6.67268 5.44936,-12.12204 12.12204,-12.12204 h 9.34176 v 30.58314 z"
   inkscape:connector-curvature="0"
   style="fill:#ab8fb8;stroke-width:1.11211407" />
<path
   id="XMLID_48_"
   class="st9"
   d="M 631.91987,600.71327 H 300.84352 v -18.4611 c 0,-6.67268 5.44936,-12.12204 12.12204,-12.12204 h 319.06552 v 30.58314 z"
   inkscape:connector-curvature="0"
   style="fill:#dfcce2;stroke-width:1.11211407" />
<path
   id="XMLID_47_"
   class="st8"
   d="m 631.91987,600.71327 h -21.35259 v -18.4611 c 0,-6.67268 5.44936,-12.12204 12.12205,-12.12204 h 9.34175 v 30.58314 z"
   inkscape:connector-curvature="0"
   style="fill:#ab8fb8;stroke-width:1.11211407" /><path
   id="XMLID_251_"
   class="st4"
   d="m 691.41797,548.55512 h -31.2504 v -4.67088 c 0,-2.78029 2.22423,-5.00451 5.00451,-5.00451 h 21.13017 c 2.78028,0 5.00451,2.22422 5.00451,5.00451 v 4.67088 z"
   inkscape:connector-curvature="0"
   style="fill:#96628a;stroke-width:1.11211407" />
<rect
   id="XMLID_64_"
   x="344.99445"
   y="349.15305"
   class="st8"
   width="267.3522"
   height="220.97705"
   style="fill:#ab8fb8;stroke-width:1.11211407" /><path
   id="XMLID_245_"
   class="st5"
   d="m 688.19284,538.76851 h -3.44755 c 1.77938,0 3.22513,1.22333 3.22513,2.78029 v 6.89511 h 3.44755 v -6.89511 c 0,-1.55696 -1.44574,-2.78029 -3.22513,-2.78029 z"
   inkscape:connector-curvature="0"
   style="fill:#84517a;stroke-width:1.11211407" />
<rect
   id="XMLID_44_"
   x="328.0903"
   y="349.15305"
   class="st26"
   width="267.3522"
   height="220.97705"
   style="fill:#fffdff;stroke-width:1.11211407" /><path
   id="XMLID_170_"
   class="st6"
   d="M 690.97313,596.82087 H 660.5012 c -3.8924,0 -6.8951,-3.11392 -6.8951,-6.89511 v -34.36432 c 0,-3.8924 3.11392,-6.89511 6.8951,-6.89511 h 30.47193 c 3.8924,0 6.89511,3.11392 6.89511,6.89511 v 34.36432 c 0.11121,3.78119 -3.00271,6.89511 -6.89511,6.89511 z"
   inkscape:connector-curvature="0"
   style="fill:#cc83b4;stroke-width:1.11211407" />
<rect
   id="XMLID_26_"
   x="513.81335"
   y="733.49969"
   class="st9"
   width="62.612019"
   height="28.914965"
   style="fill:#dfcce2;stroke-width:1.11211407" /><path
   id="XMLID_252_"
   class="st7"
   d="m 690.97313,548.55512 h -5.11573 c 3.8924,0 6.89511,3.11392 6.89511,6.89511 v 34.36432 c 0,3.8924 -3.11392,6.89511 -6.89511,6.89511 h 5.11573 c 3.8924,0 6.89511,-3.11392 6.89511,-6.89511 v -34.36432 c 0.11121,-3.78119 -3.00271,-6.89511 -6.89511,-6.89511 z"
   inkscape:connector-curvature="0"
   style="fill:#bc71a7;stroke-width:1.11211407" />
<rect
   id="XMLID_24_"
   x="568.64056"
   y="733.49969"
   class="st12"
   width="62.612019"
   height="28.914965"
   style="fill:#b39fc1;stroke-width:1.11211407" /><g
   id="XMLID_30_"
   transform="matrix(1.112114,0,0,1.112114,-176.03098,1.2837955)">
	<path
   id="XMLID_7_"
   class="st13"
   d="m 682.6,414.2 -7.4,2 c -0.9,0.2 -1.5,1.1 -1.5,2.2 -0.4,5.7 0,12.6 1.4,20.7 3.3,19.2 11.8,42.2 24.3,62.9 1.5,2.6 4.5,1.8 4.6,-1.2 0.6,-24.2 -3.3,-48.4 -9.9,-66.7 -2.8,-7.7 -5.8,-13.9 -9,-18.7 -0.7,-0.9 -1.6,-1.4 -2.5,-1.2 z"
   inkscape:connector-curvature="0"
   style="fill:#f7cd84" />
	<path
   id="XMLID_6_"
   class="st14"
   d="m 694.1,434.1 c -2.8,-7.7 -5.8,-13.9 -9,-18.7 -0.6,-1 -1.6,-1.4 -2.4,-1.2 l -3.4,0.9 c 0.8,1.1 1.8,2.3 2.7,3.7 0,0 1.4,2.2 2.8,4.6 7.8,13.9 10.8,26.7 13.3,37.6 1.8,7.8 2.5,13.3 3.8,24.3 0.5,3.8 1.7,14.2 0.4,18.1 0.9,-0.3 1.7,-1.2 1.7,-2.7 0.6,-24 -3.3,-48.2 -9.9,-66.6 z"
   inkscape:connector-curvature="0"
   style="fill:#f8b461" />
	<path
   id="XMLID_2_"
   class="st15"
   d="m 670.3,385.9 c 0,-0.4 -0.4,-0.5 -0.7,-0.3 -2.3,2.8 -7.8,10.7 -6.1,20.4 0.2,1.1 2.1,11.3 9.8,14.8 2.5,1.1 4.4,1 4.8,1 4.6,-0.3 8.8,-4.6 9.8,-9.1 1.3,-5.8 -2.8,-12 -7.2,-14.5 -2.2,-1.3 -4.2,-1.4 -6.8,-3.9 -2.6,-2.4 -3.3,-4.7 -3.4,-5.2 -0.3,-1.2 -0.3,-2.3 -0.2,-3.2 z"
   inkscape:connector-curvature="0"
   style="fill:#6f5a66" />
	<path
   id="XMLID_8_"
   class="st16"
   d="m 680.8,398.2 c -2.2,-1.3 -4.2,-1.4 -6.8,-3.9 -2.6,-2.4 -3.3,-4.7 -3.4,-5.2 -0.3,-1.1 -0.3,-2.2 -0.3,-3 0,-0.2 -0.1,-0.4 -0.3,-0.4 -0.2,1 -0.4,2.4 -0.1,4 0.1,0.6 0.6,3 3,5.8 2.5,2.8 4.5,3.1 6.6,4.7 4.2,3 7.9,9.9 6.1,15.8 -0.4,1.2 -0.9,2.3 -1.6,3.4 2,-1.7 3.5,-4.1 4,-6.6 1.2,-5.9 -2.9,-12.1 -7.2,-14.6 z"
   inkscape:connector-curvature="0"
   style="fill:#6b4c5f" />
	<path
   id="XMLID_36_"
   class="st17"
   d="m 673.9,394.3 c -2.6,-2.4 -3.3,-4.7 -3.4,-5.2 -0.3,-1.2 -0.3,-2.3 -0.3,-3.1 0,-0.4 -0.4,-0.5 -0.7,-0.3 -2.1,2.6 -6.9,9.5 -6.3,18.1 0,0 0.1,0.7 0.1,0.9 v 16.5 c 0,1 0.8,1.9 1.9,1.9 v 0 c 1,0 1.9,-0.8 1.9,-1.9 v -15.6 c 0,-0.7 0.6,-1.3 1.3,-1.3 0.7,0 1.3,0.6 1.3,1.3 v 2.9 c 0,0.8 0.5,1.5 1.3,1.6 1,0.2 1.8,-0.6 1.8,-1.6 v -1.1 c 0,-1.2 -0.1,-4.2 2,-4.7 4.6,-1.1 4.7,-1.9 5.7,-4.6 v 0 c -2,-1.2 -3.9,-1.3 -6.6,-3.8 z"
   inkscape:connector-curvature="0"
   style="fill:#ed4a5e" />
</g><rect
   id="XMLID_53_"
   x="-704.61597"
   y="-781.43182"
   transform="scale(-1)"
   class="st18"
   width="11.12114"
   height="166.81711"
   style="fill:#de6173;stroke-width:1.11211407" /><rect
   id="XMLID_22_"
   x="-693.49481"
   y="-781.43182"
   transform="scale(-1)"
   class="st19"
   width="13.345368"
   height="166.81711"
   style="fill:#f37f82;stroke-width:1.11211407" /><rect
   id="XMLID_70_"
   x="622.35571"
   y="743.39746"
   class="st20"
   width="64.502617"
   height="14.457482"
   style="fill:#dd6b80;stroke-width:1.11211407" /><rect
   id="XMLID_16_"
   x="622.35571"
   y="614.61469"
   class="st20"
   width="64.502617"
   height="44.484562"
   style="fill:#dd6b80;stroke-width:1.11211407" /><path
   id="XMLID_126_"
   class="st21"
   d="m 673.95778,635.07759 h -5.33814 c -1.8906,0 -3.33635,-1.44575 -3.33635,-3.33634 v 0 c 0,-1.89059 1.44575,-3.33634 3.33635,-3.33634 h 5.33814 c 1.8906,0 3.33635,1.44575 3.33635,3.33634 v 0 c 0,1.77938 -1.44575,3.33634 -3.33635,3.33634 z"
   inkscape:connector-curvature="0"
   style="opacity:0.34000017;fill:#f37f82;stroke-width:1.11211407" /><path
   id="XMLID_124_"
   class="st21"
   d="m 678.40624,645.30904 h -25.80105 c -1.89059,0 -3.33634,-1.44575 -3.33634,-3.33634 v 0 c 0,-1.8906 1.44575,-3.33634 3.33634,-3.33634 h 25.80105 c 1.89059,0 3.33634,1.44574 3.33634,3.33634 v 0 c 0,1.89059 -1.44575,3.33634 -3.33634,3.33634 z"
   inkscape:connector-curvature="0"
   style="opacity:0.34000017;fill:#f37f82;stroke-width:1.11211407" /><path
   id="XMLID_122_"
   class="st21"
   d="m 659.27788,635.07759 h -15.23596 c -1.8906,0 -3.33635,-1.44575 -3.33635,-3.33634 v 0 c 0,-1.89059 1.44575,-3.33634 3.33635,-3.33634 h 15.23596 c 1.89059,0 3.33634,1.44575 3.33634,3.33634 v 0 c 0,1.77938 -1.44575,3.33634 -3.33634,3.33634 z"
   inkscape:connector-curvature="0"
   style="opacity:0.34000017;fill:#f37f82;stroke-width:1.11211407" /><g
   id="XMLID_33_"
   transform="matrix(1.112114,0,0,1.112114,-176.03098,1.2837955)">
	<polygon
   id="XMLID_15_"
   class="st24"
   points="725.8,403.2 723.1,391.1 718.3,390.4 712.2,401.2 "
   style="fill:#c5e1df" />
	<path
   id="XMLID_4_"
   class="st13"
   d="m 706.7,491.6 -1.7,-0.2 c -3.3,-0.5 -5.5,-3.5 -5.1,-6.8 l 12.3,-83.3 13.5,2 -12.3,83.3 c -0.4,3.2 -3.5,5.5 -6.7,5 z"
   inkscape:connector-curvature="0"
   style="fill:#f7cd84" />
	<path
   id="XMLID_10_"
   class="st14"
   d="m 702.6,491 v 0 c -1.9,-0.3 -3.3,-2.1 -3,-4 l 12.7,-85.8 3.5,0.5 z"
   inkscape:connector-curvature="0"
   style="fill:#f8b461" />
	<path
   id="XMLID_12_"
   class="st14"
   d="m 709.1,491.9 v 0 l 13.2,-89.3 3.5,0.5 -12.7,85.8 c -0.3,2 -2.1,3.3 -4,3 z"
   inkscape:connector-curvature="0"
   style="fill:#f8b461" />
	<path
   id="XMLID_25_"
   class="st15"
   d="m 723.1,391.1 -1.1,-5 c -0.2,-0.7 -0.9,-0.9 -1.3,-0.2 l -2.5,4.4 z"
   inkscape:connector-curvature="0"
   style="fill:#6f5a66" />
	<polygon
   id="XMLID_14_"
   class="st25"
   points="725.8,403.2 723.1,391.1 720.8,390.7 722.3,402.7 "
   style="fill:#a5ceca" />
</g><rect
   id="XMLID_51_"
   x="-540.02307"
   y="-781.43182"
   transform="scale(-1)"
   class="st18"
   width="11.12114"
   height="166.81711"
   style="fill:#de6173;stroke-width:1.11211407" /><rect
   id="XMLID_45_"
   x="-528.90198"
   y="-781.43182"
   transform="scale(-1)"
   class="st19"
   width="13.345368"
   height="166.81711"
   style="fill:#f37f82;stroke-width:1.11211407" /><rect
   id="XMLID_18_"
   x="-633.44067"
   y="-781.43182"
   transform="scale(-1)"
   class="st18"
   width="11.12114"
   height="166.81711"
   style="fill:#de6173;stroke-width:1.11211407" /><rect
   id="XMLID_11_"
   x="-622.31952"
   y="-781.43182"
   transform="scale(-1)"
   class="st19"
   width="13.345368"
   height="166.81711"
   style="fill:#f37f82;stroke-width:1.11211407" /><rect
   id="XMLID_62_"
   x="533.94263"
   y="614.61469"
   class="st19"
   width="75.067696"
   height="44.484562"
   style="fill:#f37f82;stroke-width:1.11211407" /><rect
   id="XMLID_68_"
   x="533.94263"
   y="743.39746"
   class="st19"
   width="75.067696"
   height="14.457482"
   style="fill:#f37f82;stroke-width:1.11211407" />
<rect
   id="XMLID_5_"
   x="504.47162"
   y="596.82086"
   class="st19"
   width="117.88409"
   height="17.793825"
   style="fill:#f37f82;stroke-width:1.11211407" />
<rect
   id="XMLID_17_"
   x="622.35571"
   y="596.82086"
   class="st18"
   width="88.969124"
   height="17.793825"
   style="fill:#de6173;stroke-width:1.11211407" />
<rect
   id="XMLID_60_"
   x="533.94263"
   y="614.61469"
   class="st27"
   width="75.067696"
   height="6.1166272"
   style="fill:#e26971;stroke-width:1.11211407" />
<rect
   id="XMLID_61_"
   x="-659.08112"
   y="633.45874"
   transform="rotate(-90)"
   class="st28"
   width="44.484562"
   height="4.4484563"
   style="fill:#ce5f78;stroke-width:1.11211407" />
<rect
   id="XMLID_71_"
   x="-757.87384"
   y="633.42169"
   transform="rotate(-90)"
   class="st28"
   width="14.457482"
   height="4.4484563"
   style="fill:#ce5f78;stroke-width:1.11211407" />
<rect
   id="XMLID_63_"
   x="-686.82214"
   y="-620.78168"
   transform="scale(-1)"
   class="st28"
   width="51.157246"
   height="6.1166272"
   style="fill:#ce5f78;stroke-width:1.11211407" />
<rect
   id="XMLID_65_"
   x="609.01038"
   y="614.61469"
   class="st27"
   width="13.345368"
   height="0.66726846"
   style="fill:#e26971;stroke-width:1.11211407" />
<rect
   id="XMLID_67_"
   x="515.59277"
   y="614.61469"
   class="st27"
   width="13.345368"
   height="0.66726846"
   style="fill:#e26971;stroke-width:1.11211407" />
<circle
   id="XMLID_74_"
   class="st27"
   cx="574.53479"
   cy="637.96912"
   r="6.1166272"
   style="fill:#e26971;stroke-width:1.11211407" />
<circle
   id="XMLID_66_"
   class="st29"
   cx="571.42084"
   cy="637.41302"
   r="6.1166272"
   style="fill:#633047;stroke-width:1.11211407" />
<ellipse
   id="XMLID_72_"
   transform="rotate(-5.0951043)"
   class="st30"
   cx="510.96945"
   cy="683.01447"
   rx="2.3353255"
   ry="1.8905015"
   style="fill:#f4cee1;stroke-width:1.11205971" />
<path
   id="XMLID_76_"
   class="st31"
   d="m 603.67218,630.40671 h -12.23326 c -1.89059,0 -3.33634,-1.44575 -3.33634,-3.33634 v 0 c 0,-1.89059 1.44575,-3.33634 3.33634,-3.33634 h 12.23326 c 1.89059,0 3.33634,1.44575 3.33634,3.33634 v 0 c 0,1.89059 -1.44575,3.33634 -3.33634,3.33634 z"
   inkscape:connector-curvature="0"
   style="opacity:0.4;fill:#e26971;stroke-width:1.11211407" />
<path
   id="XMLID_79_"
   class="st31"
   d="m 597.1107,640.74937 h -8.22964 c -1.8906,0 -3.33634,-1.44575 -3.33634,-3.33634 v 0 c 0,-1.89059 1.44574,-3.33634 3.33634,-3.33634 h 8.22964 c 1.8906,0 3.33634,1.44575 3.33634,3.33634 v 0 c 0,1.89059 -1.55696,3.33634 -3.33634,3.33634 z"
   inkscape:connector-curvature="0"
   style="opacity:0.4;fill:#e26971;stroke-width:1.11211407" />
<path
   id="XMLID_80_"
   class="st32"
   d="m 582.20837,653.09384 h -40.0361 c -1.8906,0 -3.33634,-1.44575 -3.33634,-3.33634 v 0 c 0,-1.8906 1.44574,-3.33635 3.33634,-3.33635 h 40.0361 c 1.8906,0 3.33635,1.44575 3.33635,3.33635 v 0 c 0,1.77938 -1.44575,3.33634 -3.33635,3.33634 z"
   inkscape:connector-curvature="0"
   style="opacity:0.2;fill:#e26971;stroke-width:1.11211407" />
<path
   id="XMLID_77_"
   class="st33"
   d="M 561.07821,653.09384 H 555.184 c -1.89059,0 -3.33634,-1.44575 -3.33634,-3.33634 v 0 c 0,-1.8906 1.44575,-3.33635 3.33634,-3.33635 h 5.783 c 1.89059,0 3.33634,1.44575 3.33634,3.33635 v 0 c 0.11121,1.77938 -1.33454,3.33634 -3.22513,3.33634 z"
   inkscape:connector-curvature="0"
   style="opacity:0.38999999;fill:#e26971;stroke-width:1.11211407" />
<path
   id="XMLID_78_"
   class="st31"
   d="m 571.19845,630.40671 h -27.80286 c -1.89059,0 -3.33634,-1.44575 -3.33634,-3.33634 v 0 c 0,-1.89059 1.44575,-3.33634 3.33634,-3.33634 h 27.80286 c 1.89059,0 3.33634,1.44575 3.33634,3.33634 v 0 c 0,1.89059 -1.44575,3.33634 -3.33634,3.33634 z"
   inkscape:connector-curvature="0"
   style="opacity:0.4;fill:#e26971;stroke-width:1.11211407" />
<path
   id="XMLID_91_"
   class="st34"
   d="m 638.14771,596.82087 h -62.27839 c -4.8933,0 -8.89691,-4.00361 -8.89691,-8.89691 v -75.84618 c 0,-1.8906 1.44575,-3.33634 3.33634,-3.33634 h 73.39953 c 1.89059,0 3.33634,1.44574 3.33634,3.33634 v 75.84618 c 0,4.8933 -4.00361,8.89691 -8.89691,8.89691 z"
   inkscape:connector-curvature="0"
   style="fill:#ea3268;stroke-width:1.11211407" />
<path
   id="XMLID_129_"
   class="st35"
   d="m 628.2499,508.74144 v 79.18252 c 0,4.8933 -4.00361,8.89691 -8.89692,8.89691 h 18.90594 c 4.8933,0 8.89691,-4.00361 8.89691,-8.89691 v -75.84618 c 0,-1.8906 -1.44574,-3.33634 -3.33634,-3.33634 z"
   inkscape:connector-curvature="0"
   style="opacity:0.68999999;fill:#aa235b;stroke-width:1.11211407" />








<rect
   id="XMLID_27_"
   x="418.39398"
   y="303.77881"
   class="st9"
   width="95.975449"
   height="45.374252"
   style="fill:#dfcce2;stroke-width:1.11211407" />
<circle
   id="XMLID_111_"
   class="st10"
   cx="473.22119"
   cy="326.46594"
   r="11.454775"
   style="opacity:0.8199999;fill:#a380af;stroke-width:1.11211407" />
<circle
   id="XMLID_28_"
   class="st37"
   cx="470.21851"
   cy="326.46594"
   r="11.454775"
   style="fill:#736177;stroke-width:1.11211407" />


<path
   id="XMLID_167_"
   class="st17"
   d="m 557.0746,740.72843 c -2.11302,0 -3.8924,-1.77939 -3.8924,-3.8924 0,-2.11302 1.77938,-3.8924 3.8924,-3.8924 h 46.82 v -2.78029 h -46.82 c -3.66998,0 -6.67269,3.00271 -6.67269,6.67269 0,3.66997 3.00271,6.67268 6.67269,6.67268 h 46.82 v -2.78028 z"
   inkscape:connector-curvature="0"
   style="fill:#ed4a5e;stroke-width:1.11211407" />
<path
   id="XMLID_159_"
   class="st39"
   d="m 557.0746,740.72843 c -2.11302,0 -3.8924,-1.77939 -3.8924,-3.8924 0,-2.11302 1.77938,-3.8924 3.8924,-3.8924 h 44.70698 v 7.7848 z"
   inkscape:connector-curvature="0"
   style="fill:#f4e1e4;stroke-width:1.11211407" />
<rect
   id="XMLID_209_"
   x="582.87567"
   y="732.94366"
   class="st40"
   width="18.905939"
   height="7.7847981"
   style="opacity:0.2;fill:#442228;stroke-width:1.11211407" />
<rect
   id="XMLID_153_"
   x="582.87567"
   y="730.16339"
   class="st40"
   width="21.018955"
   height="2.6690738"
   style="opacity:0.2;fill:#442228;stroke-width:1.11211407" />
<rect
   id="XMLID_180_"
   x="582.87567"
   y="740.72845"
   class="st40"
   width="21.018955"
   height="2.6690738"
   style="opacity:0.2;fill:#442228;stroke-width:1.11211407" />


</svg>