<?xml version="1.0" encoding="UTF-8" standalone="no"?>
<svg
   xmlns:dc="http://purl.org/dc/elements/1.1/"
   xmlns:svg="http://www.w3.org/2000/svg"
   xmlns="http://www.w3.org/2000/svg"
   version="1.1"
   viewBox="0 0 45 55"
   >
  <path
     style="opacity:1;fill:#ffffff;fill-opacity:1;stroke:#000000;stroke-width:1.73522854;stroke-linejoin:miter;stroke-miterlimit:4;stroke-dasharray:none;stroke-dashoffset:0;stroke-opacity:0.98188405"
     d="M 1.9651256,2.0194062 V 52.607295 H 38.140907 V 9.8865936 L 30.27372,2.0194062 Z"
     id="rect817"
     />
  <path
     style="fill:#cccccc;fill-opacity:1;stroke-width:0.06707484"
     id="path2"
     d="m 20.037755,21.835494 c -7.064391,0.485219 -12.6287164,6.353327 -12.6287164,13.542677 0,7.507686 6.0679904,13.575747 13.5758144,13.575747 2.196703,0 4.269987,-0.520299 6.104278,-1.443452 l -1.493082,-1.058441 c -1.420177,0.592944 -2.977721,0.921207 -4.611065,0.921207 -6.617065,0 -11.9947924,-5.377524 -11.9947924,-11.994592 0,-6.09992 4.5700154,-11.146362 10.4680394,-11.897869 l 0.579327,-1.645211 z m 1.974145,0.0051 0.573829,1.650309 c 5.862136,0.784105 10.393916,5.813374 10.393916,11.887673 0,3.235287 -1.285821,6.173769 -3.373192,8.332707 l 0.579057,1.655809 c 2.691043,-2.479287 4.375288,-6.034053 4.375288,-9.988985 0,-7.162386 -5.5224,-13.014062 -12.548898,-13.537581 z m -0.989351,0.971914 -2.166518,6.151164 h 1.269394 V 31.9866 c 0.291774,-0.07928 0.598102,-0.122343 0.914229,-0.122343 0.292445,0 0.576571,0.03669 0.848498,0.104904 v -3.005495 h 1.273076 l -2.138679,-6.151297 z m 4.817313,2.979465 -1.153485,1.998159 c -0.23114,-0.111144 -0.468383,-0.211823 -0.710723,-0.301839 l 0.948703,2.728807 h -1.782575 v 2.351443 c 0.851984,0.64137 1.405215,1.660505 1.405215,2.803258 0,0.58335 -0.144884,1.134237 -0.399502,1.619322 l 2.730285,3.634517 1.305681,-0.983452 0.330273,0.944413 1.381948,0.797989 c 0.233219,-0.345637 0.446517,-0.70576 0.638949,-1.078563 l -1.968648,-1.136581 c 0.467312,-0.928448 0.767806,-1.955364 0.862585,-3.041708 h 2.271286 c 0.01697,-0.247506 0.02631,-0.497159 0.02631,-0.749094 0,-0.169027 -0.0046,-0.337116 -0.0121,-0.504401 h -2.268471 c -0.06576,-1.101572 -0.342748,-2.145927 -0.791211,-3.092955 l 1.975355,-1.140407 c -0.185131,-0.376693 -0.391392,-0.740909 -0.617633,-1.091039 l -1.977367,1.141613 C 27.433076,29.796006 26.664133,29.022633 25.772303,28.416142 L 26.922841,26.42335 C 26.575522,26.192746 26.214124,25.981661 25.83998,25.792175 Z m -9.751338,0.02099 c -0.373407,0.191164 -0.733799,0.403993 -1.080177,0.636072 l 1.181861,2.047326 c -0.864597,0.609708 -1.608991,1.378051 -2.191336,2.262901 l -2.055508,-1.186888 c -0.225504,0.350667 -0.430753,0.715487 -0.614872,1.092649 l 2.061209,1.189908 c -0.428274,0.92751 -0.692881,1.946242 -0.756941,3.019374 h -2.376594 c -0.0077,0.167218 -0.01223,0.335239 -0.01223,0.504402 0,0.251867 0.0094,0.501519 0.02631,0.749026 h 2.379612 c 0.09236,1.058106 0.379911,2.059733 0.826631,2.968998 l -2.053364,1.185482 c 0.191504,0.373272 0.404329,0.733666 0.636673,1.079906 l 2.051957,-1.184744 c 0.586567,0.846619 1.32426,1.580285 2.174435,2.162225 l -1.175621,2.035923 c 0.348924,0.228055 0.712065,0.436321 1.087682,0.623259 l 1.172004,-2.03002 c 0.907856,0.439608 1.906802,0.720787 2.961148,0.808386 v 2.322132 c 0.216251,0.01295 0.434114,0.02033 0.653712,0.02033 0.201225,0 0.401107,-0.0061 0.599648,-0.0169 v -2.313907 c 0.442361,-0.02817 0.875192,-0.09109 1.296225,-0.18486 l 0.716491,-0.539749 -3.187396,-4.242952 c -1.63166,-0.298753 -2.878049,-1.73469 -2.878049,-3.449526 0,-1.112974 0.5254,-2.108163 1.339892,-2.751813 V 30.21695 h -1.786205 l 0.952194,-2.703787 c -0.263877,0.100611 -0.521645,0.213568 -0.772034,0.339131 l -1.177429,-2.03941 z m 4.951064,7.304852 c -1.252288,0 -2.254049,1.001764 -2.254049,2.254052 0,1.252287 1.001827,2.253915 2.254049,2.253915 1.252288,0 2.253983,-1.001696 2.253983,-2.253915 0,-1.252288 -1.001695,-2.253984 -2.253983,-2.253984 z" />
  <path
     style="fill:#000000;stroke:none;stroke-width:0.40913865"
     d="m 32.082288,34.874273 h -0.368224 q -0.122742,-1.06376 -0.409139,-1.554727 -0.818277,-1.554727 -2.986712,-1.554727 h -2.618488 v 13.910715 q 0,1.718382 0.368225,2.168434 0.490967,0.572795 1.595641,0.572795 h 0.53188 v 0.286397 h -7.545925 v -0.286397 h 0.572795 q 1.145588,0 1.677468,-0.73645 0.310107,-0.409139 0.310107,-1.963866 V 31.764819 h -2.250262 q -2.20935,0 -3.027627,1.186502 -0.44599,0.73645 -0.549359,1.922952 h -0.356683 l 0.20457,-4.091386 h 14.60625 z"
     id="path5605" />
  <path
     style="opacity:1;fill:#008000;fill-opacity:0.97826089;stroke:none;stroke-width:1.88976383;stroke-linejoin:miter;stroke-miterlimit:4;stroke-dasharray:none;stroke-dashoffset:0;stroke-opacity:0.11594202"
     d="m 14.451454,6.6951866 a 7.1323528,5.5147057 0 0 0 -7.1328134,5.5156254 7.1323528,5.5147057 0 0 0 7.1328134,5.513671 7.1323528,5.5147057 0 0 0 1.730469,-0.169922 6.25,5 0 0 1 -0.333985,-1.59375 6.25,5 0 0 1 5.550782,-4.962889 7.1323528,5.5147057 0 0 0 -6.947266,-4.3027354 z"
     id="path6178"
     />
  <ellipse
     ry="5"
     rx="6.25"
     cy="16.489305"
     cx="22.774067"
     id="ellipse6183"
     style="opacity:1;fill:#008080;fill-opacity:0.97826089;stroke:none;stroke-width:1.88976383;stroke-linejoin:miter;stroke-miterlimit:4;stroke-dasharray:none;stroke-dashoffset:0;stroke-opacity:0.11594202" />
  <path
     style="fill:none;fill-rule:evenodd;stroke:#000000;stroke-width:1px;stroke-linecap:butt;stroke-linejoin:miter;stroke-opacity:1"
     d="m 30.27372,2.0194062 0.147231,7.8228394 c 2.653021,0.03413 5.410332,0.04725 7.719956,0.04435"
     id="path6785"
     />
</svg>
