<?xml version="1.0" encoding="UTF-8" standalone="no"?>
<svg
   xmlns:dc="http://purl.org/dc/elements/1.1/"
   xmlns:cc="http://creativecommons.org/ns#"
   xmlns:rdf="http://www.w3.org/1999/02/22-rdf-syntax-ns#"
   xmlns:svg="http://www.w3.org/2000/svg"
   xmlns="http://www.w3.org/2000/svg"
   xmlns:sodipodi="http://sodipodi.sourceforge.net/DTD/sodipodi-0.dtd"
   xmlns:inkscape="http://www.inkscape.org/namespaces/inkscape"
   width="28"
   height="49"
   viewBox="0 0 28 49"
   version="1.1"
   id="svg9"
   sodipodi:docname="bg_hexagons.svg"
   inkscape:version="0.92.3 (2405546, 2018-03-11)">
  <metadata
     id="metadata15">
    <rdf:RDF>
      <cc:Work
         rdf:about="">
        <dc:format>image/svg+xml</dc:format>
        <dc:type
           rdf:resource="http://purl.org/dc/dcmitype/StillImage" />
      </cc:Work>
    </rdf:RDF>
  </metadata>
  <defs
     id="defs13" />
  <sodipodi:namedview
     pagecolor="#ffffff"
     bordercolor="#666666"
     borderopacity="1"
     objecttolerance="10"
     gridtolerance="10"
     guidetolerance="10"
     inkscape:pageopacity="0"
     inkscape:pageshadow="2"
     inkscape:window-width="1406"
     inkscape:window-height="480"
     id="namedview11"
     showgrid="false"
     inkscape:zoom="4.8163265"
     inkscape:cx="14"
     inkscape:cy="24.5"
     inkscape:window-x="0"
     inkscape:window-y="27"
     inkscape:window-maximized="0"
     inkscape:current-layer="svg9" />
  <rect
     x="0"
     y="0"
     width="28"
     height="49"
     fill="#005005"
     id="rect2" />
  <path
     style="fill:#2d6634;fill-rule:nonzero;fill-opacity:1"
     d="m 13.99,9.25 13,7.5 v 15 l -13,7.5 L 1,31.75 v -15 z M 3,17.9 v 12.7 l 10.99,6.34 11,-6.35 V 17.9 l -11,-6.34 z M 0,15 12.98,7.5 V 0 h -2 V 6.35 L 0,12.69 v 2.3 z M 0,33.5 12.98,41 v 8 h -2 V 42.15 L 0,35.81 v -2.3 z M 15,0 V 7.5 L 27.99,15 H 28 V 12.69 H 27.99 L 17,6.35 V 0 Z m 0,49 V 41 L 27.99,33.5 H 28 v 2.31 H 27.99 L 17,42.15 V 49 Z"
     id="path4"
     inkscape:connector-curvature="0" />
</svg>
